%TF.GenerationSoftware,KiCad,Pcbnew,10.0.0*%
%TF.CreationDate,2026-06-13T21:44:01-06:00*%
%TF.ProjectId,Burnwing,4275726e-7769-46e6-972e-6b696361645f,Rev 1*%
%TF.SameCoordinates,Original*%
%TF.FileFunction,Copper,L4,Bot*%
%TF.FilePolarity,Positive*%
%FSLAX46Y46*%
G04 Gerber Fmt 4.6, Leading zero omitted, Abs format (unit mm)*
G04 Created by KiCad (PCBNEW 10.0.0) date 2026-06-13 21:44:01*
%MOMM*%
%LPD*%
G01*
G04 APERTURE LIST*
%TA.AperFunction,ComponentPad*%
%ADD10C,4.400000*%
%TD*%
%TA.AperFunction,ComponentPad*%
%ADD11O,2.000000X1.000000*%
%TD*%
%TA.AperFunction,ComponentPad*%
%ADD12R,1.000000X1.000000*%
%TD*%
%TA.AperFunction,ComponentPad*%
%ADD13O,1.000000X1.000000*%
%TD*%
%TA.AperFunction,ComponentPad*%
%ADD14C,1.700000*%
%TD*%
%TA.AperFunction,ComponentPad*%
%ADD15O,1.700000X1.700000*%
%TD*%
%TA.AperFunction,ViaPad*%
%ADD16C,0.800000*%
%TD*%
%TA.AperFunction,ViaPad*%
%ADD17C,0.600000*%
%TD*%
%TA.AperFunction,Conductor*%
%ADD18C,0.200000*%
%TD*%
G04 APERTURE END LIST*
D10*
%TO.P,H2,1,1_1*%
%TO.N,Net-(H2-Pad1)*%
X125840000Y-82589900D03*
%TD*%
%TO.P,H4,1,1_1*%
%TO.N,Net-(H4-Pad1)*%
X80094400Y-100371200D03*
%TD*%
D11*
%TO.P,J2,MP,MountPoint_MP*%
%TO.N,GND*%
X83090400Y-87183000D03*
X78910400Y-87183000D03*
X83090400Y-95823000D03*
X78910400Y-95823000D03*
%TD*%
D12*
%TO.P,JP1,1,A_1*%
%TO.N,BURN_CTRL_1*%
X107750000Y-88450000D03*
D13*
%TO.P,JP1,2,C_2*%
%TO.N,Net-(Burn1-D)*%
X107750000Y-87180000D03*
%TO.P,JP1,3,B_3*%
%TO.N,Net-(JP1-B)*%
X107750000Y-85910000D03*
%TD*%
D14*
%TO.P,J1,1,Pin_1_1*%
%TO.N,MICRO_BURN_1*%
X96510000Y-81350000D03*
D15*
%TO.P,J1,2,Pin_2_2*%
%TO.N,MICRO_BURN_2*%
X99050000Y-81350000D03*
%TD*%
D10*
%TO.P,H3,1,1_1*%
%TO.N,Net-(H3-Pad1)*%
X109040021Y-82501754D03*
%TD*%
%TO.P,H6,1,1_1*%
%TO.N,Net-(H6-Pad1)*%
X125832900Y-100371200D03*
%TD*%
%TO.P,H1,1,1_1*%
%TO.N,Net-(H1-Pad1)*%
X80154400Y-82651200D03*
%TD*%
%TO.P,H5,1,1_1*%
%TO.N,Net-(H5-Pad1)*%
X109032921Y-100283054D03*
%TD*%
D12*
%TO.P,JP2,1,A_1*%
%TO.N,BURN_CTRL_2*%
X107750000Y-94525000D03*
D13*
%TO.P,JP2,2,C_2*%
%TO.N,Net-(Burn2-D)*%
X107750000Y-95795000D03*
%TO.P,JP2,3,B_3*%
%TO.N,Net-(JP2-B)*%
X107750000Y-97065000D03*
%TD*%
D16*
%TO.N,VDC*%
X110600000Y-90500000D03*
X127480000Y-93385000D03*
X111850000Y-90500000D03*
X128180000Y-89660000D03*
X99912431Y-98448990D03*
X93552431Y-98438990D03*
X111850000Y-92500000D03*
X90450000Y-85050000D03*
X92050000Y-87700000D03*
D17*
X101450000Y-84900000D03*
D16*
X110600000Y-91500000D03*
X127480000Y-89660000D03*
X98600000Y-87750000D03*
X111850000Y-91500000D03*
X110600000Y-92500000D03*
X92050000Y-85000000D03*
X128180000Y-93385000D03*
X87900000Y-85000000D03*
%TO.N,GND*%
X130330000Y-90885000D03*
D17*
X93800000Y-85000000D03*
X103400000Y-85800000D03*
X120649207Y-100920686D03*
D16*
X88225000Y-92725000D03*
X85900000Y-98897500D03*
X128180000Y-94685000D03*
X88889981Y-80598833D03*
D17*
X120649207Y-81970686D03*
X112300000Y-98500000D03*
D16*
X81850000Y-85700000D03*
X81750000Y-97340000D03*
X127480000Y-94685000D03*
X88240000Y-93520000D03*
X101482431Y-99298990D03*
D17*
X101550000Y-90550000D03*
X102400000Y-85800000D03*
X107450000Y-89511254D03*
X93700000Y-90300000D03*
D16*
X85900000Y-100147500D03*
X89000000Y-96750000D03*
X88240000Y-91910000D03*
D17*
X94950000Y-90300000D03*
X112000000Y-87725000D03*
D16*
X82830000Y-80830000D03*
X86983631Y-80596702D03*
X125930000Y-85735000D03*
X127480000Y-88385000D03*
X128180000Y-88385000D03*
X130330000Y-88385000D03*
D17*
X112050000Y-84300000D03*
D16*
X94982431Y-99298990D03*
X130330000Y-93385000D03*
D17*
X112050000Y-95300000D03*
D16*
X90990000Y-80610000D03*
X130330000Y-89685000D03*
D17*
X114750000Y-84025000D03*
X94000000Y-80600000D03*
D16*
X130330000Y-92185000D03*
X88190000Y-94680000D03*
X125980000Y-97335000D03*
X130330000Y-94685000D03*
D17*
X113900000Y-98500000D03*
X100150000Y-90550000D03*
%TO.N,Net-(U1-ISET)*%
X91001000Y-94250000D03*
X90000000Y-99350000D03*
%TO.N,/CC1*%
X85313709Y-93100000D03*
X85000000Y-90250000D03*
%TO.N,/D+*%
X84700000Y-91153000D03*
X84700000Y-92353000D03*
%TO.N,BURN_CTRL_1*%
X121725000Y-90600000D03*
%TO.N,Net-(Burn1-D)*%
X96750000Y-91500000D03*
%TO.N,BURN_CTRL_2*%
X123825000Y-91150000D03*
%TD*%
%TO.N,Net-(U1-ISET)*%
D18*
X90000000Y-99350000D02*
X91001000Y-98349000D01*
X91001000Y-98349000D02*
X91001000Y-94250000D01*
%TO.N,/CC1*%
X85000000Y-90250000D02*
X85300000Y-90550000D01*
X85301000Y-92850297D02*
X85313709Y-92863006D01*
X85301000Y-90701000D02*
X85301000Y-92850297D01*
X85300000Y-90550000D02*
X85300000Y-90700000D01*
X85300000Y-90700000D02*
X85301000Y-90701000D01*
X85313709Y-92863006D02*
X85313709Y-93100000D01*
%TO.N,/D+*%
X84700000Y-91153000D02*
X84700000Y-92353000D01*
%TO.N,BURN_CTRL_1*%
X113850000Y-90600000D02*
X111750000Y-88500000D01*
X111750000Y-88500000D02*
X107800000Y-88500000D01*
X121725000Y-90600000D02*
X113850000Y-90600000D01*
%TO.N,Net-(Burn1-D)*%
X107750000Y-86930000D02*
X106900000Y-87780000D01*
X106700000Y-90657107D02*
X106407107Y-90950000D01*
X106407107Y-90950000D02*
X106400000Y-90950000D01*
X97900000Y-92650000D02*
X96750000Y-91500000D01*
X106900000Y-90450000D02*
X106700000Y-90650000D01*
X102500000Y-92650000D02*
X97900000Y-92650000D01*
X107800000Y-86930000D02*
X107750000Y-86930000D01*
X103950000Y-91200000D02*
X102500000Y-92650000D01*
X106150000Y-91200000D02*
X103950000Y-91200000D01*
X106400000Y-90950000D02*
X106150000Y-91200000D01*
X106900000Y-87780000D02*
X106900000Y-90450000D01*
X106700000Y-90650000D02*
X106700000Y-90657107D01*
%TO.N,BURN_CTRL_2*%
X122775000Y-92200000D02*
X113800000Y-92200000D01*
X113800000Y-92200000D02*
X111475000Y-94525000D01*
X111475000Y-94525000D02*
X107800000Y-94525000D01*
X123825000Y-91150000D02*
X122775000Y-92200000D01*
%TD*%
%TA.AperFunction,Conductor*%
%TO.N,GND*%
G36*
X103174002Y-80152586D02*
G01*
X103182669Y-80152952D01*
X103191286Y-80153505D01*
X103346932Y-80166901D01*
X103364151Y-80169144D01*
X103368406Y-80169888D01*
X103381219Y-80172131D01*
X103398182Y-80175869D01*
X103523172Y-80209193D01*
X103564673Y-80225422D01*
X103606048Y-80247224D01*
X103621066Y-80256700D01*
X103626625Y-80258716D01*
X103694664Y-80283392D01*
X103718511Y-80293854D01*
X103741496Y-80305789D01*
X103763766Y-80319272D01*
X103877494Y-80398751D01*
X103891267Y-80409301D01*
X103904556Y-80420432D01*
X103917357Y-80432141D01*
X104018637Y-80533271D01*
X104030376Y-80546065D01*
X104041527Y-80559337D01*
X104052109Y-80573110D01*
X104068854Y-80596995D01*
X104134240Y-80690262D01*
X104143584Y-80704912D01*
X104152257Y-80719917D01*
X104160287Y-80735326D01*
X104220810Y-80864977D01*
X104227469Y-80881037D01*
X104233399Y-80897315D01*
X104238627Y-80913879D01*
X104275693Y-81052075D01*
X104279458Y-81069044D01*
X104282471Y-81086118D01*
X104284740Y-81103341D01*
X104294020Y-81209316D01*
X104294020Y-81209318D01*
X104298066Y-81255525D01*
X104298067Y-81255535D01*
X104298388Y-81259203D01*
X104298929Y-81267263D01*
X104299284Y-81274892D01*
X104299500Y-81284136D01*
X104299500Y-81328184D01*
X104299382Y-81332470D01*
X104299833Y-81339909D01*
X104311996Y-83799655D01*
X104311997Y-83800059D01*
X104311999Y-83800745D01*
X104312000Y-83801325D01*
X104312000Y-83900657D01*
X104315029Y-83917833D01*
X104345103Y-84088400D01*
X104346956Y-84098905D01*
X104346956Y-84098908D01*
X104415810Y-84288081D01*
X104471811Y-84385078D01*
X104489629Y-84425918D01*
X104495685Y-84445550D01*
X104502305Y-84533865D01*
X104472018Y-84613213D01*
X104462649Y-84627523D01*
X104436874Y-84659232D01*
X104392015Y-84704091D01*
X104339294Y-84795408D01*
X104339251Y-84795515D01*
X104338856Y-84797041D01*
X104314760Y-84886975D01*
X104312000Y-84897274D01*
X104312000Y-85002727D01*
X104328553Y-85064506D01*
X104335970Y-85092184D01*
X104339294Y-85104590D01*
X104392015Y-85195907D01*
X104392018Y-85195911D01*
X104430393Y-85234286D01*
X104443250Y-85254748D01*
X104443254Y-85254754D01*
X104452674Y-85269745D01*
X104481925Y-85353338D01*
X104472009Y-85441345D01*
X104472008Y-85441349D01*
X104469380Y-85448859D01*
X104422260Y-85523846D01*
X104392026Y-85554078D01*
X104392018Y-85554087D01*
X104392013Y-85554094D01*
X104392011Y-85554098D01*
X104339294Y-85645408D01*
X104339251Y-85645515D01*
X104338856Y-85647041D01*
X104312000Y-85747273D01*
X104312000Y-85852727D01*
X104338966Y-85953367D01*
X104339294Y-85954590D01*
X104392015Y-86045907D01*
X104392018Y-86045911D01*
X104392020Y-86045913D01*
X104392021Y-86045914D01*
X104414538Y-86068431D01*
X104442320Y-86103268D01*
X104452285Y-86119126D01*
X104452674Y-86119745D01*
X104481925Y-86203338D01*
X104472008Y-86291345D01*
X104470097Y-86296809D01*
X104469380Y-86298859D01*
X104422260Y-86373846D01*
X104392026Y-86404078D01*
X104392018Y-86404087D01*
X104392013Y-86404094D01*
X104392011Y-86404098D01*
X104339294Y-86495408D01*
X104339251Y-86495515D01*
X104338856Y-86497041D01*
X104313626Y-86591207D01*
X104312000Y-86597274D01*
X104312000Y-86702728D01*
X104324394Y-86748985D01*
X104324395Y-86748987D01*
X104331939Y-86777140D01*
X104339294Y-86804590D01*
X104392015Y-86895907D01*
X104392018Y-86895911D01*
X104451397Y-86955290D01*
X104463751Y-86974952D01*
X104463785Y-86975006D01*
X104474259Y-86991675D01*
X104503507Y-87075269D01*
X104494789Y-87159741D01*
X104489443Y-87175989D01*
X104472751Y-87213292D01*
X104415814Y-87311909D01*
X104415810Y-87311917D01*
X104385751Y-87394505D01*
X104346957Y-87501090D01*
X104346956Y-87501093D01*
X104328475Y-87605909D01*
X104312000Y-87699342D01*
X104312000Y-87798224D01*
X104311997Y-87799295D01*
X104311993Y-87800038D01*
X104311989Y-87800625D01*
X104300482Y-89181587D01*
X104300482Y-89181590D01*
X104299971Y-89242825D01*
X104299500Y-89246864D01*
X104299500Y-89298581D01*
X104299493Y-89300242D01*
X104299121Y-89344719D01*
X104299317Y-89349266D01*
X104299500Y-89357808D01*
X104299500Y-89400658D01*
X104316927Y-89499499D01*
X104316928Y-89499499D01*
X104316928Y-89499500D01*
X104334457Y-89598909D01*
X104361619Y-89673536D01*
X104403310Y-89788081D01*
X104450500Y-89869817D01*
X104455750Y-89878910D01*
X104455751Y-89878912D01*
X104455750Y-89878912D01*
X104459305Y-89885068D01*
X104477132Y-89925925D01*
X104483187Y-89945556D01*
X104489804Y-90033872D01*
X104459518Y-90113213D01*
X104450149Y-90127523D01*
X104424374Y-90159232D01*
X104379515Y-90204091D01*
X104357082Y-90242947D01*
X104326794Y-90295409D01*
X104326793Y-90295413D01*
X104299500Y-90397273D01*
X104299500Y-90397275D01*
X104299500Y-90459556D01*
X104297468Y-90471467D01*
X104300006Y-90539267D01*
X104283542Y-90626286D01*
X104230952Y-90697545D01*
X104152658Y-90738927D01*
X104138516Y-90742717D01*
X104087003Y-90749500D01*
X103890691Y-90749500D01*
X103777638Y-90779790D01*
X103777637Y-90779791D01*
X103776110Y-90780199D01*
X103673388Y-90839506D01*
X103673387Y-90839507D01*
X103673385Y-90839510D01*
X102387537Y-92125359D01*
X102352697Y-92153144D01*
X102330209Y-92167274D01*
X102257683Y-92194961D01*
X102254882Y-92195437D01*
X102247527Y-92196686D01*
X102214187Y-92199500D01*
X98191455Y-92199500D01*
X98147174Y-92194511D01*
X98121280Y-92188601D01*
X98050400Y-92156882D01*
X98041998Y-92150920D01*
X98016446Y-92129342D01*
X97474640Y-91587536D01*
X97446860Y-91552702D01*
X97432723Y-91530205D01*
X97405036Y-91457669D01*
X97392973Y-91386680D01*
X97387633Y-91371249D01*
X97381963Y-91342746D01*
X97381963Y-91342743D01*
X97375502Y-91310262D01*
X97375501Y-91310256D01*
X97326465Y-91191873D01*
X97255276Y-91085331D01*
X97164669Y-90994724D01*
X97082125Y-90939570D01*
X97058129Y-90923536D01*
X97058125Y-90923534D01*
X96975822Y-90889443D01*
X96946262Y-90877199D01*
X96940989Y-90874792D01*
X96925713Y-90871185D01*
X96920517Y-90870674D01*
X96844192Y-90855492D01*
X96844190Y-90855491D01*
X96814069Y-90849500D01*
X96685931Y-90849500D01*
X96655806Y-90855491D01*
X96655807Y-90855492D01*
X96560261Y-90874497D01*
X96560258Y-90874498D01*
X96441873Y-90923534D01*
X96441857Y-90923543D01*
X96335368Y-90994697D01*
X96335330Y-90994724D01*
X96335323Y-90994730D01*
X96244730Y-91085323D01*
X96244724Y-91085330D01*
X96244697Y-91085368D01*
X96173543Y-91191857D01*
X96173534Y-91191873D01*
X96124498Y-91310258D01*
X96124497Y-91310260D01*
X96117001Y-91347947D01*
X96101459Y-91426082D01*
X96099500Y-91435931D01*
X96099500Y-91564069D01*
X96101459Y-91573917D01*
X96110428Y-91619009D01*
X96120610Y-91670198D01*
X96124499Y-91689745D01*
X96130766Y-91704873D01*
X96130768Y-91704878D01*
X96173102Y-91807084D01*
X96173534Y-91808125D01*
X96173536Y-91808129D01*
X96173539Y-91808133D01*
X96173544Y-91808143D01*
X96185522Y-91826068D01*
X96241862Y-91910385D01*
X96244724Y-91914669D01*
X96335331Y-92005276D01*
X96441873Y-92076465D01*
X96560256Y-92125501D01*
X96632789Y-92139929D01*
X96644592Y-92142277D01*
X96650049Y-92143442D01*
X96695434Y-92153800D01*
X96695434Y-92153801D01*
X96728722Y-92161399D01*
X96799599Y-92193116D01*
X96807930Y-92199027D01*
X96808000Y-92199077D01*
X96833550Y-92220653D01*
X97623386Y-93010490D01*
X97692684Y-93050498D01*
X97692686Y-93050500D01*
X97700136Y-93054801D01*
X97726110Y-93069797D01*
X97726114Y-93069799D01*
X97840691Y-93100500D01*
X97840692Y-93100500D01*
X102559307Y-93100500D01*
X102559309Y-93100500D01*
X102581792Y-93094475D01*
X102649673Y-93076286D01*
X102649673Y-93076287D01*
X102649677Y-93076285D01*
X102660202Y-93073464D01*
X102673887Y-93069799D01*
X102776614Y-93010489D01*
X103981898Y-91805204D01*
X104016736Y-91777423D01*
X104026473Y-91771305D01*
X104110066Y-91742055D01*
X104198073Y-91751972D01*
X104273061Y-91799091D01*
X104320179Y-91874081D01*
X104330093Y-91962087D01*
X104330093Y-91962091D01*
X104327677Y-91983528D01*
X104322149Y-92012744D01*
X104299500Y-92097273D01*
X104299500Y-92202727D01*
X104305460Y-92224972D01*
X104320497Y-92281089D01*
X104326794Y-92304590D01*
X104379515Y-92395907D01*
X104379518Y-92395911D01*
X104438897Y-92455290D01*
X104450993Y-92474541D01*
X104451009Y-92474566D01*
X104461759Y-92491675D01*
X104491007Y-92575269D01*
X104482289Y-92659741D01*
X104476943Y-92675989D01*
X104460251Y-92713292D01*
X104403314Y-92811909D01*
X104403310Y-92811917D01*
X104352830Y-92950610D01*
X104334457Y-93001090D01*
X104334456Y-93001093D01*
X104304583Y-93170515D01*
X104304583Y-93170516D01*
X104299501Y-93199341D01*
X104299500Y-93199344D01*
X104299500Y-93270675D01*
X104299271Y-93271241D01*
X104299500Y-93300554D01*
X104299500Y-93353385D01*
X104299687Y-93356615D01*
X104300014Y-93366564D01*
X104311990Y-94899379D01*
X104311994Y-94900142D01*
X104311998Y-94901147D01*
X104312000Y-94901939D01*
X104312000Y-95000656D01*
X104346956Y-95198906D01*
X104346957Y-95198909D01*
X104370172Y-95262690D01*
X104415810Y-95388081D01*
X104415812Y-95388084D01*
X104471810Y-95485075D01*
X104489631Y-95525921D01*
X104495687Y-95545555D01*
X104502304Y-95633871D01*
X104472018Y-95713213D01*
X104462649Y-95727523D01*
X104436874Y-95759232D01*
X104392015Y-95804091D01*
X104339294Y-95895408D01*
X104339251Y-95895515D01*
X104338856Y-95897044D01*
X104312000Y-95997274D01*
X104312000Y-96102727D01*
X104326942Y-96158493D01*
X104337492Y-96197864D01*
X104339294Y-96204590D01*
X104392015Y-96295907D01*
X104392018Y-96295911D01*
X104430393Y-96334286D01*
X104450629Y-96366491D01*
X104452674Y-96369745D01*
X104481925Y-96453338D01*
X104472009Y-96541345D01*
X104472008Y-96541349D01*
X104469380Y-96548859D01*
X104422260Y-96623846D01*
X104392026Y-96654078D01*
X104392018Y-96654087D01*
X104392013Y-96654094D01*
X104392011Y-96654098D01*
X104339294Y-96745408D01*
X104339251Y-96745515D01*
X104338856Y-96747041D01*
X104312000Y-96847273D01*
X104312000Y-96952727D01*
X104324931Y-97000986D01*
X104338235Y-97050640D01*
X104339293Y-97054587D01*
X104339298Y-97054599D01*
X104390659Y-97143559D01*
X104392015Y-97145907D01*
X104392018Y-97145911D01*
X104392019Y-97145912D01*
X104392021Y-97145914D01*
X104414538Y-97168431D01*
X104442320Y-97203268D01*
X104452285Y-97219126D01*
X104452674Y-97219745D01*
X104481925Y-97303338D01*
X104472009Y-97391345D01*
X104472008Y-97391349D01*
X104469380Y-97398859D01*
X104422260Y-97473846D01*
X104392026Y-97504078D01*
X104392018Y-97504087D01*
X104392014Y-97504093D01*
X104339293Y-97595409D01*
X104336146Y-97607155D01*
X104336146Y-97607157D01*
X104312000Y-97697273D01*
X104312000Y-97802727D01*
X104328965Y-97866042D01*
X104335223Y-97889397D01*
X104339294Y-97904590D01*
X104392010Y-97995900D01*
X104392014Y-97995905D01*
X104392015Y-97995907D01*
X104392018Y-97995911D01*
X104392020Y-97995913D01*
X104392021Y-97995914D01*
X104435542Y-98039435D01*
X104463329Y-98074279D01*
X104474259Y-98091675D01*
X104503507Y-98175269D01*
X104494789Y-98259741D01*
X104489443Y-98275989D01*
X104472751Y-98313292D01*
X104415814Y-98411909D01*
X104415810Y-98411917D01*
X104370601Y-98536129D01*
X104346957Y-98601090D01*
X104346956Y-98601093D01*
X104325611Y-98722151D01*
X104312000Y-98799342D01*
X104312000Y-100352162D01*
X104311909Y-100358189D01*
X104311727Y-100364196D01*
X104311455Y-100370176D01*
X104295684Y-100631083D01*
X104294597Y-100643057D01*
X104293150Y-100654977D01*
X104291343Y-100666853D01*
X104245869Y-100915097D01*
X104243347Y-100926849D01*
X104240476Y-100938501D01*
X104237251Y-100950075D01*
X104162191Y-101191040D01*
X104158268Y-101202412D01*
X104154014Y-101213631D01*
X104149420Y-101224724D01*
X104045875Y-101454875D01*
X104040614Y-101465683D01*
X104035041Y-101476305D01*
X104029141Y-101486770D01*
X103898607Y-101702782D01*
X103892082Y-101712878D01*
X103885271Y-101722749D01*
X103878152Y-101732428D01*
X103722545Y-101931127D01*
X103714851Y-101940363D01*
X103706903Y-101949338D01*
X103698670Y-101958088D01*
X103520239Y-102136601D01*
X103511489Y-102144841D01*
X103502523Y-102152788D01*
X103493293Y-102160484D01*
X103294663Y-102316183D01*
X103284989Y-102323306D01*
X103275106Y-102330132D01*
X103265014Y-102336661D01*
X103049088Y-102467280D01*
X103038619Y-102473188D01*
X103027993Y-102478769D01*
X103017192Y-102484033D01*
X102787074Y-102587690D01*
X102775967Y-102592294D01*
X102764750Y-102596552D01*
X102753397Y-102600474D01*
X102512487Y-102675639D01*
X102500911Y-102678871D01*
X102489257Y-102681748D01*
X102477523Y-102684271D01*
X102229274Y-102729864D01*
X102217409Y-102731674D01*
X102205483Y-102733127D01*
X102193514Y-102734220D01*
X101932588Y-102750112D01*
X101926634Y-102750385D01*
X101920677Y-102750569D01*
X101914644Y-102750664D01*
X101913033Y-102750664D01*
X101912658Y-102750666D01*
X101889356Y-102750676D01*
X101889252Y-102750677D01*
X101889250Y-102750677D01*
X101889208Y-102750677D01*
X101794594Y-102750719D01*
X101794595Y-102750720D01*
X81780931Y-102759922D01*
X81743845Y-102751475D01*
X81721410Y-102751483D01*
X81701211Y-102741764D01*
X81694580Y-102740254D01*
X81687361Y-102736600D01*
X81673920Y-102729448D01*
X81674265Y-102728799D01*
X81641604Y-102713084D01*
X81586362Y-102643862D01*
X81566625Y-102557526D01*
X81586300Y-102471181D01*
X81588077Y-102467486D01*
X81643271Y-102398228D01*
X81643325Y-102398185D01*
X81796595Y-102275957D01*
X81999157Y-102073395D01*
X82177766Y-101849427D01*
X82177768Y-101849422D01*
X82177771Y-101849420D01*
X82177775Y-101849413D01*
X82178045Y-101849075D01*
X82179544Y-101846597D01*
X82330169Y-101606879D01*
X82330169Y-101606878D01*
X82330962Y-101605616D01*
X82334018Y-101600752D01*
X82337449Y-101591764D01*
X82372619Y-101518733D01*
X82454468Y-101348772D01*
X82549082Y-101078382D01*
X82612826Y-100799098D01*
X82644900Y-100514433D01*
X82644900Y-100227967D01*
X82612826Y-99943302D01*
X82549082Y-99664018D01*
X82454468Y-99393628D01*
X82402602Y-99285928D01*
X89349500Y-99285928D01*
X89349500Y-99414070D01*
X89374497Y-99539739D01*
X89374498Y-99539741D01*
X89409737Y-99624816D01*
X89423535Y-99658127D01*
X89423536Y-99658130D01*
X89425472Y-99661027D01*
X89427463Y-99664007D01*
X89427468Y-99664019D01*
X89427471Y-99664018D01*
X89494724Y-99764669D01*
X89585331Y-99855276D01*
X89691873Y-99926465D01*
X89810256Y-99975501D01*
X89935931Y-100000500D01*
X89935932Y-100000500D01*
X90064068Y-100000500D01*
X90064069Y-100000500D01*
X90189744Y-99975501D01*
X90308127Y-99926465D01*
X90414669Y-99855276D01*
X90505276Y-99764669D01*
X90576465Y-99658127D01*
X90582381Y-99643841D01*
X90601874Y-99607804D01*
X90604472Y-99603999D01*
X90780451Y-99223887D01*
X90820322Y-99166780D01*
X90986494Y-99000610D01*
X91173991Y-98813112D01*
X91361490Y-98625614D01*
X91420799Y-98522887D01*
X91428291Y-98494926D01*
X91429415Y-98490733D01*
X91429415Y-98490728D01*
X91432399Y-98479594D01*
X91451500Y-98408309D01*
X91451500Y-98365072D01*
X92801931Y-98365072D01*
X92801931Y-98512908D01*
X92802815Y-98517352D01*
X92802815Y-98517355D01*
X92807996Y-98543400D01*
X92809227Y-98549586D01*
X92824170Y-98624711D01*
X92830773Y-98657903D01*
X92846979Y-98697028D01*
X92852055Y-98709283D01*
X92852056Y-98709286D01*
X92887342Y-98794475D01*
X92887347Y-98794486D01*
X92894261Y-98804833D01*
X92928137Y-98855532D01*
X92969480Y-98917406D01*
X93074015Y-99021941D01*
X93196936Y-99104074D01*
X93333518Y-99160648D01*
X93478513Y-99189490D01*
X93478514Y-99189490D01*
X93626348Y-99189490D01*
X93626349Y-99189490D01*
X93771344Y-99160648D01*
X93907926Y-99104074D01*
X94030847Y-99021941D01*
X94135382Y-98917406D01*
X94217515Y-98794485D01*
X94274089Y-98657903D01*
X94302931Y-98512908D01*
X94302931Y-98375069D01*
X99161931Y-98375069D01*
X99161931Y-98522910D01*
X99184988Y-98638826D01*
X99189853Y-98663282D01*
X99190772Y-98667900D01*
X99190775Y-98667908D01*
X99201337Y-98693409D01*
X99201343Y-98693421D01*
X99203861Y-98699500D01*
X99247346Y-98804484D01*
X99247348Y-98804487D01*
X99274232Y-98844721D01*
X99281431Y-98855495D01*
X99281433Y-98855499D01*
X99305352Y-98891296D01*
X99329480Y-98927406D01*
X99434015Y-99031941D01*
X99556936Y-99114074D01*
X99693518Y-99170648D01*
X99838513Y-99199490D01*
X99838514Y-99199490D01*
X99986348Y-99199490D01*
X99986349Y-99199490D01*
X100131344Y-99170648D01*
X100267926Y-99114074D01*
X100390847Y-99031941D01*
X100495382Y-98927406D01*
X100577515Y-98804485D01*
X100634089Y-98667903D01*
X100662931Y-98522908D01*
X100662931Y-98375072D01*
X100634089Y-98230077D01*
X100577515Y-98093495D01*
X100495382Y-97970574D01*
X100390847Y-97866039D01*
X100318516Y-97817709D01*
X100267928Y-97783907D01*
X100267925Y-97783905D01*
X100158999Y-97738787D01*
X100137860Y-97730031D01*
X100132587Y-97727624D01*
X100117313Y-97724018D01*
X100112117Y-97723507D01*
X100008755Y-97702947D01*
X100008754Y-97702946D01*
X99986349Y-97698490D01*
X99838513Y-97698490D01*
X99816106Y-97702947D01*
X99693521Y-97727330D01*
X99693516Y-97727332D01*
X99556941Y-97783902D01*
X99556930Y-97783908D01*
X99556846Y-97783965D01*
X99434015Y-97866038D01*
X99434007Y-97866045D01*
X99329486Y-97970566D01*
X99329479Y-97970574D01*
X99247349Y-98093490D01*
X99247343Y-98093500D01*
X99190773Y-98230075D01*
X99190771Y-98230079D01*
X99161931Y-98375069D01*
X94302931Y-98375069D01*
X94302931Y-98365072D01*
X94274089Y-98220077D01*
X94217515Y-98083495D01*
X94135382Y-97960574D01*
X94030847Y-97856039D01*
X93968973Y-97814696D01*
X93933852Y-97791229D01*
X93907927Y-97773906D01*
X93907919Y-97773902D01*
X93808092Y-97732553D01*
X93808091Y-97732553D01*
X93777870Y-97720035D01*
X93772590Y-97717625D01*
X93757313Y-97714018D01*
X93752117Y-97713507D01*
X93641213Y-97691446D01*
X93641209Y-97691446D01*
X93626349Y-97688490D01*
X93626347Y-97688490D01*
X93478515Y-97688490D01*
X93478513Y-97688490D01*
X93463653Y-97691446D01*
X93463648Y-97691446D01*
X93333521Y-97717330D01*
X93333516Y-97717332D01*
X93196941Y-97773902D01*
X93196930Y-97773908D01*
X93196846Y-97773965D01*
X93074015Y-97856038D01*
X93074007Y-97856045D01*
X92969486Y-97960566D01*
X92969479Y-97960574D01*
X92887349Y-98083490D01*
X92887343Y-98083500D01*
X92830773Y-98220075D01*
X92830771Y-98220080D01*
X92820218Y-98273133D01*
X92820217Y-98273139D01*
X92817784Y-98285374D01*
X92801931Y-98365072D01*
X91451500Y-98365072D01*
X91451500Y-94959610D01*
X91463689Y-94891035D01*
X91468545Y-94877808D01*
X91551253Y-94652495D01*
X91608017Y-94497859D01*
X91608021Y-94497844D01*
X91608031Y-94497820D01*
X91612662Y-94484380D01*
X91612663Y-94484369D01*
X91614848Y-94475414D01*
X91615964Y-94475686D01*
X91624664Y-94444177D01*
X91626501Y-94439744D01*
X91651500Y-94314069D01*
X91651500Y-94185931D01*
X91626501Y-94060256D01*
X91577465Y-93941873D01*
X91506276Y-93835331D01*
X91415669Y-93744724D01*
X91373212Y-93716355D01*
X91336000Y-93691490D01*
X91335996Y-93691488D01*
X91325427Y-93684426D01*
X91309129Y-93673536D01*
X91309125Y-93673534D01*
X91260089Y-93653223D01*
X91253782Y-93650610D01*
X91253767Y-93650603D01*
X91197263Y-93627198D01*
X91191992Y-93624792D01*
X91176713Y-93621185D01*
X91171517Y-93620674D01*
X91087256Y-93603913D01*
X91087254Y-93603913D01*
X91065069Y-93599500D01*
X91065064Y-93599500D01*
X90936934Y-93599500D01*
X90936931Y-93599500D01*
X90914761Y-93603910D01*
X90914757Y-93603910D01*
X90811261Y-93624497D01*
X90811258Y-93624498D01*
X90692873Y-93673534D01*
X90692857Y-93673543D01*
X90586368Y-93744697D01*
X90586330Y-93744724D01*
X90586323Y-93744730D01*
X90495730Y-93835323D01*
X90495724Y-93835330D01*
X90495697Y-93835368D01*
X90424543Y-93941857D01*
X90424534Y-93941873D01*
X90375498Y-94060258D01*
X90375497Y-94060259D01*
X90350500Y-94185928D01*
X90350500Y-94314070D01*
X90375497Y-94439740D01*
X90375499Y-94439744D01*
X90381414Y-94454025D01*
X90393110Y-94493274D01*
X90393967Y-94497819D01*
X90393969Y-94497826D01*
X90486109Y-94748830D01*
X90536273Y-94885487D01*
X90538311Y-94891037D01*
X90550500Y-94959612D01*
X90550500Y-98057545D01*
X90545510Y-98101829D01*
X90539600Y-98127721D01*
X90507882Y-98198599D01*
X90501920Y-98207001D01*
X90480342Y-98232553D01*
X90183222Y-98529673D01*
X90126114Y-98569544D01*
X89745986Y-98745532D01*
X89733224Y-98751753D01*
X89725337Y-98756549D01*
X89724747Y-98755578D01*
X89696337Y-98771685D01*
X89691874Y-98773533D01*
X89691857Y-98773543D01*
X89585368Y-98844697D01*
X89585330Y-98844724D01*
X89585323Y-98844730D01*
X89494730Y-98935323D01*
X89494724Y-98935330D01*
X89494697Y-98935368D01*
X89423543Y-99041857D01*
X89423534Y-99041873D01*
X89374498Y-99160258D01*
X89374497Y-99160259D01*
X89349500Y-99285928D01*
X82402602Y-99285928D01*
X82330335Y-99135863D01*
X82330178Y-99135534D01*
X82177770Y-98892977D01*
X82177538Y-98892657D01*
X82176464Y-98891340D01*
X81999157Y-98669005D01*
X81796594Y-98466442D01*
X81765992Y-98442038D01*
X81698220Y-98387991D01*
X81574277Y-98289149D01*
X81572940Y-98288060D01*
X81572621Y-98287828D01*
X81330083Y-98135432D01*
X81330070Y-98135425D01*
X81203098Y-98074279D01*
X81071972Y-98011132D01*
X81071969Y-98011131D01*
X81071965Y-98011129D01*
X81071962Y-98011128D01*
X81071958Y-98011126D01*
X81070681Y-98010679D01*
X81070638Y-98010664D01*
X80806858Y-97918364D01*
X80796435Y-97914385D01*
X80793207Y-97913048D01*
X80779724Y-97911529D01*
X80538404Y-97856450D01*
X80538403Y-97856449D01*
X80522290Y-97852772D01*
X80354794Y-97833900D01*
X80286082Y-97826158D01*
X80286080Y-97826157D01*
X80237636Y-97820700D01*
X80237633Y-97820700D01*
X79951167Y-97820700D01*
X79951159Y-97820700D01*
X79909765Y-97825363D01*
X79909764Y-97825364D01*
X79847987Y-97832324D01*
X79666508Y-97852772D01*
X79447634Y-97902728D01*
X79447633Y-97902727D01*
X79391685Y-97915497D01*
X79391686Y-97915498D01*
X79387225Y-97916516D01*
X79387213Y-97916519D01*
X79116843Y-98011125D01*
X79116842Y-98011125D01*
X78858709Y-98135435D01*
X78616177Y-98287828D01*
X78615849Y-98288066D01*
X78614496Y-98289170D01*
X78392205Y-98466441D01*
X78189641Y-98669005D01*
X78073466Y-98814685D01*
X78043727Y-98838400D01*
X78029741Y-98855936D01*
X78009547Y-98865658D01*
X78004225Y-98869903D01*
X77996732Y-98873322D01*
X77982750Y-98879356D01*
X77982465Y-98878697D01*
X77949945Y-98894355D01*
X77861382Y-98894348D01*
X77781593Y-98855915D01*
X77726380Y-98786669D01*
X77724600Y-98782972D01*
X77704900Y-98696644D01*
X77704900Y-96933411D01*
X77709889Y-96889129D01*
X77712983Y-96875576D01*
X77713868Y-96871694D01*
X77752295Y-96791903D01*
X77821536Y-96736685D01*
X77907879Y-96716978D01*
X77915946Y-96716978D01*
X77992097Y-96732125D01*
X78118711Y-96784570D01*
X78118714Y-96784571D01*
X78118717Y-96784572D01*
X78118718Y-96784572D01*
X78195877Y-96799920D01*
X78311906Y-96823000D01*
X78660400Y-96823000D01*
X78660400Y-96322000D01*
X78680107Y-96235657D01*
X78735326Y-96166416D01*
X78815118Y-96127989D01*
X78859400Y-96123000D01*
X78961400Y-96123000D01*
X79047743Y-96142707D01*
X79116984Y-96197926D01*
X79155411Y-96277718D01*
X79160400Y-96322000D01*
X79160400Y-96823000D01*
X79508893Y-96823000D01*
X79508894Y-96823000D01*
X79702085Y-96784571D01*
X79702092Y-96784569D01*
X79884073Y-96709191D01*
X79884080Y-96709187D01*
X80047858Y-96599753D01*
X80047866Y-96599747D01*
X80187147Y-96460466D01*
X80187153Y-96460458D01*
X80296587Y-96296680D01*
X80296589Y-96296676D01*
X80371969Y-96114694D01*
X80371969Y-96114693D01*
X80380262Y-96073000D01*
X80380261Y-96073000D01*
X79409400Y-96073000D01*
X79323057Y-96053293D01*
X79253816Y-95998074D01*
X79215389Y-95918282D01*
X79210400Y-95874000D01*
X79210400Y-95772000D01*
X79230107Y-95685657D01*
X79285326Y-95616416D01*
X79365118Y-95577989D01*
X79409400Y-95573000D01*
X80380262Y-95573000D01*
X80380262Y-95572999D01*
X81620537Y-95572999D01*
X81620538Y-95573000D01*
X81620539Y-95573000D01*
X82591400Y-95573000D01*
X82677743Y-95592707D01*
X82746984Y-95647926D01*
X82785411Y-95727718D01*
X82790400Y-95772000D01*
X82790400Y-95874000D01*
X82770693Y-95960343D01*
X82715474Y-96029584D01*
X82635682Y-96068011D01*
X82591400Y-96073000D01*
X81620538Y-96073000D01*
X81625006Y-96095467D01*
X81625007Y-96095469D01*
X81625007Y-96095473D01*
X81628830Y-96114694D01*
X81704208Y-96296673D01*
X81704210Y-96296676D01*
X81704212Y-96296680D01*
X81813646Y-96460458D01*
X81813652Y-96460466D01*
X81952933Y-96599747D01*
X81952941Y-96599753D01*
X81952950Y-96599759D01*
X81952957Y-96599764D01*
X81976828Y-96615714D01*
X82116719Y-96709187D01*
X82116726Y-96709191D01*
X82298707Y-96784569D01*
X82298714Y-96784571D01*
X82491906Y-96823000D01*
X82840400Y-96823000D01*
X82840400Y-96322000D01*
X82860107Y-96235657D01*
X82915326Y-96166416D01*
X82995118Y-96127989D01*
X83039400Y-96123000D01*
X83141400Y-96123000D01*
X83227743Y-96142707D01*
X83296984Y-96197926D01*
X83335411Y-96277718D01*
X83340400Y-96322000D01*
X83340400Y-96823000D01*
X83688893Y-96823000D01*
X83688894Y-96823000D01*
X83882085Y-96784571D01*
X83882092Y-96784569D01*
X84064073Y-96709191D01*
X84064080Y-96709187D01*
X84227858Y-96599753D01*
X84227866Y-96599747D01*
X84367147Y-96460466D01*
X84367153Y-96460458D01*
X84476587Y-96296680D01*
X84476589Y-96296676D01*
X84551969Y-96114694D01*
X84551969Y-96114693D01*
X84560262Y-96073000D01*
X83589400Y-96073000D01*
X83503057Y-96053293D01*
X83433816Y-95998074D01*
X83395389Y-95918282D01*
X83390400Y-95874000D01*
X83390400Y-95772000D01*
X83410107Y-95685657D01*
X83465326Y-95616416D01*
X83545118Y-95577989D01*
X83589400Y-95573000D01*
X84560262Y-95573000D01*
X84560262Y-95572997D01*
X84555672Y-95549922D01*
X84554383Y-95543444D01*
X84551969Y-95531306D01*
X84551969Y-95531305D01*
X84476589Y-95349323D01*
X84476587Y-95349319D01*
X84367153Y-95185541D01*
X84367147Y-95185533D01*
X84227866Y-95046252D01*
X84227858Y-95046246D01*
X84227854Y-95046243D01*
X84227841Y-95046234D01*
X84159628Y-95000656D01*
X84064080Y-94936812D01*
X84064073Y-94936808D01*
X83953566Y-94891035D01*
X83882101Y-94861433D01*
X83882094Y-94861431D01*
X83882092Y-94861430D01*
X83882085Y-94861428D01*
X83882080Y-94861427D01*
X83882068Y-94861424D01*
X83688898Y-94823000D01*
X83688894Y-94823000D01*
X83340400Y-94823000D01*
X83340400Y-95324000D01*
X83320693Y-95410343D01*
X83265474Y-95479584D01*
X83185682Y-95518011D01*
X83141400Y-95523000D01*
X83039400Y-95523000D01*
X82953057Y-95503293D01*
X82883816Y-95448074D01*
X82845389Y-95368282D01*
X82845389Y-95279718D01*
X82883816Y-95199926D01*
X82901277Y-95186000D01*
X82846463Y-94969058D01*
X82844419Y-94880518D01*
X82845389Y-94876030D01*
X82851745Y-94848181D01*
X82881263Y-94780465D01*
X82883247Y-94777551D01*
X82907028Y-94748830D01*
X82933889Y-94721970D01*
X82970895Y-94684964D01*
X82970898Y-94684957D01*
X82977004Y-94677001D01*
X83005346Y-94647268D01*
X83005535Y-94647012D01*
X83005845Y-94646743D01*
X83006334Y-94646232D01*
X83012846Y-94640721D01*
X83015482Y-94639355D01*
X83031811Y-94590213D01*
X83028389Y-94588787D01*
X83033493Y-94576540D01*
X83033494Y-94576537D01*
X83033495Y-94576536D01*
X83065900Y-94455601D01*
X83065900Y-94330399D01*
X83033495Y-94209464D01*
X82970895Y-94101036D01*
X82882364Y-94012505D01*
X82773936Y-93949905D01*
X82743950Y-93941870D01*
X82653004Y-93917500D01*
X82653003Y-93917500D01*
X82653001Y-93917500D01*
X82527799Y-93917500D01*
X82527796Y-93917500D01*
X82527794Y-93917500D01*
X82432170Y-93943124D01*
X82432166Y-93943125D01*
X82406860Y-93949905D01*
X82298436Y-94012504D01*
X82298434Y-94012505D01*
X82209905Y-94101034D01*
X82209904Y-94101036D01*
X82147305Y-94209460D01*
X82142430Y-94227657D01*
X82142429Y-94227661D01*
X82114900Y-94330394D01*
X82114900Y-94455603D01*
X82136502Y-94536223D01*
X82136503Y-94536223D01*
X82147305Y-94576537D01*
X82154900Y-94589691D01*
X82154902Y-94589694D01*
X82185024Y-94641869D01*
X82202840Y-94682703D01*
X82208575Y-94701293D01*
X82215196Y-94789608D01*
X82182844Y-94872051D01*
X82182843Y-94872051D01*
X82179240Y-94877336D01*
X82130348Y-94927269D01*
X82123124Y-94932420D01*
X82118151Y-94935853D01*
X81952966Y-95046227D01*
X81952936Y-95046249D01*
X81952929Y-95046255D01*
X81813655Y-95185529D01*
X81813649Y-95185536D01*
X81813634Y-95185558D01*
X81704215Y-95349314D01*
X81704208Y-95349325D01*
X81628830Y-95531304D01*
X81625127Y-95549922D01*
X81620537Y-95572999D01*
X80380262Y-95572999D01*
X80380262Y-95572997D01*
X80375672Y-95549922D01*
X80374383Y-95543444D01*
X80371969Y-95531306D01*
X80371969Y-95531305D01*
X80296589Y-95349323D01*
X80296587Y-95349319D01*
X80187153Y-95185541D01*
X80187147Y-95185533D01*
X80047866Y-95046252D01*
X80047858Y-95046246D01*
X80047854Y-95046243D01*
X80047841Y-95046234D01*
X79979628Y-95000656D01*
X79884080Y-94936812D01*
X79884073Y-94936808D01*
X79773566Y-94891035D01*
X79702101Y-94861433D01*
X79702094Y-94861431D01*
X79702092Y-94861430D01*
X79702085Y-94861428D01*
X79702080Y-94861427D01*
X79702068Y-94861424D01*
X79508898Y-94823000D01*
X79508894Y-94823000D01*
X79160400Y-94823000D01*
X79160400Y-95324000D01*
X79140693Y-95410343D01*
X79085474Y-95479584D01*
X79005682Y-95518011D01*
X78961400Y-95523000D01*
X78859400Y-95523000D01*
X78773057Y-95503293D01*
X78703816Y-95448074D01*
X78665389Y-95368282D01*
X78660400Y-95324000D01*
X78660400Y-94823000D01*
X78311906Y-94823000D01*
X78311903Y-94823000D01*
X78118730Y-94861424D01*
X78118714Y-94861428D01*
X78118707Y-94861430D01*
X78118706Y-94861430D01*
X78000766Y-94910282D01*
X77957949Y-94922617D01*
X77940323Y-94925612D01*
X77851899Y-94920647D01*
X77774386Y-94877808D01*
X77723136Y-94805580D01*
X77723130Y-94805566D01*
X77720043Y-94798112D01*
X77704900Y-94721970D01*
X77704900Y-91088931D01*
X84049500Y-91088931D01*
X84049500Y-91217068D01*
X84074498Y-91342741D01*
X84084258Y-91366306D01*
X84090908Y-91391968D01*
X84090909Y-91391970D01*
X84093769Y-91403005D01*
X84093770Y-91403010D01*
X84156508Y-91573917D01*
X84194769Y-91678148D01*
X84197073Y-91684423D01*
X84208327Y-91772269D01*
X84197073Y-91821574D01*
X84093724Y-92103115D01*
X84093720Y-92103128D01*
X84087022Y-92128391D01*
X84078525Y-92153534D01*
X84074498Y-92163255D01*
X84074497Y-92163258D01*
X84049500Y-92288928D01*
X84049500Y-92288931D01*
X84049500Y-92417068D01*
X84073041Y-92535418D01*
X84074499Y-92542744D01*
X84074500Y-92542748D01*
X84081848Y-92560487D01*
X84087411Y-92573917D01*
X84123534Y-92661125D01*
X84123536Y-92661129D01*
X84123540Y-92661135D01*
X84123546Y-92661146D01*
X84150130Y-92700931D01*
X84150131Y-92700931D01*
X84194724Y-92767669D01*
X84285331Y-92858276D01*
X84331177Y-92888909D01*
X84391870Y-92929463D01*
X84391871Y-92929464D01*
X84391872Y-92929464D01*
X84391873Y-92929465D01*
X84453211Y-92954872D01*
X84458253Y-92957043D01*
X84518772Y-92984111D01*
X84518772Y-92984112D01*
X84541230Y-92994156D01*
X84612000Y-93047398D01*
X84652662Y-93126075D01*
X84660014Y-93154555D01*
X84664289Y-93171118D01*
X84666780Y-93182028D01*
X84684526Y-93271236D01*
X84688208Y-93289746D01*
X84707990Y-93337503D01*
X84737244Y-93408127D01*
X84808433Y-93514669D01*
X84899040Y-93605276D01*
X85005582Y-93676465D01*
X85123965Y-93725501D01*
X85249640Y-93750500D01*
X85249641Y-93750500D01*
X85377777Y-93750500D01*
X85377778Y-93750500D01*
X85503453Y-93725501D01*
X85621836Y-93676465D01*
X85728378Y-93605276D01*
X85818985Y-93514669D01*
X85890174Y-93408127D01*
X85939210Y-93289744D01*
X85964209Y-93164069D01*
X85964209Y-93035931D01*
X85939210Y-92910256D01*
X85930368Y-92888909D01*
X85919569Y-92854130D01*
X85917497Y-92844382D01*
X85917496Y-92844380D01*
X85765316Y-92457562D01*
X85751500Y-92384708D01*
X85751500Y-90640119D01*
X85751500Y-90636315D01*
X85750500Y-90621052D01*
X85750500Y-90490690D01*
X85728948Y-90410256D01*
X85721285Y-90381658D01*
X85719799Y-90376113D01*
X85681468Y-90309723D01*
X85674921Y-90278833D01*
X85674923Y-90278649D01*
X85674831Y-90278407D01*
X85667397Y-90242953D01*
X85647585Y-90148466D01*
X85647123Y-90146383D01*
X85645861Y-90140681D01*
X85645860Y-90140678D01*
X85645859Y-90140674D01*
X85645106Y-90138865D01*
X85633647Y-90101213D01*
X85625501Y-90060256D01*
X85576465Y-89941873D01*
X85505276Y-89835331D01*
X85414669Y-89744724D01*
X85414667Y-89744722D01*
X85369609Y-89714616D01*
X85369607Y-89714615D01*
X85361039Y-89708890D01*
X85308129Y-89673536D01*
X85308125Y-89673534D01*
X85240500Y-89645523D01*
X85231961Y-89641986D01*
X85196262Y-89627198D01*
X85190991Y-89624792D01*
X85175712Y-89621185D01*
X85170518Y-89620674D01*
X85134850Y-89613579D01*
X85105582Y-89607757D01*
X85105581Y-89607756D01*
X85064071Y-89599500D01*
X85064069Y-89599500D01*
X84935931Y-89599500D01*
X84935930Y-89599500D01*
X84920328Y-89602603D01*
X84904725Y-89605707D01*
X84810260Y-89624497D01*
X84691873Y-89673534D01*
X84691857Y-89673543D01*
X84585368Y-89744697D01*
X84585330Y-89744724D01*
X84585323Y-89744730D01*
X84494730Y-89835323D01*
X84494724Y-89835330D01*
X84494697Y-89835368D01*
X84423543Y-89941857D01*
X84423534Y-89941873D01*
X84374498Y-90060258D01*
X84374497Y-90060259D01*
X84349500Y-90185928D01*
X84349500Y-90314071D01*
X84370238Y-90418327D01*
X84373984Y-90462739D01*
X84373402Y-90483455D01*
X84351284Y-90569197D01*
X84348322Y-90574931D01*
X84304119Y-90631985D01*
X84299334Y-90636261D01*
X84288417Y-90645337D01*
X84285349Y-90647707D01*
X84285328Y-90647726D01*
X84285316Y-90647737D01*
X84194730Y-90738323D01*
X84194724Y-90738330D01*
X84194697Y-90738368D01*
X84123543Y-90844857D01*
X84123534Y-90844873D01*
X84074498Y-90963258D01*
X84074497Y-90963259D01*
X84051236Y-91080196D01*
X84051236Y-91080200D01*
X84049500Y-91088931D01*
X77704900Y-91088931D01*
X77704900Y-88293411D01*
X77709889Y-88249129D01*
X77711437Y-88242350D01*
X77713868Y-88231694D01*
X77752295Y-88151903D01*
X77821536Y-88096685D01*
X77907879Y-88076978D01*
X77915946Y-88076978D01*
X77992097Y-88092125D01*
X78118711Y-88144570D01*
X78118714Y-88144571D01*
X78118717Y-88144572D01*
X78118718Y-88144572D01*
X78216610Y-88164044D01*
X78311906Y-88183000D01*
X78660400Y-88183000D01*
X78660400Y-87682000D01*
X78680107Y-87595657D01*
X78735326Y-87526416D01*
X78815118Y-87487989D01*
X78859400Y-87483000D01*
X78961400Y-87483000D01*
X79047743Y-87502707D01*
X79116984Y-87557926D01*
X79155411Y-87637718D01*
X79160400Y-87682000D01*
X79160400Y-88183000D01*
X79508893Y-88183000D01*
X79508894Y-88183000D01*
X79702085Y-88144571D01*
X79702092Y-88144569D01*
X79884073Y-88069191D01*
X79884080Y-88069187D01*
X80047858Y-87959753D01*
X80047866Y-87959747D01*
X80187147Y-87820466D01*
X80187153Y-87820458D01*
X80296587Y-87656680D01*
X80296589Y-87656676D01*
X80371969Y-87474694D01*
X80371969Y-87474693D01*
X80380262Y-87433000D01*
X80380261Y-87433000D01*
X79409400Y-87433000D01*
X79323057Y-87413293D01*
X79253816Y-87358074D01*
X79215389Y-87278282D01*
X79210400Y-87234000D01*
X79210400Y-87132000D01*
X79230107Y-87045657D01*
X79285326Y-86976416D01*
X79365118Y-86937989D01*
X79409400Y-86933000D01*
X80380262Y-86933000D01*
X80380262Y-86932999D01*
X81620537Y-86932999D01*
X81620538Y-86933000D01*
X81620539Y-86933000D01*
X82591400Y-86933000D01*
X82677743Y-86952707D01*
X82746984Y-87007926D01*
X82785411Y-87087718D01*
X82790400Y-87132000D01*
X82790400Y-87234000D01*
X82770693Y-87320343D01*
X82715474Y-87389584D01*
X82635682Y-87428011D01*
X82591400Y-87433000D01*
X81620538Y-87433000D01*
X81625007Y-87455469D01*
X81625007Y-87455473D01*
X81628830Y-87474694D01*
X81704208Y-87656673D01*
X81704210Y-87656676D01*
X81704212Y-87656680D01*
X81813646Y-87820458D01*
X81813652Y-87820466D01*
X81952933Y-87959747D01*
X81952941Y-87959753D01*
X82107896Y-88063292D01*
X82127837Y-88078518D01*
X82149311Y-88097173D01*
X82201570Y-88168672D01*
X82217632Y-88255766D01*
X82217363Y-88262167D01*
X82202210Y-88330378D01*
X82201160Y-88332896D01*
X82189830Y-88355803D01*
X82147308Y-88429455D01*
X82147302Y-88429472D01*
X82114900Y-88550394D01*
X82114900Y-88675604D01*
X82147305Y-88796535D01*
X82147306Y-88796540D01*
X82198983Y-88886047D01*
X82209905Y-88904964D01*
X82298436Y-88993495D01*
X82406864Y-89056095D01*
X82527799Y-89088500D01*
X82527802Y-89088500D01*
X82652998Y-89088500D01*
X82653001Y-89088500D01*
X82773936Y-89056095D01*
X82882364Y-88993495D01*
X82970895Y-88904964D01*
X83033495Y-88796536D01*
X83065900Y-88675601D01*
X83065900Y-88550399D01*
X83065899Y-88550394D01*
X83033496Y-88429466D01*
X83033495Y-88429464D01*
X83033492Y-88429458D01*
X83033357Y-88429224D01*
X83032505Y-88427746D01*
X83032495Y-88427733D01*
X83025193Y-88415084D01*
X82970895Y-88321036D01*
X82904086Y-88254227D01*
X82895296Y-88242350D01*
X82893548Y-88238359D01*
X82886760Y-88229847D01*
X82872623Y-88207350D01*
X82844936Y-88134811D01*
X82843209Y-88124646D01*
X82840400Y-88091330D01*
X82840400Y-87682000D01*
X82860107Y-87595657D01*
X82915326Y-87526416D01*
X82995118Y-87487989D01*
X83039400Y-87483000D01*
X83141400Y-87483000D01*
X83227743Y-87502707D01*
X83296984Y-87557926D01*
X83335411Y-87637718D01*
X83340400Y-87682000D01*
X83340400Y-88154726D01*
X83360541Y-88183000D01*
X83688893Y-88183000D01*
X83688894Y-88183000D01*
X83882085Y-88144571D01*
X83882092Y-88144569D01*
X84064073Y-88069191D01*
X84064080Y-88069187D01*
X84227858Y-87959753D01*
X84227866Y-87959747D01*
X84367147Y-87820466D01*
X84367153Y-87820458D01*
X84476587Y-87656680D01*
X84476589Y-87656676D01*
X84489263Y-87626079D01*
X91299500Y-87626079D01*
X91299500Y-87773919D01*
X91328340Y-87918909D01*
X91328342Y-87918913D01*
X91384912Y-88055488D01*
X91384913Y-88055490D01*
X91384915Y-88055494D01*
X91384916Y-88055495D01*
X91384918Y-88055498D01*
X91397088Y-88073713D01*
X91398246Y-88075445D01*
X91467049Y-88178416D01*
X91571584Y-88282951D01*
X91694505Y-88365084D01*
X91831087Y-88421658D01*
X91976082Y-88450500D01*
X91976083Y-88450500D01*
X92123917Y-88450500D01*
X92123918Y-88450500D01*
X92268913Y-88421658D01*
X92405495Y-88365084D01*
X92528416Y-88282951D01*
X92632951Y-88178416D01*
X92715084Y-88055495D01*
X92771658Y-87918913D01*
X92790554Y-87823918D01*
X97849499Y-87823918D01*
X97854411Y-87848607D01*
X97878339Y-87968904D01*
X97878340Y-87968907D01*
X97878341Y-87968910D01*
X97927311Y-88087137D01*
X97934915Y-88105494D01*
X97934923Y-88105508D01*
X97949808Y-88127783D01*
X97949810Y-88127789D01*
X97949812Y-88127789D01*
X97961026Y-88144572D01*
X98017049Y-88228416D01*
X98121584Y-88332951D01*
X98244505Y-88415084D01*
X98381087Y-88471658D01*
X98526082Y-88500500D01*
X98526083Y-88500500D01*
X98673917Y-88500500D01*
X98673918Y-88500500D01*
X98818913Y-88471658D01*
X98955495Y-88415084D01*
X99078416Y-88332951D01*
X99182951Y-88228416D01*
X99265084Y-88105495D01*
X99321658Y-87968913D01*
X99350500Y-87823918D01*
X99350500Y-87676082D01*
X99321658Y-87531087D01*
X99265084Y-87394505D01*
X99182951Y-87271584D01*
X99078416Y-87167049D01*
X99067479Y-87159741D01*
X98972431Y-87096232D01*
X98972431Y-87096231D01*
X98959689Y-87087718D01*
X98955497Y-87084917D01*
X98955494Y-87084915D01*
X98834784Y-87034916D01*
X98825429Y-87031041D01*
X98825428Y-87031040D01*
X98820158Y-87028635D01*
X98804882Y-87025028D01*
X98799686Y-87024517D01*
X98721813Y-87009027D01*
X98709918Y-87006661D01*
X98673918Y-86999500D01*
X98673917Y-86999500D01*
X98526081Y-86999500D01*
X98514081Y-87001887D01*
X98490079Y-87006661D01*
X98483720Y-87007926D01*
X98381095Y-87028339D01*
X98381091Y-87028340D01*
X98381089Y-87028341D01*
X98339284Y-87045657D01*
X98244504Y-87084915D01*
X98244499Y-87084918D01*
X98244415Y-87084975D01*
X98121584Y-87167048D01*
X98121576Y-87167055D01*
X98017055Y-87271576D01*
X98017048Y-87271584D01*
X97934918Y-87394500D01*
X97934915Y-87394504D01*
X97921007Y-87428082D01*
X97882083Y-87522057D01*
X97878339Y-87531095D01*
X97852539Y-87660796D01*
X97852540Y-87660797D01*
X97849500Y-87676083D01*
X97849500Y-87823918D01*
X97849499Y-87823918D01*
X92790554Y-87823918D01*
X92800500Y-87773918D01*
X92800500Y-87626082D01*
X92771658Y-87481087D01*
X92715084Y-87344505D01*
X92632951Y-87221584D01*
X92528416Y-87117049D01*
X92449488Y-87064311D01*
X92405497Y-87034917D01*
X92405494Y-87034915D01*
X92302072Y-86992077D01*
X92295666Y-86989423D01*
X92295661Y-86989421D01*
X92275439Y-86981045D01*
X92270159Y-86978635D01*
X92254882Y-86975028D01*
X92249686Y-86974517D01*
X92171813Y-86959027D01*
X92153026Y-86955290D01*
X92123918Y-86949500D01*
X92123917Y-86949500D01*
X91976081Y-86949500D01*
X91964081Y-86951887D01*
X91940079Y-86956661D01*
X91928185Y-86959027D01*
X91831095Y-86978339D01*
X91831091Y-86978340D01*
X91831089Y-86978341D01*
X91797927Y-86992077D01*
X91694504Y-87034915D01*
X91694499Y-87034918D01*
X91694415Y-87034975D01*
X91571584Y-87117048D01*
X91571576Y-87117055D01*
X91467055Y-87221576D01*
X91467048Y-87221584D01*
X91384918Y-87344500D01*
X91384912Y-87344510D01*
X91328342Y-87481085D01*
X91328340Y-87481089D01*
X91299500Y-87626079D01*
X84489263Y-87626079D01*
X84524856Y-87540152D01*
X84524856Y-87540150D01*
X84524883Y-87540087D01*
X84527925Y-87532741D01*
X84528610Y-87531087D01*
X84551967Y-87474698D01*
X84551969Y-87474693D01*
X84560262Y-87433000D01*
X83589400Y-87433000D01*
X83503057Y-87413293D01*
X83433816Y-87358074D01*
X83395389Y-87278282D01*
X83390400Y-87234000D01*
X83390400Y-87132000D01*
X83410107Y-87045657D01*
X83465326Y-86976416D01*
X83545118Y-86937989D01*
X83589400Y-86933000D01*
X84560262Y-86933000D01*
X84560262Y-86932995D01*
X84560261Y-86932994D01*
X84555793Y-86910529D01*
X84555793Y-86910530D01*
X84551969Y-86891306D01*
X84551969Y-86891305D01*
X84476589Y-86709323D01*
X84476587Y-86709319D01*
X84367153Y-86545541D01*
X84367147Y-86545533D01*
X84227866Y-86406252D01*
X84227858Y-86406246D01*
X84227854Y-86406243D01*
X84227841Y-86406234D01*
X84164233Y-86363732D01*
X84064080Y-86296812D01*
X84064073Y-86296808D01*
X83982928Y-86263197D01*
X83882101Y-86221433D01*
X83882094Y-86221431D01*
X83882092Y-86221430D01*
X83882085Y-86221428D01*
X83882080Y-86221427D01*
X83882068Y-86221424D01*
X83688898Y-86183000D01*
X83688894Y-86183000D01*
X83340400Y-86183000D01*
X83340400Y-86684000D01*
X83320693Y-86770343D01*
X83265474Y-86839584D01*
X83185682Y-86878011D01*
X83141400Y-86883000D01*
X83039400Y-86883000D01*
X82953057Y-86863293D01*
X82883816Y-86808074D01*
X82845389Y-86728282D01*
X82840400Y-86684000D01*
X82840400Y-86183000D01*
X82491906Y-86183000D01*
X82491903Y-86183000D01*
X82298730Y-86221424D01*
X82298714Y-86221428D01*
X82298707Y-86221430D01*
X82298697Y-86221433D01*
X82143756Y-86285612D01*
X82116726Y-86296808D01*
X82116719Y-86296812D01*
X82094983Y-86311336D01*
X81952957Y-86406234D01*
X81952936Y-86406249D01*
X81952929Y-86406255D01*
X81813655Y-86545529D01*
X81813649Y-86545536D01*
X81813634Y-86545558D01*
X81704215Y-86709314D01*
X81704208Y-86709325D01*
X81628830Y-86891304D01*
X81625006Y-86910530D01*
X81625006Y-86910531D01*
X81621134Y-86930000D01*
X81620537Y-86932999D01*
X80380262Y-86932999D01*
X80380262Y-86932995D01*
X80380261Y-86932994D01*
X80375793Y-86910529D01*
X80375793Y-86910530D01*
X80371969Y-86891306D01*
X80371969Y-86891305D01*
X80296589Y-86709323D01*
X80296587Y-86709319D01*
X80187153Y-86545541D01*
X80187147Y-86545533D01*
X80047866Y-86406252D01*
X80047858Y-86406246D01*
X80047854Y-86406243D01*
X80047841Y-86406234D01*
X79984233Y-86363732D01*
X79884080Y-86296812D01*
X79884073Y-86296808D01*
X79802928Y-86263197D01*
X79702101Y-86221433D01*
X79702094Y-86221431D01*
X79702092Y-86221430D01*
X79702085Y-86221428D01*
X79702080Y-86221427D01*
X79702068Y-86221424D01*
X79508898Y-86183000D01*
X79508894Y-86183000D01*
X79160400Y-86183000D01*
X79160400Y-86684000D01*
X79140693Y-86770343D01*
X79085474Y-86839584D01*
X79005682Y-86878011D01*
X78961400Y-86883000D01*
X78859400Y-86883000D01*
X78773057Y-86863293D01*
X78703816Y-86808074D01*
X78665389Y-86728282D01*
X78660400Y-86684000D01*
X78660400Y-86183000D01*
X78311906Y-86183000D01*
X78311903Y-86183000D01*
X78118730Y-86221424D01*
X78118714Y-86221428D01*
X78118707Y-86221430D01*
X78118706Y-86221430D01*
X78000766Y-86270282D01*
X77957949Y-86282617D01*
X77940323Y-86285612D01*
X77851899Y-86280647D01*
X77774386Y-86237808D01*
X77723136Y-86165580D01*
X77723130Y-86165566D01*
X77720043Y-86158112D01*
X77704900Y-86081970D01*
X77704900Y-84259895D01*
X77709888Y-84215620D01*
X77712551Y-84203950D01*
X77713197Y-84201119D01*
X77751620Y-84121326D01*
X77820860Y-84066105D01*
X77907202Y-84046395D01*
X77993546Y-84066099D01*
X78055593Y-84112795D01*
X78066934Y-84125485D01*
X78072099Y-84131265D01*
X78079296Y-84139788D01*
X78229897Y-84328635D01*
X78249642Y-84353394D01*
X78452205Y-84555957D01*
X78676173Y-84734566D01*
X78676179Y-84734571D01*
X78918720Y-84886969D01*
X78918726Y-84886971D01*
X78918731Y-84886975D01*
X78918774Y-84886995D01*
X78918784Y-84887002D01*
X78919080Y-84887143D01*
X79176828Y-85011268D01*
X79447218Y-85105882D01*
X79726502Y-85169626D01*
X80011167Y-85201700D01*
X80011168Y-85201700D01*
X80297632Y-85201700D01*
X80297633Y-85201700D01*
X80582298Y-85169626D01*
X80861582Y-85105882D01*
X81131972Y-85011268D01*
X81308863Y-84926082D01*
X87149500Y-84926082D01*
X87149500Y-85073918D01*
X87153832Y-85095701D01*
X87153838Y-85095729D01*
X87154611Y-85099611D01*
X87176840Y-85211366D01*
X87178342Y-85218913D01*
X87184710Y-85234286D01*
X87190675Y-85248688D01*
X87190676Y-85248690D01*
X87234912Y-85355488D01*
X87234913Y-85355490D01*
X87234915Y-85355494D01*
X87234917Y-85355497D01*
X87268179Y-85405277D01*
X87268180Y-85405279D01*
X87317046Y-85478412D01*
X87317049Y-85478416D01*
X87421584Y-85582951D01*
X87544505Y-85665084D01*
X87681087Y-85721658D01*
X87826082Y-85750500D01*
X87826083Y-85750500D01*
X87973917Y-85750500D01*
X87973918Y-85750500D01*
X88118913Y-85721658D01*
X88255495Y-85665084D01*
X88378416Y-85582951D01*
X88482951Y-85478416D01*
X88565084Y-85355495D01*
X88621658Y-85218913D01*
X88650500Y-85073918D01*
X88650500Y-84976082D01*
X89699500Y-84976082D01*
X89699500Y-85123918D01*
X89699964Y-85126251D01*
X89699964Y-85126254D01*
X89700903Y-85130972D01*
X89705003Y-85151584D01*
X89726023Y-85257259D01*
X89728342Y-85268913D01*
X89740143Y-85297403D01*
X89745646Y-85310689D01*
X89745647Y-85310692D01*
X89784826Y-85405279D01*
X89784915Y-85405494D01*
X89784917Y-85405497D01*
X89784920Y-85405503D01*
X89816082Y-85452139D01*
X89845875Y-85496727D01*
X89867049Y-85528416D01*
X89971584Y-85632951D01*
X90094505Y-85715084D01*
X90231087Y-85771658D01*
X90376082Y-85800500D01*
X90376083Y-85800500D01*
X90523917Y-85800500D01*
X90523918Y-85800500D01*
X90668913Y-85771658D01*
X90805495Y-85715084D01*
X90928416Y-85632951D01*
X91032951Y-85528416D01*
X91088790Y-85444845D01*
X91117528Y-85410811D01*
X91130530Y-85398519D01*
X91206806Y-85353525D01*
X91295056Y-85346081D01*
X91377795Y-85377663D01*
X91384503Y-85382145D01*
X91439409Y-85437050D01*
X91467049Y-85478416D01*
X91571584Y-85582951D01*
X91694505Y-85665084D01*
X91831087Y-85721658D01*
X91976082Y-85750500D01*
X91976083Y-85750500D01*
X92123917Y-85750500D01*
X92123918Y-85750500D01*
X92268913Y-85721658D01*
X92405495Y-85665084D01*
X92528416Y-85582951D01*
X92632951Y-85478416D01*
X92715084Y-85355495D01*
X92771658Y-85218913D01*
X92800500Y-85073918D01*
X92800500Y-84926082D01*
X92782567Y-84835931D01*
X100799500Y-84835931D01*
X100799500Y-84964069D01*
X100800152Y-84967347D01*
X100800152Y-84967351D01*
X100800778Y-84970494D01*
X100800780Y-84970504D01*
X100824285Y-85088671D01*
X100824498Y-85089742D01*
X100824499Y-85089744D01*
X100844691Y-85138493D01*
X100844695Y-85138502D01*
X100847187Y-85144517D01*
X100873534Y-85208125D01*
X100873536Y-85208129D01*
X100887292Y-85228716D01*
X100919056Y-85276254D01*
X100944720Y-85314664D01*
X100944724Y-85314669D01*
X101035331Y-85405276D01*
X101141873Y-85476465D01*
X101260256Y-85525501D01*
X101385931Y-85550500D01*
X101385932Y-85550500D01*
X101514068Y-85550500D01*
X101514069Y-85550500D01*
X101639744Y-85525501D01*
X101758127Y-85476465D01*
X101864669Y-85405276D01*
X101955276Y-85314669D01*
X102026465Y-85208127D01*
X102075501Y-85089744D01*
X102100500Y-84964069D01*
X102100500Y-84835931D01*
X102075501Y-84710256D01*
X102026465Y-84591873D01*
X101955276Y-84485331D01*
X101864669Y-84394724D01*
X101837117Y-84376314D01*
X101809663Y-84357970D01*
X101809660Y-84357968D01*
X101801488Y-84352508D01*
X101758129Y-84323536D01*
X101758125Y-84323534D01*
X101709089Y-84303223D01*
X101700126Y-84299510D01*
X101700116Y-84299505D01*
X101646263Y-84277198D01*
X101640992Y-84274792D01*
X101625713Y-84271185D01*
X101620517Y-84270674D01*
X101569681Y-84260562D01*
X101519500Y-84250580D01*
X101519497Y-84250578D01*
X101514073Y-84249500D01*
X101514069Y-84249500D01*
X101385931Y-84249500D01*
X101385926Y-84249500D01*
X101380498Y-84250579D01*
X101380499Y-84250580D01*
X101260259Y-84274497D01*
X101260258Y-84274498D01*
X101141873Y-84323534D01*
X101141857Y-84323543D01*
X101035368Y-84394697D01*
X101035330Y-84394724D01*
X101035323Y-84394730D01*
X100944730Y-84485323D01*
X100944724Y-84485330D01*
X100944697Y-84485368D01*
X100873543Y-84591857D01*
X100873532Y-84591876D01*
X100824498Y-84710257D01*
X100824497Y-84710261D01*
X100810315Y-84781556D01*
X100810314Y-84781564D01*
X100807560Y-84795413D01*
X100799500Y-84835931D01*
X92782567Y-84835931D01*
X92771658Y-84781087D01*
X92757892Y-84747854D01*
X92715084Y-84644505D01*
X92715082Y-84644502D01*
X92688785Y-84605146D01*
X92632951Y-84521584D01*
X92528416Y-84417049D01*
X92433151Y-84353395D01*
X92405497Y-84334917D01*
X92405494Y-84334915D01*
X92292427Y-84288082D01*
X92270980Y-84279198D01*
X92269415Y-84278459D01*
X92254882Y-84275028D01*
X92249686Y-84274517D01*
X92179530Y-84260562D01*
X92129349Y-84250580D01*
X92129346Y-84250578D01*
X92123922Y-84249500D01*
X92123918Y-84249500D01*
X91976082Y-84249500D01*
X91976077Y-84249500D01*
X91970649Y-84250579D01*
X91970650Y-84250580D01*
X91831088Y-84278340D01*
X91831085Y-84278342D01*
X91694510Y-84334912D01*
X91694499Y-84334918D01*
X91694415Y-84334975D01*
X91571588Y-84417046D01*
X91571585Y-84417047D01*
X91571576Y-84417055D01*
X91467055Y-84521576D01*
X91467050Y-84521582D01*
X91411213Y-84605146D01*
X91382472Y-84639183D01*
X91369478Y-84651469D01*
X91293199Y-84696470D01*
X91204950Y-84703918D01*
X91122208Y-84672339D01*
X91122196Y-84672331D01*
X91121196Y-84671663D01*
X91115489Y-84667849D01*
X91060589Y-84612948D01*
X91055376Y-84605146D01*
X91032951Y-84571584D01*
X90928416Y-84467049D01*
X90853581Y-84417046D01*
X90805496Y-84384916D01*
X90805494Y-84384915D01*
X90767590Y-84369215D01*
X90684784Y-84334916D01*
X90675429Y-84331041D01*
X90675428Y-84331040D01*
X90670158Y-84328635D01*
X90654882Y-84325028D01*
X90649686Y-84324517D01*
X90571813Y-84309027D01*
X90550904Y-84304868D01*
X90523918Y-84299500D01*
X90523917Y-84299500D01*
X90376081Y-84299500D01*
X90364081Y-84301887D01*
X90340079Y-84306661D01*
X90328185Y-84309027D01*
X90231095Y-84328339D01*
X90231091Y-84328340D01*
X90231089Y-84328341D01*
X90184779Y-84347523D01*
X90094504Y-84384915D01*
X90094499Y-84384918D01*
X90094415Y-84384975D01*
X89971584Y-84467048D01*
X89971576Y-84467055D01*
X89867055Y-84571576D01*
X89867048Y-84571584D01*
X89784918Y-84694500D01*
X89784912Y-84694510D01*
X89728342Y-84831085D01*
X89728340Y-84831090D01*
X89707725Y-84934727D01*
X89707724Y-84934733D01*
X89704694Y-84949970D01*
X89699500Y-84976082D01*
X88650500Y-84976082D01*
X88650500Y-84926082D01*
X88621658Y-84781087D01*
X88607892Y-84747854D01*
X88565084Y-84644505D01*
X88565082Y-84644502D01*
X88538785Y-84605146D01*
X88482951Y-84521584D01*
X88378416Y-84417049D01*
X88283151Y-84353395D01*
X88255497Y-84334917D01*
X88255494Y-84334915D01*
X88142427Y-84288082D01*
X88120980Y-84279198D01*
X88119415Y-84278459D01*
X88104882Y-84275028D01*
X88099686Y-84274517D01*
X88029530Y-84260562D01*
X87979349Y-84250580D01*
X87979346Y-84250578D01*
X87973922Y-84249500D01*
X87973918Y-84249500D01*
X87826082Y-84249500D01*
X87826077Y-84249500D01*
X87820649Y-84250579D01*
X87820650Y-84250580D01*
X87681088Y-84278340D01*
X87681085Y-84278342D01*
X87544510Y-84334912D01*
X87544499Y-84334918D01*
X87544415Y-84334975D01*
X87421588Y-84417046D01*
X87421585Y-84417047D01*
X87421576Y-84417055D01*
X87317055Y-84521576D01*
X87317048Y-84521584D01*
X87234918Y-84644500D01*
X87234915Y-84644504D01*
X87178339Y-84781094D01*
X87157674Y-84884988D01*
X87155230Y-84897275D01*
X87152491Y-84911045D01*
X87149500Y-84926082D01*
X81308863Y-84926082D01*
X81390069Y-84886975D01*
X81390079Y-84886969D01*
X81611550Y-84747810D01*
X81611553Y-84747808D01*
X81632627Y-84734566D01*
X81682862Y-84694505D01*
X81856595Y-84555957D01*
X82059157Y-84353395D01*
X82237766Y-84129427D01*
X82237768Y-84129422D01*
X82237771Y-84129420D01*
X82237775Y-84129413D01*
X82238045Y-84129075D01*
X82239544Y-84126597D01*
X82390169Y-83886879D01*
X82390169Y-83886878D01*
X82390962Y-83885616D01*
X82394018Y-83880752D01*
X82397449Y-83871764D01*
X82419688Y-83825584D01*
X82514468Y-83628772D01*
X82609082Y-83358382D01*
X82672826Y-83079098D01*
X82704900Y-82794433D01*
X82704900Y-82507967D01*
X82672826Y-82223302D01*
X82609082Y-81944018D01*
X82514468Y-81673628D01*
X82390175Y-81415531D01*
X82390173Y-81415528D01*
X82390169Y-81415520D01*
X82237770Y-81172977D01*
X82237538Y-81172657D01*
X82236464Y-81171340D01*
X82059157Y-80949005D01*
X81856594Y-80746442D01*
X81816228Y-80714251D01*
X81632627Y-80567833D01*
X81626084Y-80563722D01*
X81603651Y-80541289D01*
X81588922Y-80533163D01*
X81572709Y-80510348D01*
X81563460Y-80501099D01*
X81560147Y-80492671D01*
X81537621Y-80460971D01*
X81522722Y-80373670D01*
X81547177Y-80288550D01*
X81606143Y-80222470D01*
X81687937Y-80188520D01*
X81696212Y-80187107D01*
X81729387Y-80184272D01*
X95495317Y-80163809D01*
X95539604Y-80168732D01*
X95554820Y-80172182D01*
X95634670Y-80210490D01*
X95689991Y-80279649D01*
X95709826Y-80365963D01*
X95690253Y-80452322D01*
X95686822Y-80459475D01*
X95648109Y-80514125D01*
X95593298Y-80568935D01*
X95589938Y-80573944D01*
X95483238Y-80720801D01*
X95397452Y-80889168D01*
X95397451Y-80889170D01*
X95397412Y-80889287D01*
X95339063Y-81068868D01*
X95339060Y-81068879D01*
X95339055Y-81068904D01*
X95309500Y-81255518D01*
X95309500Y-81444480D01*
X95339055Y-81631094D01*
X95339060Y-81631119D01*
X95339063Y-81631130D01*
X95397412Y-81810711D01*
X95397451Y-81810828D01*
X95397452Y-81810831D01*
X95465312Y-81944014D01*
X95483240Y-81979199D01*
X95594310Y-82132073D01*
X95594314Y-82132077D01*
X95594315Y-82132079D01*
X95727920Y-82265684D01*
X95727922Y-82265685D01*
X95727927Y-82265690D01*
X95880801Y-82376760D01*
X96049168Y-82462547D01*
X96228882Y-82520940D01*
X96415519Y-82550500D01*
X96604481Y-82550500D01*
X96791118Y-82520940D01*
X96970832Y-82462547D01*
X97139199Y-82376760D01*
X97292073Y-82265690D01*
X97425690Y-82132073D01*
X97536760Y-81979199D01*
X97592514Y-81869772D01*
X97617048Y-81832603D01*
X97627768Y-81819762D01*
X97698224Y-81766115D01*
X97784986Y-81748347D01*
X97870866Y-81769984D01*
X97936104Y-81823212D01*
X97944735Y-81834034D01*
X97966462Y-81867766D01*
X98023234Y-81979188D01*
X98023240Y-81979199D01*
X98134310Y-82132073D01*
X98134314Y-82132077D01*
X98134315Y-82132079D01*
X98267920Y-82265684D01*
X98267922Y-82265685D01*
X98267927Y-82265690D01*
X98420801Y-82376760D01*
X98589168Y-82462547D01*
X98768882Y-82520940D01*
X98955519Y-82550500D01*
X99144481Y-82550500D01*
X99331118Y-82520940D01*
X99510832Y-82462547D01*
X99679199Y-82376760D01*
X99832073Y-82265690D01*
X99965690Y-82132073D01*
X100076760Y-81979199D01*
X100162547Y-81810832D01*
X100220940Y-81631118D01*
X100250500Y-81444481D01*
X100250500Y-81255519D01*
X100220940Y-81068882D01*
X100162547Y-80889168D01*
X100076760Y-80720801D01*
X99965690Y-80567927D01*
X99965685Y-80567922D01*
X99965684Y-80567920D01*
X99908783Y-80511019D01*
X99907235Y-80509399D01*
X99905500Y-80506493D01*
X99882614Y-80477797D01*
X99874309Y-80464579D01*
X99865583Y-80439644D01*
X99861831Y-80433360D01*
X99861295Y-80427390D01*
X99845058Y-80380989D01*
X99854972Y-80292982D01*
X99902089Y-80217992D01*
X99977070Y-80170876D01*
X99984709Y-80168203D01*
X100050124Y-80157039D01*
X103143985Y-80152441D01*
X103143986Y-80152442D01*
X103165361Y-80152409D01*
X103174002Y-80152586D01*
G37*
%TD.AperFunction*%
%TA.AperFunction,Conductor*%
G36*
X114742229Y-92670207D02*
G01*
X114811470Y-92725426D01*
X114849897Y-92805218D01*
X114854886Y-92849897D01*
X114844878Y-97866041D01*
X114844516Y-98047736D01*
X115940312Y-98048706D01*
X116026636Y-98068490D01*
X116095828Y-98123769D01*
X116134184Y-98203596D01*
X116134105Y-98292159D01*
X116126034Y-98318714D01*
X116113600Y-98351264D01*
X116113599Y-98351270D01*
X115035874Y-101172716D01*
X115033650Y-101178284D01*
X115031367Y-101183760D01*
X115028995Y-101189218D01*
X114921909Y-101425888D01*
X114916663Y-101436613D01*
X114911095Y-101447181D01*
X114905213Y-101457577D01*
X114775205Y-101672050D01*
X114768709Y-101682074D01*
X114761925Y-101691885D01*
X114754843Y-101701498D01*
X114600081Y-101898866D01*
X114592428Y-101908044D01*
X114584513Y-101916977D01*
X114576335Y-101925668D01*
X114399059Y-102103076D01*
X114390379Y-102111255D01*
X114381439Y-102119187D01*
X114372291Y-102126827D01*
X114331590Y-102158791D01*
X114331587Y-102158793D01*
X114175032Y-102281737D01*
X114165420Y-102288830D01*
X114155605Y-102295627D01*
X114145597Y-102302122D01*
X114060341Y-102353889D01*
X113931219Y-102432290D01*
X113920835Y-102438176D01*
X113910287Y-102443744D01*
X113899557Y-102449002D01*
X113671134Y-102552559D01*
X113660115Y-102557161D01*
X113648964Y-102561430D01*
X113637688Y-102565364D01*
X113398498Y-102640825D01*
X113387007Y-102644074D01*
X113375449Y-102646971D01*
X113363782Y-102649526D01*
X113117264Y-102695803D01*
X113105464Y-102697653D01*
X113093649Y-102699144D01*
X113081762Y-102700283D01*
X112822688Y-102717280D01*
X112816658Y-102717584D01*
X112810576Y-102717798D01*
X112804497Y-102717919D01*
X110649269Y-102727875D01*
X110623286Y-102722070D01*
X110612341Y-102723388D01*
X110580471Y-102712506D01*
X110562836Y-102708567D01*
X110558194Y-102704900D01*
X110528528Y-102694771D01*
X110465432Y-102632623D01*
X110435550Y-102549253D01*
X110444799Y-102461174D01*
X110453351Y-102440138D01*
X110453619Y-102439573D01*
X110453821Y-102439147D01*
X110496560Y-102380187D01*
X110504366Y-102372773D01*
X110517296Y-102361516D01*
X110735116Y-102187811D01*
X110937678Y-101985249D01*
X111116287Y-101761281D01*
X111116289Y-101761276D01*
X111116292Y-101761274D01*
X111116296Y-101761267D01*
X111116566Y-101760929D01*
X111118065Y-101758451D01*
X111268690Y-101518733D01*
X111268690Y-101518732D01*
X111269483Y-101517470D01*
X111272539Y-101512606D01*
X111275970Y-101503618D01*
X111392989Y-101260626D01*
X111487603Y-100990236D01*
X111551347Y-100710952D01*
X111583421Y-100426287D01*
X111583421Y-100139821D01*
X111551347Y-99855156D01*
X111487603Y-99575872D01*
X111392989Y-99305482D01*
X111268696Y-99047385D01*
X111268692Y-99047380D01*
X111268690Y-99047374D01*
X111148148Y-98855532D01*
X111116291Y-98804831D01*
X111116059Y-98804511D01*
X111114985Y-98803194D01*
X110937678Y-98580859D01*
X110735115Y-98378296D01*
X110731068Y-98375069D01*
X110618333Y-98285165D01*
X110512798Y-98201003D01*
X110511461Y-98199914D01*
X110511142Y-98199682D01*
X110268603Y-98047285D01*
X110268602Y-98047284D01*
X110193531Y-98011132D01*
X110011833Y-97923631D01*
X110010493Y-97922986D01*
X110010490Y-97922985D01*
X110010486Y-97922983D01*
X110010483Y-97922982D01*
X110010479Y-97922980D01*
X110009202Y-97922533D01*
X110009159Y-97922518D01*
X109745379Y-97830218D01*
X109734956Y-97826239D01*
X109731728Y-97824902D01*
X109718244Y-97823383D01*
X109697704Y-97818695D01*
X109503677Y-97774410D01*
X109503675Y-97774409D01*
X109460812Y-97764626D01*
X109222039Y-97737724D01*
X109176154Y-97732554D01*
X109176153Y-97732554D01*
X108889688Y-97732554D01*
X108726984Y-97750885D01*
X108682430Y-97750885D01*
X108665261Y-97748951D01*
X108581666Y-97719703D01*
X108519041Y-97657081D01*
X108489788Y-97573488D01*
X108497523Y-97492074D01*
X108501986Y-97477734D01*
X108501985Y-97477733D01*
X108506454Y-97463376D01*
X108512613Y-97446353D01*
X108519025Y-97430874D01*
X108535654Y-97390726D01*
X108567816Y-97313082D01*
X108586923Y-97217022D01*
X108600500Y-97148770D01*
X108600500Y-97046082D01*
X110339500Y-97046082D01*
X110339500Y-97193918D01*
X110342360Y-97208294D01*
X110345563Y-97224401D01*
X110345564Y-97224403D01*
X110363202Y-97313077D01*
X110368342Y-97338913D01*
X110371807Y-97347279D01*
X110424912Y-97475488D01*
X110424916Y-97475496D01*
X110444021Y-97504088D01*
X110507045Y-97598411D01*
X110507049Y-97598416D01*
X110611584Y-97702951D01*
X110734505Y-97785084D01*
X110871087Y-97841658D01*
X111016082Y-97870500D01*
X111016083Y-97870500D01*
X111163917Y-97870500D01*
X111163918Y-97870500D01*
X111308913Y-97841658D01*
X111445495Y-97785084D01*
X111568416Y-97702951D01*
X111672951Y-97598416D01*
X111755084Y-97475495D01*
X111811658Y-97338913D01*
X111815448Y-97319856D01*
X111829304Y-97288889D01*
X111833679Y-97266897D01*
X111833681Y-97266891D01*
X111847159Y-97248983D01*
X111851619Y-97239017D01*
X111860332Y-97231481D01*
X111886936Y-97196133D01*
X111965621Y-97155485D01*
X112054149Y-97153004D01*
X112134988Y-97189179D01*
X112192125Y-97256846D01*
X112195318Y-97263027D01*
X112213690Y-97315529D01*
X112218342Y-97338913D01*
X112221807Y-97347279D01*
X112274912Y-97475488D01*
X112274916Y-97475496D01*
X112294021Y-97504088D01*
X112357045Y-97598411D01*
X112357049Y-97598416D01*
X112461584Y-97702951D01*
X112584505Y-97785084D01*
X112721087Y-97841658D01*
X112866082Y-97870500D01*
X112866083Y-97870500D01*
X113013917Y-97870500D01*
X113013918Y-97870500D01*
X113158913Y-97841658D01*
X113295495Y-97785084D01*
X113418416Y-97702951D01*
X113522951Y-97598416D01*
X113605084Y-97475495D01*
X113661658Y-97338913D01*
X113665449Y-97319858D01*
X113685344Y-97219838D01*
X113690500Y-97193918D01*
X113690500Y-97046082D01*
X113661658Y-96901087D01*
X113605084Y-96764505D01*
X113522951Y-96641584D01*
X113418416Y-96537049D01*
X113330564Y-96478348D01*
X113295584Y-96454975D01*
X113295496Y-96454916D01*
X113295485Y-96454911D01*
X113168182Y-96402181D01*
X113168172Y-96402177D01*
X113165425Y-96401039D01*
X113165421Y-96401036D01*
X113160159Y-96398635D01*
X113144882Y-96395028D01*
X113139686Y-96394517D01*
X113061813Y-96379027D01*
X113049918Y-96376661D01*
X113013918Y-96369500D01*
X113013917Y-96369500D01*
X112866081Y-96369500D01*
X112854081Y-96371887D01*
X112830079Y-96376661D01*
X112818185Y-96379027D01*
X112721095Y-96398339D01*
X112721091Y-96398340D01*
X112721089Y-96398341D01*
X112679033Y-96415761D01*
X112584504Y-96454915D01*
X112584499Y-96454918D01*
X112584415Y-96454975D01*
X112461584Y-96537048D01*
X112461576Y-96537055D01*
X112357055Y-96641576D01*
X112357048Y-96641584D01*
X112274918Y-96764500D01*
X112274912Y-96764510D01*
X112218342Y-96901085D01*
X112218340Y-96901089D01*
X112214550Y-96920147D01*
X112200693Y-96951112D01*
X112196318Y-96973105D01*
X112182837Y-96991016D01*
X112178376Y-97000986D01*
X112169669Y-97008512D01*
X112143061Y-97043866D01*
X112064376Y-97084513D01*
X111975848Y-97086994D01*
X111895010Y-97050818D01*
X111837874Y-96983152D01*
X111834677Y-96976963D01*
X111816305Y-96924454D01*
X111811658Y-96901087D01*
X111755084Y-96764505D01*
X111672951Y-96641584D01*
X111568416Y-96537049D01*
X111480564Y-96478348D01*
X111445584Y-96454975D01*
X111445496Y-96454916D01*
X111445485Y-96454911D01*
X111318182Y-96402181D01*
X111318172Y-96402177D01*
X111315425Y-96401039D01*
X111315421Y-96401036D01*
X111310159Y-96398635D01*
X111294882Y-96395028D01*
X111289686Y-96394517D01*
X111211813Y-96379027D01*
X111199918Y-96376661D01*
X111163918Y-96369500D01*
X111163917Y-96369500D01*
X111016081Y-96369500D01*
X111004081Y-96371887D01*
X110980079Y-96376661D01*
X110968185Y-96379027D01*
X110871095Y-96398339D01*
X110871091Y-96398340D01*
X110871089Y-96398341D01*
X110829033Y-96415761D01*
X110734504Y-96454915D01*
X110734499Y-96454918D01*
X110734415Y-96454975D01*
X110611584Y-96537048D01*
X110611576Y-96537055D01*
X110507055Y-96641576D01*
X110507048Y-96641584D01*
X110424918Y-96764500D01*
X110424912Y-96764510D01*
X110368342Y-96901085D01*
X110368340Y-96901090D01*
X110345148Y-97017685D01*
X110345148Y-97017688D01*
X110339500Y-97046082D01*
X108600500Y-97046082D01*
X108600500Y-96981229D01*
X108579484Y-96875576D01*
X108578496Y-96870611D01*
X108569353Y-96824646D01*
X108567816Y-96816918D01*
X108523192Y-96709187D01*
X108503705Y-96662140D01*
X108491414Y-96643745D01*
X108484582Y-96633520D01*
X108434920Y-96559196D01*
X108414466Y-96519604D01*
X108407079Y-96500252D01*
X108394699Y-96412561D01*
X108395362Y-96404700D01*
X108422256Y-96320318D01*
X108428197Y-96310864D01*
X108437679Y-96296673D01*
X108503703Y-96197863D01*
X108567816Y-96043082D01*
X108574952Y-96007205D01*
X108600500Y-95878770D01*
X108600500Y-95711229D01*
X108574024Y-95578130D01*
X108567816Y-95546918D01*
X108523321Y-95439500D01*
X108521499Y-95434302D01*
X108520867Y-95428734D01*
X108513084Y-95401690D01*
X108512965Y-95400988D01*
X108514551Y-95373014D01*
X108511524Y-95346303D01*
X108516947Y-95330769D01*
X108517980Y-95312572D01*
X108532400Y-95286513D01*
X108540719Y-95262690D01*
X108551631Y-95251763D01*
X108560862Y-95235083D01*
X108584853Y-95212378D01*
X108826443Y-95019106D01*
X108906177Y-94980558D01*
X108950757Y-94975500D01*
X111534307Y-94975500D01*
X111534309Y-94975500D01*
X111558350Y-94969058D01*
X111624673Y-94951286D01*
X111624673Y-94951287D01*
X111624677Y-94951285D01*
X111635202Y-94948464D01*
X111648887Y-94944799D01*
X111751614Y-94885489D01*
X113912466Y-92724636D01*
X113947291Y-92696863D01*
X113969795Y-92682723D01*
X114042330Y-92655036D01*
X114052498Y-92653308D01*
X114085813Y-92650500D01*
X114655886Y-92650500D01*
X114742229Y-92670207D01*
G37*
%TD.AperFunction*%
%TA.AperFunction,Conductor*%
G36*
X124266264Y-80118744D02*
G01*
X124310532Y-80123868D01*
X124325097Y-80127239D01*
X124404773Y-80165908D01*
X124459781Y-80235317D01*
X124479225Y-80321719D01*
X124459255Y-80408002D01*
X124412609Y-80469693D01*
X124406389Y-80475235D01*
X124379884Y-80495152D01*
X124369979Y-80501376D01*
X124368871Y-80501999D01*
X124361767Y-80506536D01*
X124137813Y-80685134D01*
X124137804Y-80685142D01*
X123935241Y-80887705D01*
X123757970Y-81109996D01*
X123756866Y-81111349D01*
X123756628Y-81111677D01*
X123604235Y-81354209D01*
X123479925Y-81612342D01*
X123479925Y-81612343D01*
X123385320Y-81882708D01*
X123363296Y-81979203D01*
X123328404Y-82132079D01*
X123321572Y-82162011D01*
X123289500Y-82446667D01*
X123289500Y-82733131D01*
X123321572Y-83017791D01*
X123321641Y-83018172D01*
X123322025Y-83019777D01*
X123365198Y-83208934D01*
X123385318Y-83297081D01*
X123385320Y-83297090D01*
X123479460Y-83566126D01*
X123479467Y-83566145D01*
X123479959Y-83567553D01*
X123480571Y-83568800D01*
X123592355Y-83800921D01*
X123604230Y-83825579D01*
X123604232Y-83825582D01*
X123604233Y-83825584D01*
X123719816Y-84009533D01*
X123739151Y-84049683D01*
X123745056Y-84066559D01*
X123754972Y-84154566D01*
X123725720Y-84238159D01*
X123663111Y-84300773D01*
X123656595Y-84304868D01*
X123581837Y-84332928D01*
X123398227Y-84362008D01*
X123398215Y-84362011D01*
X123398213Y-84362011D01*
X123203692Y-84425215D01*
X123203611Y-84425242D01*
X123021303Y-84518131D01*
X123021287Y-84518141D01*
X122976714Y-84550523D01*
X122976715Y-84550523D01*
X122976715Y-84550524D01*
X123455858Y-85029666D01*
X123502977Y-85104654D01*
X123512893Y-85192661D01*
X123483642Y-85276254D01*
X123455859Y-85311093D01*
X123383735Y-85383218D01*
X123308747Y-85430337D01*
X123220740Y-85440254D01*
X123137147Y-85411004D01*
X123102306Y-85383219D01*
X122777640Y-85058553D01*
X122777639Y-85058553D01*
X122777638Y-85058553D01*
X122452972Y-85383219D01*
X122377983Y-85430338D01*
X122289977Y-85440254D01*
X122206383Y-85411003D01*
X122171544Y-85383219D01*
X122099419Y-85311094D01*
X122052300Y-85236106D01*
X122042384Y-85148099D01*
X122071635Y-85064506D01*
X122099419Y-85029666D01*
X122218040Y-84911045D01*
X122578560Y-84550524D01*
X122578560Y-84550523D01*
X122567775Y-84542687D01*
X122533986Y-84518138D01*
X122433716Y-84467049D01*
X122351665Y-84425242D01*
X122351662Y-84425241D01*
X122351545Y-84425202D01*
X122157068Y-84362013D01*
X122157051Y-84362008D01*
X122157035Y-84362005D01*
X121954951Y-84330000D01*
X121750327Y-84330000D01*
X121548244Y-84362005D01*
X121548219Y-84362010D01*
X121548208Y-84362013D01*
X121353731Y-84425202D01*
X121353611Y-84425242D01*
X121171303Y-84518131D01*
X121171287Y-84518141D01*
X121126714Y-84550523D01*
X121126715Y-84550523D01*
X121126715Y-84550524D01*
X121605858Y-85029666D01*
X121652977Y-85104654D01*
X121662893Y-85192661D01*
X121633642Y-85276254D01*
X121605859Y-85311093D01*
X121533735Y-85383218D01*
X121458747Y-85430337D01*
X121370740Y-85440254D01*
X121287147Y-85411004D01*
X121252306Y-85383219D01*
X120773162Y-84904075D01*
X120740780Y-84948648D01*
X120740770Y-84948664D01*
X120647881Y-85130972D01*
X120647841Y-85131092D01*
X120584652Y-85325569D01*
X120584649Y-85325580D01*
X120584644Y-85325605D01*
X120552639Y-85527687D01*
X120552639Y-85732311D01*
X120584644Y-85934393D01*
X120584649Y-85934418D01*
X120584652Y-85934429D01*
X120647841Y-86128906D01*
X120647879Y-86129020D01*
X120647880Y-86129023D01*
X120647881Y-86129026D01*
X120684780Y-86201445D01*
X120740771Y-86311336D01*
X120743830Y-86316326D01*
X120754597Y-86348232D01*
X120773163Y-86355922D01*
X121252305Y-85876780D01*
X121327293Y-85829661D01*
X121415300Y-85819745D01*
X121498893Y-85848996D01*
X121533733Y-85876780D01*
X121605858Y-85948905D01*
X121652977Y-86023893D01*
X121662893Y-86111900D01*
X121633642Y-86195493D01*
X121605860Y-86230331D01*
X121126716Y-86709474D01*
X121126716Y-86709475D01*
X121171290Y-86741860D01*
X121353612Y-86834757D01*
X121353615Y-86834758D01*
X121353694Y-86834783D01*
X121353731Y-86834796D01*
X121465824Y-86871217D01*
X121548217Y-86897988D01*
X121548229Y-86897991D01*
X121750327Y-86930000D01*
X121954951Y-86930000D01*
X122157048Y-86897991D01*
X122157060Y-86897988D01*
X122351662Y-86834758D01*
X122351665Y-86834757D01*
X122533985Y-86741861D01*
X122578560Y-86709475D01*
X122578560Y-86709473D01*
X122099420Y-86230333D01*
X122052301Y-86155345D01*
X122042385Y-86067338D01*
X122071636Y-85983745D01*
X122099420Y-85948905D01*
X122171545Y-85876780D01*
X122246533Y-85829661D01*
X122334540Y-85819745D01*
X122418133Y-85848996D01*
X122452973Y-85876780D01*
X122777639Y-86201446D01*
X122777640Y-86201446D01*
X123102307Y-85876778D01*
X123177293Y-85829661D01*
X123265300Y-85819745D01*
X123348893Y-85848996D01*
X123383733Y-85876780D01*
X123455858Y-85948905D01*
X123502977Y-86023893D01*
X123512893Y-86111900D01*
X123483642Y-86195493D01*
X123455860Y-86230331D01*
X123094983Y-86591207D01*
X122976716Y-86709474D01*
X123017964Y-86739444D01*
X123021290Y-86741860D01*
X123203612Y-86834757D01*
X123203615Y-86834758D01*
X123203694Y-86834783D01*
X123203731Y-86834796D01*
X123315824Y-86871217D01*
X123398217Y-86897988D01*
X123398229Y-86897991D01*
X123600327Y-86930000D01*
X123804951Y-86930000D01*
X124007048Y-86897991D01*
X124007060Y-86897988D01*
X124201662Y-86834758D01*
X124201665Y-86834757D01*
X124383985Y-86741861D01*
X124428560Y-86709475D01*
X124428560Y-86709473D01*
X123949420Y-86230333D01*
X123902301Y-86155345D01*
X123892385Y-86067338D01*
X123921636Y-85983745D01*
X123949419Y-85948906D01*
X123979538Y-85918787D01*
X124021545Y-85876779D01*
X124096531Y-85829662D01*
X124184538Y-85819745D01*
X124268131Y-85848995D01*
X124302970Y-85876777D01*
X124782112Y-86355921D01*
X124782114Y-86355921D01*
X124814500Y-86311346D01*
X124907396Y-86129026D01*
X124907397Y-86129023D01*
X124970627Y-85934421D01*
X124970630Y-85934409D01*
X125002639Y-85732311D01*
X125002639Y-85527688D01*
X124970630Y-85325590D01*
X124970627Y-85325577D01*
X124970623Y-85325565D01*
X124969874Y-85322317D01*
X124965576Y-85295404D01*
X124963783Y-85275497D01*
X124975667Y-85187739D01*
X125024453Y-85113825D01*
X125100471Y-85068400D01*
X125102306Y-85067804D01*
X125177131Y-85058524D01*
X125185297Y-85059074D01*
X125216195Y-85063611D01*
X125412102Y-85108326D01*
X125696767Y-85140400D01*
X125696768Y-85140400D01*
X125983232Y-85140400D01*
X125983233Y-85140400D01*
X126267898Y-85108326D01*
X126547182Y-85044582D01*
X126817572Y-84949968D01*
X127075669Y-84825675D01*
X127075679Y-84825669D01*
X127318220Y-84673271D01*
X127318222Y-84673268D01*
X127318227Y-84673266D01*
X127318236Y-84673258D01*
X127320775Y-84671663D01*
X127325877Y-84667164D01*
X127542195Y-84494657D01*
X127744757Y-84292095D01*
X127923366Y-84068127D01*
X127923368Y-84068122D01*
X127923371Y-84068120D01*
X127923374Y-84068114D01*
X127923642Y-84067779D01*
X127925117Y-84065340D01*
X128075770Y-83825578D01*
X128075772Y-83825573D01*
X128075775Y-83825569D01*
X128170823Y-83628198D01*
X128194526Y-83590475D01*
X128205680Y-83576488D01*
X128274923Y-83521273D01*
X128361266Y-83501569D01*
X128447586Y-83521268D01*
X128451369Y-83523090D01*
X128508890Y-83564884D01*
X128511576Y-83567694D01*
X128528705Y-83588210D01*
X128557870Y-83628343D01*
X128715988Y-83786430D01*
X128715991Y-83786432D01*
X128716785Y-83787083D01*
X128719228Y-83788784D01*
X128877385Y-83903669D01*
X128877387Y-83903670D01*
X128896884Y-83917833D01*
X128896886Y-83917834D01*
X128896889Y-83917836D01*
X129096120Y-84019326D01*
X129308774Y-84088400D01*
X129529615Y-84123357D01*
X129529621Y-84123356D01*
X129529622Y-84123357D01*
X129529673Y-84123356D01*
X129595215Y-84123350D01*
X129612627Y-84124695D01*
X129617833Y-84124475D01*
X129617836Y-84124476D01*
X129640435Y-84123521D01*
X129648753Y-84123345D01*
X129675761Y-84123344D01*
X129675761Y-84123343D01*
X129687040Y-84123343D01*
X129689889Y-84123343D01*
X129689895Y-84123342D01*
X129701161Y-84123341D01*
X129714496Y-84120394D01*
X130160999Y-84101541D01*
X130173826Y-84101415D01*
X130186691Y-84101704D01*
X130199523Y-84102409D01*
X130347663Y-84115360D01*
X130364865Y-84117624D01*
X130367999Y-84118176D01*
X130381911Y-84120628D01*
X130398837Y-84124379D01*
X130536956Y-84161376D01*
X130553482Y-84166585D01*
X130569772Y-84172514D01*
X130585785Y-84179146D01*
X130715356Y-84239553D01*
X130730750Y-84247564D01*
X130745752Y-84256224D01*
X130760378Y-84265540D01*
X130877493Y-84347529D01*
X130891253Y-84358084D01*
X130904521Y-84369215D01*
X130917318Y-84380939D01*
X131018420Y-84482020D01*
X131030146Y-84494815D01*
X131041273Y-84508073D01*
X131051830Y-84521829D01*
X131090324Y-84576789D01*
X131090325Y-84576793D01*
X131090327Y-84576793D01*
X131133846Y-84638930D01*
X131143175Y-84653571D01*
X131151823Y-84668546D01*
X131159840Y-84683943D01*
X131220273Y-84813502D01*
X131226919Y-84829541D01*
X131232837Y-84845795D01*
X131238059Y-84862349D01*
X131275076Y-85000429D01*
X131278836Y-85017382D01*
X131281844Y-85034431D01*
X131284110Y-85051626D01*
X131296753Y-85195910D01*
X131297728Y-85207038D01*
X131298296Y-85215690D01*
X131298676Y-85224356D01*
X131298867Y-85233054D01*
X131300129Y-97545657D01*
X131300129Y-97545668D01*
X131300130Y-97566980D01*
X131299942Y-97575646D01*
X131299564Y-97584327D01*
X131298997Y-97592989D01*
X131285419Y-97748412D01*
X131283154Y-97765630D01*
X131280150Y-97782676D01*
X131276398Y-97799611D01*
X131275564Y-97802727D01*
X131271285Y-97818706D01*
X131261286Y-97856039D01*
X131239414Y-97937703D01*
X131234195Y-97954261D01*
X131228281Y-97970515D01*
X131221640Y-97986553D01*
X131161239Y-98116122D01*
X131153219Y-98131532D01*
X131144564Y-98146525D01*
X131135249Y-98161150D01*
X131123197Y-98178368D01*
X131123189Y-98178379D01*
X131053268Y-98278257D01*
X131042703Y-98292029D01*
X131031579Y-98305289D01*
X131019851Y-98318091D01*
X130918777Y-98419186D01*
X130905980Y-98430914D01*
X130892726Y-98442038D01*
X130878950Y-98452611D01*
X130761860Y-98534614D01*
X130747220Y-98543943D01*
X130732222Y-98552604D01*
X130716823Y-98560622D01*
X130587286Y-98621040D01*
X130571254Y-98627682D01*
X130554998Y-98633601D01*
X130538436Y-98638826D01*
X130400356Y-98675838D01*
X130383401Y-98679598D01*
X130366342Y-98682607D01*
X130349133Y-98684873D01*
X130191603Y-98698667D01*
X130187250Y-98699001D01*
X130184288Y-98699195D01*
X130171303Y-98699620D01*
X130139864Y-98699623D01*
X130129247Y-98701214D01*
X130118081Y-98702034D01*
X130117280Y-98701912D01*
X130111901Y-98702391D01*
X129646030Y-98722062D01*
X129641831Y-98722195D01*
X129637611Y-98722284D01*
X129633435Y-98722328D01*
X129531105Y-98722338D01*
X129310277Y-98757334D01*
X129310275Y-98757334D01*
X129114822Y-98820860D01*
X129114813Y-98820864D01*
X129097634Y-98826448D01*
X129097627Y-98826450D01*
X128898425Y-98927971D01*
X128898419Y-98927974D01*
X128717539Y-99059418D01*
X128717537Y-99059419D01*
X128717534Y-99059422D01*
X128717531Y-99059426D01*
X128569280Y-99207706D01*
X128569276Y-99207710D01*
X128559455Y-99217534D01*
X128559450Y-99217539D01*
X128496005Y-99304882D01*
X128494909Y-99306337D01*
X128492747Y-99308158D01*
X128466965Y-99336372D01*
X128453502Y-99348137D01*
X128430840Y-99360334D01*
X128427190Y-99363412D01*
X128423237Y-99364427D01*
X128375518Y-99390114D01*
X128287045Y-99394097D01*
X128205604Y-99359299D01*
X128205602Y-99359297D01*
X128202214Y-99356836D01*
X128153104Y-99305484D01*
X128150956Y-99302231D01*
X128137731Y-99278928D01*
X128068939Y-99136079D01*
X128068939Y-99136078D01*
X128068679Y-99135539D01*
X128068676Y-99135534D01*
X128068675Y-99135531D01*
X128068671Y-99135526D01*
X128068669Y-99135520D01*
X127916271Y-98892979D01*
X127916266Y-98892973D01*
X127916264Y-98892971D01*
X127916262Y-98892967D01*
X127916038Y-98892657D01*
X127914964Y-98891340D01*
X127737657Y-98669005D01*
X127535094Y-98466442D01*
X127504492Y-98442038D01*
X127436720Y-98387991D01*
X127312777Y-98289149D01*
X127311440Y-98288060D01*
X127311121Y-98287828D01*
X127068583Y-98135432D01*
X127068570Y-98135425D01*
X126941598Y-98074279D01*
X126810472Y-98011132D01*
X126810469Y-98011131D01*
X126810465Y-98011129D01*
X126810462Y-98011128D01*
X126810458Y-98011126D01*
X126809181Y-98010679D01*
X126809138Y-98010664D01*
X126545358Y-97918364D01*
X126534935Y-97914385D01*
X126531707Y-97913048D01*
X126518224Y-97911529D01*
X126276904Y-97856450D01*
X126276903Y-97856449D01*
X126260790Y-97852772D01*
X126093294Y-97833900D01*
X126024582Y-97826158D01*
X126024580Y-97826157D01*
X125976136Y-97820700D01*
X125976133Y-97820700D01*
X125689667Y-97820700D01*
X125689659Y-97820700D01*
X125648265Y-97825363D01*
X125648264Y-97825364D01*
X125598998Y-97830914D01*
X125405006Y-97852772D01*
X125242392Y-97889887D01*
X125198112Y-97894876D01*
X125181145Y-97894876D01*
X125094802Y-97875169D01*
X125025561Y-97819950D01*
X124987134Y-97740158D01*
X124985972Y-97657043D01*
X124989320Y-97640211D01*
X124995227Y-97617577D01*
X125057988Y-97424421D01*
X125057991Y-97424409D01*
X125090000Y-97222311D01*
X125090000Y-97017688D01*
X125084225Y-96981229D01*
X125067492Y-96875576D01*
X125057991Y-96815590D01*
X125057988Y-96815578D01*
X125025951Y-96716978D01*
X124994796Y-96621092D01*
X124994783Y-96621055D01*
X124994758Y-96620976D01*
X124994757Y-96620973D01*
X124901860Y-96438651D01*
X124869474Y-96394077D01*
X124390332Y-96873219D01*
X124315345Y-96920338D01*
X124227338Y-96930254D01*
X124143745Y-96901003D01*
X124108905Y-96873219D01*
X124036780Y-96801094D01*
X123989661Y-96726106D01*
X123979745Y-96638099D01*
X124008996Y-96554506D01*
X124036777Y-96519669D01*
X124515922Y-96040524D01*
X124514841Y-96039738D01*
X124471347Y-96008138D01*
X124377542Y-95960343D01*
X124289026Y-95915242D01*
X124289023Y-95915241D01*
X124288906Y-95915202D01*
X124094429Y-95852013D01*
X124094412Y-95852008D01*
X124094396Y-95852005D01*
X123892312Y-95820000D01*
X123687688Y-95820000D01*
X123485605Y-95852005D01*
X123485580Y-95852010D01*
X123485569Y-95852013D01*
X123291092Y-95915202D01*
X123290972Y-95915242D01*
X123108664Y-96008131D01*
X123108648Y-96008141D01*
X123064075Y-96040523D01*
X123064076Y-96040523D01*
X123064076Y-96040524D01*
X123543219Y-96519666D01*
X123590338Y-96594654D01*
X123600254Y-96682661D01*
X123571003Y-96766254D01*
X123543220Y-96801093D01*
X123471096Y-96873218D01*
X123396108Y-96920337D01*
X123308101Y-96930254D01*
X123224508Y-96901004D01*
X123189667Y-96873219D01*
X122865001Y-96548553D01*
X122865000Y-96548553D01*
X122864999Y-96548553D01*
X122540333Y-96873219D01*
X122465344Y-96920338D01*
X122377338Y-96930254D01*
X122293744Y-96901003D01*
X122258905Y-96873219D01*
X122186780Y-96801094D01*
X122139661Y-96726106D01*
X122129745Y-96638099D01*
X122158996Y-96554506D01*
X122186780Y-96519666D01*
X122305410Y-96401036D01*
X122665921Y-96040524D01*
X122665921Y-96040523D01*
X122663642Y-96038867D01*
X122621347Y-96008138D01*
X122527542Y-95960343D01*
X122439026Y-95915242D01*
X122439023Y-95915241D01*
X122438906Y-95915202D01*
X122244429Y-95852013D01*
X122244412Y-95852008D01*
X122244396Y-95852005D01*
X122042312Y-95820000D01*
X121837688Y-95820000D01*
X121635605Y-95852005D01*
X121635580Y-95852010D01*
X121635569Y-95852013D01*
X121441092Y-95915202D01*
X121440972Y-95915242D01*
X121258664Y-96008131D01*
X121258648Y-96008141D01*
X121214075Y-96040523D01*
X121214076Y-96040523D01*
X121214076Y-96040524D01*
X121693219Y-96519666D01*
X121740338Y-96594654D01*
X121750254Y-96682661D01*
X121721003Y-96766254D01*
X121693220Y-96801093D01*
X121621096Y-96873218D01*
X121546108Y-96920337D01*
X121458101Y-96930254D01*
X121374508Y-96901004D01*
X121339667Y-96873219D01*
X120860523Y-96394075D01*
X120828141Y-96438648D01*
X120828131Y-96438664D01*
X120735242Y-96620972D01*
X120735202Y-96621092D01*
X120672013Y-96815569D01*
X120672010Y-96815580D01*
X120672005Y-96815605D01*
X120640000Y-97017686D01*
X120640000Y-97222311D01*
X120672005Y-97424393D01*
X120672010Y-97424418D01*
X120672013Y-97424429D01*
X120735202Y-97618906D01*
X120735242Y-97619026D01*
X120828132Y-97801336D01*
X120831191Y-97806326D01*
X120841958Y-97838232D01*
X120860524Y-97845922D01*
X121339666Y-97366780D01*
X121414654Y-97319661D01*
X121502661Y-97309745D01*
X121586254Y-97338996D01*
X121621094Y-97366780D01*
X121693219Y-97438905D01*
X121740338Y-97513893D01*
X121750254Y-97601900D01*
X121721003Y-97685493D01*
X121693221Y-97720331D01*
X121612216Y-97801336D01*
X121214076Y-98199474D01*
X121214077Y-98199474D01*
X121214077Y-98199475D01*
X121258651Y-98231860D01*
X121440973Y-98324757D01*
X121440976Y-98324758D01*
X121441055Y-98324783D01*
X121441092Y-98324796D01*
X121565050Y-98365072D01*
X121635578Y-98387988D01*
X121635590Y-98387991D01*
X121837688Y-98420000D01*
X122042312Y-98420000D01*
X122244409Y-98387991D01*
X122244421Y-98387988D01*
X122439023Y-98324758D01*
X122439026Y-98324757D01*
X122621346Y-98231861D01*
X122665921Y-98199475D01*
X122665921Y-98199473D01*
X122186781Y-97720333D01*
X122139662Y-97645345D01*
X122129746Y-97557338D01*
X122158997Y-97473745D01*
X122186781Y-97438905D01*
X122258906Y-97366780D01*
X122333894Y-97319661D01*
X122421901Y-97309745D01*
X122505494Y-97338996D01*
X122540334Y-97366780D01*
X122865000Y-97691446D01*
X122865001Y-97691446D01*
X123189668Y-97366778D01*
X123264654Y-97319661D01*
X123352661Y-97309745D01*
X123436254Y-97338996D01*
X123471094Y-97366780D01*
X123543219Y-97438905D01*
X123590338Y-97513893D01*
X123600254Y-97601900D01*
X123571003Y-97685493D01*
X123543221Y-97720331D01*
X123183583Y-98079968D01*
X123064077Y-98199474D01*
X123106199Y-98230079D01*
X123108651Y-98231860D01*
X123290973Y-98324757D01*
X123290976Y-98324758D01*
X123291055Y-98324783D01*
X123291092Y-98324796D01*
X123415050Y-98365072D01*
X123485578Y-98387988D01*
X123485590Y-98387991D01*
X123687688Y-98420000D01*
X123691067Y-98420000D01*
X123735348Y-98424989D01*
X123750560Y-98428461D01*
X123830353Y-98466887D01*
X123885572Y-98536129D01*
X123905279Y-98622472D01*
X123885572Y-98708814D01*
X123885569Y-98708820D01*
X123878798Y-98722879D01*
X123855092Y-98760606D01*
X123750870Y-98891296D01*
X123749766Y-98892649D01*
X123749528Y-98892977D01*
X123597135Y-99135509D01*
X123472825Y-99393642D01*
X123472825Y-99393643D01*
X123380279Y-99658127D01*
X123378219Y-99664014D01*
X123318317Y-99926463D01*
X123314472Y-99943311D01*
X123282400Y-100227967D01*
X123282400Y-100514431D01*
X123314472Y-100799091D01*
X123314541Y-100799472D01*
X123314925Y-100801077D01*
X123358098Y-100990234D01*
X123378218Y-101078381D01*
X123378220Y-101078390D01*
X123472360Y-101347426D01*
X123472367Y-101347445D01*
X123472859Y-101348854D01*
X123473472Y-101350101D01*
X123536813Y-101481630D01*
X123536812Y-101481630D01*
X123597131Y-101606882D01*
X123597134Y-101606888D01*
X123749528Y-101849421D01*
X123749756Y-101849735D01*
X123750814Y-101851033D01*
X123826017Y-101945333D01*
X123928143Y-102073395D01*
X124130705Y-102275957D01*
X124228430Y-102353891D01*
X124252128Y-102383607D01*
X124269651Y-102397577D01*
X124279387Y-102417789D01*
X124283648Y-102423131D01*
X124287077Y-102430647D01*
X124293108Y-102444627D01*
X124292452Y-102444909D01*
X124308088Y-102477365D01*
X124308100Y-102565928D01*
X124269684Y-102645726D01*
X124200450Y-102700954D01*
X124196753Y-102702735D01*
X124110413Y-102722454D01*
X122151275Y-102722454D01*
X122145297Y-102722364D01*
X122139308Y-102722184D01*
X122133331Y-102721914D01*
X121873435Y-102706256D01*
X121861514Y-102705177D01*
X121856319Y-102704549D01*
X121849661Y-102703744D01*
X121837831Y-102701951D01*
X121590530Y-102656827D01*
X121578838Y-102654328D01*
X121567249Y-102651485D01*
X121555704Y-102648282D01*
X121315609Y-102573805D01*
X121304285Y-102569915D01*
X121293109Y-102565696D01*
X121282048Y-102561136D01*
X121085685Y-102473188D01*
X121052630Y-102458383D01*
X121041856Y-102453162D01*
X121031256Y-102447626D01*
X121020838Y-102441781D01*
X120805391Y-102312225D01*
X120795361Y-102305775D01*
X120785491Y-102298999D01*
X120775847Y-102291943D01*
X120577524Y-102137479D01*
X120568308Y-102129845D01*
X120559331Y-102121942D01*
X120550589Y-102113767D01*
X120544079Y-102107301D01*
X120372241Y-101936621D01*
X120364019Y-101927948D01*
X120356064Y-101919033D01*
X120348378Y-101909882D01*
X120334406Y-101892191D01*
X120334404Y-101892189D01*
X120192566Y-101712594D01*
X120185447Y-101703003D01*
X120178594Y-101693162D01*
X120172077Y-101683177D01*
X120041057Y-101468594D01*
X120035151Y-101458233D01*
X120029554Y-101447690D01*
X120024263Y-101436956D01*
X119984047Y-101348769D01*
X119916192Y-101199972D01*
X119913808Y-101194528D01*
X119911497Y-101189026D01*
X119909271Y-101183496D01*
X119904906Y-101172165D01*
X119904904Y-101172161D01*
X119141170Y-99189490D01*
X118811734Y-98334265D01*
X118806977Y-98321909D01*
X118800360Y-98275989D01*
X118794342Y-98234301D01*
X118794349Y-98234276D01*
X118794346Y-98234251D01*
X118807858Y-98191434D01*
X118820974Y-98149836D01*
X118820991Y-98149817D01*
X118820999Y-98149793D01*
X118852650Y-98116122D01*
X118881616Y-98085292D01*
X118881639Y-98085283D01*
X118881657Y-98085264D01*
X118925351Y-98068441D01*
X118964257Y-98053451D01*
X118964291Y-98053448D01*
X118964306Y-98053443D01*
X118964335Y-98053445D01*
X118992853Y-98051409D01*
X119947623Y-98052256D01*
X119951496Y-94060256D01*
X119952223Y-93311079D01*
X126729500Y-93311079D01*
X126729500Y-93458920D01*
X126751506Y-93569552D01*
X126751507Y-93569555D01*
X126758342Y-93603913D01*
X126766869Y-93624498D01*
X126766869Y-93624499D01*
X126766870Y-93624500D01*
X126766870Y-93624502D01*
X126814911Y-93740485D01*
X126814916Y-93740496D01*
X126844962Y-93785463D01*
X126855706Y-93801542D01*
X126897049Y-93863416D01*
X127001584Y-93967951D01*
X127124505Y-94050084D01*
X127261087Y-94106658D01*
X127406082Y-94135500D01*
X127406083Y-94135500D01*
X127553917Y-94135500D01*
X127553918Y-94135500D01*
X127698913Y-94106658D01*
X127733135Y-94092482D01*
X127775945Y-94080148D01*
X127802135Y-94075698D01*
X127879743Y-94077874D01*
X127889789Y-94080167D01*
X127921657Y-94090325D01*
X127961087Y-94106658D01*
X128106082Y-94135500D01*
X128106083Y-94135500D01*
X128253917Y-94135500D01*
X128253918Y-94135500D01*
X128398913Y-94106658D01*
X128535495Y-94050084D01*
X128658416Y-93967951D01*
X128762951Y-93863416D01*
X128845084Y-93740495D01*
X128901658Y-93603913D01*
X128930500Y-93458918D01*
X128930500Y-93311082D01*
X128901658Y-93166087D01*
X128845084Y-93029505D01*
X128762951Y-92906584D01*
X128658416Y-92802049D01*
X128596542Y-92760706D01*
X128543742Y-92725426D01*
X128535496Y-92719916D01*
X128535494Y-92719915D01*
X128519504Y-92713292D01*
X128429791Y-92676132D01*
X128405429Y-92666041D01*
X128400156Y-92663634D01*
X128384882Y-92660028D01*
X128379686Y-92659517D01*
X128301813Y-92644027D01*
X128289918Y-92641661D01*
X128253918Y-92634500D01*
X128253917Y-92634500D01*
X128106078Y-92634500D01*
X128082136Y-92639261D01*
X128082137Y-92639262D01*
X127961092Y-92663339D01*
X127961088Y-92663341D01*
X127926862Y-92677517D01*
X127884042Y-92689852D01*
X127857859Y-92694300D01*
X127780242Y-92692120D01*
X127770206Y-92689829D01*
X127738354Y-92679678D01*
X127729801Y-92676136D01*
X127729802Y-92676133D01*
X127729787Y-92676130D01*
X127698918Y-92663344D01*
X127698916Y-92663343D01*
X127698913Y-92663342D01*
X127698910Y-92663341D01*
X127698907Y-92663340D01*
X127698904Y-92663339D01*
X127582599Y-92640204D01*
X127582599Y-92640203D01*
X127553920Y-92634500D01*
X127553918Y-92634500D01*
X127406082Y-92634500D01*
X127406081Y-92634500D01*
X127394081Y-92636887D01*
X127370079Y-92641661D01*
X127358185Y-92644027D01*
X127261095Y-92663339D01*
X127261091Y-92663340D01*
X127261089Y-92663341D01*
X127197140Y-92689829D01*
X127124504Y-92719915D01*
X127124499Y-92719918D01*
X127124415Y-92719975D01*
X127001584Y-92802048D01*
X127001576Y-92802055D01*
X126897055Y-92906576D01*
X126897048Y-92906584D01*
X126814918Y-93029500D01*
X126814912Y-93029510D01*
X126758342Y-93166085D01*
X126758340Y-93166089D01*
X126729500Y-93311079D01*
X119952223Y-93311079D01*
X119952233Y-93301113D01*
X119952612Y-92910255D01*
X119952671Y-92849306D01*
X119972462Y-92762983D01*
X120027747Y-92693795D01*
X120107577Y-92655447D01*
X120151671Y-92650500D01*
X122834307Y-92650500D01*
X122834309Y-92650500D01*
X122872736Y-92640203D01*
X122924673Y-92626286D01*
X122924673Y-92626287D01*
X122924677Y-92626285D01*
X122935202Y-92623464D01*
X122948887Y-92619799D01*
X123051614Y-92560489D01*
X123737466Y-91874636D01*
X123772291Y-91846863D01*
X123794795Y-91832723D01*
X123867331Y-91805036D01*
X123938283Y-91792980D01*
X123953710Y-91787641D01*
X124014744Y-91775501D01*
X124133127Y-91726465D01*
X124239669Y-91655276D01*
X124330276Y-91564669D01*
X124401465Y-91458127D01*
X124450501Y-91339744D01*
X124475500Y-91214069D01*
X124475500Y-91085931D01*
X124450501Y-90960256D01*
X124401465Y-90841873D01*
X124330276Y-90735331D01*
X124239669Y-90644724D01*
X124232777Y-90640119D01*
X124157037Y-90589511D01*
X124147209Y-90582944D01*
X124133129Y-90573536D01*
X124133125Y-90573534D01*
X124025248Y-90528850D01*
X124021264Y-90527199D01*
X124015989Y-90524792D01*
X124000712Y-90521185D01*
X123995518Y-90520674D01*
X123968706Y-90515340D01*
X123930582Y-90507757D01*
X123930581Y-90507756D01*
X123889071Y-90499500D01*
X123889069Y-90499500D01*
X123760931Y-90499500D01*
X123760930Y-90499500D01*
X123745328Y-90502603D01*
X123729725Y-90505707D01*
X123635260Y-90524497D01*
X123516873Y-90573534D01*
X123516857Y-90573543D01*
X123410368Y-90644697D01*
X123410330Y-90644724D01*
X123410323Y-90644730D01*
X123319730Y-90735323D01*
X123319724Y-90735330D01*
X123319697Y-90735368D01*
X123248543Y-90841857D01*
X123248534Y-90841873D01*
X123199497Y-90960259D01*
X123182725Y-91044576D01*
X123181560Y-91050031D01*
X123163601Y-91128718D01*
X123131882Y-91199600D01*
X123125920Y-91208002D01*
X123104342Y-91233554D01*
X122662537Y-91675359D01*
X122627697Y-91703144D01*
X122605209Y-91717274D01*
X122532683Y-91744961D01*
X122529882Y-91745437D01*
X122522527Y-91746686D01*
X122489187Y-91749500D01*
X113740691Y-91749500D01*
X113740688Y-91749500D01*
X113740685Y-91749501D01*
X113643656Y-91775500D01*
X113643647Y-91775503D01*
X113627682Y-91779780D01*
X113626218Y-91780158D01*
X113626109Y-91780202D01*
X113523387Y-91839508D01*
X112935411Y-92427484D01*
X112900572Y-92455268D01*
X112885429Y-92464783D01*
X112801835Y-92494034D01*
X112713829Y-92484118D01*
X112638841Y-92436999D01*
X112636345Y-92434503D01*
X112589243Y-92359506D01*
X112581913Y-92332641D01*
X112571659Y-92281089D01*
X112546626Y-92220654D01*
X112515084Y-92144505D01*
X112506262Y-92131302D01*
X112499004Y-92120439D01*
X112472455Y-92061046D01*
X112472039Y-92060255D01*
X112471946Y-92059906D01*
X112471735Y-92059434D01*
X112469157Y-92049407D01*
X112467973Y-92005996D01*
X112466413Y-91962570D01*
X112466414Y-91962566D01*
X112467587Y-91956417D01*
X112478433Y-91923548D01*
X112477389Y-91923176D01*
X112477394Y-91923162D01*
X112482935Y-91909904D01*
X112483785Y-91907330D01*
X112485495Y-91903780D01*
X112485505Y-91903757D01*
X112486326Y-91902052D01*
X112500164Y-91877823D01*
X112502291Y-91874640D01*
X112515084Y-91855495D01*
X112571658Y-91718913D01*
X112600500Y-91573918D01*
X112600500Y-91426082D01*
X112571658Y-91281087D01*
X112515084Y-91144505D01*
X112504854Y-91129195D01*
X112484406Y-91089612D01*
X112477013Y-91070247D01*
X112464634Y-90982572D01*
X112465176Y-90976137D01*
X112484170Y-90906533D01*
X112486331Y-90902045D01*
X112500160Y-90877829D01*
X112515084Y-90855495D01*
X112571658Y-90718913D01*
X112600500Y-90573918D01*
X112600500Y-90490453D01*
X112605489Y-90446172D01*
X112606825Y-90440321D01*
X112608961Y-90430959D01*
X112647387Y-90351167D01*
X112716629Y-90295948D01*
X112802972Y-90276241D01*
X112889312Y-90295947D01*
X112896522Y-90299419D01*
X112950896Y-90337999D01*
X113573385Y-90960488D01*
X113573389Y-90960491D01*
X113632682Y-90994724D01*
X113632683Y-90994724D01*
X113676114Y-91019799D01*
X113790691Y-91050500D01*
X121150704Y-91050500D01*
X121194981Y-91055488D01*
X121220875Y-91061398D01*
X121291751Y-91093112D01*
X121301811Y-91100250D01*
X121301811Y-91100249D01*
X121350426Y-91134744D01*
X121365121Y-91141885D01*
X121416873Y-91176465D01*
X121535256Y-91225501D01*
X121660931Y-91250500D01*
X121660932Y-91250500D01*
X121789068Y-91250500D01*
X121789069Y-91250500D01*
X121914744Y-91225501D01*
X122033127Y-91176465D01*
X122139669Y-91105276D01*
X122230276Y-91014669D01*
X122301465Y-90908127D01*
X122350501Y-90789744D01*
X122375500Y-90664069D01*
X122375500Y-90535931D01*
X122350501Y-90410256D01*
X122301465Y-90291873D01*
X122230276Y-90185331D01*
X122139669Y-90094724D01*
X122116648Y-90079342D01*
X122063128Y-90043581D01*
X122051317Y-90035689D01*
X122033129Y-90023536D01*
X122033125Y-90023534D01*
X121950049Y-89989123D01*
X121945102Y-89987074D01*
X121945094Y-89987070D01*
X121921260Y-89977197D01*
X121915991Y-89974792D01*
X121900712Y-89971185D01*
X121895518Y-89970674D01*
X121851429Y-89961904D01*
X121830582Y-89957757D01*
X121830581Y-89957756D01*
X121789071Y-89949500D01*
X121789069Y-89949500D01*
X121660931Y-89949500D01*
X121660930Y-89949500D01*
X121653897Y-89950899D01*
X121629725Y-89955707D01*
X121535260Y-89974497D01*
X121416873Y-90023534D01*
X121416868Y-90023537D01*
X121345419Y-90071278D01*
X121340737Y-90074312D01*
X121272368Y-90117272D01*
X121199844Y-90144960D01*
X121192549Y-90146200D01*
X121189693Y-90146685D01*
X121156345Y-90149500D01*
X120146326Y-90149500D01*
X120059983Y-90129793D01*
X119990742Y-90074574D01*
X119952315Y-89994782D01*
X119947326Y-89950309D01*
X119947676Y-89586082D01*
X126729500Y-89586082D01*
X126729500Y-89733918D01*
X126738337Y-89778342D01*
X126741133Y-89792402D01*
X126741134Y-89792408D01*
X126758340Y-89878908D01*
X126758342Y-89878913D01*
X126814912Y-90015488D01*
X126814915Y-90015494D01*
X126818988Y-90021590D01*
X126820289Y-90023537D01*
X126897049Y-90138416D01*
X127001584Y-90242951D01*
X127124505Y-90325084D01*
X127261087Y-90381658D01*
X127406082Y-90410500D01*
X127406083Y-90410500D01*
X127553917Y-90410500D01*
X127553918Y-90410500D01*
X127698913Y-90381658D01*
X127733135Y-90367482D01*
X127775945Y-90355148D01*
X127802135Y-90350698D01*
X127879743Y-90352874D01*
X127889789Y-90355167D01*
X127921657Y-90365325D01*
X127961087Y-90381658D01*
X128106082Y-90410500D01*
X128106083Y-90410500D01*
X128253917Y-90410500D01*
X128253918Y-90410500D01*
X128398913Y-90381658D01*
X128535495Y-90325084D01*
X128658416Y-90242951D01*
X128762951Y-90138416D01*
X128845084Y-90015495D01*
X128901658Y-89878913D01*
X128930500Y-89733918D01*
X128930500Y-89586082D01*
X128901658Y-89441087D01*
X128845084Y-89304505D01*
X128762951Y-89181584D01*
X128658416Y-89077049D01*
X128627055Y-89056094D01*
X128568516Y-89016979D01*
X128568511Y-89016976D01*
X128556253Y-89008786D01*
X128535497Y-88994917D01*
X128535494Y-88994915D01*
X128428265Y-88950500D01*
X128405431Y-88941042D01*
X128400158Y-88938635D01*
X128384882Y-88935028D01*
X128379686Y-88934517D01*
X128301813Y-88919027D01*
X128289918Y-88916661D01*
X128253918Y-88909500D01*
X128253917Y-88909500D01*
X128106078Y-88909500D01*
X128082136Y-88914261D01*
X128082137Y-88914262D01*
X127961092Y-88938339D01*
X127961088Y-88938341D01*
X127926862Y-88952517D01*
X127884042Y-88964852D01*
X127857859Y-88969300D01*
X127780248Y-88967122D01*
X127770215Y-88964832D01*
X127738362Y-88954681D01*
X127736418Y-88953876D01*
X127736402Y-88953869D01*
X127698925Y-88938346D01*
X127698904Y-88938339D01*
X127582599Y-88915204D01*
X127582599Y-88915203D01*
X127553920Y-88909500D01*
X127553918Y-88909500D01*
X127406082Y-88909500D01*
X127406081Y-88909500D01*
X127394081Y-88911887D01*
X127370079Y-88916661D01*
X127358185Y-88919027D01*
X127261095Y-88938339D01*
X127261091Y-88938340D01*
X127261089Y-88938341D01*
X127205426Y-88961397D01*
X127124504Y-88994915D01*
X127124499Y-88994918D01*
X127124415Y-88994975D01*
X127001584Y-89077048D01*
X127001576Y-89077055D01*
X126897055Y-89181576D01*
X126897048Y-89181584D01*
X126814918Y-89304500D01*
X126814912Y-89304510D01*
X126758342Y-89441085D01*
X126758341Y-89441088D01*
X126732146Y-89572773D01*
X126732147Y-89572774D01*
X126732146Y-89572781D01*
X126729500Y-89586082D01*
X119947676Y-89586082D01*
X119947686Y-89576114D01*
X119949374Y-87820440D01*
X119952283Y-84796854D01*
X119952282Y-84796854D01*
X119952282Y-84796853D01*
X118983706Y-84798047D01*
X118897339Y-84778446D01*
X118828030Y-84723313D01*
X118789505Y-84643568D01*
X118789396Y-84555004D01*
X118797597Y-84527945D01*
X118803958Y-84511363D01*
X118803957Y-84511361D01*
X118811929Y-84490579D01*
X118811996Y-84490311D01*
X118818896Y-84472280D01*
X118818904Y-84472267D01*
X118818907Y-84472252D01*
X119897497Y-81654694D01*
X119899684Y-81649228D01*
X119902068Y-81643525D01*
X119904418Y-81638136D01*
X120012257Y-81400735D01*
X120017518Y-81390023D01*
X120023125Y-81379424D01*
X120029033Y-81369028D01*
X120038048Y-81354220D01*
X120159937Y-81153999D01*
X120166448Y-81143994D01*
X120173287Y-81134149D01*
X120180403Y-81124537D01*
X120259983Y-81023531D01*
X120336209Y-80926783D01*
X120343865Y-80917646D01*
X120351840Y-80908689D01*
X120360029Y-80900033D01*
X120538481Y-80722428D01*
X120547196Y-80714261D01*
X120556184Y-80706333D01*
X120565379Y-80698703D01*
X120763880Y-80543831D01*
X120773512Y-80536773D01*
X120783357Y-80530004D01*
X120793398Y-80523537D01*
X121009068Y-80393644D01*
X121019488Y-80387788D01*
X121030102Y-80382238D01*
X121040833Y-80377031D01*
X121270534Y-80274003D01*
X121281596Y-80269437D01*
X121292767Y-80265214D01*
X121304082Y-80261320D01*
X121544513Y-80186641D01*
X121556032Y-80183440D01*
X121567670Y-80180581D01*
X121579365Y-80178080D01*
X121582091Y-80177582D01*
X121826985Y-80132841D01*
X121838786Y-80131050D01*
X121850724Y-80129606D01*
X121862586Y-80128531D01*
X122122395Y-80112863D01*
X122128647Y-80112586D01*
X122134969Y-80112405D01*
X122141229Y-80112324D01*
X124266264Y-80118744D01*
G37*
%TD.AperFunction*%
%TA.AperFunction,Conductor*%
G36*
X111502823Y-88955488D02*
G01*
X111528717Y-88961398D01*
X111599600Y-88993117D01*
X111608002Y-88999079D01*
X111633554Y-89020657D01*
X112006828Y-89393931D01*
X112034608Y-89428765D01*
X112042352Y-89441089D01*
X112042912Y-89441979D01*
X112072164Y-89525572D01*
X112062250Y-89613579D01*
X112015133Y-89688569D01*
X111940151Y-89735686D01*
X111932599Y-89738329D01*
X111866864Y-89749500D01*
X111776081Y-89749500D01*
X111764081Y-89751887D01*
X111740079Y-89756661D01*
X111728185Y-89759027D01*
X111631095Y-89778339D01*
X111631091Y-89778340D01*
X111631089Y-89778341D01*
X111597128Y-89792408D01*
X111494504Y-89834915D01*
X111494499Y-89834918D01*
X111494415Y-89834975D01*
X111376171Y-89913983D01*
X111376162Y-89913989D01*
X111371588Y-89917046D01*
X111371582Y-89917050D01*
X111370127Y-89918504D01*
X111362907Y-89923907D01*
X111361301Y-89924619D01*
X111349568Y-89933064D01*
X111330247Y-89945203D01*
X111246654Y-89974451D01*
X111158653Y-89964533D01*
X111151140Y-89961904D01*
X111087213Y-89921735D01*
X111085971Y-89923250D01*
X111078422Y-89917055D01*
X111078417Y-89917050D01*
X111078416Y-89917049D01*
X111007727Y-89869816D01*
X110956117Y-89835331D01*
X110955496Y-89834916D01*
X110955488Y-89834912D01*
X110842426Y-89788081D01*
X110842426Y-89788080D01*
X110836198Y-89785501D01*
X110836191Y-89785499D01*
X110818913Y-89778342D01*
X110818911Y-89778341D01*
X110818910Y-89778341D01*
X110791938Y-89772975D01*
X110791928Y-89772973D01*
X110721813Y-89759027D01*
X110709918Y-89756661D01*
X110673918Y-89749500D01*
X110673917Y-89749500D01*
X110526081Y-89749500D01*
X110514081Y-89751887D01*
X110490079Y-89756661D01*
X110478185Y-89759027D01*
X110381095Y-89778339D01*
X110381091Y-89778340D01*
X110381089Y-89778341D01*
X110347128Y-89792408D01*
X110244504Y-89834915D01*
X110244499Y-89834918D01*
X110244415Y-89834975D01*
X110121584Y-89917048D01*
X110121576Y-89917055D01*
X110017055Y-90021576D01*
X110017048Y-90021584D01*
X109934918Y-90144500D01*
X109934915Y-90144504D01*
X109918003Y-90185335D01*
X109879276Y-90278833D01*
X109878339Y-90281095D01*
X109851596Y-90415537D01*
X109851597Y-90415538D01*
X109849500Y-90426081D01*
X109849500Y-90573921D01*
X109851295Y-90582944D01*
X109851297Y-90582953D01*
X109852602Y-90589510D01*
X109868347Y-90668669D01*
X109878342Y-90718913D01*
X109901041Y-90773713D01*
X109934914Y-90855491D01*
X109934915Y-90855492D01*
X109934917Y-90855497D01*
X109945143Y-90870802D01*
X109965592Y-90910385D01*
X109972982Y-90929744D01*
X109985363Y-91017438D01*
X109985362Y-91017452D01*
X109984819Y-91023885D01*
X109965817Y-91093490D01*
X109963661Y-91097967D01*
X109949831Y-91122181D01*
X109934918Y-91144500D01*
X109934917Y-91144501D01*
X109878339Y-91281094D01*
X109849500Y-91426079D01*
X109849500Y-91573920D01*
X109868652Y-91670204D01*
X109878341Y-91718910D01*
X109878341Y-91718912D01*
X109892461Y-91752999D01*
X109902317Y-91776793D01*
X109934915Y-91855493D01*
X109953124Y-91882746D01*
X109959311Y-91895724D01*
X109960301Y-91900143D01*
X109965592Y-91910385D01*
X109972982Y-91929744D01*
X109985363Y-92017438D01*
X109985362Y-92017452D01*
X109984819Y-92023885D01*
X109965817Y-92093490D01*
X109963661Y-92097967D01*
X109949831Y-92122181D01*
X109934918Y-92144500D01*
X109934917Y-92144501D01*
X109878339Y-92281094D01*
X109849500Y-92426079D01*
X109849500Y-92573918D01*
X109878079Y-92717595D01*
X109878341Y-92718911D01*
X109878756Y-92719912D01*
X109878755Y-92719912D01*
X109878766Y-92719937D01*
X109934350Y-92854130D01*
X109934915Y-92855494D01*
X109934917Y-92855497D01*
X109969055Y-92906588D01*
X110017049Y-92978416D01*
X110121584Y-93082951D01*
X110244505Y-93165084D01*
X110381087Y-93221658D01*
X110526082Y-93250500D01*
X110526083Y-93250500D01*
X110673917Y-93250500D01*
X110673918Y-93250500D01*
X110818913Y-93221658D01*
X110955495Y-93165084D01*
X111078416Y-93082951D01*
X111078420Y-93082946D01*
X111080029Y-93081627D01*
X111100394Y-93066959D01*
X111119745Y-93054799D01*
X111203335Y-93025549D01*
X111291338Y-93035462D01*
X111298863Y-93038095D01*
X111362787Y-93078263D01*
X111364029Y-93076750D01*
X111371576Y-93082943D01*
X111371584Y-93082951D01*
X111494505Y-93165084D01*
X111535412Y-93182028D01*
X111622064Y-93217921D01*
X111622065Y-93217921D01*
X111631087Y-93221658D01*
X111631090Y-93221658D01*
X111631091Y-93221659D01*
X111669458Y-93229290D01*
X111711909Y-93242820D01*
X111727966Y-93250004D01*
X111798729Y-93303258D01*
X111839379Y-93381941D01*
X111841864Y-93470469D01*
X111810584Y-93544515D01*
X111803659Y-93554571D01*
X111780476Y-93582419D01*
X111362537Y-94000359D01*
X111327697Y-94028144D01*
X111305209Y-94042274D01*
X111232683Y-94069961D01*
X111229882Y-94070437D01*
X111222527Y-94071686D01*
X111189187Y-94074500D01*
X108950758Y-94074500D01*
X108864415Y-94054793D01*
X108826444Y-94030893D01*
X108803458Y-94012504D01*
X108480248Y-93753936D01*
X108478538Y-93752577D01*
X108466790Y-93746109D01*
X108456483Y-93735802D01*
X108456482Y-93735801D01*
X108381336Y-93699064D01*
X108376623Y-93696469D01*
X108376487Y-93696394D01*
X108376022Y-93696138D01*
X108371259Y-93694008D01*
X108365103Y-93691128D01*
X108351395Y-93684427D01*
X108351389Y-93684425D01*
X108283265Y-93674500D01*
X108283260Y-93674500D01*
X108232747Y-93674500D01*
X108229226Y-93674131D01*
X108227623Y-93674500D01*
X107216740Y-93674500D01*
X107216734Y-93674500D01*
X107148607Y-93684425D01*
X107043517Y-93735800D01*
X107043513Y-93735803D01*
X107043509Y-93735808D01*
X106982226Y-93797090D01*
X106956974Y-93818454D01*
X106926889Y-93839885D01*
X106896413Y-93865946D01*
X106810796Y-93888598D01*
X106723829Y-93871860D01*
X106652737Y-93819045D01*
X106629530Y-93785463D01*
X106628620Y-93783805D01*
X106606093Y-93716355D01*
X106605532Y-93712448D01*
X106603517Y-93685712D01*
X106603430Y-93674500D01*
X106603422Y-93673536D01*
X106603042Y-93624792D01*
X106600506Y-93300192D01*
X106600503Y-93299407D01*
X106600501Y-93298663D01*
X106600500Y-93298128D01*
X106600500Y-93199341D01*
X106585272Y-93112979D01*
X106577658Y-93069798D01*
X106565543Y-93001091D01*
X106496690Y-92811920D01*
X106443573Y-92719918D01*
X106440687Y-92714919D01*
X106422866Y-92674073D01*
X106416811Y-92654442D01*
X106410194Y-92566126D01*
X106440476Y-92486792D01*
X106449851Y-92472472D01*
X106475616Y-92440775D01*
X106520480Y-92395913D01*
X106520481Y-92395910D01*
X106520484Y-92395907D01*
X106520505Y-92395869D01*
X106522062Y-92393352D01*
X106522062Y-92393351D01*
X106528657Y-92382680D01*
X106530552Y-92378466D01*
X106573205Y-92304590D01*
X106573204Y-92304589D01*
X106573207Y-92304587D01*
X106600500Y-92202727D01*
X106600500Y-92097273D01*
X106600500Y-92097271D01*
X106573209Y-91995421D01*
X106573207Y-91995414D01*
X106573207Y-91995413D01*
X106573205Y-91995409D01*
X106520484Y-91904092D01*
X106520481Y-91904088D01*
X106458316Y-91841923D01*
X106430535Y-91807088D01*
X106420179Y-91790606D01*
X106390929Y-91707016D01*
X106400844Y-91619014D01*
X106403477Y-91611489D01*
X106450589Y-91536512D01*
X106639161Y-91347939D01*
X106658730Y-91330779D01*
X106673910Y-91319135D01*
X106673909Y-91319134D01*
X106700071Y-91299064D01*
X106721483Y-91272726D01*
X107060489Y-90933721D01*
X107060492Y-90933715D01*
X107068431Y-90923371D01*
X107069134Y-90923910D01*
X107085990Y-90901941D01*
X107091747Y-90895641D01*
X107093052Y-90894736D01*
X107097937Y-90889165D01*
X107252706Y-90734397D01*
X107258313Y-90729379D01*
X107262075Y-90725321D01*
X107266992Y-90715351D01*
X107319799Y-90623887D01*
X107329010Y-90589511D01*
X107350500Y-90509309D01*
X107350500Y-89521922D01*
X107355488Y-89477646D01*
X107359817Y-89458677D01*
X107398241Y-89378883D01*
X107467481Y-89323663D01*
X107467494Y-89323657D01*
X107474665Y-89320204D01*
X107561000Y-89300500D01*
X108283254Y-89300500D01*
X108283260Y-89300500D01*
X108351393Y-89290573D01*
X108380706Y-89276242D01*
X108398853Y-89270308D01*
X108403033Y-89268470D01*
X108445620Y-89244508D01*
X108456483Y-89239198D01*
X108456485Y-89239195D01*
X108456732Y-89239075D01*
X108461908Y-89235604D01*
X108463799Y-89234280D01*
X108463803Y-89234278D01*
X108805751Y-88994915D01*
X108817811Y-88986473D01*
X108899847Y-88953103D01*
X108931930Y-88950500D01*
X111458546Y-88950500D01*
X111502823Y-88955488D01*
G37*
%TD.AperFunction*%
%TA.AperFunction,Conductor*%
G36*
X112779809Y-80108970D02*
G01*
X112784212Y-80109076D01*
X112786027Y-80109120D01*
X112792194Y-80109364D01*
X113053488Y-80123789D01*
X113065431Y-80124810D01*
X113077424Y-80126203D01*
X113089281Y-80127945D01*
X113338388Y-80172300D01*
X113350122Y-80174758D01*
X113361855Y-80177589D01*
X113373408Y-80180750D01*
X113615290Y-80254850D01*
X113626667Y-80258716D01*
X113633000Y-80261083D01*
X113637941Y-80262930D01*
X113649071Y-80267479D01*
X113880225Y-80370244D01*
X113891057Y-80375458D01*
X113894063Y-80377018D01*
X113901716Y-80380991D01*
X113912233Y-80386861D01*
X113982200Y-80428743D01*
X114118526Y-80510348D01*
X114129270Y-80516779D01*
X114139419Y-80523280D01*
X114149352Y-80530075D01*
X114159065Y-80537159D01*
X114358827Y-80692341D01*
X114368069Y-80699980D01*
X114370803Y-80702382D01*
X114377132Y-80707944D01*
X114385927Y-80716159D01*
X114565463Y-80894302D01*
X114573735Y-80903021D01*
X114581771Y-80912023D01*
X114589499Y-80921226D01*
X114746227Y-81119772D01*
X114753402Y-81129451D01*
X114760268Y-81139325D01*
X114766832Y-81149400D01*
X114891612Y-81354220D01*
X114898421Y-81365395D01*
X114904376Y-81375871D01*
X114910005Y-81386511D01*
X114915309Y-81397317D01*
X115023582Y-81635844D01*
X115025982Y-81641350D01*
X115028309Y-81646917D01*
X115030554Y-81652526D01*
X115048999Y-81700716D01*
X115049473Y-81701857D01*
X115265654Y-82265684D01*
X116129285Y-84518138D01*
X116134426Y-84531545D01*
X116146936Y-84619220D01*
X116120167Y-84703641D01*
X116059419Y-84768087D01*
X115976726Y-84799793D01*
X115948862Y-84801788D01*
X114855265Y-84803137D01*
X114845183Y-89835335D01*
X114844951Y-89950899D01*
X114825070Y-90037202D01*
X114769713Y-90106333D01*
X114689844Y-90144599D01*
X114645951Y-90149500D01*
X114141454Y-90149500D01*
X114097173Y-90144511D01*
X114071279Y-90138601D01*
X114000399Y-90106882D01*
X113991997Y-90100920D01*
X113966445Y-90079342D01*
X112107857Y-88220754D01*
X112073997Y-88166867D01*
X112012988Y-88131644D01*
X112012989Y-88131644D01*
X112006313Y-88127790D01*
X111923887Y-88080201D01*
X111899673Y-88073713D01*
X111881909Y-88068953D01*
X111881907Y-88068952D01*
X111809309Y-88049500D01*
X108959915Y-88049500D01*
X108873572Y-88029793D01*
X108830930Y-88002038D01*
X108577770Y-87786549D01*
X108524797Y-87715580D01*
X108515486Y-87689927D01*
X108513291Y-87682281D01*
X108505869Y-87638358D01*
X108505833Y-87637707D01*
X108507646Y-87605913D01*
X108507558Y-87605909D01*
X108507721Y-87602847D01*
X108507854Y-87602256D01*
X108508371Y-87593208D01*
X108510119Y-87582976D01*
X108512147Y-87583322D01*
X108522588Y-87537271D01*
X108536905Y-87502707D01*
X108567816Y-87428082D01*
X108590922Y-87311920D01*
X108600500Y-87263770D01*
X108600500Y-87096229D01*
X108572465Y-86955290D01*
X108567816Y-86931918D01*
X108527570Y-86834757D01*
X108503705Y-86777140D01*
X108503704Y-86777139D01*
X108503703Y-86777137D01*
X108492820Y-86760848D01*
X108492815Y-86760842D01*
X108434921Y-86674198D01*
X108414467Y-86634605D01*
X108407079Y-86615250D01*
X108394698Y-86527569D01*
X108395241Y-86521133D01*
X108414243Y-86451515D01*
X108416397Y-86447042D01*
X108430230Y-86422822D01*
X108503703Y-86312863D01*
X108503706Y-86312856D01*
X108504349Y-86311306D01*
X108530865Y-86247289D01*
X108530865Y-86247286D01*
X108530868Y-86247281D01*
X108567816Y-86158082D01*
X108590128Y-86045911D01*
X108590129Y-86045908D01*
X108596384Y-86014462D01*
X108600500Y-85993770D01*
X108600500Y-85826229D01*
X108571942Y-85682661D01*
X108567816Y-85661918D01*
X108523976Y-85556079D01*
X110252139Y-85556079D01*
X110252139Y-85703919D01*
X110280979Y-85848909D01*
X110280982Y-85848917D01*
X110337553Y-85985493D01*
X110348441Y-86001788D01*
X110348443Y-86001791D01*
X110392241Y-86067338D01*
X110419688Y-86108416D01*
X110524223Y-86212951D01*
X110647144Y-86295084D01*
X110783726Y-86351658D01*
X110928721Y-86380500D01*
X111076556Y-86380500D01*
X111076557Y-86380500D01*
X111221552Y-86351658D01*
X111358134Y-86295084D01*
X111481055Y-86212951D01*
X111585590Y-86108416D01*
X111667723Y-85985495D01*
X111724297Y-85848913D01*
X111728087Y-85829856D01*
X111741940Y-85798895D01*
X111746314Y-85776906D01*
X111759795Y-85758991D01*
X111764258Y-85749017D01*
X111772970Y-85741482D01*
X111799566Y-85706141D01*
X111878248Y-85665489D01*
X111966776Y-85663001D01*
X112047617Y-85699171D01*
X112104758Y-85766835D01*
X112107952Y-85773017D01*
X112126331Y-85825539D01*
X112130979Y-85848907D01*
X112130982Y-85848917D01*
X112187553Y-85985493D01*
X112198441Y-86001788D01*
X112198443Y-86001791D01*
X112242241Y-86067338D01*
X112269688Y-86108416D01*
X112374223Y-86212951D01*
X112497144Y-86295084D01*
X112633726Y-86351658D01*
X112778721Y-86380500D01*
X112926556Y-86380500D01*
X112926557Y-86380500D01*
X113071552Y-86351658D01*
X113208134Y-86295084D01*
X113331055Y-86212951D01*
X113435590Y-86108416D01*
X113517723Y-85985495D01*
X113574297Y-85848913D01*
X113603139Y-85703918D01*
X113603139Y-85556082D01*
X113574297Y-85411087D01*
X113517723Y-85274505D01*
X113435590Y-85151584D01*
X113331055Y-85047049D01*
X113244762Y-84989390D01*
X113208135Y-84964916D01*
X113208127Y-84964912D01*
X113111552Y-84924910D01*
X113111551Y-84924910D01*
X113078078Y-84911045D01*
X113072798Y-84908635D01*
X113057521Y-84905028D01*
X113052325Y-84904517D01*
X112964105Y-84886969D01*
X112964103Y-84886968D01*
X112926557Y-84879500D01*
X112778721Y-84879500D01*
X112778720Y-84879500D01*
X112766720Y-84881887D01*
X112742718Y-84886661D01*
X112721156Y-84890949D01*
X112633734Y-84908339D01*
X112633730Y-84908340D01*
X112633728Y-84908341D01*
X112560044Y-84938861D01*
X112497143Y-84964915D01*
X112497138Y-84964918D01*
X112497054Y-84964975D01*
X112374223Y-85047048D01*
X112374215Y-85047055D01*
X112269694Y-85151576D01*
X112269687Y-85151584D01*
X112187557Y-85274500D01*
X112187551Y-85274510D01*
X112130982Y-85411082D01*
X112130979Y-85411089D01*
X112127189Y-85430147D01*
X112113333Y-85461110D01*
X112108958Y-85483104D01*
X112095475Y-85501018D01*
X112091015Y-85510986D01*
X112082302Y-85518520D01*
X112055702Y-85553865D01*
X111977017Y-85594513D01*
X111888489Y-85596994D01*
X111807650Y-85560819D01*
X111750513Y-85493152D01*
X111747320Y-85486971D01*
X111728947Y-85434463D01*
X111724297Y-85411087D01*
X111724296Y-85411085D01*
X111724295Y-85411082D01*
X111667723Y-85274505D01*
X111585590Y-85151584D01*
X111481055Y-85047049D01*
X111394762Y-84989390D01*
X111358135Y-84964916D01*
X111358127Y-84964912D01*
X111261552Y-84924910D01*
X111261551Y-84924910D01*
X111228078Y-84911045D01*
X111222798Y-84908635D01*
X111207521Y-84905028D01*
X111202325Y-84904517D01*
X111114105Y-84886969D01*
X111114103Y-84886968D01*
X111076557Y-84879500D01*
X110928721Y-84879500D01*
X110928720Y-84879500D01*
X110901695Y-84884875D01*
X110901690Y-84884876D01*
X110892718Y-84886661D01*
X110783728Y-84908341D01*
X110698644Y-84943583D01*
X110698640Y-84943585D01*
X110685790Y-84948907D01*
X110685789Y-84948908D01*
X110674890Y-84953423D01*
X110587578Y-84968260D01*
X110571663Y-84963675D01*
X110556126Y-85008086D01*
X110532941Y-85038174D01*
X110525329Y-85046309D01*
X110524223Y-85047049D01*
X110419688Y-85151584D01*
X110414318Y-85159619D01*
X110414317Y-85159621D01*
X110401816Y-85178328D01*
X110401811Y-85178335D01*
X110337613Y-85274414D01*
X110337614Y-85274415D01*
X110337557Y-85274499D01*
X110337551Y-85274510D01*
X110280982Y-85411082D01*
X110280979Y-85411089D01*
X110252139Y-85556079D01*
X108523976Y-85556079D01*
X108518867Y-85543745D01*
X108503705Y-85507140D01*
X108503702Y-85507135D01*
X108459938Y-85441638D01*
X108410626Y-85367838D01*
X108393810Y-85351022D01*
X108384639Y-85338417D01*
X108383069Y-85334751D01*
X108377054Y-85327208D01*
X108369175Y-85314669D01*
X108369138Y-85314610D01*
X108339893Y-85231015D01*
X108349814Y-85143009D01*
X108396937Y-85068023D01*
X108471929Y-85020909D01*
X108548800Y-85010059D01*
X108557235Y-85010533D01*
X108590346Y-85015209D01*
X108612123Y-85020180D01*
X108896788Y-85052254D01*
X108896789Y-85052254D01*
X109183253Y-85052254D01*
X109183254Y-85052254D01*
X109467919Y-85020180D01*
X109747203Y-84956436D01*
X110017593Y-84861822D01*
X110275690Y-84737529D01*
X110281741Y-84733727D01*
X110365333Y-84704472D01*
X110410246Y-84709530D01*
X110450343Y-84636975D01*
X110492855Y-84601075D01*
X110518248Y-84585120D01*
X110742216Y-84406511D01*
X110944778Y-84203949D01*
X111123387Y-83979981D01*
X111123389Y-83979976D01*
X111123392Y-83979974D01*
X111123396Y-83979967D01*
X111123666Y-83979629D01*
X111125165Y-83977151D01*
X111275790Y-83737433D01*
X111275790Y-83737432D01*
X111276583Y-83736170D01*
X111279639Y-83731306D01*
X111283070Y-83722318D01*
X111400089Y-83479326D01*
X111494703Y-83208936D01*
X111558447Y-82929652D01*
X111590521Y-82644987D01*
X111590521Y-82358521D01*
X111558447Y-82073856D01*
X111494703Y-81794572D01*
X111400089Y-81524182D01*
X111275796Y-81266085D01*
X111275792Y-81266080D01*
X111275790Y-81266074D01*
X111176015Y-81107282D01*
X111123391Y-81023531D01*
X111123159Y-81023211D01*
X111122085Y-81021894D01*
X110944778Y-80799559D01*
X110742215Y-80596996D01*
X110719473Y-80578860D01*
X110633563Y-80510348D01*
X110611369Y-80492649D01*
X110587667Y-80462927D01*
X110570143Y-80448955D01*
X110570141Y-80448952D01*
X110560407Y-80428743D01*
X110556152Y-80423408D01*
X110551714Y-80413513D01*
X110545861Y-80399446D01*
X110546222Y-80399295D01*
X110531709Y-80369165D01*
X110531701Y-80280601D01*
X110570121Y-80200805D01*
X110639354Y-80145583D01*
X110643237Y-80143712D01*
X110728120Y-80124004D01*
X112773643Y-80108918D01*
X112779809Y-80108970D01*
G37*
%TD.AperFunction*%
%TD*%
%TA.AperFunction,Conductor*%
%TO.N,Net-(U1-ISET)*%
G36*
X90357513Y-98862616D02*
G01*
X90487383Y-98992486D01*
X90490810Y-99000759D01*
X90489727Y-99005674D01*
X90281868Y-99454644D01*
X90275283Y-99460712D01*
X90266807Y-99460552D01*
X90003815Y-99352563D01*
X89997463Y-99346251D01*
X89997436Y-99346184D01*
X89889447Y-99083192D01*
X89889474Y-99074237D01*
X89895352Y-99068133D01*
X90344327Y-98860271D01*
X90353272Y-98859906D01*
X90357513Y-98862616D01*
G37*
%TD.AperFunction*%
%TD*%
%TA.AperFunction,Conductor*%
%TO.N,Net-(U1-ISET)*%
G36*
X91267833Y-94360488D02*
G01*
X91274145Y-94366840D01*
X91274305Y-94375316D01*
X91103815Y-94839765D01*
X91097748Y-94846350D01*
X91092832Y-94847433D01*
X90909168Y-94847433D01*
X90900895Y-94844006D01*
X90898185Y-94839765D01*
X90727694Y-94375316D01*
X90728060Y-94366368D01*
X90734164Y-94360489D01*
X90996490Y-94250883D01*
X91005444Y-94250857D01*
X91267833Y-94360488D01*
G37*
%TD.AperFunction*%
%TD*%
%TA.AperFunction,Conductor*%
%TO.N,/CC1*%
G36*
X85295353Y-90214563D02*
G01*
X85299651Y-90221421D01*
X85397043Y-90685899D01*
X85395387Y-90694699D01*
X85387993Y-90699751D01*
X85385592Y-90700000D01*
X85203001Y-90700000D01*
X85197370Y-90698556D01*
X84894374Y-90532203D01*
X84888771Y-90525217D01*
X84889189Y-90517484D01*
X84997410Y-90255274D01*
X85003733Y-90248936D01*
X85006728Y-90248136D01*
X85286712Y-90212217D01*
X85295353Y-90214563D01*
G37*
%TD.AperFunction*%
%TD*%
%TA.AperFunction,Conductor*%
%TO.N,/CC1*%
G36*
X85401303Y-92505994D02*
G01*
X85403918Y-92509984D01*
X85586678Y-92974533D01*
X85586518Y-92983486D01*
X85580301Y-92989612D01*
X85318220Y-93099115D01*
X85309265Y-93099142D01*
X85309198Y-93099115D01*
X85046636Y-92989411D01*
X85040324Y-92983059D01*
X85040072Y-92974844D01*
X85198299Y-92510492D01*
X85204211Y-92503768D01*
X85209374Y-92502567D01*
X85393030Y-92502567D01*
X85401303Y-92505994D01*
G37*
%TD.AperFunction*%
%TD*%
%TA.AperFunction,Conductor*%
%TO.N,/D+*%
G36*
X84706620Y-91154766D02*
G01*
X84948504Y-91255830D01*
X84964686Y-91262591D01*
X84968472Y-91265138D01*
X84969832Y-91266506D01*
X84973233Y-91274534D01*
X84973263Y-91276123D01*
X84972548Y-91280376D01*
X84803617Y-91740579D01*
X84801238Y-91744476D01*
X84799240Y-91746644D01*
X84793299Y-91750108D01*
X84793222Y-91750126D01*
X84790559Y-91750433D01*
X84610495Y-91750433D01*
X84606017Y-91749542D01*
X84603294Y-91748414D01*
X84597908Y-91743897D01*
X84597860Y-91743822D01*
X84596747Y-91741572D01*
X84427495Y-91280500D01*
X84426789Y-91275991D01*
X84426868Y-91274059D01*
X84430437Y-91266114D01*
X84431581Y-91265012D01*
X84435181Y-91262646D01*
X84693344Y-91154779D01*
X84697815Y-91153876D01*
X84702081Y-91153863D01*
X84706620Y-91154766D01*
G37*
%TD.AperFunction*%
%TD*%
%TA.AperFunction,Conductor*%
%TO.N,/D+*%
G36*
X84793980Y-91756456D02*
G01*
X84796704Y-91757585D01*
X84802092Y-91762103D01*
X84802136Y-91762172D01*
X84802565Y-91764598D01*
X84803210Y-91764362D01*
X84972502Y-92225497D01*
X84973209Y-92230008D01*
X84973130Y-92231938D01*
X84969557Y-92239886D01*
X84968414Y-92240987D01*
X84964808Y-92243356D01*
X84706657Y-92351218D01*
X84702179Y-92352122D01*
X84697916Y-92352134D01*
X84693372Y-92351230D01*
X84435312Y-92243407D01*
X84431526Y-92240860D01*
X84430166Y-92239492D01*
X84426765Y-92231464D01*
X84426735Y-92229873D01*
X84427449Y-92225625D01*
X84596385Y-91765412D01*
X84598757Y-91761527D01*
X84600763Y-91759350D01*
X84606957Y-91755833D01*
X84606997Y-91755825D01*
X84607040Y-91755816D01*
X84609443Y-91755567D01*
X84789505Y-91755567D01*
X84793980Y-91756456D01*
G37*
%TD.AperFunction*%
%TD*%
%TA.AperFunction,Conductor*%
%TO.N,BURN_CTRL_1*%
G36*
X108255460Y-87980243D02*
G01*
X108256131Y-87980500D01*
X108259534Y-87982517D01*
X108580859Y-88256027D01*
X108744112Y-88394988D01*
X108746942Y-88398564D01*
X108748717Y-88402034D01*
X108750000Y-88407360D01*
X108750000Y-88591580D01*
X108749109Y-88596058D01*
X108747751Y-88599336D01*
X108743651Y-88604443D01*
X108259938Y-88943041D01*
X108255758Y-88944879D01*
X108253441Y-88945392D01*
X108245517Y-88944351D01*
X108244649Y-88943899D01*
X108241785Y-88941802D01*
X107898634Y-88599336D01*
X107759153Y-88460133D01*
X107756613Y-88456339D01*
X107755930Y-88454694D01*
X107755923Y-88445740D01*
X107755923Y-88445739D01*
X107756545Y-88444234D01*
X107759302Y-88440219D01*
X108240686Y-87983242D01*
X108244538Y-87980810D01*
X108246547Y-87980038D01*
X108254912Y-87980034D01*
X108255460Y-87980243D01*
G37*
%TD.AperFunction*%
%TD*%
%TA.AperFunction,Conductor*%
%TO.N,Net-(Burn1-D)*%
G36*
X107362637Y-86882818D02*
G01*
X107363652Y-86883512D01*
X107746837Y-87176336D01*
X107751330Y-87184081D01*
X107751335Y-87184122D01*
X107813805Y-87664516D01*
X107811474Y-87673162D01*
X107804115Y-87677568D01*
X107018689Y-87807682D01*
X107009967Y-87805653D01*
X107008504Y-87804412D01*
X106877837Y-87673745D01*
X106874410Y-87665472D01*
X106876115Y-87659390D01*
X107346561Y-86886724D01*
X107353788Y-86881442D01*
X107362637Y-86882818D01*
G37*
%TD.AperFunction*%
%TD*%
%TA.AperFunction,Conductor*%
%TO.N,BURN_CTRL_2*%
G36*
X108258169Y-94031535D02*
G01*
X108745609Y-94421487D01*
X108749928Y-94429331D01*
X108750000Y-94430623D01*
X108750000Y-94619376D01*
X108746573Y-94627649D01*
X108745609Y-94628512D01*
X108258169Y-95018464D01*
X108249568Y-95020956D01*
X108242595Y-95017609D01*
X107849200Y-94625000D01*
X107757296Y-94533280D01*
X107753862Y-94525012D01*
X107757280Y-94516735D01*
X108242595Y-94032389D01*
X108250872Y-94028971D01*
X108258169Y-94031535D01*
G37*
%TD.AperFunction*%
%TD*%
M02*
