%TF.GenerationSoftware,KiCad,Pcbnew,10.0.0*%
%TF.CreationDate,2026-06-13T21:44:00-06:00*%
%TF.ProjectId,Burnwing,4275726e-7769-46e6-972e-6b696361645f,Rev 1*%
%TF.SameCoordinates,Original*%
%TF.FileFunction,Copper,L3,Inr*%
%TF.FilePolarity,Positive*%
%FSLAX46Y46*%
G04 Gerber Fmt 4.6, Leading zero omitted, Abs format (unit mm)*
G04 Created by KiCad (PCBNEW 10.0.0) date 2026-06-13 21:44:00*
%MOMM*%
%LPD*%
G01*
G04 APERTURE LIST*
%TA.AperFunction,ComponentPad*%
%ADD10C,4.400000*%
%TD*%
%TA.AperFunction,ComponentPad*%
%ADD11O,2.000000X1.000000*%
%TD*%
%TA.AperFunction,ComponentPad*%
%ADD12R,1.000000X1.000000*%
%TD*%
%TA.AperFunction,ComponentPad*%
%ADD13O,1.000000X1.000000*%
%TD*%
%TA.AperFunction,ComponentPad*%
%ADD14C,1.700000*%
%TD*%
%TA.AperFunction,ComponentPad*%
%ADD15O,1.700000X1.700000*%
%TD*%
%TA.AperFunction,ViaPad*%
%ADD16C,0.800000*%
%TD*%
%TA.AperFunction,ViaPad*%
%ADD17C,0.600000*%
%TD*%
G04 APERTURE END LIST*
D10*
%TO.N,Net-(H2-Pad1)*%
%TO.C,H2*%
X125840000Y-82589900D03*
%TD*%
%TO.N,Net-(H4-Pad1)*%
%TO.C,H4*%
X80094400Y-100371200D03*
%TD*%
D11*
%TO.N,GND*%
%TO.C,J2*%
X83090400Y-87183000D03*
X78910400Y-87183000D03*
X83090400Y-95823000D03*
X78910400Y-95823000D03*
%TD*%
D12*
%TO.N,BURN_CTRL_1*%
%TO.C,JP1*%
X107750000Y-88450000D03*
D13*
%TO.N,Net-(Burn1-D)*%
X107750000Y-87180000D03*
%TO.N,Net-(JP1-B)*%
X107750000Y-85910000D03*
%TD*%
D14*
%TO.N,MICRO_BURN_1*%
%TO.C,J1*%
X96510000Y-81350000D03*
D15*
%TO.N,MICRO_BURN_2*%
X99050000Y-81350000D03*
%TD*%
D10*
%TO.N,Net-(H3-Pad1)*%
%TO.C,H3*%
X109040021Y-82501754D03*
%TD*%
%TO.N,Net-(H6-Pad1)*%
%TO.C,H6*%
X125832900Y-100371200D03*
%TD*%
%TO.N,Net-(H1-Pad1)*%
%TO.C,H1*%
X80154400Y-82651200D03*
%TD*%
%TO.N,Net-(H5-Pad1)*%
%TO.C,H5*%
X109032921Y-100283054D03*
%TD*%
D12*
%TO.N,BURN_CTRL_2*%
%TO.C,JP2*%
X107750000Y-94525000D03*
D13*
%TO.N,Net-(Burn2-D)*%
X107750000Y-95795000D03*
%TO.N,Net-(JP2-B)*%
X107750000Y-97065000D03*
%TD*%
D16*
%TO.N,VDC*%
X110600000Y-90500000D03*
X127480000Y-93385000D03*
X111850000Y-90500000D03*
X128180000Y-89660000D03*
X99912431Y-98448990D03*
X93552431Y-98438990D03*
X111850000Y-92500000D03*
X90450000Y-85050000D03*
X92050000Y-87700000D03*
D17*
X101450000Y-84900000D03*
D16*
X110600000Y-91500000D03*
X127480000Y-89660000D03*
X98600000Y-87750000D03*
X111850000Y-91500000D03*
X110600000Y-92500000D03*
X92050000Y-85000000D03*
X128180000Y-93385000D03*
X87900000Y-85000000D03*
%TO.N,GND*%
X130330000Y-90885000D03*
D17*
X93800000Y-85000000D03*
X103400000Y-85800000D03*
X120649207Y-100920686D03*
D16*
X88225000Y-92725000D03*
X85900000Y-98897500D03*
X128180000Y-94685000D03*
X88889981Y-80598833D03*
D17*
X120649207Y-81970686D03*
X112300000Y-98500000D03*
D16*
X81850000Y-85700000D03*
X81750000Y-97340000D03*
X127480000Y-94685000D03*
X88240000Y-93520000D03*
X101482431Y-99298990D03*
D17*
X101550000Y-90550000D03*
X102400000Y-85800000D03*
X107450000Y-89511254D03*
X93700000Y-90300000D03*
D16*
X85900000Y-100147500D03*
X89000000Y-96750000D03*
X88240000Y-91910000D03*
D17*
X94950000Y-90300000D03*
X112000000Y-87725000D03*
D16*
X82830000Y-80830000D03*
X86983631Y-80596702D03*
X125930000Y-85735000D03*
X127480000Y-88385000D03*
X128180000Y-88385000D03*
X130330000Y-88385000D03*
D17*
X112050000Y-84300000D03*
D16*
X94982431Y-99298990D03*
X130330000Y-93385000D03*
D17*
X112050000Y-95300000D03*
D16*
X90990000Y-80610000D03*
X130330000Y-89685000D03*
D17*
X114750000Y-84025000D03*
X94000000Y-80600000D03*
D16*
X130330000Y-92185000D03*
X88190000Y-94680000D03*
X125980000Y-97335000D03*
X130330000Y-94685000D03*
D17*
X113900000Y-98500000D03*
X100150000Y-90550000D03*
%TO.N,Net-(U1-ISET)*%
X91001000Y-94250000D03*
X90000000Y-99350000D03*
%TO.N,/CC1*%
X85313709Y-93100000D03*
X85000000Y-90250000D03*
%TO.N,/D+*%
X84700000Y-91153000D03*
X84700000Y-92353000D03*
%TO.N,BURN_CTRL_1*%
X121725000Y-90600000D03*
%TO.N,Net-(Burn1-D)*%
X96750000Y-91500000D03*
%TO.N,BURN_CTRL_2*%
X123825000Y-91150000D03*
%TD*%
%TA.AperFunction,Conductor*%
%TO.N,GND*%
G36*
X112780934Y-80108924D02*
G01*
X112784881Y-80109019D01*
X112788636Y-80109168D01*
X113060308Y-80124165D01*
X113067720Y-80124799D01*
X113075220Y-80125671D01*
X113082610Y-80126758D01*
X113192655Y-80146352D01*
X113345063Y-80173489D01*
X113352394Y-80175025D01*
X113359691Y-80176785D01*
X113366921Y-80178762D01*
X113586831Y-80246131D01*
X113621798Y-80256843D01*
X113628896Y-80259254D01*
X113635924Y-80261882D01*
X113642843Y-80264711D01*
X113886469Y-80373020D01*
X113893179Y-80376250D01*
X113899292Y-80379423D01*
X113899843Y-80379709D01*
X113906388Y-80383362D01*
X113985615Y-80430787D01*
X114063281Y-80477278D01*
X114135124Y-80520283D01*
X114141434Y-80524325D01*
X114147631Y-80528564D01*
X114153656Y-80532957D01*
X114364196Y-80696510D01*
X114369960Y-80701275D01*
X114375600Y-80706231D01*
X114381083Y-80711351D01*
X114410992Y-80741028D01*
X114489493Y-80818921D01*
X114570304Y-80899105D01*
X114575469Y-80904550D01*
X114580452Y-80910132D01*
X114585273Y-80915873D01*
X114729106Y-81098083D01*
X114750448Y-81125118D01*
X114754909Y-81131136D01*
X114756066Y-81132799D01*
X114759188Y-81137288D01*
X114763278Y-81143565D01*
X114770524Y-81155460D01*
X114770526Y-81155465D01*
X114770527Y-81155465D01*
X114901972Y-81371227D01*
X114905674Y-81377738D01*
X114909169Y-81384342D01*
X114912483Y-81391090D01*
X115025009Y-81638985D01*
X115026501Y-81642410D01*
X115027917Y-81645797D01*
X115029318Y-81649296D01*
X115044405Y-81688709D01*
X115044508Y-81688909D01*
X116134518Y-84531787D01*
X116134543Y-84531852D01*
X116138672Y-84542640D01*
X116138682Y-84542692D01*
X116138691Y-84542689D01*
X116153908Y-84582443D01*
X116153908Y-84582445D01*
X116153915Y-84582461D01*
X116173383Y-84633344D01*
X116178954Y-84702991D01*
X116145986Y-84764594D01*
X116084947Y-84798594D01*
X116057723Y-84801654D01*
X114855265Y-84803136D01*
X114855265Y-84803137D01*
X114844155Y-90347604D01*
X114844156Y-90347604D01*
X114844156Y-90347605D01*
X119946939Y-90352121D01*
X119946939Y-90352120D01*
X119947675Y-89587525D01*
X126929500Y-89587525D01*
X126929500Y-89732475D01*
X126930888Y-89737654D01*
X126967013Y-89872477D01*
X126967016Y-89872485D01*
X126967017Y-89872488D01*
X126976849Y-89889517D01*
X127037631Y-89994795D01*
X127039489Y-89998013D01*
X127141985Y-90100509D01*
X127142674Y-90101005D01*
X127145178Y-90102353D01*
X127264069Y-90170995D01*
X127267087Y-90172869D01*
X127267514Y-90172983D01*
X127267515Y-90172984D01*
X127407525Y-90210500D01*
X127407528Y-90210500D01*
X127552472Y-90210500D01*
X127552475Y-90210500D01*
X127692485Y-90172984D01*
X127752565Y-90138295D01*
X127785326Y-90125180D01*
X127803615Y-90120744D01*
X127867779Y-90122272D01*
X127877774Y-90125207D01*
X127904836Y-90136796D01*
X127967515Y-90172984D01*
X128107525Y-90210500D01*
X128107528Y-90210500D01*
X128252472Y-90210500D01*
X128252475Y-90210500D01*
X128392485Y-90172984D01*
X128518015Y-90100509D01*
X128620509Y-89998015D01*
X128692984Y-89872485D01*
X128730500Y-89732475D01*
X128730500Y-89587525D01*
X128692984Y-89447515D01*
X128620509Y-89321985D01*
X128518015Y-89219491D01*
X128518013Y-89219489D01*
X128517321Y-89218990D01*
X128514802Y-89217635D01*
X128464243Y-89188445D01*
X128435808Y-89158624D01*
X128381007Y-89143939D01*
X128381007Y-89143940D01*
X128316740Y-89126720D01*
X128252475Y-89109500D01*
X128252474Y-89109500D01*
X128107525Y-89109500D01*
X127978994Y-89143939D01*
X127978993Y-89143940D01*
X127967511Y-89147017D01*
X127967508Y-89147018D01*
X127907435Y-89181701D01*
X127874672Y-89194817D01*
X127856392Y-89199252D01*
X127792233Y-89197729D01*
X127791647Y-89197557D01*
X127732865Y-89159788D01*
X127731848Y-89157563D01*
X127681007Y-89143939D01*
X127681007Y-89143940D01*
X127616740Y-89126720D01*
X127552475Y-89109500D01*
X127552474Y-89109500D01*
X127407525Y-89109500D01*
X127278994Y-89143939D01*
X127278993Y-89143940D01*
X127271338Y-89145991D01*
X127267510Y-89147017D01*
X127141991Y-89219485D01*
X127141984Y-89219490D01*
X127141968Y-89219505D01*
X127039505Y-89321968D01*
X127039490Y-89321984D01*
X127039485Y-89321992D01*
X126968287Y-89445308D01*
X126968286Y-89445312D01*
X126967017Y-89447511D01*
X126967016Y-89447515D01*
X126929500Y-89587525D01*
X119947675Y-89587525D01*
X119947683Y-89579279D01*
X119949454Y-87737852D01*
X119952283Y-84796854D01*
X119952282Y-84796854D01*
X118874497Y-84798182D01*
X118807433Y-84778580D01*
X118761613Y-84725832D01*
X118751584Y-84656686D01*
X118758553Y-84629815D01*
X118776006Y-84584272D01*
X118776082Y-84584128D01*
X118785483Y-84559566D01*
X118803173Y-84528068D01*
X118803512Y-84527628D01*
X118803823Y-84525764D01*
X118803975Y-84512152D01*
X118806639Y-84504373D01*
X118806706Y-84504196D01*
X118808911Y-84498447D01*
X118808954Y-84498277D01*
X118810214Y-84494962D01*
X118810230Y-84494939D01*
X118810327Y-84494665D01*
X119898722Y-81651491D01*
X119900080Y-81648100D01*
X119901553Y-81644577D01*
X119903008Y-81641238D01*
X120015070Y-81394543D01*
X120018330Y-81387907D01*
X120021847Y-81381259D01*
X120025500Y-81374832D01*
X120163459Y-81148214D01*
X120167505Y-81141995D01*
X120171780Y-81135840D01*
X120176186Y-81129888D01*
X120340404Y-80921458D01*
X120345152Y-80915792D01*
X120350141Y-80910189D01*
X120355225Y-80904814D01*
X120543304Y-80717627D01*
X120548713Y-80712559D01*
X120554308Y-80707625D01*
X120560027Y-80702879D01*
X120769219Y-80539666D01*
X120775209Y-80535276D01*
X120781351Y-80531054D01*
X120787581Y-80527040D01*
X121014896Y-80390134D01*
X121021341Y-80386512D01*
X121027963Y-80383049D01*
X121034634Y-80379811D01*
X121276745Y-80271217D01*
X121283615Y-80268383D01*
X121290606Y-80265741D01*
X121297634Y-80263324D01*
X121551000Y-80184626D01*
X121558139Y-80182643D01*
X121565417Y-80180855D01*
X121572678Y-80179301D01*
X121833669Y-80131621D01*
X121841000Y-80130508D01*
X121848431Y-80129608D01*
X121855822Y-80128939D01*
X122126030Y-80112644D01*
X122129815Y-80112475D01*
X122133815Y-80112361D01*
X122137617Y-80112312D01*
X125017293Y-80121014D01*
X125056323Y-80132602D01*
X125087131Y-80139931D01*
X125110903Y-80164640D01*
X125112638Y-80166187D01*
X125114105Y-80167969D01*
X125135572Y-80190282D01*
X125149102Y-80258829D01*
X125123424Y-80323809D01*
X125097990Y-80348278D01*
X125093861Y-80351246D01*
X125068939Y-80365121D01*
X124798166Y-80477278D01*
X124531332Y-80631336D01*
X124531316Y-80631347D01*
X124286891Y-80818900D01*
X124286876Y-80818914D01*
X124286868Y-80818921D01*
X124069021Y-81036768D01*
X124069014Y-81036776D01*
X124069000Y-81036791D01*
X123881447Y-81281216D01*
X123881436Y-81281232D01*
X123727378Y-81548066D01*
X123609462Y-81832741D01*
X123529716Y-82130358D01*
X123489503Y-82435814D01*
X123489500Y-82435838D01*
X123489500Y-82743960D01*
X123489503Y-82743984D01*
X123529716Y-83049440D01*
X123609462Y-83347057D01*
X123727377Y-83631729D01*
X123727386Y-83631746D01*
X123796141Y-83750832D01*
X123796178Y-83750895D01*
X123796376Y-83751238D01*
X123881438Y-83898570D01*
X123881440Y-83898573D01*
X123881441Y-83898574D01*
X123887336Y-83906257D01*
X123887337Y-83906258D01*
X124066319Y-84139512D01*
X124076775Y-84155571D01*
X124084981Y-84170599D01*
X124099833Y-84238871D01*
X124075416Y-84304336D01*
X124019483Y-84346208D01*
X124019456Y-84346218D01*
X124016553Y-84347300D01*
X123953848Y-84353581D01*
X123804961Y-84330000D01*
X123804956Y-84330000D01*
X123600322Y-84330000D01*
X123600317Y-84330000D01*
X123398226Y-84362008D01*
X123398224Y-84362008D01*
X123398221Y-84362009D01*
X123300914Y-84393626D01*
X123203602Y-84425245D01*
X123021279Y-84518145D01*
X122976716Y-84550522D01*
X122976716Y-84550523D01*
X122976716Y-84550524D01*
X123307927Y-84881735D01*
X123519694Y-85093501D01*
X123553179Y-85154824D01*
X123548195Y-85224515D01*
X123506324Y-85280449D01*
X123494013Y-85288569D01*
X123457036Y-85309917D01*
X123457031Y-85309921D01*
X123382560Y-85384392D01*
X123382556Y-85384397D01*
X123361209Y-85421373D01*
X123310643Y-85469588D01*
X123242036Y-85482812D01*
X123177171Y-85456844D01*
X123166141Y-85447054D01*
X122777640Y-85058553D01*
X122777639Y-85058553D01*
X122777638Y-85058553D01*
X122389137Y-85447054D01*
X122327814Y-85480539D01*
X122258122Y-85475555D01*
X122202189Y-85433683D01*
X122194069Y-85421373D01*
X122172721Y-85384397D01*
X122172717Y-85384392D01*
X122098246Y-85309921D01*
X122098245Y-85309920D01*
X122061264Y-85288569D01*
X122013049Y-85238003D01*
X121999825Y-85169396D01*
X122025793Y-85104531D01*
X122035575Y-85093509D01*
X122578561Y-84550524D01*
X122578560Y-84550523D01*
X122578559Y-84550522D01*
X122578558Y-84550521D01*
X122578553Y-84550517D01*
X122533999Y-84518147D01*
X122533996Y-84518144D01*
X122456816Y-84478819D01*
X122351670Y-84425244D01*
X122157056Y-84362009D01*
X122157050Y-84362008D01*
X121954961Y-84330000D01*
X121954956Y-84330000D01*
X121750322Y-84330000D01*
X121750317Y-84330000D01*
X121548226Y-84362008D01*
X121548224Y-84362008D01*
X121548221Y-84362009D01*
X121450914Y-84393626D01*
X121353602Y-84425245D01*
X121171279Y-84518145D01*
X121126716Y-84550522D01*
X121126716Y-84550523D01*
X121126716Y-84550524D01*
X121457927Y-84881735D01*
X121669694Y-85093501D01*
X121703179Y-85154824D01*
X121698195Y-85224515D01*
X121656324Y-85280449D01*
X121644013Y-85288569D01*
X121607036Y-85309917D01*
X121607031Y-85309921D01*
X121532560Y-85384392D01*
X121532554Y-85384400D01*
X121511207Y-85421374D01*
X121460640Y-85469589D01*
X121392032Y-85482811D01*
X121327168Y-85456843D01*
X121316140Y-85447054D01*
X120773163Y-84904077D01*
X120773162Y-84904077D01*
X120773161Y-84904077D01*
X120740784Y-84948640D01*
X120647884Y-85130963D01*
X120626781Y-85195912D01*
X120584648Y-85325582D01*
X120584647Y-85325585D01*
X120584647Y-85325587D01*
X120552639Y-85527676D01*
X120552639Y-85732322D01*
X120583901Y-85929702D01*
X120584648Y-85934417D01*
X120647883Y-86129031D01*
X120703225Y-86237644D01*
X120740783Y-86311357D01*
X120740786Y-86311360D01*
X120773156Y-86355914D01*
X120773160Y-86355919D01*
X120773162Y-86355921D01*
X120773163Y-86355922D01*
X121316142Y-85812942D01*
X121377463Y-85779459D01*
X121447154Y-85784443D01*
X121503088Y-85826314D01*
X121511206Y-85838622D01*
X121532559Y-85875606D01*
X121607033Y-85950080D01*
X121607034Y-85950081D01*
X121607036Y-85950082D01*
X121644012Y-85971430D01*
X121692227Y-86021996D01*
X121705451Y-86090603D01*
X121679483Y-86155468D01*
X121669693Y-86166498D01*
X121126714Y-86709473D01*
X121126715Y-86709473D01*
X121126715Y-86709474D01*
X121171289Y-86741859D01*
X121241835Y-86777804D01*
X121353602Y-86834753D01*
X121353604Y-86834753D01*
X121353607Y-86834755D01*
X121548221Y-86897990D01*
X121750322Y-86930000D01*
X121954955Y-86930000D01*
X121954956Y-86930000D01*
X122157056Y-86897990D01*
X122351670Y-86834755D01*
X122533988Y-86741859D01*
X122578560Y-86709474D01*
X122035584Y-86166498D01*
X122002099Y-86105175D01*
X122007083Y-86035483D01*
X122048955Y-85979550D01*
X122061257Y-85971434D01*
X122098245Y-85950080D01*
X122172719Y-85875606D01*
X122194069Y-85838625D01*
X122244633Y-85790411D01*
X122313240Y-85777186D01*
X122378105Y-85803153D01*
X122389137Y-85812944D01*
X122777639Y-86201446D01*
X122777640Y-86201446D01*
X123166142Y-85812943D01*
X123227463Y-85779460D01*
X123297154Y-85784444D01*
X123353088Y-85826315D01*
X123361208Y-85838626D01*
X123382556Y-85875602D01*
X123382558Y-85875604D01*
X123382559Y-85875606D01*
X123457033Y-85950080D01*
X123457034Y-85950081D01*
X123457036Y-85950082D01*
X123494012Y-85971430D01*
X123542227Y-86021996D01*
X123555451Y-86090603D01*
X123529483Y-86155468D01*
X123519693Y-86166498D01*
X122976714Y-86709473D01*
X122976715Y-86709473D01*
X122976715Y-86709474D01*
X123021289Y-86741859D01*
X123091835Y-86777804D01*
X123203602Y-86834753D01*
X123203604Y-86834753D01*
X123203607Y-86834755D01*
X123398221Y-86897990D01*
X123600322Y-86930000D01*
X123804955Y-86930000D01*
X123804956Y-86930000D01*
X124007056Y-86897990D01*
X124201670Y-86834755D01*
X124383988Y-86741859D01*
X124428560Y-86709474D01*
X123885584Y-86166498D01*
X123852099Y-86105175D01*
X123857083Y-86035483D01*
X123898955Y-85979550D01*
X123911257Y-85971434D01*
X123948245Y-85950080D01*
X124022719Y-85875606D01*
X124044069Y-85838625D01*
X124094633Y-85790411D01*
X124163240Y-85777186D01*
X124228105Y-85803153D01*
X124239135Y-85812942D01*
X124782113Y-86355921D01*
X124814498Y-86311349D01*
X124907394Y-86129031D01*
X124970629Y-85934417D01*
X125002639Y-85732317D01*
X125002639Y-85527682D01*
X124970629Y-85325582D01*
X124907394Y-85130968D01*
X124820596Y-84960618D01*
X124809213Y-84927216D01*
X124807125Y-84916099D01*
X124814096Y-84846577D01*
X124857547Y-84791862D01*
X124923678Y-84769324D01*
X124928680Y-84769109D01*
X124981436Y-84778433D01*
X125082836Y-84820435D01*
X125380456Y-84900182D01*
X125685940Y-84940400D01*
X125685947Y-84940400D01*
X125994053Y-84940400D01*
X125994060Y-84940400D01*
X126299544Y-84900182D01*
X126597164Y-84820435D01*
X126881830Y-84702522D01*
X127148670Y-84548462D01*
X127393117Y-84360891D01*
X127610991Y-84143017D01*
X127798562Y-83898570D01*
X127917226Y-83693037D01*
X127952622Y-83631731D01*
X127952623Y-83631727D01*
X128070535Y-83347064D01*
X128087367Y-83284244D01*
X128101256Y-83251809D01*
X128107146Y-83242145D01*
X128158844Y-83195150D01*
X128227746Y-83183563D01*
X128291973Y-83211066D01*
X128294062Y-83212791D01*
X128295736Y-83214174D01*
X128325949Y-83250990D01*
X128331722Y-83261711D01*
X128332991Y-83264134D01*
X128422509Y-83439780D01*
X128426253Y-83447126D01*
X128426445Y-83447503D01*
X128426955Y-83448194D01*
X128557870Y-83628343D01*
X128715991Y-83786433D01*
X128716459Y-83786817D01*
X128717884Y-83787807D01*
X128734691Y-83800016D01*
X128896889Y-83917836D01*
X128896891Y-83917837D01*
X128896894Y-83917839D01*
X128979404Y-83959870D01*
X129096120Y-84019326D01*
X129167730Y-84042586D01*
X129205547Y-84054870D01*
X129205549Y-84054870D01*
X129205566Y-84054876D01*
X129304878Y-84087134D01*
X129308181Y-84088330D01*
X129310808Y-84088791D01*
X129315508Y-84089696D01*
X129318401Y-84089923D01*
X129529615Y-84123357D01*
X129614754Y-84123349D01*
X129617836Y-84124476D01*
X129644582Y-84123346D01*
X129675761Y-84123344D01*
X129675761Y-84123343D01*
X129676010Y-84123343D01*
X129678566Y-84123343D01*
X129678567Y-84123342D01*
X129690422Y-84123342D01*
X129701225Y-84120954D01*
X130168266Y-84101234D01*
X130176268Y-84101156D01*
X130184270Y-84101336D01*
X130192248Y-84101773D01*
X130357476Y-84116218D01*
X130368171Y-84117626D01*
X130378810Y-84119501D01*
X130389334Y-84121833D01*
X130546454Y-84163921D01*
X130556735Y-84167161D01*
X130566896Y-84170858D01*
X130576871Y-84174990D01*
X130644135Y-84206349D01*
X130724277Y-84243712D01*
X130733863Y-84248700D01*
X130743210Y-84254096D01*
X130752322Y-84259900D01*
X130885557Y-84353174D01*
X130894143Y-84359761D01*
X130902385Y-84366676D01*
X130910357Y-84373980D01*
X131025373Y-84488972D01*
X131032678Y-84496942D01*
X131033732Y-84498198D01*
X131039606Y-84505197D01*
X131046191Y-84513776D01*
X131137990Y-84644846D01*
X131137994Y-84644852D01*
X131139487Y-84646984D01*
X131145299Y-84656105D01*
X131150697Y-84665453D01*
X131155690Y-84675043D01*
X131224436Y-84822426D01*
X131228563Y-84832386D01*
X131230430Y-84837512D01*
X131232258Y-84842533D01*
X131235510Y-84852843D01*
X131277624Y-85009933D01*
X131279967Y-85020500D01*
X131281838Y-85031106D01*
X131283251Y-85041824D01*
X131298159Y-85211957D01*
X131298511Y-85217329D01*
X131298749Y-85222765D01*
X131298867Y-85228141D01*
X131300129Y-97545657D01*
X131300129Y-97545661D01*
X131300131Y-97571904D01*
X131300013Y-97577311D01*
X131299778Y-97582704D01*
X131299425Y-97588099D01*
X131284563Y-97758207D01*
X131283155Y-97768912D01*
X131281280Y-97779557D01*
X131278942Y-97790109D01*
X131236868Y-97947202D01*
X131233617Y-97957518D01*
X131229930Y-97967652D01*
X131225791Y-97977648D01*
X131157084Y-98125034D01*
X131152088Y-98134634D01*
X131146689Y-98143987D01*
X131140879Y-98153108D01*
X131047627Y-98286315D01*
X131041041Y-98294900D01*
X131034102Y-98303171D01*
X131026796Y-98311145D01*
X130911829Y-98426135D01*
X130903861Y-98433438D01*
X130895592Y-98440379D01*
X130887003Y-98446972D01*
X130753807Y-98540255D01*
X130744683Y-98546069D01*
X130735337Y-98551466D01*
X130725743Y-98556461D01*
X130578373Y-98625197D01*
X130568391Y-98629334D01*
X130563815Y-98631000D01*
X130558247Y-98633027D01*
X130547929Y-98636282D01*
X130390856Y-98678383D01*
X130380294Y-98680726D01*
X130369659Y-98682602D01*
X130358936Y-98684014D01*
X130187893Y-98698993D01*
X130185054Y-98699209D01*
X130183193Y-98699329D01*
X130177880Y-98699557D01*
X130176299Y-98699591D01*
X130173640Y-98699620D01*
X130143600Y-98699621D01*
X130143593Y-98699622D01*
X130133622Y-98700959D01*
X130122377Y-98701949D01*
X129643607Y-98722164D01*
X129641006Y-98722246D01*
X129640241Y-98722262D01*
X129638436Y-98722300D01*
X129635841Y-98722328D01*
X129531122Y-98722336D01*
X129324032Y-98755154D01*
X129324017Y-98755157D01*
X129310276Y-98757335D01*
X129310274Y-98757335D01*
X129310273Y-98757336D01*
X129300347Y-98760561D01*
X129300343Y-98760563D01*
X129249757Y-98777005D01*
X129116315Y-98820376D01*
X129096428Y-98823526D01*
X129080137Y-98835364D01*
X128903241Y-98925517D01*
X128903231Y-98925522D01*
X128898418Y-98927976D01*
X128898414Y-98927978D01*
X128898410Y-98927981D01*
X128893811Y-98931322D01*
X128893798Y-98931331D01*
X128717545Y-99059414D01*
X128717543Y-99059415D01*
X128717543Y-99059416D01*
X128559450Y-99217539D01*
X128559447Y-99217542D01*
X128559445Y-99217545D01*
X128559444Y-99217545D01*
X128428053Y-99398428D01*
X128428051Y-99398430D01*
X128428045Y-99398441D01*
X128326558Y-99597671D01*
X128314825Y-99633797D01*
X128284488Y-99683254D01*
X128276558Y-99691169D01*
X128275988Y-99690598D01*
X128268993Y-99700827D01*
X128204632Y-99728019D01*
X128135787Y-99716098D01*
X128106654Y-99696174D01*
X128105106Y-99694753D01*
X128069185Y-99635497D01*
X128063435Y-99614036D01*
X127945522Y-99329370D01*
X127945520Y-99329367D01*
X127945518Y-99329362D01*
X127945515Y-99329357D01*
X127945402Y-99329084D01*
X127944612Y-99327660D01*
X127943532Y-99325922D01*
X127880955Y-99217536D01*
X127880954Y-99217535D01*
X127791467Y-99062537D01*
X127791451Y-99062516D01*
X127658692Y-98889501D01*
X127651015Y-98879496D01*
X127603898Y-98818091D01*
X127603894Y-98818087D01*
X127603892Y-98818084D01*
X127603886Y-98818077D01*
X127386022Y-98600213D01*
X127386015Y-98600207D01*
X127386012Y-98600204D01*
X127386007Y-98600200D01*
X127149162Y-98418463D01*
X127149159Y-98418461D01*
X127141574Y-98412641D01*
X127141573Y-98412640D01*
X127141570Y-98412638D01*
X127030769Y-98348667D01*
X127030289Y-98348390D01*
X127030257Y-98348371D01*
X126874732Y-98258578D01*
X126590057Y-98140662D01*
X126292440Y-98060916D01*
X125988838Y-98020947D01*
X125987157Y-98020700D01*
X125986966Y-98020700D01*
X125986960Y-98020700D01*
X125678840Y-98020700D01*
X125678834Y-98020700D01*
X125678832Y-98020700D01*
X125672712Y-98021453D01*
X125671806Y-98021625D01*
X125373358Y-98060916D01*
X125075741Y-98140662D01*
X124791070Y-98258577D01*
X124791067Y-98258579D01*
X124717500Y-98301052D01*
X124684739Y-98314168D01*
X124671715Y-98317328D01*
X124601924Y-98314005D01*
X124545009Y-98273479D01*
X124519891Y-98215494D01*
X124517726Y-98201278D01*
X123972944Y-97656497D01*
X123939460Y-97595175D01*
X123944444Y-97525484D01*
X123986315Y-97469550D01*
X123998618Y-97461434D01*
X124035606Y-97440080D01*
X124110080Y-97365606D01*
X124131430Y-97328625D01*
X124181995Y-97280411D01*
X124250602Y-97267187D01*
X124315467Y-97293154D01*
X124326498Y-97302945D01*
X124869473Y-97845920D01*
X124869474Y-97845921D01*
X124901859Y-97801349D01*
X124994755Y-97619031D01*
X125057990Y-97424417D01*
X125090000Y-97222317D01*
X125090000Y-97017682D01*
X125057990Y-96815582D01*
X124994755Y-96620968D01*
X124994753Y-96620965D01*
X124994753Y-96620963D01*
X124901859Y-96438650D01*
X124893156Y-96426672D01*
X124883615Y-96399933D01*
X124869473Y-96394075D01*
X124326497Y-96937053D01*
X124265174Y-96970538D01*
X124195483Y-96965554D01*
X124139549Y-96923683D01*
X124131430Y-96911374D01*
X124110080Y-96874394D01*
X124035606Y-96799920D01*
X123998625Y-96778569D01*
X123950410Y-96728003D01*
X123937186Y-96659396D01*
X123963154Y-96594531D01*
X123972936Y-96583509D01*
X124515922Y-96040524D01*
X124515921Y-96040523D01*
X124515920Y-96040522D01*
X124515919Y-96040521D01*
X124515914Y-96040517D01*
X124471360Y-96008147D01*
X124471357Y-96008144D01*
X124406198Y-95974944D01*
X124289031Y-95915244D01*
X124094417Y-95852009D01*
X124094411Y-95852008D01*
X123892322Y-95820000D01*
X123892317Y-95820000D01*
X123687683Y-95820000D01*
X123687678Y-95820000D01*
X123485587Y-95852008D01*
X123485585Y-95852008D01*
X123485582Y-95852009D01*
X123388275Y-95883626D01*
X123290963Y-95915245D01*
X123108640Y-96008145D01*
X123064077Y-96040522D01*
X123064077Y-96040523D01*
X123064077Y-96040524D01*
X123402208Y-96378655D01*
X123607055Y-96583501D01*
X123640540Y-96644824D01*
X123635556Y-96714515D01*
X123593685Y-96770449D01*
X123581374Y-96778569D01*
X123544397Y-96799917D01*
X123544392Y-96799921D01*
X123469921Y-96874392D01*
X123469917Y-96874397D01*
X123448570Y-96911373D01*
X123398004Y-96959588D01*
X123329397Y-96972812D01*
X123264532Y-96946844D01*
X123253502Y-96937054D01*
X122865001Y-96548553D01*
X122865000Y-96548553D01*
X122864999Y-96548553D01*
X122476498Y-96937054D01*
X122415175Y-96970539D01*
X122345483Y-96965555D01*
X122289550Y-96923683D01*
X122281430Y-96911373D01*
X122260082Y-96874397D01*
X122260078Y-96874392D01*
X122185607Y-96799921D01*
X122185606Y-96799920D01*
X122148625Y-96778569D01*
X122100410Y-96728003D01*
X122087186Y-96659396D01*
X122113154Y-96594531D01*
X122122936Y-96583509D01*
X122665922Y-96040524D01*
X122665921Y-96040523D01*
X122665920Y-96040522D01*
X122665919Y-96040521D01*
X122665914Y-96040517D01*
X122621360Y-96008147D01*
X122621357Y-96008144D01*
X122556198Y-95974944D01*
X122439031Y-95915244D01*
X122244417Y-95852009D01*
X122244411Y-95852008D01*
X122042322Y-95820000D01*
X122042317Y-95820000D01*
X121837683Y-95820000D01*
X121837678Y-95820000D01*
X121635587Y-95852008D01*
X121635585Y-95852008D01*
X121635582Y-95852009D01*
X121538275Y-95883626D01*
X121440963Y-95915245D01*
X121258640Y-96008145D01*
X121214077Y-96040522D01*
X121214077Y-96040523D01*
X121214077Y-96040524D01*
X121552208Y-96378655D01*
X121757055Y-96583501D01*
X121790540Y-96644824D01*
X121785556Y-96714515D01*
X121743685Y-96770449D01*
X121731374Y-96778569D01*
X121694397Y-96799917D01*
X121694392Y-96799921D01*
X121619921Y-96874392D01*
X121619915Y-96874400D01*
X121598568Y-96911374D01*
X121548001Y-96959589D01*
X121479393Y-96972811D01*
X121414529Y-96946843D01*
X121403501Y-96937054D01*
X120860524Y-96394077D01*
X120860523Y-96394077D01*
X120860522Y-96394077D01*
X120828145Y-96438640D01*
X120735245Y-96620963D01*
X120716228Y-96679493D01*
X120672009Y-96815582D01*
X120672008Y-96815585D01*
X120672008Y-96815587D01*
X120640000Y-97017676D01*
X120640000Y-97222322D01*
X120671524Y-97421354D01*
X120672009Y-97424417D01*
X120735244Y-97619031D01*
X120775111Y-97697273D01*
X120828144Y-97801357D01*
X120828147Y-97801360D01*
X120860517Y-97845914D01*
X120860521Y-97845919D01*
X120860523Y-97845921D01*
X120860524Y-97845922D01*
X121403503Y-97302942D01*
X121464824Y-97269459D01*
X121534515Y-97274443D01*
X121590449Y-97316314D01*
X121598567Y-97328622D01*
X121619920Y-97365606D01*
X121694394Y-97440080D01*
X121694395Y-97440081D01*
X121694397Y-97440082D01*
X121731373Y-97461430D01*
X121779588Y-97511996D01*
X121792812Y-97580603D01*
X121766844Y-97645468D01*
X121757054Y-97656498D01*
X121214075Y-98199473D01*
X121214076Y-98199473D01*
X121214076Y-98199474D01*
X121258650Y-98231859D01*
X121311085Y-98258576D01*
X121440963Y-98324753D01*
X121440965Y-98324753D01*
X121440968Y-98324755D01*
X121635582Y-98387990D01*
X121837683Y-98420000D01*
X122042316Y-98420000D01*
X122042317Y-98420000D01*
X122244417Y-98387990D01*
X122439031Y-98324755D01*
X122505762Y-98290754D01*
X122621347Y-98231860D01*
X122621346Y-98231860D01*
X122621349Y-98231859D01*
X122665921Y-98199474D01*
X122122945Y-97656498D01*
X122089460Y-97595175D01*
X122094444Y-97525483D01*
X122136316Y-97469550D01*
X122148618Y-97461434D01*
X122185606Y-97440080D01*
X122260080Y-97365606D01*
X122281430Y-97328625D01*
X122331994Y-97280411D01*
X122400601Y-97267186D01*
X122465466Y-97293153D01*
X122476498Y-97302944D01*
X122865000Y-97691446D01*
X122865001Y-97691446D01*
X123253503Y-97302943D01*
X123314824Y-97269460D01*
X123384515Y-97274444D01*
X123440449Y-97316315D01*
X123448569Y-97328626D01*
X123469917Y-97365602D01*
X123469919Y-97365604D01*
X123469920Y-97365606D01*
X123544394Y-97440080D01*
X123544395Y-97440081D01*
X123544397Y-97440082D01*
X123581373Y-97461430D01*
X123629588Y-97511996D01*
X123642812Y-97580603D01*
X123616844Y-97645468D01*
X123607054Y-97656498D01*
X123064075Y-98199473D01*
X123064076Y-98199473D01*
X123064076Y-98199474D01*
X123108650Y-98231859D01*
X123161085Y-98258576D01*
X123290963Y-98324753D01*
X123290965Y-98324753D01*
X123290968Y-98324755D01*
X123485582Y-98387990D01*
X123687683Y-98420000D01*
X123892316Y-98420000D01*
X123892317Y-98420000D01*
X124094417Y-98387990D01*
X124192339Y-98356171D01*
X124233323Y-98355000D01*
X124266569Y-98353142D01*
X124327364Y-98387577D01*
X124359890Y-98449414D01*
X124353821Y-98519020D01*
X124336426Y-98549730D01*
X124332939Y-98554240D01*
X124310329Y-98576768D01*
X124279777Y-98600211D01*
X124279775Y-98600213D01*
X124061921Y-98818068D01*
X124061914Y-98818076D01*
X124061900Y-98818091D01*
X123874347Y-99062516D01*
X123874336Y-99062532D01*
X123720278Y-99329366D01*
X123602362Y-99614041D01*
X123522616Y-99911658D01*
X123482403Y-100217114D01*
X123482400Y-100217138D01*
X123482400Y-100525260D01*
X123482403Y-100525284D01*
X123522616Y-100830740D01*
X123602362Y-101128357D01*
X123720277Y-101413029D01*
X123720286Y-101413046D01*
X123753937Y-101471330D01*
X123753939Y-101471333D01*
X123874334Y-101679864D01*
X123874336Y-101679867D01*
X123874555Y-101680196D01*
X123875558Y-101681460D01*
X124061900Y-101924307D01*
X124061904Y-101924312D01*
X124061907Y-101924315D01*
X124061913Y-101924322D01*
X124279777Y-102142186D01*
X124279784Y-102142192D01*
X124301419Y-102158793D01*
X124524230Y-102329762D01*
X124695730Y-102428778D01*
X124783034Y-102479183D01*
X124816308Y-102509709D01*
X124832234Y-102521190D01*
X124857825Y-102586204D01*
X124844204Y-102654734D01*
X124795696Y-102705020D01*
X124762854Y-102717947D01*
X124757868Y-102719126D01*
X124729334Y-102722454D01*
X122147890Y-102722454D01*
X122144146Y-102722397D01*
X122140438Y-102722285D01*
X122136725Y-102722118D01*
X121866672Y-102705849D01*
X121859239Y-102705175D01*
X121856296Y-102704819D01*
X121851844Y-102704281D01*
X121844484Y-102703165D01*
X121583882Y-102655614D01*
X121576598Y-102654057D01*
X121569354Y-102652280D01*
X121562158Y-102650284D01*
X121309142Y-102571799D01*
X121302085Y-102569375D01*
X121295129Y-102566749D01*
X121288238Y-102563908D01*
X121046456Y-102455618D01*
X121039745Y-102452366D01*
X121033142Y-102448918D01*
X121026637Y-102445268D01*
X121014103Y-102437731D01*
X120822795Y-102322690D01*
X120799605Y-102308745D01*
X120793349Y-102304723D01*
X120787195Y-102300498D01*
X120781189Y-102296104D01*
X120776967Y-102292815D01*
X120776967Y-102292816D01*
X120572178Y-102133317D01*
X120566433Y-102128558D01*
X120560839Y-102123633D01*
X120555396Y-102118542D01*
X120552595Y-102115760D01*
X120552593Y-102115758D01*
X120367453Y-101931865D01*
X120362323Y-101926454D01*
X120357360Y-101920893D01*
X120352563Y-101915181D01*
X120188371Y-101707283D01*
X120183943Y-101701316D01*
X120179670Y-101695182D01*
X120175608Y-101688958D01*
X120116238Y-101591724D01*
X120116237Y-101591723D01*
X120037526Y-101462811D01*
X120033856Y-101456371D01*
X120030344Y-101449755D01*
X120027063Y-101443096D01*
X119973153Y-101324880D01*
X119914819Y-101196963D01*
X119913336Y-101193578D01*
X119911886Y-101190128D01*
X119910509Y-101186711D01*
X119906236Y-101175619D01*
X119906233Y-101175611D01*
X119292817Y-99583169D01*
X118810073Y-98329955D01*
X118810068Y-98329929D01*
X118794417Y-98289308D01*
X118792654Y-98283603D01*
X118789241Y-98275872D01*
X118767677Y-98219860D01*
X118761963Y-98150227D01*
X118794803Y-98088556D01*
X118855771Y-98054429D01*
X118883500Y-98051312D01*
X119947623Y-98052256D01*
X119952221Y-93312525D01*
X126929500Y-93312525D01*
X126929500Y-93457475D01*
X126930888Y-93462654D01*
X126967013Y-93597477D01*
X126967017Y-93597488D01*
X126967018Y-93597489D01*
X127037631Y-93719795D01*
X127039489Y-93723013D01*
X127141985Y-93825509D01*
X127142674Y-93826005D01*
X127145178Y-93827353D01*
X127264069Y-93895995D01*
X127267087Y-93897869D01*
X127267514Y-93897983D01*
X127267515Y-93897984D01*
X127407525Y-93935500D01*
X127407528Y-93935500D01*
X127552472Y-93935500D01*
X127552475Y-93935500D01*
X127692485Y-93897984D01*
X127752565Y-93863295D01*
X127785326Y-93850180D01*
X127803615Y-93845744D01*
X127867779Y-93847272D01*
X127877774Y-93850207D01*
X127904836Y-93861796D01*
X127967515Y-93897984D01*
X128107525Y-93935500D01*
X128107528Y-93935500D01*
X128252472Y-93935500D01*
X128252475Y-93935500D01*
X128392485Y-93897984D01*
X128518015Y-93825509D01*
X128620509Y-93723015D01*
X128692984Y-93597485D01*
X128730500Y-93457475D01*
X128730500Y-93312525D01*
X128692984Y-93172515D01*
X128685359Y-93159309D01*
X128620511Y-93046988D01*
X128620506Y-93046982D01*
X128620493Y-93046968D01*
X128518030Y-92944505D01*
X128518014Y-92944490D01*
X128518006Y-92944485D01*
X128480323Y-92922729D01*
X128464242Y-92913444D01*
X128435808Y-92883624D01*
X128381007Y-92868939D01*
X128381007Y-92868940D01*
X128311090Y-92850206D01*
X128252475Y-92834500D01*
X128252474Y-92834500D01*
X128107525Y-92834500D01*
X127978994Y-92868939D01*
X127978993Y-92868940D01*
X127967511Y-92872017D01*
X127967508Y-92872018D01*
X127907435Y-92906701D01*
X127874672Y-92919817D01*
X127856392Y-92924252D01*
X127792233Y-92922729D01*
X127791647Y-92922557D01*
X127732865Y-92884788D01*
X127731848Y-92882563D01*
X127681007Y-92868939D01*
X127681007Y-92868940D01*
X127611090Y-92850206D01*
X127552475Y-92834500D01*
X127552474Y-92834500D01*
X127407525Y-92834500D01*
X127278994Y-92868939D01*
X127278993Y-92868940D01*
X127271338Y-92870991D01*
X127267510Y-92872017D01*
X127141991Y-92944485D01*
X127141984Y-92944490D01*
X127141968Y-92944505D01*
X127039505Y-93046968D01*
X127039490Y-93046984D01*
X127039485Y-93046992D01*
X126968287Y-93170308D01*
X126968286Y-93170312D01*
X126967017Y-93172511D01*
X126967016Y-93172515D01*
X126929500Y-93312525D01*
X119952221Y-93312525D01*
X119953061Y-92447038D01*
X119953060Y-92447038D01*
X114855676Y-92453319D01*
X114845005Y-97802725D01*
X114844516Y-98047736D01*
X116049129Y-98048802D01*
X116116148Y-98068546D01*
X116161856Y-98121390D01*
X116171738Y-98190558D01*
X116164862Y-98217024D01*
X116140287Y-98281402D01*
X116140286Y-98281407D01*
X116138849Y-98285171D01*
X116138839Y-98285196D01*
X116122543Y-98327851D01*
X116122542Y-98327859D01*
X115034683Y-101175833D01*
X115033302Y-101179292D01*
X115031869Y-101182730D01*
X115030387Y-101186141D01*
X114919116Y-101432060D01*
X114915846Y-101438745D01*
X114912378Y-101445327D01*
X114908713Y-101451803D01*
X114771703Y-101677827D01*
X114767654Y-101684076D01*
X114763424Y-101690193D01*
X114759012Y-101696180D01*
X114595913Y-101904179D01*
X114591155Y-101909886D01*
X114586229Y-101915447D01*
X114581123Y-101920875D01*
X114394283Y-102107854D01*
X114388866Y-102112958D01*
X114383295Y-102117901D01*
X114377584Y-102122670D01*
X114169715Y-102285913D01*
X114163722Y-102290335D01*
X114157612Y-102294566D01*
X114151375Y-102298614D01*
X113925437Y-102435800D01*
X113918961Y-102439471D01*
X113912396Y-102442936D01*
X113905717Y-102446209D01*
X113664964Y-102555357D01*
X113658096Y-102558225D01*
X113651166Y-102560878D01*
X113644140Y-102563329D01*
X113392045Y-102642861D01*
X113384875Y-102644888D01*
X113377683Y-102646690D01*
X113370424Y-102648279D01*
X113110643Y-102697046D01*
X113103283Y-102698200D01*
X113095902Y-102699131D01*
X113088502Y-102699840D01*
X112819265Y-102717505D01*
X112815498Y-102717695D01*
X112811710Y-102717828D01*
X112807932Y-102717903D01*
X109906048Y-102731308D01*
X109871085Y-102726445D01*
X109862549Y-102723981D01*
X109803599Y-102686476D01*
X109774283Y-102623054D01*
X109783910Y-102553851D01*
X109824188Y-102504429D01*
X109828391Y-102501384D01*
X109853682Y-102487245D01*
X109855759Y-102486385D01*
X110017623Y-102419339D01*
X110074742Y-102395680D01*
X110074745Y-102395678D01*
X110074751Y-102395676D01*
X110341591Y-102241616D01*
X110586038Y-102054045D01*
X110803912Y-101836171D01*
X110991483Y-101591724D01*
X111145543Y-101324884D01*
X111263456Y-101040218D01*
X111343203Y-100742598D01*
X111383421Y-100437114D01*
X111383421Y-100128994D01*
X111343203Y-99823510D01*
X111263456Y-99525890D01*
X111145543Y-99241224D01*
X111145541Y-99241221D01*
X111145539Y-99241216D01*
X111145535Y-99241210D01*
X111145422Y-99240936D01*
X111144635Y-99239518D01*
X111143553Y-99237776D01*
X111107951Y-99176112D01*
X111048642Y-99073387D01*
X110991483Y-98974384D01*
X110991482Y-98974382D01*
X110871546Y-98818079D01*
X110871543Y-98818076D01*
X110857165Y-98799338D01*
X110803913Y-98729938D01*
X110803907Y-98729931D01*
X110586043Y-98512067D01*
X110586036Y-98512061D01*
X110586033Y-98512058D01*
X110586028Y-98512054D01*
X110349196Y-98330327D01*
X110349193Y-98330325D01*
X110341595Y-98324495D01*
X110341594Y-98324494D01*
X110341591Y-98324492D01*
X110227426Y-98258579D01*
X110226917Y-98258285D01*
X110226854Y-98258248D01*
X110074767Y-98170440D01*
X110074750Y-98170431D01*
X109810360Y-98060917D01*
X109790083Y-98052518D01*
X109790082Y-98052517D01*
X109790078Y-98052516D01*
X109492461Y-97972770D01*
X109188859Y-97932801D01*
X109187178Y-97932554D01*
X109186987Y-97932554D01*
X109186981Y-97932554D01*
X108878861Y-97932554D01*
X108878855Y-97932554D01*
X108878853Y-97932554D01*
X108872733Y-97933307D01*
X108871827Y-97933479D01*
X108573379Y-97972770D01*
X108275762Y-98052516D01*
X107991087Y-98170432D01*
X107724253Y-98324490D01*
X107724237Y-98324501D01*
X107479812Y-98512054D01*
X107479797Y-98512068D01*
X107479789Y-98512075D01*
X107261942Y-98729922D01*
X107261935Y-98729930D01*
X107261921Y-98729945D01*
X107074368Y-98974370D01*
X107074357Y-98974386D01*
X106920299Y-99241220D01*
X106858382Y-99390701D01*
X106832812Y-99422430D01*
X106814229Y-99448191D01*
X106780289Y-99461537D01*
X106779015Y-99462149D01*
X106777881Y-99462484D01*
X106749206Y-99473761D01*
X106680682Y-99460117D01*
X106630411Y-99411592D01*
X106617498Y-99378755D01*
X106616317Y-99373757D01*
X106613000Y-99345267D01*
X106613000Y-98799341D01*
X106612983Y-98799173D01*
X106612764Y-98798010D01*
X106610824Y-98787007D01*
X106578043Y-98601091D01*
X106509190Y-98411920D01*
X106502699Y-98400677D01*
X106419559Y-98256672D01*
X106406444Y-98223915D01*
X106402758Y-98208722D01*
X106406080Y-98138937D01*
X106406685Y-98137191D01*
X106440443Y-98086025D01*
X106449027Y-98078222D01*
X106456948Y-98071604D01*
X106458410Y-98070482D01*
X106458410Y-98070481D01*
X106458413Y-98070480D01*
X106532980Y-97995913D01*
X106585707Y-97904587D01*
X106613000Y-97802727D01*
X106613000Y-97697273D01*
X106585707Y-97595413D01*
X106532980Y-97504087D01*
X106487468Y-97458575D01*
X106484517Y-97455522D01*
X106453613Y-97422426D01*
X106453734Y-97422270D01*
X106441043Y-97408964D01*
X106440607Y-97408497D01*
X106425184Y-97377798D01*
X106409483Y-97347354D01*
X106409547Y-97346674D01*
X106409241Y-97346064D01*
X106412852Y-97312010D01*
X106416112Y-97277807D01*
X106416717Y-97276296D01*
X106450635Y-97228657D01*
X106452924Y-97226674D01*
X106452923Y-97226673D01*
X106473306Y-97209011D01*
X106474892Y-97205119D01*
X106484214Y-97194678D01*
X106532980Y-97145913D01*
X106585707Y-97054587D01*
X106613000Y-96952727D01*
X106613000Y-96847273D01*
X106585707Y-96745413D01*
X106532980Y-96654087D01*
X106487468Y-96608575D01*
X106484517Y-96605522D01*
X106453613Y-96572426D01*
X106453734Y-96572270D01*
X106441043Y-96558964D01*
X106440607Y-96558497D01*
X106425184Y-96527798D01*
X106409483Y-96497354D01*
X106409547Y-96496674D01*
X106409241Y-96496064D01*
X106412852Y-96462010D01*
X106416112Y-96427807D01*
X106416717Y-96426296D01*
X106450635Y-96378657D01*
X106452924Y-96376674D01*
X106452923Y-96376673D01*
X106473306Y-96359011D01*
X106474892Y-96355119D01*
X106484214Y-96344678D01*
X106532980Y-96295913D01*
X106585707Y-96204587D01*
X106613000Y-96102727D01*
X106613000Y-95997273D01*
X106585707Y-95895413D01*
X106532980Y-95804087D01*
X106458413Y-95729520D01*
X106453738Y-95724845D01*
X106447789Y-95719502D01*
X106432938Y-95703924D01*
X106400927Y-95641821D01*
X106400923Y-95641799D01*
X106400580Y-95640017D01*
X106404233Y-95578822D01*
X106406590Y-95571449D01*
X106417312Y-95547217D01*
X106509190Y-95388080D01*
X106578043Y-95198909D01*
X106610757Y-95013374D01*
X107094237Y-95013374D01*
X107108229Y-95083709D01*
X107108232Y-95083721D01*
X107108768Y-95084668D01*
X107109094Y-95085010D01*
X107141496Y-95133504D01*
X107179225Y-95158714D01*
X107185505Y-95165313D01*
X107201613Y-95173736D01*
X107201613Y-95173737D01*
X107214310Y-95180377D01*
X107264594Y-95228886D01*
X107280669Y-95296882D01*
X107261764Y-95356350D01*
X107257190Y-95363611D01*
X107248130Y-95376178D01*
X107244724Y-95380327D01*
X107173534Y-95486870D01*
X107173529Y-95486880D01*
X107124502Y-95605245D01*
X107124495Y-95605265D01*
X107124493Y-95605273D01*
X107099500Y-95730923D01*
X107099500Y-95814702D01*
X107094237Y-95832622D01*
X107124494Y-95984726D01*
X107124495Y-95984732D01*
X107124502Y-95984753D01*
X107173529Y-96103118D01*
X107173534Y-96103128D01*
X107244724Y-96209670D01*
X107244725Y-96209671D01*
X107244730Y-96209677D01*
X107335325Y-96300272D01*
X107335328Y-96300274D01*
X107335331Y-96300276D01*
X107360352Y-96316994D01*
X107386606Y-96340578D01*
X107395508Y-96351230D01*
X107423391Y-96415295D01*
X107412212Y-96484265D01*
X107412210Y-96484267D01*
X107409949Y-96488992D01*
X107366988Y-96538569D01*
X107335350Y-96559708D01*
X107335336Y-96559718D01*
X107335322Y-96559729D01*
X107244730Y-96650321D01*
X107244725Y-96650327D01*
X107244724Y-96650328D01*
X107173534Y-96756870D01*
X107173529Y-96756880D01*
X107124502Y-96875245D01*
X107124495Y-96875265D01*
X107124493Y-96875273D01*
X107099500Y-97000923D01*
X107099500Y-97084702D01*
X107094237Y-97102622D01*
X107124494Y-97254726D01*
X107124495Y-97254732D01*
X107124502Y-97254753D01*
X107173529Y-97373118D01*
X107173534Y-97373128D01*
X107244724Y-97479670D01*
X107244725Y-97479671D01*
X107244730Y-97479677D01*
X107335321Y-97570268D01*
X107335327Y-97570273D01*
X107335331Y-97570276D01*
X107441866Y-97641461D01*
X107441872Y-97641464D01*
X107441873Y-97641465D01*
X107555362Y-97688473D01*
X107555947Y-97688724D01*
X107556141Y-97688884D01*
X107559055Y-97690262D01*
X107560260Y-97690501D01*
X107560261Y-97690502D01*
X107565002Y-97691445D01*
X107685926Y-97715500D01*
X107814071Y-97715500D01*
X107814072Y-97715500D01*
X107859885Y-97706386D01*
X107905700Y-97697273D01*
X107905701Y-97697273D01*
X107914267Y-97695568D01*
X107939744Y-97690501D01*
X108058127Y-97641465D01*
X108164669Y-97570276D01*
X108255276Y-97479669D01*
X108326465Y-97373127D01*
X108375501Y-97254744D01*
X108383682Y-97213615D01*
X108400500Y-97129071D01*
X108400500Y-97047525D01*
X110539500Y-97047525D01*
X110539500Y-97192475D01*
X110548664Y-97226674D01*
X110568446Y-97300500D01*
X110568445Y-97300500D01*
X110577015Y-97332483D01*
X110577018Y-97332490D01*
X110647631Y-97454795D01*
X110649489Y-97458013D01*
X110751985Y-97560509D01*
X110752674Y-97561005D01*
X110755178Y-97562353D01*
X110874069Y-97630995D01*
X110877087Y-97632869D01*
X110877514Y-97632983D01*
X110877515Y-97632984D01*
X111017525Y-97670500D01*
X111017528Y-97670500D01*
X111162472Y-97670500D01*
X111162475Y-97670500D01*
X111302485Y-97632984D01*
X111428015Y-97560509D01*
X111530509Y-97458015D01*
X111602984Y-97332485D01*
X111640500Y-97192475D01*
X111640500Y-97047525D01*
X112389500Y-97047525D01*
X112389500Y-97192475D01*
X112398664Y-97226674D01*
X112418446Y-97300500D01*
X112418445Y-97300500D01*
X112427015Y-97332483D01*
X112427018Y-97332490D01*
X112497631Y-97454795D01*
X112499489Y-97458013D01*
X112601985Y-97560509D01*
X112602674Y-97561005D01*
X112605178Y-97562353D01*
X112724069Y-97630995D01*
X112727087Y-97632869D01*
X112727514Y-97632983D01*
X112727515Y-97632984D01*
X112867525Y-97670500D01*
X112867528Y-97670500D01*
X113012472Y-97670500D01*
X113012475Y-97670500D01*
X113152485Y-97632984D01*
X113278015Y-97560509D01*
X113380509Y-97458015D01*
X113452984Y-97332485D01*
X113490500Y-97192475D01*
X113490500Y-97047525D01*
X113452984Y-96907515D01*
X113418204Y-96847275D01*
X113380511Y-96781988D01*
X113380506Y-96781982D01*
X113380493Y-96781968D01*
X113278030Y-96679505D01*
X113278014Y-96679490D01*
X113278011Y-96679488D01*
X113250388Y-96663540D01*
X113224240Y-96648443D01*
X113195808Y-96618625D01*
X113152488Y-96607017D01*
X113152489Y-96607017D01*
X113125372Y-96599751D01*
X113125372Y-96599750D01*
X113031411Y-96574574D01*
X113012475Y-96569500D01*
X113012474Y-96569500D01*
X112867525Y-96569500D01*
X112754627Y-96599751D01*
X112754626Y-96599750D01*
X112727510Y-96607017D01*
X112727507Y-96607018D01*
X112601992Y-96679485D01*
X112601984Y-96679490D01*
X112601968Y-96679505D01*
X112499505Y-96781968D01*
X112499490Y-96781984D01*
X112499485Y-96781992D01*
X112428287Y-96905308D01*
X112428286Y-96905312D01*
X112427017Y-96907511D01*
X112427016Y-96907515D01*
X112389500Y-97047525D01*
X111640500Y-97047525D01*
X111602984Y-96907515D01*
X111568204Y-96847275D01*
X111530511Y-96781988D01*
X111530506Y-96781982D01*
X111530493Y-96781968D01*
X111428030Y-96679505D01*
X111428014Y-96679490D01*
X111428011Y-96679488D01*
X111400388Y-96663540D01*
X111374240Y-96648443D01*
X111345808Y-96618625D01*
X111302488Y-96607017D01*
X111302489Y-96607017D01*
X111275372Y-96599751D01*
X111275372Y-96599750D01*
X111181411Y-96574574D01*
X111162475Y-96569500D01*
X111162474Y-96569500D01*
X111017525Y-96569500D01*
X110904627Y-96599751D01*
X110904626Y-96599750D01*
X110877510Y-96607017D01*
X110877507Y-96607018D01*
X110751992Y-96679485D01*
X110751984Y-96679490D01*
X110751968Y-96679505D01*
X110649505Y-96781968D01*
X110649490Y-96781984D01*
X110649485Y-96781992D01*
X110578287Y-96905308D01*
X110578286Y-96905312D01*
X110577017Y-96907511D01*
X110577016Y-96907515D01*
X110539500Y-97047525D01*
X108400500Y-97047525D01*
X108400500Y-97000928D01*
X108400500Y-97000925D01*
X108375295Y-96874220D01*
X108373724Y-96870947D01*
X108373473Y-96870362D01*
X108326465Y-96756873D01*
X108326464Y-96756872D01*
X108326461Y-96756866D01*
X108255276Y-96650331D01*
X108255273Y-96650327D01*
X108164671Y-96559725D01*
X108147950Y-96548553D01*
X108139646Y-96543004D01*
X108113395Y-96519424D01*
X108104495Y-96508775D01*
X108076608Y-96444712D01*
X108087783Y-96375742D01*
X108087788Y-96375732D01*
X108090049Y-96371007D01*
X108133011Y-96321429D01*
X108164669Y-96300276D01*
X108255276Y-96209669D01*
X108326465Y-96103127D01*
X108375501Y-95984744D01*
X108384641Y-95938796D01*
X108393271Y-95895412D01*
X108393271Y-95895410D01*
X108400500Y-95859071D01*
X108400500Y-95730925D01*
X108375295Y-95604220D01*
X108373724Y-95600947D01*
X108373473Y-95600362D01*
X108326465Y-95486873D01*
X108326464Y-95486872D01*
X108326461Y-95486866D01*
X108255276Y-95380331D01*
X108255273Y-95380327D01*
X108255266Y-95380316D01*
X108252631Y-95376803D01*
X108253068Y-95376475D01*
X108242470Y-95361221D01*
X108234979Y-95347503D01*
X108220130Y-95279231D01*
X108244549Y-95213767D01*
X108293316Y-95174828D01*
X108297978Y-95172750D01*
X108297977Y-95172749D01*
X108320144Y-95162866D01*
X108326167Y-95155183D01*
X108329339Y-95152991D01*
X108358504Y-95133504D01*
X108391767Y-95083722D01*
X108399221Y-95046251D01*
X108399222Y-95046249D01*
X108400499Y-95039825D01*
X108400500Y-95039822D01*
X108400500Y-94010176D01*
X108394150Y-93978257D01*
X108394150Y-93978256D01*
X108393181Y-93973387D01*
X108391768Y-93966282D01*
X108391767Y-93966281D01*
X108391767Y-93966278D01*
X108358504Y-93916496D01*
X108318118Y-93889511D01*
X108308724Y-93883234D01*
X108308717Y-93883231D01*
X108308715Y-93883230D01*
X108264826Y-93874500D01*
X108264822Y-93874500D01*
X108264820Y-93874500D01*
X107235180Y-93874500D01*
X107235178Y-93874500D01*
X107235174Y-93874500D01*
X107191283Y-93883230D01*
X107191281Y-93883230D01*
X107191270Y-93883236D01*
X107141497Y-93916493D01*
X107141493Y-93916497D01*
X107108236Y-93966270D01*
X107108230Y-93966281D01*
X107108230Y-93966283D01*
X107099500Y-94010172D01*
X107099500Y-94995453D01*
X107094237Y-95013374D01*
X106610757Y-95013374D01*
X106613000Y-95000656D01*
X106613000Y-94941620D01*
X106613009Y-94941586D01*
X106613305Y-94938464D01*
X106613004Y-94899958D01*
X106613000Y-94898988D01*
X106613000Y-94854205D01*
X106612790Y-94850608D01*
X106612971Y-94850597D01*
X106612567Y-94844217D01*
X106600504Y-93299866D01*
X106600501Y-93299061D01*
X106600500Y-93298627D01*
X106600500Y-93199341D01*
X106600482Y-93199166D01*
X106600253Y-93197946D01*
X106595768Y-93172511D01*
X106595768Y-93172510D01*
X106565543Y-93001091D01*
X106543673Y-92941005D01*
X106496690Y-92811920D01*
X106496682Y-92811906D01*
X106407059Y-92656672D01*
X106393944Y-92623915D01*
X106390258Y-92608722D01*
X106393580Y-92538937D01*
X106394185Y-92537191D01*
X106427943Y-92486025D01*
X106436527Y-92478222D01*
X106444448Y-92471604D01*
X106445910Y-92470482D01*
X106445910Y-92470481D01*
X106445913Y-92470480D01*
X106520480Y-92395913D01*
X106573207Y-92304587D01*
X106600500Y-92202727D01*
X106600500Y-92097273D01*
X106573207Y-91995413D01*
X106520480Y-91904087D01*
X106445913Y-91829520D01*
X106379059Y-91790922D01*
X106354589Y-91776794D01*
X106354588Y-91776793D01*
X106354587Y-91776793D01*
X106252727Y-91749500D01*
X106252726Y-91749500D01*
X106147273Y-91749500D01*
X106045413Y-91776792D01*
X106045408Y-91776795D01*
X105954088Y-91829518D01*
X105954082Y-91829523D01*
X105879523Y-91904082D01*
X105879517Y-91904091D01*
X105839817Y-91972851D01*
X105839813Y-91972859D01*
X105826794Y-91995410D01*
X105826793Y-91995411D01*
X105818501Y-92026358D01*
X105816810Y-92032668D01*
X105816807Y-92032677D01*
X105808931Y-92062071D01*
X105795039Y-92094512D01*
X105786905Y-92107857D01*
X105735205Y-92154856D01*
X105735202Y-92154858D01*
X105730994Y-92156902D01*
X105676358Y-92169363D01*
X105673646Y-92169353D01*
X105652571Y-92167470D01*
X105651805Y-92167335D01*
X105621504Y-92161992D01*
X105550660Y-92149500D01*
X105550658Y-92149500D01*
X105550656Y-92149500D01*
X105349344Y-92149500D01*
X105349341Y-92149500D01*
X105349338Y-92149500D01*
X105254545Y-92166215D01*
X105219268Y-92167334D01*
X105207782Y-92166054D01*
X105203730Y-92165602D01*
X105139286Y-92138606D01*
X105139277Y-92138598D01*
X105135648Y-92135649D01*
X105101256Y-92091369D01*
X105100120Y-92088907D01*
X105092937Y-92069048D01*
X105092822Y-92068620D01*
X105073207Y-91995413D01*
X105020480Y-91904087D01*
X104945913Y-91829520D01*
X104879059Y-91790922D01*
X104854589Y-91776794D01*
X104854588Y-91776793D01*
X104854587Y-91776793D01*
X104752727Y-91749500D01*
X104752726Y-91749500D01*
X104647273Y-91749500D01*
X104545413Y-91776792D01*
X104545408Y-91776795D01*
X104454088Y-91829518D01*
X104454082Y-91829523D01*
X104379523Y-91904082D01*
X104379519Y-91904088D01*
X104326793Y-91995411D01*
X104309940Y-92058309D01*
X104299500Y-92097273D01*
X104299500Y-92202727D01*
X104326793Y-92304587D01*
X104379520Y-92395913D01*
X104428799Y-92445192D01*
X104458777Y-92475170D01*
X104464701Y-92480491D01*
X104469977Y-92486023D01*
X104479555Y-92496068D01*
X104511571Y-92558170D01*
X104511575Y-92558190D01*
X104511917Y-92559966D01*
X104508266Y-92621171D01*
X104505911Y-92628538D01*
X104495211Y-92652738D01*
X104493285Y-92656077D01*
X104493260Y-92656120D01*
X104403316Y-92811906D01*
X104403314Y-92811911D01*
X104403307Y-92811927D01*
X104334454Y-93001096D01*
X104299500Y-93199338D01*
X104299500Y-93199341D01*
X104299500Y-93199344D01*
X104299500Y-93270675D01*
X104299271Y-93271241D01*
X104299500Y-93300554D01*
X104299500Y-93345772D01*
X104299708Y-93349352D01*
X104299543Y-93349361D01*
X104299930Y-93355725D01*
X104311993Y-94899829D01*
X104311995Y-94900148D01*
X104311998Y-94900720D01*
X104312000Y-94901370D01*
X104312000Y-95000660D01*
X104346954Y-95198902D01*
X104346955Y-95198907D01*
X104346956Y-95198908D01*
X104415809Y-95388077D01*
X104415812Y-95388084D01*
X104447195Y-95442441D01*
X104505416Y-95543284D01*
X104505438Y-95543321D01*
X104518555Y-95576087D01*
X104520218Y-95582940D01*
X104522241Y-95591279D01*
X104518920Y-95661052D01*
X104518327Y-95662766D01*
X104484559Y-95713971D01*
X104476002Y-95721751D01*
X104468116Y-95728344D01*
X104466592Y-95729514D01*
X104459967Y-95736139D01*
X104459966Y-95736138D01*
X104441300Y-95754805D01*
X104392024Y-95804081D01*
X104392018Y-95804088D01*
X104358297Y-95862496D01*
X104339294Y-95895410D01*
X104339293Y-95895413D01*
X104333979Y-95915245D01*
X104312000Y-95997273D01*
X104312000Y-96102728D01*
X104332410Y-96178902D01*
X104332412Y-96178905D01*
X104339293Y-96204585D01*
X104339293Y-96204586D01*
X104339294Y-96204589D01*
X104392021Y-96295914D01*
X104446254Y-96350147D01*
X104449208Y-96354590D01*
X104483506Y-96390565D01*
X104515519Y-96452669D01*
X104508884Y-96522195D01*
X104508279Y-96523707D01*
X104474355Y-96571354D01*
X104451684Y-96590998D01*
X104450103Y-96594882D01*
X104440764Y-96605341D01*
X104392024Y-96654081D01*
X104392018Y-96654088D01*
X104339295Y-96745408D01*
X104339292Y-96745413D01*
X104323566Y-96804107D01*
X104312000Y-96847273D01*
X104312000Y-96952727D01*
X104337402Y-97047527D01*
X104339293Y-97054586D01*
X104339294Y-97054589D01*
X104382297Y-97129072D01*
X104392018Y-97145910D01*
X104392020Y-97145912D01*
X104392020Y-97145913D01*
X104392023Y-97145916D01*
X104437514Y-97191407D01*
X104440465Y-97194460D01*
X104471384Y-97227572D01*
X104471267Y-97227726D01*
X104483919Y-97240996D01*
X104484390Y-97241501D01*
X104499812Y-97272199D01*
X104515519Y-97302669D01*
X104515455Y-97303335D01*
X104515756Y-97303934D01*
X104512181Y-97337644D01*
X104508884Y-97372195D01*
X104508279Y-97373707D01*
X104474355Y-97421354D01*
X104451684Y-97440998D01*
X104450103Y-97444882D01*
X104440764Y-97455341D01*
X104392024Y-97504081D01*
X104392019Y-97504088D01*
X104339293Y-97595411D01*
X104313814Y-97690502D01*
X104312000Y-97697273D01*
X104312000Y-97802727D01*
X104339293Y-97904587D01*
X104392020Y-97995913D01*
X104441299Y-98045192D01*
X104471277Y-98075170D01*
X104477201Y-98080491D01*
X104482477Y-98086023D01*
X104492055Y-98096068D01*
X104524062Y-98158124D01*
X104524405Y-98159900D01*
X104520767Y-98221171D01*
X104518411Y-98228541D01*
X104507686Y-98252784D01*
X104415816Y-98411906D01*
X104415814Y-98411911D01*
X104415807Y-98411927D01*
X104346954Y-98601096D01*
X104312000Y-98799338D01*
X104312000Y-100355566D01*
X104311943Y-100359280D01*
X104311830Y-100363044D01*
X104311830Y-100363051D01*
X104311661Y-100366759D01*
X104295272Y-100637888D01*
X104294594Y-100645349D01*
X104293693Y-100652771D01*
X104292567Y-100660171D01*
X104244645Y-100921779D01*
X104243076Y-100929094D01*
X104241283Y-100936373D01*
X104239271Y-100943593D01*
X104160171Y-101197524D01*
X104157731Y-101204599D01*
X104155076Y-101211603D01*
X104152209Y-101218526D01*
X104043088Y-101461068D01*
X104039813Y-101467797D01*
X104036337Y-101474423D01*
X104032658Y-101480950D01*
X103895096Y-101708594D01*
X103891028Y-101714887D01*
X103886776Y-101721049D01*
X103882342Y-101727078D01*
X103718353Y-101936480D01*
X103713555Y-101942239D01*
X103708590Y-101947845D01*
X103703463Y-101953293D01*
X103515445Y-102141397D01*
X103510001Y-102146525D01*
X103504398Y-102151492D01*
X103498641Y-102156292D01*
X103480316Y-102170657D01*
X103480315Y-102170659D01*
X103317360Y-102298395D01*
X103317358Y-102298396D01*
X103289319Y-102320374D01*
X103283296Y-102324809D01*
X103277133Y-102329066D01*
X103270840Y-102333137D01*
X103043270Y-102470799D01*
X103036750Y-102474479D01*
X103030117Y-102477963D01*
X103023383Y-102481244D01*
X102780876Y-102590481D01*
X102773957Y-102593350D01*
X102766971Y-102596002D01*
X102759896Y-102598446D01*
X102505996Y-102677665D01*
X102498771Y-102679682D01*
X102491497Y-102681477D01*
X102484188Y-102683048D01*
X102222594Y-102731092D01*
X102215197Y-102732221D01*
X102207788Y-102733124D01*
X102200324Y-102733806D01*
X101929200Y-102750319D01*
X101925450Y-102750490D01*
X101921720Y-102750604D01*
X101918002Y-102750662D01*
X101912784Y-102750664D01*
X101912550Y-102750666D01*
X101889311Y-102750676D01*
X101889252Y-102750677D01*
X101889250Y-102750677D01*
X101889223Y-102750677D01*
X101826832Y-102750704D01*
X101826832Y-102750705D01*
X101814948Y-102750710D01*
X81110174Y-102760231D01*
X81071085Y-102748772D01*
X81040168Y-102741477D01*
X81014547Y-102714941D01*
X81013636Y-102714124D01*
X81013012Y-102713352D01*
X80991637Y-102691213D01*
X80977985Y-102622690D01*
X81003547Y-102557664D01*
X81028937Y-102533149D01*
X81033099Y-102530145D01*
X81058193Y-102516145D01*
X81132187Y-102485496D01*
X81134046Y-102484803D01*
X81134498Y-102484600D01*
X81134507Y-102484596D01*
X81136173Y-102483845D01*
X81136221Y-102483826D01*
X81136224Y-102483824D01*
X81136230Y-102483822D01*
X81136243Y-102483813D01*
X81136597Y-102483655D01*
X81137926Y-102482917D01*
X81139626Y-102481861D01*
X81403070Y-102329762D01*
X81647517Y-102142191D01*
X81865391Y-101924317D01*
X82052962Y-101679870D01*
X82207022Y-101413030D01*
X82324935Y-101128364D01*
X82404682Y-100830744D01*
X82444900Y-100525260D01*
X82444900Y-100217140D01*
X82404682Y-99911656D01*
X82324935Y-99614036D01*
X82207165Y-99329715D01*
X82207023Y-99329369D01*
X82206784Y-99328952D01*
X82203642Y-99323441D01*
X82203304Y-99322929D01*
X82184691Y-99290691D01*
X89549500Y-99290691D01*
X89549500Y-99409309D01*
X89580201Y-99523886D01*
X89639511Y-99626613D01*
X89723387Y-99710489D01*
X89826114Y-99769799D01*
X89940691Y-99800500D01*
X89940694Y-99800500D01*
X90059306Y-99800500D01*
X90059309Y-99800500D01*
X90173886Y-99769799D01*
X90276613Y-99710489D01*
X90360489Y-99626613D01*
X90419799Y-99523886D01*
X90450500Y-99409309D01*
X90450500Y-99290691D01*
X90419799Y-99176114D01*
X90360489Y-99073387D01*
X90276613Y-98989511D01*
X90173886Y-98930201D01*
X90059309Y-98899500D01*
X90059306Y-98899500D01*
X89940691Y-98899500D01*
X89849728Y-98923873D01*
X89849723Y-98923874D01*
X89826114Y-98930201D01*
X89826112Y-98930201D01*
X89826112Y-98930202D01*
X89804947Y-98942421D01*
X89804939Y-98942425D01*
X89723386Y-98989511D01*
X89723378Y-98989517D01*
X89639517Y-99073378D01*
X89639513Y-99073383D01*
X89639511Y-99073387D01*
X89580201Y-99176114D01*
X89549500Y-99290691D01*
X82184691Y-99290691D01*
X82142455Y-99217536D01*
X82142454Y-99217535D01*
X82052967Y-99062537D01*
X82052951Y-99062516D01*
X81920192Y-98889501D01*
X81912515Y-98879496D01*
X81865398Y-98818091D01*
X81865394Y-98818087D01*
X81865392Y-98818084D01*
X81865386Y-98818077D01*
X81647522Y-98600213D01*
X81647515Y-98600207D01*
X81647512Y-98600204D01*
X81647507Y-98600200D01*
X81460586Y-98456772D01*
X81460582Y-98456769D01*
X81460583Y-98456769D01*
X81403070Y-98412638D01*
X81403066Y-98412636D01*
X81403064Y-98412634D01*
X81382353Y-98400677D01*
X81382351Y-98400676D01*
X81354761Y-98384747D01*
X81323183Y-98366515D01*
X93001931Y-98366515D01*
X93001931Y-98511465D01*
X93004610Y-98521462D01*
X93033018Y-98627484D01*
X93039447Y-98651477D01*
X93039449Y-98651481D01*
X93110062Y-98773785D01*
X93111920Y-98777003D01*
X93214416Y-98879499D01*
X93215105Y-98879995D01*
X93217609Y-98881343D01*
X93336500Y-98949985D01*
X93339518Y-98951859D01*
X93339945Y-98951973D01*
X93339946Y-98951974D01*
X93479956Y-98989490D01*
X93479959Y-98989490D01*
X93624903Y-98989490D01*
X93624906Y-98989490D01*
X93764916Y-98951974D01*
X93890446Y-98879499D01*
X93992940Y-98777005D01*
X94065415Y-98651475D01*
X94102931Y-98511465D01*
X94102931Y-98376515D01*
X99361931Y-98376515D01*
X99361931Y-98521464D01*
X99399444Y-98661467D01*
X99399447Y-98661475D01*
X99399448Y-98661478D01*
X99422677Y-98701711D01*
X99470062Y-98783785D01*
X99471920Y-98787003D01*
X99574416Y-98889499D01*
X99575105Y-98889995D01*
X99577609Y-98891343D01*
X99696500Y-98959985D01*
X99699518Y-98961859D01*
X99699945Y-98961973D01*
X99699946Y-98961974D01*
X99839956Y-98999490D01*
X99839959Y-98999490D01*
X99984903Y-98999490D01*
X99984906Y-98999490D01*
X100124916Y-98961974D01*
X100250446Y-98889499D01*
X100352940Y-98787005D01*
X100425415Y-98661475D01*
X100462931Y-98521465D01*
X100462931Y-98376515D01*
X100425415Y-98236505D01*
X100420216Y-98227501D01*
X100419640Y-98226503D01*
X100419639Y-98226501D01*
X100352944Y-98110981D01*
X100352939Y-98110974D01*
X100352924Y-98110958D01*
X100250461Y-98008495D01*
X100250445Y-98008480D01*
X100250442Y-98008478D01*
X100199886Y-97979289D01*
X100199881Y-97979286D01*
X100124919Y-97936007D01*
X100124920Y-97936007D01*
X100112033Y-97932554D01*
X100099906Y-97929304D01*
X100099905Y-97929304D01*
X100007667Y-97904589D01*
X99984906Y-97898490D01*
X99984905Y-97898490D01*
X99839956Y-97898490D01*
X99712828Y-97932554D01*
X99712827Y-97932553D01*
X99699945Y-97936006D01*
X99699939Y-97936008D01*
X99574423Y-98008475D01*
X99574415Y-98008480D01*
X99574399Y-98008495D01*
X99471936Y-98110958D01*
X99471921Y-98110974D01*
X99471916Y-98110982D01*
X99399449Y-98236498D01*
X99399447Y-98236502D01*
X99396188Y-98248667D01*
X99361931Y-98376515D01*
X94102931Y-98376515D01*
X94102931Y-98366515D01*
X94065415Y-98226505D01*
X94044929Y-98191023D01*
X93992942Y-98100978D01*
X93992937Y-98100972D01*
X93992924Y-98100958D01*
X93890461Y-97998495D01*
X93890445Y-97998480D01*
X93890437Y-97998475D01*
X93857206Y-97979289D01*
X93836673Y-97967434D01*
X93808239Y-97937614D01*
X93753438Y-97922929D01*
X93753438Y-97922930D01*
X93662226Y-97898490D01*
X93624906Y-97888490D01*
X93624905Y-97888490D01*
X93479956Y-97888490D01*
X93351425Y-97922929D01*
X93351424Y-97922930D01*
X93343769Y-97924981D01*
X93339941Y-97926007D01*
X93214422Y-97998475D01*
X93214415Y-97998480D01*
X93214399Y-97998495D01*
X93111936Y-98100958D01*
X93111921Y-98100974D01*
X93111916Y-98100982D01*
X93039448Y-98226499D01*
X93039420Y-98226568D01*
X93039179Y-98227501D01*
X93005514Y-98353142D01*
X93001931Y-98366515D01*
X81323183Y-98366515D01*
X81136237Y-98258581D01*
X81136226Y-98258576D01*
X80851562Y-98140664D01*
X80851561Y-98140663D01*
X80851557Y-98140662D01*
X80553940Y-98060916D01*
X80250338Y-98020947D01*
X80248657Y-98020700D01*
X80248466Y-98020700D01*
X80248460Y-98020700D01*
X79940340Y-98020700D01*
X79940334Y-98020700D01*
X79940332Y-98020700D01*
X79934212Y-98021453D01*
X79933306Y-98021625D01*
X79634858Y-98060916D01*
X79337241Y-98140662D01*
X79052566Y-98258578D01*
X78785732Y-98412636D01*
X78785716Y-98412647D01*
X78541291Y-98600200D01*
X78541276Y-98600214D01*
X78541268Y-98600221D01*
X78323421Y-98818068D01*
X78323414Y-98818076D01*
X78323400Y-98818091D01*
X78135847Y-99062516D01*
X78135836Y-99062532D01*
X77981783Y-99329358D01*
X77981781Y-99329362D01*
X77981776Y-99329374D01*
X77950283Y-99405405D01*
X77924700Y-99437149D01*
X77906129Y-99462894D01*
X77872184Y-99476242D01*
X77870912Y-99476853D01*
X77869780Y-99477187D01*
X77841106Y-99488464D01*
X77772582Y-99474820D01*
X77722311Y-99426295D01*
X77709398Y-99393458D01*
X77708217Y-99388460D01*
X77704900Y-99359970D01*
X77704900Y-96804107D01*
X77709921Y-96769179D01*
X77713532Y-96756880D01*
X77713758Y-96756109D01*
X77751528Y-96697332D01*
X77815082Y-96668303D01*
X77877099Y-96675247D01*
X77884824Y-96678207D01*
X77909337Y-96690891D01*
X77936713Y-96709184D01*
X77936728Y-96709192D01*
X78118706Y-96784569D01*
X78118718Y-96784572D01*
X78304262Y-96821479D01*
X78308933Y-96822408D01*
X78311168Y-96822909D01*
X78311906Y-96823000D01*
X78311908Y-96823000D01*
X78660400Y-96823000D01*
X78660400Y-96228195D01*
X78680085Y-96161156D01*
X78732889Y-96115401D01*
X78802047Y-96105457D01*
X78816473Y-96108415D01*
X78870904Y-96123000D01*
X78949893Y-96123000D01*
X78949896Y-96123000D01*
X79004310Y-96108420D01*
X79074156Y-96110083D01*
X79132019Y-96149245D01*
X79159523Y-96213473D01*
X79160400Y-96228195D01*
X79160400Y-96823000D01*
X79508892Y-96823000D01*
X79508893Y-96823000D01*
X79513801Y-96822203D01*
X79516530Y-96821480D01*
X79702081Y-96784572D01*
X79702093Y-96784569D01*
X79884071Y-96709192D01*
X79884084Y-96709185D01*
X80047862Y-96599751D01*
X80047866Y-96599748D01*
X80187148Y-96460466D01*
X80187151Y-96460462D01*
X80296585Y-96296684D01*
X80296592Y-96296671D01*
X80371969Y-96114692D01*
X80371969Y-96114690D01*
X80380262Y-96073000D01*
X79315595Y-96073000D01*
X79248556Y-96053315D01*
X79202801Y-96000511D01*
X79192857Y-95931353D01*
X79195815Y-95916926D01*
X79210400Y-95862496D01*
X79210400Y-95783504D01*
X79195820Y-95729089D01*
X79197483Y-95659244D01*
X79236645Y-95601381D01*
X79300873Y-95573877D01*
X79315595Y-95573000D01*
X80380261Y-95573000D01*
X80380262Y-95573000D01*
X80380262Y-95572999D01*
X81620537Y-95572999D01*
X81620538Y-95573000D01*
X82685205Y-95573000D01*
X82752244Y-95592685D01*
X82797999Y-95645489D01*
X82807943Y-95714647D01*
X82804984Y-95729073D01*
X82790400Y-95783504D01*
X82790400Y-95862496D01*
X82804979Y-95916910D01*
X82803317Y-95986756D01*
X82764155Y-96044619D01*
X82699927Y-96072123D01*
X82685205Y-96073000D01*
X81620538Y-96073000D01*
X81624344Y-96092138D01*
X81626448Y-96102713D01*
X81626448Y-96102715D01*
X81628831Y-96114695D01*
X81704203Y-96296664D01*
X81704208Y-96296673D01*
X81704218Y-96296690D01*
X81813649Y-96460464D01*
X81813650Y-96460465D01*
X81813655Y-96460471D01*
X81952927Y-96599743D01*
X81952933Y-96599748D01*
X81952934Y-96599749D01*
X81952937Y-96599751D01*
X82116715Y-96709185D01*
X82116728Y-96709192D01*
X82116730Y-96709192D01*
X82116734Y-96709195D01*
X82216549Y-96750539D01*
X82298706Y-96784569D01*
X82298718Y-96784572D01*
X82484262Y-96821479D01*
X82488933Y-96822408D01*
X82491168Y-96822909D01*
X82491906Y-96823000D01*
X82491908Y-96823000D01*
X82840400Y-96823000D01*
X82840400Y-96228195D01*
X82860085Y-96161156D01*
X82912889Y-96115401D01*
X82982047Y-96105457D01*
X82996473Y-96108415D01*
X83050904Y-96123000D01*
X83129893Y-96123000D01*
X83129896Y-96123000D01*
X83184310Y-96108420D01*
X83254156Y-96110083D01*
X83312019Y-96149245D01*
X83339523Y-96213473D01*
X83340400Y-96228195D01*
X83340400Y-96823000D01*
X83688892Y-96823000D01*
X83688893Y-96823000D01*
X83693801Y-96822203D01*
X83696530Y-96821480D01*
X83882081Y-96784572D01*
X83882093Y-96784569D01*
X84064071Y-96709192D01*
X84064084Y-96709185D01*
X84227862Y-96599751D01*
X84227866Y-96599748D01*
X84367148Y-96460466D01*
X84367151Y-96460462D01*
X84476585Y-96296684D01*
X84476592Y-96296671D01*
X84551969Y-96114692D01*
X84551969Y-96114690D01*
X84560262Y-96073000D01*
X83495595Y-96073000D01*
X83428556Y-96053315D01*
X83382801Y-96000511D01*
X83372857Y-95931353D01*
X83375815Y-95916926D01*
X83390400Y-95862496D01*
X83390400Y-95783504D01*
X83375820Y-95729089D01*
X83377483Y-95659244D01*
X83416645Y-95601381D01*
X83480873Y-95573877D01*
X83495595Y-95573000D01*
X84560262Y-95573000D01*
X84560262Y-95572999D01*
X84554352Y-95543288D01*
X84554351Y-95543283D01*
X84554351Y-95543284D01*
X84551969Y-95531309D01*
X84551969Y-95531307D01*
X84492645Y-95388084D01*
X84476595Y-95349334D01*
X84476590Y-95349325D01*
X84476585Y-95349315D01*
X84367151Y-95185537D01*
X84367148Y-95185533D01*
X84367143Y-95185527D01*
X84227868Y-95046252D01*
X84227865Y-95046250D01*
X84227864Y-95046249D01*
X84064090Y-94936818D01*
X84064089Y-94936817D01*
X84064084Y-94936814D01*
X84064071Y-94936807D01*
X84064064Y-94936803D01*
X83882094Y-94861430D01*
X83882055Y-94861421D01*
X83688898Y-94823000D01*
X83688895Y-94823000D01*
X83340400Y-94823000D01*
X83340400Y-95417804D01*
X83320715Y-95484843D01*
X83267911Y-95530598D01*
X83198753Y-95540542D01*
X83184308Y-95537579D01*
X83129897Y-95523000D01*
X83129896Y-95523000D01*
X83050904Y-95523000D01*
X83050902Y-95523000D01*
X82996492Y-95537579D01*
X82926642Y-95535916D01*
X82868780Y-95496752D01*
X82841277Y-95432524D01*
X82840400Y-95417804D01*
X82840400Y-94884650D01*
X82845422Y-94849717D01*
X82847037Y-94844217D01*
X82852834Y-94824472D01*
X82884134Y-94771724D01*
X82890007Y-94765852D01*
X82970895Y-94684964D01*
X83033495Y-94576536D01*
X83065900Y-94455601D01*
X83065900Y-94330399D01*
X83033495Y-94209464D01*
X83022657Y-94190691D01*
X90550500Y-94190691D01*
X90550500Y-94309309D01*
X90581201Y-94423886D01*
X90640511Y-94526613D01*
X90724387Y-94610489D01*
X90827114Y-94669799D01*
X90941691Y-94700500D01*
X90941694Y-94700500D01*
X91060306Y-94700500D01*
X91060309Y-94700500D01*
X91174886Y-94669799D01*
X91277613Y-94610489D01*
X91361489Y-94526613D01*
X91420799Y-94423886D01*
X91451500Y-94309309D01*
X91451500Y-94190691D01*
X91420799Y-94076114D01*
X91361489Y-93973387D01*
X91277613Y-93889511D01*
X91174886Y-93830201D01*
X91060309Y-93799500D01*
X91060306Y-93799500D01*
X90941691Y-93799500D01*
X90850728Y-93823873D01*
X90850723Y-93823874D01*
X90827114Y-93830201D01*
X90827112Y-93830201D01*
X90827112Y-93830202D01*
X90805947Y-93842421D01*
X90805939Y-93842425D01*
X90724386Y-93889511D01*
X90724378Y-93889517D01*
X90640517Y-93973378D01*
X90640513Y-93973383D01*
X90617926Y-94012505D01*
X90581201Y-94076114D01*
X90550500Y-94190691D01*
X83022657Y-94190691D01*
X82970895Y-94101036D01*
X82882364Y-94012505D01*
X82882363Y-94012504D01*
X82882360Y-94012502D01*
X82845690Y-93991331D01*
X82817259Y-93961513D01*
X82733624Y-93939103D01*
X82733624Y-93939102D01*
X82670037Y-93922065D01*
X82653001Y-93917500D01*
X82653000Y-93917500D01*
X82527799Y-93917500D01*
X82447174Y-93939103D01*
X82447173Y-93939102D01*
X82406869Y-93949902D01*
X82406862Y-93949905D01*
X82298435Y-94012504D01*
X82298433Y-94012506D01*
X82298428Y-94012510D01*
X82209910Y-94101028D01*
X82209906Y-94101033D01*
X82209904Y-94101035D01*
X82147304Y-94209464D01*
X82147303Y-94209467D01*
X82145916Y-94214647D01*
X82145914Y-94214656D01*
X82114900Y-94330399D01*
X82114900Y-94455601D01*
X82147305Y-94576536D01*
X82201148Y-94669797D01*
X82201149Y-94669799D01*
X82201148Y-94669799D01*
X82209896Y-94684950D01*
X82209907Y-94684967D01*
X82216863Y-94691923D01*
X82238013Y-94720176D01*
X82244664Y-94732356D01*
X82259517Y-94800628D01*
X82235101Y-94866093D01*
X82235098Y-94866097D01*
X82231959Y-94870290D01*
X82180148Y-94910537D01*
X82116752Y-94936797D01*
X82116717Y-94936812D01*
X82116716Y-94936812D01*
X81952934Y-95046249D01*
X81952931Y-95046252D01*
X81813655Y-95185527D01*
X81813650Y-95185533D01*
X81813649Y-95185534D01*
X81704218Y-95349308D01*
X81704208Y-95349325D01*
X81704203Y-95349334D01*
X81628831Y-95531303D01*
X81626448Y-95543284D01*
X81620537Y-95572999D01*
X80380262Y-95572999D01*
X80371969Y-95531309D01*
X80371969Y-95531307D01*
X80312645Y-95388084D01*
X80296595Y-95349334D01*
X80296590Y-95349325D01*
X80296585Y-95349315D01*
X80187151Y-95185537D01*
X80187148Y-95185533D01*
X80187143Y-95185527D01*
X80047868Y-95046252D01*
X80047865Y-95046250D01*
X80047864Y-95046249D01*
X79884090Y-94936818D01*
X79884089Y-94936817D01*
X79884084Y-94936814D01*
X79884071Y-94936807D01*
X79884064Y-94936803D01*
X79702094Y-94861430D01*
X79702055Y-94861421D01*
X79508898Y-94823000D01*
X79508895Y-94823000D01*
X79160400Y-94823000D01*
X79160400Y-95417804D01*
X79140715Y-95484843D01*
X79087911Y-95530598D01*
X79018753Y-95540542D01*
X79004308Y-95537579D01*
X78949897Y-95523000D01*
X78949896Y-95523000D01*
X78870904Y-95523000D01*
X78870902Y-95523000D01*
X78816492Y-95537579D01*
X78746642Y-95535916D01*
X78688780Y-95496752D01*
X78661277Y-95432524D01*
X78660400Y-95417804D01*
X78660400Y-94823000D01*
X78311904Y-94823000D01*
X78311900Y-94823000D01*
X78118743Y-94861421D01*
X78118704Y-94861430D01*
X77936738Y-94936801D01*
X77936726Y-94936808D01*
X77936710Y-94936817D01*
X77936709Y-94936818D01*
X77936696Y-94936826D01*
X77912609Y-94952920D01*
X77880775Y-94968150D01*
X77867780Y-94972219D01*
X77797921Y-94973466D01*
X77738478Y-94936747D01*
X77709799Y-94881312D01*
X77707972Y-94873257D01*
X77704900Y-94845829D01*
X77704900Y-92293691D01*
X84249500Y-92293691D01*
X84249500Y-92412309D01*
X84280201Y-92526886D01*
X84339511Y-92629613D01*
X84423387Y-92713489D01*
X84526114Y-92772799D01*
X84640691Y-92803500D01*
X84640694Y-92803500D01*
X84747335Y-92803500D01*
X84782267Y-92808521D01*
X84795586Y-92812432D01*
X84854364Y-92850206D01*
X84883390Y-92913761D01*
X84883391Y-92913772D01*
X84884600Y-92922185D01*
X84881636Y-92971914D01*
X84863209Y-93040686D01*
X84863209Y-93159305D01*
X84863208Y-93159305D01*
X84863209Y-93159308D01*
X84863209Y-93159309D01*
X84893910Y-93273886D01*
X84953220Y-93376613D01*
X85037096Y-93460489D01*
X85139823Y-93519799D01*
X85254400Y-93550500D01*
X85254403Y-93550500D01*
X85373015Y-93550500D01*
X85373018Y-93550500D01*
X85487595Y-93519799D01*
X85590322Y-93460489D01*
X85674198Y-93376613D01*
X85733508Y-93273886D01*
X85764209Y-93159309D01*
X85764209Y-93040691D01*
X85733508Y-92926114D01*
X85674198Y-92823387D01*
X85590322Y-92739511D01*
X85487595Y-92680201D01*
X85373018Y-92649500D01*
X85373015Y-92649500D01*
X85266374Y-92649500D01*
X85231435Y-92644476D01*
X85218117Y-92640565D01*
X85159340Y-92602789D01*
X85130318Y-92539235D01*
X85130270Y-92538904D01*
X85129108Y-92530817D01*
X85132071Y-92481080D01*
X85150500Y-92412309D01*
X85150500Y-92293691D01*
X85119799Y-92179114D01*
X85060489Y-92076387D01*
X84976613Y-91992511D01*
X84873886Y-91933201D01*
X84759309Y-91902500D01*
X84759306Y-91902500D01*
X84640691Y-91902500D01*
X84549728Y-91926873D01*
X84549723Y-91926874D01*
X84526114Y-91933201D01*
X84526112Y-91933201D01*
X84526112Y-91933202D01*
X84504947Y-91945421D01*
X84504939Y-91945425D01*
X84423386Y-91992511D01*
X84423378Y-91992517D01*
X84339517Y-92076378D01*
X84339513Y-92076383D01*
X84339507Y-92076392D01*
X84300956Y-92143164D01*
X84300955Y-92143167D01*
X84290091Y-92161985D01*
X84280201Y-92179114D01*
X84249500Y-92293691D01*
X77704900Y-92293691D01*
X77704900Y-91093691D01*
X84249500Y-91093691D01*
X84249500Y-91212309D01*
X84280201Y-91326886D01*
X84339511Y-91429613D01*
X84423387Y-91513489D01*
X84526114Y-91572799D01*
X84640691Y-91603500D01*
X84640694Y-91603500D01*
X84759306Y-91603500D01*
X84759309Y-91603500D01*
X84873886Y-91572799D01*
X84976613Y-91513489D01*
X85049411Y-91440691D01*
X96299500Y-91440691D01*
X96299500Y-91559309D01*
X96330201Y-91673886D01*
X96389511Y-91776613D01*
X96473387Y-91860489D01*
X96576114Y-91919799D01*
X96690691Y-91950500D01*
X96690694Y-91950500D01*
X96809306Y-91950500D01*
X96809309Y-91950500D01*
X96923886Y-91919799D01*
X97026613Y-91860489D01*
X97110489Y-91776613D01*
X97169799Y-91673886D01*
X97200500Y-91559309D01*
X97200500Y-91440691D01*
X97169799Y-91326114D01*
X97110489Y-91223387D01*
X97026613Y-91139511D01*
X96923886Y-91080201D01*
X96809309Y-91049500D01*
X96809306Y-91049500D01*
X96690691Y-91049500D01*
X96599728Y-91073873D01*
X96599723Y-91073874D01*
X96576114Y-91080201D01*
X96576112Y-91080201D01*
X96576112Y-91080202D01*
X96554947Y-91092421D01*
X96554939Y-91092425D01*
X96473386Y-91139511D01*
X96473378Y-91139517D01*
X96389517Y-91223378D01*
X96389513Y-91223383D01*
X96389511Y-91223385D01*
X96366021Y-91264072D01*
X96348824Y-91293859D01*
X96345491Y-91299632D01*
X96330200Y-91326114D01*
X96299500Y-91440691D01*
X85049411Y-91440691D01*
X85060489Y-91429613D01*
X85062222Y-91426612D01*
X85094583Y-91370563D01*
X85114668Y-91335774D01*
X85119799Y-91326886D01*
X85124124Y-91310744D01*
X85150500Y-91212309D01*
X85150500Y-91093691D01*
X85119799Y-90979114D01*
X85066528Y-90886846D01*
X85058260Y-90869564D01*
X85049880Y-90847887D01*
X85044067Y-90778259D01*
X85076819Y-90716544D01*
X85080482Y-90712793D01*
X85137106Y-90679653D01*
X85173886Y-90669799D01*
X85276613Y-90610489D01*
X85360489Y-90526613D01*
X85419799Y-90423886D01*
X85450500Y-90309309D01*
X85450500Y-90190691D01*
X85419799Y-90076114D01*
X85360489Y-89973387D01*
X85276613Y-89889511D01*
X85173886Y-89830201D01*
X85059309Y-89799500D01*
X85059306Y-89799500D01*
X84940691Y-89799500D01*
X84849728Y-89823873D01*
X84849723Y-89823874D01*
X84826114Y-89830201D01*
X84826112Y-89830201D01*
X84826112Y-89830202D01*
X84804947Y-89842421D01*
X84804939Y-89842425D01*
X84723386Y-89889511D01*
X84723378Y-89889517D01*
X84639517Y-89973378D01*
X84639513Y-89973383D01*
X84639512Y-89973385D01*
X84639511Y-89973387D01*
X84608754Y-90026660D01*
X84580201Y-90076114D01*
X84549500Y-90190691D01*
X84549500Y-90309309D01*
X84573070Y-90397273D01*
X84580202Y-90423889D01*
X84633466Y-90516144D01*
X84641738Y-90533433D01*
X84650119Y-90555113D01*
X84655931Y-90624740D01*
X84623177Y-90686457D01*
X84623165Y-90686469D01*
X84619506Y-90690215D01*
X84562895Y-90723345D01*
X84527926Y-90732715D01*
X84526229Y-90733142D01*
X84526122Y-90733196D01*
X84526101Y-90733206D01*
X84423397Y-90792504D01*
X84423383Y-90792513D01*
X84423378Y-90792517D01*
X84339517Y-90876378D01*
X84339513Y-90876383D01*
X84318765Y-90912319D01*
X84280201Y-90979114D01*
X84249500Y-91093691D01*
X77704900Y-91093691D01*
X77704900Y-88164107D01*
X77709921Y-88129179D01*
X77712875Y-88119118D01*
X77713758Y-88116109D01*
X77751528Y-88057332D01*
X77815082Y-88028303D01*
X77877099Y-88035247D01*
X77884824Y-88038207D01*
X77909337Y-88050891D01*
X77936713Y-88069184D01*
X77936728Y-88069192D01*
X78118706Y-88144569D01*
X78118718Y-88144572D01*
X78304262Y-88181479D01*
X78308933Y-88182408D01*
X78311168Y-88182909D01*
X78311906Y-88183000D01*
X78311908Y-88183000D01*
X78660400Y-88183000D01*
X78660400Y-87588195D01*
X78680085Y-87521156D01*
X78732889Y-87475401D01*
X78802047Y-87465457D01*
X78816473Y-87468415D01*
X78870904Y-87483000D01*
X78949893Y-87483000D01*
X78949896Y-87483000D01*
X79004310Y-87468420D01*
X79074156Y-87470083D01*
X79132019Y-87509245D01*
X79159523Y-87573473D01*
X79160400Y-87588195D01*
X79160400Y-88183000D01*
X79508892Y-88183000D01*
X79508893Y-88183000D01*
X79513801Y-88182203D01*
X79516530Y-88181480D01*
X79702081Y-88144572D01*
X79702093Y-88144569D01*
X79884071Y-88069192D01*
X79884084Y-88069185D01*
X80047862Y-87959751D01*
X80047866Y-87959748D01*
X80187148Y-87820466D01*
X80187151Y-87820462D01*
X80296585Y-87656684D01*
X80296592Y-87656671D01*
X80371969Y-87474692D01*
X80371969Y-87474690D01*
X80380262Y-87433000D01*
X79315595Y-87433000D01*
X79248556Y-87413315D01*
X79202801Y-87360511D01*
X79192857Y-87291353D01*
X79195815Y-87276926D01*
X79210400Y-87222496D01*
X79210400Y-87143504D01*
X79195820Y-87089089D01*
X79197483Y-87019244D01*
X79236645Y-86961381D01*
X79300873Y-86933877D01*
X79315595Y-86933000D01*
X80380261Y-86933000D01*
X80380262Y-86933000D01*
X80380262Y-86932999D01*
X81620537Y-86932999D01*
X81620538Y-86933000D01*
X82685205Y-86933000D01*
X82752244Y-86952685D01*
X82797999Y-87005489D01*
X82807943Y-87074647D01*
X82804984Y-87089073D01*
X82790400Y-87143504D01*
X82790400Y-87222496D01*
X82804979Y-87276910D01*
X82803317Y-87346756D01*
X82764155Y-87404619D01*
X82699927Y-87432123D01*
X82685205Y-87433000D01*
X81620538Y-87433000D01*
X81626448Y-87462713D01*
X81626448Y-87462715D01*
X81628831Y-87474695D01*
X81704203Y-87656664D01*
X81704208Y-87656673D01*
X81704218Y-87656690D01*
X81813649Y-87820464D01*
X81813650Y-87820465D01*
X81813655Y-87820471D01*
X81952927Y-87959743D01*
X81952933Y-87959748D01*
X81952937Y-87959751D01*
X82116715Y-88069185D01*
X82116722Y-88069189D01*
X82172771Y-88092404D01*
X82203119Y-88110410D01*
X82213926Y-88119118D01*
X82253777Y-88176508D01*
X82256275Y-88246326D01*
X82254980Y-88251402D01*
X82222513Y-88308428D01*
X82209901Y-88321040D01*
X82147304Y-88429462D01*
X82147305Y-88429462D01*
X82147305Y-88429463D01*
X82147305Y-88429464D01*
X82114900Y-88550399D01*
X82114900Y-88675601D01*
X82147305Y-88796536D01*
X82209905Y-88904964D01*
X82298436Y-88993495D01*
X82406864Y-89056095D01*
X82527799Y-89088500D01*
X82527801Y-89088500D01*
X82652999Y-89088500D01*
X82653001Y-89088500D01*
X82773936Y-89056095D01*
X82882364Y-88993495D01*
X82970895Y-88904964D01*
X83033495Y-88796536D01*
X83065900Y-88675601D01*
X83065900Y-88550399D01*
X83033495Y-88429464D01*
X82970895Y-88321036D01*
X82889326Y-88239467D01*
X82868174Y-88211211D01*
X82855567Y-88188122D01*
X82840400Y-88128697D01*
X82840400Y-87588195D01*
X82860085Y-87521156D01*
X82912889Y-87475401D01*
X82982047Y-87465457D01*
X82996473Y-87468415D01*
X83050904Y-87483000D01*
X83129893Y-87483000D01*
X83129896Y-87483000D01*
X83184310Y-87468420D01*
X83254156Y-87470083D01*
X83312019Y-87509245D01*
X83339523Y-87573473D01*
X83340400Y-87588195D01*
X83340400Y-88183000D01*
X83688892Y-88183000D01*
X83688893Y-88183000D01*
X83693801Y-88182203D01*
X83696530Y-88181480D01*
X83882081Y-88144572D01*
X83882093Y-88144569D01*
X84064071Y-88069192D01*
X84064084Y-88069185D01*
X84227862Y-87959751D01*
X84227866Y-87959748D01*
X84367148Y-87820466D01*
X84367151Y-87820462D01*
X84476585Y-87656684D01*
X84476592Y-87656671D01*
X84488665Y-87627525D01*
X91499500Y-87627525D01*
X91499500Y-87772475D01*
X91516080Y-87834351D01*
X91531332Y-87891273D01*
X91537017Y-87912488D01*
X91537018Y-87912491D01*
X91607631Y-88034795D01*
X91609489Y-88038013D01*
X91711985Y-88140509D01*
X91712674Y-88141005D01*
X91715178Y-88142353D01*
X91834069Y-88210995D01*
X91837087Y-88212869D01*
X91837514Y-88212983D01*
X91837515Y-88212984D01*
X91977525Y-88250500D01*
X91977528Y-88250500D01*
X92122472Y-88250500D01*
X92122475Y-88250500D01*
X92262485Y-88212984D01*
X92388015Y-88140509D01*
X92490509Y-88038015D01*
X92562984Y-87912485D01*
X92600500Y-87772475D01*
X92600500Y-87677525D01*
X98049500Y-87677525D01*
X98049500Y-87822475D01*
X98054597Y-87841496D01*
X98087013Y-87962477D01*
X98087016Y-87962485D01*
X98087017Y-87962488D01*
X98128007Y-88033484D01*
X98157631Y-88084795D01*
X98159489Y-88088013D01*
X98261985Y-88190509D01*
X98262674Y-88191005D01*
X98265178Y-88192353D01*
X98384069Y-88260995D01*
X98387087Y-88262869D01*
X98387514Y-88262983D01*
X98387515Y-88262984D01*
X98527525Y-88300500D01*
X98527528Y-88300500D01*
X98672472Y-88300500D01*
X98672475Y-88300500D01*
X98812485Y-88262984D01*
X98938015Y-88190509D01*
X99040509Y-88088015D01*
X99112984Y-87962485D01*
X99150500Y-87822475D01*
X99150500Y-87677525D01*
X99112984Y-87537515D01*
X99084116Y-87487515D01*
X99040511Y-87411988D01*
X99040506Y-87411982D01*
X99040493Y-87411968D01*
X98938030Y-87309505D01*
X98938014Y-87309490D01*
X98938006Y-87309485D01*
X98884243Y-87278445D01*
X98855808Y-87248624D01*
X98801007Y-87233939D01*
X98801007Y-87233940D01*
X98736740Y-87216720D01*
X98672475Y-87199500D01*
X98672474Y-87199500D01*
X98527525Y-87199500D01*
X98398994Y-87233939D01*
X98398993Y-87233940D01*
X98391338Y-87235991D01*
X98387510Y-87237017D01*
X98261991Y-87309485D01*
X98261984Y-87309490D01*
X98261968Y-87309505D01*
X98159505Y-87411968D01*
X98159490Y-87411984D01*
X98159485Y-87411992D01*
X98088287Y-87535308D01*
X98088286Y-87535312D01*
X98087017Y-87537511D01*
X98087016Y-87537515D01*
X98049500Y-87677525D01*
X92600500Y-87677525D01*
X92600500Y-87627525D01*
X92562984Y-87487515D01*
X92560377Y-87483000D01*
X92494989Y-87369744D01*
X92490513Y-87361991D01*
X92490508Y-87361984D01*
X92490493Y-87361968D01*
X92388030Y-87259505D01*
X92388014Y-87259490D01*
X92388006Y-87259485D01*
X92334243Y-87228445D01*
X92305808Y-87198624D01*
X92251007Y-87183939D01*
X92251007Y-87183940D01*
X92149241Y-87156672D01*
X92122475Y-87149500D01*
X92122474Y-87149500D01*
X91977525Y-87149500D01*
X91848994Y-87183939D01*
X91848993Y-87183940D01*
X91841338Y-87185991D01*
X91837510Y-87187017D01*
X91711991Y-87259485D01*
X91711984Y-87259490D01*
X91711968Y-87259505D01*
X91609505Y-87361968D01*
X91609490Y-87361984D01*
X91609485Y-87361992D01*
X91537017Y-87487509D01*
X91536989Y-87487578D01*
X91536748Y-87488511D01*
X91508303Y-87594672D01*
X91499500Y-87627525D01*
X84488665Y-87627525D01*
X84511686Y-87571946D01*
X84551969Y-87474692D01*
X84551969Y-87474690D01*
X84560262Y-87433000D01*
X83495595Y-87433000D01*
X83428556Y-87413315D01*
X83382801Y-87360511D01*
X83372857Y-87291353D01*
X83375815Y-87276926D01*
X83390400Y-87222496D01*
X83390400Y-87143504D01*
X83375820Y-87089089D01*
X83377483Y-87019244D01*
X83416645Y-86961381D01*
X83480873Y-86933877D01*
X83495595Y-86933000D01*
X84560262Y-86933000D01*
X84560262Y-86932999D01*
X84554352Y-86903288D01*
X84554351Y-86903283D01*
X84554351Y-86903284D01*
X84551969Y-86891309D01*
X84551969Y-86891307D01*
X84494597Y-86752796D01*
X84476595Y-86709334D01*
X84476590Y-86709325D01*
X84476585Y-86709315D01*
X84367151Y-86545537D01*
X84367148Y-86545533D01*
X84367143Y-86545527D01*
X84227871Y-86406255D01*
X84227865Y-86406250D01*
X84227864Y-86406249D01*
X84064090Y-86296818D01*
X84064089Y-86296817D01*
X84064084Y-86296814D01*
X84064071Y-86296807D01*
X84064064Y-86296803D01*
X83882094Y-86221430D01*
X83882055Y-86221421D01*
X83688898Y-86183000D01*
X83688895Y-86183000D01*
X83340400Y-86183000D01*
X83340400Y-86777804D01*
X83320715Y-86844843D01*
X83267911Y-86890598D01*
X83198753Y-86900542D01*
X83184308Y-86897579D01*
X83129897Y-86883000D01*
X83129896Y-86883000D01*
X83050904Y-86883000D01*
X83050902Y-86883000D01*
X82996492Y-86897579D01*
X82926642Y-86895916D01*
X82868780Y-86856752D01*
X82841277Y-86792524D01*
X82840400Y-86777804D01*
X82840400Y-86183000D01*
X82491904Y-86183000D01*
X82491900Y-86183000D01*
X82298743Y-86221421D01*
X82298704Y-86221430D01*
X82116734Y-86296803D01*
X82116725Y-86296808D01*
X82116708Y-86296818D01*
X81952934Y-86406249D01*
X81952933Y-86406250D01*
X81952927Y-86406255D01*
X81813655Y-86545527D01*
X81813650Y-86545533D01*
X81813649Y-86545534D01*
X81704218Y-86709308D01*
X81704208Y-86709325D01*
X81704203Y-86709334D01*
X81628831Y-86891303D01*
X81626448Y-86903284D01*
X81620537Y-86932999D01*
X80380262Y-86932999D01*
X80371969Y-86891309D01*
X80371969Y-86891307D01*
X80314597Y-86752796D01*
X80296595Y-86709334D01*
X80296590Y-86709325D01*
X80296585Y-86709315D01*
X80187151Y-86545537D01*
X80187148Y-86545533D01*
X80187143Y-86545527D01*
X80047871Y-86406255D01*
X80047865Y-86406250D01*
X80047864Y-86406249D01*
X79884090Y-86296818D01*
X79884089Y-86296817D01*
X79884084Y-86296814D01*
X79884071Y-86296807D01*
X79884064Y-86296803D01*
X79702094Y-86221430D01*
X79702055Y-86221421D01*
X79508898Y-86183000D01*
X79508895Y-86183000D01*
X79160400Y-86183000D01*
X79160400Y-86777804D01*
X79140715Y-86844843D01*
X79087911Y-86890598D01*
X79018753Y-86900542D01*
X79004308Y-86897579D01*
X78949897Y-86883000D01*
X78949896Y-86883000D01*
X78870904Y-86883000D01*
X78870902Y-86883000D01*
X78816492Y-86897579D01*
X78746642Y-86895916D01*
X78688780Y-86856752D01*
X78661277Y-86792524D01*
X78660400Y-86777804D01*
X78660400Y-86183000D01*
X78311904Y-86183000D01*
X78311900Y-86183000D01*
X78118743Y-86221421D01*
X78118704Y-86221430D01*
X77936738Y-86296801D01*
X77936726Y-86296808D01*
X77936710Y-86296817D01*
X77936709Y-86296818D01*
X77936696Y-86296826D01*
X77912609Y-86312920D01*
X77880775Y-86328150D01*
X77867780Y-86332219D01*
X77797921Y-86333466D01*
X77738478Y-86296747D01*
X77709799Y-86241312D01*
X77707972Y-86233257D01*
X77704900Y-86205829D01*
X77704900Y-83520954D01*
X77709921Y-83486027D01*
X77712455Y-83477395D01*
X77750225Y-83418614D01*
X77813779Y-83389585D01*
X77882938Y-83399524D01*
X77932000Y-83439780D01*
X77934995Y-83443932D01*
X77948989Y-83469019D01*
X77956034Y-83486027D01*
X77979873Y-83543579D01*
X78041777Y-83693029D01*
X78041781Y-83693037D01*
X78116387Y-83822257D01*
X78195838Y-83959870D01*
X78195840Y-83959873D01*
X78195841Y-83959874D01*
X78201720Y-83967536D01*
X78201721Y-83967537D01*
X78383400Y-84204307D01*
X78383404Y-84204312D01*
X78383407Y-84204315D01*
X78383413Y-84204322D01*
X78601277Y-84422186D01*
X78601284Y-84422192D01*
X78601287Y-84422194D01*
X78601291Y-84422198D01*
X78648942Y-84458761D01*
X78698708Y-84496948D01*
X78700330Y-84498192D01*
X78700331Y-84498194D01*
X78845730Y-84609762D01*
X78958253Y-84674727D01*
X79109122Y-84761832D01*
X79110860Y-84762912D01*
X79112282Y-84763701D01*
X79112556Y-84763814D01*
X79112562Y-84763818D01*
X79112567Y-84763820D01*
X79112570Y-84763822D01*
X79397236Y-84881735D01*
X79694856Y-84961482D01*
X80000340Y-85001700D01*
X80000347Y-85001700D01*
X80308453Y-85001700D01*
X80308460Y-85001700D01*
X80613944Y-84961482D01*
X80740673Y-84927525D01*
X87349500Y-84927525D01*
X87349500Y-85072475D01*
X87350849Y-85077509D01*
X87382575Y-85195912D01*
X87387016Y-85212488D01*
X87387018Y-85212491D01*
X87457631Y-85334795D01*
X87459489Y-85338013D01*
X87561985Y-85440509D01*
X87562674Y-85441005D01*
X87565178Y-85442353D01*
X87684069Y-85510995D01*
X87687087Y-85512869D01*
X87687514Y-85512983D01*
X87687515Y-85512984D01*
X87827525Y-85550500D01*
X87827528Y-85550500D01*
X87972472Y-85550500D01*
X87972475Y-85550500D01*
X88112485Y-85512984D01*
X88238015Y-85440509D01*
X88340509Y-85338015D01*
X88412984Y-85212485D01*
X88437103Y-85122472D01*
X89899499Y-85122472D01*
X89899500Y-85122475D01*
X89936481Y-85260488D01*
X89936482Y-85260491D01*
X89936481Y-85260491D01*
X89937015Y-85262485D01*
X89937016Y-85262486D01*
X90007631Y-85384795D01*
X90009489Y-85388013D01*
X90111985Y-85490509D01*
X90112674Y-85491005D01*
X90115178Y-85492353D01*
X90234069Y-85560995D01*
X90237087Y-85562869D01*
X90237514Y-85562983D01*
X90237515Y-85562984D01*
X90377525Y-85600500D01*
X90377528Y-85600500D01*
X90522472Y-85600500D01*
X90522475Y-85600500D01*
X90662485Y-85562984D01*
X90788015Y-85490509D01*
X90890509Y-85388015D01*
X90962984Y-85262485D01*
X91000500Y-85122475D01*
X91000500Y-84977525D01*
X90996201Y-84961482D01*
X90993526Y-84951496D01*
X90993524Y-84951491D01*
X90987102Y-84927525D01*
X91499500Y-84927525D01*
X91499500Y-85072475D01*
X91500849Y-85077509D01*
X91532575Y-85195912D01*
X91537016Y-85212488D01*
X91537018Y-85212491D01*
X91607631Y-85334795D01*
X91609489Y-85338013D01*
X91711985Y-85440509D01*
X91712674Y-85441005D01*
X91715178Y-85442353D01*
X91834069Y-85510995D01*
X91837087Y-85512869D01*
X91837514Y-85512983D01*
X91837515Y-85512984D01*
X91977525Y-85550500D01*
X91977528Y-85550500D01*
X92122472Y-85550500D01*
X92122475Y-85550500D01*
X92262485Y-85512984D01*
X92388015Y-85440509D01*
X92490509Y-85338015D01*
X92562984Y-85212485D01*
X92600500Y-85072475D01*
X92600500Y-84927525D01*
X92577233Y-84840691D01*
X100999500Y-84840691D01*
X100999500Y-84959309D01*
X101030201Y-85073886D01*
X101089511Y-85176613D01*
X101173387Y-85260489D01*
X101276114Y-85319799D01*
X101390691Y-85350500D01*
X101390694Y-85350500D01*
X101509306Y-85350500D01*
X101509309Y-85350500D01*
X101623886Y-85319799D01*
X101726613Y-85260489D01*
X101810489Y-85176613D01*
X101869799Y-85073886D01*
X101900500Y-84959309D01*
X101900500Y-84840691D01*
X101869799Y-84726114D01*
X101810489Y-84623387D01*
X101726613Y-84539511D01*
X101623886Y-84480201D01*
X101509309Y-84449500D01*
X101509306Y-84449500D01*
X101390691Y-84449500D01*
X101299728Y-84473873D01*
X101299723Y-84473874D01*
X101276114Y-84480201D01*
X101276112Y-84480201D01*
X101276112Y-84480202D01*
X101254947Y-84492421D01*
X101254939Y-84492425D01*
X101173386Y-84539511D01*
X101173378Y-84539517D01*
X101089517Y-84623378D01*
X101089513Y-84623383D01*
X101089507Y-84623392D01*
X101042922Y-84704081D01*
X101042920Y-84704085D01*
X101030201Y-84726114D01*
X100999500Y-84840691D01*
X92577233Y-84840691D01*
X92562984Y-84787515D01*
X92555111Y-84773879D01*
X92519380Y-84711991D01*
X92490516Y-84661996D01*
X92490508Y-84661984D01*
X92490493Y-84661968D01*
X92388030Y-84559505D01*
X92388014Y-84559490D01*
X92388011Y-84559488D01*
X92338454Y-84530876D01*
X92338452Y-84530875D01*
X92262488Y-84487017D01*
X92262489Y-84487017D01*
X92237051Y-84480201D01*
X92226040Y-84477250D01*
X92226039Y-84477250D01*
X92162814Y-84460309D01*
X92122475Y-84449500D01*
X92122474Y-84449500D01*
X91977525Y-84449500D01*
X91862948Y-84480201D01*
X91862947Y-84480200D01*
X91837512Y-84487016D01*
X91837507Y-84487018D01*
X91711992Y-84559485D01*
X91711984Y-84559490D01*
X91711968Y-84559505D01*
X91609505Y-84661968D01*
X91609490Y-84661984D01*
X91609485Y-84661992D01*
X91537080Y-84787400D01*
X91537079Y-84787402D01*
X91537017Y-84787511D01*
X91534900Y-84795413D01*
X91499500Y-84927525D01*
X90987102Y-84927525D01*
X90962984Y-84837515D01*
X90957094Y-84827314D01*
X90953122Y-84820435D01*
X90890513Y-84711991D01*
X90890508Y-84711984D01*
X90890493Y-84711968D01*
X90788030Y-84609505D01*
X90788014Y-84609490D01*
X90788011Y-84609488D01*
X90739322Y-84581377D01*
X90739319Y-84581375D01*
X90662488Y-84537017D01*
X90662489Y-84537017D01*
X90623836Y-84526660D01*
X90613803Y-84523971D01*
X90613802Y-84523971D01*
X90543736Y-84505197D01*
X90522475Y-84499500D01*
X90522474Y-84499500D01*
X90377525Y-84499500D01*
X90276163Y-84526660D01*
X90276162Y-84526659D01*
X90237512Y-84537016D01*
X90237507Y-84537018D01*
X90111992Y-84609485D01*
X90111984Y-84609490D01*
X90111968Y-84609505D01*
X90009505Y-84711968D01*
X90009490Y-84711984D01*
X90009485Y-84711992D01*
X89937018Y-84837507D01*
X89937016Y-84837512D01*
X89933066Y-84852250D01*
X89933067Y-84852251D01*
X89899500Y-84977525D01*
X89899500Y-85122472D01*
X89899499Y-85122472D01*
X88437103Y-85122472D01*
X88450500Y-85072475D01*
X88450500Y-84927525D01*
X88412984Y-84787515D01*
X88405111Y-84773879D01*
X88401761Y-84768076D01*
X88340516Y-84661996D01*
X88340508Y-84661984D01*
X88340493Y-84661968D01*
X88238030Y-84559505D01*
X88238014Y-84559490D01*
X88238011Y-84559488D01*
X88188454Y-84530876D01*
X88188452Y-84530875D01*
X88112488Y-84487017D01*
X88112489Y-84487017D01*
X88087051Y-84480201D01*
X88076040Y-84477250D01*
X88076039Y-84477250D01*
X88012814Y-84460309D01*
X87972475Y-84449500D01*
X87972474Y-84449500D01*
X87827525Y-84449500D01*
X87712948Y-84480201D01*
X87712947Y-84480200D01*
X87687512Y-84487016D01*
X87687507Y-84487018D01*
X87561992Y-84559485D01*
X87561984Y-84559490D01*
X87561968Y-84559505D01*
X87459505Y-84661968D01*
X87459490Y-84661984D01*
X87459485Y-84661992D01*
X87387080Y-84787400D01*
X87387079Y-84787402D01*
X87387017Y-84787511D01*
X87384900Y-84795413D01*
X87349500Y-84927525D01*
X80740673Y-84927525D01*
X80911564Y-84881735D01*
X81081548Y-84811325D01*
X81097209Y-84804838D01*
X81097209Y-84804839D01*
X81097214Y-84804836D01*
X81101319Y-84803136D01*
X81113278Y-84798182D01*
X81139041Y-84787511D01*
X81194366Y-84764594D01*
X81196230Y-84763822D01*
X81463070Y-84609762D01*
X81707517Y-84422191D01*
X81925391Y-84204317D01*
X82112962Y-83959870D01*
X82267022Y-83693030D01*
X82384935Y-83408364D01*
X82464682Y-83110744D01*
X82504900Y-82805260D01*
X82504900Y-82497140D01*
X82464682Y-82191656D01*
X82384935Y-81894036D01*
X82267022Y-81609370D01*
X82267020Y-81609367D01*
X82267018Y-81609362D01*
X82267014Y-81609356D01*
X82266901Y-81609082D01*
X82266112Y-81607660D01*
X82265032Y-81605922D01*
X82180740Y-81459925D01*
X82180739Y-81459924D01*
X82112962Y-81342530D01*
X82112961Y-81342528D01*
X81987462Y-81178975D01*
X81987459Y-81178972D01*
X81925398Y-81098091D01*
X81925394Y-81098087D01*
X81925392Y-81098084D01*
X81925386Y-81098077D01*
X81707522Y-80880213D01*
X81707515Y-80880207D01*
X81707512Y-80880204D01*
X81707507Y-80880200D01*
X81470775Y-80698550D01*
X81470774Y-80698549D01*
X81463074Y-80692641D01*
X81463073Y-80692640D01*
X81463070Y-80692638D01*
X81308296Y-80603279D01*
X81255621Y-80572867D01*
X81196246Y-80538586D01*
X81196229Y-80538577D01*
X80936003Y-80430787D01*
X80904285Y-80405227D01*
X80878554Y-80386700D01*
X80865566Y-80353760D01*
X80864748Y-80352066D01*
X80864255Y-80350435D01*
X80852926Y-80321700D01*
X80866508Y-80253164D01*
X80914988Y-80202850D01*
X80947816Y-80189906D01*
X80952791Y-80188726D01*
X80981200Y-80185383D01*
X96120191Y-80162880D01*
X96155126Y-80167850D01*
X96163727Y-80170361D01*
X96222561Y-80208046D01*
X96251683Y-80271557D01*
X96241845Y-80340731D01*
X96201578Y-80389911D01*
X96197408Y-80392923D01*
X96172255Y-80406964D01*
X96036083Y-80463368D01*
X96036081Y-80463369D01*
X96036071Y-80463375D01*
X95872215Y-80572861D01*
X95872214Y-80572862D01*
X95872208Y-80572867D01*
X95732867Y-80712208D01*
X95732862Y-80712214D01*
X95732861Y-80712215D01*
X95623375Y-80876072D01*
X95623365Y-80876089D01*
X95623360Y-80876098D01*
X95547958Y-81058137D01*
X95547945Y-81058176D01*
X95509500Y-81251451D01*
X95509500Y-81404174D01*
X95504237Y-81422094D01*
X95547945Y-81641822D01*
X95547946Y-81641826D01*
X95547947Y-81641829D01*
X95547950Y-81641839D01*
X95547953Y-81641847D01*
X95547958Y-81641861D01*
X95623360Y-81823900D01*
X95623365Y-81823909D01*
X95623375Y-81823926D01*
X95732861Y-81987783D01*
X95732862Y-81987784D01*
X95732867Y-81987790D01*
X95872208Y-82127131D01*
X95872214Y-82127136D01*
X95872218Y-82127139D01*
X96036079Y-82236628D01*
X96036092Y-82236635D01*
X96157360Y-82286865D01*
X96212553Y-82309726D01*
X96216963Y-82311812D01*
X96411453Y-82350500D01*
X96608543Y-82350500D01*
X96608544Y-82350500D01*
X96630216Y-82346188D01*
X96738582Y-82324632D01*
X96738583Y-82324632D01*
X96751301Y-82322102D01*
X96801835Y-82312051D01*
X96983914Y-82236632D01*
X97147782Y-82127139D01*
X97287139Y-81987782D01*
X97396632Y-81823914D01*
X97472051Y-81641835D01*
X97498741Y-81507656D01*
X97508236Y-81459924D01*
X97510500Y-81448544D01*
X97510500Y-81251453D01*
X97471812Y-81056962D01*
X97469725Y-81052550D01*
X97441895Y-80985361D01*
X97411895Y-80912934D01*
X97396635Y-80876092D01*
X97396628Y-80876079D01*
X97287139Y-80712218D01*
X97287136Y-80712214D01*
X97287131Y-80712208D01*
X97147790Y-80572867D01*
X97147784Y-80572862D01*
X97147783Y-80572861D01*
X96983926Y-80463375D01*
X96983925Y-80463374D01*
X96983920Y-80463371D01*
X96983907Y-80463364D01*
X96891789Y-80425208D01*
X96848161Y-80407137D01*
X96816442Y-80381577D01*
X96790712Y-80363053D01*
X96777751Y-80330186D01*
X96776922Y-80328470D01*
X96776418Y-80326806D01*
X96765081Y-80298054D01*
X96778660Y-80229516D01*
X96827137Y-80179200D01*
X96859965Y-80166255D01*
X96864942Y-80165075D01*
X96893353Y-80161731D01*
X98669339Y-80159091D01*
X98704274Y-80164061D01*
X98712875Y-80166572D01*
X98771709Y-80204257D01*
X98800831Y-80267768D01*
X98790993Y-80336942D01*
X98750726Y-80386122D01*
X98746556Y-80389134D01*
X98721402Y-80403175D01*
X98576093Y-80463362D01*
X98576083Y-80463367D01*
X98412215Y-80572861D01*
X98412214Y-80572862D01*
X98412208Y-80572867D01*
X98272867Y-80712208D01*
X98272862Y-80712214D01*
X98272861Y-80712215D01*
X98163375Y-80876072D01*
X98163365Y-80876089D01*
X98163360Y-80876098D01*
X98087958Y-81058137D01*
X98087945Y-81058176D01*
X98049500Y-81251451D01*
X98049500Y-81404174D01*
X98044237Y-81422094D01*
X98087945Y-81641822D01*
X98087946Y-81641826D01*
X98087947Y-81641829D01*
X98087950Y-81641839D01*
X98087953Y-81641847D01*
X98087958Y-81641861D01*
X98163360Y-81823900D01*
X98163365Y-81823909D01*
X98163375Y-81823926D01*
X98272861Y-81987783D01*
X98272862Y-81987784D01*
X98272867Y-81987790D01*
X98412208Y-82127131D01*
X98412214Y-82127136D01*
X98412218Y-82127139D01*
X98576079Y-82236628D01*
X98576092Y-82236635D01*
X98697360Y-82286865D01*
X98752553Y-82309726D01*
X98756963Y-82311812D01*
X98951453Y-82350500D01*
X99148543Y-82350500D01*
X99148544Y-82350500D01*
X99170216Y-82346188D01*
X99278582Y-82324632D01*
X99278583Y-82324632D01*
X99291301Y-82322102D01*
X99341835Y-82312051D01*
X99523914Y-82236632D01*
X99687782Y-82127139D01*
X99827139Y-81987782D01*
X99936632Y-81823914D01*
X100012051Y-81641835D01*
X100038741Y-81507656D01*
X100048236Y-81459924D01*
X100050500Y-81448544D01*
X100050500Y-81251453D01*
X100011812Y-81056962D01*
X100009725Y-81052550D01*
X99981895Y-80985361D01*
X99951895Y-80912934D01*
X99936635Y-80876092D01*
X99936628Y-80876079D01*
X99827139Y-80712218D01*
X99827136Y-80712214D01*
X99827131Y-80712208D01*
X99687790Y-80572867D01*
X99687784Y-80572862D01*
X99687783Y-80572861D01*
X99523926Y-80463375D01*
X99523925Y-80463374D01*
X99523920Y-80463371D01*
X99523907Y-80463364D01*
X99431789Y-80425208D01*
X99379079Y-80403375D01*
X99347360Y-80377815D01*
X99321630Y-80359291D01*
X99308669Y-80326424D01*
X99307840Y-80324708D01*
X99307336Y-80323044D01*
X99295999Y-80294292D01*
X99309578Y-80225754D01*
X99358055Y-80175438D01*
X99390883Y-80162493D01*
X99395860Y-80161313D01*
X99424271Y-80157969D01*
X103119274Y-80152477D01*
X103119277Y-80152478D01*
X103143985Y-80152441D01*
X103143986Y-80152442D01*
X103170221Y-80152403D01*
X103175626Y-80152513D01*
X103181036Y-80152741D01*
X103186440Y-80153087D01*
X103356725Y-80167743D01*
X103367448Y-80169139D01*
X103378090Y-80171001D01*
X103388643Y-80173325D01*
X103545967Y-80215271D01*
X103556278Y-80218508D01*
X103566432Y-80222191D01*
X103576425Y-80226318D01*
X103724046Y-80294962D01*
X103733647Y-80299948D01*
X103743003Y-80305338D01*
X103752116Y-80311131D01*
X103885555Y-80404386D01*
X103894131Y-80410954D01*
X103902425Y-80417901D01*
X103910411Y-80425208D01*
X104025596Y-80540222D01*
X104032913Y-80548195D01*
X104039864Y-80556468D01*
X104046456Y-80565048D01*
X104139895Y-80698328D01*
X104145719Y-80707460D01*
X104151119Y-80716803D01*
X104156122Y-80726402D01*
X104224975Y-80873899D01*
X104229122Y-80883901D01*
X104232819Y-80894048D01*
X104236078Y-80904374D01*
X104278244Y-81061586D01*
X104280591Y-81072166D01*
X104282467Y-81082800D01*
X104283880Y-81093526D01*
X104298805Y-81263963D01*
X104299143Y-81269002D01*
X104299365Y-81273761D01*
X104299500Y-81279539D01*
X104299500Y-81315476D01*
X104299743Y-81325926D01*
X104299648Y-81326278D01*
X104299775Y-81328196D01*
X104311998Y-83799937D01*
X104312000Y-83800550D01*
X104312000Y-83900660D01*
X104346955Y-84098907D01*
X104383949Y-84200545D01*
X104385324Y-84204322D01*
X104410228Y-84272745D01*
X104415809Y-84288077D01*
X104415812Y-84288084D01*
X104440012Y-84330000D01*
X104493242Y-84422198D01*
X104505438Y-84443321D01*
X104518555Y-84476087D01*
X104519554Y-84480201D01*
X104522241Y-84491279D01*
X104518920Y-84561052D01*
X104518327Y-84562766D01*
X104484559Y-84613971D01*
X104476002Y-84621751D01*
X104468116Y-84628344D01*
X104466592Y-84629514D01*
X104459967Y-84636139D01*
X104459966Y-84636138D01*
X104441300Y-84654805D01*
X104392024Y-84704081D01*
X104392018Y-84704088D01*
X104339296Y-84795406D01*
X104339292Y-84795413D01*
X104319693Y-84868562D01*
X104312000Y-84897273D01*
X104312000Y-85002727D01*
X104339293Y-85104587D01*
X104388638Y-85190056D01*
X104388642Y-85190063D01*
X104388641Y-85190063D01*
X104392020Y-85195914D01*
X104392022Y-85195916D01*
X104437513Y-85241406D01*
X104440465Y-85244460D01*
X104471384Y-85277572D01*
X104471267Y-85277726D01*
X104483919Y-85290996D01*
X104484390Y-85291501D01*
X104499812Y-85322199D01*
X104515519Y-85352669D01*
X104515455Y-85353335D01*
X104515756Y-85353934D01*
X104512181Y-85387644D01*
X104508884Y-85422195D01*
X104508279Y-85423707D01*
X104474355Y-85471354D01*
X104451684Y-85490998D01*
X104450103Y-85494882D01*
X104440764Y-85505341D01*
X104392024Y-85554081D01*
X104392018Y-85554088D01*
X104339295Y-85645408D01*
X104339292Y-85645413D01*
X104316008Y-85732316D01*
X104312000Y-85747273D01*
X104312000Y-85852727D01*
X104339293Y-85954587D01*
X104356016Y-85983553D01*
X104392021Y-86045914D01*
X104392023Y-86045917D01*
X104437513Y-86091406D01*
X104440465Y-86094460D01*
X104471384Y-86127572D01*
X104471267Y-86127726D01*
X104483914Y-86140991D01*
X104484390Y-86141501D01*
X104499812Y-86172199D01*
X104515519Y-86202669D01*
X104515455Y-86203335D01*
X104515756Y-86203934D01*
X104512181Y-86237644D01*
X104508884Y-86272195D01*
X104508279Y-86273707D01*
X104474355Y-86321354D01*
X104451684Y-86340998D01*
X104450103Y-86344882D01*
X104440764Y-86355341D01*
X104392024Y-86404081D01*
X104392019Y-86404088D01*
X104339293Y-86495411D01*
X104319563Y-86569048D01*
X104312000Y-86597273D01*
X104312000Y-86702727D01*
X104339293Y-86804587D01*
X104392020Y-86895913D01*
X104439047Y-86942940D01*
X104471277Y-86975170D01*
X104477201Y-86980491D01*
X104486512Y-86990255D01*
X104492055Y-86996068D01*
X104524071Y-87058170D01*
X104524075Y-87058190D01*
X104524417Y-87059966D01*
X104520766Y-87121171D01*
X104518411Y-87128538D01*
X104507711Y-87152738D01*
X104505785Y-87156077D01*
X104505760Y-87156120D01*
X104415816Y-87311906D01*
X104415814Y-87311911D01*
X104415807Y-87311927D01*
X104346954Y-87501096D01*
X104312000Y-87699338D01*
X104312000Y-87798634D01*
X104311999Y-87799233D01*
X104311997Y-87799647D01*
X104311994Y-87800081D01*
X104299902Y-89250947D01*
X104299500Y-89254400D01*
X104299500Y-89265649D01*
X104299500Y-89299394D01*
X104299496Y-89299875D01*
X104299496Y-89299881D01*
X104299176Y-89338230D01*
X104299500Y-89341661D01*
X104299500Y-89400660D01*
X104334454Y-89598902D01*
X104334455Y-89598907D01*
X104334456Y-89598908D01*
X104403309Y-89788077D01*
X104403312Y-89788084D01*
X104403314Y-89788087D01*
X104403314Y-89788089D01*
X104408923Y-89797803D01*
X104409903Y-89799500D01*
X104452042Y-89872488D01*
X104492938Y-89943321D01*
X104506055Y-89976087D01*
X104508707Y-89987017D01*
X104509741Y-89991279D01*
X104506420Y-90061052D01*
X104505827Y-90062766D01*
X104472059Y-90113971D01*
X104463502Y-90121751D01*
X104455616Y-90128344D01*
X104454092Y-90129514D01*
X104447467Y-90136139D01*
X104447466Y-90136138D01*
X104428800Y-90154805D01*
X104379524Y-90204081D01*
X104379518Y-90204088D01*
X104326796Y-90295406D01*
X104326792Y-90295413D01*
X104299501Y-90397271D01*
X104299500Y-90397273D01*
X104299500Y-90502728D01*
X104322371Y-90588087D01*
X104322374Y-90588093D01*
X104326793Y-90604585D01*
X104326793Y-90604586D01*
X104326794Y-90604589D01*
X104340922Y-90629059D01*
X104379520Y-90695913D01*
X104454087Y-90770480D01*
X104545413Y-90823207D01*
X104647273Y-90850500D01*
X104647275Y-90850500D01*
X104752725Y-90850500D01*
X104752727Y-90850500D01*
X104854587Y-90823207D01*
X104945913Y-90770480D01*
X105020480Y-90695913D01*
X105073207Y-90604587D01*
X105091067Y-90537926D01*
X105104957Y-90505489D01*
X105113096Y-90492136D01*
X105164784Y-90445146D01*
X105168999Y-90443098D01*
X105223684Y-90430634D01*
X105226397Y-90430645D01*
X105247422Y-90432527D01*
X105349344Y-90450500D01*
X105349346Y-90450500D01*
X105550654Y-90450500D01*
X105550656Y-90450500D01*
X105645456Y-90433783D01*
X105680729Y-90432664D01*
X105690672Y-90433772D01*
X105696263Y-90434396D01*
X105760706Y-90461387D01*
X105763539Y-90463689D01*
X105764347Y-90464345D01*
X105798734Y-90508611D01*
X105799870Y-90511072D01*
X105807061Y-90530948D01*
X105818188Y-90572475D01*
X105826792Y-90604585D01*
X105826793Y-90604586D01*
X105826794Y-90604589D01*
X105840922Y-90629059D01*
X105879520Y-90695913D01*
X105954087Y-90770480D01*
X106045413Y-90823207D01*
X106147273Y-90850500D01*
X106147275Y-90850500D01*
X106252725Y-90850500D01*
X106252727Y-90850500D01*
X106354587Y-90823207D01*
X106445913Y-90770480D01*
X106520480Y-90695913D01*
X106573207Y-90604587D01*
X106600500Y-90502727D01*
X106600500Y-90427525D01*
X110049500Y-90427525D01*
X110049500Y-90572475D01*
X110050849Y-90577509D01*
X110085129Y-90705445D01*
X110087016Y-90712486D01*
X110159485Y-90838006D01*
X110159490Y-90838014D01*
X110159491Y-90838015D01*
X110159493Y-90838017D01*
X110221190Y-90899714D01*
X110242341Y-90927970D01*
X110249832Y-90941690D01*
X110264683Y-91009948D01*
X110264554Y-91011754D01*
X110245183Y-91069960D01*
X110241003Y-91076464D01*
X110224371Y-91097104D01*
X110159489Y-91161986D01*
X110159485Y-91161992D01*
X110087017Y-91287509D01*
X110086989Y-91287578D01*
X110086748Y-91288511D01*
X110049747Y-91426603D01*
X110049500Y-91427525D01*
X110049500Y-91572475D01*
X110076674Y-91673887D01*
X110076673Y-91673887D01*
X110087016Y-91712487D01*
X110087018Y-91712491D01*
X110159485Y-91838006D01*
X110159490Y-91838014D01*
X110159491Y-91838015D01*
X110159493Y-91838017D01*
X110221190Y-91899714D01*
X110242341Y-91927970D01*
X110249832Y-91941690D01*
X110264683Y-92009948D01*
X110264554Y-92011754D01*
X110245183Y-92069960D01*
X110241003Y-92076464D01*
X110224371Y-92097104D01*
X110194128Y-92127346D01*
X110159493Y-92161982D01*
X110159491Y-92161984D01*
X110159489Y-92161986D01*
X110159485Y-92161992D01*
X110087017Y-92287509D01*
X110086989Y-92287578D01*
X110086748Y-92288511D01*
X110057970Y-92395914D01*
X110049500Y-92427525D01*
X110049500Y-92572475D01*
X110078366Y-92680202D01*
X110078365Y-92680202D01*
X110087016Y-92712486D01*
X110087018Y-92712491D01*
X110157631Y-92834795D01*
X110159489Y-92838013D01*
X110261985Y-92940509D01*
X110262674Y-92941005D01*
X110265178Y-92942353D01*
X110384069Y-93010995D01*
X110387087Y-93012869D01*
X110387514Y-93012983D01*
X110387515Y-93012984D01*
X110527525Y-93050500D01*
X110527528Y-93050500D01*
X110672472Y-93050500D01*
X110672475Y-93050500D01*
X110812485Y-93012984D01*
X110938015Y-92940509D01*
X111040509Y-92838015D01*
X111078163Y-92772797D01*
X111102082Y-92731368D01*
X111112896Y-92715589D01*
X111119789Y-92707030D01*
X111119791Y-92707031D01*
X111128709Y-92695958D01*
X111186090Y-92656100D01*
X111255914Y-92653591D01*
X111316009Y-92689228D01*
X111326339Y-92700318D01*
X111342991Y-92722835D01*
X111407634Y-92834801D01*
X111409487Y-92838011D01*
X111511985Y-92940509D01*
X111512674Y-92941005D01*
X111515178Y-92942353D01*
X111634069Y-93010995D01*
X111637087Y-93012869D01*
X111637514Y-93012983D01*
X111637515Y-93012984D01*
X111777525Y-93050500D01*
X111777528Y-93050500D01*
X111922472Y-93050500D01*
X111922475Y-93050500D01*
X112062485Y-93012984D01*
X112188015Y-92940509D01*
X112290509Y-92838015D01*
X112362984Y-92712485D01*
X112400500Y-92572475D01*
X112400500Y-92427525D01*
X112362984Y-92287515D01*
X112314123Y-92202886D01*
X112290511Y-92161988D01*
X112290506Y-92161982D01*
X112224449Y-92095925D01*
X112220544Y-92091155D01*
X112218682Y-92086756D01*
X112207658Y-92072029D01*
X112206528Y-92069960D01*
X112200167Y-92058309D01*
X112193320Y-92026841D01*
X112193308Y-92026812D01*
X112193310Y-92026796D01*
X112185316Y-91990051D01*
X112185445Y-91988242D01*
X112204811Y-91930047D01*
X112209004Y-91923523D01*
X112225732Y-91902791D01*
X112226024Y-91902500D01*
X112290509Y-91838015D01*
X112362984Y-91712485D01*
X112400500Y-91572475D01*
X112400500Y-91427525D01*
X112362984Y-91287515D01*
X112356993Y-91277139D01*
X112290511Y-91161988D01*
X112290510Y-91161986D01*
X112290509Y-91161985D01*
X112228812Y-91100288D01*
X112221628Y-91090691D01*
X123374500Y-91090691D01*
X123374500Y-91209309D01*
X123405201Y-91323886D01*
X123464511Y-91426613D01*
X123548387Y-91510489D01*
X123651114Y-91569799D01*
X123765691Y-91600500D01*
X123765694Y-91600500D01*
X123884306Y-91600500D01*
X123884309Y-91600500D01*
X123998886Y-91569799D01*
X124101613Y-91510489D01*
X124185489Y-91426613D01*
X124244799Y-91323886D01*
X124275500Y-91209309D01*
X124275500Y-91090691D01*
X124244799Y-90976114D01*
X124185489Y-90873387D01*
X124101613Y-90789511D01*
X123998886Y-90730201D01*
X123884309Y-90699500D01*
X123884306Y-90699500D01*
X123765691Y-90699500D01*
X123674728Y-90723873D01*
X123674723Y-90723874D01*
X123651114Y-90730201D01*
X123651112Y-90730201D01*
X123651112Y-90730202D01*
X123629947Y-90742421D01*
X123629939Y-90742425D01*
X123548386Y-90789511D01*
X123548378Y-90789517D01*
X123464517Y-90873378D01*
X123464513Y-90873383D01*
X123442033Y-90912319D01*
X123405201Y-90976114D01*
X123374500Y-91090691D01*
X112221628Y-91090691D01*
X112207660Y-91072032D01*
X112200168Y-91058311D01*
X112185316Y-90990051D01*
X112185445Y-90988242D01*
X112204811Y-90930047D01*
X112209004Y-90923523D01*
X112225622Y-90902901D01*
X112252140Y-90876384D01*
X112290509Y-90838015D01*
X112362984Y-90712485D01*
X112400500Y-90572475D01*
X112400500Y-90540691D01*
X121274500Y-90540691D01*
X121274500Y-90659309D01*
X121305201Y-90773886D01*
X121364511Y-90876613D01*
X121448387Y-90960489D01*
X121551114Y-91019799D01*
X121665691Y-91050500D01*
X121665694Y-91050500D01*
X121784306Y-91050500D01*
X121784309Y-91050500D01*
X121898886Y-91019799D01*
X122001613Y-90960489D01*
X122085489Y-90876613D01*
X122144799Y-90773886D01*
X122175500Y-90659309D01*
X122175500Y-90540691D01*
X122144799Y-90426114D01*
X122085489Y-90323387D01*
X122001613Y-90239511D01*
X121898886Y-90180201D01*
X121784309Y-90149500D01*
X121784306Y-90149500D01*
X121665691Y-90149500D01*
X121574728Y-90173873D01*
X121574723Y-90173874D01*
X121551114Y-90180201D01*
X121551112Y-90180201D01*
X121551112Y-90180202D01*
X121529947Y-90192421D01*
X121529939Y-90192425D01*
X121448386Y-90239511D01*
X121448378Y-90239517D01*
X121364517Y-90323378D01*
X121364513Y-90323383D01*
X121364509Y-90323389D01*
X121364507Y-90323391D01*
X121332285Y-90379203D01*
X121332284Y-90379204D01*
X121321853Y-90397273D01*
X121305201Y-90426114D01*
X121274500Y-90540691D01*
X112400500Y-90540691D01*
X112400500Y-90427525D01*
X112362984Y-90287515D01*
X112318519Y-90210500D01*
X112290511Y-90161988D01*
X112290506Y-90161982D01*
X112290493Y-90161968D01*
X112188030Y-90059505D01*
X112188014Y-90059490D01*
X112188011Y-90059488D01*
X112140006Y-90031772D01*
X112140004Y-90031771D01*
X112062488Y-89987017D01*
X112062489Y-89987017D01*
X112011621Y-89973387D01*
X112002348Y-89970902D01*
X112002343Y-89970900D01*
X111940404Y-89954304D01*
X111922475Y-89949500D01*
X111922474Y-89949500D01*
X111777525Y-89949500D01*
X111688379Y-89973386D01*
X111688379Y-89973387D01*
X111665948Y-89979397D01*
X111637506Y-89987018D01*
X111511992Y-90059485D01*
X111511984Y-90059490D01*
X111511968Y-90059505D01*
X111409505Y-90161968D01*
X111409490Y-90161984D01*
X111409485Y-90161991D01*
X111347901Y-90268660D01*
X111337064Y-90284468D01*
X111321276Y-90304059D01*
X111263883Y-90343906D01*
X111194058Y-90346399D01*
X111133970Y-90310745D01*
X111133968Y-90310744D01*
X111132629Y-90309306D01*
X111123623Y-90299632D01*
X111106994Y-90277139D01*
X111040513Y-90161990D01*
X111040508Y-90161984D01*
X111040493Y-90161968D01*
X110938030Y-90059505D01*
X110938014Y-90059490D01*
X110938011Y-90059488D01*
X110890006Y-90031772D01*
X110890004Y-90031771D01*
X110812488Y-89987017D01*
X110812489Y-89987017D01*
X110761621Y-89973387D01*
X110752348Y-89970902D01*
X110752343Y-89970900D01*
X110690404Y-89954304D01*
X110672475Y-89949500D01*
X110672474Y-89949500D01*
X110527525Y-89949500D01*
X110438379Y-89973386D01*
X110438379Y-89973387D01*
X110415948Y-89979397D01*
X110387506Y-89987018D01*
X110261992Y-90059485D01*
X110261984Y-90059490D01*
X110261968Y-90059505D01*
X110159505Y-90161968D01*
X110159490Y-90161984D01*
X110159485Y-90161992D01*
X110087080Y-90287400D01*
X110087079Y-90287402D01*
X110087017Y-90287511D01*
X110084900Y-90295413D01*
X110049500Y-90427525D01*
X106600500Y-90427525D01*
X106600500Y-90397273D01*
X106573207Y-90295413D01*
X106520480Y-90204087D01*
X106445913Y-90129520D01*
X106441238Y-90124845D01*
X106435289Y-90119502D01*
X106420438Y-90103924D01*
X106388427Y-90041821D01*
X106388423Y-90041799D01*
X106388080Y-90040017D01*
X106391733Y-89978822D01*
X106394090Y-89971449D01*
X106404812Y-89947217D01*
X106496690Y-89788080D01*
X106565543Y-89598909D01*
X106600500Y-89400656D01*
X106600500Y-89301141D01*
X106600504Y-89300108D01*
X106603298Y-88964820D01*
X106612713Y-87834945D01*
X106613000Y-87834351D01*
X106613000Y-87800598D01*
X106613244Y-87771319D01*
X106613243Y-87771318D01*
X106613379Y-87755006D01*
X106613000Y-87752403D01*
X106613000Y-87699341D01*
X106612982Y-87699168D01*
X106612754Y-87697951D01*
X106609152Y-87677523D01*
X106578043Y-87501091D01*
X106573100Y-87487511D01*
X106509190Y-87311920D01*
X106507786Y-87309488D01*
X106419559Y-87156672D01*
X106406444Y-87123915D01*
X106402758Y-87108722D01*
X106406080Y-87038937D01*
X106406685Y-87037191D01*
X106440443Y-86986025D01*
X106449027Y-86978222D01*
X106456948Y-86971604D01*
X106458410Y-86970482D01*
X106458410Y-86970481D01*
X106458413Y-86970480D01*
X106532980Y-86895913D01*
X106585707Y-86804587D01*
X106613000Y-86702727D01*
X106613000Y-86597273D01*
X106585707Y-86495413D01*
X106532980Y-86404087D01*
X106487468Y-86358575D01*
X106484517Y-86355522D01*
X106453613Y-86322426D01*
X106453734Y-86322270D01*
X106441043Y-86308964D01*
X106440607Y-86308497D01*
X106425184Y-86277798D01*
X106409483Y-86247354D01*
X106409547Y-86246674D01*
X106409241Y-86246064D01*
X106412852Y-86212010D01*
X106416112Y-86177807D01*
X106416717Y-86176296D01*
X106450635Y-86128657D01*
X106452924Y-86126674D01*
X106452923Y-86126673D01*
X106473306Y-86109011D01*
X106474892Y-86105119D01*
X106484214Y-86094678D01*
X106532980Y-86045913D01*
X106585707Y-85954587D01*
X106587573Y-85947622D01*
X107094237Y-85947622D01*
X107124494Y-86099726D01*
X107124495Y-86099732D01*
X107124502Y-86099753D01*
X107173529Y-86218118D01*
X107173534Y-86218128D01*
X107244724Y-86324670D01*
X107244725Y-86324671D01*
X107244730Y-86324677D01*
X107335325Y-86415272D01*
X107335331Y-86415276D01*
X107360352Y-86431994D01*
X107386606Y-86455578D01*
X107395508Y-86466230D01*
X107423391Y-86530295D01*
X107412212Y-86599265D01*
X107412210Y-86599267D01*
X107409949Y-86603992D01*
X107366988Y-86653569D01*
X107335350Y-86674708D01*
X107335336Y-86674718D01*
X107335322Y-86674729D01*
X107244730Y-86765321D01*
X107244725Y-86765327D01*
X107244724Y-86765328D01*
X107173534Y-86871870D01*
X107173529Y-86871880D01*
X107124502Y-86990245D01*
X107124495Y-86990265D01*
X107124493Y-86990273D01*
X107099500Y-87115923D01*
X107099500Y-87199702D01*
X107094237Y-87217622D01*
X107124494Y-87369726D01*
X107124495Y-87369732D01*
X107124502Y-87369753D01*
X107173529Y-87488118D01*
X107173534Y-87488128D01*
X107244724Y-87594670D01*
X107244732Y-87594682D01*
X107247368Y-87598196D01*
X107246931Y-87598523D01*
X107257528Y-87613777D01*
X107265017Y-87627492D01*
X107279869Y-87695765D01*
X107255452Y-87761229D01*
X107206689Y-87800168D01*
X107179846Y-87812138D01*
X107173823Y-87819821D01*
X107170637Y-87822023D01*
X107141496Y-87841494D01*
X107141493Y-87841497D01*
X107108236Y-87891270D01*
X107108230Y-87891281D01*
X107108230Y-87891283D01*
X107099500Y-87935172D01*
X107099500Y-87935176D01*
X107099500Y-87935177D01*
X107099500Y-87935180D01*
X107099500Y-88964820D01*
X107099500Y-88964822D01*
X107099499Y-88964822D01*
X107108231Y-89008717D01*
X107108234Y-89008724D01*
X107109576Y-89010732D01*
X107139883Y-89056091D01*
X107141493Y-89058501D01*
X107141495Y-89058502D01*
X107141496Y-89058504D01*
X107175990Y-89081552D01*
X107181131Y-89084987D01*
X107186388Y-89088500D01*
X107191278Y-89091767D01*
X107192014Y-89092259D01*
X107197113Y-89093536D01*
X107197156Y-89093549D01*
X107203255Y-89094149D01*
X107218326Y-89097148D01*
X107235176Y-89100500D01*
X108264822Y-89100500D01*
X108264824Y-89100500D01*
X108296745Y-89094150D01*
X108300880Y-89093326D01*
X108308717Y-89091768D01*
X108308717Y-89091767D01*
X108308718Y-89091767D01*
X108308722Y-89091767D01*
X108308723Y-89091765D01*
X108313868Y-89090742D01*
X108324006Y-89081554D01*
X108358504Y-89058504D01*
X108391767Y-89008722D01*
X108400500Y-88964820D01*
X108400500Y-87935180D01*
X108400500Y-87935177D01*
X108391768Y-87891282D01*
X108391767Y-87891281D01*
X108391767Y-87891278D01*
X108358504Y-87841496D01*
X108358502Y-87841495D01*
X108358502Y-87841494D01*
X108333885Y-87825045D01*
X108333859Y-87825029D01*
X108330037Y-87822475D01*
X108308724Y-87808234D01*
X108303240Y-87805962D01*
X108297834Y-87802595D01*
X108298386Y-87801263D01*
X108281557Y-87792459D01*
X108277605Y-87789999D01*
X108257324Y-87767257D01*
X108235398Y-87746099D01*
X108234295Y-87741431D01*
X108231103Y-87737852D01*
X108226336Y-87707753D01*
X108219330Y-87678102D01*
X108220873Y-87673250D01*
X108220175Y-87668842D01*
X108227768Y-87651567D01*
X108238241Y-87618635D01*
X108242833Y-87611349D01*
X108251884Y-87598800D01*
X108255265Y-87594679D01*
X108255276Y-87594669D01*
X108326465Y-87488127D01*
X108375501Y-87369744D01*
X108387005Y-87311911D01*
X108397432Y-87259495D01*
X108397433Y-87259491D01*
X108400500Y-87244075D01*
X108400500Y-87115925D01*
X108375295Y-86989220D01*
X108373724Y-86985947D01*
X108373473Y-86985362D01*
X108326465Y-86871873D01*
X108326464Y-86871872D01*
X108326461Y-86871866D01*
X108255276Y-86765331D01*
X108255273Y-86765327D01*
X108242742Y-86752796D01*
X108242733Y-86752788D01*
X108164669Y-86674724D01*
X108127885Y-86650145D01*
X108121366Y-86644312D01*
X108115545Y-86634930D01*
X108099374Y-86618377D01*
X108097443Y-86615336D01*
X108097441Y-86615333D01*
X108095274Y-86611921D01*
X108096778Y-86610965D01*
X108091407Y-86596020D01*
X108084533Y-86584940D01*
X108084655Y-86577233D01*
X108075595Y-86552022D01*
X108089617Y-86491086D01*
X108087990Y-86490308D01*
X108089740Y-86486648D01*
X108089743Y-86486644D01*
X108090036Y-86486029D01*
X108091050Y-86484859D01*
X108091264Y-86483932D01*
X108091287Y-86483892D01*
X108091766Y-86483040D01*
X108092345Y-86483365D01*
X108133010Y-86436430D01*
X108148551Y-86426045D01*
X108164669Y-86415276D01*
X108255276Y-86324669D01*
X108326465Y-86218127D01*
X108375501Y-86099744D01*
X108394797Y-86002741D01*
X108400500Y-85974071D01*
X108400500Y-85845928D01*
X108400500Y-85845925D01*
X108375262Y-85719055D01*
X108373176Y-85714644D01*
X108326465Y-85601873D01*
X108326464Y-85601872D01*
X108326461Y-85601866D01*
X108296833Y-85557525D01*
X110452139Y-85557525D01*
X110452139Y-85702475D01*
X110456905Y-85720260D01*
X110489652Y-85842477D01*
X110489655Y-85842485D01*
X110489656Y-85842488D01*
X110535050Y-85921112D01*
X110560270Y-85964795D01*
X110562128Y-85968013D01*
X110664624Y-86070509D01*
X110665313Y-86071005D01*
X110667817Y-86072353D01*
X110786708Y-86140995D01*
X110789726Y-86142869D01*
X110790153Y-86142983D01*
X110790154Y-86142984D01*
X110930164Y-86180500D01*
X110930167Y-86180500D01*
X111075111Y-86180500D01*
X111075114Y-86180500D01*
X111215124Y-86142984D01*
X111340654Y-86070509D01*
X111443148Y-85968015D01*
X111515623Y-85842485D01*
X111553139Y-85702475D01*
X111553139Y-85557525D01*
X112302139Y-85557525D01*
X112302139Y-85702475D01*
X112306905Y-85720260D01*
X112339652Y-85842477D01*
X112339655Y-85842485D01*
X112339656Y-85842488D01*
X112385050Y-85921112D01*
X112410270Y-85964795D01*
X112412128Y-85968013D01*
X112514624Y-86070509D01*
X112515313Y-86071005D01*
X112517817Y-86072353D01*
X112636708Y-86140995D01*
X112639726Y-86142869D01*
X112640153Y-86142983D01*
X112640154Y-86142984D01*
X112780164Y-86180500D01*
X112780167Y-86180500D01*
X112925111Y-86180500D01*
X112925114Y-86180500D01*
X113065124Y-86142984D01*
X113190654Y-86070509D01*
X113293148Y-85968015D01*
X113365623Y-85842485D01*
X113403139Y-85702475D01*
X113403139Y-85557525D01*
X113365623Y-85417515D01*
X113365621Y-85417512D01*
X113365622Y-85417512D01*
X113358239Y-85404725D01*
X113358238Y-85404724D01*
X113293152Y-85291991D01*
X113293147Y-85291984D01*
X113293132Y-85291968D01*
X113190669Y-85189505D01*
X113190653Y-85189490D01*
X113190650Y-85189488D01*
X113168348Y-85176612D01*
X113136879Y-85158443D01*
X113108446Y-85128623D01*
X113018747Y-85104589D01*
X112971930Y-85092044D01*
X112925114Y-85079500D01*
X112925113Y-85079500D01*
X112780164Y-85079500D01*
X112686531Y-85104589D01*
X112686530Y-85104588D01*
X112640151Y-85117016D01*
X112640146Y-85117018D01*
X112514631Y-85189485D01*
X112514623Y-85189490D01*
X112514607Y-85189505D01*
X112412144Y-85291968D01*
X112412129Y-85291984D01*
X112412124Y-85291992D01*
X112339656Y-85417509D01*
X112339628Y-85417578D01*
X112339387Y-85418511D01*
X112304022Y-85550499D01*
X112302139Y-85557525D01*
X111553139Y-85557525D01*
X111515623Y-85417515D01*
X111508239Y-85404726D01*
X111459207Y-85319799D01*
X111443152Y-85291991D01*
X111443147Y-85291984D01*
X111443132Y-85291968D01*
X111340669Y-85189505D01*
X111340653Y-85189490D01*
X111340650Y-85189488D01*
X111318348Y-85176612D01*
X111286879Y-85158443D01*
X111258446Y-85128623D01*
X111168747Y-85104589D01*
X111121930Y-85092044D01*
X111075114Y-85079500D01*
X111075113Y-85079500D01*
X110930164Y-85079500D01*
X110836531Y-85104589D01*
X110836530Y-85104588D01*
X110790151Y-85117016D01*
X110790146Y-85117018D01*
X110664631Y-85189485D01*
X110664623Y-85189490D01*
X110664607Y-85189505D01*
X110562144Y-85291968D01*
X110562129Y-85291984D01*
X110562124Y-85291992D01*
X110489656Y-85417509D01*
X110489628Y-85417578D01*
X110489387Y-85418511D01*
X110454022Y-85550499D01*
X110452139Y-85557525D01*
X108296833Y-85557525D01*
X108255276Y-85495331D01*
X108255273Y-85495327D01*
X108255268Y-85495321D01*
X108164677Y-85404730D01*
X108164670Y-85404724D01*
X108058127Y-85333534D01*
X108058128Y-85333534D01*
X108058118Y-85333529D01*
X107939753Y-85284502D01*
X107939733Y-85284495D01*
X107939725Y-85284493D01*
X107814074Y-85259500D01*
X107814071Y-85259500D01*
X107814069Y-85259500D01*
X107685931Y-85259500D01*
X107685929Y-85259500D01*
X107685926Y-85259500D01*
X107560273Y-85284493D01*
X107560265Y-85284495D01*
X107560245Y-85284502D01*
X107441880Y-85333529D01*
X107441870Y-85333534D01*
X107335329Y-85404724D01*
X107335321Y-85404730D01*
X107244730Y-85495321D01*
X107244725Y-85495327D01*
X107244724Y-85495328D01*
X107173534Y-85601870D01*
X107173529Y-85601880D01*
X107124502Y-85720245D01*
X107124495Y-85720265D01*
X107124493Y-85720273D01*
X107099500Y-85845923D01*
X107099500Y-85929702D01*
X107094237Y-85947622D01*
X106587573Y-85947622D01*
X106613000Y-85852727D01*
X106613000Y-85747273D01*
X106585707Y-85645413D01*
X106532980Y-85554087D01*
X106487468Y-85508575D01*
X106484517Y-85505522D01*
X106453613Y-85472426D01*
X106453734Y-85472270D01*
X106441043Y-85458964D01*
X106440607Y-85458497D01*
X106425184Y-85427798D01*
X106409483Y-85397354D01*
X106409547Y-85396674D01*
X106409241Y-85396064D01*
X106412852Y-85362010D01*
X106416112Y-85327807D01*
X106416717Y-85326296D01*
X106450635Y-85278657D01*
X106452924Y-85276674D01*
X106452923Y-85276673D01*
X106473306Y-85259011D01*
X106474892Y-85255119D01*
X106484214Y-85244678D01*
X106532980Y-85195913D01*
X106585707Y-85104587D01*
X106613000Y-85002727D01*
X106613000Y-84897273D01*
X106585707Y-84795413D01*
X106532980Y-84704087D01*
X106458413Y-84629520D01*
X106453738Y-84624845D01*
X106447789Y-84619502D01*
X106432938Y-84603924D01*
X106400927Y-84541821D01*
X106400923Y-84541799D01*
X106400580Y-84540017D01*
X106404233Y-84478822D01*
X106406590Y-84471449D01*
X106417312Y-84447217D01*
X106509190Y-84288080D01*
X106578043Y-84098909D01*
X106613000Y-83900656D01*
X106613000Y-83829551D01*
X106613146Y-83829194D01*
X106613000Y-83799562D01*
X106613000Y-83765649D01*
X106613000Y-83753308D01*
X106612998Y-83753298D01*
X106612938Y-83752247D01*
X106612733Y-83745719D01*
X106611136Y-83421669D01*
X106622431Y-83382487D01*
X106629694Y-83351426D01*
X106679859Y-83302791D01*
X106748354Y-83288999D01*
X106813432Y-83314427D01*
X106837999Y-83339767D01*
X106841042Y-83343966D01*
X106855197Y-83369276D01*
X106875634Y-83418614D01*
X106927397Y-83543579D01*
X106927402Y-83543591D01*
X106927404Y-83543594D01*
X106978288Y-83631727D01*
X106978290Y-83631730D01*
X107081455Y-83810418D01*
X107081457Y-83810421D01*
X107081676Y-83810750D01*
X107082679Y-83812014D01*
X107269021Y-84054861D01*
X107269025Y-84054866D01*
X107269028Y-84054869D01*
X107269034Y-84054876D01*
X107269042Y-84054884D01*
X107486884Y-84272727D01*
X107486898Y-84272740D01*
X107486904Y-84272745D01*
X107731351Y-84460316D01*
X107855142Y-84531787D01*
X107887594Y-84550523D01*
X107994743Y-84612386D01*
X107996481Y-84613466D01*
X107997903Y-84614255D01*
X107998177Y-84614368D01*
X107998183Y-84614372D01*
X107998188Y-84614374D01*
X107998191Y-84614376D01*
X108282857Y-84732289D01*
X108580477Y-84812036D01*
X108885961Y-84852254D01*
X108885968Y-84852254D01*
X109194074Y-84852254D01*
X109194081Y-84852254D01*
X109499565Y-84812036D01*
X109797185Y-84732289D01*
X110081851Y-84614376D01*
X110082553Y-84613971D01*
X110137157Y-84582445D01*
X110348691Y-84460316D01*
X110593138Y-84272745D01*
X110701966Y-84163917D01*
X110811009Y-84054875D01*
X110811012Y-84054871D01*
X110998583Y-83810424D01*
X111152643Y-83543584D01*
X111270556Y-83258918D01*
X111350303Y-82961298D01*
X111390521Y-82655814D01*
X111390521Y-82347694D01*
X111350303Y-82042210D01*
X111270556Y-81744590D01*
X111152643Y-81459924D01*
X111152641Y-81459921D01*
X111152639Y-81459916D01*
X111152635Y-81459910D01*
X111152522Y-81459636D01*
X111151733Y-81458214D01*
X111150653Y-81456476D01*
X111097599Y-81364584D01*
X111032284Y-81251456D01*
X110998583Y-81193084D01*
X110959366Y-81141975D01*
X110878646Y-81036779D01*
X110878643Y-81036776D01*
X110878637Y-81036768D01*
X110811013Y-80948638D01*
X110811007Y-80948631D01*
X110593143Y-80730767D01*
X110593136Y-80730761D01*
X110593133Y-80730758D01*
X110593128Y-80730754D01*
X110387358Y-80572862D01*
X110348695Y-80543195D01*
X110348694Y-80543194D01*
X110348691Y-80543192D01*
X110234530Y-80477281D01*
X110234092Y-80477028D01*
X110081860Y-80389136D01*
X110081845Y-80389129D01*
X110081784Y-80389103D01*
X110045794Y-80374195D01*
X110014104Y-80348657D01*
X109988462Y-80330309D01*
X109976768Y-80300905D01*
X109975343Y-80298034D01*
X109974058Y-80294091D01*
X109962643Y-80265385D01*
X109976023Y-80196808D01*
X110024354Y-80146352D01*
X110057148Y-80133310D01*
X110062034Y-80132137D01*
X110090075Y-80128711D01*
X112777121Y-80108893D01*
X112780934Y-80108924D01*
G37*
%TD.AperFunction*%
%TD*%
M02*
