%TF.GenerationSoftware,KiCad,Pcbnew,10.0.0*%
%TF.CreationDate,2026-06-13T21:44:01-06:00*%
%TF.ProjectId,Burnwing,4275726e-7769-46e6-972e-6b696361645f,Rev 1*%
%TF.SameCoordinates,Original*%
%TF.FileFunction,Soldermask,Bot*%
%TF.FilePolarity,Negative*%
%FSLAX46Y46*%
G04 Gerber Fmt 4.6, Leading zero omitted, Abs format (unit mm)*
G04 Created by KiCad (PCBNEW 10.0.0) date 2026-06-13 21:44:01*
%MOMM*%
%LPD*%
G01*
G04 APERTURE LIST*
%ADD10C,4.400000*%
%ADD11C,0.650000*%
%ADD12O,2.101600X1.101600*%
%ADD13R,1.000000X1.000000*%
%ADD14O,1.000000X1.000000*%
%ADD15C,1.700000*%
%ADD16O,1.700000X1.700000*%
%ADD17C,0.500000*%
%ADD18C,1.600000*%
%ADD19O,1.600000X1.600000*%
G04 APERTURE END LIST*
D10*
%TO.C,H2*%
X125840000Y-82589900D03*
%TD*%
%TO.C,H4*%
X80094400Y-100371200D03*
%TD*%
D11*
%TO.C,J2*%
X82590400Y-88613000D03*
X82590400Y-94393000D03*
D12*
X83090400Y-87183000D03*
X78910400Y-87183000D03*
X83090400Y-95823000D03*
X78910400Y-95823000D03*
%TD*%
D13*
%TO.C,JP1*%
X107750000Y-88450000D03*
D14*
X107750000Y-87180000D03*
X107750000Y-85910000D03*
%TD*%
D15*
%TO.C,J1*%
X96510000Y-81350000D03*
D16*
X99050000Y-81350000D03*
%TD*%
D17*
%TO.C,REF\u002A\u002A*%
X106200000Y-90450000D03*
X104700000Y-90450000D03*
X106200000Y-92150000D03*
X104700000Y-92150000D03*
%TD*%
D18*
%TO.C,R13*%
X123790000Y-97120000D03*
X121940000Y-97120000D03*
D19*
X112940000Y-97120000D03*
X111090000Y-97120000D03*
%TD*%
D17*
%TO.C,REF\u002A\u002A*%
X106212500Y-84950000D03*
X104712500Y-84950000D03*
X106212500Y-85800000D03*
X104712500Y-85800000D03*
X106212500Y-86650000D03*
X104712500Y-86650000D03*
%TD*%
D10*
%TO.C,H3*%
X109040021Y-82501754D03*
%TD*%
%TO.C,H6*%
X125832900Y-100371200D03*
%TD*%
D18*
%TO.C,R12*%
X111002639Y-85630000D03*
X112852639Y-85630000D03*
X121852639Y-85630000D03*
X123702639Y-85630000D03*
%TD*%
D17*
%TO.C,REF\u002A\u002A*%
X106212500Y-96050000D03*
X104712500Y-96050000D03*
X106212500Y-96900000D03*
X104712500Y-96900000D03*
X106212500Y-97750000D03*
X104712500Y-97750000D03*
%TD*%
D10*
%TO.C,H1*%
X80154400Y-82651200D03*
%TD*%
%TO.C,H5*%
X109032921Y-100283054D03*
%TD*%
D13*
%TO.C,JP2*%
X107750000Y-94525000D03*
D14*
X107750000Y-95795000D03*
X107750000Y-97065000D03*
%TD*%
M02*
