M48
; DRILL file {KiCad 9.0.0} date 2025-07-16T19:02:16-0600
; FORMAT={-:-/ absolute / inch / decimal}
; #@! TF.CreationDate,2025-07-16T19:02:16-06:00
; #@! TF.GenerationSoftware,Kicad,Pcbnew,9.0.0
; #@! TF.FileFunction,Plated,1,2,PTH
FMAT,2
INCH
; #@! TA.AperFunction,Plated,PTH,ViaDrill
T1C0.0118
; #@! TA.AperFunction,Plated,PTH,ViaDrill
T2C0.0155
; #@! TA.AperFunction,Plated,PTH,ViaDrill
T3C0.0197
; #@! TA.AperFunction,Plated,PTH,ComponentDrill
T4C0.0197
; #@! TA.AperFunction,Plated,PTH,ComponentDrill
T5C0.0236
; #@! TA.AperFunction,Plated,PTH,ComponentDrill
T6C0.0315
; #@! TA.AperFunction,Plated,PTH,ComponentDrill
T7C0.0866
%
G90
G05
T1
X3.3075Y-3.8319
X3.3555Y-3.7728
X3.475Y-3.8596
X3.5394Y-3.422
X3.937Y-3.3386
X4.0374Y-3.2156
X4.0866Y-3.2156
X4.1358Y-3.2156
X4.1831Y-3.2156
X4.2343Y-3.2156
X4.2835Y-3.2156
X4.8898Y-3.4449
X4.8898Y-3.7559
X5.0157Y-3.4449
X5.0157Y-3.7559
T2
X3.2386Y-3.6209
X3.2402Y-3.5655
X3.3567Y-3.5803
X3.3646Y-3.6682
T3
X3.1018Y-3.7025
X3.1024Y-3.5039
X3.3561Y-3.5055
X3.4486Y-3.743
X3.4786Y-3.4799
T4
X3.3905Y-3.8984
X3.4299Y-3.8984
T5
X3.1067Y-3.4324
X3.1067Y-3.7726
X3.2713Y-3.4324
X3.2713Y-3.7726
T6
X4.5268Y-3.35
X4.5268Y-3.4504
X4.5268Y-3.7504
X4.5268Y-3.8507
X4.8047Y-3.3494
X4.8047Y-3.4494
X4.8047Y-3.7494
X4.8047Y-3.8494
T7
X3.1533Y-3.9516
X3.1557Y-3.254
X4.9528Y-3.9512
X4.9537Y-3.253
M30
