%TF.GenerationSoftware,KiCad,Pcbnew,10.0.0*%
%TF.CreationDate,2026-06-13T21:44:00-06:00*%
%TF.ProjectId,Burnwing,4275726e-7769-46e6-972e-6b696361645f,Rev 1*%
%TF.SameCoordinates,Original*%
%TF.FileFunction,Legend,Top*%
%TF.FilePolarity,Positive*%
%FSLAX46Y46*%
G04 Gerber Fmt 4.6, Leading zero omitted, Abs format (unit mm)*
G04 Created by KiCad (PCBNEW 10.0.0) date 2026-06-13 21:44:00*
%MOMM*%
%LPD*%
G01*
G04 APERTURE LIST*
G04 Aperture macros list*
%AMRoundRect*
0 Rectangle with rounded corners*
0 $1 Rounding radius*
0 $2 $3 $4 $5 $6 $7 $8 $9 X,Y pos of 4 corners*
0 Add a 4 corners polygon primitive as box body*
4,1,4,$2,$3,$4,$5,$6,$7,$8,$9,$2,$3,0*
0 Add four circle primitives for the rounded corners*
1,1,$1+$1,$2,$3*
1,1,$1+$1,$4,$5*
1,1,$1+$1,$6,$7*
1,1,$1+$1,$8,$9*
0 Add four rect primitives between the rounded corners*
20,1,$1+$1,$2,$3,$4,$5,0*
20,1,$1+$1,$4,$5,$6,$7,0*
20,1,$1+$1,$6,$7,$8,$9,0*
20,1,$1+$1,$8,$9,$2,$3,0*%
G04 Aperture macros list end*
%ADD10C,0.125000*%
%ADD11C,0.150000*%
%ADD12C,0.119969*%
%ADD13C,0.100000*%
%ADD14C,0.120000*%
%ADD15C,0.101600*%
%ADD16C,0.060000*%
%ADD17C,0.000000*%
%ADD18C,0.250000*%
%ADD19C,0.127000*%
%ADD20C,0.152400*%
%ADD21C,0.203200*%
%ADD22C,4.400000*%
%ADD23RoundRect,0.250000X0.475000X-0.337500X0.475000X0.337500X-0.475000X0.337500X-0.475000X-0.337500X0*%
%ADD24RoundRect,0.237500X0.250000X0.237500X-0.250000X0.237500X-0.250000X-0.237500X0.250000X-0.237500X0*%
%ADD25RoundRect,0.237500X-0.250000X-0.237500X0.250000X-0.237500X0.250000X0.237500X-0.250000X0.237500X0*%
%ADD26RoundRect,0.303571X-0.546429X-1.371429X0.546429X-1.371429X0.546429X1.371429X-0.546429X1.371429X0*%
%ADD27C,0.650000*%
%ADD28RoundRect,0.050800X-0.575000X0.287500X-0.575000X-0.287500X0.575000X-0.287500X0.575000X0.287500X0*%
%ADD29RoundRect,0.050800X-0.575000X0.137500X-0.575000X-0.137500X0.575000X-0.137500X0.575000X0.137500X0*%
%ADD30O,2.101600X1.101600*%
%ADD31R,1.000000X0.700000*%
%ADD32R,1.000000X1.000000*%
%ADD33O,1.000000X1.000000*%
%ADD34C,1.700000*%
%ADD35O,1.700000X1.700000*%
%ADD36RoundRect,0.303571X0.546429X1.371429X-0.546429X1.371429X-0.546429X-1.371429X0.546429X-1.371429X0*%
%ADD37C,0.500000*%
%ADD38RoundRect,0.237500X0.237500X-0.287500X0.237500X0.287500X-0.237500X0.287500X-0.237500X-0.287500X0*%
%ADD39C,1.600000*%
%ADD40O,1.600000X1.600000*%
%ADD41R,1.600000X0.400656*%
%ADD42R,1.600000X0.399998*%
%ADD43R,1.598105X0.407432*%
%ADD44R,1.599397X0.402399*%
%ADD45R,1.597568X0.409489*%
%ADD46R,1.596543X0.413353*%
%ADD47R,1.600000X0.400000*%
%ADD48R,1.400000X0.400000*%
%ADD49R,2.650000X4.000000*%
%ADD50R,1.400000X2.300000*%
%ADD51RoundRect,0.250000X-0.337500X-0.475000X0.337500X-0.475000X0.337500X0.475000X-0.337500X0.475000X0*%
%ADD52RoundRect,0.200000X0.600000X-0.200000X0.600000X0.200000X-0.600000X0.200000X-0.600000X-0.200000X0*%
%ADD53RoundRect,0.277977X1.222023X-0.889523X1.222023X0.889523X-1.222023X0.889523X-1.222023X-0.889523X0*%
%ADD54RoundRect,0.237500X-0.237500X0.250000X-0.237500X-0.250000X0.237500X-0.250000X0.237500X0.250000X0*%
%ADD55RoundRect,0.150000X0.350000X-0.150000X0.350000X0.150000X-0.350000X0.150000X-0.350000X-0.150000X0*%
%ADD56RoundRect,0.250000X0.650000X-0.375000X0.650000X0.375000X-0.650000X0.375000X-0.650000X-0.375000X0*%
%ADD57RoundRect,0.237500X0.237500X-0.250000X0.237500X0.250000X-0.237500X0.250000X-0.237500X-0.250000X0*%
%ADD58RoundRect,0.050800X0.210000X-0.350000X0.210000X0.350000X-0.210000X0.350000X-0.210000X-0.350000X0*%
%ADD59RoundRect,0.050800X-1.175000X-1.125000X1.175000X-1.125000X1.175000X1.125000X-1.175000X1.125000X0*%
%ADD60RoundRect,0.150000X-0.150000X-0.200000X0.150000X-0.200000X0.150000X0.200000X-0.150000X0.200000X0*%
%ADD61R,1.700000X0.760000*%
%ADD62RoundRect,0.035160X-0.415640X0.140640X-0.415640X-0.140640X0.415640X-0.140640X0.415640X0.140640X0*%
%ADD63RoundRect,0.168160X-0.672640X1.057640X-0.672640X-1.057640X0.672640X-1.057640X0.672640X1.057640X0*%
G04 APERTURE END LIST*
D10*
X123917095Y-92182619D02*
X123893285Y-92254047D01*
X123893285Y-92254047D02*
X123869476Y-92277857D01*
X123869476Y-92277857D02*
X123821857Y-92301666D01*
X123821857Y-92301666D02*
X123750428Y-92301666D01*
X123750428Y-92301666D02*
X123702809Y-92277857D01*
X123702809Y-92277857D02*
X123679000Y-92254047D01*
X123679000Y-92254047D02*
X123655190Y-92206428D01*
X123655190Y-92206428D02*
X123655190Y-92015952D01*
X123655190Y-92015952D02*
X124155190Y-92015952D01*
X124155190Y-92015952D02*
X124155190Y-92182619D01*
X124155190Y-92182619D02*
X124131380Y-92230238D01*
X124131380Y-92230238D02*
X124107571Y-92254047D01*
X124107571Y-92254047D02*
X124059952Y-92277857D01*
X124059952Y-92277857D02*
X124012333Y-92277857D01*
X124012333Y-92277857D02*
X123964714Y-92254047D01*
X123964714Y-92254047D02*
X123940904Y-92230238D01*
X123940904Y-92230238D02*
X123917095Y-92182619D01*
X123917095Y-92182619D02*
X123917095Y-92015952D01*
X123655190Y-92777857D02*
X123655190Y-92492143D01*
X123655190Y-92635000D02*
X124155190Y-92635000D01*
X124155190Y-92635000D02*
X124083761Y-92587381D01*
X124083761Y-92587381D02*
X124036142Y-92539762D01*
X124036142Y-92539762D02*
X124012333Y-92492143D01*
X123937095Y-90507619D02*
X123913285Y-90579047D01*
X123913285Y-90579047D02*
X123889476Y-90602857D01*
X123889476Y-90602857D02*
X123841857Y-90626666D01*
X123841857Y-90626666D02*
X123770428Y-90626666D01*
X123770428Y-90626666D02*
X123722809Y-90602857D01*
X123722809Y-90602857D02*
X123699000Y-90579047D01*
X123699000Y-90579047D02*
X123675190Y-90531428D01*
X123675190Y-90531428D02*
X123675190Y-90340952D01*
X123675190Y-90340952D02*
X124175190Y-90340952D01*
X124175190Y-90340952D02*
X124175190Y-90507619D01*
X124175190Y-90507619D02*
X124151380Y-90555238D01*
X124151380Y-90555238D02*
X124127571Y-90579047D01*
X124127571Y-90579047D02*
X124079952Y-90602857D01*
X124079952Y-90602857D02*
X124032333Y-90602857D01*
X124032333Y-90602857D02*
X123984714Y-90579047D01*
X123984714Y-90579047D02*
X123960904Y-90555238D01*
X123960904Y-90555238D02*
X123937095Y-90507619D01*
X123937095Y-90507619D02*
X123937095Y-90340952D01*
X124127571Y-90817143D02*
X124151380Y-90840952D01*
X124151380Y-90840952D02*
X124175190Y-90888571D01*
X124175190Y-90888571D02*
X124175190Y-91007619D01*
X124175190Y-91007619D02*
X124151380Y-91055238D01*
X124151380Y-91055238D02*
X124127571Y-91079047D01*
X124127571Y-91079047D02*
X124079952Y-91102857D01*
X124079952Y-91102857D02*
X124032333Y-91102857D01*
X124032333Y-91102857D02*
X123960904Y-91079047D01*
X123960904Y-91079047D02*
X123675190Y-90793333D01*
X123675190Y-90793333D02*
X123675190Y-91102857D01*
X87136314Y-102696149D02*
X86713457Y-102696149D01*
X86924885Y-102696149D02*
X86924885Y-101946149D01*
X86924885Y-101946149D02*
X86854409Y-102053292D01*
X86854409Y-102053292D02*
X86783933Y-102124720D01*
X86783933Y-102124720D02*
X86713457Y-102160435D01*
X87418219Y-102017577D02*
X87453457Y-101981863D01*
X87453457Y-101981863D02*
X87523933Y-101946149D01*
X87523933Y-101946149D02*
X87700124Y-101946149D01*
X87700124Y-101946149D02*
X87770600Y-101981863D01*
X87770600Y-101981863D02*
X87805838Y-102017577D01*
X87805838Y-102017577D02*
X87841076Y-102089006D01*
X87841076Y-102089006D02*
X87841076Y-102160435D01*
X87841076Y-102160435D02*
X87805838Y-102267577D01*
X87805838Y-102267577D02*
X87382981Y-102696149D01*
X87382981Y-102696149D02*
X87841076Y-102696149D01*
X88052505Y-101946149D02*
X88299171Y-102696149D01*
X88299171Y-102696149D02*
X88545838Y-101946149D01*
X84682049Y-97201714D02*
X84253478Y-97201714D01*
X84467763Y-97201714D02*
X84467763Y-96451714D01*
X84467763Y-96451714D02*
X84396335Y-96558857D01*
X84396335Y-96558857D02*
X84324906Y-96630285D01*
X84324906Y-96630285D02*
X84253478Y-96666000D01*
X84967764Y-96987428D02*
X85324907Y-96987428D01*
X84896335Y-97201714D02*
X85146335Y-96451714D01*
X85146335Y-96451714D02*
X85396335Y-97201714D01*
X84646335Y-101951714D02*
X84289192Y-101951714D01*
X84289192Y-101951714D02*
X84253478Y-102308857D01*
X84253478Y-102308857D02*
X84289192Y-102273142D01*
X84289192Y-102273142D02*
X84360621Y-102237428D01*
X84360621Y-102237428D02*
X84539192Y-102237428D01*
X84539192Y-102237428D02*
X84610621Y-102273142D01*
X84610621Y-102273142D02*
X84646335Y-102308857D01*
X84646335Y-102308857D02*
X84682049Y-102380285D01*
X84682049Y-102380285D02*
X84682049Y-102558857D01*
X84682049Y-102558857D02*
X84646335Y-102630285D01*
X84646335Y-102630285D02*
X84610621Y-102666000D01*
X84610621Y-102666000D02*
X84539192Y-102701714D01*
X84539192Y-102701714D02*
X84360621Y-102701714D01*
X84360621Y-102701714D02*
X84289192Y-102666000D01*
X84289192Y-102666000D02*
X84253478Y-102630285D01*
X84896335Y-101951714D02*
X85146335Y-102701714D01*
X85146335Y-102701714D02*
X85396335Y-101951714D01*
X87327585Y-96494741D02*
X87363299Y-96459027D01*
X87363299Y-96459027D02*
X87434728Y-96423313D01*
X87434728Y-96423313D02*
X87613299Y-96423313D01*
X87613299Y-96423313D02*
X87684728Y-96459027D01*
X87684728Y-96459027D02*
X87720442Y-96494741D01*
X87720442Y-96494741D02*
X87756156Y-96566170D01*
X87756156Y-96566170D02*
X87756156Y-96637599D01*
X87756156Y-96637599D02*
X87720442Y-96744741D01*
X87720442Y-96744741D02*
X87291870Y-97173313D01*
X87291870Y-97173313D02*
X87756156Y-97173313D01*
X88041871Y-96959027D02*
X88399014Y-96959027D01*
X87970442Y-97173313D02*
X88220442Y-96423313D01*
X88220442Y-96423313D02*
X88470442Y-97173313D01*
X123895250Y-93509286D02*
X123895250Y-94080715D01*
X123609535Y-93795000D02*
X124180964Y-93795000D01*
X123945250Y-88914286D02*
X123945250Y-89485715D01*
X123659535Y-89200000D02*
X124230964Y-89200000D01*
X123965250Y-95099286D02*
X123965250Y-95670715D01*
X124005250Y-87374286D02*
X124005250Y-87945715D01*
X91976666Y-80902190D02*
X91952857Y-80926000D01*
X91952857Y-80926000D02*
X91881428Y-80949809D01*
X91881428Y-80949809D02*
X91833809Y-80949809D01*
X91833809Y-80949809D02*
X91762381Y-80926000D01*
X91762381Y-80926000D02*
X91714762Y-80878380D01*
X91714762Y-80878380D02*
X91690952Y-80830761D01*
X91690952Y-80830761D02*
X91667143Y-80735523D01*
X91667143Y-80735523D02*
X91667143Y-80664095D01*
X91667143Y-80664095D02*
X91690952Y-80568857D01*
X91690952Y-80568857D02*
X91714762Y-80521238D01*
X91714762Y-80521238D02*
X91762381Y-80473619D01*
X91762381Y-80473619D02*
X91833809Y-80449809D01*
X91833809Y-80449809D02*
X91881428Y-80449809D01*
X91881428Y-80449809D02*
X91952857Y-80473619D01*
X91952857Y-80473619D02*
X91976666Y-80497428D01*
X92405238Y-80616476D02*
X92405238Y-80949809D01*
X92286190Y-80426000D02*
X92167143Y-80783142D01*
X92167143Y-80783142D02*
X92476666Y-80783142D01*
X112916666Y-84299809D02*
X112750000Y-84061714D01*
X112630952Y-84299809D02*
X112630952Y-83799809D01*
X112630952Y-83799809D02*
X112821428Y-83799809D01*
X112821428Y-83799809D02*
X112869047Y-83823619D01*
X112869047Y-83823619D02*
X112892857Y-83847428D01*
X112892857Y-83847428D02*
X112916666Y-83895047D01*
X112916666Y-83895047D02*
X112916666Y-83966476D01*
X112916666Y-83966476D02*
X112892857Y-84014095D01*
X112892857Y-84014095D02*
X112869047Y-84037904D01*
X112869047Y-84037904D02*
X112821428Y-84061714D01*
X112821428Y-84061714D02*
X112630952Y-84061714D01*
X113345238Y-83966476D02*
X113345238Y-84299809D01*
X113226190Y-83776000D02*
X113107143Y-84133142D01*
X113107143Y-84133142D02*
X113416666Y-84133142D01*
X80658571Y-86814809D02*
X80491905Y-86576714D01*
X80372857Y-86814809D02*
X80372857Y-86314809D01*
X80372857Y-86314809D02*
X80563333Y-86314809D01*
X80563333Y-86314809D02*
X80610952Y-86338619D01*
X80610952Y-86338619D02*
X80634762Y-86362428D01*
X80634762Y-86362428D02*
X80658571Y-86410047D01*
X80658571Y-86410047D02*
X80658571Y-86481476D01*
X80658571Y-86481476D02*
X80634762Y-86529095D01*
X80634762Y-86529095D02*
X80610952Y-86552904D01*
X80610952Y-86552904D02*
X80563333Y-86576714D01*
X80563333Y-86576714D02*
X80372857Y-86576714D01*
X81134762Y-86814809D02*
X80849048Y-86814809D01*
X80991905Y-86814809D02*
X80991905Y-86314809D01*
X80991905Y-86314809D02*
X80944286Y-86386238D01*
X80944286Y-86386238D02*
X80896667Y-86433857D01*
X80896667Y-86433857D02*
X80849048Y-86457666D01*
X81563333Y-86481476D02*
X81563333Y-86814809D01*
X81444285Y-86291000D02*
X81325238Y-86648142D01*
X81325238Y-86648142D02*
X81634761Y-86648142D01*
D11*
X115830952Y-89371009D02*
X115973809Y-89418628D01*
X115973809Y-89418628D02*
X116021428Y-89466247D01*
X116021428Y-89466247D02*
X116069047Y-89561485D01*
X116069047Y-89561485D02*
X116069047Y-89704342D01*
X116069047Y-89704342D02*
X116021428Y-89799580D01*
X116021428Y-89799580D02*
X115973809Y-89847200D01*
X115973809Y-89847200D02*
X115878571Y-89894819D01*
X115878571Y-89894819D02*
X115497619Y-89894819D01*
X115497619Y-89894819D02*
X115497619Y-88894819D01*
X115497619Y-88894819D02*
X115830952Y-88894819D01*
X115830952Y-88894819D02*
X115926190Y-88942438D01*
X115926190Y-88942438D02*
X115973809Y-88990057D01*
X115973809Y-88990057D02*
X116021428Y-89085295D01*
X116021428Y-89085295D02*
X116021428Y-89180533D01*
X116021428Y-89180533D02*
X115973809Y-89275771D01*
X115973809Y-89275771D02*
X115926190Y-89323390D01*
X115926190Y-89323390D02*
X115830952Y-89371009D01*
X115830952Y-89371009D02*
X115497619Y-89371009D01*
X116926190Y-89228152D02*
X116926190Y-89894819D01*
X116497619Y-89228152D02*
X116497619Y-89751961D01*
X116497619Y-89751961D02*
X116545238Y-89847200D01*
X116545238Y-89847200D02*
X116640476Y-89894819D01*
X116640476Y-89894819D02*
X116783333Y-89894819D01*
X116783333Y-89894819D02*
X116878571Y-89847200D01*
X116878571Y-89847200D02*
X116926190Y-89799580D01*
X117402381Y-89894819D02*
X117402381Y-89228152D01*
X117402381Y-89418628D02*
X117450000Y-89323390D01*
X117450000Y-89323390D02*
X117497619Y-89275771D01*
X117497619Y-89275771D02*
X117592857Y-89228152D01*
X117592857Y-89228152D02*
X117688095Y-89228152D01*
X118021429Y-89228152D02*
X118021429Y-89894819D01*
X118021429Y-89323390D02*
X118069048Y-89275771D01*
X118069048Y-89275771D02*
X118164286Y-89228152D01*
X118164286Y-89228152D02*
X118307143Y-89228152D01*
X118307143Y-89228152D02*
X118402381Y-89275771D01*
X118402381Y-89275771D02*
X118450000Y-89371009D01*
X118450000Y-89371009D02*
X118450000Y-89894819D01*
X119450000Y-89894819D02*
X118878572Y-89894819D01*
X119164286Y-89894819D02*
X119164286Y-88894819D01*
X119164286Y-88894819D02*
X119069048Y-89037676D01*
X119069048Y-89037676D02*
X118973810Y-89132914D01*
X118973810Y-89132914D02*
X118878572Y-89180533D01*
D10*
X85808571Y-94844809D02*
X85641905Y-94606714D01*
X85522857Y-94844809D02*
X85522857Y-94344809D01*
X85522857Y-94344809D02*
X85713333Y-94344809D01*
X85713333Y-94344809D02*
X85760952Y-94368619D01*
X85760952Y-94368619D02*
X85784762Y-94392428D01*
X85784762Y-94392428D02*
X85808571Y-94440047D01*
X85808571Y-94440047D02*
X85808571Y-94511476D01*
X85808571Y-94511476D02*
X85784762Y-94559095D01*
X85784762Y-94559095D02*
X85760952Y-94582904D01*
X85760952Y-94582904D02*
X85713333Y-94606714D01*
X85713333Y-94606714D02*
X85522857Y-94606714D01*
X86284762Y-94844809D02*
X85999048Y-94844809D01*
X86141905Y-94844809D02*
X86141905Y-94344809D01*
X86141905Y-94344809D02*
X86094286Y-94416238D01*
X86094286Y-94416238D02*
X86046667Y-94463857D01*
X86046667Y-94463857D02*
X85999048Y-94487666D01*
X86760952Y-94844809D02*
X86475238Y-94844809D01*
X86618095Y-94844809D02*
X86618095Y-94344809D01*
X86618095Y-94344809D02*
X86570476Y-94416238D01*
X86570476Y-94416238D02*
X86522857Y-94463857D01*
X86522857Y-94463857D02*
X86475238Y-94487666D01*
D12*
X78825836Y-91617570D02*
X78825836Y-91974713D01*
X78825836Y-91974713D02*
X78802027Y-92046141D01*
X78802027Y-92046141D02*
X78754408Y-92093761D01*
X78754408Y-92093761D02*
X78682979Y-92117570D01*
X78682979Y-92117570D02*
X78635360Y-92117570D01*
X79040122Y-91665189D02*
X79063931Y-91641380D01*
X79063931Y-91641380D02*
X79111550Y-91617570D01*
X79111550Y-91617570D02*
X79230598Y-91617570D01*
X79230598Y-91617570D02*
X79278217Y-91641380D01*
X79278217Y-91641380D02*
X79302026Y-91665189D01*
X79302026Y-91665189D02*
X79325836Y-91712808D01*
X79325836Y-91712808D02*
X79325836Y-91760427D01*
X79325836Y-91760427D02*
X79302026Y-91831856D01*
X79302026Y-91831856D02*
X79016312Y-92117570D01*
X79016312Y-92117570D02*
X79325836Y-92117570D01*
D10*
X84826666Y-88044809D02*
X84660000Y-87806714D01*
X84540952Y-88044809D02*
X84540952Y-87544809D01*
X84540952Y-87544809D02*
X84731428Y-87544809D01*
X84731428Y-87544809D02*
X84779047Y-87568619D01*
X84779047Y-87568619D02*
X84802857Y-87592428D01*
X84802857Y-87592428D02*
X84826666Y-87640047D01*
X84826666Y-87640047D02*
X84826666Y-87711476D01*
X84826666Y-87711476D02*
X84802857Y-87759095D01*
X84802857Y-87759095D02*
X84779047Y-87782904D01*
X84779047Y-87782904D02*
X84731428Y-87806714D01*
X84731428Y-87806714D02*
X84540952Y-87806714D01*
X84993333Y-87544809D02*
X85302857Y-87544809D01*
X85302857Y-87544809D02*
X85136190Y-87735285D01*
X85136190Y-87735285D02*
X85207619Y-87735285D01*
X85207619Y-87735285D02*
X85255238Y-87759095D01*
X85255238Y-87759095D02*
X85279047Y-87782904D01*
X85279047Y-87782904D02*
X85302857Y-87830523D01*
X85302857Y-87830523D02*
X85302857Y-87949571D01*
X85302857Y-87949571D02*
X85279047Y-87997190D01*
X85279047Y-87997190D02*
X85255238Y-88021000D01*
X85255238Y-88021000D02*
X85207619Y-88044809D01*
X85207619Y-88044809D02*
X85064762Y-88044809D01*
X85064762Y-88044809D02*
X85017143Y-88021000D01*
X85017143Y-88021000D02*
X84993333Y-87997190D01*
D13*
X106766666Y-84629847D02*
X106766666Y-84915561D01*
X106766666Y-84915561D02*
X106747619Y-84972704D01*
X106747619Y-84972704D02*
X106709523Y-85010800D01*
X106709523Y-85010800D02*
X106652381Y-85029847D01*
X106652381Y-85029847D02*
X106614285Y-85029847D01*
X106957143Y-85029847D02*
X106957143Y-84629847D01*
X106957143Y-84629847D02*
X107109524Y-84629847D01*
X107109524Y-84629847D02*
X107147619Y-84648895D01*
X107147619Y-84648895D02*
X107166666Y-84667942D01*
X107166666Y-84667942D02*
X107185714Y-84706038D01*
X107185714Y-84706038D02*
X107185714Y-84763180D01*
X107185714Y-84763180D02*
X107166666Y-84801276D01*
X107166666Y-84801276D02*
X107147619Y-84820323D01*
X107147619Y-84820323D02*
X107109524Y-84839371D01*
X107109524Y-84839371D02*
X106957143Y-84839371D01*
X107566666Y-85029847D02*
X107338095Y-85029847D01*
X107452381Y-85029847D02*
X107452381Y-84629847D01*
X107452381Y-84629847D02*
X107414285Y-84686990D01*
X107414285Y-84686990D02*
X107376190Y-84725085D01*
X107376190Y-84725085D02*
X107338095Y-84744133D01*
D10*
X94483333Y-80449809D02*
X94483333Y-80806952D01*
X94483333Y-80806952D02*
X94459524Y-80878380D01*
X94459524Y-80878380D02*
X94411905Y-80926000D01*
X94411905Y-80926000D02*
X94340476Y-80949809D01*
X94340476Y-80949809D02*
X94292857Y-80949809D01*
X94983333Y-80949809D02*
X94697619Y-80949809D01*
X94840476Y-80949809D02*
X94840476Y-80449809D01*
X94840476Y-80449809D02*
X94792857Y-80521238D01*
X94792857Y-80521238D02*
X94745238Y-80568857D01*
X94745238Y-80568857D02*
X94697619Y-80592666D01*
D11*
X115830952Y-93431009D02*
X115973809Y-93478628D01*
X115973809Y-93478628D02*
X116021428Y-93526247D01*
X116021428Y-93526247D02*
X116069047Y-93621485D01*
X116069047Y-93621485D02*
X116069047Y-93764342D01*
X116069047Y-93764342D02*
X116021428Y-93859580D01*
X116021428Y-93859580D02*
X115973809Y-93907200D01*
X115973809Y-93907200D02*
X115878571Y-93954819D01*
X115878571Y-93954819D02*
X115497619Y-93954819D01*
X115497619Y-93954819D02*
X115497619Y-92954819D01*
X115497619Y-92954819D02*
X115830952Y-92954819D01*
X115830952Y-92954819D02*
X115926190Y-93002438D01*
X115926190Y-93002438D02*
X115973809Y-93050057D01*
X115973809Y-93050057D02*
X116021428Y-93145295D01*
X116021428Y-93145295D02*
X116021428Y-93240533D01*
X116021428Y-93240533D02*
X115973809Y-93335771D01*
X115973809Y-93335771D02*
X115926190Y-93383390D01*
X115926190Y-93383390D02*
X115830952Y-93431009D01*
X115830952Y-93431009D02*
X115497619Y-93431009D01*
X116926190Y-93288152D02*
X116926190Y-93954819D01*
X116497619Y-93288152D02*
X116497619Y-93811961D01*
X116497619Y-93811961D02*
X116545238Y-93907200D01*
X116545238Y-93907200D02*
X116640476Y-93954819D01*
X116640476Y-93954819D02*
X116783333Y-93954819D01*
X116783333Y-93954819D02*
X116878571Y-93907200D01*
X116878571Y-93907200D02*
X116926190Y-93859580D01*
X117402381Y-93954819D02*
X117402381Y-93288152D01*
X117402381Y-93478628D02*
X117450000Y-93383390D01*
X117450000Y-93383390D02*
X117497619Y-93335771D01*
X117497619Y-93335771D02*
X117592857Y-93288152D01*
X117592857Y-93288152D02*
X117688095Y-93288152D01*
X118021429Y-93288152D02*
X118021429Y-93954819D01*
X118021429Y-93383390D02*
X118069048Y-93335771D01*
X118069048Y-93335771D02*
X118164286Y-93288152D01*
X118164286Y-93288152D02*
X118307143Y-93288152D01*
X118307143Y-93288152D02*
X118402381Y-93335771D01*
X118402381Y-93335771D02*
X118450000Y-93431009D01*
X118450000Y-93431009D02*
X118450000Y-93954819D01*
X118878572Y-93050057D02*
X118926191Y-93002438D01*
X118926191Y-93002438D02*
X119021429Y-92954819D01*
X119021429Y-92954819D02*
X119259524Y-92954819D01*
X119259524Y-92954819D02*
X119354762Y-93002438D01*
X119354762Y-93002438D02*
X119402381Y-93050057D01*
X119402381Y-93050057D02*
X119450000Y-93145295D01*
X119450000Y-93145295D02*
X119450000Y-93240533D01*
X119450000Y-93240533D02*
X119402381Y-93383390D01*
X119402381Y-93383390D02*
X118830953Y-93954819D01*
X118830953Y-93954819D02*
X119450000Y-93954819D01*
D10*
X91930952Y-87024809D02*
X91930952Y-86524809D01*
X91930952Y-86524809D02*
X92050000Y-86524809D01*
X92050000Y-86524809D02*
X92121428Y-86548619D01*
X92121428Y-86548619D02*
X92169047Y-86596238D01*
X92169047Y-86596238D02*
X92192857Y-86643857D01*
X92192857Y-86643857D02*
X92216666Y-86739095D01*
X92216666Y-86739095D02*
X92216666Y-86810523D01*
X92216666Y-86810523D02*
X92192857Y-86905761D01*
X92192857Y-86905761D02*
X92169047Y-86953380D01*
X92169047Y-86953380D02*
X92121428Y-87001000D01*
X92121428Y-87001000D02*
X92050000Y-87024809D01*
X92050000Y-87024809D02*
X91930952Y-87024809D01*
X92383333Y-86524809D02*
X92692857Y-86524809D01*
X92692857Y-86524809D02*
X92526190Y-86715285D01*
X92526190Y-86715285D02*
X92597619Y-86715285D01*
X92597619Y-86715285D02*
X92645238Y-86739095D01*
X92645238Y-86739095D02*
X92669047Y-86762904D01*
X92669047Y-86762904D02*
X92692857Y-86810523D01*
X92692857Y-86810523D02*
X92692857Y-86929571D01*
X92692857Y-86929571D02*
X92669047Y-86977190D01*
X92669047Y-86977190D02*
X92645238Y-87001000D01*
X92645238Y-87001000D02*
X92597619Y-87024809D01*
X92597619Y-87024809D02*
X92454762Y-87024809D01*
X92454762Y-87024809D02*
X92407143Y-87001000D01*
X92407143Y-87001000D02*
X92383333Y-86977190D01*
X112916666Y-99174809D02*
X112750000Y-98936714D01*
X112630952Y-99174809D02*
X112630952Y-98674809D01*
X112630952Y-98674809D02*
X112821428Y-98674809D01*
X112821428Y-98674809D02*
X112869047Y-98698619D01*
X112869047Y-98698619D02*
X112892857Y-98722428D01*
X112892857Y-98722428D02*
X112916666Y-98770047D01*
X112916666Y-98770047D02*
X112916666Y-98841476D01*
X112916666Y-98841476D02*
X112892857Y-98889095D01*
X112892857Y-98889095D02*
X112869047Y-98912904D01*
X112869047Y-98912904D02*
X112821428Y-98936714D01*
X112821428Y-98936714D02*
X112630952Y-98936714D01*
X113369047Y-98674809D02*
X113130952Y-98674809D01*
X113130952Y-98674809D02*
X113107143Y-98912904D01*
X113107143Y-98912904D02*
X113130952Y-98889095D01*
X113130952Y-98889095D02*
X113178571Y-98865285D01*
X113178571Y-98865285D02*
X113297619Y-98865285D01*
X113297619Y-98865285D02*
X113345238Y-98889095D01*
X113345238Y-98889095D02*
X113369047Y-98912904D01*
X113369047Y-98912904D02*
X113392857Y-98960523D01*
X113392857Y-98960523D02*
X113392857Y-99079571D01*
X113392857Y-99079571D02*
X113369047Y-99127190D01*
X113369047Y-99127190D02*
X113345238Y-99151000D01*
X113345238Y-99151000D02*
X113297619Y-99174809D01*
X113297619Y-99174809D02*
X113178571Y-99174809D01*
X113178571Y-99174809D02*
X113130952Y-99151000D01*
X113130952Y-99151000D02*
X113107143Y-99127190D01*
X98480952Y-87024809D02*
X98480952Y-86524809D01*
X98480952Y-86524809D02*
X98600000Y-86524809D01*
X98600000Y-86524809D02*
X98671428Y-86548619D01*
X98671428Y-86548619D02*
X98719047Y-86596238D01*
X98719047Y-86596238D02*
X98742857Y-86643857D01*
X98742857Y-86643857D02*
X98766666Y-86739095D01*
X98766666Y-86739095D02*
X98766666Y-86810523D01*
X98766666Y-86810523D02*
X98742857Y-86905761D01*
X98742857Y-86905761D02*
X98719047Y-86953380D01*
X98719047Y-86953380D02*
X98671428Y-87001000D01*
X98671428Y-87001000D02*
X98600000Y-87024809D01*
X98600000Y-87024809D02*
X98480952Y-87024809D01*
X99195238Y-86691476D02*
X99195238Y-87024809D01*
X99076190Y-86501000D02*
X98957143Y-86858142D01*
X98957143Y-86858142D02*
X99266666Y-86858142D01*
X106619047Y-91174809D02*
X106619047Y-91579571D01*
X106619047Y-91579571D02*
X106642857Y-91627190D01*
X106642857Y-91627190D02*
X106666666Y-91651000D01*
X106666666Y-91651000D02*
X106714285Y-91674809D01*
X106714285Y-91674809D02*
X106809523Y-91674809D01*
X106809523Y-91674809D02*
X106857142Y-91651000D01*
X106857142Y-91651000D02*
X106880952Y-91627190D01*
X106880952Y-91627190D02*
X106904761Y-91579571D01*
X106904761Y-91579571D02*
X106904761Y-91174809D01*
X107119048Y-91222428D02*
X107142857Y-91198619D01*
X107142857Y-91198619D02*
X107190476Y-91174809D01*
X107190476Y-91174809D02*
X107309524Y-91174809D01*
X107309524Y-91174809D02*
X107357143Y-91198619D01*
X107357143Y-91198619D02*
X107380952Y-91222428D01*
X107380952Y-91222428D02*
X107404762Y-91270047D01*
X107404762Y-91270047D02*
X107404762Y-91317666D01*
X107404762Y-91317666D02*
X107380952Y-91389095D01*
X107380952Y-91389095D02*
X107095238Y-91674809D01*
X107095238Y-91674809D02*
X107404762Y-91674809D01*
X85466666Y-89877190D02*
X85442857Y-89901000D01*
X85442857Y-89901000D02*
X85371428Y-89924809D01*
X85371428Y-89924809D02*
X85323809Y-89924809D01*
X85323809Y-89924809D02*
X85252381Y-89901000D01*
X85252381Y-89901000D02*
X85204762Y-89853380D01*
X85204762Y-89853380D02*
X85180952Y-89805761D01*
X85180952Y-89805761D02*
X85157143Y-89710523D01*
X85157143Y-89710523D02*
X85157143Y-89639095D01*
X85157143Y-89639095D02*
X85180952Y-89543857D01*
X85180952Y-89543857D02*
X85204762Y-89496238D01*
X85204762Y-89496238D02*
X85252381Y-89448619D01*
X85252381Y-89448619D02*
X85323809Y-89424809D01*
X85323809Y-89424809D02*
X85371428Y-89424809D01*
X85371428Y-89424809D02*
X85442857Y-89448619D01*
X85442857Y-89448619D02*
X85466666Y-89472428D01*
X85942857Y-89924809D02*
X85657143Y-89924809D01*
X85800000Y-89924809D02*
X85800000Y-89424809D01*
X85800000Y-89424809D02*
X85752381Y-89496238D01*
X85752381Y-89496238D02*
X85704762Y-89543857D01*
X85704762Y-89543857D02*
X85657143Y-89567666D01*
X127235666Y-94514523D02*
X127235666Y-94895476D01*
X127045190Y-94704999D02*
X127426142Y-94704999D01*
X109341666Y-88749809D02*
X109175000Y-88511714D01*
X109055952Y-88749809D02*
X109055952Y-88249809D01*
X109055952Y-88249809D02*
X109246428Y-88249809D01*
X109246428Y-88249809D02*
X109294047Y-88273619D01*
X109294047Y-88273619D02*
X109317857Y-88297428D01*
X109317857Y-88297428D02*
X109341666Y-88345047D01*
X109341666Y-88345047D02*
X109341666Y-88416476D01*
X109341666Y-88416476D02*
X109317857Y-88464095D01*
X109317857Y-88464095D02*
X109294047Y-88487904D01*
X109294047Y-88487904D02*
X109246428Y-88511714D01*
X109246428Y-88511714D02*
X109055952Y-88511714D01*
X109508333Y-88249809D02*
X109841666Y-88249809D01*
X109841666Y-88249809D02*
X109627381Y-88749809D01*
X124904809Y-85771666D02*
X125261952Y-85771666D01*
X125261952Y-85771666D02*
X125333380Y-85795475D01*
X125333380Y-85795475D02*
X125381000Y-85843094D01*
X125381000Y-85843094D02*
X125404809Y-85914523D01*
X125404809Y-85914523D02*
X125404809Y-85962142D01*
X124952428Y-85557380D02*
X124928619Y-85533571D01*
X124928619Y-85533571D02*
X124904809Y-85485952D01*
X124904809Y-85485952D02*
X124904809Y-85366904D01*
X124904809Y-85366904D02*
X124928619Y-85319285D01*
X124928619Y-85319285D02*
X124952428Y-85295476D01*
X124952428Y-85295476D02*
X125000047Y-85271666D01*
X125000047Y-85271666D02*
X125047666Y-85271666D01*
X125047666Y-85271666D02*
X125119095Y-85295476D01*
X125119095Y-85295476D02*
X125404809Y-85581190D01*
X125404809Y-85581190D02*
X125404809Y-85271666D01*
X89366666Y-85574809D02*
X89200000Y-85336714D01*
X89080952Y-85574809D02*
X89080952Y-85074809D01*
X89080952Y-85074809D02*
X89271428Y-85074809D01*
X89271428Y-85074809D02*
X89319047Y-85098619D01*
X89319047Y-85098619D02*
X89342857Y-85122428D01*
X89342857Y-85122428D02*
X89366666Y-85170047D01*
X89366666Y-85170047D02*
X89366666Y-85241476D01*
X89366666Y-85241476D02*
X89342857Y-85289095D01*
X89342857Y-85289095D02*
X89319047Y-85312904D01*
X89319047Y-85312904D02*
X89271428Y-85336714D01*
X89271428Y-85336714D02*
X89080952Y-85336714D01*
X89604762Y-85574809D02*
X89700000Y-85574809D01*
X89700000Y-85574809D02*
X89747619Y-85551000D01*
X89747619Y-85551000D02*
X89771428Y-85527190D01*
X89771428Y-85527190D02*
X89819047Y-85455761D01*
X89819047Y-85455761D02*
X89842857Y-85360523D01*
X89842857Y-85360523D02*
X89842857Y-85170047D01*
X89842857Y-85170047D02*
X89819047Y-85122428D01*
X89819047Y-85122428D02*
X89795238Y-85098619D01*
X89795238Y-85098619D02*
X89747619Y-85074809D01*
X89747619Y-85074809D02*
X89652381Y-85074809D01*
X89652381Y-85074809D02*
X89604762Y-85098619D01*
X89604762Y-85098619D02*
X89580952Y-85122428D01*
X89580952Y-85122428D02*
X89557143Y-85170047D01*
X89557143Y-85170047D02*
X89557143Y-85289095D01*
X89557143Y-85289095D02*
X89580952Y-85336714D01*
X89580952Y-85336714D02*
X89604762Y-85360523D01*
X89604762Y-85360523D02*
X89652381Y-85384333D01*
X89652381Y-85384333D02*
X89747619Y-85384333D01*
X89747619Y-85384333D02*
X89795238Y-85360523D01*
X89795238Y-85360523D02*
X89819047Y-85336714D01*
X89819047Y-85336714D02*
X89842857Y-85289095D01*
X89906666Y-80902190D02*
X89882857Y-80926000D01*
X89882857Y-80926000D02*
X89811428Y-80949809D01*
X89811428Y-80949809D02*
X89763809Y-80949809D01*
X89763809Y-80949809D02*
X89692381Y-80926000D01*
X89692381Y-80926000D02*
X89644762Y-80878380D01*
X89644762Y-80878380D02*
X89620952Y-80830761D01*
X89620952Y-80830761D02*
X89597143Y-80735523D01*
X89597143Y-80735523D02*
X89597143Y-80664095D01*
X89597143Y-80664095D02*
X89620952Y-80568857D01*
X89620952Y-80568857D02*
X89644762Y-80521238D01*
X89644762Y-80521238D02*
X89692381Y-80473619D01*
X89692381Y-80473619D02*
X89763809Y-80449809D01*
X89763809Y-80449809D02*
X89811428Y-80449809D01*
X89811428Y-80449809D02*
X89882857Y-80473619D01*
X89882857Y-80473619D02*
X89906666Y-80497428D01*
X90073333Y-80449809D02*
X90382857Y-80449809D01*
X90382857Y-80449809D02*
X90216190Y-80640285D01*
X90216190Y-80640285D02*
X90287619Y-80640285D01*
X90287619Y-80640285D02*
X90335238Y-80664095D01*
X90335238Y-80664095D02*
X90359047Y-80687904D01*
X90359047Y-80687904D02*
X90382857Y-80735523D01*
X90382857Y-80735523D02*
X90382857Y-80854571D01*
X90382857Y-80854571D02*
X90359047Y-80902190D01*
X90359047Y-80902190D02*
X90335238Y-80926000D01*
X90335238Y-80926000D02*
X90287619Y-80949809D01*
X90287619Y-80949809D02*
X90144762Y-80949809D01*
X90144762Y-80949809D02*
X90097143Y-80926000D01*
X90097143Y-80926000D02*
X90073333Y-80902190D01*
X80578571Y-96724809D02*
X80411905Y-96486714D01*
X80292857Y-96724809D02*
X80292857Y-96224809D01*
X80292857Y-96224809D02*
X80483333Y-96224809D01*
X80483333Y-96224809D02*
X80530952Y-96248619D01*
X80530952Y-96248619D02*
X80554762Y-96272428D01*
X80554762Y-96272428D02*
X80578571Y-96320047D01*
X80578571Y-96320047D02*
X80578571Y-96391476D01*
X80578571Y-96391476D02*
X80554762Y-96439095D01*
X80554762Y-96439095D02*
X80530952Y-96462904D01*
X80530952Y-96462904D02*
X80483333Y-96486714D01*
X80483333Y-96486714D02*
X80292857Y-96486714D01*
X81054762Y-96724809D02*
X80769048Y-96724809D01*
X80911905Y-96724809D02*
X80911905Y-96224809D01*
X80911905Y-96224809D02*
X80864286Y-96296238D01*
X80864286Y-96296238D02*
X80816667Y-96343857D01*
X80816667Y-96343857D02*
X80769048Y-96367666D01*
X81292857Y-96724809D02*
X81388095Y-96724809D01*
X81388095Y-96724809D02*
X81435714Y-96701000D01*
X81435714Y-96701000D02*
X81459523Y-96677190D01*
X81459523Y-96677190D02*
X81507142Y-96605761D01*
X81507142Y-96605761D02*
X81530952Y-96510523D01*
X81530952Y-96510523D02*
X81530952Y-96320047D01*
X81530952Y-96320047D02*
X81507142Y-96272428D01*
X81507142Y-96272428D02*
X81483333Y-96248619D01*
X81483333Y-96248619D02*
X81435714Y-96224809D01*
X81435714Y-96224809D02*
X81340476Y-96224809D01*
X81340476Y-96224809D02*
X81292857Y-96248619D01*
X81292857Y-96248619D02*
X81269047Y-96272428D01*
X81269047Y-96272428D02*
X81245238Y-96320047D01*
X81245238Y-96320047D02*
X81245238Y-96439095D01*
X81245238Y-96439095D02*
X81269047Y-96486714D01*
X81269047Y-96486714D02*
X81292857Y-96510523D01*
X81292857Y-96510523D02*
X81340476Y-96534333D01*
X81340476Y-96534333D02*
X81435714Y-96534333D01*
X81435714Y-96534333D02*
X81483333Y-96510523D01*
X81483333Y-96510523D02*
X81507142Y-96486714D01*
X81507142Y-96486714D02*
X81530952Y-96439095D01*
X96516666Y-87024809D02*
X96350000Y-86786714D01*
X96230952Y-87024809D02*
X96230952Y-86524809D01*
X96230952Y-86524809D02*
X96421428Y-86524809D01*
X96421428Y-86524809D02*
X96469047Y-86548619D01*
X96469047Y-86548619D02*
X96492857Y-86572428D01*
X96492857Y-86572428D02*
X96516666Y-86620047D01*
X96516666Y-86620047D02*
X96516666Y-86691476D01*
X96516666Y-86691476D02*
X96492857Y-86739095D01*
X96492857Y-86739095D02*
X96469047Y-86762904D01*
X96469047Y-86762904D02*
X96421428Y-86786714D01*
X96421428Y-86786714D02*
X96230952Y-86786714D01*
X96992857Y-87024809D02*
X96707143Y-87024809D01*
X96850000Y-87024809D02*
X96850000Y-86524809D01*
X96850000Y-86524809D02*
X96802381Y-86596238D01*
X96802381Y-86596238D02*
X96754762Y-86643857D01*
X96754762Y-86643857D02*
X96707143Y-86667666D01*
X100978571Y-85424809D02*
X100811905Y-85186714D01*
X100692857Y-85424809D02*
X100692857Y-84924809D01*
X100692857Y-84924809D02*
X100883333Y-84924809D01*
X100883333Y-84924809D02*
X100930952Y-84948619D01*
X100930952Y-84948619D02*
X100954762Y-84972428D01*
X100954762Y-84972428D02*
X100978571Y-85020047D01*
X100978571Y-85020047D02*
X100978571Y-85091476D01*
X100978571Y-85091476D02*
X100954762Y-85139095D01*
X100954762Y-85139095D02*
X100930952Y-85162904D01*
X100930952Y-85162904D02*
X100883333Y-85186714D01*
X100883333Y-85186714D02*
X100692857Y-85186714D01*
X101454762Y-85424809D02*
X101169048Y-85424809D01*
X101311905Y-85424809D02*
X101311905Y-84924809D01*
X101311905Y-84924809D02*
X101264286Y-84996238D01*
X101264286Y-84996238D02*
X101216667Y-85043857D01*
X101216667Y-85043857D02*
X101169048Y-85067666D01*
X101883333Y-84924809D02*
X101788095Y-84924809D01*
X101788095Y-84924809D02*
X101740476Y-84948619D01*
X101740476Y-84948619D02*
X101716666Y-84972428D01*
X101716666Y-84972428D02*
X101669047Y-85043857D01*
X101669047Y-85043857D02*
X101645238Y-85139095D01*
X101645238Y-85139095D02*
X101645238Y-85329571D01*
X101645238Y-85329571D02*
X101669047Y-85377190D01*
X101669047Y-85377190D02*
X101692857Y-85401000D01*
X101692857Y-85401000D02*
X101740476Y-85424809D01*
X101740476Y-85424809D02*
X101835714Y-85424809D01*
X101835714Y-85424809D02*
X101883333Y-85401000D01*
X101883333Y-85401000D02*
X101907142Y-85377190D01*
X101907142Y-85377190D02*
X101930952Y-85329571D01*
X101930952Y-85329571D02*
X101930952Y-85210523D01*
X101930952Y-85210523D02*
X101907142Y-85162904D01*
X101907142Y-85162904D02*
X101883333Y-85139095D01*
X101883333Y-85139095D02*
X101835714Y-85115285D01*
X101835714Y-85115285D02*
X101740476Y-85115285D01*
X101740476Y-85115285D02*
X101692857Y-85139095D01*
X101692857Y-85139095D02*
X101669047Y-85162904D01*
X101669047Y-85162904D02*
X101645238Y-85210523D01*
D13*
X82696591Y-84256228D02*
X82648972Y-84232419D01*
X82648972Y-84232419D02*
X82601353Y-84184800D01*
X82601353Y-84184800D02*
X82529925Y-84113371D01*
X82529925Y-84113371D02*
X82482306Y-84089561D01*
X82482306Y-84089561D02*
X82434687Y-84089561D01*
X82458496Y-84208609D02*
X82410877Y-84184800D01*
X82410877Y-84184800D02*
X82363258Y-84137180D01*
X82363258Y-84137180D02*
X82339449Y-84041942D01*
X82339449Y-84041942D02*
X82339449Y-83875276D01*
X82339449Y-83875276D02*
X82363258Y-83780038D01*
X82363258Y-83780038D02*
X82410877Y-83732419D01*
X82410877Y-83732419D02*
X82458496Y-83708609D01*
X82458496Y-83708609D02*
X82553734Y-83708609D01*
X82553734Y-83708609D02*
X82601353Y-83732419D01*
X82601353Y-83732419D02*
X82648972Y-83780038D01*
X82648972Y-83780038D02*
X82672782Y-83875276D01*
X82672782Y-83875276D02*
X82672782Y-84041942D01*
X82672782Y-84041942D02*
X82648972Y-84137180D01*
X82648972Y-84137180D02*
X82601353Y-84184800D01*
X82601353Y-84184800D02*
X82553734Y-84208609D01*
X82553734Y-84208609D02*
X82458496Y-84208609D01*
X83148973Y-84208609D02*
X82863259Y-84208609D01*
X83006116Y-84208609D02*
X83006116Y-83708609D01*
X83006116Y-83708609D02*
X82958497Y-83780038D01*
X82958497Y-83780038D02*
X82910878Y-83827657D01*
X82910878Y-83827657D02*
X82863259Y-83851466D01*
D10*
X98630952Y-85424809D02*
X98630952Y-84924809D01*
X98630952Y-84924809D02*
X98750000Y-84924809D01*
X98750000Y-84924809D02*
X98821428Y-84948619D01*
X98821428Y-84948619D02*
X98869047Y-84996238D01*
X98869047Y-84996238D02*
X98892857Y-85043857D01*
X98892857Y-85043857D02*
X98916666Y-85139095D01*
X98916666Y-85139095D02*
X98916666Y-85210523D01*
X98916666Y-85210523D02*
X98892857Y-85305761D01*
X98892857Y-85305761D02*
X98869047Y-85353380D01*
X98869047Y-85353380D02*
X98821428Y-85401000D01*
X98821428Y-85401000D02*
X98750000Y-85424809D01*
X98750000Y-85424809D02*
X98630952Y-85424809D01*
X99107143Y-84972428D02*
X99130952Y-84948619D01*
X99130952Y-84948619D02*
X99178571Y-84924809D01*
X99178571Y-84924809D02*
X99297619Y-84924809D01*
X99297619Y-84924809D02*
X99345238Y-84948619D01*
X99345238Y-84948619D02*
X99369047Y-84972428D01*
X99369047Y-84972428D02*
X99392857Y-85020047D01*
X99392857Y-85020047D02*
X99392857Y-85067666D01*
X99392857Y-85067666D02*
X99369047Y-85139095D01*
X99369047Y-85139095D02*
X99083333Y-85424809D01*
X99083333Y-85424809D02*
X99392857Y-85424809D01*
X95630952Y-85424809D02*
X95630952Y-84924809D01*
X95630952Y-84924809D02*
X95750000Y-84924809D01*
X95750000Y-84924809D02*
X95821428Y-84948619D01*
X95821428Y-84948619D02*
X95869047Y-84996238D01*
X95869047Y-84996238D02*
X95892857Y-85043857D01*
X95892857Y-85043857D02*
X95916666Y-85139095D01*
X95916666Y-85139095D02*
X95916666Y-85210523D01*
X95916666Y-85210523D02*
X95892857Y-85305761D01*
X95892857Y-85305761D02*
X95869047Y-85353380D01*
X95869047Y-85353380D02*
X95821428Y-85401000D01*
X95821428Y-85401000D02*
X95750000Y-85424809D01*
X95750000Y-85424809D02*
X95630952Y-85424809D01*
X96392857Y-85424809D02*
X96107143Y-85424809D01*
X96250000Y-85424809D02*
X96250000Y-84924809D01*
X96250000Y-84924809D02*
X96202381Y-84996238D01*
X96202381Y-84996238D02*
X96154762Y-85043857D01*
X96154762Y-85043857D02*
X96107143Y-85067666D01*
X84836666Y-86644809D02*
X84670000Y-86406714D01*
X84550952Y-86644809D02*
X84550952Y-86144809D01*
X84550952Y-86144809D02*
X84741428Y-86144809D01*
X84741428Y-86144809D02*
X84789047Y-86168619D01*
X84789047Y-86168619D02*
X84812857Y-86192428D01*
X84812857Y-86192428D02*
X84836666Y-86240047D01*
X84836666Y-86240047D02*
X84836666Y-86311476D01*
X84836666Y-86311476D02*
X84812857Y-86359095D01*
X84812857Y-86359095D02*
X84789047Y-86382904D01*
X84789047Y-86382904D02*
X84741428Y-86406714D01*
X84741428Y-86406714D02*
X84550952Y-86406714D01*
X85122381Y-86359095D02*
X85074762Y-86335285D01*
X85074762Y-86335285D02*
X85050952Y-86311476D01*
X85050952Y-86311476D02*
X85027143Y-86263857D01*
X85027143Y-86263857D02*
X85027143Y-86240047D01*
X85027143Y-86240047D02*
X85050952Y-86192428D01*
X85050952Y-86192428D02*
X85074762Y-86168619D01*
X85074762Y-86168619D02*
X85122381Y-86144809D01*
X85122381Y-86144809D02*
X85217619Y-86144809D01*
X85217619Y-86144809D02*
X85265238Y-86168619D01*
X85265238Y-86168619D02*
X85289047Y-86192428D01*
X85289047Y-86192428D02*
X85312857Y-86240047D01*
X85312857Y-86240047D02*
X85312857Y-86263857D01*
X85312857Y-86263857D02*
X85289047Y-86311476D01*
X85289047Y-86311476D02*
X85265238Y-86335285D01*
X85265238Y-86335285D02*
X85217619Y-86359095D01*
X85217619Y-86359095D02*
X85122381Y-86359095D01*
X85122381Y-86359095D02*
X85074762Y-86382904D01*
X85074762Y-86382904D02*
X85050952Y-86406714D01*
X85050952Y-86406714D02*
X85027143Y-86454333D01*
X85027143Y-86454333D02*
X85027143Y-86549571D01*
X85027143Y-86549571D02*
X85050952Y-86597190D01*
X85050952Y-86597190D02*
X85074762Y-86621000D01*
X85074762Y-86621000D02*
X85122381Y-86644809D01*
X85122381Y-86644809D02*
X85217619Y-86644809D01*
X85217619Y-86644809D02*
X85265238Y-86621000D01*
X85265238Y-86621000D02*
X85289047Y-86597190D01*
X85289047Y-86597190D02*
X85312857Y-86549571D01*
X85312857Y-86549571D02*
X85312857Y-86454333D01*
X85312857Y-86454333D02*
X85289047Y-86406714D01*
X85289047Y-86406714D02*
X85265238Y-86382904D01*
X85265238Y-86382904D02*
X85217619Y-86359095D01*
X109366666Y-94614974D02*
X109200000Y-94376879D01*
X109080952Y-94614974D02*
X109080952Y-94114974D01*
X109080952Y-94114974D02*
X109271428Y-94114974D01*
X109271428Y-94114974D02*
X109319047Y-94138784D01*
X109319047Y-94138784D02*
X109342857Y-94162593D01*
X109342857Y-94162593D02*
X109366666Y-94210212D01*
X109366666Y-94210212D02*
X109366666Y-94281641D01*
X109366666Y-94281641D02*
X109342857Y-94329260D01*
X109342857Y-94329260D02*
X109319047Y-94353069D01*
X109319047Y-94353069D02*
X109271428Y-94376879D01*
X109271428Y-94376879D02*
X109080952Y-94376879D01*
X109795238Y-94114974D02*
X109700000Y-94114974D01*
X109700000Y-94114974D02*
X109652381Y-94138784D01*
X109652381Y-94138784D02*
X109628571Y-94162593D01*
X109628571Y-94162593D02*
X109580952Y-94234022D01*
X109580952Y-94234022D02*
X109557143Y-94329260D01*
X109557143Y-94329260D02*
X109557143Y-94519736D01*
X109557143Y-94519736D02*
X109580952Y-94567355D01*
X109580952Y-94567355D02*
X109604762Y-94591165D01*
X109604762Y-94591165D02*
X109652381Y-94614974D01*
X109652381Y-94614974D02*
X109747619Y-94614974D01*
X109747619Y-94614974D02*
X109795238Y-94591165D01*
X109795238Y-94591165D02*
X109819047Y-94567355D01*
X109819047Y-94567355D02*
X109842857Y-94519736D01*
X109842857Y-94519736D02*
X109842857Y-94400688D01*
X109842857Y-94400688D02*
X109819047Y-94353069D01*
X109819047Y-94353069D02*
X109795238Y-94329260D01*
X109795238Y-94329260D02*
X109747619Y-94305450D01*
X109747619Y-94305450D02*
X109652381Y-94305450D01*
X109652381Y-94305450D02*
X109604762Y-94329260D01*
X109604762Y-94329260D02*
X109580952Y-94353069D01*
X109580952Y-94353069D02*
X109557143Y-94400688D01*
X87816666Y-80902190D02*
X87792857Y-80926000D01*
X87792857Y-80926000D02*
X87721428Y-80949809D01*
X87721428Y-80949809D02*
X87673809Y-80949809D01*
X87673809Y-80949809D02*
X87602381Y-80926000D01*
X87602381Y-80926000D02*
X87554762Y-80878380D01*
X87554762Y-80878380D02*
X87530952Y-80830761D01*
X87530952Y-80830761D02*
X87507143Y-80735523D01*
X87507143Y-80735523D02*
X87507143Y-80664095D01*
X87507143Y-80664095D02*
X87530952Y-80568857D01*
X87530952Y-80568857D02*
X87554762Y-80521238D01*
X87554762Y-80521238D02*
X87602381Y-80473619D01*
X87602381Y-80473619D02*
X87673809Y-80449809D01*
X87673809Y-80449809D02*
X87721428Y-80449809D01*
X87721428Y-80449809D02*
X87792857Y-80473619D01*
X87792857Y-80473619D02*
X87816666Y-80497428D01*
X88007143Y-80497428D02*
X88030952Y-80473619D01*
X88030952Y-80473619D02*
X88078571Y-80449809D01*
X88078571Y-80449809D02*
X88197619Y-80449809D01*
X88197619Y-80449809D02*
X88245238Y-80473619D01*
X88245238Y-80473619D02*
X88269047Y-80497428D01*
X88269047Y-80497428D02*
X88292857Y-80545047D01*
X88292857Y-80545047D02*
X88292857Y-80592666D01*
X88292857Y-80592666D02*
X88269047Y-80664095D01*
X88269047Y-80664095D02*
X87983333Y-80949809D01*
X87983333Y-80949809D02*
X88292857Y-80949809D01*
X89138571Y-94954809D02*
X88971905Y-94716714D01*
X88852857Y-94954809D02*
X88852857Y-94454809D01*
X88852857Y-94454809D02*
X89043333Y-94454809D01*
X89043333Y-94454809D02*
X89090952Y-94478619D01*
X89090952Y-94478619D02*
X89114762Y-94502428D01*
X89114762Y-94502428D02*
X89138571Y-94550047D01*
X89138571Y-94550047D02*
X89138571Y-94621476D01*
X89138571Y-94621476D02*
X89114762Y-94669095D01*
X89114762Y-94669095D02*
X89090952Y-94692904D01*
X89090952Y-94692904D02*
X89043333Y-94716714D01*
X89043333Y-94716714D02*
X88852857Y-94716714D01*
X89614762Y-94954809D02*
X89329048Y-94954809D01*
X89471905Y-94954809D02*
X89471905Y-94454809D01*
X89471905Y-94454809D02*
X89424286Y-94526238D01*
X89424286Y-94526238D02*
X89376667Y-94573857D01*
X89376667Y-94573857D02*
X89329048Y-94597666D01*
X89924285Y-94454809D02*
X89971904Y-94454809D01*
X89971904Y-94454809D02*
X90019523Y-94478619D01*
X90019523Y-94478619D02*
X90043333Y-94502428D01*
X90043333Y-94502428D02*
X90067142Y-94550047D01*
X90067142Y-94550047D02*
X90090952Y-94645285D01*
X90090952Y-94645285D02*
X90090952Y-94764333D01*
X90090952Y-94764333D02*
X90067142Y-94859571D01*
X90067142Y-94859571D02*
X90043333Y-94907190D01*
X90043333Y-94907190D02*
X90019523Y-94931000D01*
X90019523Y-94931000D02*
X89971904Y-94954809D01*
X89971904Y-94954809D02*
X89924285Y-94954809D01*
X89924285Y-94954809D02*
X89876666Y-94931000D01*
X89876666Y-94931000D02*
X89852857Y-94907190D01*
X89852857Y-94907190D02*
X89829047Y-94859571D01*
X89829047Y-94859571D02*
X89805238Y-94764333D01*
X89805238Y-94764333D02*
X89805238Y-94645285D01*
X89805238Y-94645285D02*
X89829047Y-94550047D01*
X89829047Y-94550047D02*
X89852857Y-94502428D01*
X89852857Y-94502428D02*
X89876666Y-94478619D01*
X89876666Y-94478619D02*
X89924285Y-94454809D01*
X101800000Y-81274834D02*
X101800000Y-80524834D01*
X101800000Y-80524834D02*
X102085714Y-80524834D01*
X102085714Y-80524834D02*
X102157143Y-80560548D01*
X102157143Y-80560548D02*
X102192857Y-80596262D01*
X102192857Y-80596262D02*
X102228571Y-80667691D01*
X102228571Y-80667691D02*
X102228571Y-80774834D01*
X102228571Y-80774834D02*
X102192857Y-80846262D01*
X102192857Y-80846262D02*
X102157143Y-80881977D01*
X102157143Y-80881977D02*
X102085714Y-80917691D01*
X102085714Y-80917691D02*
X101800000Y-80917691D01*
X102478571Y-80524834D02*
X102657143Y-81274834D01*
X102657143Y-81274834D02*
X102800000Y-80739120D01*
X102800000Y-80739120D02*
X102942857Y-81274834D01*
X102942857Y-81274834D02*
X103121429Y-80524834D01*
X103835714Y-81274834D02*
X103585714Y-80917691D01*
X103407143Y-81274834D02*
X103407143Y-80524834D01*
X103407143Y-80524834D02*
X103692857Y-80524834D01*
X103692857Y-80524834D02*
X103764286Y-80560548D01*
X103764286Y-80560548D02*
X103800000Y-80596262D01*
X103800000Y-80596262D02*
X103835714Y-80667691D01*
X103835714Y-80667691D02*
X103835714Y-80774834D01*
X103835714Y-80774834D02*
X103800000Y-80846262D01*
X103800000Y-80846262D02*
X103764286Y-80881977D01*
X103764286Y-80881977D02*
X103692857Y-80917691D01*
X103692857Y-80917691D02*
X103407143Y-80917691D01*
D13*
X106766666Y-97979847D02*
X106766666Y-98265561D01*
X106766666Y-98265561D02*
X106747619Y-98322704D01*
X106747619Y-98322704D02*
X106709523Y-98360800D01*
X106709523Y-98360800D02*
X106652381Y-98379847D01*
X106652381Y-98379847D02*
X106614285Y-98379847D01*
X106957143Y-98379847D02*
X106957143Y-97979847D01*
X106957143Y-97979847D02*
X107109524Y-97979847D01*
X107109524Y-97979847D02*
X107147619Y-97998895D01*
X107147619Y-97998895D02*
X107166666Y-98017942D01*
X107166666Y-98017942D02*
X107185714Y-98056038D01*
X107185714Y-98056038D02*
X107185714Y-98113180D01*
X107185714Y-98113180D02*
X107166666Y-98151276D01*
X107166666Y-98151276D02*
X107147619Y-98170323D01*
X107147619Y-98170323D02*
X107109524Y-98189371D01*
X107109524Y-98189371D02*
X106957143Y-98189371D01*
X107338095Y-98017942D02*
X107357143Y-97998895D01*
X107357143Y-97998895D02*
X107395238Y-97979847D01*
X107395238Y-97979847D02*
X107490476Y-97979847D01*
X107490476Y-97979847D02*
X107528571Y-97998895D01*
X107528571Y-97998895D02*
X107547619Y-98017942D01*
X107547619Y-98017942D02*
X107566666Y-98056038D01*
X107566666Y-98056038D02*
X107566666Y-98094133D01*
X107566666Y-98094133D02*
X107547619Y-98151276D01*
X107547619Y-98151276D02*
X107319047Y-98379847D01*
X107319047Y-98379847D02*
X107566666Y-98379847D01*
D10*
X103016666Y-87024809D02*
X102850000Y-86786714D01*
X102730952Y-87024809D02*
X102730952Y-86524809D01*
X102730952Y-86524809D02*
X102921428Y-86524809D01*
X102921428Y-86524809D02*
X102969047Y-86548619D01*
X102969047Y-86548619D02*
X102992857Y-86572428D01*
X102992857Y-86572428D02*
X103016666Y-86620047D01*
X103016666Y-86620047D02*
X103016666Y-86691476D01*
X103016666Y-86691476D02*
X102992857Y-86739095D01*
X102992857Y-86739095D02*
X102969047Y-86762904D01*
X102969047Y-86762904D02*
X102921428Y-86786714D01*
X102921428Y-86786714D02*
X102730952Y-86786714D01*
X103207143Y-86572428D02*
X103230952Y-86548619D01*
X103230952Y-86548619D02*
X103278571Y-86524809D01*
X103278571Y-86524809D02*
X103397619Y-86524809D01*
X103397619Y-86524809D02*
X103445238Y-86548619D01*
X103445238Y-86548619D02*
X103469047Y-86572428D01*
X103469047Y-86572428D02*
X103492857Y-86620047D01*
X103492857Y-86620047D02*
X103492857Y-86667666D01*
X103492857Y-86667666D02*
X103469047Y-86739095D01*
X103469047Y-86739095D02*
X103183333Y-87024809D01*
X103183333Y-87024809D02*
X103492857Y-87024809D01*
%TO.C,C4*%
D14*
X91315000Y-83223752D02*
X91315000Y-82701248D01*
X92785000Y-83223752D02*
X92785000Y-82701248D01*
%TO.C,R4*%
X113267224Y-82552500D02*
X112757776Y-82552500D01*
X113267224Y-83597500D02*
X112757776Y-83597500D01*
%TO.C,R14*%
X79377776Y-85157500D02*
X79887224Y-85157500D01*
X79377776Y-86202500D02*
X79887224Y-86202500D01*
%TO.C,REF\u002A\u002A*%
X115272936Y-84940000D02*
X119627064Y-84940000D01*
X115272936Y-88360000D02*
X119627064Y-88360000D01*
%TO.C,R11*%
X85842776Y-95127500D02*
X86352224Y-95127500D01*
X85842776Y-96172500D02*
X86352224Y-96172500D01*
%TO.C,J2*%
D15*
X76310400Y-87033000D02*
X77660400Y-87033000D01*
X76310400Y-95973000D02*
X76310400Y-87033000D01*
X77660400Y-95973000D02*
X76310400Y-95973000D01*
X80310400Y-87033000D02*
X81660400Y-87033000D01*
X81660400Y-95973000D02*
X80310400Y-95973000D01*
%TO.C,D5*%
D11*
X110795000Y-87005000D02*
X112545000Y-87005000D01*
X110795000Y-88465000D02*
X112545000Y-88465000D01*
X111195000Y-87005000D02*
X111195000Y-88465000D01*
X112545000Y-87005000D02*
X112545000Y-87205000D01*
X112545000Y-88465000D02*
X112545000Y-88255000D01*
D16*
X110445000Y-88385000D02*
G75*
G02*
X110385000Y-88385000I-30000J0D01*
G01*
X110385000Y-88385000D02*
G75*
G02*
X110445000Y-88385000I30000J0D01*
G01*
D17*
G36*
X110869995Y-87285115D02*
G01*
X110565221Y-87285115D01*
X110565221Y-86932690D01*
X110869995Y-86932690D01*
X110869995Y-87285115D01*
G37*
G36*
X110869995Y-88537538D02*
G01*
X110565221Y-88537538D01*
X110565221Y-88185139D01*
X110869995Y-88185139D01*
X110869995Y-88537538D01*
G37*
D11*
X110870000Y-94570000D02*
X112620000Y-94570000D01*
X110870000Y-96030000D02*
X112620000Y-96030000D01*
X111270000Y-94570000D02*
X111270000Y-96030000D01*
X112620000Y-94570000D02*
X112620000Y-94770000D01*
X112620000Y-96030000D02*
X112620000Y-95820000D01*
D16*
X110520000Y-95950000D02*
G75*
G02*
X110460000Y-95950000I-30000J0D01*
G01*
X110460000Y-95950000D02*
G75*
G02*
X110520000Y-95950000I30000J0D01*
G01*
D17*
G36*
X110944995Y-94850115D02*
G01*
X110640221Y-94850115D01*
X110640221Y-94497690D01*
X110944995Y-94497690D01*
X110944995Y-94850115D01*
G37*
G36*
X110944995Y-96102538D02*
G01*
X110640221Y-96102538D01*
X110640221Y-95750139D01*
X110944995Y-95750139D01*
X110944995Y-96102538D01*
G37*
%TO.C,R3*%
D14*
X87215976Y-87360793D02*
X86706528Y-87360793D01*
X87215976Y-88405793D02*
X86706528Y-88405793D01*
%TO.C,JP1*%
X106640000Y-87690000D02*
X106640000Y-85215000D01*
X107186529Y-87690000D02*
X106640000Y-87690000D01*
X107442470Y-85215000D02*
X106640000Y-85215000D01*
X108860000Y-85215000D02*
X108057530Y-85215000D01*
X108860000Y-87690000D02*
X108313471Y-87690000D01*
X108860000Y-87690000D02*
X108860000Y-85215000D01*
X108860000Y-88450000D02*
X108860000Y-89210000D01*
X108860000Y-89210000D02*
X107750000Y-89210000D01*
%TO.C,J1*%
X95180000Y-82680000D02*
X95180000Y-81350000D01*
X96510000Y-82680000D02*
X95180000Y-82680000D01*
X97780000Y-80020000D02*
X100380000Y-80020000D01*
X97780000Y-82680000D02*
X97780000Y-80020000D01*
X97780000Y-82680000D02*
X100380000Y-82680000D01*
X100380000Y-82680000D02*
X100380000Y-80020000D01*
%TO.C,REF\u002A\u002A*%
X119627064Y-94390000D02*
X115272936Y-94390000D01*
X119627064Y-97810000D02*
X115272936Y-97810000D01*
%TO.C,D3*%
X92965000Y-87040000D02*
X92965000Y-89500000D01*
X92965000Y-89500000D02*
X94435000Y-89500000D01*
X94435000Y-89500000D02*
X94435000Y-87040000D01*
%TO.C,R5*%
X113267224Y-99327500D02*
X112757776Y-99327500D01*
X113267224Y-100372500D02*
X112757776Y-100372500D01*
%TO.C,D4*%
X99465000Y-87000000D02*
X99465000Y-89460000D01*
X99465000Y-89460000D02*
X100935000Y-89460000D01*
X100935000Y-89460000D02*
X100935000Y-87000000D01*
%TO.C,U2*%
D18*
X109300000Y-88930000D02*
X109300000Y-89070000D01*
X109300000Y-88930000D02*
X110570000Y-88930000D01*
X109300000Y-93830000D02*
X109300000Y-93950000D01*
X111940000Y-88930000D02*
X113200000Y-88930000D01*
X113200000Y-88930000D02*
X113200000Y-89070000D01*
X113200000Y-93830000D02*
X113200000Y-93950000D01*
X113200000Y-93950000D02*
X109300000Y-93950000D01*
X111929802Y-88930179D02*
G75*
G02*
X110570000Y-88930000I-679802J750180D01*
G01*
X107415474Y-89509462D02*
G75*
G02*
X106915474Y-89509462I-250000J0D01*
G01*
X106915474Y-89509462D02*
G75*
G02*
X107415474Y-89509462I250000J0D01*
G01*
%TO.C,Burn1*%
X91432431Y-90968990D02*
X97432431Y-90968990D01*
X91432431Y-96968990D02*
X91432431Y-90968990D01*
X97432431Y-90968990D02*
X97432431Y-96968990D01*
X97432431Y-96968990D02*
X91432431Y-96968990D01*
X92912431Y-91938990D02*
G75*
G02*
X91892431Y-91938990I-510000J0D01*
G01*
X91892431Y-91938990D02*
G75*
G02*
X92912431Y-91938990I510000J0D01*
G01*
X92912431Y-95998990D02*
G75*
G02*
X91892431Y-95998990I-510000J0D01*
G01*
X91892431Y-95998990D02*
G75*
G02*
X92912431Y-95998990I510000J0D01*
G01*
X95962431Y-93968990D02*
G75*
G02*
X92902431Y-93968990I-1530000J0D01*
G01*
X92902431Y-93968990D02*
G75*
G02*
X95962431Y-93968990I1530000J0D01*
G01*
X96972431Y-91938990D02*
G75*
G02*
X95952431Y-91938990I-510000J0D01*
G01*
X95952431Y-91938990D02*
G75*
G02*
X96972431Y-91938990I510000J0D01*
G01*
X96972431Y-95998990D02*
G75*
G02*
X95952431Y-95998990I-510000J0D01*
G01*
X95952431Y-95998990D02*
G75*
G02*
X96972431Y-95998990I510000J0D01*
G01*
%TO.C,C1*%
D14*
X87726248Y-89215000D02*
X88248752Y-89215000D01*
X87726248Y-90685000D02*
X88248752Y-90685000D01*
%TO.C,J3*%
X126800000Y-86800000D02*
X126800000Y-87750000D01*
X126800000Y-95320000D02*
X125310000Y-95320000D01*
X126800000Y-96270000D02*
X126800000Y-95320000D01*
X127250000Y-86800000D02*
X126800000Y-86800000D01*
X127250000Y-96270000D02*
X126800000Y-96270000D01*
X130770000Y-96270000D02*
X131220000Y-96270000D01*
X131220000Y-86800000D02*
X130770000Y-86800000D01*
X131220000Y-96270000D02*
X131220000Y-86800000D01*
%TO.C,R7*%
X108877500Y-86567776D02*
X108877500Y-87077224D01*
X109922500Y-86567776D02*
X109922500Y-87077224D01*
%TO.C,J2*%
X124780000Y-85045000D02*
X124780000Y-87220000D01*
X124780000Y-95840000D02*
X124380000Y-95840000D01*
X124780000Y-98015000D02*
X124780000Y-95840000D01*
X128910000Y-85045000D02*
X124780000Y-85045000D01*
X128910000Y-98015000D02*
X124780000Y-98015000D01*
X129100000Y-87215000D02*
X131100000Y-87215000D01*
X129100000Y-95845000D02*
X129100000Y-87215000D01*
X131100000Y-87215000D02*
X131100000Y-86060000D01*
X131100000Y-95845000D02*
X129100000Y-95845000D01*
X131100000Y-97000000D02*
X131100000Y-95845000D01*
%TO.C,R17*%
X112757776Y-81095525D02*
X113267224Y-81095525D01*
X112757776Y-82140525D02*
X113267224Y-82140525D01*
%TO.C,R9*%
X88977500Y-87442224D02*
X88977500Y-86932776D01*
X90022500Y-87442224D02*
X90022500Y-86932776D01*
%TO.C,C3*%
X89235000Y-83223752D02*
X89235000Y-82701248D01*
X90705000Y-83223752D02*
X90705000Y-82701248D01*
%TO.C,R15*%
X121790000Y-83047749D02*
X121790000Y-82538301D01*
X122835000Y-83047749D02*
X122835000Y-82538301D01*
%TO.C,R19*%
X79387776Y-96817500D02*
X79897224Y-96817500D01*
X79387776Y-97862500D02*
X79897224Y-97862500D01*
%TO.C,Burn2*%
D18*
X97882431Y-90968990D02*
X103882431Y-90968990D01*
X97882431Y-96968990D02*
X97882431Y-90968990D01*
X103882431Y-90968990D02*
X103882431Y-96968990D01*
X103882431Y-96968990D02*
X97882431Y-96968990D01*
X99362431Y-91938990D02*
G75*
G02*
X98342431Y-91938990I-510000J0D01*
G01*
X98342431Y-91938990D02*
G75*
G02*
X99362431Y-91938990I510000J0D01*
G01*
X99362431Y-95998990D02*
G75*
G02*
X98342431Y-95998990I-510000J0D01*
G01*
X98342431Y-95998990D02*
G75*
G02*
X99362431Y-95998990I510000J0D01*
G01*
X102412431Y-93968990D02*
G75*
G02*
X99352431Y-93968990I-1530000J0D01*
G01*
X99352431Y-93968990D02*
G75*
G02*
X102412431Y-93968990I1530000J0D01*
G01*
X103422431Y-91938990D02*
G75*
G02*
X102402431Y-91938990I-510000J0D01*
G01*
X102402431Y-91938990D02*
G75*
G02*
X103422431Y-91938990I510000J0D01*
G01*
X103422431Y-95998990D02*
G75*
G02*
X102402431Y-95998990I-510000J0D01*
G01*
X102402431Y-95998990D02*
G75*
G02*
X103422431Y-95998990I510000J0D01*
G01*
%TO.C,R1*%
D14*
X94715000Y-87607776D02*
X94715000Y-88117224D01*
X95760000Y-87607776D02*
X95760000Y-88117224D01*
%TO.C,R16*%
X100927500Y-83342224D02*
X100927500Y-82832776D01*
X101972500Y-83342224D02*
X101972500Y-82832776D01*
%TO.C,Q1*%
D19*
X83339161Y-81237500D02*
X86689161Y-81237500D01*
X83339161Y-84587500D02*
X83339161Y-81237500D01*
X86689161Y-81237500D02*
X86689161Y-84587500D01*
X86689161Y-84587500D02*
X83339161Y-84587500D01*
D20*
X83602782Y-84588900D02*
G75*
G02*
X83123540Y-84588900I-239621J0D01*
G01*
X83123540Y-84588900D02*
G75*
G02*
X83602782Y-84588900I239621J0D01*
G01*
%TO.C,D2*%
D14*
X98341188Y-83400000D02*
X100301188Y-83400000D01*
X98341188Y-84600000D02*
X100301188Y-84600000D01*
X100301188Y-84600000D02*
X100301188Y-83400000D01*
%TO.C,D1*%
X95237500Y-83400000D02*
X97197500Y-83400000D01*
X95237500Y-84600000D02*
X97197500Y-84600000D01*
X97197500Y-84600000D02*
X97197500Y-83400000D01*
%TO.C,R8*%
X86712776Y-85837500D02*
X87222224Y-85837500D01*
X86712776Y-86882500D02*
X87222224Y-86882500D01*
%TO.C,R20*%
X121790000Y-99757776D02*
X121790000Y-100267224D01*
X122835000Y-99757776D02*
X122835000Y-100267224D01*
%TO.C,R6*%
X108927500Y-96417224D02*
X108927500Y-95907776D01*
X109972500Y-96417224D02*
X109972500Y-95907776D01*
%TO.C,C2*%
X87165000Y-83223752D02*
X87165000Y-82701248D01*
X88635000Y-83223752D02*
X88635000Y-82701248D01*
%TO.C,R10*%
X89217776Y-95127500D02*
X89727224Y-95127500D01*
X89217776Y-96172500D02*
X89727224Y-96172500D01*
%TO.C,D7*%
X102642051Y-82325000D02*
X102642051Y-84785000D01*
X102642051Y-84785000D02*
X104112051Y-84785000D01*
X104112051Y-84785000D02*
X104112051Y-82325000D01*
D17*
%TO.C,G\u002A\u002A\u002A*%
G36*
X101167314Y-100917494D02*
G01*
X101220062Y-100933502D01*
X101240494Y-100964445D01*
X101243180Y-101002012D01*
X101232953Y-101088535D01*
X101198022Y-101139075D01*
X101131986Y-101160418D01*
X101092410Y-101162312D01*
X101000871Y-101174159D01*
X100929170Y-101214500D01*
X100924524Y-101218414D01*
X100859233Y-101274518D01*
X100851781Y-101637263D01*
X100844325Y-102000008D01*
X100747068Y-101999998D01*
X100649812Y-101999986D01*
X100649812Y-101464793D01*
X100649812Y-100929602D01*
X100748708Y-100929610D01*
X100810903Y-100932212D01*
X100839498Y-100945403D01*
X100847361Y-100977285D01*
X100847604Y-100991848D01*
X100847604Y-101054077D01*
X100899955Y-101005034D01*
X100995633Y-100941603D01*
X101102107Y-100914130D01*
X101167314Y-100917494D01*
G37*
G36*
X89909284Y-102066531D02*
G01*
X89981803Y-102097580D01*
X90084902Y-102144987D01*
X90210878Y-102205196D01*
X90352029Y-102274656D01*
X90371948Y-102284609D01*
X90829857Y-102513826D01*
X90933110Y-102471181D01*
X90992968Y-102444085D01*
X91087306Y-102398599D01*
X91204860Y-102340269D01*
X91334369Y-102274642D01*
X91384837Y-102248705D01*
X91507377Y-102185547D01*
X91613792Y-102130849D01*
X91695584Y-102088966D01*
X91744260Y-102064254D01*
X91753524Y-102059698D01*
X91792721Y-102059849D01*
X91814510Y-102066168D01*
X91841197Y-102084501D01*
X91827374Y-102115315D01*
X91820112Y-102124347D01*
X91788176Y-102147010D01*
X91718694Y-102187227D01*
X91620306Y-102240645D01*
X91501655Y-102302909D01*
X91371381Y-102369663D01*
X91238125Y-102436553D01*
X91110531Y-102499225D01*
X90997237Y-102553323D01*
X90906887Y-102594493D01*
X90848122Y-102618380D01*
X90831406Y-102622602D01*
X90800921Y-102611534D01*
X90731435Y-102581004D01*
X90630247Y-102534388D01*
X90504655Y-102475063D01*
X90361958Y-102406406D01*
X90320051Y-102386027D01*
X90147454Y-102300742D01*
X90017650Y-102233701D01*
X89926199Y-102182306D01*
X89868662Y-102143960D01*
X89840600Y-102116064D01*
X89836057Y-102102760D01*
X89853543Y-102063300D01*
X89875048Y-102055391D01*
X89909284Y-102066531D01*
G37*
G36*
X99711672Y-101321561D02*
G01*
X99714941Y-101468592D01*
X99718986Y-101576377D01*
X99724650Y-101652212D01*
X99732790Y-101703389D01*
X99744237Y-101737202D01*
X99759841Y-101760940D01*
X99762956Y-101764483D01*
X99833337Y-101811207D01*
X99924421Y-101830840D01*
X100016776Y-101819830D01*
X100033208Y-101813838D01*
X100072937Y-101790364D01*
X100102759Y-101753263D01*
X100123986Y-101696465D01*
X100137917Y-101613901D01*
X100145860Y-101499504D01*
X100149107Y-101347194D01*
X100149390Y-101272842D01*
X100149522Y-100929619D01*
X100254235Y-100929619D01*
X100358948Y-100929619D01*
X100358948Y-101464813D01*
X100358948Y-102000008D01*
X100254235Y-102000008D01*
X100188887Y-101997014D01*
X100157968Y-101984450D01*
X100149581Y-101956942D01*
X100149522Y-101952774D01*
X100147486Y-101922977D01*
X100133821Y-101919995D01*
X100097186Y-101944264D01*
X100082136Y-101955358D01*
X100000215Y-101994090D01*
X99896719Y-102013958D01*
X99793868Y-102011806D01*
X99751932Y-102002243D01*
X99644403Y-101950870D01*
X99568343Y-101879369D01*
X99544637Y-101837403D01*
X99533036Y-101783935D01*
X99523961Y-101687871D01*
X99517668Y-101553093D01*
X99514403Y-101383489D01*
X99514190Y-101355700D01*
X99511602Y-100941254D01*
X99607957Y-100934174D01*
X99704308Y-100927092D01*
X99711672Y-101321561D01*
G37*
G36*
X94564885Y-101463476D02*
G01*
X94564885Y-102000008D01*
X94460171Y-102000008D01*
X94390331Y-101995149D01*
X94358965Y-101979027D01*
X94355460Y-101966241D01*
X94348220Y-101948734D01*
X94320074Y-101951358D01*
X94261355Y-101975197D01*
X94256564Y-101977365D01*
X94155382Y-102013080D01*
X94063999Y-102017792D01*
X93960373Y-101992328D01*
X93950182Y-101988761D01*
X93874129Y-101951785D01*
X93806628Y-101903511D01*
X93798933Y-101896229D01*
X93778277Y-101874532D01*
X93762879Y-101851986D01*
X93751855Y-101821690D01*
X93744285Y-101776753D01*
X93739268Y-101710272D01*
X93735901Y-101615357D01*
X93733282Y-101485107D01*
X93731624Y-101382897D01*
X93724421Y-100929619D01*
X93818882Y-100929619D01*
X93913342Y-100929619D01*
X93913471Y-101261207D01*
X93915214Y-101388860D01*
X93919899Y-101507123D01*
X93926865Y-101604595D01*
X93935447Y-101669856D01*
X93937826Y-101680018D01*
X93981581Y-101759912D01*
X94053328Y-101813635D01*
X94140111Y-101837024D01*
X94228973Y-101825923D01*
X94288888Y-101792693D01*
X94308822Y-101774649D01*
X94323515Y-101752783D01*
X94334036Y-101719906D01*
X94341447Y-101668828D01*
X94346828Y-101592361D01*
X94351240Y-101483309D01*
X94355460Y-101344759D01*
X94367094Y-100941254D01*
X94465986Y-100934100D01*
X94564885Y-100926943D01*
X94564885Y-101463476D01*
G37*
G36*
X89909299Y-101653498D02*
G01*
X89981854Y-101684478D01*
X90085001Y-101731777D01*
X90211032Y-101791848D01*
X90352238Y-101861145D01*
X90371948Y-101870966D01*
X90514414Y-101940546D01*
X90642765Y-102000330D01*
X90749325Y-102046977D01*
X90826419Y-102077146D01*
X90866372Y-102087495D01*
X90868577Y-102087168D01*
X90903059Y-102072280D01*
X90975882Y-102038249D01*
X91079135Y-101988859D01*
X91204904Y-101927897D01*
X91345277Y-101859148D01*
X91351217Y-101856224D01*
X91532736Y-101768981D01*
X91671147Y-101707394D01*
X91767889Y-101671026D01*
X91824400Y-101659437D01*
X91842118Y-101672191D01*
X91822481Y-101708849D01*
X91818458Y-101713886D01*
X91787622Y-101735310D01*
X91719195Y-101774207D01*
X91621736Y-101826316D01*
X91503801Y-101887375D01*
X91373946Y-101953124D01*
X91240729Y-102019301D01*
X91112706Y-102081645D01*
X90998435Y-102135895D01*
X90906471Y-102177788D01*
X90845372Y-102203064D01*
X90825126Y-102208570D01*
X90796549Y-102197266D01*
X90728787Y-102166659D01*
X90629035Y-102120118D01*
X90504492Y-102061009D01*
X90362353Y-101992702D01*
X90320051Y-101972226D01*
X90147823Y-101887589D01*
X90018330Y-101821098D01*
X89927050Y-101770114D01*
X89869459Y-101732000D01*
X89841036Y-101704119D01*
X89836057Y-101689981D01*
X89853469Y-101650391D01*
X89875048Y-101642383D01*
X89909299Y-101653498D01*
G37*
G36*
X98890715Y-100919843D02*
G01*
X99018227Y-100973836D01*
X99103915Y-101038468D01*
X99188395Y-101143303D01*
X99241977Y-101270483D01*
X99265629Y-101410734D01*
X99260314Y-101554779D01*
X99226997Y-101693337D01*
X99166647Y-101817135D01*
X99080224Y-101916899D01*
X99007329Y-101966137D01*
X98919904Y-101996284D01*
X98813591Y-102012373D01*
X98711065Y-102012136D01*
X98654794Y-102001404D01*
X98522285Y-101936366D01*
X98421036Y-101837388D01*
X98352507Y-101706273D01*
X98324220Y-101592795D01*
X98319431Y-101513785D01*
X98320458Y-101493213D01*
X98544175Y-101493213D01*
X98553027Y-101599903D01*
X98573253Y-101689296D01*
X98602111Y-101744384D01*
X98689776Y-101811582D01*
X98788448Y-101834650D01*
X98891914Y-101812693D01*
X98932076Y-101791828D01*
X98982604Y-101745213D01*
X99014993Y-101674520D01*
X99030709Y-101573561D01*
X99031207Y-101436155D01*
X99028412Y-101383802D01*
X99018184Y-101289099D01*
X98999041Y-101225478D01*
X98966256Y-101177674D01*
X98963827Y-101175054D01*
X98880900Y-101116630D01*
X98787888Y-101098361D01*
X98696086Y-101119072D01*
X98616804Y-101177583D01*
X98589364Y-101214089D01*
X98561997Y-101285830D01*
X98547052Y-101383697D01*
X98544175Y-101493213D01*
X98320458Y-101493213D01*
X98324292Y-101416409D01*
X98336771Y-101315513D01*
X98354836Y-101225949D01*
X98376459Y-101162562D01*
X98384965Y-101148707D01*
X98504351Y-101025750D01*
X98630573Y-100946293D01*
X98760427Y-100910828D01*
X98890715Y-100919843D01*
G37*
G36*
X96615587Y-100949750D02*
G01*
X96679584Y-100982374D01*
X96751527Y-101049635D01*
X96811561Y-101150824D01*
X96853985Y-101273751D01*
X96872526Y-101395003D01*
X96880179Y-101522986D01*
X96523609Y-101529420D01*
X96167040Y-101535851D01*
X96183141Y-101610862D01*
X96210174Y-101701840D01*
X96249865Y-101760145D01*
X96312188Y-101799575D01*
X96322844Y-101804185D01*
X96438461Y-101833401D01*
X96543545Y-101823311D01*
X96630346Y-101775606D01*
X96671440Y-101728105D01*
X96698331Y-101692285D01*
X96723940Y-101686488D01*
X96767336Y-101708052D01*
X96776480Y-101713438D01*
X96822863Y-101746363D01*
X96844973Y-101772916D01*
X96845278Y-101775071D01*
X96830035Y-101802094D01*
X96790924Y-101848820D01*
X96757492Y-101883843D01*
X96640879Y-101970334D01*
X96507575Y-102013421D01*
X96357899Y-102013031D01*
X96295299Y-102001110D01*
X96177908Y-101950658D01*
X96084106Y-101864036D01*
X96016177Y-101746462D01*
X95976408Y-101603140D01*
X95967083Y-101439281D01*
X95974851Y-101371736D01*
X96175368Y-101371736D01*
X96417244Y-101371736D01*
X96659124Y-101371736D01*
X96659124Y-101313930D01*
X96643988Y-101260712D01*
X96606204Y-101198322D01*
X96591225Y-101180131D01*
X96538986Y-101130582D01*
X96485935Y-101108703D01*
X96417350Y-101104139D01*
X96316580Y-101120405D01*
X96245874Y-101171122D01*
X96201705Y-101259175D01*
X96194530Y-101286781D01*
X96175368Y-101371736D01*
X95974851Y-101371736D01*
X95984076Y-101291535D01*
X96007197Y-101194711D01*
X96038740Y-101124728D01*
X96088102Y-101061898D01*
X96099210Y-101050242D01*
X96211035Y-100966520D01*
X96340990Y-100921090D01*
X96479149Y-100915114D01*
X96615587Y-100949750D01*
G37*
G36*
X102021330Y-100949484D02*
G01*
X102092446Y-100983376D01*
X102155642Y-101031774D01*
X102214026Y-101097857D01*
X102259226Y-101169054D01*
X102282883Y-101232786D01*
X102281580Y-101267821D01*
X102249823Y-101294014D01*
X102193753Y-101303938D01*
X102132363Y-101298385D01*
X102084644Y-101278138D01*
X102070412Y-101259069D01*
X102023640Y-101180868D01*
X101948961Y-101128319D01*
X101859083Y-101104342D01*
X101766705Y-101111866D01*
X101684536Y-101153814D01*
X101670081Y-101166952D01*
X101638354Y-101203347D01*
X101618537Y-101243354D01*
X101607017Y-101299853D01*
X101600188Y-101385729D01*
X101598335Y-101422913D01*
X101602639Y-101580519D01*
X101632194Y-101699338D01*
X101687395Y-101779923D01*
X101768620Y-101822826D01*
X101876273Y-101828596D01*
X101882957Y-101827851D01*
X101959466Y-101802993D01*
X102026592Y-101754685D01*
X102070761Y-101694872D01*
X102080762Y-101653740D01*
X102093593Y-101633508D01*
X102137816Y-101631558D01*
X102166128Y-101635442D01*
X102227376Y-101649463D01*
X102267495Y-101666004D01*
X102270750Y-101668647D01*
X102277032Y-101704714D01*
X102256267Y-101760941D01*
X102215782Y-101826111D01*
X102162886Y-101888996D01*
X102104906Y-101938380D01*
X102088187Y-101948570D01*
X101984053Y-101989710D01*
X101866785Y-102011868D01*
X101756378Y-102012291D01*
X101703075Y-102001404D01*
X101573331Y-101941649D01*
X101477542Y-101855090D01*
X101413792Y-101738670D01*
X101380155Y-101589323D01*
X101373556Y-101476448D01*
X101375748Y-101366831D01*
X101386851Y-101285472D01*
X101410047Y-101214448D01*
X101426232Y-101179132D01*
X101509029Y-101057542D01*
X101616920Y-100971733D01*
X101742921Y-100923754D01*
X101880050Y-100915653D01*
X102021330Y-100949484D01*
G37*
G36*
X103128733Y-100953129D02*
G01*
X103232055Y-101029882D01*
X103310685Y-101141713D01*
X103361293Y-101285602D01*
X103376655Y-101384336D01*
X103390690Y-101534619D01*
X103035241Y-101534619D01*
X102679790Y-101534619D01*
X102693475Y-101618950D01*
X102726179Y-101715424D01*
X102791252Y-101781558D01*
X102864731Y-101815283D01*
X102975880Y-101831810D01*
X103075590Y-101807640D01*
X103155170Y-101744983D01*
X103158712Y-101740561D01*
X103196633Y-101695512D01*
X103223871Y-101682746D01*
X103258011Y-101697563D01*
X103276069Y-101709198D01*
X103319296Y-101747836D01*
X103337421Y-101784521D01*
X103337422Y-101784694D01*
X103317853Y-101831306D01*
X103267111Y-101885868D01*
X103197125Y-101938819D01*
X103119826Y-101980582D01*
X103072885Y-101996810D01*
X102968595Y-102017660D01*
X102884611Y-102018526D01*
X102798970Y-101998866D01*
X102770933Y-101989334D01*
X102653568Y-101927533D01*
X102565826Y-101834682D01*
X102505206Y-101707330D01*
X102475062Y-101581332D01*
X102468514Y-101506097D01*
X102469454Y-101417299D01*
X102476443Y-101327958D01*
X102686102Y-101327958D01*
X102701775Y-101353616D01*
X102746870Y-101366574D01*
X102827394Y-101371170D01*
X102927756Y-101371736D01*
X103169635Y-101371736D01*
X103151120Y-101289632D01*
X103123317Y-101205699D01*
X103078287Y-101151946D01*
X103009671Y-101114954D01*
X102917233Y-101097927D01*
X102827336Y-101117183D01*
X102754014Y-101167597D01*
X102718982Y-101221213D01*
X102693843Y-101285268D01*
X102686102Y-101327958D01*
X102476443Y-101327958D01*
X102476536Y-101326747D01*
X102488412Y-101246232D01*
X102503740Y-101187556D01*
X102521174Y-101162512D01*
X102522861Y-101162312D01*
X102541611Y-101142639D01*
X102555607Y-101104984D01*
X102588685Y-101052763D01*
X102654756Y-100999667D01*
X102741097Y-100953517D01*
X102834971Y-100922138D01*
X102861376Y-100916986D01*
X103004061Y-100914488D01*
X103128733Y-100953129D01*
G37*
G36*
X95053538Y-100764634D02*
G01*
X95053538Y-101018494D01*
X95175053Y-100959873D01*
X95248910Y-100926931D01*
X95303896Y-100913615D01*
X95361899Y-100917088D01*
X95417874Y-100928403D01*
X95544022Y-100978073D01*
X95641005Y-101063430D01*
X95708094Y-101183325D01*
X95744554Y-101336608D01*
X95751491Y-101454772D01*
X95735835Y-101631706D01*
X95689329Y-101777790D01*
X95613173Y-101890977D01*
X95508576Y-101969205D01*
X95432301Y-101998606D01*
X95338376Y-102019049D01*
X95264718Y-102017434D01*
X95189738Y-101992039D01*
X95158250Y-101976737D01*
X95096306Y-101945541D01*
X95065355Y-101933770D01*
X95054673Y-101940230D01*
X95053537Y-101963733D01*
X95053538Y-101965105D01*
X95039376Y-101988471D01*
X94991552Y-101998835D01*
X94952394Y-102000008D01*
X94851243Y-102000008D01*
X94848127Y-101409970D01*
X95078213Y-101409970D01*
X95078508Y-101526591D01*
X95090725Y-101633468D01*
X95112935Y-101708431D01*
X95172338Y-101788307D01*
X95250876Y-101829545D01*
X95339485Y-101830535D01*
X95429095Y-101789663D01*
X95454570Y-101769224D01*
X95490750Y-101735086D01*
X95513119Y-101703640D01*
X95524996Y-101662852D01*
X95529703Y-101600707D01*
X95530559Y-101505179D01*
X95530560Y-101493997D01*
X95529321Y-101391687D01*
X95523687Y-101322691D01*
X95510788Y-101273810D01*
X95487758Y-101231843D01*
X95467486Y-101203974D01*
X95391486Y-101133250D01*
X95308020Y-101102390D01*
X95226108Y-101110976D01*
X95154780Y-101158596D01*
X95113347Y-101220331D01*
X95089832Y-101301812D01*
X95078213Y-101409970D01*
X94848127Y-101409970D01*
X94847612Y-101312068D01*
X94847157Y-101135110D01*
X94847646Y-100971152D01*
X94848988Y-100826576D01*
X94851101Y-100707757D01*
X94853879Y-100621065D01*
X94857248Y-100572878D01*
X94858207Y-100567451D01*
X94875213Y-100529744D01*
X94910705Y-100513650D01*
X94962984Y-100510772D01*
X95053538Y-100510772D01*
X95053538Y-100764634D01*
G37*
G36*
X93102787Y-100511824D02*
G01*
X93227518Y-100561594D01*
X93334838Y-100642886D01*
X93416760Y-100755419D01*
X93427829Y-100778168D01*
X93454946Y-100852644D01*
X93469791Y-100922120D01*
X93470712Y-100936710D01*
X93468278Y-100975848D01*
X93452035Y-100993955D01*
X93409792Y-100997482D01*
X93360695Y-100994883D01*
X93293481Y-100988217D01*
X93259598Y-100973876D01*
X93245843Y-100943371D01*
X93242312Y-100918715D01*
X93209670Y-100818636D01*
X93142368Y-100741654D01*
X93048935Y-100693512D01*
X92937896Y-100679953D01*
X92894825Y-100684715D01*
X92805454Y-100710084D01*
X92739983Y-100757699D01*
X92696450Y-100812633D01*
X92681342Y-100841124D01*
X92670526Y-100880842D01*
X92663333Y-100939240D01*
X92659097Y-101023755D01*
X92657153Y-101141832D01*
X92656798Y-101255390D01*
X92657478Y-101403146D01*
X92659949Y-101511824D01*
X92664884Y-101588863D01*
X92672954Y-101641711D01*
X92684814Y-101677808D01*
X92696450Y-101698147D01*
X92754836Y-101767575D01*
X92821168Y-101806865D01*
X92905199Y-101826786D01*
X93029086Y-101828755D01*
X93128848Y-101794789D01*
X93200146Y-101727777D01*
X93238637Y-101630614D01*
X93242615Y-101602075D01*
X93250009Y-101554164D01*
X93268957Y-101529885D01*
X93312639Y-101519620D01*
X93360695Y-101515894D01*
X93427260Y-101513242D01*
X93459630Y-101520840D01*
X93470005Y-101545135D01*
X93470712Y-101574068D01*
X93460627Y-101636841D01*
X93436129Y-101712945D01*
X93427176Y-101734056D01*
X93350581Y-101849242D01*
X93242294Y-101937429D01*
X93110925Y-101994894D01*
X92965089Y-102017920D01*
X92813379Y-102002790D01*
X92808048Y-102001517D01*
X92675839Y-101953998D01*
X92576087Y-101879826D01*
X92498651Y-101770697D01*
X92479430Y-101732410D01*
X92462926Y-101691182D01*
X92451084Y-101643338D01*
X92443184Y-101580693D01*
X92438477Y-101495066D01*
X92436243Y-101378274D01*
X92435738Y-101243754D01*
X92435992Y-101098976D01*
X92437427Y-100992466D01*
X92441079Y-100915957D01*
X92447986Y-100861180D01*
X92459171Y-100819863D01*
X92475671Y-100783737D01*
X92497877Y-100745582D01*
X92589705Y-100633547D01*
X92704109Y-100554435D01*
X92833087Y-100507964D01*
X92968644Y-100493851D01*
X93102787Y-100511824D01*
G37*
G36*
X97658671Y-100502331D02*
G01*
X97770488Y-100517974D01*
X97845860Y-100543726D01*
X97972759Y-100628560D01*
X98057123Y-100728582D01*
X98097921Y-100842387D01*
X98101822Y-100893560D01*
X98099651Y-100944310D01*
X98084688Y-100968343D01*
X98044271Y-100975646D01*
X97997109Y-100976158D01*
X97931811Y-100973194D01*
X97900915Y-100960680D01*
X97892470Y-100933170D01*
X97892398Y-100928462D01*
X97870444Y-100836192D01*
X97808473Y-100759326D01*
X97718588Y-100707593D01*
X97605495Y-100680730D01*
X97501694Y-100685404D01*
X97414201Y-100717289D01*
X97350022Y-100772068D01*
X97316170Y-100845419D01*
X97319651Y-100933017D01*
X97324912Y-100950338D01*
X97336251Y-100974968D01*
X97355899Y-100998656D01*
X97389373Y-101024646D01*
X97442196Y-101056173D01*
X97519882Y-101096470D01*
X97627953Y-101148782D01*
X97771928Y-101216343D01*
X97803017Y-101230806D01*
X97930738Y-101297751D01*
X98019729Y-101364715D01*
X98077164Y-101439342D01*
X98110220Y-101529288D01*
X98117400Y-101566053D01*
X98115211Y-101683420D01*
X98073226Y-101789397D01*
X97997591Y-101880047D01*
X97894445Y-101951424D01*
X97769933Y-101999591D01*
X97630201Y-102020605D01*
X97481388Y-102010520D01*
X97438646Y-102001517D01*
X97308540Y-101952719D01*
X97203173Y-101879194D01*
X97128134Y-101787562D01*
X97089003Y-101684448D01*
X97089117Y-101587218D01*
X97102549Y-101538113D01*
X97128316Y-101516581D01*
X97182111Y-101511410D01*
X97195371Y-101511353D01*
X97254586Y-101514126D01*
X97280738Y-101529466D01*
X97287256Y-101567898D01*
X97287394Y-101583487D01*
X97308786Y-101667385D01*
X97366814Y-101738750D01*
X97452260Y-101792993D01*
X97555906Y-101825527D01*
X97668532Y-101831766D01*
X97754718Y-101816023D01*
X97833238Y-101779489D01*
X97876792Y-101722252D01*
X97892116Y-101634547D01*
X97892398Y-101616481D01*
X97884417Y-101557404D01*
X97856711Y-101505803D01*
X97803639Y-101457017D01*
X97719552Y-101406382D01*
X97598808Y-101349238D01*
X97536365Y-101322411D01*
X97370003Y-101244331D01*
X97246926Y-101167676D01*
X97164051Y-101089912D01*
X97118299Y-101008505D01*
X97109245Y-100971638D01*
X97107905Y-100833424D01*
X97149362Y-100712427D01*
X97232198Y-100611360D01*
X97333934Y-100543218D01*
X97422320Y-100514933D01*
X97536589Y-100501312D01*
X97658671Y-100502331D01*
G37*
G36*
X90868451Y-99588503D02*
G01*
X90939081Y-99619576D01*
X91041179Y-99667201D01*
X91167467Y-99727961D01*
X91310664Y-99798440D01*
X91359282Y-99822695D01*
X91849471Y-100068048D01*
X91849471Y-100670524D01*
X91849157Y-100863932D01*
X91847904Y-101012260D01*
X91845247Y-101122052D01*
X91840719Y-101199852D01*
X91833854Y-101252202D01*
X91824186Y-101285648D01*
X91811250Y-101306733D01*
X91803612Y-101314502D01*
X91766929Y-101338127D01*
X91693509Y-101378283D01*
X91592006Y-101430787D01*
X91471070Y-101491454D01*
X91339354Y-101556102D01*
X91205510Y-101620548D01*
X91078190Y-101680608D01*
X90966045Y-101732098D01*
X90877728Y-101770835D01*
X90821891Y-101792636D01*
X90808022Y-101795888D01*
X90776962Y-101784302D01*
X90707187Y-101752716D01*
X90605962Y-101704598D01*
X90480553Y-101643420D01*
X90338228Y-101572650D01*
X90293771Y-101550297D01*
X89809311Y-101306080D01*
X89809747Y-101267509D01*
X89990454Y-101267509D01*
X90358530Y-101453592D01*
X90485760Y-101517016D01*
X90598095Y-101571329D01*
X90686942Y-101612507D01*
X90743703Y-101636525D01*
X90758872Y-101641029D01*
X90772754Y-101628014D01*
X90782297Y-101583727D01*
X90788044Y-101502344D01*
X90790540Y-101378046D01*
X90790743Y-101300361D01*
X90790318Y-101268095D01*
X90894390Y-101268095D01*
X90896296Y-101438593D01*
X90902013Y-101557676D01*
X90911538Y-101625318D01*
X90922106Y-101642383D01*
X90954318Y-101631693D01*
X91023661Y-101602349D01*
X91120921Y-101558443D01*
X91236885Y-101504063D01*
X91277035Y-101484830D01*
X91398222Y-101425684D01*
X91504287Y-101372434D01*
X91585672Y-101329988D01*
X91632821Y-101303254D01*
X91638858Y-101299033D01*
X91642098Y-101282881D01*
X91617740Y-101257734D01*
X91561153Y-101220618D01*
X91467705Y-101168561D01*
X91332765Y-101098591D01*
X91303289Y-101083651D01*
X91176839Y-101020227D01*
X91066507Y-100965833D01*
X90980507Y-100924444D01*
X90927054Y-100900034D01*
X90913750Y-100895160D01*
X90906908Y-100918962D01*
X90901127Y-100985355D01*
X90896877Y-101085308D01*
X90894626Y-101209792D01*
X90894390Y-101268095D01*
X90790318Y-101268095D01*
X90789032Y-101170469D01*
X90784633Y-101057845D01*
X90778177Y-100973284D01*
X90770295Y-100927581D01*
X90768752Y-100924280D01*
X90749644Y-100916322D01*
X90708059Y-100924449D01*
X90638511Y-100950780D01*
X90535514Y-100997436D01*
X90393584Y-101066537D01*
X90368805Y-101078865D01*
X89990454Y-101267509D01*
X89809747Y-101267509D01*
X89810721Y-101181228D01*
X89913496Y-101181228D01*
X89971575Y-101165585D01*
X90014913Y-101148701D01*
X90094210Y-101113029D01*
X90199441Y-101063251D01*
X90320583Y-101004046D01*
X90365223Y-100981794D01*
X90517314Y-100905159D01*
X90628907Y-100847050D01*
X90705820Y-100803184D01*
X90753867Y-100769276D01*
X90778864Y-100741041D01*
X90786627Y-100714196D01*
X90783323Y-100687296D01*
X90894390Y-100687296D01*
X90896585Y-100716115D01*
X90907403Y-100741718D01*
X90933191Y-100768513D01*
X90980295Y-100800909D01*
X91055063Y-100843316D01*
X91163843Y-100900144D01*
X91300945Y-100969724D01*
X91433638Y-101036275D01*
X91550417Y-101093983D01*
X91643489Y-101139064D01*
X91705057Y-101167737D01*
X91726860Y-101176387D01*
X91739584Y-101154501D01*
X91746899Y-101098514D01*
X91747444Y-101080950D01*
X91748238Y-100965778D01*
X91748103Y-100833015D01*
X91747175Y-100692259D01*
X91745593Y-100553106D01*
X91743494Y-100425154D01*
X91741015Y-100317998D01*
X91738293Y-100241234D01*
X91735467Y-100204461D01*
X91734865Y-100202710D01*
X91710104Y-100210826D01*
X91646772Y-100238823D01*
X91552327Y-100283200D01*
X91434229Y-100340459D01*
X91310164Y-100401974D01*
X91162136Y-100476493D01*
X91054139Y-100532537D01*
X90979881Y-100574426D01*
X90933068Y-100606475D01*
X90907411Y-100633004D01*
X90896615Y-100658330D01*
X90894390Y-100686770D01*
X90894390Y-100687296D01*
X90783323Y-100687296D01*
X90783258Y-100686770D01*
X90782973Y-100684454D01*
X90780842Y-100675607D01*
X90767400Y-100647558D01*
X90737009Y-100616815D01*
X90683484Y-100579451D01*
X90600637Y-100531533D01*
X90482281Y-100469132D01*
X90352102Y-100403251D01*
X90218876Y-100336893D01*
X90102090Y-100279394D01*
X90009357Y-100234447D01*
X89948288Y-100205745D01*
X89926706Y-100196855D01*
X89922599Y-100221348D01*
X89919013Y-100289553D01*
X89916159Y-100393554D01*
X89914250Y-100525439D01*
X89913499Y-100677292D01*
X89913496Y-100689041D01*
X89913496Y-101181228D01*
X89810721Y-101181228D01*
X89816231Y-100693388D01*
X89816280Y-100689041D01*
X89823007Y-100093349D01*
X90016748Y-100093349D01*
X90038599Y-100109961D01*
X90098120Y-100144037D01*
X90186260Y-100191075D01*
X90293968Y-100246573D01*
X90412193Y-100306029D01*
X90531886Y-100364941D01*
X90643995Y-100418808D01*
X90739470Y-100463127D01*
X90809260Y-100493396D01*
X90844315Y-100505114D01*
X90844584Y-100505128D01*
X90880275Y-100494564D01*
X90953445Y-100464377D01*
X91055566Y-100418378D01*
X91178114Y-100360374D01*
X91276951Y-100311956D01*
X91405877Y-100247253D01*
X91516953Y-100190259D01*
X91602634Y-100144948D01*
X91655370Y-100115295D01*
X91668780Y-100105604D01*
X91646856Y-100090898D01*
X91585937Y-100057157D01*
X91493307Y-100008231D01*
X91376247Y-99947971D01*
X91250102Y-99884259D01*
X90831424Y-99674612D01*
X90424086Y-99877010D01*
X90292462Y-99943162D01*
X90178550Y-100001848D01*
X90089755Y-100049133D01*
X90033484Y-100081085D01*
X90016748Y-100093349D01*
X89823007Y-100093349D01*
X89823150Y-100080696D01*
X90162881Y-99908519D01*
X90298630Y-99839505D01*
X90432145Y-99771247D01*
X90549871Y-99710699D01*
X90638253Y-99664816D01*
X90653328Y-99656898D01*
X90735534Y-99616018D01*
X90802117Y-99587323D01*
X90836569Y-99577398D01*
X90868451Y-99588503D01*
G37*
%TO.C,SW1*%
D18*
X83500000Y-97477500D02*
X89100000Y-97477500D01*
X83500000Y-98267500D02*
X83500000Y-97477500D01*
X83500000Y-99537500D02*
X83500000Y-99487500D01*
X83500000Y-101667500D02*
X83500000Y-100767500D01*
X89100000Y-97477500D02*
X89100000Y-98267500D01*
X89100000Y-99487500D02*
X89100000Y-99537500D01*
X89100000Y-100767500D02*
X89100000Y-101667500D01*
X89100000Y-101667500D02*
X83500000Y-101667500D01*
%TO.C,U1*%
D21*
X89700000Y-91200000D02*
X86700000Y-91200000D01*
X89700000Y-94200000D02*
X86700000Y-94200000D01*
D13*
X86481803Y-91200000D02*
G75*
G02*
X86258197Y-91200000I-111803J0D01*
G01*
X86258197Y-91200000D02*
G75*
G02*
X86481803Y-91200000I111803J0D01*
G01*
%TO.C,R18*%
D14*
X112765276Y-100777500D02*
X113274724Y-100777500D01*
X112765276Y-101822500D02*
X113274724Y-101822500D01*
%TO.C,JP2*%
X106640000Y-93765000D02*
X107750000Y-93765000D01*
X106640000Y-94525000D02*
X106640000Y-93765000D01*
X106640000Y-95285000D02*
X106640000Y-97760000D01*
X106640000Y-95285000D02*
X107186529Y-95285000D01*
X106640000Y-97760000D02*
X107442470Y-97760000D01*
X108057530Y-97760000D02*
X108860000Y-97760000D01*
X108313471Y-95285000D02*
X108860000Y-95285000D01*
X108860000Y-95285000D02*
X108860000Y-97760000D01*
%TO.C,R2*%
X101177500Y-87607776D02*
X101177500Y-88117224D01*
X102222500Y-87607776D02*
X102222500Y-88117224D01*
%TD*%
%LPC*%
D22*
%TO.C,H2*%
X125840000Y-82589900D03*
%TD*%
D23*
%TO.C,C4*%
X92050000Y-84000000D03*
X92050000Y-81925000D03*
%TD*%
D24*
%TO.C,R4*%
X113925000Y-83075000D03*
X112100000Y-83075000D03*
%TD*%
D25*
%TO.C,R14*%
X78720000Y-85680000D03*
X80545000Y-85680000D03*
%TD*%
D22*
%TO.C,H4*%
X80094400Y-100371200D03*
%TD*%
D26*
%TO.C,REF\u002A\u002A*%
X114400000Y-86650000D03*
X120500000Y-86650000D03*
%TD*%
D25*
%TO.C,R11*%
X85185000Y-95650000D03*
X87010000Y-95650000D03*
%TD*%
D27*
%TO.C,J2*%
X82590400Y-88613000D03*
X82590400Y-94393000D03*
D28*
X83665400Y-88303000D03*
X83665400Y-89103000D03*
D29*
X83665400Y-90253000D03*
X83665400Y-91253000D03*
X83665400Y-91753000D03*
X83665400Y-92753000D03*
D28*
X83665400Y-94703000D03*
X83665400Y-93903000D03*
D29*
X83665400Y-93253000D03*
X83665400Y-92253000D03*
X83665400Y-90753000D03*
X83665400Y-89753000D03*
D30*
X83090400Y-87183000D03*
X78910400Y-87183000D03*
X83090400Y-95823000D03*
X78910400Y-95823000D03*
%TD*%
D31*
%TO.C,D5*%
X110475000Y-87735000D03*
X112815000Y-87735000D03*
%TD*%
%TO.C,D5*%
X110550000Y-95300000D03*
X112890000Y-95300000D03*
%TD*%
D24*
%TO.C,R3*%
X87873752Y-87883293D03*
X86048752Y-87883293D03*
%TD*%
D32*
%TO.C,JP1*%
X107750000Y-88450000D03*
D33*
X107750000Y-87180000D03*
X107750000Y-85910000D03*
%TD*%
D34*
%TO.C,J1*%
X96510000Y-81350000D03*
D35*
X99050000Y-81350000D03*
%TD*%
D36*
%TO.C,REF\u002A\u002A*%
X120500000Y-96100000D03*
X114400000Y-96100000D03*
%TD*%
D37*
%TO.C,REF\u002A\u002A*%
X106200000Y-90450000D03*
X104700000Y-90450000D03*
X106200000Y-92150000D03*
X104700000Y-92150000D03*
%TD*%
D38*
%TO.C,D3*%
X93700000Y-88715000D03*
X93700000Y-86965000D03*
%TD*%
D24*
%TO.C,R5*%
X113925000Y-99850000D03*
X112100000Y-99850000D03*
%TD*%
D38*
%TO.C,D4*%
X100200000Y-88675000D03*
X100200000Y-86925000D03*
%TD*%
D39*
%TO.C,R13*%
X123790000Y-97120000D03*
X121940000Y-97120000D03*
D40*
X112940000Y-97120000D03*
X111090000Y-97120000D03*
%TD*%
D41*
%TO.C,U2*%
X108350000Y-89500331D03*
D42*
X108350000Y-90150001D03*
D43*
X108350948Y-90803716D03*
D44*
X108350302Y-91451199D03*
D45*
X108351216Y-92104744D03*
D46*
X108351729Y-92756676D03*
D47*
X108350000Y-93400000D03*
D48*
X114050000Y-93400000D03*
X114050000Y-92750000D03*
X114050000Y-92100000D03*
X114050000Y-91450000D03*
X114050000Y-90800000D03*
X114050000Y-90150000D03*
X114050000Y-89500000D03*
D49*
X111250000Y-91450000D03*
%TD*%
D50*
%TO.C,Burn1*%
X92182431Y-98438990D03*
X92182431Y-89498990D03*
X96682431Y-98438990D03*
X96682431Y-89498990D03*
%TD*%
D37*
%TO.C,REF\u002A\u002A*%
X106212500Y-84950000D03*
X104712500Y-84950000D03*
X106212500Y-85800000D03*
X104712500Y-85800000D03*
X106212500Y-86650000D03*
X104712500Y-86650000D03*
%TD*%
D22*
%TO.C,H3*%
X109040021Y-82501754D03*
%TD*%
%TO.C,H6*%
X125832900Y-100371200D03*
%TD*%
D51*
%TO.C,C1*%
X86950000Y-89950000D03*
X89025000Y-89950000D03*
%TD*%
D52*
%TO.C,J3*%
X126110000Y-94660000D03*
X126110000Y-93410000D03*
X126110000Y-92160000D03*
X126110000Y-90910000D03*
X126110000Y-89660000D03*
X126110000Y-88410000D03*
D53*
X129010000Y-97327500D03*
X129010000Y-85742500D03*
%TD*%
D54*
%TO.C,R7*%
X109400000Y-85910000D03*
X109400000Y-87735000D03*
%TD*%
D55*
%TO.C,J2*%
X124880000Y-95280000D03*
X124880000Y-93780000D03*
X124880000Y-92280000D03*
X124880000Y-90780000D03*
X124880000Y-89280000D03*
X124880000Y-87780000D03*
D56*
X130070000Y-97885000D03*
X130070000Y-85175000D03*
%TD*%
D25*
%TO.C,R17*%
X112100000Y-81618025D03*
X113925000Y-81618025D03*
%TD*%
D57*
%TO.C,R9*%
X89500000Y-88100000D03*
X89500000Y-86275000D03*
%TD*%
D23*
%TO.C,C3*%
X89970000Y-84000000D03*
X89970000Y-81925000D03*
%TD*%
D57*
%TO.C,R15*%
X122312500Y-83705525D03*
X122312500Y-81880525D03*
%TD*%
D25*
%TO.C,R19*%
X78730000Y-97340000D03*
X80555000Y-97340000D03*
%TD*%
D50*
%TO.C,Burn2*%
X98632431Y-98438990D03*
X98632431Y-89498990D03*
X103132431Y-98438990D03*
X103132431Y-89498990D03*
%TD*%
D54*
%TO.C,R1*%
X95237500Y-86950000D03*
X95237500Y-88775000D03*
%TD*%
D57*
%TO.C,R16*%
X101450000Y-84000000D03*
X101450000Y-82175000D03*
%TD*%
D58*
%TO.C,Q1*%
X84039161Y-84612500D03*
X84689161Y-84612500D03*
X85339161Y-84612500D03*
X85989161Y-84612500D03*
D59*
X85014161Y-82162500D03*
%TD*%
D39*
%TO.C,R12*%
X111002639Y-85630000D03*
X112852639Y-85630000D03*
X121852639Y-85630000D03*
X123702639Y-85630000D03*
%TD*%
D37*
%TO.C,REF\u002A\u002A*%
X106212500Y-96050000D03*
X104712500Y-96050000D03*
X106212500Y-96900000D03*
X104712500Y-96900000D03*
X106212500Y-97750000D03*
X104712500Y-97750000D03*
%TD*%
D60*
%TO.C,D2*%
X99741188Y-84000000D03*
X98341188Y-84000000D03*
%TD*%
%TO.C,D1*%
X96637500Y-84000000D03*
X95237500Y-84000000D03*
%TD*%
D25*
%TO.C,R8*%
X86055000Y-86360000D03*
X87880000Y-86360000D03*
%TD*%
D54*
%TO.C,R20*%
X122312500Y-99100000D03*
X122312500Y-100925000D03*
%TD*%
D22*
%TO.C,H1*%
X80154400Y-82651200D03*
%TD*%
D57*
%TO.C,R6*%
X109450000Y-97075000D03*
X109450000Y-95250000D03*
%TD*%
D22*
%TO.C,H5*%
X109032921Y-100283054D03*
%TD*%
D23*
%TO.C,C2*%
X87900000Y-84000000D03*
X87900000Y-81925000D03*
%TD*%
D25*
%TO.C,R10*%
X88560000Y-95650000D03*
X90385000Y-95650000D03*
%TD*%
D38*
%TO.C,D7*%
X103377051Y-84000000D03*
X103377051Y-82250000D03*
%TD*%
D61*
%TO.C,SW1*%
X88450000Y-100147500D03*
X88450000Y-98887500D03*
X84150000Y-98887500D03*
X84150000Y-100147500D03*
%TD*%
D62*
%TO.C,U1*%
X86700000Y-91700000D03*
X86700000Y-92200000D03*
X86700000Y-92700000D03*
X86700000Y-93200000D03*
X86700000Y-93700000D03*
X89700000Y-93700000D03*
X89700000Y-93200000D03*
X89700000Y-92700000D03*
X89700000Y-92200000D03*
X89700000Y-91700000D03*
D63*
X88200000Y-92700000D03*
%TD*%
D25*
%TO.C,R18*%
X112107500Y-101300000D03*
X113932500Y-101300000D03*
%TD*%
D32*
%TO.C,JP2*%
X107750000Y-94525000D03*
D33*
X107750000Y-95795000D03*
X107750000Y-97065000D03*
%TD*%
D54*
%TO.C,R2*%
X101700000Y-86950000D03*
X101700000Y-88775000D03*
%TD*%
%LPD*%
M02*
