%TF.GenerationSoftware,KiCad,Pcbnew,10.0.0*%
%TF.CreationDate,2026-06-13T21:44:01-06:00*%
%TF.ProjectId,Burnwing,4275726e-7769-46e6-972e-6b696361645f,Rev 1*%
%TF.SameCoordinates,Original*%
%TF.FileFunction,Legend,Bot*%
%TF.FilePolarity,Positive*%
%FSLAX46Y46*%
G04 Gerber Fmt 4.6, Leading zero omitted, Abs format (unit mm)*
G04 Created by KiCad (PCBNEW 10.0.0) date 2026-06-13 21:44:01*
%MOMM*%
%LPD*%
G01*
G04 APERTURE LIST*
%ADD10C,0.125000*%
%ADD11C,0.187500*%
%ADD12C,0.150000*%
%ADD13C,0.000000*%
%ADD14C,4.400000*%
%ADD15C,0.650000*%
%ADD16O,2.101600X1.101600*%
%ADD17R,1.000000X1.000000*%
%ADD18O,1.000000X1.000000*%
%ADD19C,1.700000*%
%ADD20O,1.700000X1.700000*%
%ADD21C,0.500000*%
%ADD22C,1.600000*%
%ADD23O,1.600000X1.600000*%
G04 APERTURE END LIST*
D10*
X87499552Y-101969716D02*
X87475743Y-101945907D01*
X87475743Y-101945907D02*
X87428124Y-101922097D01*
X87428124Y-101922097D02*
X87309076Y-101922097D01*
X87309076Y-101922097D02*
X87261457Y-101945907D01*
X87261457Y-101945907D02*
X87237648Y-101969716D01*
X87237648Y-101969716D02*
X87213838Y-102017335D01*
X87213838Y-102017335D02*
X87213838Y-102064954D01*
X87213838Y-102064954D02*
X87237648Y-102136383D01*
X87237648Y-102136383D02*
X87523362Y-102422097D01*
X87523362Y-102422097D02*
X87213838Y-102422097D01*
X86904315Y-101922097D02*
X86856696Y-101922097D01*
X86856696Y-101922097D02*
X86809077Y-101945907D01*
X86809077Y-101945907D02*
X86785267Y-101969716D01*
X86785267Y-101969716D02*
X86761458Y-102017335D01*
X86761458Y-102017335D02*
X86737648Y-102112573D01*
X86737648Y-102112573D02*
X86737648Y-102231621D01*
X86737648Y-102231621D02*
X86761458Y-102326859D01*
X86761458Y-102326859D02*
X86785267Y-102374478D01*
X86785267Y-102374478D02*
X86809077Y-102398288D01*
X86809077Y-102398288D02*
X86856696Y-102422097D01*
X86856696Y-102422097D02*
X86904315Y-102422097D01*
X86904315Y-102422097D02*
X86951934Y-102398288D01*
X86951934Y-102398288D02*
X86975743Y-102374478D01*
X86975743Y-102374478D02*
X86999553Y-102326859D01*
X86999553Y-102326859D02*
X87023362Y-102231621D01*
X87023362Y-102231621D02*
X87023362Y-102112573D01*
X87023362Y-102112573D02*
X86999553Y-102017335D01*
X86999553Y-102017335D02*
X86975743Y-101969716D01*
X86975743Y-101969716D02*
X86951934Y-101945907D01*
X86951934Y-101945907D02*
X86904315Y-101922097D01*
X86547172Y-101969716D02*
X86523363Y-101945907D01*
X86523363Y-101945907D02*
X86475744Y-101922097D01*
X86475744Y-101922097D02*
X86356696Y-101922097D01*
X86356696Y-101922097D02*
X86309077Y-101945907D01*
X86309077Y-101945907D02*
X86285268Y-101969716D01*
X86285268Y-101969716D02*
X86261458Y-102017335D01*
X86261458Y-102017335D02*
X86261458Y-102064954D01*
X86261458Y-102064954D02*
X86285268Y-102136383D01*
X86285268Y-102136383D02*
X86570982Y-102422097D01*
X86570982Y-102422097D02*
X86261458Y-102422097D01*
X85832887Y-101922097D02*
X85928125Y-101922097D01*
X85928125Y-101922097D02*
X85975744Y-101945907D01*
X85975744Y-101945907D02*
X85999554Y-101969716D01*
X85999554Y-101969716D02*
X86047173Y-102041145D01*
X86047173Y-102041145D02*
X86070982Y-102136383D01*
X86070982Y-102136383D02*
X86070982Y-102326859D01*
X86070982Y-102326859D02*
X86047173Y-102374478D01*
X86047173Y-102374478D02*
X86023363Y-102398288D01*
X86023363Y-102398288D02*
X85975744Y-102422097D01*
X85975744Y-102422097D02*
X85880506Y-102422097D01*
X85880506Y-102422097D02*
X85832887Y-102398288D01*
X85832887Y-102398288D02*
X85809078Y-102374478D01*
X85809078Y-102374478D02*
X85785268Y-102326859D01*
X85785268Y-102326859D02*
X85785268Y-102207811D01*
X85785268Y-102207811D02*
X85809078Y-102160192D01*
X85809078Y-102160192D02*
X85832887Y-102136383D01*
X85832887Y-102136383D02*
X85880506Y-102112573D01*
X85880506Y-102112573D02*
X85975744Y-102112573D01*
X85975744Y-102112573D02*
X86023363Y-102136383D01*
X86023363Y-102136383D02*
X86047173Y-102160192D01*
X86047173Y-102160192D02*
X86070982Y-102207811D01*
X85570983Y-102231621D02*
X85190031Y-102231621D01*
X84856697Y-101922097D02*
X84809078Y-101922097D01*
X84809078Y-101922097D02*
X84761459Y-101945907D01*
X84761459Y-101945907D02*
X84737649Y-101969716D01*
X84737649Y-101969716D02*
X84713840Y-102017335D01*
X84713840Y-102017335D02*
X84690030Y-102112573D01*
X84690030Y-102112573D02*
X84690030Y-102231621D01*
X84690030Y-102231621D02*
X84713840Y-102326859D01*
X84713840Y-102326859D02*
X84737649Y-102374478D01*
X84737649Y-102374478D02*
X84761459Y-102398288D01*
X84761459Y-102398288D02*
X84809078Y-102422097D01*
X84809078Y-102422097D02*
X84856697Y-102422097D01*
X84856697Y-102422097D02*
X84904316Y-102398288D01*
X84904316Y-102398288D02*
X84928125Y-102374478D01*
X84928125Y-102374478D02*
X84951935Y-102326859D01*
X84951935Y-102326859D02*
X84975744Y-102231621D01*
X84975744Y-102231621D02*
X84975744Y-102112573D01*
X84975744Y-102112573D02*
X84951935Y-102017335D01*
X84951935Y-102017335D02*
X84928125Y-101969716D01*
X84928125Y-101969716D02*
X84904316Y-101945907D01*
X84904316Y-101945907D02*
X84856697Y-101922097D01*
X84261459Y-101922097D02*
X84356697Y-101922097D01*
X84356697Y-101922097D02*
X84404316Y-101945907D01*
X84404316Y-101945907D02*
X84428126Y-101969716D01*
X84428126Y-101969716D02*
X84475745Y-102041145D01*
X84475745Y-102041145D02*
X84499554Y-102136383D01*
X84499554Y-102136383D02*
X84499554Y-102326859D01*
X84499554Y-102326859D02*
X84475745Y-102374478D01*
X84475745Y-102374478D02*
X84451935Y-102398288D01*
X84451935Y-102398288D02*
X84404316Y-102422097D01*
X84404316Y-102422097D02*
X84309078Y-102422097D01*
X84309078Y-102422097D02*
X84261459Y-102398288D01*
X84261459Y-102398288D02*
X84237650Y-102374478D01*
X84237650Y-102374478D02*
X84213840Y-102326859D01*
X84213840Y-102326859D02*
X84213840Y-102207811D01*
X84213840Y-102207811D02*
X84237650Y-102160192D01*
X84237650Y-102160192D02*
X84261459Y-102136383D01*
X84261459Y-102136383D02*
X84309078Y-102112573D01*
X84309078Y-102112573D02*
X84404316Y-102112573D01*
X84404316Y-102112573D02*
X84451935Y-102136383D01*
X84451935Y-102136383D02*
X84475745Y-102160192D01*
X84475745Y-102160192D02*
X84499554Y-102207811D01*
X83999555Y-102231621D02*
X83618603Y-102231621D01*
X83118602Y-102422097D02*
X83404316Y-102422097D01*
X83261459Y-102422097D02*
X83261459Y-101922097D01*
X83261459Y-101922097D02*
X83309078Y-101993526D01*
X83309078Y-101993526D02*
X83356697Y-102041145D01*
X83356697Y-102041145D02*
X83404316Y-102064954D01*
X82928126Y-101969716D02*
X82904317Y-101945907D01*
X82904317Y-101945907D02*
X82856698Y-101922097D01*
X82856698Y-101922097D02*
X82737650Y-101922097D01*
X82737650Y-101922097D02*
X82690031Y-101945907D01*
X82690031Y-101945907D02*
X82666222Y-101969716D01*
X82666222Y-101969716D02*
X82642412Y-102017335D01*
X82642412Y-102017335D02*
X82642412Y-102064954D01*
X82642412Y-102064954D02*
X82666222Y-102136383D01*
X82666222Y-102136383D02*
X82951936Y-102422097D01*
X82951936Y-102422097D02*
X82642412Y-102422097D01*
D11*
X90194056Y-100862937D02*
X90086913Y-100898651D01*
X90086913Y-100898651D02*
X90051199Y-100934365D01*
X90051199Y-100934365D02*
X90015485Y-101005794D01*
X90015485Y-101005794D02*
X90015485Y-101112937D01*
X90015485Y-101112937D02*
X90051199Y-101184365D01*
X90051199Y-101184365D02*
X90086913Y-101220080D01*
X90086913Y-101220080D02*
X90158342Y-101255794D01*
X90158342Y-101255794D02*
X90444056Y-101255794D01*
X90444056Y-101255794D02*
X90444056Y-100505794D01*
X90444056Y-100505794D02*
X90194056Y-100505794D01*
X90194056Y-100505794D02*
X90122628Y-100541508D01*
X90122628Y-100541508D02*
X90086913Y-100577222D01*
X90086913Y-100577222D02*
X90051199Y-100648651D01*
X90051199Y-100648651D02*
X90051199Y-100720080D01*
X90051199Y-100720080D02*
X90086913Y-100791508D01*
X90086913Y-100791508D02*
X90122628Y-100827222D01*
X90122628Y-100827222D02*
X90194056Y-100862937D01*
X90194056Y-100862937D02*
X90444056Y-100862937D01*
X89372628Y-100755794D02*
X89372628Y-101255794D01*
X89694056Y-100755794D02*
X89694056Y-101148651D01*
X89694056Y-101148651D02*
X89658342Y-101220080D01*
X89658342Y-101220080D02*
X89586913Y-101255794D01*
X89586913Y-101255794D02*
X89479770Y-101255794D01*
X89479770Y-101255794D02*
X89408342Y-101220080D01*
X89408342Y-101220080D02*
X89372628Y-101184365D01*
X89015485Y-101255794D02*
X89015485Y-100755794D01*
X89015485Y-100898651D02*
X88979771Y-100827222D01*
X88979771Y-100827222D02*
X88944057Y-100791508D01*
X88944057Y-100791508D02*
X88872628Y-100755794D01*
X88872628Y-100755794D02*
X88801199Y-100755794D01*
X88551199Y-100755794D02*
X88551199Y-101255794D01*
X88551199Y-100827222D02*
X88515485Y-100791508D01*
X88515485Y-100791508D02*
X88444056Y-100755794D01*
X88444056Y-100755794D02*
X88336913Y-100755794D01*
X88336913Y-100755794D02*
X88265485Y-100791508D01*
X88265485Y-100791508D02*
X88229771Y-100862937D01*
X88229771Y-100862937D02*
X88229771Y-101255794D01*
X87944057Y-100755794D02*
X87801200Y-101255794D01*
X87801200Y-101255794D02*
X87658342Y-100898651D01*
X87658342Y-100898651D02*
X87515485Y-101255794D01*
X87515485Y-101255794D02*
X87372628Y-100755794D01*
X87086914Y-101255794D02*
X87086914Y-100755794D01*
X87086914Y-100505794D02*
X87122628Y-100541508D01*
X87122628Y-100541508D02*
X87086914Y-100577222D01*
X87086914Y-100577222D02*
X87051200Y-100541508D01*
X87051200Y-100541508D02*
X87086914Y-100505794D01*
X87086914Y-100505794D02*
X87086914Y-100577222D01*
X86729771Y-100755794D02*
X86729771Y-101255794D01*
X86729771Y-100827222D02*
X86694057Y-100791508D01*
X86694057Y-100791508D02*
X86622628Y-100755794D01*
X86622628Y-100755794D02*
X86515485Y-100755794D01*
X86515485Y-100755794D02*
X86444057Y-100791508D01*
X86444057Y-100791508D02*
X86408343Y-100862937D01*
X86408343Y-100862937D02*
X86408343Y-101255794D01*
X85729772Y-100755794D02*
X85729772Y-101362937D01*
X85729772Y-101362937D02*
X85765486Y-101434365D01*
X85765486Y-101434365D02*
X85801200Y-101470080D01*
X85801200Y-101470080D02*
X85872629Y-101505794D01*
X85872629Y-101505794D02*
X85979772Y-101505794D01*
X85979772Y-101505794D02*
X86051200Y-101470080D01*
X85729772Y-101220080D02*
X85801200Y-101255794D01*
X85801200Y-101255794D02*
X85944057Y-101255794D01*
X85944057Y-101255794D02*
X86015486Y-101220080D01*
X86015486Y-101220080D02*
X86051200Y-101184365D01*
X86051200Y-101184365D02*
X86086914Y-101112937D01*
X86086914Y-101112937D02*
X86086914Y-100898651D01*
X86086914Y-100898651D02*
X86051200Y-100827222D01*
X86051200Y-100827222D02*
X86015486Y-100791508D01*
X86015486Y-100791508D02*
X85944057Y-100755794D01*
X85944057Y-100755794D02*
X85801200Y-100755794D01*
X85801200Y-100755794D02*
X85729772Y-100791508D01*
X84801200Y-100862937D02*
X84551200Y-100862937D01*
X84444057Y-101255794D02*
X84801200Y-101255794D01*
X84801200Y-101255794D02*
X84801200Y-100505794D01*
X84801200Y-100505794D02*
X84444057Y-100505794D01*
X84122629Y-100755794D02*
X84122629Y-101255794D01*
X84122629Y-100827222D02*
X84086915Y-100791508D01*
X84086915Y-100791508D02*
X84015486Y-100755794D01*
X84015486Y-100755794D02*
X83908343Y-100755794D01*
X83908343Y-100755794D02*
X83836915Y-100791508D01*
X83836915Y-100791508D02*
X83801201Y-100862937D01*
X83801201Y-100862937D02*
X83801201Y-101255794D01*
X83122630Y-100755794D02*
X83122630Y-101362937D01*
X83122630Y-101362937D02*
X83158344Y-101434365D01*
X83158344Y-101434365D02*
X83194058Y-101470080D01*
X83194058Y-101470080D02*
X83265487Y-101505794D01*
X83265487Y-101505794D02*
X83372630Y-101505794D01*
X83372630Y-101505794D02*
X83444058Y-101470080D01*
X83122630Y-101220080D02*
X83194058Y-101255794D01*
X83194058Y-101255794D02*
X83336915Y-101255794D01*
X83336915Y-101255794D02*
X83408344Y-101220080D01*
X83408344Y-101220080D02*
X83444058Y-101184365D01*
X83444058Y-101184365D02*
X83479772Y-101112937D01*
X83479772Y-101112937D02*
X83479772Y-100898651D01*
X83479772Y-100898651D02*
X83444058Y-100827222D01*
X83444058Y-100827222D02*
X83408344Y-100791508D01*
X83408344Y-100791508D02*
X83336915Y-100755794D01*
X83336915Y-100755794D02*
X83194058Y-100755794D01*
X83194058Y-100755794D02*
X83122630Y-100791508D01*
X82765487Y-101184365D02*
X82729773Y-101220080D01*
X82729773Y-101220080D02*
X82765487Y-101255794D01*
X82765487Y-101255794D02*
X82801201Y-101220080D01*
X82801201Y-101220080D02*
X82765487Y-101184365D01*
X82765487Y-101184365D02*
X82765487Y-101255794D01*
X90015485Y-102463252D02*
X90265485Y-102106109D01*
X90444056Y-102463252D02*
X90444056Y-101713252D01*
X90444056Y-101713252D02*
X90158342Y-101713252D01*
X90158342Y-101713252D02*
X90086913Y-101748966D01*
X90086913Y-101748966D02*
X90051199Y-101784680D01*
X90051199Y-101784680D02*
X90015485Y-101856109D01*
X90015485Y-101856109D02*
X90015485Y-101963252D01*
X90015485Y-101963252D02*
X90051199Y-102034680D01*
X90051199Y-102034680D02*
X90086913Y-102070395D01*
X90086913Y-102070395D02*
X90158342Y-102106109D01*
X90158342Y-102106109D02*
X90444056Y-102106109D01*
X89408342Y-102427538D02*
X89479770Y-102463252D01*
X89479770Y-102463252D02*
X89622628Y-102463252D01*
X89622628Y-102463252D02*
X89694056Y-102427538D01*
X89694056Y-102427538D02*
X89729770Y-102356109D01*
X89729770Y-102356109D02*
X89729770Y-102070395D01*
X89729770Y-102070395D02*
X89694056Y-101998966D01*
X89694056Y-101998966D02*
X89622628Y-101963252D01*
X89622628Y-101963252D02*
X89479770Y-101963252D01*
X89479770Y-101963252D02*
X89408342Y-101998966D01*
X89408342Y-101998966D02*
X89372628Y-102070395D01*
X89372628Y-102070395D02*
X89372628Y-102141823D01*
X89372628Y-102141823D02*
X89729770Y-102213252D01*
X89122628Y-101963252D02*
X88944056Y-102463252D01*
X88944056Y-102463252D02*
X88765485Y-101963252D01*
X88551199Y-101713252D02*
X88086913Y-101713252D01*
X88086913Y-101713252D02*
X88336913Y-101998966D01*
X88336913Y-101998966D02*
X88229770Y-101998966D01*
X88229770Y-101998966D02*
X88158342Y-102034680D01*
X88158342Y-102034680D02*
X88122627Y-102070395D01*
X88122627Y-102070395D02*
X88086913Y-102141823D01*
X88086913Y-102141823D02*
X88086913Y-102320395D01*
X88086913Y-102320395D02*
X88122627Y-102391823D01*
X88122627Y-102391823D02*
X88158342Y-102427538D01*
X88158342Y-102427538D02*
X88229770Y-102463252D01*
X88229770Y-102463252D02*
X88444056Y-102463252D01*
X88444056Y-102463252D02*
X88515484Y-102427538D01*
X88515484Y-102427538D02*
X88551199Y-102391823D01*
D12*
G36*
X86853686Y-98574508D02*
G01*
X86853686Y-98383021D01*
X86695905Y-98383021D01*
X86695905Y-98574508D01*
X86853686Y-98574508D01*
G37*
G36*
X86590515Y-98365314D02*
G01*
X86432734Y-98336126D01*
X86420136Y-98379158D01*
X86401431Y-98410026D01*
X86376959Y-98431437D01*
X86345742Y-98444691D01*
X86305666Y-98449455D01*
X86253509Y-98443319D01*
X86220975Y-98427718D01*
X86199913Y-98402660D01*
X86192948Y-98371297D01*
X86196229Y-98349462D01*
X86205222Y-98333989D01*
X86222067Y-98322441D01*
X86256513Y-98310298D01*
X86387395Y-98270398D01*
X86463666Y-98238058D01*
X86503076Y-98212295D01*
X86531369Y-98181256D01*
X86551646Y-98145221D01*
X86564230Y-98103200D01*
X86568655Y-98053782D01*
X86564348Y-98004310D01*
X86552053Y-97961749D01*
X86532191Y-97924814D01*
X86504480Y-97892581D01*
X86470871Y-97867332D01*
X86429701Y-97848479D01*
X86379389Y-97836370D01*
X86317940Y-97832009D01*
X86241062Y-97837840D01*
X86183298Y-97853458D01*
X86140375Y-97876950D01*
X86105451Y-97910977D01*
X86076814Y-97958181D01*
X86054951Y-98021847D01*
X86203207Y-98054759D01*
X86218042Y-98016448D01*
X86240732Y-97990570D01*
X86272119Y-97974614D01*
X86315253Y-97968785D01*
X86368552Y-97973868D01*
X86397929Y-97985943D01*
X86416491Y-98005913D01*
X86422476Y-98030395D01*
X86417028Y-98052452D01*
X86399944Y-98071001D01*
X86365362Y-98087267D01*
X86259932Y-98119117D01*
X86173278Y-98147913D01*
X86116207Y-98177519D01*
X86080963Y-98207166D01*
X86055836Y-98244804D01*
X86040112Y-98290862D01*
X86034496Y-98347606D01*
X86039198Y-98399100D01*
X86052788Y-98444539D01*
X86075056Y-98485105D01*
X86106547Y-98521629D01*
X86144370Y-98550609D01*
X86189182Y-98571898D01*
X86242356Y-98585356D01*
X86305666Y-98590139D01*
X86380712Y-98583225D01*
X86442692Y-98563784D01*
X86494222Y-98532742D01*
X86536348Y-98490022D01*
X86568510Y-98435100D01*
X86590515Y-98365314D01*
G37*
G36*
X85606872Y-97835589D02*
G01*
X85641978Y-97846284D01*
X85675947Y-97864432D01*
X85719852Y-97902521D01*
X85755143Y-97954192D01*
X85755143Y-97847641D01*
X85902055Y-97847641D01*
X85902055Y-98851967D01*
X85744213Y-98851967D01*
X85744213Y-98484199D01*
X85697542Y-98537621D01*
X85658484Y-98567241D01*
X85616253Y-98584401D01*
X85570679Y-98590139D01*
X85522715Y-98584235D01*
X85478203Y-98566588D01*
X85435907Y-98536214D01*
X85395129Y-98490793D01*
X85364945Y-98440096D01*
X85341872Y-98377193D01*
X85326826Y-98299565D01*
X85321438Y-98205457D01*
X85481896Y-98205457D01*
X85486989Y-98286269D01*
X85500098Y-98342476D01*
X85518777Y-98380334D01*
X85546469Y-98411046D01*
X85576331Y-98428165D01*
X85609635Y-98433824D01*
X85644575Y-98427763D01*
X85676373Y-98409289D01*
X85706356Y-98375877D01*
X85726813Y-98335031D01*
X85740897Y-98276675D01*
X85746289Y-98195259D01*
X85741232Y-98124077D01*
X85727853Y-98071802D01*
X85708065Y-98034059D01*
X85679430Y-98003527D01*
X85647987Y-97986273D01*
X85612383Y-97980509D01*
X85578687Y-97986286D01*
X85548258Y-98003823D01*
X85519815Y-98035402D01*
X85500362Y-98074053D01*
X85487002Y-98129026D01*
X85481896Y-98205457D01*
X85321438Y-98205457D01*
X85321368Y-98204235D01*
X85326741Y-98113770D01*
X85341620Y-98039466D01*
X85364577Y-97978640D01*
X85394824Y-97929035D01*
X85435281Y-97884810D01*
X85477412Y-97855121D01*
X85521915Y-97837813D01*
X85570007Y-97832009D01*
X85606872Y-97835589D01*
G37*
G36*
X85037769Y-97838165D02*
G01*
X85093766Y-97854841D01*
X85136293Y-97880369D01*
X85170311Y-97916599D01*
X85199150Y-97968136D01*
X85222022Y-98039127D01*
X85079262Y-98070390D01*
X85060438Y-98024003D01*
X85040000Y-97999438D01*
X85012563Y-97985640D01*
X84973383Y-97980509D01*
X84934350Y-97983879D01*
X84908842Y-97992416D01*
X84889079Y-98006477D01*
X84877395Y-98023068D01*
X84871606Y-98046895D01*
X84868847Y-98101653D01*
X84920626Y-98121843D01*
X85021193Y-98148670D01*
X85104460Y-98173344D01*
X85152413Y-98197030D01*
X85188639Y-98228718D01*
X85215916Y-98269937D01*
X85232546Y-98318229D01*
X85238447Y-98376915D01*
X85231832Y-98439208D01*
X85213204Y-98490032D01*
X85183126Y-98531887D01*
X85143028Y-98564070D01*
X85096339Y-98583415D01*
X85041038Y-98590139D01*
X84990516Y-98584256D01*
X84942975Y-98566631D01*
X84899350Y-98537845D01*
X84856574Y-98495251D01*
X84836057Y-98574508D01*
X84680352Y-98574508D01*
X84697891Y-98522870D01*
X84708318Y-98476383D01*
X84713612Y-98424169D01*
X84715829Y-98335882D01*
X84715421Y-98267738D01*
X84868847Y-98267738D01*
X84872771Y-98341718D01*
X84881486Y-98378503D01*
X84898641Y-98406300D01*
X84926916Y-98431198D01*
X84960575Y-98448054D01*
X84993166Y-98453363D01*
X85027620Y-98446473D01*
X85055693Y-98425886D01*
X85074241Y-98395495D01*
X85080605Y-98357925D01*
X85074800Y-98324966D01*
X85058074Y-98299551D01*
X85028186Y-98280366D01*
X84962453Y-98258457D01*
X84868847Y-98230614D01*
X84868847Y-98267738D01*
X84715421Y-98267738D01*
X84714485Y-98111667D01*
X84717813Y-98025578D01*
X84726053Y-97969964D01*
X84737017Y-97936301D01*
X84755053Y-97906809D01*
X84779790Y-97881498D01*
X84812182Y-97860036D01*
X84848469Y-97845596D01*
X84898033Y-97835734D01*
X84964468Y-97832009D01*
X85037769Y-97838165D01*
G37*
G36*
X84040314Y-98062574D02*
G01*
X84195408Y-98093838D01*
X84210157Y-98040471D01*
X84232787Y-98006767D01*
X84262801Y-97987331D01*
X84302631Y-97980509D01*
X84338844Y-97986006D01*
X84369551Y-98002117D01*
X84396237Y-98029968D01*
X84414106Y-98065135D01*
X84426759Y-98118576D01*
X84431713Y-98196847D01*
X84426693Y-98283732D01*
X84413966Y-98342358D01*
X84396237Y-98380273D01*
X84369209Y-98410574D01*
X84338059Y-98427928D01*
X84301226Y-98433824D01*
X84272923Y-98430362D01*
X84248897Y-98420376D01*
X84228137Y-98403721D01*
X84212508Y-98381659D01*
X84198549Y-98347490D01*
X84187165Y-98297048D01*
X84032132Y-98328311D01*
X84051472Y-98403775D01*
X84077678Y-98463074D01*
X84109904Y-98509074D01*
X84148033Y-98543945D01*
X84192698Y-98569011D01*
X84245214Y-98584627D01*
X84307455Y-98590139D01*
X84364876Y-98585323D01*
X84413846Y-98571643D01*
X84455905Y-98549690D01*
X84492183Y-98519285D01*
X84523304Y-98479497D01*
X84553355Y-98423023D01*
X84575291Y-98360468D01*
X84588915Y-98290885D01*
X84593646Y-98213150D01*
X84587789Y-98118518D01*
X84571634Y-98041641D01*
X84546787Y-97979433D01*
X84514084Y-97929340D01*
X84470843Y-97886490D01*
X84422456Y-97856510D01*
X84367855Y-97838308D01*
X84305379Y-97832009D01*
X84237670Y-97838624D01*
X84181668Y-97857281D01*
X84134958Y-97887269D01*
X84097246Y-97928319D01*
X84065435Y-97985390D01*
X84040314Y-98062574D01*
G37*
G36*
X83749252Y-97837876D02*
G01*
X83797966Y-97854933D01*
X83841645Y-97883280D01*
X83881190Y-97924211D01*
X83917114Y-97980532D01*
X83943743Y-98046552D01*
X83960625Y-98124042D01*
X83966614Y-98215165D01*
X83960535Y-98308087D01*
X83943591Y-98385180D01*
X83917180Y-98449103D01*
X83881923Y-98502028D01*
X83843016Y-98540025D01*
X83797154Y-98567235D01*
X83742947Y-98584161D01*
X83678346Y-98590139D01*
X83616909Y-98583986D01*
X83563747Y-98566285D01*
X83517146Y-98537260D01*
X83478555Y-98497969D01*
X83445842Y-98444973D01*
X83419449Y-98375205D01*
X83575886Y-98343942D01*
X83593476Y-98390039D01*
X83615993Y-98419262D01*
X83643281Y-98435926D01*
X83677003Y-98441639D01*
X83709933Y-98436671D01*
X83739492Y-98421802D01*
X83766823Y-98395722D01*
X83786699Y-98363048D01*
X83799933Y-98320619D01*
X83805413Y-98265785D01*
X83411205Y-98265785D01*
X83410534Y-98243986D01*
X83416300Y-98144640D01*
X83566971Y-98144640D01*
X83802666Y-98144640D01*
X83798690Y-98093835D01*
X83786962Y-98054219D01*
X83768533Y-98023374D01*
X83743354Y-97999100D01*
X83715699Y-97985186D01*
X83684452Y-97980509D01*
X83654898Y-97984953D01*
X83628141Y-97998289D01*
X83603180Y-98021725D01*
X83585104Y-98051131D01*
X83572613Y-98091074D01*
X83566971Y-98144640D01*
X83416300Y-98144640D01*
X83416754Y-98136826D01*
X83433827Y-98050436D01*
X83459894Y-97981208D01*
X83493882Y-97926104D01*
X83533504Y-97884974D01*
X83579158Y-97855992D01*
X83632043Y-97838222D01*
X83694039Y-97832009D01*
X83749252Y-97837876D01*
G37*
D13*
%TO.C,.space*%
G36*
X89306366Y-97521932D02*
G01*
X89398540Y-97583042D01*
X89448982Y-97630294D01*
X89448982Y-97570340D01*
X89449452Y-97551530D01*
X89458281Y-97523882D01*
X89487721Y-97512563D01*
X89549864Y-97510386D01*
X89650747Y-97510386D01*
X89650747Y-98026008D01*
X89650747Y-98541631D01*
X89551443Y-98541631D01*
X89452138Y-98541631D01*
X89444955Y-98192152D01*
X89437773Y-97842673D01*
X89374872Y-97788622D01*
X89370395Y-97784848D01*
X89301316Y-97745983D01*
X89213128Y-97734570D01*
X89174997Y-97732746D01*
X89111378Y-97712183D01*
X89077721Y-97663493D01*
X89067870Y-97580131D01*
X89070459Y-97543938D01*
X89090144Y-97514126D01*
X89140963Y-97498706D01*
X89203788Y-97495463D01*
X89306366Y-97521932D01*
G37*
G36*
X99901427Y-98521164D02*
G01*
X99910559Y-98538500D01*
X99892093Y-98563930D01*
X99843327Y-98599417D01*
X99761561Y-98646925D01*
X99644094Y-98708418D01*
X99488225Y-98785860D01*
X99440129Y-98809316D01*
X99315240Y-98869558D01*
X99205650Y-98921476D01*
X99117580Y-98962180D01*
X99057252Y-98988777D01*
X99030888Y-98998378D01*
X99016426Y-98994706D01*
X98965404Y-98973945D01*
X98886936Y-98938167D01*
X98788531Y-98891155D01*
X98677697Y-98836695D01*
X98561945Y-98778573D01*
X98448782Y-98720574D01*
X98345717Y-98666483D01*
X98260260Y-98620085D01*
X98199920Y-98585166D01*
X98172205Y-98565512D01*
X98165303Y-98556876D01*
X98154711Y-98530336D01*
X98181123Y-98513429D01*
X98190644Y-98512452D01*
X98242375Y-98525559D01*
X98332411Y-98561398D01*
X98460555Y-98619888D01*
X98626607Y-98700943D01*
X99032626Y-98903600D01*
X99432550Y-98703391D01*
X99452077Y-98693645D01*
X99574865Y-98633701D01*
X99684495Y-98582398D01*
X99774288Y-98542703D01*
X99837567Y-98517583D01*
X99867653Y-98510008D01*
X99901427Y-98521164D01*
G37*
G36*
X99903779Y-98084921D02*
G01*
X99913027Y-98102279D01*
X99894603Y-98127683D01*
X99845812Y-98163088D01*
X99763960Y-98210448D01*
X99646352Y-98271717D01*
X99490295Y-98348851D01*
X99441829Y-98372384D01*
X99317442Y-98432329D01*
X99208763Y-98484063D01*
X99121929Y-98524701D01*
X99063077Y-98551363D01*
X99038343Y-98561164D01*
X99020885Y-98556476D01*
X98967801Y-98534581D01*
X98887871Y-98498165D01*
X98788531Y-98450943D01*
X98677216Y-98396627D01*
X98561360Y-98338930D01*
X98448399Y-98281563D01*
X98345769Y-98228240D01*
X98260903Y-98182674D01*
X98201238Y-98148577D01*
X98174207Y-98129662D01*
X98167068Y-98120602D01*
X98156719Y-98093988D01*
X98183125Y-98077097D01*
X98192646Y-98076120D01*
X98244377Y-98089227D01*
X98334413Y-98125067D01*
X98462557Y-98183556D01*
X98628609Y-98264611D01*
X99034628Y-98467269D01*
X99434552Y-98267059D01*
X99454079Y-98257313D01*
X99576867Y-98197370D01*
X99686497Y-98146066D01*
X99776290Y-98106371D01*
X99839569Y-98081252D01*
X99869655Y-98073676D01*
X99903779Y-98084921D01*
G37*
G36*
X95707832Y-97889211D02*
G01*
X95708308Y-97914148D01*
X95711520Y-98049176D01*
X95715619Y-98147510D01*
X95721421Y-98216191D01*
X95729745Y-98262259D01*
X95741406Y-98292756D01*
X95757223Y-98314721D01*
X95763523Y-98321294D01*
X95837163Y-98365526D01*
X95925999Y-98376910D01*
X96013794Y-98353023D01*
X96024768Y-98346953D01*
X96062362Y-98316468D01*
X96090096Y-98271867D01*
X96109325Y-98207028D01*
X96121404Y-98115826D01*
X96127686Y-97992141D01*
X96129528Y-97829848D01*
X96129653Y-97510386D01*
X96230535Y-97510386D01*
X96331418Y-97510386D01*
X96331418Y-97892218D01*
X96331115Y-97970885D01*
X96327184Y-98129606D01*
X96316920Y-98252116D01*
X96298074Y-98344417D01*
X96268398Y-98412511D01*
X96225643Y-98462399D01*
X96167562Y-98500085D01*
X96091904Y-98531569D01*
X96088526Y-98532767D01*
X95987159Y-98558533D01*
X95897843Y-98554505D01*
X95798982Y-98519816D01*
X95794363Y-98517727D01*
X95737796Y-98494760D01*
X95710676Y-98492233D01*
X95703704Y-98509099D01*
X95700328Y-98521415D01*
X95670109Y-98536949D01*
X95602821Y-98541631D01*
X95501939Y-98541631D01*
X95501939Y-98026008D01*
X95501939Y-97510386D01*
X95601345Y-97510386D01*
X95700751Y-97510386D01*
X95707832Y-97889211D01*
G37*
G36*
X90121533Y-97843316D02*
G01*
X90121700Y-97883259D01*
X90124348Y-98007071D01*
X90129748Y-98115623D01*
X90137295Y-98199061D01*
X90146381Y-98247528D01*
X90188349Y-98314657D01*
X90257914Y-98360682D01*
X90340530Y-98377676D01*
X90423459Y-98363176D01*
X90493962Y-98314721D01*
X90496748Y-98311558D01*
X90511860Y-98288721D01*
X90522944Y-98256250D01*
X90530819Y-98207104D01*
X90536300Y-98134242D01*
X90540206Y-98030624D01*
X90543353Y-97889211D01*
X90550434Y-97510386D01*
X90649840Y-97510386D01*
X90749247Y-97510386D01*
X90749099Y-97919521D01*
X90749019Y-97980366D01*
X90748068Y-98113489D01*
X90745552Y-98211433D01*
X90740854Y-98281204D01*
X90733355Y-98329808D01*
X90722439Y-98364251D01*
X90707488Y-98391541D01*
X90621522Y-98484041D01*
X90506707Y-98543217D01*
X90466688Y-98552458D01*
X90366508Y-98555127D01*
X90266052Y-98536197D01*
X90186454Y-98498614D01*
X90171955Y-98487925D01*
X90136660Y-98464546D01*
X90123494Y-98467418D01*
X90121533Y-98496123D01*
X90121476Y-98500140D01*
X90113395Y-98526641D01*
X90083611Y-98538746D01*
X90020650Y-98541631D01*
X89919767Y-98541631D01*
X89919767Y-98026008D01*
X89919767Y-97510386D01*
X90020650Y-97510386D01*
X90121533Y-97510386D01*
X90121533Y-97843316D01*
G37*
G36*
X88607002Y-97509953D02*
G01*
X88721258Y-97553233D01*
X88818853Y-97626209D01*
X88891133Y-97728648D01*
X88908896Y-97768543D01*
X88929647Y-97836610D01*
X88940043Y-97917066D01*
X88942886Y-98026008D01*
X88935552Y-98156213D01*
X88902616Y-98296464D01*
X88841263Y-98405369D01*
X88749364Y-98486388D01*
X88624792Y-98542976D01*
X88573440Y-98553465D01*
X88467074Y-98553056D01*
X88354091Y-98531711D01*
X88253765Y-98492075D01*
X88237658Y-98482257D01*
X88181797Y-98434680D01*
X88130838Y-98374093D01*
X88091831Y-98311307D01*
X88071828Y-98257135D01*
X88077880Y-98222388D01*
X88080861Y-98219945D01*
X88119311Y-98203988D01*
X88178147Y-98190485D01*
X88228068Y-98185229D01*
X88260480Y-98195783D01*
X88280127Y-98230531D01*
X88320264Y-98299591D01*
X88395619Y-98354676D01*
X88496202Y-98373493D01*
X88582197Y-98360746D01*
X88654784Y-98315057D01*
X88702482Y-98234817D01*
X88726084Y-98118617D01*
X88726385Y-97965048D01*
X88719720Y-97884854D01*
X88708048Y-97820988D01*
X88688178Y-97776691D01*
X88655869Y-97738328D01*
X88583578Y-97690967D01*
X88495300Y-97675241D01*
X88407426Y-97693004D01*
X88332037Y-97741666D01*
X88281209Y-97818639D01*
X88267571Y-97843978D01*
X88233930Y-97863934D01*
X88170987Y-97869080D01*
X88102557Y-97861291D01*
X88070105Y-97834768D01*
X88072392Y-97785030D01*
X88107663Y-97707597D01*
X88156415Y-97638440D01*
X88250791Y-97560612D01*
X88363116Y-97513410D01*
X88484738Y-97496601D01*
X88607002Y-97509953D01*
G37*
G36*
X94153826Y-97994433D02*
G01*
X94145592Y-98122897D01*
X94124684Y-98241858D01*
X94092468Y-98334209D01*
X94040727Y-98411586D01*
X93946153Y-98494465D01*
X93834804Y-98542693D01*
X93774496Y-98554178D01*
X93630293Y-98554555D01*
X93501863Y-98513041D01*
X93389514Y-98429715D01*
X93357306Y-98395974D01*
X93319625Y-98350956D01*
X93304939Y-98324918D01*
X93305069Y-98323551D01*
X93325053Y-98298333D01*
X93368741Y-98267008D01*
X93389726Y-98254896D01*
X93424362Y-98242260D01*
X93453827Y-98254468D01*
X93495968Y-98295522D01*
X93572972Y-98352595D01*
X93674715Y-98378708D01*
X93786267Y-98362504D01*
X93851593Y-98330575D01*
X93909023Y-98265671D01*
X93943313Y-98166716D01*
X93958374Y-98094449D01*
X93614843Y-98088252D01*
X93271312Y-98082054D01*
X93278687Y-97958753D01*
X93282108Y-97936335D01*
X93478682Y-97936335D01*
X93714516Y-97936335D01*
X93950350Y-97936335D01*
X93931890Y-97854487D01*
X93925772Y-97830641D01*
X93883502Y-97744556D01*
X93815717Y-97694638D01*
X93719566Y-97678524D01*
X93696468Y-97679436D01*
X93601392Y-97706986D01*
X93531910Y-97769753D01*
X93493236Y-97863475D01*
X93478682Y-97936335D01*
X93282108Y-97936335D01*
X93296411Y-97842601D01*
X93337268Y-97723926D01*
X93395162Y-97626058D01*
X93464575Y-97560810D01*
X93516133Y-97533596D01*
X93642060Y-97497987D01*
X93769911Y-97498543D01*
X93891401Y-97532274D01*
X93998246Y-97596193D01*
X94082164Y-97687311D01*
X94134868Y-97802638D01*
X94148022Y-97873576D01*
X94151036Y-97936335D01*
X94153826Y-97994433D01*
G37*
G36*
X95232918Y-98541631D02*
G01*
X95132036Y-98541631D01*
X95089247Y-98540263D01*
X95044356Y-98530168D01*
X95031153Y-98508003D01*
X95031154Y-98506682D01*
X95030060Y-98484039D01*
X95019770Y-98477815D01*
X94989952Y-98489156D01*
X94930270Y-98519212D01*
X94899936Y-98533954D01*
X94827696Y-98558421D01*
X94756732Y-98559977D01*
X94666242Y-98540283D01*
X94592756Y-98511954D01*
X94491984Y-98436587D01*
X94418614Y-98327542D01*
X94373808Y-98186798D01*
X94359925Y-98029871D01*
X94572084Y-98029871D01*
X94581419Y-98143275D01*
X94610235Y-98242579D01*
X94658000Y-98314394D01*
X94677553Y-98331048D01*
X94759970Y-98371141D01*
X94843423Y-98371665D01*
X94918035Y-98334298D01*
X94973929Y-98260718D01*
X94995327Y-98188495D01*
X95007098Y-98085528D01*
X95007380Y-97973171D01*
X94996187Y-97868969D01*
X94973534Y-97790467D01*
X94930450Y-97728420D01*
X94860596Y-97684560D01*
X94781645Y-97677213D01*
X94703605Y-97706869D01*
X94636482Y-97774016D01*
X94613993Y-97814329D01*
X94582765Y-97915759D01*
X94572084Y-98029871D01*
X94359925Y-98029871D01*
X94358727Y-98016335D01*
X94360365Y-97950892D01*
X94378045Y-97820298D01*
X94418086Y-97714808D01*
X94484147Y-97622947D01*
X94545517Y-97568376D01*
X94651127Y-97514747D01*
X94765079Y-97494242D01*
X94876385Y-97508311D01*
X94974054Y-97558400D01*
X95031153Y-97603314D01*
X95031153Y-97355085D01*
X95031153Y-97106856D01*
X95132036Y-97106856D01*
X95232918Y-97106856D01*
X95232918Y-97824243D01*
X95232918Y-97973171D01*
X95232918Y-98541631D01*
G37*
G36*
X91872126Y-98165236D02*
G01*
X91837978Y-98302512D01*
X91776415Y-98408627D01*
X91685075Y-98487482D01*
X91561597Y-98542976D01*
X91507385Y-98553316D01*
X91408607Y-98553543D01*
X91306185Y-98538042D01*
X91221955Y-98508997D01*
X91171680Y-98477925D01*
X91079534Y-98385271D01*
X91014891Y-98265070D01*
X90979871Y-98124243D01*
X90979497Y-98106586D01*
X91200481Y-98106586D01*
X91205359Y-98174047D01*
X91218365Y-98223432D01*
X91241377Y-98267565D01*
X91246653Y-98275592D01*
X91294430Y-98329213D01*
X91344803Y-98362843D01*
X91437333Y-98381553D01*
X91529537Y-98360364D01*
X91612353Y-98295353D01*
X91640158Y-98242282D01*
X91659644Y-98156158D01*
X91668171Y-98053368D01*
X91665402Y-97947858D01*
X91651002Y-97853571D01*
X91624636Y-97784452D01*
X91598327Y-97749389D01*
X91521824Y-97692802D01*
X91433229Y-97672965D01*
X91343313Y-97690968D01*
X91262850Y-97747899D01*
X91254013Y-97757649D01*
X91230103Y-97792309D01*
X91215387Y-97836332D01*
X91207014Y-97901543D01*
X91202134Y-97999762D01*
X91201850Y-98008221D01*
X91200481Y-98106586D01*
X90979497Y-98106586D01*
X90976596Y-97969709D01*
X91007186Y-97808387D01*
X91019799Y-97771776D01*
X91084618Y-97660450D01*
X91175296Y-97577153D01*
X91284033Y-97522772D01*
X91403027Y-97498190D01*
X91524479Y-97504293D01*
X91640586Y-97541965D01*
X91743550Y-97612092D01*
X91825569Y-97715558D01*
X91832673Y-97728203D01*
X91857906Y-97781836D01*
X91872688Y-97838122D01*
X91879639Y-97911098D01*
X91881374Y-98014799D01*
X91879003Y-98053368D01*
X91872126Y-98165236D01*
G37*
G36*
X87886422Y-98014799D02*
G01*
X87883796Y-98092478D01*
X87856860Y-98250462D01*
X87800310Y-98375563D01*
X87713551Y-98468839D01*
X87595988Y-98531349D01*
X87568974Y-98540532D01*
X87486466Y-98559474D01*
X87405555Y-98558638D01*
X87305075Y-98538548D01*
X87259851Y-98522915D01*
X87185385Y-98482678D01*
X87117958Y-98431665D01*
X87069069Y-98379097D01*
X87050217Y-98334192D01*
X87066529Y-98299769D01*
X87107338Y-98262759D01*
X87123398Y-98252457D01*
X87156234Y-98238615D01*
X87184645Y-98250088D01*
X87225759Y-98290955D01*
X87299414Y-98347704D01*
X87399754Y-98376765D01*
X87507005Y-98363204D01*
X87575643Y-98331775D01*
X87638827Y-98267902D01*
X87670614Y-98174508D01*
X87683798Y-98093264D01*
X87341348Y-98093264D01*
X86998897Y-98093264D01*
X87012418Y-97948475D01*
X87025105Y-97874068D01*
X87229564Y-97874068D01*
X87229564Y-97936335D01*
X87453748Y-97936335D01*
X87536866Y-97935931D01*
X87616634Y-97931874D01*
X87661617Y-97919773D01*
X87677633Y-97895238D01*
X87670501Y-97853882D01*
X87646041Y-97791316D01*
X87633836Y-97765617D01*
X87592495Y-97718090D01*
X87523901Y-97687953D01*
X87473824Y-97677630D01*
X87379888Y-97684219D01*
X87302120Y-97722788D01*
X87249140Y-97787887D01*
X87229564Y-97874068D01*
X87025105Y-97874068D01*
X87033176Y-97826737D01*
X87086148Y-97692090D01*
X87165724Y-97590586D01*
X87269346Y-97524374D01*
X87394457Y-97495604D01*
X87538499Y-97506426D01*
X87546044Y-97508015D01*
X87674020Y-97551295D01*
X87770005Y-97620634D01*
X87836041Y-97719010D01*
X87874167Y-97849405D01*
X87877563Y-97895238D01*
X87886422Y-98014799D01*
G37*
G36*
X97121280Y-97096292D02*
G01*
X97252867Y-97126049D01*
X97369315Y-97183990D01*
X97460045Y-97269182D01*
X97478981Y-97296015D01*
X97513711Y-97361079D01*
X97538073Y-97438321D01*
X97553590Y-97535853D01*
X97561784Y-97661789D01*
X97564177Y-97824243D01*
X97564147Y-97839578D01*
X97561887Y-97960030D01*
X97556569Y-98070829D01*
X97548923Y-98160248D01*
X97539683Y-98216565D01*
X97514473Y-98287139D01*
X97439109Y-98402779D01*
X97331301Y-98489191D01*
X97194525Y-98543086D01*
X97189388Y-98544312D01*
X97043230Y-98558889D01*
X96902724Y-98536705D01*
X96776160Y-98481342D01*
X96671833Y-98396381D01*
X96598035Y-98285405D01*
X96589411Y-98265067D01*
X96565811Y-98191746D01*
X96556094Y-98131267D01*
X96556777Y-98103393D01*
X96566769Y-98079987D01*
X96597958Y-98072666D01*
X96662089Y-98075221D01*
X96700073Y-98078098D01*
X96746784Y-98087288D01*
X96767901Y-98108062D01*
X96776142Y-98148604D01*
X96783195Y-98185884D01*
X96827733Y-98274854D01*
X96902674Y-98339558D01*
X96999807Y-98374466D01*
X97110921Y-98374047D01*
X97175572Y-98358239D01*
X97243213Y-98319822D01*
X97302041Y-98250808D01*
X97313251Y-98231215D01*
X97324681Y-98196435D01*
X97332453Y-98145520D01*
X97337210Y-98071298D01*
X97339592Y-97966596D01*
X97340244Y-97824243D01*
X97339901Y-97714840D01*
X97338028Y-97601080D01*
X97333948Y-97519655D01*
X97327018Y-97463395D01*
X97316597Y-97425127D01*
X97302041Y-97397678D01*
X97260101Y-97344754D01*
X97197023Y-97298880D01*
X97110921Y-97274440D01*
X97069426Y-97269851D01*
X96962445Y-97282915D01*
X96872430Y-97329295D01*
X96807592Y-97403461D01*
X96776142Y-97499883D01*
X96772739Y-97523635D01*
X96759488Y-97553024D01*
X96726844Y-97566840D01*
X96662089Y-97573265D01*
X96614789Y-97575768D01*
X96574090Y-97572371D01*
X96558440Y-97554925D01*
X96556094Y-97517219D01*
X96558519Y-97486556D01*
X96588079Y-97387755D01*
X96644402Y-97287976D01*
X96718871Y-97203811D01*
X96741494Y-97185461D01*
X96855012Y-97125065D01*
X96985135Y-97095653D01*
X97121280Y-97096292D01*
G37*
G36*
X92730278Y-97103293D02*
G01*
X92849845Y-97146206D01*
X92955159Y-97219615D01*
X92985325Y-97248132D01*
X93020772Y-97287692D01*
X93039151Y-97327122D01*
X93046068Y-97381412D01*
X93047128Y-97465550D01*
X93046923Y-97516491D01*
X93043305Y-97582398D01*
X93030842Y-97626544D01*
X93004052Y-97663813D01*
X92957455Y-97709091D01*
X92957060Y-97709458D01*
X92881269Y-97765673D01*
X92771993Y-97827321D01*
X92639125Y-97888814D01*
X92598530Y-97906145D01*
X92475651Y-97963207D01*
X92389223Y-98013450D01*
X92333993Y-98061115D01*
X92304708Y-98110441D01*
X92296113Y-98165669D01*
X92300970Y-98213665D01*
X92338329Y-98293737D01*
X92408434Y-98349184D01*
X92506342Y-98376898D01*
X92627114Y-98373775D01*
X92722130Y-98343606D01*
X92802675Y-98288483D01*
X92858262Y-98217670D01*
X92878991Y-98140342D01*
X92879579Y-98113019D01*
X92888485Y-98083995D01*
X92917857Y-98072734D01*
X92979873Y-98070845D01*
X93080756Y-98070845D01*
X93080756Y-98161992D01*
X93078517Y-98201758D01*
X93044308Y-98316874D01*
X92972358Y-98415431D01*
X92867176Y-98492484D01*
X92733271Y-98543086D01*
X92692092Y-98551759D01*
X92548722Y-98561473D01*
X92414099Y-98541229D01*
X92294141Y-98494825D01*
X92194767Y-98426057D01*
X92121897Y-98338723D01*
X92081448Y-98236620D01*
X92079339Y-98123545D01*
X92086255Y-98088125D01*
X92118102Y-98001469D01*
X92173438Y-97929571D01*
X92259174Y-97865058D01*
X92382226Y-97800559D01*
X92412178Y-97786624D01*
X92550886Y-97721535D01*
X92655004Y-97671137D01*
X92729850Y-97632311D01*
X92780741Y-97601939D01*
X92812992Y-97576900D01*
X92831921Y-97554076D01*
X92842846Y-97530348D01*
X92847914Y-97513661D01*
X92851269Y-97429267D01*
X92818654Y-97358599D01*
X92756822Y-97305823D01*
X92672528Y-97275101D01*
X92572525Y-97270600D01*
X92463567Y-97296482D01*
X92376968Y-97346319D01*
X92317262Y-97420376D01*
X92296113Y-97509273D01*
X92296043Y-97513806D01*
X92287907Y-97540312D01*
X92258141Y-97552370D01*
X92195231Y-97555223D01*
X92149794Y-97554731D01*
X92110855Y-97547694D01*
X92096441Y-97524541D01*
X92094348Y-97475645D01*
X92113651Y-97367251D01*
X92168702Y-97271808D01*
X92252367Y-97194112D01*
X92357502Y-97136287D01*
X92476962Y-97100459D01*
X92603602Y-97088753D01*
X92730278Y-97103293D01*
G37*
G36*
X99881685Y-97165607D02*
G01*
X99881685Y-97165611D01*
X99881685Y-97669516D01*
X99881685Y-97703420D01*
X99461340Y-97915317D01*
X99423081Y-97934555D01*
X99299504Y-97996004D01*
X99190606Y-98049129D01*
X99102701Y-98090915D01*
X99042102Y-98118346D01*
X99015124Y-98128408D01*
X99003079Y-98125584D01*
X98954584Y-98106650D01*
X98877882Y-98073007D01*
X98780485Y-98028288D01*
X98669909Y-97976127D01*
X98553666Y-97920156D01*
X98439272Y-97864010D01*
X98334241Y-97811321D01*
X98246086Y-97765722D01*
X98182322Y-97730847D01*
X98150463Y-97710328D01*
X98143830Y-97703581D01*
X98132594Y-97685269D01*
X98128335Y-97670533D01*
X98267145Y-97670533D01*
X98592618Y-97832812D01*
X98667215Y-97869860D01*
X98768434Y-97919615D01*
X98850460Y-97959309D01*
X98906335Y-97985586D01*
X98929102Y-97995091D01*
X98930811Y-97991153D01*
X98934481Y-97953402D01*
X98937432Y-97882042D01*
X98939399Y-97784956D01*
X98940114Y-97670024D01*
X99052205Y-97670024D01*
X99052411Y-97720660D01*
X99054365Y-97828773D01*
X99058056Y-97915582D01*
X99063077Y-97973243D01*
X99069019Y-97993915D01*
X99080189Y-97989848D01*
X99126190Y-97968871D01*
X99200513Y-97933117D01*
X99296003Y-97886049D01*
X99405503Y-97831127D01*
X99725174Y-97669516D01*
X99399701Y-97507237D01*
X99325104Y-97470189D01*
X99223885Y-97420433D01*
X99141859Y-97380740D01*
X99085984Y-97354463D01*
X99063217Y-97344958D01*
X99061508Y-97348896D01*
X99057838Y-97386647D01*
X99054887Y-97458007D01*
X99052920Y-97555093D01*
X99052205Y-97670024D01*
X98940114Y-97670024D01*
X98939908Y-97619389D01*
X98937954Y-97511276D01*
X98934263Y-97424467D01*
X98929242Y-97366806D01*
X98923300Y-97346134D01*
X98912130Y-97350201D01*
X98866130Y-97371178D01*
X98791806Y-97406931D01*
X98696316Y-97454000D01*
X98586816Y-97508922D01*
X98267145Y-97670533D01*
X98128335Y-97670533D01*
X98124198Y-97656222D01*
X98118236Y-97610756D01*
X98114303Y-97543188D01*
X98111995Y-97447835D01*
X98110907Y-97319013D01*
X98110658Y-97165611D01*
X98200308Y-97165611D01*
X98200312Y-97174779D01*
X98201258Y-97306409D01*
X98203684Y-97420645D01*
X98207318Y-97510624D01*
X98211887Y-97569488D01*
X98217122Y-97590377D01*
X98236057Y-97582864D01*
X98289528Y-97557962D01*
X98370360Y-97518810D01*
X98471782Y-97468691D01*
X98587024Y-97410892D01*
X98706096Y-97350463D01*
X98800570Y-97301108D01*
X98865506Y-97264278D01*
X98906416Y-97236142D01*
X98928812Y-97212871D01*
X98938207Y-97190635D01*
X98940114Y-97165611D01*
X99052205Y-97165611D01*
X99054017Y-97190208D01*
X99063151Y-97212284D01*
X99085093Y-97235292D01*
X99125327Y-97263005D01*
X99189339Y-97299192D01*
X99282613Y-97347627D01*
X99410635Y-97412081D01*
X99515278Y-97464231D01*
X99618522Y-97515129D01*
X99701551Y-97555454D01*
X99757759Y-97581999D01*
X99780538Y-97591560D01*
X99780779Y-97591467D01*
X99784328Y-97567536D01*
X99787411Y-97506099D01*
X99789843Y-97414042D01*
X99791438Y-97298251D01*
X99792011Y-97165611D01*
X99792009Y-97156664D01*
X99791364Y-97024905D01*
X99789709Y-96910440D01*
X99787230Y-96820154D01*
X99784111Y-96760933D01*
X99780538Y-96739663D01*
X99761681Y-96747436D01*
X99708545Y-96772414D01*
X99627922Y-96811494D01*
X99526416Y-96861472D01*
X99410635Y-96919141D01*
X99283887Y-96982947D01*
X99190242Y-97031546D01*
X99125922Y-97067854D01*
X99085443Y-97095643D01*
X99063321Y-97118685D01*
X99054070Y-97140750D01*
X99052205Y-97165606D01*
X99052205Y-97165611D01*
X98940114Y-97165611D01*
X98940114Y-97165606D01*
X98938303Y-97141016D01*
X98929169Y-97118940D01*
X98907227Y-97095931D01*
X98866993Y-97068219D01*
X98802981Y-97032031D01*
X98709706Y-96983596D01*
X98581684Y-96919141D01*
X98477041Y-96866992D01*
X98373797Y-96816093D01*
X98290768Y-96775769D01*
X98234560Y-96749223D01*
X98211781Y-96739663D01*
X98211540Y-96739756D01*
X98207991Y-96763687D01*
X98204908Y-96825124D01*
X98202476Y-96917180D01*
X98200881Y-97032971D01*
X98200308Y-97165611D01*
X98110658Y-97165611D01*
X98110634Y-97151040D01*
X98110634Y-96649765D01*
X98289981Y-96649765D01*
X98303211Y-96659665D01*
X98350720Y-96686874D01*
X98426617Y-96727517D01*
X98524422Y-96778138D01*
X98637651Y-96835276D01*
X98731982Y-96881970D01*
X98835555Y-96932324D01*
X98919637Y-96972168D01*
X98977383Y-96998270D01*
X99001950Y-97007395D01*
X99002014Y-97007390D01*
X99028848Y-96997056D01*
X99086265Y-96970369D01*
X99166396Y-96931344D01*
X99261372Y-96883996D01*
X99363325Y-96832342D01*
X99464387Y-96780395D01*
X99556687Y-96732171D01*
X99632358Y-96691686D01*
X99683532Y-96662955D01*
X99702338Y-96649993D01*
X99688004Y-96639496D01*
X99639362Y-96611826D01*
X99562474Y-96570772D01*
X99463772Y-96519762D01*
X99349694Y-96462221D01*
X98997049Y-96286333D01*
X98643515Y-96461997D01*
X98543545Y-96512166D01*
X98442262Y-96564162D01*
X98361951Y-96606706D01*
X98309046Y-96636379D01*
X98289981Y-96649765D01*
X98110634Y-96649765D01*
X98110634Y-96627795D01*
X98536359Y-96414709D01*
X98577811Y-96394041D01*
X98702817Y-96332713D01*
X98813582Y-96279828D01*
X98903679Y-96238366D01*
X98966680Y-96211304D01*
X98996160Y-96201622D01*
X99001466Y-96202624D01*
X99042238Y-96218122D01*
X99114501Y-96250059D01*
X99211826Y-96295454D01*
X99327788Y-96351330D01*
X99455960Y-96414709D01*
X99881685Y-96627795D01*
X99881685Y-96649993D01*
X99881685Y-97165607D01*
G37*
%TO.C,G\u002A\u002A\u002A*%
G36*
X88264372Y-85153521D02*
G01*
X88264372Y-85829852D01*
X87588041Y-85829852D01*
X86911710Y-85829852D01*
X86911710Y-85153521D01*
X86911710Y-84477189D01*
X87588041Y-84477189D01*
X88264372Y-84477189D01*
X88264372Y-85153521D01*
G37*
G36*
X88264372Y-93269497D02*
G01*
X88264372Y-93945828D01*
X87588041Y-93945828D01*
X86911710Y-93945828D01*
X86911710Y-93269497D01*
X86911710Y-92593166D01*
X87588041Y-92593166D01*
X88264372Y-92593166D01*
X88264372Y-93269497D01*
G37*
G36*
X88715260Y-88760621D02*
G01*
X88715260Y-88986065D01*
X88489816Y-88986065D01*
X88264372Y-88986065D01*
X88264372Y-88760621D01*
X88264372Y-88535178D01*
X88489816Y-88535178D01*
X88715260Y-88535178D01*
X88715260Y-88760621D01*
G37*
G36*
X89166147Y-87407959D02*
G01*
X89166147Y-87633402D01*
X88940704Y-87633402D01*
X88715260Y-87633402D01*
X88715260Y-87407959D01*
X88715260Y-87182515D01*
X88940704Y-87182515D01*
X89166147Y-87182515D01*
X89166147Y-87407959D01*
G37*
G36*
X90067923Y-92142278D02*
G01*
X90067923Y-92593166D01*
X89842479Y-92593166D01*
X89617035Y-92593166D01*
X89617035Y-92142278D01*
X89617035Y-91691391D01*
X89842479Y-91691391D01*
X90067923Y-91691391D01*
X90067923Y-92142278D01*
G37*
G36*
X92322360Y-93269497D02*
G01*
X92322360Y-93494941D01*
X92096917Y-93494941D01*
X91871473Y-93494941D01*
X91871473Y-93269497D01*
X91871473Y-93044053D01*
X92096917Y-93044053D01*
X92322360Y-93044053D01*
X92322360Y-93269497D01*
G37*
G36*
X92773248Y-83800858D02*
G01*
X92773248Y-84026302D01*
X92547804Y-84026302D01*
X92322360Y-84026302D01*
X92322360Y-83800858D01*
X92322360Y-83575414D01*
X92547804Y-83575414D01*
X92773248Y-83575414D01*
X92773248Y-83800858D01*
G37*
G36*
X94576798Y-86506183D02*
G01*
X94576798Y-86731627D01*
X94351355Y-86731627D01*
X94125911Y-86731627D01*
X94125911Y-86506183D01*
X94125911Y-86280740D01*
X94351355Y-86280740D01*
X94576798Y-86280740D01*
X94576798Y-86506183D01*
G37*
G36*
X95027686Y-91015059D02*
G01*
X95027686Y-91240503D01*
X94802242Y-91240503D01*
X94576798Y-91240503D01*
X94576798Y-91015059D01*
X94576798Y-90789615D01*
X94802242Y-90789615D01*
X95027686Y-90789615D01*
X95027686Y-91015059D01*
G37*
G36*
X95929461Y-91015059D02*
G01*
X95929461Y-91240503D01*
X95704017Y-91240503D01*
X95478573Y-91240503D01*
X95478573Y-91015059D01*
X95478573Y-90789615D01*
X95704017Y-90789615D01*
X95929461Y-90789615D01*
X95929461Y-91015059D01*
G37*
G36*
X96380349Y-90113284D02*
G01*
X96380349Y-90338728D01*
X96154905Y-90338728D01*
X95929461Y-90338728D01*
X95929461Y-90113284D01*
X95929461Y-89887840D01*
X96154905Y-89887840D01*
X96380349Y-89887840D01*
X96380349Y-90113284D01*
G37*
G36*
X96380349Y-93269497D02*
G01*
X96380349Y-93945828D01*
X95704017Y-93945828D01*
X95027686Y-93945828D01*
X95027686Y-93269497D01*
X95027686Y-92593166D01*
X95704017Y-92593166D01*
X96380349Y-92593166D01*
X96380349Y-93269497D01*
G37*
G36*
X96831236Y-91015059D02*
G01*
X96831236Y-91240503D01*
X96605792Y-91240503D01*
X96380349Y-91240503D01*
X96380349Y-91015059D01*
X96380349Y-90789615D01*
X96605792Y-90789615D01*
X96831236Y-90789615D01*
X96831236Y-91015059D01*
G37*
G36*
X97282124Y-89211509D02*
G01*
X97282124Y-89436953D01*
X96831236Y-89436953D01*
X96380349Y-89436953D01*
X96380349Y-89211509D01*
X96380349Y-88986065D01*
X96831236Y-88986065D01*
X97282124Y-88986065D01*
X97282124Y-89211509D01*
G37*
G36*
X97282124Y-90564172D02*
G01*
X97282124Y-90789615D01*
X97056680Y-90789615D01*
X96831236Y-90789615D01*
X96831236Y-90564172D01*
X96831236Y-90338728D01*
X97056680Y-90338728D01*
X97282124Y-90338728D01*
X97282124Y-90564172D01*
G37*
G36*
X90067923Y-83800858D02*
G01*
X90067923Y-84026302D01*
X90518810Y-84026302D01*
X90969698Y-84026302D01*
X90969698Y-84251746D01*
X90969698Y-84477189D01*
X90518810Y-84477189D01*
X90067923Y-84477189D01*
X90067923Y-85153521D01*
X90067923Y-85829852D01*
X89842479Y-85829852D01*
X89617035Y-85829852D01*
X89617035Y-84702633D01*
X89617035Y-83575414D01*
X89842479Y-83575414D01*
X90067923Y-83575414D01*
X90067923Y-83800858D01*
G37*
G36*
X89166147Y-85153521D02*
G01*
X89166147Y-86731627D01*
X87588041Y-86731627D01*
X86009934Y-86731627D01*
X86009934Y-86280740D01*
X86460822Y-86280740D01*
X87588041Y-86280740D01*
X88715260Y-86280740D01*
X88715260Y-85153521D01*
X88715260Y-84026302D01*
X87588041Y-84026302D01*
X86460822Y-84026302D01*
X86460822Y-85153521D01*
X86460822Y-86280740D01*
X86009934Y-86280740D01*
X86009934Y-85153521D01*
X86009934Y-83575414D01*
X87588041Y-83575414D01*
X89166147Y-83575414D01*
X89166147Y-85153521D01*
G37*
G36*
X89166147Y-93269497D02*
G01*
X89166147Y-94847604D01*
X87588041Y-94847604D01*
X86009934Y-94847604D01*
X86009934Y-94396716D01*
X86460822Y-94396716D01*
X87588041Y-94396716D01*
X88715260Y-94396716D01*
X88715260Y-93269497D01*
X88715260Y-92142278D01*
X87588041Y-92142278D01*
X86460822Y-92142278D01*
X86460822Y-93269497D01*
X86460822Y-94396716D01*
X86009934Y-94396716D01*
X86009934Y-93269497D01*
X86009934Y-91691391D01*
X87588041Y-91691391D01*
X89166147Y-91691391D01*
X89166147Y-93269497D01*
G37*
G36*
X97282124Y-93269497D02*
G01*
X97282124Y-94847604D01*
X95704017Y-94847604D01*
X94125911Y-94847604D01*
X94125911Y-94396716D01*
X94576798Y-94396716D01*
X95704017Y-94396716D01*
X96831236Y-94396716D01*
X96831236Y-93269497D01*
X96831236Y-92142278D01*
X95704017Y-92142278D01*
X94576798Y-92142278D01*
X94576798Y-93269497D01*
X94576798Y-94396716D01*
X94125911Y-94396716D01*
X94125911Y-93269497D01*
X94125911Y-91691391D01*
X95704017Y-91691391D01*
X97282124Y-91691391D01*
X97282124Y-93269497D01*
G37*
G36*
X86460822Y-87858846D02*
G01*
X86460822Y-88535178D01*
X86686266Y-88535178D01*
X86911710Y-88535178D01*
X86911710Y-88760621D01*
X86911710Y-88986065D01*
X87137153Y-88986065D01*
X87362597Y-88986065D01*
X87362597Y-88760621D01*
X87362597Y-88535178D01*
X87588041Y-88535178D01*
X87813485Y-88535178D01*
X87813485Y-88986065D01*
X87813485Y-89436953D01*
X88038928Y-89436953D01*
X88264372Y-89436953D01*
X88264372Y-89662396D01*
X88264372Y-89887840D01*
X87588041Y-89887840D01*
X86911710Y-89887840D01*
X86911710Y-90113284D01*
X86911710Y-90338728D01*
X86686266Y-90338728D01*
X86460822Y-90338728D01*
X86460822Y-90564172D01*
X86460822Y-90789615D01*
X86911710Y-90789615D01*
X87362597Y-90789615D01*
X87362597Y-90564172D01*
X87362597Y-90338728D01*
X87588041Y-90338728D01*
X87813485Y-90338728D01*
X87813485Y-90564172D01*
X87813485Y-90789615D01*
X88038928Y-90789615D01*
X88264372Y-90789615D01*
X88264372Y-91015059D01*
X88264372Y-91240503D01*
X87137153Y-91240503D01*
X86009934Y-91240503D01*
X86009934Y-89887840D01*
X86460822Y-89887840D01*
X86686266Y-89887840D01*
X86911710Y-89887840D01*
X86911710Y-89662396D01*
X86911710Y-89436953D01*
X86686266Y-89436953D01*
X86460822Y-89436953D01*
X86460822Y-89662396D01*
X86460822Y-89887840D01*
X86009934Y-89887840D01*
X86009934Y-89662396D01*
X86009934Y-89211509D01*
X86009934Y-87182515D01*
X86235378Y-87182515D01*
X86460822Y-87182515D01*
X86460822Y-87858846D01*
G37*
G36*
X88715260Y-89887840D02*
G01*
X89166147Y-89887840D01*
X89166147Y-90113284D01*
X89166147Y-90338728D01*
X88715260Y-90338728D01*
X88264372Y-90338728D01*
X88264372Y-90113284D01*
X88264372Y-89887840D01*
X88715260Y-89887840D01*
G37*
G36*
X96380349Y-84928077D02*
G01*
X96605792Y-84928077D01*
X96831236Y-84928077D01*
X96831236Y-84702633D01*
X96831236Y-84477189D01*
X97056680Y-84477189D01*
X97282124Y-84477189D01*
X97282124Y-84928077D01*
X97282124Y-85378965D01*
X96831236Y-85378965D01*
X96380349Y-85378965D01*
X96380349Y-85153521D01*
X96380349Y-84928077D01*
X96154905Y-84928077D01*
X95929461Y-84928077D01*
X95929461Y-85604408D01*
X95929461Y-86280740D01*
X95704017Y-86280740D01*
X95478573Y-86280740D01*
X95478573Y-86731627D01*
X95478573Y-87182515D01*
X95704017Y-87182515D01*
X95929461Y-87182515D01*
X95929461Y-87407959D01*
X95929461Y-87633402D01*
X94802242Y-87633402D01*
X93675023Y-87633402D01*
X93675023Y-87858846D01*
X93675023Y-88084290D01*
X94125911Y-88084290D01*
X94576798Y-88084290D01*
X94576798Y-88309734D01*
X94576798Y-88535178D01*
X94802242Y-88535178D01*
X95027686Y-88535178D01*
X95027686Y-88309734D01*
X95027686Y-88084290D01*
X95253130Y-88084290D01*
X95478573Y-88084290D01*
X95478573Y-88535178D01*
X95478573Y-88986065D01*
X95704017Y-88986065D01*
X95929461Y-88986065D01*
X95929461Y-89211509D01*
X95929461Y-89436953D01*
X95478573Y-89436953D01*
X95027686Y-89436953D01*
X95027686Y-89662396D01*
X95027686Y-89887840D01*
X94802242Y-89887840D01*
X94576798Y-89887840D01*
X94576798Y-90113284D01*
X94576798Y-90338728D01*
X94351355Y-90338728D01*
X94125911Y-90338728D01*
X94125911Y-90789615D01*
X94125911Y-91240503D01*
X93900467Y-91240503D01*
X93675023Y-91240503D01*
X93675023Y-92818610D01*
X93675023Y-94396716D01*
X92322360Y-94396716D01*
X90969698Y-94396716D01*
X90969698Y-94171272D01*
X90969698Y-93945828D01*
X90744254Y-93945828D01*
X90518810Y-93945828D01*
X90518810Y-94396716D01*
X90518810Y-94847604D01*
X90293366Y-94847604D01*
X90067923Y-94847604D01*
X90067923Y-94622160D01*
X90067923Y-94396716D01*
X89842479Y-94396716D01*
X89617035Y-94396716D01*
X89617035Y-94171272D01*
X89617035Y-93945828D01*
X89842479Y-93945828D01*
X90067923Y-93945828D01*
X90067923Y-93720385D01*
X90067923Y-93494941D01*
X89842479Y-93494941D01*
X89617035Y-93494941D01*
X89617035Y-93269497D01*
X89617035Y-93044053D01*
X90067923Y-93044053D01*
X90518810Y-93044053D01*
X90518810Y-92367722D01*
X90518810Y-91691391D01*
X90744254Y-91691391D01*
X90969698Y-91691391D01*
X90969698Y-92367722D01*
X90969698Y-93044053D01*
X90744254Y-93044053D01*
X90518810Y-93044053D01*
X90518810Y-93269497D01*
X90518810Y-93494941D01*
X90744254Y-93494941D01*
X90969698Y-93494941D01*
X90969698Y-93269497D01*
X90969698Y-93044053D01*
X91195142Y-93044053D01*
X91420585Y-93044053D01*
X91420585Y-93494941D01*
X91420585Y-93945828D01*
X92322360Y-93945828D01*
X93224136Y-93945828D01*
X93224136Y-93720385D01*
X93224136Y-93494941D01*
X92998692Y-93494941D01*
X92773248Y-93494941D01*
X92773248Y-93269497D01*
X92773248Y-93044053D01*
X92547804Y-93044053D01*
X92322360Y-93044053D01*
X92322360Y-92818610D01*
X92322360Y-92593166D01*
X92096917Y-92593166D01*
X91871473Y-92593166D01*
X91871473Y-92818610D01*
X91871473Y-93044053D01*
X91646029Y-93044053D01*
X91420585Y-93044053D01*
X91420585Y-92818610D01*
X91420585Y-92593166D01*
X91646029Y-92593166D01*
X91871473Y-92593166D01*
X91871473Y-92367722D01*
X91871473Y-92142278D01*
X91646029Y-92142278D01*
X91420585Y-92142278D01*
X91420585Y-91465947D01*
X91420585Y-90789615D01*
X91646029Y-90789615D01*
X91871473Y-90789615D01*
X91871473Y-91465947D01*
X91871473Y-92142278D01*
X92096917Y-92142278D01*
X92322360Y-92142278D01*
X92322360Y-91916834D01*
X92322360Y-91691391D01*
X92547804Y-91691391D01*
X92773248Y-91691391D01*
X92773248Y-91916834D01*
X92773248Y-92142278D01*
X92998692Y-92142278D01*
X93224136Y-92142278D01*
X93224136Y-91691391D01*
X93224136Y-91240503D01*
X92773248Y-91240503D01*
X92322360Y-91240503D01*
X92322360Y-90789615D01*
X92322360Y-90338728D01*
X92547804Y-90338728D01*
X92773248Y-90338728D01*
X92773248Y-90564172D01*
X92773248Y-90789615D01*
X92998692Y-90789615D01*
X93224136Y-90789615D01*
X93224136Y-90564172D01*
X93224136Y-90338728D01*
X93449579Y-90338728D01*
X93675023Y-90338728D01*
X93675023Y-90113284D01*
X93675023Y-89887840D01*
X94125911Y-89887840D01*
X94351355Y-89887840D01*
X94576798Y-89887840D01*
X94576798Y-89662396D01*
X94576798Y-89436953D01*
X94351355Y-89436953D01*
X94125911Y-89436953D01*
X94125911Y-89662396D01*
X94125911Y-89887840D01*
X93675023Y-89887840D01*
X93449579Y-89887840D01*
X93224136Y-89887840D01*
X93224136Y-89662396D01*
X93224136Y-89436953D01*
X92773248Y-89436953D01*
X92322360Y-89436953D01*
X92322360Y-89887840D01*
X92322360Y-90338728D01*
X91646029Y-90338728D01*
X90969698Y-90338728D01*
X90969698Y-90113284D01*
X90969698Y-89887840D01*
X91420585Y-89887840D01*
X91646029Y-89887840D01*
X91871473Y-89887840D01*
X91871473Y-89436953D01*
X91871473Y-88986065D01*
X92773248Y-88986065D01*
X93675023Y-88986065D01*
X93675023Y-88760621D01*
X93675023Y-88535178D01*
X92773248Y-88535178D01*
X91871473Y-88535178D01*
X91871473Y-88760621D01*
X91871473Y-88986065D01*
X91646029Y-88986065D01*
X91420585Y-88986065D01*
X91420585Y-89436953D01*
X91420585Y-89887840D01*
X90969698Y-89887840D01*
X90744254Y-89887840D01*
X90518810Y-89887840D01*
X90518810Y-90338728D01*
X90518810Y-90789615D01*
X90744254Y-90789615D01*
X90969698Y-90789615D01*
X90969698Y-91015059D01*
X90969698Y-91240503D01*
X89842479Y-91240503D01*
X88715260Y-91240503D01*
X88715260Y-91015059D01*
X88715260Y-90789615D01*
X89166147Y-90789615D01*
X89617035Y-90789615D01*
X89617035Y-90564172D01*
X89617035Y-90338728D01*
X89842479Y-90338728D01*
X90067923Y-90338728D01*
X90067923Y-89887840D01*
X90067923Y-89436953D01*
X90518810Y-89436953D01*
X90744254Y-89436953D01*
X90969698Y-89436953D01*
X90969698Y-89211509D01*
X90969698Y-88986065D01*
X90744254Y-88986065D01*
X90518810Y-88986065D01*
X90518810Y-89211509D01*
X90518810Y-89436953D01*
X90067923Y-89436953D01*
X89842479Y-89436953D01*
X89617035Y-89436953D01*
X89617035Y-89662396D01*
X89617035Y-89887840D01*
X89391591Y-89887840D01*
X89166147Y-89887840D01*
X89166147Y-89662396D01*
X89166147Y-89436953D01*
X88940704Y-89436953D01*
X88715260Y-89436953D01*
X88715260Y-89211509D01*
X88715260Y-88986065D01*
X88940704Y-88986065D01*
X89166147Y-88986065D01*
X89166147Y-88760621D01*
X89166147Y-88535178D01*
X90067923Y-88535178D01*
X90969698Y-88535178D01*
X90969698Y-88760621D01*
X90969698Y-88986065D01*
X91195142Y-88986065D01*
X91420585Y-88986065D01*
X91420585Y-88760621D01*
X91420585Y-88535178D01*
X91646029Y-88535178D01*
X91871473Y-88535178D01*
X91871473Y-88309734D01*
X91871473Y-88084290D01*
X92547804Y-88084290D01*
X93224136Y-88084290D01*
X93224136Y-87858846D01*
X93224136Y-87633402D01*
X92998692Y-87633402D01*
X92773248Y-87633402D01*
X92773248Y-87407959D01*
X92773248Y-87182515D01*
X93675023Y-87182515D01*
X94351355Y-87182515D01*
X95027686Y-87182515D01*
X95027686Y-86506183D01*
X95027686Y-85829852D01*
X94351355Y-85829852D01*
X93675023Y-85829852D01*
X93675023Y-86506183D01*
X93675023Y-87182515D01*
X92773248Y-87182515D01*
X92547804Y-87182515D01*
X92322360Y-87182515D01*
X92322360Y-87407959D01*
X92322360Y-87633402D01*
X92096917Y-87633402D01*
X91871473Y-87633402D01*
X91871473Y-87858846D01*
X91871473Y-88084290D01*
X91646029Y-88084290D01*
X91420585Y-88084290D01*
X91420585Y-87858846D01*
X91420585Y-87633402D01*
X91420585Y-87182515D01*
X91871473Y-87182515D01*
X92322360Y-87182515D01*
X92322360Y-86957071D01*
X92322360Y-86731627D01*
X91646029Y-86731627D01*
X90969698Y-86731627D01*
X90969698Y-87407959D01*
X90969698Y-88084290D01*
X90293366Y-88084290D01*
X89617035Y-88084290D01*
X89617035Y-87858846D01*
X89617035Y-87633402D01*
X90067923Y-87633402D01*
X90518810Y-87633402D01*
X90518810Y-87407959D01*
X90518810Y-87182515D01*
X90067923Y-87182515D01*
X89617035Y-87182515D01*
X89617035Y-86731627D01*
X90518810Y-86731627D01*
X90744254Y-86731627D01*
X90969698Y-86731627D01*
X90969698Y-86506183D01*
X90969698Y-86280740D01*
X91420585Y-86280740D01*
X91646029Y-86280740D01*
X91871473Y-86280740D01*
X92322360Y-86280740D01*
X92773248Y-86280740D01*
X93224136Y-86280740D01*
X93224136Y-86055296D01*
X93224136Y-85829852D01*
X92773248Y-85829852D01*
X92322360Y-85829852D01*
X92322360Y-86055296D01*
X92322360Y-86280740D01*
X91871473Y-86280740D01*
X91871473Y-86055296D01*
X91871473Y-85829852D01*
X91646029Y-85829852D01*
X91420585Y-85829852D01*
X91420585Y-86055296D01*
X91420585Y-86280740D01*
X90969698Y-86280740D01*
X90744254Y-86280740D01*
X90518810Y-86280740D01*
X90518810Y-86506183D01*
X90518810Y-86731627D01*
X89617035Y-86731627D01*
X89617035Y-86506183D01*
X89617035Y-86280740D01*
X90067923Y-86280740D01*
X90518810Y-86280740D01*
X90518810Y-86055296D01*
X90518810Y-85829852D01*
X90518810Y-85378965D01*
X90969698Y-85378965D01*
X91420585Y-85378965D01*
X91871473Y-85378965D01*
X92096917Y-85378965D01*
X92322360Y-85378965D01*
X92322360Y-85153521D01*
X92322360Y-84928077D01*
X92096917Y-84928077D01*
X91871473Y-84928077D01*
X91871473Y-85153521D01*
X91871473Y-85378965D01*
X91420585Y-85378965D01*
X91420585Y-85153521D01*
X91420585Y-84702633D01*
X91420585Y-84026302D01*
X91871473Y-84026302D01*
X92322360Y-84026302D01*
X92322360Y-84251746D01*
X92322360Y-84477189D01*
X92547804Y-84477189D01*
X92773248Y-84477189D01*
X92773248Y-84702633D01*
X92773248Y-84928077D01*
X93224136Y-84928077D01*
X93675023Y-84928077D01*
X93675023Y-85153521D01*
X93675023Y-85378965D01*
X93900467Y-85378965D01*
X94125911Y-85378965D01*
X94125911Y-85153521D01*
X94125911Y-84928077D01*
X94351355Y-84928077D01*
X94576798Y-84928077D01*
X94576798Y-84702633D01*
X94576798Y-84477189D01*
X94125911Y-84477189D01*
X93675023Y-84477189D01*
X93675023Y-84251746D01*
X93675023Y-84026302D01*
X94125911Y-84026302D01*
X94576798Y-84026302D01*
X94576798Y-84251746D01*
X94576798Y-84477189D01*
X94802242Y-84477189D01*
X95027686Y-84477189D01*
X95478573Y-84477189D01*
X95478573Y-84702633D01*
X95478573Y-84928077D01*
X95704017Y-84928077D01*
X95929461Y-84928077D01*
X95929461Y-84702633D01*
X95929461Y-84477189D01*
X95704017Y-84477189D01*
X95478573Y-84477189D01*
X95027686Y-84477189D01*
X95027686Y-84251746D01*
X95027686Y-84026302D01*
X95253130Y-84026302D01*
X95478573Y-84026302D01*
X95478573Y-83800858D01*
X95478573Y-83575414D01*
X96380349Y-83575414D01*
X97282124Y-83575414D01*
X97282124Y-83800858D01*
X97282124Y-84026302D01*
X97056680Y-84026302D01*
X96831236Y-84026302D01*
X96831236Y-84251746D01*
X96831236Y-84477189D01*
X96605792Y-84477189D01*
X96380349Y-84477189D01*
X96380349Y-84702633D01*
X96380349Y-84928077D01*
G37*
G36*
X95253130Y-89887840D02*
G01*
X95478573Y-89887840D01*
X95478573Y-90113284D01*
X95478573Y-90338728D01*
X95253130Y-90338728D01*
X95027686Y-90338728D01*
X95027686Y-90113284D01*
X95027686Y-89887840D01*
X95253130Y-89887840D01*
G37*
G36*
X88940704Y-88084290D02*
G01*
X89166147Y-88084290D01*
X89166147Y-88309734D01*
X89166147Y-88535178D01*
X88940704Y-88535178D01*
X88715260Y-88535178D01*
X88715260Y-88309734D01*
X88715260Y-88084290D01*
X88940704Y-88084290D01*
G37*
G36*
X88489816Y-87633402D02*
G01*
X88715260Y-87633402D01*
X88715260Y-87858846D01*
X88715260Y-88084290D01*
X88489816Y-88084290D01*
X88264372Y-88084290D01*
X88264372Y-88309734D01*
X88264372Y-88535178D01*
X88038928Y-88535178D01*
X87813485Y-88535178D01*
X87813485Y-88309734D01*
X87813485Y-88084290D01*
X88038928Y-88084290D01*
X88264372Y-88084290D01*
X88264372Y-87858846D01*
X88264372Y-87633402D01*
X88489816Y-87633402D01*
G37*
G36*
X96605792Y-86280740D02*
G01*
X97282124Y-86280740D01*
X97282124Y-87407959D01*
X97282124Y-88535178D01*
X96605792Y-88535178D01*
X95929461Y-88535178D01*
X95929461Y-88309734D01*
X95929461Y-88084290D01*
X96154905Y-88084290D01*
X96380349Y-88084290D01*
X96380349Y-87858846D01*
X96380349Y-87633402D01*
X96605792Y-87633402D01*
X96831236Y-87633402D01*
X96831236Y-87182515D01*
X96831236Y-86731627D01*
X96380349Y-86731627D01*
X95929461Y-86731627D01*
X95929461Y-86506183D01*
X95929461Y-86280740D01*
X96605792Y-86280740D01*
G37*
G36*
X88264372Y-87407959D02*
G01*
X88264372Y-87633402D01*
X88038928Y-87633402D01*
X87813485Y-87633402D01*
X87813485Y-87858846D01*
X87813485Y-88084290D01*
X87362597Y-88084290D01*
X86911710Y-88084290D01*
X86911710Y-87858846D01*
X86911710Y-87633402D01*
X87137153Y-87633402D01*
X87362597Y-87633402D01*
X87362597Y-87407959D01*
X87362597Y-87182515D01*
X87813485Y-87182515D01*
X88264372Y-87182515D01*
X88264372Y-87407959D01*
G37*
%TD*%
%LPC*%
D14*
%TO.C,H2*%
X125840000Y-82589900D03*
%TD*%
%TO.C,H4*%
X80094400Y-100371200D03*
%TD*%
D15*
%TO.C,J2*%
X82590400Y-88613000D03*
X82590400Y-94393000D03*
D16*
X83090400Y-87183000D03*
X78910400Y-87183000D03*
X83090400Y-95823000D03*
X78910400Y-95823000D03*
%TD*%
D17*
%TO.C,JP1*%
X107750000Y-88450000D03*
D18*
X107750000Y-87180000D03*
X107750000Y-85910000D03*
%TD*%
D19*
%TO.C,J1*%
X96510000Y-81350000D03*
D20*
X99050000Y-81350000D03*
%TD*%
D21*
%TO.C,REF\u002A\u002A*%
X106200000Y-90450000D03*
X104700000Y-90450000D03*
X106200000Y-92150000D03*
X104700000Y-92150000D03*
%TD*%
D22*
%TO.C,R13*%
X123790000Y-97120000D03*
X121940000Y-97120000D03*
D23*
X112940000Y-97120000D03*
X111090000Y-97120000D03*
%TD*%
D21*
%TO.C,REF\u002A\u002A*%
X106212500Y-84950000D03*
X104712500Y-84950000D03*
X106212500Y-85800000D03*
X104712500Y-85800000D03*
X106212500Y-86650000D03*
X104712500Y-86650000D03*
%TD*%
D14*
%TO.C,H3*%
X109040021Y-82501754D03*
%TD*%
%TO.C,H6*%
X125832900Y-100371200D03*
%TD*%
D22*
%TO.C,R12*%
X111002639Y-85630000D03*
X112852639Y-85630000D03*
X121852639Y-85630000D03*
X123702639Y-85630000D03*
%TD*%
D21*
%TO.C,REF\u002A\u002A*%
X106212500Y-96050000D03*
X104712500Y-96050000D03*
X106212500Y-96900000D03*
X104712500Y-96900000D03*
X106212500Y-97750000D03*
X104712500Y-97750000D03*
%TD*%
D14*
%TO.C,H1*%
X80154400Y-82651200D03*
%TD*%
%TO.C,H5*%
X109032921Y-100283054D03*
%TD*%
D17*
%TO.C,JP2*%
X107750000Y-94525000D03*
D18*
X107750000Y-95795000D03*
X107750000Y-97065000D03*
%TD*%
%LPD*%
M02*
