%TF.GenerationSoftware,KiCad,Pcbnew,10.0.0*%
%TF.CreationDate,2026-06-13T21:44:00-06:00*%
%TF.ProjectId,Burnwing,4275726e-7769-46e6-972e-6b696361645f,Rev 1*%
%TF.SameCoordinates,Original*%
%TF.FileFunction,Copper,L2,Inr*%
%TF.FilePolarity,Positive*%
%FSLAX46Y46*%
G04 Gerber Fmt 4.6, Leading zero omitted, Abs format (unit mm)*
G04 Created by KiCad (PCBNEW 10.0.0) date 2026-06-13 21:44:00*
%MOMM*%
%LPD*%
G01*
G04 APERTURE LIST*
%TA.AperFunction,ComponentPad*%
%ADD10C,4.400000*%
%TD*%
%TA.AperFunction,ComponentPad*%
%ADD11O,2.000000X1.000000*%
%TD*%
%TA.AperFunction,ComponentPad*%
%ADD12R,1.000000X1.000000*%
%TD*%
%TA.AperFunction,ComponentPad*%
%ADD13O,1.000000X1.000000*%
%TD*%
%TA.AperFunction,ComponentPad*%
%ADD14C,1.700000*%
%TD*%
%TA.AperFunction,ComponentPad*%
%ADD15O,1.700000X1.700000*%
%TD*%
%TA.AperFunction,ViaPad*%
%ADD16C,0.800000*%
%TD*%
%TA.AperFunction,ViaPad*%
%ADD17C,0.600000*%
%TD*%
G04 APERTURE END LIST*
D10*
%TO.N,Net-(H2-Pad1)*%
%TO.C,H2*%
X125840000Y-82589900D03*
%TD*%
%TO.N,Net-(H4-Pad1)*%
%TO.C,H4*%
X80094400Y-100371200D03*
%TD*%
D11*
%TO.N,GND*%
%TO.C,J2*%
X83090400Y-87183000D03*
X78910400Y-87183000D03*
X83090400Y-95823000D03*
X78910400Y-95823000D03*
%TD*%
D12*
%TO.N,BURN_CTRL_1*%
%TO.C,JP1*%
X107750000Y-88450000D03*
D13*
%TO.N,Net-(Burn1-D)*%
X107750000Y-87180000D03*
%TO.N,Net-(JP1-B)*%
X107750000Y-85910000D03*
%TD*%
D14*
%TO.N,MICRO_BURN_1*%
%TO.C,J1*%
X96510000Y-81350000D03*
D15*
%TO.N,MICRO_BURN_2*%
X99050000Y-81350000D03*
%TD*%
D10*
%TO.N,Net-(H3-Pad1)*%
%TO.C,H3*%
X109040021Y-82501754D03*
%TD*%
%TO.N,Net-(H6-Pad1)*%
%TO.C,H6*%
X125832900Y-100371200D03*
%TD*%
%TO.N,Net-(H1-Pad1)*%
%TO.C,H1*%
X80154400Y-82651200D03*
%TD*%
%TO.N,Net-(H5-Pad1)*%
%TO.C,H5*%
X109032921Y-100283054D03*
%TD*%
D12*
%TO.N,BURN_CTRL_2*%
%TO.C,JP2*%
X107750000Y-94525000D03*
D13*
%TO.N,Net-(Burn2-D)*%
X107750000Y-95795000D03*
%TO.N,Net-(JP2-B)*%
X107750000Y-97065000D03*
%TD*%
D16*
%TO.N,VDC*%
X110600000Y-90500000D03*
X127480000Y-93385000D03*
X111850000Y-90500000D03*
X128180000Y-89660000D03*
X99912431Y-98448990D03*
X93552431Y-98438990D03*
X111850000Y-92500000D03*
X90450000Y-85050000D03*
X92050000Y-87700000D03*
D17*
X101450000Y-84900000D03*
D16*
X110600000Y-91500000D03*
X127480000Y-89660000D03*
X98600000Y-87750000D03*
X111850000Y-91500000D03*
X110600000Y-92500000D03*
X92050000Y-85000000D03*
X128180000Y-93385000D03*
X87900000Y-85000000D03*
%TO.N,GND*%
X130330000Y-90885000D03*
D17*
X93800000Y-85000000D03*
X103400000Y-85800000D03*
X120649207Y-100920686D03*
D16*
X88225000Y-92725000D03*
X85900000Y-98897500D03*
X128180000Y-94685000D03*
X88889981Y-80598833D03*
D17*
X120649207Y-81970686D03*
X112300000Y-98500000D03*
D16*
X81850000Y-85700000D03*
X81750000Y-97340000D03*
X127480000Y-94685000D03*
X88240000Y-93520000D03*
X101482431Y-99298990D03*
D17*
X101550000Y-90550000D03*
X102400000Y-85800000D03*
X107450000Y-89511254D03*
X93700000Y-90300000D03*
D16*
X85900000Y-100147500D03*
X89000000Y-96750000D03*
X88240000Y-91910000D03*
D17*
X94950000Y-90300000D03*
X112000000Y-87725000D03*
D16*
X82830000Y-80830000D03*
X86983631Y-80596702D03*
X125930000Y-85735000D03*
X127480000Y-88385000D03*
X128180000Y-88385000D03*
X130330000Y-88385000D03*
D17*
X112050000Y-84300000D03*
D16*
X94982431Y-99298990D03*
X130330000Y-93385000D03*
D17*
X112050000Y-95300000D03*
D16*
X90990000Y-80610000D03*
X130330000Y-89685000D03*
D17*
X114750000Y-84025000D03*
X94000000Y-80600000D03*
D16*
X130330000Y-92185000D03*
X88190000Y-94680000D03*
X125980000Y-97335000D03*
X130330000Y-94685000D03*
D17*
X113900000Y-98500000D03*
X100150000Y-90550000D03*
%TO.N,Net-(U1-ISET)*%
X91001000Y-94250000D03*
X90000000Y-99350000D03*
%TO.N,/CC1*%
X85313709Y-93100000D03*
X85000000Y-90250000D03*
%TO.N,/D+*%
X84700000Y-91153000D03*
X84700000Y-92353000D03*
%TO.N,BURN_CTRL_1*%
X121725000Y-90600000D03*
%TO.N,Net-(Burn1-D)*%
X96750000Y-91500000D03*
%TO.N,BURN_CTRL_2*%
X123825000Y-91150000D03*
%TD*%
%TA.AperFunction,Conductor*%
%TO.N,VDC*%
G36*
X112780934Y-80108924D02*
G01*
X112784881Y-80109019D01*
X112788636Y-80109168D01*
X113060308Y-80124165D01*
X113067720Y-80124799D01*
X113075220Y-80125671D01*
X113082610Y-80126758D01*
X113192655Y-80146352D01*
X113345063Y-80173489D01*
X113352394Y-80175025D01*
X113359691Y-80176785D01*
X113366921Y-80178762D01*
X113609789Y-80253164D01*
X113621798Y-80256843D01*
X113628896Y-80259254D01*
X113635924Y-80261882D01*
X113642843Y-80264711D01*
X113886469Y-80373020D01*
X113893179Y-80376250D01*
X113896609Y-80378030D01*
X113899843Y-80379709D01*
X113906388Y-80383362D01*
X113977808Y-80426114D01*
X114063281Y-80477278D01*
X114135124Y-80520283D01*
X114141434Y-80524325D01*
X114147631Y-80528564D01*
X114153656Y-80532957D01*
X114364196Y-80696510D01*
X114369960Y-80701275D01*
X114375600Y-80706231D01*
X114381083Y-80711351D01*
X114410992Y-80741028D01*
X114489493Y-80818921D01*
X114570304Y-80899105D01*
X114575469Y-80904550D01*
X114580452Y-80910132D01*
X114585273Y-80915873D01*
X114729106Y-81098083D01*
X114748763Y-81122984D01*
X114750448Y-81125118D01*
X114754912Y-81131141D01*
X114756066Y-81132799D01*
X114759189Y-81137290D01*
X114763270Y-81143554D01*
X114766781Y-81149315D01*
X114766787Y-81149336D01*
X114766792Y-81149334D01*
X114901972Y-81371227D01*
X114905674Y-81377738D01*
X114909169Y-81384342D01*
X114912483Y-81391090D01*
X115025009Y-81638985D01*
X115026501Y-81642410D01*
X115027917Y-81645797D01*
X115029318Y-81649296D01*
X115044405Y-81688709D01*
X115044508Y-81688909D01*
X116134518Y-84531787D01*
X116134543Y-84531852D01*
X116138672Y-84542640D01*
X116138682Y-84542692D01*
X116138691Y-84542689D01*
X116153908Y-84582443D01*
X116153908Y-84582445D01*
X116153915Y-84582461D01*
X116173383Y-84633344D01*
X116178954Y-84702991D01*
X116145986Y-84764594D01*
X116084947Y-84798594D01*
X116057723Y-84801654D01*
X114855265Y-84803136D01*
X114855265Y-84803137D01*
X114844155Y-90347604D01*
X114844156Y-90347604D01*
X114844156Y-90347605D01*
X119946939Y-90352121D01*
X119946939Y-90352120D01*
X119948901Y-88312525D01*
X126929500Y-88312525D01*
X126929500Y-88457475D01*
X126930888Y-88462654D01*
X126967013Y-88597477D01*
X126967017Y-88597488D01*
X126967018Y-88597489D01*
X127037631Y-88719795D01*
X127039489Y-88723013D01*
X127141985Y-88825509D01*
X127142674Y-88826005D01*
X127145178Y-88827353D01*
X127264069Y-88895995D01*
X127267087Y-88897869D01*
X127267514Y-88897983D01*
X127267515Y-88897984D01*
X127407525Y-88935500D01*
X127407528Y-88935500D01*
X127552472Y-88935500D01*
X127552475Y-88935500D01*
X127692485Y-88897984D01*
X127752565Y-88863295D01*
X127785326Y-88850180D01*
X127803615Y-88845744D01*
X127867779Y-88847272D01*
X127877774Y-88850207D01*
X127904836Y-88861796D01*
X127967515Y-88897984D01*
X128107525Y-88935500D01*
X128107528Y-88935500D01*
X128252472Y-88935500D01*
X128252475Y-88935500D01*
X128392485Y-88897984D01*
X128518015Y-88825509D01*
X128620509Y-88723015D01*
X128692984Y-88597485D01*
X128730500Y-88457475D01*
X128730500Y-88312525D01*
X129779500Y-88312525D01*
X129779500Y-88457475D01*
X129780888Y-88462654D01*
X129817013Y-88597477D01*
X129817017Y-88597488D01*
X129817018Y-88597489D01*
X129887631Y-88719795D01*
X129889489Y-88723013D01*
X129991985Y-88825509D01*
X129992674Y-88826005D01*
X129995178Y-88827353D01*
X130114069Y-88895995D01*
X130117086Y-88897869D01*
X130117514Y-88897983D01*
X130117515Y-88897984D01*
X130164636Y-88910609D01*
X130196738Y-88929240D01*
X130214102Y-88935245D01*
X130220000Y-88942741D01*
X130220622Y-88943102D01*
X130227849Y-88950395D01*
X130226822Y-88951411D01*
X130257307Y-88990154D01*
X130263968Y-89059706D01*
X130237676Y-89115396D01*
X130237284Y-89115869D01*
X130193338Y-89149532D01*
X130191298Y-89150464D01*
X130171865Y-89157451D01*
X130127518Y-89169334D01*
X130127519Y-89169335D01*
X130117510Y-89172017D01*
X130117507Y-89172018D01*
X129991992Y-89244485D01*
X129991984Y-89244490D01*
X129991968Y-89244505D01*
X129889505Y-89346968D01*
X129889490Y-89346984D01*
X129889485Y-89346992D01*
X129817017Y-89472509D01*
X129816989Y-89472578D01*
X129816748Y-89473511D01*
X129779500Y-89612525D01*
X129779500Y-89757474D01*
X129814878Y-89889509D01*
X129817015Y-89897483D01*
X129817018Y-89897491D01*
X129887631Y-90019795D01*
X129889489Y-90023013D01*
X129889491Y-90023015D01*
X129991985Y-90125509D01*
X129991986Y-90125510D01*
X129991988Y-90125511D01*
X130008731Y-90135177D01*
X130025478Y-90144846D01*
X130066794Y-90168700D01*
X130066796Y-90168702D01*
X130094529Y-90190511D01*
X130104111Y-90200561D01*
X130112280Y-90216406D01*
X130115008Y-90219267D01*
X130115755Y-90223148D01*
X130136126Y-90262661D01*
X130129485Y-90332214D01*
X130129482Y-90332220D01*
X130128877Y-90333731D01*
X130094972Y-90381345D01*
X130091185Y-90384627D01*
X130071976Y-90398308D01*
X129991981Y-90444493D01*
X129991976Y-90444497D01*
X129889505Y-90546968D01*
X129889490Y-90546984D01*
X129889485Y-90546992D01*
X129817017Y-90672509D01*
X129816989Y-90672578D01*
X129816748Y-90673511D01*
X129785666Y-90789513D01*
X129779500Y-90812525D01*
X129779500Y-90957475D01*
X129816000Y-91093693D01*
X129817017Y-91097488D01*
X129883307Y-91212306D01*
X129887635Y-91219801D01*
X129887637Y-91219805D01*
X129889488Y-91223012D01*
X129991985Y-91325509D01*
X129992674Y-91326005D01*
X129995178Y-91327353D01*
X130114069Y-91395995D01*
X130117086Y-91397869D01*
X130117514Y-91397983D01*
X130117515Y-91397984D01*
X130164636Y-91410609D01*
X130196738Y-91429240D01*
X130214102Y-91435245D01*
X130220000Y-91442741D01*
X130220622Y-91443102D01*
X130227849Y-91450395D01*
X130226822Y-91451411D01*
X130257307Y-91490154D01*
X130263968Y-91559706D01*
X130237676Y-91615396D01*
X130237284Y-91615869D01*
X130193338Y-91649532D01*
X130191298Y-91650464D01*
X130171865Y-91657451D01*
X130127518Y-91669334D01*
X130127519Y-91669335D01*
X130117510Y-91672017D01*
X130117507Y-91672018D01*
X129991992Y-91744485D01*
X129991984Y-91744490D01*
X129991968Y-91744505D01*
X129889505Y-91846968D01*
X129889490Y-91846984D01*
X129889485Y-91846992D01*
X129817017Y-91972509D01*
X129816989Y-91972578D01*
X129816748Y-91973511D01*
X129791150Y-92069048D01*
X129779500Y-92112525D01*
X129779500Y-92257475D01*
X129794193Y-92312308D01*
X129811884Y-92378333D01*
X129817017Y-92397488D01*
X129817018Y-92397491D01*
X129887631Y-92519795D01*
X129889489Y-92523013D01*
X129889491Y-92523015D01*
X129991985Y-92625509D01*
X130062000Y-92665932D01*
X130065906Y-92668187D01*
X130066796Y-92668701D01*
X130066799Y-92668703D01*
X130066812Y-92668711D01*
X130066821Y-92668721D01*
X130094527Y-92690509D01*
X130104106Y-92700556D01*
X130112289Y-92716426D01*
X130115017Y-92719288D01*
X130115763Y-92723163D01*
X130136125Y-92762654D01*
X130129487Y-92832208D01*
X130129482Y-92832220D01*
X130128877Y-92833731D01*
X130094972Y-92881345D01*
X130091185Y-92884627D01*
X130071977Y-92898306D01*
X130045191Y-92913772D01*
X129991981Y-92944493D01*
X129991976Y-92944497D01*
X129889505Y-93046968D01*
X129889490Y-93046984D01*
X129889485Y-93046992D01*
X129817017Y-93172509D01*
X129816989Y-93172578D01*
X129816748Y-93173511D01*
X129780843Y-93307512D01*
X129779500Y-93312525D01*
X129779500Y-93457475D01*
X129815673Y-93592472D01*
X129815672Y-93592472D01*
X129817014Y-93597480D01*
X129817018Y-93597490D01*
X129887631Y-93719795D01*
X129889489Y-93723013D01*
X129991985Y-93825509D01*
X129992674Y-93826005D01*
X129995178Y-93827353D01*
X130114069Y-93895995D01*
X130117086Y-93897869D01*
X130117514Y-93897983D01*
X130117515Y-93897984D01*
X130164636Y-93910609D01*
X130196718Y-93929232D01*
X130214088Y-93935236D01*
X130219998Y-93942744D01*
X130220634Y-93943114D01*
X130227860Y-93950408D01*
X130226831Y-93951426D01*
X130257301Y-93990139D01*
X130263971Y-94059690D01*
X130237676Y-94115396D01*
X130237284Y-94115869D01*
X130193363Y-94149520D01*
X130191322Y-94150453D01*
X130171864Y-94157452D01*
X130136176Y-94167014D01*
X130136177Y-94167015D01*
X130117510Y-94172017D01*
X130117507Y-94172018D01*
X129991992Y-94244485D01*
X129991987Y-94244489D01*
X129991968Y-94244505D01*
X129889505Y-94346968D01*
X129889490Y-94346984D01*
X129889485Y-94346992D01*
X129817017Y-94472509D01*
X129816989Y-94472578D01*
X129816748Y-94473511D01*
X129789143Y-94576536D01*
X129779500Y-94612525D01*
X129779500Y-94757475D01*
X129783793Y-94773495D01*
X129812384Y-94880199D01*
X129817017Y-94897488D01*
X129817018Y-94897491D01*
X129887631Y-95019795D01*
X129889489Y-95023013D01*
X129991985Y-95125509D01*
X129992674Y-95126005D01*
X129995178Y-95127353D01*
X130114069Y-95195995D01*
X130117087Y-95197869D01*
X130117514Y-95197983D01*
X130117515Y-95197984D01*
X130257525Y-95235500D01*
X130257528Y-95235500D01*
X130402472Y-95235500D01*
X130402475Y-95235500D01*
X130542485Y-95197984D01*
X130668015Y-95125509D01*
X130770509Y-95023015D01*
X130842984Y-94897485D01*
X130880500Y-94757475D01*
X130880500Y-94612525D01*
X130842984Y-94472515D01*
X130840097Y-94467515D01*
X130833218Y-94455601D01*
X130770513Y-94346992D01*
X130770508Y-94346984D01*
X130770493Y-94346968D01*
X130668030Y-94244505D01*
X130668021Y-94244497D01*
X130668017Y-94244493D01*
X130668011Y-94244488D01*
X130542488Y-94172017D01*
X130542489Y-94172017D01*
X130536157Y-94170320D01*
X130485866Y-94156844D01*
X130476891Y-94152836D01*
X130473689Y-94150108D01*
X130462914Y-94145494D01*
X130453254Y-94139606D01*
X130425433Y-94109000D01*
X130423704Y-94107527D01*
X130423509Y-94106883D01*
X130406258Y-94087905D01*
X130394673Y-94019002D01*
X130422140Y-93954824D01*
X130422535Y-93954345D01*
X130466671Y-93920461D01*
X130468732Y-93919520D01*
X130488126Y-93912548D01*
X130542485Y-93897984D01*
X130668015Y-93825509D01*
X130770509Y-93723015D01*
X130842984Y-93597485D01*
X130880500Y-93457475D01*
X130880500Y-93312525D01*
X130842984Y-93172515D01*
X130835359Y-93159309D01*
X130770511Y-93046988D01*
X130770506Y-93046982D01*
X130668017Y-92944493D01*
X130668015Y-92944491D01*
X130621346Y-92917546D01*
X130591307Y-92900203D01*
X130589420Y-92899022D01*
X130587360Y-92896701D01*
X130565466Y-92879484D01*
X130555889Y-92869440D01*
X130545811Y-92849892D01*
X130543038Y-92846768D01*
X130542533Y-92843534D01*
X130523873Y-92807338D01*
X130530510Y-92737793D01*
X130531117Y-92736279D01*
X130565030Y-92688650D01*
X130568827Y-92685360D01*
X130588024Y-92671691D01*
X130594082Y-92668194D01*
X130668015Y-92625509D01*
X130770509Y-92523015D01*
X130842984Y-92397485D01*
X130880500Y-92257475D01*
X130880500Y-92112525D01*
X130842984Y-91972515D01*
X130812548Y-91919799D01*
X130770511Y-91846988D01*
X130770506Y-91846982D01*
X130770493Y-91846968D01*
X130668030Y-91744505D01*
X130668014Y-91744490D01*
X130668011Y-91744488D01*
X130619803Y-91716655D01*
X130542488Y-91672017D01*
X130542489Y-91672017D01*
X130536157Y-91670320D01*
X130485866Y-91656844D01*
X130476891Y-91652836D01*
X130473689Y-91650108D01*
X130462914Y-91645494D01*
X130453254Y-91639606D01*
X130425433Y-91609000D01*
X130423704Y-91607527D01*
X130423509Y-91606883D01*
X130406258Y-91587905D01*
X130394673Y-91519002D01*
X130422140Y-91454824D01*
X130422535Y-91454345D01*
X130466671Y-91420461D01*
X130468732Y-91419520D01*
X130488126Y-91412548D01*
X130542485Y-91397984D01*
X130668015Y-91325509D01*
X130770509Y-91223015D01*
X130842984Y-91097485D01*
X130880500Y-90957475D01*
X130880500Y-90812525D01*
X130842984Y-90672515D01*
X130841415Y-90669798D01*
X130775202Y-90555113D01*
X130770513Y-90546991D01*
X130770508Y-90546984D01*
X130770503Y-90546979D01*
X130726249Y-90502725D01*
X130668017Y-90444493D01*
X130668015Y-90444491D01*
X130591311Y-90400206D01*
X130589420Y-90399022D01*
X130587362Y-90396703D01*
X130565466Y-90379484D01*
X130555889Y-90369440D01*
X130545811Y-90349892D01*
X130543038Y-90346768D01*
X130542533Y-90343534D01*
X130523873Y-90307338D01*
X130530510Y-90237793D01*
X130531117Y-90236279D01*
X130565038Y-90188644D01*
X130568828Y-90185359D01*
X130588023Y-90171693D01*
X130601293Y-90164030D01*
X130626461Y-90149500D01*
X130668015Y-90125509D01*
X130770509Y-90023015D01*
X130842984Y-89897485D01*
X130880500Y-89757475D01*
X130880500Y-89612525D01*
X130842984Y-89472515D01*
X130818736Y-89430517D01*
X130770511Y-89346988D01*
X130770506Y-89346982D01*
X130770493Y-89346968D01*
X130668030Y-89244505D01*
X130668014Y-89244490D01*
X130668011Y-89244488D01*
X130619803Y-89216655D01*
X130542488Y-89172017D01*
X130542489Y-89172017D01*
X130536157Y-89170320D01*
X130485866Y-89156844D01*
X130476891Y-89152836D01*
X130473689Y-89150108D01*
X130462914Y-89145494D01*
X130453254Y-89139606D01*
X130425433Y-89109000D01*
X130423704Y-89107527D01*
X130423509Y-89106883D01*
X130406258Y-89087905D01*
X130394673Y-89019002D01*
X130422140Y-88954824D01*
X130422535Y-88954345D01*
X130466671Y-88920461D01*
X130468732Y-88919520D01*
X130488126Y-88912548D01*
X130542485Y-88897984D01*
X130668015Y-88825509D01*
X130770509Y-88723015D01*
X130842984Y-88597485D01*
X130880500Y-88457475D01*
X130880500Y-88312525D01*
X130842984Y-88172515D01*
X130792739Y-88085489D01*
X130770511Y-88046988D01*
X130770506Y-88046982D01*
X130770502Y-88046978D01*
X130770493Y-88046968D01*
X130668030Y-87944505D01*
X130668014Y-87944490D01*
X130668006Y-87944485D01*
X130630323Y-87922729D01*
X130614242Y-87913444D01*
X130585808Y-87883624D01*
X130531007Y-87868939D01*
X130531007Y-87868940D01*
X130456989Y-87849107D01*
X130402475Y-87834500D01*
X130402474Y-87834500D01*
X130257525Y-87834500D01*
X130128994Y-87868939D01*
X130128993Y-87868940D01*
X130121338Y-87870991D01*
X130117510Y-87872017D01*
X129991991Y-87944485D01*
X129991984Y-87944490D01*
X129991968Y-87944505D01*
X129889505Y-88046968D01*
X129889490Y-88046984D01*
X129889485Y-88046992D01*
X129818287Y-88170308D01*
X129818286Y-88170312D01*
X129817017Y-88172511D01*
X129817016Y-88172515D01*
X129779500Y-88312525D01*
X128730500Y-88312525D01*
X128692984Y-88172515D01*
X128642739Y-88085489D01*
X128620511Y-88046988D01*
X128620506Y-88046982D01*
X128620502Y-88046978D01*
X128620493Y-88046968D01*
X128518030Y-87944505D01*
X128518014Y-87944490D01*
X128518006Y-87944485D01*
X128480323Y-87922729D01*
X128464242Y-87913444D01*
X128435808Y-87883624D01*
X128381007Y-87868939D01*
X128381007Y-87868940D01*
X128306989Y-87849107D01*
X128252475Y-87834500D01*
X128252474Y-87834500D01*
X128107525Y-87834500D01*
X127978994Y-87868939D01*
X127978993Y-87868940D01*
X127967511Y-87872017D01*
X127967508Y-87872018D01*
X127907435Y-87906701D01*
X127874672Y-87919817D01*
X127856392Y-87924252D01*
X127792233Y-87922729D01*
X127791647Y-87922557D01*
X127732865Y-87884788D01*
X127731848Y-87882563D01*
X127681007Y-87868939D01*
X127681007Y-87868940D01*
X127606989Y-87849107D01*
X127552475Y-87834500D01*
X127552474Y-87834500D01*
X127407525Y-87834500D01*
X127278994Y-87868939D01*
X127278993Y-87868940D01*
X127271338Y-87870991D01*
X127267510Y-87872017D01*
X127141991Y-87944485D01*
X127141984Y-87944490D01*
X127141968Y-87944505D01*
X127039505Y-88046968D01*
X127039490Y-88046984D01*
X127039485Y-88046992D01*
X126968287Y-88170308D01*
X126968286Y-88170312D01*
X126967017Y-88172511D01*
X126967016Y-88172515D01*
X126929500Y-88312525D01*
X119948901Y-88312525D01*
X119948909Y-88304279D01*
X119949446Y-87745978D01*
X119951551Y-85557525D01*
X121302139Y-85557525D01*
X121302139Y-85702475D01*
X121306905Y-85720260D01*
X121330273Y-85807474D01*
X121339654Y-85842484D01*
X121339657Y-85842491D01*
X121410270Y-85964795D01*
X121412128Y-85968013D01*
X121514624Y-86070509D01*
X121515313Y-86071005D01*
X121517817Y-86072353D01*
X121636708Y-86140995D01*
X121639726Y-86142869D01*
X121640153Y-86142983D01*
X121640154Y-86142984D01*
X121780164Y-86180500D01*
X121780167Y-86180500D01*
X121925111Y-86180500D01*
X121925114Y-86180500D01*
X122065124Y-86142984D01*
X122190654Y-86070509D01*
X122293148Y-85968015D01*
X122365623Y-85842485D01*
X122403139Y-85702475D01*
X122403139Y-85557525D01*
X123152139Y-85557525D01*
X123152139Y-85702475D01*
X123156905Y-85720260D01*
X123180273Y-85807474D01*
X123189654Y-85842484D01*
X123189657Y-85842491D01*
X123260270Y-85964795D01*
X123262128Y-85968013D01*
X123364624Y-86070509D01*
X123365313Y-86071005D01*
X123367817Y-86072353D01*
X123486708Y-86140995D01*
X123489726Y-86142869D01*
X123490153Y-86142983D01*
X123490154Y-86142984D01*
X123630164Y-86180500D01*
X123630167Y-86180500D01*
X123775111Y-86180500D01*
X123775114Y-86180500D01*
X123915124Y-86142984D01*
X124040654Y-86070509D01*
X124143148Y-85968015D01*
X124215623Y-85842485D01*
X124253139Y-85702475D01*
X124253139Y-85662525D01*
X125379500Y-85662525D01*
X125379500Y-85807474D01*
X125417013Y-85947477D01*
X125417016Y-85947485D01*
X125417017Y-85947488D01*
X125454273Y-86012017D01*
X125487631Y-86069795D01*
X125489489Y-86073013D01*
X125591985Y-86175509D01*
X125592674Y-86176005D01*
X125595178Y-86177353D01*
X125714069Y-86245995D01*
X125717087Y-86247869D01*
X125717514Y-86247983D01*
X125717515Y-86247984D01*
X125857525Y-86285500D01*
X125857528Y-86285500D01*
X126002472Y-86285500D01*
X126002475Y-86285500D01*
X126142485Y-86247984D01*
X126268015Y-86175509D01*
X126370509Y-86073015D01*
X126442984Y-85947485D01*
X126480500Y-85807475D01*
X126480500Y-85662525D01*
X126442984Y-85522515D01*
X126427289Y-85495331D01*
X126370511Y-85396988D01*
X126370506Y-85396982D01*
X126370493Y-85396968D01*
X126268030Y-85294505D01*
X126268014Y-85294490D01*
X126268011Y-85294488D01*
X126262837Y-85291501D01*
X126142488Y-85222017D01*
X126142489Y-85222017D01*
X126023217Y-85190058D01*
X126016715Y-85188315D01*
X126016708Y-85188313D01*
X126014361Y-85187684D01*
X126014358Y-85187684D01*
X126002475Y-85184500D01*
X125857525Y-85184500D01*
X125717515Y-85222016D01*
X125712364Y-85224988D01*
X125712362Y-85224989D01*
X125712362Y-85224990D01*
X125591992Y-85294485D01*
X125591984Y-85294490D01*
X125591968Y-85294505D01*
X125489505Y-85396968D01*
X125489490Y-85396984D01*
X125489485Y-85396992D01*
X125417017Y-85522509D01*
X125416989Y-85522578D01*
X125416748Y-85523511D01*
X125379500Y-85662525D01*
X124253139Y-85662525D01*
X124253139Y-85557525D01*
X124215623Y-85417515D01*
X124215621Y-85417512D01*
X124215622Y-85417512D01*
X124208239Y-85404725D01*
X124208238Y-85404724D01*
X124143152Y-85291991D01*
X124143147Y-85291984D01*
X124143132Y-85291968D01*
X124040669Y-85189505D01*
X124040653Y-85189490D01*
X124040650Y-85189488D01*
X124036368Y-85187016D01*
X123986879Y-85158443D01*
X123958446Y-85128623D01*
X123868747Y-85104589D01*
X123821930Y-85092044D01*
X123775114Y-85079500D01*
X123775113Y-85079500D01*
X123630164Y-85079500D01*
X123536531Y-85104589D01*
X123536530Y-85104588D01*
X123490151Y-85117016D01*
X123490146Y-85117018D01*
X123364631Y-85189485D01*
X123364623Y-85189490D01*
X123364607Y-85189505D01*
X123262144Y-85291968D01*
X123262129Y-85291984D01*
X123262124Y-85291992D01*
X123189656Y-85417510D01*
X123189655Y-85417515D01*
X123189043Y-85419799D01*
X123152139Y-85557525D01*
X122403139Y-85557525D01*
X122365623Y-85417515D01*
X122358239Y-85404726D01*
X122294603Y-85294505D01*
X122293152Y-85291991D01*
X122293147Y-85291984D01*
X122293132Y-85291968D01*
X122190669Y-85189505D01*
X122190653Y-85189490D01*
X122190650Y-85189488D01*
X122186368Y-85187016D01*
X122136879Y-85158443D01*
X122108446Y-85128623D01*
X122018747Y-85104589D01*
X121971930Y-85092044D01*
X121925114Y-85079500D01*
X121925113Y-85079500D01*
X121780164Y-85079500D01*
X121686531Y-85104589D01*
X121686530Y-85104588D01*
X121640151Y-85117016D01*
X121640146Y-85117018D01*
X121514631Y-85189485D01*
X121514623Y-85189490D01*
X121514607Y-85189505D01*
X121412144Y-85291968D01*
X121412129Y-85291984D01*
X121412124Y-85291992D01*
X121339656Y-85417510D01*
X121339655Y-85417515D01*
X121339043Y-85419799D01*
X121302139Y-85557525D01*
X119951551Y-85557525D01*
X119952283Y-84796854D01*
X119952282Y-84796854D01*
X118874497Y-84798182D01*
X118807433Y-84778580D01*
X118761613Y-84725832D01*
X118751584Y-84656686D01*
X118758553Y-84629816D01*
X118776294Y-84583522D01*
X118776369Y-84583377D01*
X118780987Y-84571309D01*
X118780989Y-84571308D01*
X118785503Y-84559513D01*
X118803192Y-84528018D01*
X118803518Y-84527595D01*
X118803873Y-84525467D01*
X118803752Y-84513320D01*
X118807129Y-84503096D01*
X118807209Y-84502883D01*
X118808911Y-84498447D01*
X118808950Y-84498291D01*
X118810189Y-84495027D01*
X118810209Y-84494999D01*
X118810327Y-84494665D01*
X119799235Y-81911377D01*
X120198707Y-81911377D01*
X120198707Y-82029995D01*
X120229408Y-82144572D01*
X120288718Y-82247299D01*
X120372594Y-82331175D01*
X120475321Y-82390485D01*
X120589898Y-82421186D01*
X120589901Y-82421186D01*
X120708513Y-82421186D01*
X120708516Y-82421186D01*
X120823093Y-82390485D01*
X120925820Y-82331175D01*
X121009696Y-82247299D01*
X121069006Y-82144572D01*
X121099707Y-82029995D01*
X121099707Y-81911377D01*
X121069006Y-81796800D01*
X121009696Y-81694073D01*
X120925820Y-81610197D01*
X120823093Y-81550887D01*
X120708516Y-81520186D01*
X120708513Y-81520186D01*
X120589898Y-81520186D01*
X120498935Y-81544559D01*
X120498930Y-81544560D01*
X120475321Y-81550887D01*
X120475319Y-81550887D01*
X120475319Y-81550888D01*
X120454154Y-81563107D01*
X120454146Y-81563111D01*
X120372593Y-81610197D01*
X120372585Y-81610203D01*
X120288724Y-81694064D01*
X120288720Y-81694069D01*
X120259551Y-81744591D01*
X120229408Y-81796800D01*
X120198707Y-81911377D01*
X119799235Y-81911377D01*
X119898722Y-81651491D01*
X119900080Y-81648100D01*
X119901553Y-81644577D01*
X119903008Y-81641238D01*
X120015070Y-81394543D01*
X120018330Y-81387907D01*
X120021847Y-81381259D01*
X120025500Y-81374832D01*
X120163459Y-81148214D01*
X120167505Y-81141995D01*
X120171780Y-81135840D01*
X120176186Y-81129888D01*
X120340404Y-80921458D01*
X120345152Y-80915792D01*
X120350141Y-80910189D01*
X120355225Y-80904814D01*
X120543304Y-80717627D01*
X120548713Y-80712559D01*
X120554308Y-80707625D01*
X120560027Y-80702879D01*
X120769219Y-80539666D01*
X120775209Y-80535276D01*
X120781351Y-80531054D01*
X120787581Y-80527040D01*
X121014896Y-80390134D01*
X121021341Y-80386512D01*
X121027963Y-80383049D01*
X121034634Y-80379811D01*
X121276745Y-80271217D01*
X121283615Y-80268383D01*
X121290606Y-80265741D01*
X121297634Y-80263324D01*
X121551000Y-80184626D01*
X121558139Y-80182643D01*
X121565417Y-80180855D01*
X121572678Y-80179301D01*
X121833669Y-80131621D01*
X121841000Y-80130508D01*
X121848431Y-80129608D01*
X121855822Y-80128939D01*
X122126030Y-80112644D01*
X122129815Y-80112475D01*
X122133815Y-80112361D01*
X122137617Y-80112312D01*
X125017293Y-80121014D01*
X125056323Y-80132602D01*
X125087131Y-80139931D01*
X125110903Y-80164640D01*
X125112638Y-80166187D01*
X125114105Y-80167969D01*
X125135572Y-80190282D01*
X125149102Y-80258829D01*
X125123424Y-80323809D01*
X125097990Y-80348278D01*
X125093861Y-80351246D01*
X125068939Y-80365121D01*
X124798166Y-80477278D01*
X124531332Y-80631336D01*
X124531316Y-80631347D01*
X124286891Y-80818900D01*
X124286876Y-80818914D01*
X124286868Y-80818921D01*
X124069021Y-81036768D01*
X124069014Y-81036776D01*
X124069000Y-81036791D01*
X123881447Y-81281216D01*
X123881436Y-81281232D01*
X123727378Y-81548066D01*
X123609462Y-81832741D01*
X123529716Y-82130358D01*
X123489503Y-82435814D01*
X123489500Y-82435838D01*
X123489500Y-82743960D01*
X123489503Y-82743984D01*
X123529716Y-83049440D01*
X123609462Y-83347057D01*
X123727377Y-83631729D01*
X123727386Y-83631746D01*
X123794436Y-83747880D01*
X123794500Y-83747989D01*
X123794728Y-83748384D01*
X123881438Y-83898570D01*
X123881440Y-83898573D01*
X123881441Y-83898574D01*
X123887344Y-83906268D01*
X123887346Y-83906270D01*
X124069000Y-84143007D01*
X124069004Y-84143012D01*
X124069007Y-84143015D01*
X124069013Y-84143022D01*
X124286877Y-84360886D01*
X124286884Y-84360892D01*
X124286887Y-84360894D01*
X124286891Y-84360898D01*
X124366772Y-84422192D01*
X124531325Y-84548458D01*
X124531337Y-84548467D01*
X124689030Y-84639510D01*
X124689032Y-84639511D01*
X124794724Y-84700533D01*
X124796460Y-84701612D01*
X124797882Y-84702401D01*
X124798156Y-84702514D01*
X124798162Y-84702518D01*
X124798167Y-84702520D01*
X124798170Y-84702522D01*
X125082836Y-84820435D01*
X125380456Y-84900182D01*
X125685940Y-84940400D01*
X125685947Y-84940400D01*
X125825827Y-84940400D01*
X125994060Y-84940400D01*
X126299544Y-84900182D01*
X126597164Y-84820435D01*
X126881830Y-84702522D01*
X127148670Y-84548462D01*
X127393117Y-84360891D01*
X127610991Y-84143017D01*
X127798562Y-83898570D01*
X127917226Y-83693037D01*
X127952622Y-83631731D01*
X127952623Y-83631727D01*
X128070535Y-83347064D01*
X128087367Y-83284244D01*
X128101256Y-83251809D01*
X128107146Y-83242145D01*
X128158844Y-83195150D01*
X128227746Y-83183563D01*
X128291973Y-83211066D01*
X128294062Y-83212791D01*
X128295736Y-83214174D01*
X128325949Y-83250990D01*
X128331722Y-83261711D01*
X128332991Y-83264134D01*
X128422509Y-83439780D01*
X128426253Y-83447126D01*
X128426445Y-83447503D01*
X128426955Y-83448194D01*
X128557870Y-83628343D01*
X128715991Y-83786433D01*
X128716459Y-83786817D01*
X128717884Y-83787807D01*
X128734691Y-83800016D01*
X128896889Y-83917836D01*
X128896891Y-83917837D01*
X128896894Y-83917839D01*
X128939438Y-83939511D01*
X129096120Y-84019326D01*
X129308765Y-84088397D01*
X129308770Y-84088399D01*
X129308771Y-84088399D01*
X129308774Y-84088400D01*
X129310557Y-84088682D01*
X129311195Y-84088865D01*
X129315508Y-84089696D01*
X129318401Y-84089923D01*
X129529615Y-84123357D01*
X129614754Y-84123349D01*
X129617836Y-84124476D01*
X129644582Y-84123346D01*
X129675761Y-84123344D01*
X129675761Y-84123343D01*
X129676010Y-84123343D01*
X129678566Y-84123343D01*
X129678567Y-84123342D01*
X129690422Y-84123342D01*
X129701225Y-84120954D01*
X130168266Y-84101234D01*
X130176268Y-84101156D01*
X130184270Y-84101336D01*
X130192248Y-84101773D01*
X130357476Y-84116218D01*
X130368171Y-84117626D01*
X130378810Y-84119501D01*
X130389334Y-84121833D01*
X130546454Y-84163921D01*
X130556735Y-84167161D01*
X130566896Y-84170858D01*
X130576871Y-84174990D01*
X130663961Y-84215592D01*
X130724277Y-84243712D01*
X130733863Y-84248700D01*
X130743210Y-84254096D01*
X130752322Y-84259900D01*
X130885558Y-84353175D01*
X130894139Y-84359758D01*
X130895484Y-84360886D01*
X130902384Y-84366675D01*
X130910357Y-84373980D01*
X131025373Y-84488972D01*
X131032678Y-84496942D01*
X131033732Y-84498198D01*
X131039606Y-84505197D01*
X131046191Y-84513776D01*
X131134253Y-84639511D01*
X131134254Y-84639513D01*
X131134255Y-84639514D01*
X131139488Y-84646986D01*
X131145305Y-84656116D01*
X131150699Y-84665458D01*
X131155690Y-84675043D01*
X131224436Y-84822426D01*
X131228563Y-84832386D01*
X131232258Y-84842533D01*
X131235510Y-84852843D01*
X131277624Y-85009933D01*
X131279967Y-85020500D01*
X131281838Y-85031106D01*
X131283251Y-85041824D01*
X131298159Y-85211957D01*
X131298511Y-85217329D01*
X131298749Y-85222765D01*
X131298867Y-85228141D01*
X131300129Y-97545657D01*
X131300129Y-97545661D01*
X131300131Y-97571904D01*
X131300013Y-97577311D01*
X131299778Y-97582704D01*
X131299425Y-97588099D01*
X131284563Y-97758207D01*
X131283155Y-97768912D01*
X131281280Y-97779557D01*
X131278942Y-97790109D01*
X131236868Y-97947202D01*
X131233617Y-97957518D01*
X131229930Y-97967652D01*
X131225791Y-97977648D01*
X131157084Y-98125034D01*
X131152088Y-98134634D01*
X131146689Y-98143987D01*
X131140879Y-98153108D01*
X131047627Y-98286315D01*
X131041041Y-98294900D01*
X131034102Y-98303171D01*
X131026796Y-98311145D01*
X130911829Y-98426135D01*
X130903861Y-98433438D01*
X130895592Y-98440379D01*
X130887003Y-98446972D01*
X130753807Y-98540255D01*
X130744683Y-98546069D01*
X130735337Y-98551466D01*
X130725743Y-98556461D01*
X130578373Y-98625197D01*
X130568391Y-98629334D01*
X130563815Y-98631000D01*
X130558247Y-98633027D01*
X130547929Y-98636282D01*
X130390856Y-98678383D01*
X130380294Y-98680726D01*
X130369659Y-98682602D01*
X130358936Y-98684014D01*
X130187893Y-98698993D01*
X130185054Y-98699209D01*
X130183193Y-98699329D01*
X130177880Y-98699557D01*
X130176299Y-98699591D01*
X130173640Y-98699620D01*
X130143600Y-98699621D01*
X130143593Y-98699622D01*
X130133622Y-98700959D01*
X130122377Y-98701949D01*
X129643607Y-98722164D01*
X129641006Y-98722246D01*
X129640241Y-98722262D01*
X129638436Y-98722300D01*
X129635841Y-98722328D01*
X129531122Y-98722336D01*
X129324031Y-98755155D01*
X129324028Y-98755155D01*
X129310276Y-98757335D01*
X129310274Y-98757335D01*
X129310273Y-98757336D01*
X129300358Y-98760558D01*
X129300347Y-98760561D01*
X129250968Y-98776611D01*
X129250966Y-98776612D01*
X129116315Y-98820376D01*
X129096428Y-98823526D01*
X129080137Y-98835364D01*
X128903241Y-98925517D01*
X128903231Y-98925522D01*
X128898418Y-98927976D01*
X128898414Y-98927978D01*
X128898410Y-98927981D01*
X128893811Y-98931322D01*
X128893798Y-98931331D01*
X128717545Y-99059414D01*
X128717543Y-99059415D01*
X128717543Y-99059416D01*
X128559450Y-99217539D01*
X128559447Y-99217542D01*
X128559445Y-99217545D01*
X128559444Y-99217545D01*
X128428053Y-99398428D01*
X128428051Y-99398430D01*
X128428045Y-99398441D01*
X128326558Y-99597671D01*
X128314825Y-99633797D01*
X128284488Y-99683254D01*
X128276558Y-99691169D01*
X128275988Y-99690598D01*
X128268993Y-99700827D01*
X128204632Y-99728019D01*
X128135787Y-99716098D01*
X128106654Y-99696174D01*
X128105106Y-99694753D01*
X128069185Y-99635497D01*
X128068947Y-99634608D01*
X128063435Y-99614036D01*
X127945522Y-99329370D01*
X127945521Y-99329369D01*
X127945405Y-99329088D01*
X127944612Y-99327660D01*
X127943532Y-99325922D01*
X127880955Y-99217536D01*
X127880954Y-99217535D01*
X127791467Y-99062537D01*
X127790109Y-99060767D01*
X127660905Y-98892385D01*
X127658426Y-98889154D01*
X127603898Y-98818091D01*
X127603894Y-98818087D01*
X127603892Y-98818084D01*
X127603886Y-98818077D01*
X127386022Y-98600213D01*
X127386015Y-98600207D01*
X127386012Y-98600204D01*
X127386007Y-98600200D01*
X127149170Y-98418469D01*
X127149166Y-98418466D01*
X127141574Y-98412641D01*
X127141573Y-98412640D01*
X127141570Y-98412638D01*
X127027882Y-98347000D01*
X127027466Y-98346759D01*
X127027412Y-98346728D01*
X126959143Y-98307313D01*
X126874737Y-98258581D01*
X126874726Y-98258576D01*
X126590062Y-98140664D01*
X126292445Y-98060918D01*
X126292442Y-98060917D01*
X126292440Y-98060917D01*
X126290542Y-98060667D01*
X126288985Y-98060229D01*
X126288463Y-98060126D01*
X126288471Y-98060085D01*
X126256579Y-98051130D01*
X126251730Y-98048985D01*
X126246235Y-98046554D01*
X126192892Y-98001432D01*
X126172411Y-97934631D01*
X126191295Y-97867364D01*
X126193248Y-97864244D01*
X126236356Y-97822654D01*
X126242229Y-97819264D01*
X126318015Y-97775509D01*
X126420509Y-97673015D01*
X126492984Y-97547485D01*
X126530500Y-97407475D01*
X126530500Y-97262525D01*
X126492984Y-97122515D01*
X126473065Y-97088015D01*
X126420511Y-96996988D01*
X126420506Y-96996982D01*
X126420493Y-96996968D01*
X126318030Y-96894505D01*
X126318014Y-96894490D01*
X126318006Y-96894485D01*
X126264243Y-96863445D01*
X126235808Y-96833624D01*
X126181007Y-96818939D01*
X126181007Y-96818940D01*
X126116740Y-96801720D01*
X126052475Y-96784500D01*
X126052474Y-96784500D01*
X125907525Y-96784500D01*
X125778994Y-96818939D01*
X125778993Y-96818940D01*
X125771338Y-96820991D01*
X125767510Y-96822017D01*
X125641991Y-96894485D01*
X125641984Y-96894490D01*
X125641968Y-96894505D01*
X125539505Y-96996968D01*
X125539490Y-96996984D01*
X125539485Y-96996992D01*
X125467017Y-97122509D01*
X125466989Y-97122578D01*
X125466748Y-97123511D01*
X125429911Y-97260991D01*
X125429500Y-97262525D01*
X125429500Y-97407475D01*
X125433748Y-97423329D01*
X125467013Y-97547477D01*
X125467016Y-97547485D01*
X125467017Y-97547488D01*
X125494687Y-97595413D01*
X125537631Y-97669795D01*
X125539489Y-97673013D01*
X125539491Y-97673015D01*
X125641985Y-97775509D01*
X125641986Y-97775510D01*
X125641988Y-97775511D01*
X125658226Y-97784886D01*
X125658225Y-97784886D01*
X125658229Y-97784887D01*
X125662873Y-97787569D01*
X125690605Y-97809380D01*
X125698410Y-97817566D01*
X125730425Y-97879669D01*
X125723782Y-97949223D01*
X125680590Y-98004143D01*
X125680575Y-98004153D01*
X125677587Y-98006280D01*
X125621863Y-98028200D01*
X125437160Y-98052518D01*
X125373356Y-98060918D01*
X125301390Y-98080201D01*
X125200210Y-98107312D01*
X125075737Y-98140664D01*
X125075735Y-98140664D01*
X125075727Y-98140667D01*
X124791066Y-98258578D01*
X124524232Y-98412636D01*
X124524216Y-98412647D01*
X124279791Y-98600200D01*
X124279776Y-98600214D01*
X124279768Y-98600221D01*
X124061921Y-98818068D01*
X124061914Y-98818076D01*
X124061900Y-98818091D01*
X123874347Y-99062516D01*
X123874336Y-99062532D01*
X123720278Y-99329366D01*
X123602362Y-99614041D01*
X123522616Y-99911658D01*
X123482403Y-100217114D01*
X123482400Y-100217138D01*
X123482400Y-100525260D01*
X123482403Y-100525284D01*
X123522616Y-100830740D01*
X123602362Y-101128357D01*
X123720277Y-101413029D01*
X123720286Y-101413046D01*
X123753937Y-101471330D01*
X123753939Y-101471333D01*
X123874334Y-101679864D01*
X123874336Y-101679867D01*
X123874555Y-101680196D01*
X123875558Y-101681460D01*
X124061900Y-101924307D01*
X124061904Y-101924312D01*
X124061907Y-101924315D01*
X124061913Y-101924322D01*
X124279777Y-102142186D01*
X124279784Y-102142192D01*
X124301419Y-102158793D01*
X124524230Y-102329762D01*
X124695730Y-102428778D01*
X124783034Y-102479183D01*
X124816308Y-102509709D01*
X124832234Y-102521190D01*
X124857825Y-102586204D01*
X124844204Y-102654734D01*
X124795696Y-102705020D01*
X124762854Y-102717947D01*
X124757868Y-102719126D01*
X124729334Y-102722454D01*
X122147890Y-102722454D01*
X122144146Y-102722397D01*
X122140438Y-102722285D01*
X122136725Y-102722118D01*
X121866672Y-102705849D01*
X121859239Y-102705175D01*
X121856296Y-102704819D01*
X121851844Y-102704281D01*
X121844484Y-102703165D01*
X121583882Y-102655614D01*
X121576598Y-102654057D01*
X121569354Y-102652280D01*
X121562158Y-102650284D01*
X121309142Y-102571799D01*
X121302085Y-102569375D01*
X121295129Y-102566749D01*
X121288238Y-102563908D01*
X121046456Y-102455618D01*
X121039745Y-102452366D01*
X121033142Y-102448918D01*
X121026637Y-102445268D01*
X121014103Y-102437731D01*
X120822795Y-102322690D01*
X120799605Y-102308745D01*
X120793349Y-102304723D01*
X120787195Y-102300498D01*
X120781189Y-102296104D01*
X120776967Y-102292815D01*
X120776967Y-102292816D01*
X120572178Y-102133317D01*
X120566433Y-102128558D01*
X120560839Y-102123633D01*
X120555396Y-102118542D01*
X120552595Y-102115760D01*
X120552593Y-102115758D01*
X120367453Y-101931865D01*
X120362323Y-101926454D01*
X120357360Y-101920893D01*
X120352563Y-101915181D01*
X120188371Y-101707283D01*
X120183943Y-101701316D01*
X120179670Y-101695182D01*
X120175608Y-101688958D01*
X120116238Y-101591724D01*
X120116237Y-101591723D01*
X120037526Y-101462811D01*
X120033856Y-101456371D01*
X120030344Y-101449755D01*
X120027063Y-101443096D01*
X119953221Y-101281172D01*
X119914822Y-101196970D01*
X119913328Y-101193559D01*
X119911886Y-101190127D01*
X119910495Y-101186671D01*
X119900662Y-101161147D01*
X119900660Y-101161143D01*
X119799228Y-100897823D01*
X119785189Y-100861377D01*
X120198707Y-100861377D01*
X120198707Y-100979995D01*
X120229408Y-101094572D01*
X120288718Y-101197299D01*
X120372594Y-101281175D01*
X120475321Y-101340485D01*
X120589898Y-101371186D01*
X120589901Y-101371186D01*
X120708513Y-101371186D01*
X120708516Y-101371186D01*
X120823093Y-101340485D01*
X120925820Y-101281175D01*
X121009696Y-101197299D01*
X121069006Y-101094572D01*
X121099707Y-100979995D01*
X121099707Y-100861377D01*
X121069006Y-100746800D01*
X121009696Y-100644073D01*
X120925820Y-100560197D01*
X120823093Y-100500887D01*
X120708516Y-100470186D01*
X120708513Y-100470186D01*
X120589898Y-100470186D01*
X120498935Y-100494559D01*
X120498930Y-100494560D01*
X120475321Y-100500887D01*
X120475319Y-100500887D01*
X120475319Y-100500888D01*
X120454154Y-100513107D01*
X120454146Y-100513111D01*
X120372593Y-100560197D01*
X120372585Y-100560203D01*
X120288724Y-100644064D01*
X120288720Y-100644069D01*
X120257583Y-100698000D01*
X120229408Y-100746800D01*
X120198707Y-100861377D01*
X119785189Y-100861377D01*
X119395405Y-99849490D01*
X118812055Y-98335102D01*
X118812029Y-98335022D01*
X118810069Y-98329935D01*
X118810068Y-98329929D01*
X118792823Y-98285171D01*
X118789244Y-98275877D01*
X118789243Y-98275875D01*
X118789238Y-98275862D01*
X118767679Y-98219862D01*
X118761964Y-98150227D01*
X118794803Y-98088556D01*
X118855772Y-98054429D01*
X118883501Y-98051312D01*
X119947623Y-98052256D01*
X119948544Y-97102622D01*
X119948598Y-97047525D01*
X121389500Y-97047525D01*
X121389500Y-97192475D01*
X121398664Y-97226674D01*
X121418446Y-97300500D01*
X121418445Y-97300500D01*
X121427015Y-97332483D01*
X121427018Y-97332490D01*
X121497631Y-97454795D01*
X121499489Y-97458013D01*
X121601985Y-97560509D01*
X121602674Y-97561005D01*
X121605178Y-97562353D01*
X121724069Y-97630995D01*
X121727087Y-97632869D01*
X121727514Y-97632983D01*
X121727515Y-97632984D01*
X121867525Y-97670500D01*
X121867528Y-97670500D01*
X122012472Y-97670500D01*
X122012475Y-97670500D01*
X122152485Y-97632984D01*
X122278015Y-97560509D01*
X122380509Y-97458015D01*
X122452984Y-97332485D01*
X122490500Y-97192475D01*
X122490500Y-97047525D01*
X123239500Y-97047525D01*
X123239500Y-97192475D01*
X123268446Y-97300500D01*
X123268445Y-97300500D01*
X123277015Y-97332483D01*
X123277018Y-97332490D01*
X123347631Y-97454795D01*
X123349489Y-97458013D01*
X123451985Y-97560509D01*
X123452674Y-97561005D01*
X123455178Y-97562353D01*
X123574069Y-97630995D01*
X123577087Y-97632869D01*
X123577514Y-97632983D01*
X123577515Y-97632984D01*
X123717525Y-97670500D01*
X123717528Y-97670500D01*
X123862472Y-97670500D01*
X123862475Y-97670500D01*
X124002485Y-97632984D01*
X124128015Y-97560509D01*
X124230509Y-97458015D01*
X124302984Y-97332485D01*
X124340500Y-97192475D01*
X124340500Y-97047525D01*
X124302984Y-96907515D01*
X124298352Y-96899493D01*
X124253621Y-96822016D01*
X124230513Y-96781991D01*
X124230508Y-96781984D01*
X124230493Y-96781968D01*
X124128030Y-96679505D01*
X124128014Y-96679490D01*
X124128006Y-96679485D01*
X124077510Y-96650331D01*
X124074242Y-96648444D01*
X124045808Y-96618624D01*
X123991007Y-96603939D01*
X123991007Y-96603940D01*
X123926740Y-96586720D01*
X123862475Y-96569500D01*
X123862474Y-96569500D01*
X123717525Y-96569500D01*
X123588994Y-96603939D01*
X123588993Y-96603940D01*
X123583090Y-96605522D01*
X123577510Y-96607017D01*
X123451991Y-96679485D01*
X123451984Y-96679490D01*
X123451968Y-96679505D01*
X123349505Y-96781968D01*
X123349490Y-96781984D01*
X123349485Y-96781992D01*
X123277017Y-96907509D01*
X123276989Y-96907578D01*
X123276748Y-96908511D01*
X123241710Y-97039278D01*
X123239500Y-97047525D01*
X122490500Y-97047525D01*
X122452984Y-96907515D01*
X122448352Y-96899493D01*
X122384848Y-96789500D01*
X122380513Y-96781991D01*
X122380508Y-96781984D01*
X122380493Y-96781968D01*
X122278030Y-96679505D01*
X122278014Y-96679490D01*
X122278006Y-96679485D01*
X122227510Y-96650331D01*
X122224242Y-96648444D01*
X122195808Y-96618624D01*
X122141007Y-96603939D01*
X122141007Y-96603940D01*
X122076740Y-96586720D01*
X122012475Y-96569500D01*
X122012474Y-96569500D01*
X121867525Y-96569500D01*
X121738994Y-96603939D01*
X121738993Y-96603940D01*
X121733090Y-96605522D01*
X121727510Y-96607017D01*
X121601991Y-96679485D01*
X121601984Y-96679490D01*
X121601968Y-96679505D01*
X121499505Y-96781968D01*
X121499490Y-96781984D01*
X121499485Y-96781992D01*
X121428287Y-96905308D01*
X121428286Y-96905312D01*
X121427017Y-96907511D01*
X121427016Y-96907515D01*
X121389500Y-97047525D01*
X119948598Y-97047525D01*
X119948606Y-97039278D01*
X119950418Y-95171327D01*
X119950960Y-94612525D01*
X126929500Y-94612525D01*
X126929500Y-94757475D01*
X126930888Y-94762654D01*
X126962384Y-94880199D01*
X126967017Y-94897488D01*
X126967018Y-94897491D01*
X127037631Y-95019795D01*
X127039489Y-95023013D01*
X127141985Y-95125509D01*
X127142674Y-95126005D01*
X127145178Y-95127353D01*
X127264069Y-95195995D01*
X127267087Y-95197869D01*
X127267514Y-95197983D01*
X127267515Y-95197984D01*
X127407525Y-95235500D01*
X127407528Y-95235500D01*
X127552472Y-95235500D01*
X127552475Y-95235500D01*
X127692485Y-95197984D01*
X127752565Y-95163295D01*
X127785326Y-95150180D01*
X127803615Y-95145744D01*
X127867779Y-95147272D01*
X127877774Y-95150207D01*
X127904836Y-95161796D01*
X127967515Y-95197984D01*
X128107525Y-95235500D01*
X128107528Y-95235500D01*
X128252472Y-95235500D01*
X128252475Y-95235500D01*
X128392485Y-95197984D01*
X128518015Y-95125509D01*
X128620509Y-95023015D01*
X128692984Y-94897485D01*
X128730500Y-94757475D01*
X128730500Y-94612525D01*
X128692984Y-94472515D01*
X128690097Y-94467515D01*
X128683218Y-94455601D01*
X128620513Y-94346992D01*
X128620508Y-94346984D01*
X128620493Y-94346968D01*
X128518030Y-94244505D01*
X128518021Y-94244497D01*
X128518017Y-94244493D01*
X128518011Y-94244488D01*
X128464240Y-94213443D01*
X128435807Y-94183623D01*
X128373826Y-94167016D01*
X128271534Y-94139607D01*
X128252475Y-94134500D01*
X128252474Y-94134500D01*
X128107525Y-94134500D01*
X127986174Y-94167016D01*
X127986173Y-94167015D01*
X127967510Y-94172017D01*
X127967507Y-94172018D01*
X127907436Y-94206701D01*
X127874670Y-94219818D01*
X127863316Y-94222573D01*
X127856386Y-94224254D01*
X127792288Y-94222745D01*
X127791701Y-94222573D01*
X127732902Y-94184831D01*
X127731866Y-94182567D01*
X127673826Y-94167016D01*
X127571534Y-94139607D01*
X127552475Y-94134500D01*
X127552474Y-94134500D01*
X127407525Y-94134500D01*
X127286174Y-94167016D01*
X127286173Y-94167015D01*
X127267510Y-94172017D01*
X127267507Y-94172018D01*
X127141992Y-94244485D01*
X127141987Y-94244489D01*
X127141968Y-94244505D01*
X127039505Y-94346968D01*
X127039490Y-94346984D01*
X127039485Y-94346992D01*
X126968287Y-94470308D01*
X126968286Y-94470312D01*
X126967017Y-94472511D01*
X126967016Y-94472515D01*
X126929500Y-94612525D01*
X119950960Y-94612525D01*
X119953061Y-92447038D01*
X119953060Y-92447038D01*
X114855676Y-92453319D01*
X114844746Y-97932554D01*
X114844516Y-98047736D01*
X116049129Y-98048802D01*
X116116148Y-98068546D01*
X116161856Y-98121390D01*
X116171738Y-98190558D01*
X116164862Y-98217024D01*
X116140287Y-98281402D01*
X116140286Y-98281407D01*
X116138849Y-98285171D01*
X116138839Y-98285196D01*
X116122543Y-98327851D01*
X116122542Y-98327859D01*
X115034683Y-101175833D01*
X115033302Y-101179292D01*
X115031869Y-101182730D01*
X115030387Y-101186141D01*
X114919116Y-101432060D01*
X114915846Y-101438745D01*
X114912378Y-101445327D01*
X114908713Y-101451803D01*
X114771703Y-101677827D01*
X114767654Y-101684076D01*
X114763424Y-101690193D01*
X114759012Y-101696180D01*
X114595913Y-101904179D01*
X114591155Y-101909886D01*
X114586229Y-101915447D01*
X114581123Y-101920875D01*
X114394283Y-102107854D01*
X114388866Y-102112958D01*
X114383295Y-102117901D01*
X114377584Y-102122670D01*
X114169715Y-102285913D01*
X114163722Y-102290335D01*
X114157612Y-102294566D01*
X114151375Y-102298614D01*
X113925437Y-102435800D01*
X113918961Y-102439471D01*
X113912396Y-102442936D01*
X113905717Y-102446209D01*
X113664964Y-102555357D01*
X113658096Y-102558225D01*
X113651166Y-102560878D01*
X113644140Y-102563329D01*
X113392045Y-102642861D01*
X113384875Y-102644888D01*
X113377683Y-102646690D01*
X113370424Y-102648279D01*
X113110643Y-102697046D01*
X113103283Y-102698200D01*
X113095902Y-102699131D01*
X113088502Y-102699840D01*
X112819265Y-102717505D01*
X112815498Y-102717695D01*
X112811710Y-102717828D01*
X112807932Y-102717903D01*
X109906048Y-102731308D01*
X109871085Y-102726445D01*
X109862549Y-102723981D01*
X109803599Y-102686476D01*
X109774283Y-102623054D01*
X109783910Y-102553851D01*
X109824188Y-102504429D01*
X109828391Y-102501384D01*
X109853682Y-102487245D01*
X109855759Y-102486385D01*
X110017623Y-102419339D01*
X110074742Y-102395680D01*
X110074745Y-102395678D01*
X110074751Y-102395676D01*
X110341591Y-102241616D01*
X110586038Y-102054045D01*
X110803912Y-101836171D01*
X110991483Y-101591724D01*
X111145543Y-101324884D01*
X111263456Y-101040218D01*
X111343203Y-100742598D01*
X111383421Y-100437114D01*
X111383421Y-100128994D01*
X111343203Y-99823510D01*
X111263456Y-99525890D01*
X111145543Y-99241224D01*
X111145541Y-99241221D01*
X111145539Y-99241216D01*
X111145535Y-99241210D01*
X111145422Y-99240936D01*
X111144633Y-99239514D01*
X111143553Y-99237776D01*
X111056216Y-99086505D01*
X111048641Y-99073385D01*
X110991483Y-98974384D01*
X110928558Y-98892379D01*
X110871546Y-98818079D01*
X110871543Y-98818076D01*
X110857165Y-98799338D01*
X110803913Y-98729938D01*
X110803907Y-98729931D01*
X110586043Y-98512067D01*
X110586036Y-98512061D01*
X110586033Y-98512058D01*
X110586028Y-98512054D01*
X110493025Y-98440691D01*
X111849500Y-98440691D01*
X111849500Y-98559309D01*
X111880201Y-98673886D01*
X111939511Y-98776613D01*
X112023387Y-98860489D01*
X112126114Y-98919799D01*
X112240691Y-98950500D01*
X112240694Y-98950500D01*
X112359306Y-98950500D01*
X112359309Y-98950500D01*
X112473886Y-98919799D01*
X112576613Y-98860489D01*
X112660489Y-98776613D01*
X112719799Y-98673886D01*
X112750500Y-98559309D01*
X112750500Y-98440691D01*
X113449500Y-98440691D01*
X113449500Y-98559309D01*
X113480201Y-98673886D01*
X113539511Y-98776613D01*
X113623387Y-98860489D01*
X113726114Y-98919799D01*
X113840691Y-98950500D01*
X113840694Y-98950500D01*
X113959306Y-98950500D01*
X113959309Y-98950500D01*
X114073886Y-98919799D01*
X114176613Y-98860489D01*
X114260489Y-98776613D01*
X114319799Y-98673886D01*
X114350500Y-98559309D01*
X114350500Y-98440691D01*
X114319799Y-98326114D01*
X114260489Y-98223387D01*
X114176613Y-98139511D01*
X114073886Y-98080201D01*
X113959309Y-98049500D01*
X113959306Y-98049500D01*
X113840691Y-98049500D01*
X113749728Y-98073873D01*
X113749723Y-98073874D01*
X113726114Y-98080201D01*
X113726112Y-98080201D01*
X113726112Y-98080202D01*
X113704947Y-98092421D01*
X113704939Y-98092425D01*
X113623386Y-98139511D01*
X113623378Y-98139517D01*
X113539517Y-98223378D01*
X113539513Y-98223383D01*
X113539512Y-98223385D01*
X113539511Y-98223387D01*
X113505996Y-98281437D01*
X113480201Y-98326114D01*
X113449500Y-98440691D01*
X112750500Y-98440691D01*
X112719799Y-98326114D01*
X112660489Y-98223387D01*
X112576613Y-98139511D01*
X112473886Y-98080201D01*
X112359309Y-98049500D01*
X112359306Y-98049500D01*
X112240691Y-98049500D01*
X112149728Y-98073873D01*
X112149723Y-98073874D01*
X112126114Y-98080201D01*
X112126112Y-98080201D01*
X112126112Y-98080202D01*
X112104947Y-98092421D01*
X112104939Y-98092425D01*
X112023386Y-98139511D01*
X112023378Y-98139517D01*
X111939517Y-98223378D01*
X111939513Y-98223383D01*
X111939512Y-98223385D01*
X111939511Y-98223387D01*
X111905996Y-98281437D01*
X111880201Y-98326114D01*
X111849500Y-98440691D01*
X110493025Y-98440691D01*
X110349190Y-98330323D01*
X110341595Y-98324495D01*
X110341594Y-98324494D01*
X110341591Y-98324492D01*
X110227430Y-98258581D01*
X110074758Y-98170435D01*
X110074747Y-98170430D01*
X109790083Y-98052518D01*
X109790082Y-98052517D01*
X109790078Y-98052516D01*
X109492461Y-97972770D01*
X109188859Y-97932801D01*
X109187178Y-97932554D01*
X109186987Y-97932554D01*
X109186981Y-97932554D01*
X108878861Y-97932554D01*
X108878855Y-97932554D01*
X108878853Y-97932554D01*
X108872733Y-97933307D01*
X108871827Y-97933479D01*
X108573379Y-97972770D01*
X108275762Y-98052516D01*
X107991087Y-98170432D01*
X107724253Y-98324490D01*
X107724237Y-98324501D01*
X107479812Y-98512054D01*
X107479797Y-98512068D01*
X107479789Y-98512075D01*
X107261942Y-98729922D01*
X107261935Y-98729930D01*
X107261921Y-98729945D01*
X107074368Y-98974370D01*
X107074357Y-98974386D01*
X106920299Y-99241220D01*
X106858382Y-99390701D01*
X106832812Y-99422430D01*
X106814229Y-99448191D01*
X106780289Y-99461537D01*
X106779015Y-99462149D01*
X106777881Y-99462484D01*
X106749206Y-99473761D01*
X106680682Y-99460117D01*
X106630411Y-99411592D01*
X106617498Y-99378755D01*
X106616317Y-99373757D01*
X106613000Y-99345267D01*
X106613000Y-98799341D01*
X106612982Y-98799168D01*
X106612754Y-98797951D01*
X106608991Y-98776610D01*
X106578043Y-98601091D01*
X106562893Y-98559468D01*
X106509190Y-98411920D01*
X106509182Y-98411906D01*
X106419559Y-98256672D01*
X106406444Y-98223915D01*
X106402758Y-98208722D01*
X106406080Y-98138937D01*
X106406685Y-98137191D01*
X106440443Y-98086025D01*
X106449027Y-98078222D01*
X106456948Y-98071604D01*
X106458410Y-98070482D01*
X106458410Y-98070481D01*
X106458413Y-98070480D01*
X106532980Y-97995913D01*
X106585707Y-97904587D01*
X106613000Y-97802727D01*
X106613000Y-97697273D01*
X106585707Y-97595413D01*
X106532980Y-97504087D01*
X106487468Y-97458575D01*
X106484517Y-97455522D01*
X106453613Y-97422426D01*
X106453734Y-97422270D01*
X106441043Y-97408964D01*
X106440607Y-97408497D01*
X106425184Y-97377798D01*
X106409483Y-97347354D01*
X106409547Y-97346674D01*
X106409241Y-97346064D01*
X106412852Y-97312010D01*
X106416112Y-97277807D01*
X106416717Y-97276296D01*
X106450635Y-97228657D01*
X106452924Y-97226674D01*
X106452923Y-97226673D01*
X106473306Y-97209011D01*
X106474892Y-97205119D01*
X106484214Y-97194678D01*
X106532980Y-97145913D01*
X106585707Y-97054587D01*
X106613000Y-96952727D01*
X106613000Y-96847273D01*
X106585707Y-96745413D01*
X106532980Y-96654087D01*
X106487468Y-96608575D01*
X106484517Y-96605522D01*
X106453613Y-96572426D01*
X106453734Y-96572270D01*
X106441043Y-96558964D01*
X106440607Y-96558497D01*
X106425184Y-96527798D01*
X106409483Y-96497354D01*
X106409547Y-96496674D01*
X106409241Y-96496064D01*
X106412852Y-96462010D01*
X106416112Y-96427807D01*
X106416717Y-96426296D01*
X106450635Y-96378657D01*
X106452924Y-96376674D01*
X106452923Y-96376673D01*
X106473306Y-96359011D01*
X106474892Y-96355119D01*
X106484214Y-96344678D01*
X106532980Y-96295913D01*
X106585707Y-96204587D01*
X106613000Y-96102727D01*
X106613000Y-95997273D01*
X106585707Y-95895413D01*
X106532980Y-95804087D01*
X106458413Y-95729520D01*
X106453738Y-95724845D01*
X106447789Y-95719502D01*
X106432938Y-95703924D01*
X106400927Y-95641821D01*
X106400923Y-95641799D01*
X106400580Y-95640017D01*
X106404233Y-95578822D01*
X106406590Y-95571449D01*
X106417312Y-95547217D01*
X106509190Y-95388080D01*
X106578043Y-95198909D01*
X106610757Y-95013374D01*
X107094237Y-95013374D01*
X107108230Y-95083714D01*
X107108232Y-95083720D01*
X107108236Y-95083728D01*
X107141493Y-95133501D01*
X107141495Y-95133503D01*
X107141494Y-95133503D01*
X107148093Y-95137912D01*
X107191278Y-95166767D01*
X107191281Y-95166767D01*
X107196765Y-95169039D01*
X107202166Y-95172402D01*
X107201613Y-95173737D01*
X107218445Y-95182539D01*
X107222393Y-95184998D01*
X107242666Y-95207732D01*
X107264594Y-95228886D01*
X107265699Y-95233561D01*
X107268895Y-95237145D01*
X107273659Y-95267231D01*
X107280669Y-95296882D01*
X107279124Y-95301741D01*
X107279823Y-95306155D01*
X107272229Y-95323428D01*
X107261764Y-95356350D01*
X107257190Y-95363611D01*
X107248130Y-95376178D01*
X107244724Y-95380327D01*
X107173534Y-95486870D01*
X107173529Y-95486880D01*
X107124502Y-95605245D01*
X107124495Y-95605265D01*
X107124493Y-95605273D01*
X107099500Y-95730923D01*
X107099500Y-95814702D01*
X107094237Y-95832622D01*
X107124494Y-95984726D01*
X107124495Y-95984732D01*
X107124502Y-95984753D01*
X107173529Y-96103118D01*
X107173534Y-96103128D01*
X107244724Y-96209670D01*
X107244725Y-96209671D01*
X107244730Y-96209677D01*
X107335325Y-96300272D01*
X107335328Y-96300274D01*
X107335331Y-96300276D01*
X107360352Y-96316994D01*
X107386606Y-96340578D01*
X107395508Y-96351230D01*
X107423391Y-96415295D01*
X107412212Y-96484265D01*
X107412210Y-96484267D01*
X107409949Y-96488992D01*
X107366988Y-96538569D01*
X107335350Y-96559708D01*
X107335336Y-96559718D01*
X107335322Y-96559729D01*
X107244730Y-96650321D01*
X107244725Y-96650327D01*
X107244724Y-96650328D01*
X107173534Y-96756870D01*
X107173529Y-96756880D01*
X107124502Y-96875245D01*
X107124495Y-96875265D01*
X107124493Y-96875273D01*
X107099500Y-97000923D01*
X107099500Y-97084702D01*
X107094237Y-97102622D01*
X107124494Y-97254726D01*
X107124495Y-97254732D01*
X107124502Y-97254753D01*
X107173529Y-97373118D01*
X107173534Y-97373128D01*
X107244724Y-97479670D01*
X107244725Y-97479671D01*
X107244730Y-97479677D01*
X107335321Y-97570268D01*
X107335327Y-97570273D01*
X107335331Y-97570276D01*
X107441866Y-97641461D01*
X107441872Y-97641464D01*
X107441873Y-97641465D01*
X107555362Y-97688473D01*
X107555947Y-97688724D01*
X107556141Y-97688884D01*
X107559055Y-97690262D01*
X107560260Y-97690501D01*
X107560261Y-97690502D01*
X107580425Y-97694513D01*
X107685926Y-97715500D01*
X107814071Y-97715500D01*
X107814072Y-97715500D01*
X107859885Y-97706386D01*
X107905700Y-97697273D01*
X107905701Y-97697273D01*
X107914267Y-97695568D01*
X107939744Y-97690501D01*
X108058127Y-97641465D01*
X108164669Y-97570276D01*
X108255276Y-97479669D01*
X108326465Y-97373127D01*
X108375501Y-97254744D01*
X108383682Y-97213615D01*
X108400500Y-97129071D01*
X108400500Y-97047525D01*
X110539500Y-97047525D01*
X110539500Y-97192475D01*
X110548664Y-97226674D01*
X110568446Y-97300500D01*
X110568445Y-97300500D01*
X110577015Y-97332483D01*
X110577018Y-97332490D01*
X110647631Y-97454795D01*
X110649489Y-97458013D01*
X110751985Y-97560509D01*
X110752674Y-97561005D01*
X110755178Y-97562353D01*
X110874069Y-97630995D01*
X110877087Y-97632869D01*
X110877514Y-97632983D01*
X110877515Y-97632984D01*
X111017525Y-97670500D01*
X111017528Y-97670500D01*
X111162472Y-97670500D01*
X111162475Y-97670500D01*
X111302485Y-97632984D01*
X111428015Y-97560509D01*
X111530509Y-97458015D01*
X111602984Y-97332485D01*
X111640500Y-97192475D01*
X111640500Y-97047525D01*
X112389500Y-97047525D01*
X112389500Y-97192475D01*
X112418446Y-97300500D01*
X112418445Y-97300500D01*
X112427015Y-97332483D01*
X112427018Y-97332490D01*
X112497631Y-97454795D01*
X112499489Y-97458013D01*
X112601985Y-97560509D01*
X112602674Y-97561005D01*
X112605178Y-97562353D01*
X112724069Y-97630995D01*
X112727087Y-97632869D01*
X112727514Y-97632983D01*
X112727515Y-97632984D01*
X112867525Y-97670500D01*
X112867528Y-97670500D01*
X113012472Y-97670500D01*
X113012475Y-97670500D01*
X113152485Y-97632984D01*
X113278015Y-97560509D01*
X113380509Y-97458015D01*
X113452984Y-97332485D01*
X113490500Y-97192475D01*
X113490500Y-97047525D01*
X113452984Y-96907515D01*
X113448352Y-96899493D01*
X113403621Y-96822016D01*
X113380513Y-96781991D01*
X113380508Y-96781984D01*
X113380493Y-96781968D01*
X113278030Y-96679505D01*
X113278014Y-96679490D01*
X113278006Y-96679485D01*
X113227510Y-96650331D01*
X113224242Y-96648444D01*
X113195808Y-96618624D01*
X113141007Y-96603939D01*
X113141007Y-96603940D01*
X113076740Y-96586720D01*
X113012475Y-96569500D01*
X113012474Y-96569500D01*
X112867525Y-96569500D01*
X112738994Y-96603939D01*
X112738993Y-96603940D01*
X112733090Y-96605522D01*
X112727510Y-96607017D01*
X112601991Y-96679485D01*
X112601984Y-96679490D01*
X112601968Y-96679505D01*
X112499505Y-96781968D01*
X112499490Y-96781984D01*
X112499485Y-96781992D01*
X112427017Y-96907509D01*
X112426989Y-96907578D01*
X112426748Y-96908511D01*
X112391710Y-97039278D01*
X112389500Y-97047525D01*
X111640500Y-97047525D01*
X111602984Y-96907515D01*
X111598352Y-96899493D01*
X111534848Y-96789500D01*
X111530513Y-96781991D01*
X111530508Y-96781984D01*
X111530493Y-96781968D01*
X111428030Y-96679505D01*
X111428014Y-96679490D01*
X111428006Y-96679485D01*
X111377510Y-96650331D01*
X111374242Y-96648444D01*
X111345808Y-96618624D01*
X111291007Y-96603939D01*
X111291007Y-96603940D01*
X111226740Y-96586720D01*
X111162475Y-96569500D01*
X111162474Y-96569500D01*
X111017525Y-96569500D01*
X110888994Y-96603939D01*
X110888993Y-96603940D01*
X110883090Y-96605522D01*
X110877510Y-96607017D01*
X110751991Y-96679485D01*
X110751984Y-96679490D01*
X110751968Y-96679505D01*
X110649505Y-96781968D01*
X110649490Y-96781984D01*
X110649485Y-96781992D01*
X110578287Y-96905308D01*
X110578286Y-96905312D01*
X110577017Y-96907511D01*
X110577016Y-96907515D01*
X110539500Y-97047525D01*
X108400500Y-97047525D01*
X108400500Y-97000928D01*
X108400500Y-97000925D01*
X108375295Y-96874220D01*
X108373724Y-96870947D01*
X108373473Y-96870362D01*
X108326465Y-96756873D01*
X108326464Y-96756872D01*
X108326461Y-96756866D01*
X108255276Y-96650331D01*
X108255273Y-96650327D01*
X108255268Y-96650321D01*
X108164671Y-96559724D01*
X108149382Y-96549509D01*
X108149382Y-96549508D01*
X108139652Y-96543008D01*
X108113393Y-96519422D01*
X108104493Y-96508772D01*
X108076608Y-96444711D01*
X108087782Y-96375743D01*
X108090049Y-96371007D01*
X108133011Y-96321429D01*
X108135584Y-96319710D01*
X108164669Y-96300276D01*
X108255276Y-96209669D01*
X108326465Y-96103127D01*
X108375501Y-95984744D01*
X108394930Y-95887071D01*
X108400500Y-95859071D01*
X108400500Y-95730928D01*
X108400500Y-95730925D01*
X108375295Y-95604220D01*
X108373724Y-95600947D01*
X108373473Y-95600362D01*
X108326465Y-95486873D01*
X108326464Y-95486872D01*
X108326461Y-95486866D01*
X108255276Y-95380331D01*
X108255273Y-95380327D01*
X108255271Y-95380324D01*
X108255266Y-95380316D01*
X108252631Y-95376803D01*
X108253068Y-95376475D01*
X108242470Y-95361221D01*
X108241424Y-95359306D01*
X108234855Y-95347276D01*
X108220004Y-95279004D01*
X108234294Y-95240691D01*
X111599500Y-95240691D01*
X111599500Y-95359309D01*
X111630201Y-95473886D01*
X111689511Y-95576613D01*
X111773387Y-95660489D01*
X111876114Y-95719799D01*
X111990691Y-95750500D01*
X111990694Y-95750500D01*
X112109306Y-95750500D01*
X112109309Y-95750500D01*
X112223886Y-95719799D01*
X112326613Y-95660489D01*
X112410489Y-95576613D01*
X112469799Y-95473886D01*
X112500500Y-95359309D01*
X112500500Y-95240691D01*
X112469799Y-95126114D01*
X112410489Y-95023387D01*
X112326613Y-94939511D01*
X112223886Y-94880201D01*
X112109309Y-94849500D01*
X112109306Y-94849500D01*
X111990691Y-94849500D01*
X111899728Y-94873873D01*
X111899723Y-94873874D01*
X111876114Y-94880201D01*
X111876112Y-94880201D01*
X111876112Y-94880202D01*
X111854947Y-94892421D01*
X111854939Y-94892425D01*
X111773386Y-94939511D01*
X111773378Y-94939517D01*
X111689517Y-95023378D01*
X111689513Y-95023383D01*
X111630552Y-95125506D01*
X111630201Y-95126114D01*
X111599500Y-95240691D01*
X108234294Y-95240691D01*
X108244420Y-95213542D01*
X108245902Y-95211562D01*
X108297708Y-95171327D01*
X108308711Y-95166769D01*
X108308722Y-95166767D01*
X108358504Y-95133504D01*
X108391767Y-95083722D01*
X108400500Y-95039820D01*
X108400500Y-94010180D01*
X108400500Y-94010177D01*
X108398699Y-94001126D01*
X108394150Y-93978257D01*
X108394150Y-93978256D01*
X108393181Y-93973387D01*
X108391768Y-93966282D01*
X108391767Y-93966281D01*
X108391767Y-93966278D01*
X108358504Y-93916496D01*
X108356603Y-93915226D01*
X108318118Y-93889511D01*
X108318117Y-93889510D01*
X108308727Y-93883236D01*
X108308726Y-93883235D01*
X108308724Y-93883234D01*
X108308717Y-93883231D01*
X108308715Y-93883230D01*
X108264826Y-93874500D01*
X108264822Y-93874500D01*
X108264820Y-93874500D01*
X107235180Y-93874500D01*
X107235178Y-93874500D01*
X107235174Y-93874500D01*
X107191283Y-93883230D01*
X107191281Y-93883230D01*
X107191270Y-93883236D01*
X107141497Y-93916493D01*
X107141493Y-93916497D01*
X107108236Y-93966270D01*
X107108230Y-93966281D01*
X107108230Y-93966283D01*
X107099500Y-94010172D01*
X107099500Y-94995453D01*
X107094237Y-95013374D01*
X106610757Y-95013374D01*
X106613000Y-95000656D01*
X106613000Y-94941620D01*
X106613009Y-94941586D01*
X106613305Y-94938464D01*
X106613004Y-94899958D01*
X106613000Y-94898988D01*
X106613000Y-94854205D01*
X106612790Y-94850608D01*
X106612971Y-94850597D01*
X106612567Y-94844217D01*
X106611891Y-94757654D01*
X106600504Y-93299865D01*
X106600501Y-93299061D01*
X106600500Y-93298627D01*
X106600500Y-93199341D01*
X106600482Y-93199166D01*
X106600253Y-93197946D01*
X106595768Y-93172511D01*
X106595768Y-93172510D01*
X106565543Y-93001091D01*
X106538253Y-92926114D01*
X106496690Y-92811920D01*
X106496682Y-92811906D01*
X106407059Y-92656672D01*
X106393944Y-92623915D01*
X106390258Y-92608722D01*
X106393580Y-92538937D01*
X106394185Y-92537191D01*
X106427943Y-92486025D01*
X106436527Y-92478222D01*
X106444448Y-92471604D01*
X106445910Y-92470482D01*
X106445910Y-92470481D01*
X106445913Y-92470480D01*
X106520480Y-92395913D01*
X106573207Y-92304587D01*
X106600500Y-92202727D01*
X106600500Y-92097273D01*
X106573207Y-91995413D01*
X106520480Y-91904087D01*
X106445913Y-91829520D01*
X106379059Y-91790922D01*
X106354589Y-91776794D01*
X106354588Y-91776793D01*
X106354587Y-91776793D01*
X106252727Y-91749500D01*
X106252726Y-91749500D01*
X106147273Y-91749500D01*
X106045413Y-91776792D01*
X106045408Y-91776795D01*
X105954088Y-91829518D01*
X105954082Y-91829523D01*
X105879523Y-91904082D01*
X105879517Y-91904091D01*
X105840638Y-91971428D01*
X105840634Y-91971437D01*
X105826794Y-91995410D01*
X105826793Y-91995411D01*
X105811575Y-92052207D01*
X105810308Y-92056933D01*
X105810305Y-92056944D01*
X105808932Y-92062070D01*
X105795037Y-92094516D01*
X105786903Y-92107860D01*
X105735202Y-92154858D01*
X105730994Y-92156902D01*
X105676358Y-92169363D01*
X105673646Y-92169353D01*
X105652571Y-92167470D01*
X105651805Y-92167335D01*
X105619094Y-92161567D01*
X105550660Y-92149500D01*
X105550658Y-92149500D01*
X105550656Y-92149500D01*
X105349344Y-92149500D01*
X105349341Y-92149500D01*
X105349338Y-92149500D01*
X105254545Y-92166215D01*
X105219268Y-92167334D01*
X105207782Y-92166054D01*
X105203730Y-92165602D01*
X105139286Y-92138606D01*
X105139277Y-92138598D01*
X105135648Y-92135649D01*
X105101256Y-92091369D01*
X105100120Y-92088907D01*
X105092937Y-92069048D01*
X105089694Y-92056944D01*
X105073207Y-91995413D01*
X105020480Y-91904087D01*
X104945913Y-91829520D01*
X104879059Y-91790922D01*
X104854589Y-91776794D01*
X104854588Y-91776793D01*
X104854587Y-91776793D01*
X104752727Y-91749500D01*
X104752726Y-91749500D01*
X104647273Y-91749500D01*
X104545413Y-91776792D01*
X104545408Y-91776795D01*
X104454088Y-91829518D01*
X104454082Y-91829523D01*
X104379523Y-91904082D01*
X104379519Y-91904088D01*
X104326793Y-91995411D01*
X104307063Y-92069048D01*
X104299500Y-92097273D01*
X104299500Y-92202727D01*
X104326793Y-92304587D01*
X104379520Y-92395913D01*
X104428799Y-92445192D01*
X104458777Y-92475170D01*
X104464701Y-92480491D01*
X104469977Y-92486023D01*
X104479555Y-92496068D01*
X104511571Y-92558170D01*
X104511575Y-92558190D01*
X104511917Y-92559966D01*
X104508267Y-92621167D01*
X104505911Y-92628538D01*
X104495185Y-92652785D01*
X104403316Y-92811906D01*
X104403314Y-92811911D01*
X104403307Y-92811927D01*
X104334454Y-93001096D01*
X104299500Y-93199338D01*
X104299500Y-93199341D01*
X104299500Y-93199344D01*
X104299500Y-93270675D01*
X104299271Y-93271241D01*
X104299500Y-93300554D01*
X104299500Y-93345772D01*
X104299708Y-93349352D01*
X104299543Y-93349361D01*
X104299930Y-93355725D01*
X104311993Y-94899829D01*
X104311995Y-94900148D01*
X104311998Y-94900720D01*
X104312000Y-94901370D01*
X104312000Y-95000660D01*
X104346954Y-95198902D01*
X104346955Y-95198907D01*
X104346956Y-95198908D01*
X104415809Y-95388077D01*
X104415812Y-95388084D01*
X104440219Y-95430358D01*
X104489017Y-95514880D01*
X104505438Y-95543321D01*
X104518555Y-95576087D01*
X104521263Y-95587248D01*
X104522241Y-95591279D01*
X104518920Y-95661052D01*
X104518327Y-95662766D01*
X104484559Y-95713971D01*
X104476002Y-95721751D01*
X104468116Y-95728344D01*
X104466592Y-95729514D01*
X104459967Y-95736139D01*
X104459966Y-95736138D01*
X104441300Y-95754805D01*
X104392024Y-95804081D01*
X104392018Y-95804088D01*
X104339295Y-95895408D01*
X104339292Y-95895413D01*
X104312000Y-95997273D01*
X104312000Y-96102728D01*
X104332410Y-96178902D01*
X104332412Y-96178905D01*
X104339293Y-96204585D01*
X104339293Y-96204586D01*
X104339294Y-96204589D01*
X104392021Y-96295914D01*
X104446254Y-96350147D01*
X104449208Y-96354590D01*
X104483506Y-96390565D01*
X104515519Y-96452669D01*
X104508884Y-96522195D01*
X104508279Y-96523707D01*
X104474355Y-96571354D01*
X104451684Y-96590998D01*
X104450103Y-96594882D01*
X104440764Y-96605341D01*
X104392024Y-96654081D01*
X104392018Y-96654088D01*
X104339295Y-96745408D01*
X104339292Y-96745413D01*
X104317427Y-96827018D01*
X104312000Y-96847273D01*
X104312000Y-96952727D01*
X104339293Y-97054587D01*
X104381395Y-97127511D01*
X104382297Y-97129072D01*
X104392018Y-97145910D01*
X104392020Y-97145912D01*
X104392020Y-97145913D01*
X104392023Y-97145916D01*
X104437514Y-97191407D01*
X104440465Y-97194460D01*
X104471384Y-97227572D01*
X104471267Y-97227726D01*
X104483919Y-97240996D01*
X104484390Y-97241501D01*
X104499812Y-97272199D01*
X104515519Y-97302669D01*
X104515455Y-97303335D01*
X104515756Y-97303934D01*
X104512181Y-97337644D01*
X104508884Y-97372195D01*
X104508279Y-97373707D01*
X104474355Y-97421354D01*
X104451684Y-97440998D01*
X104450103Y-97444882D01*
X104440764Y-97455341D01*
X104392024Y-97504081D01*
X104392019Y-97504088D01*
X104339293Y-97595411D01*
X104313814Y-97690502D01*
X104312000Y-97697273D01*
X104312000Y-97802727D01*
X104339293Y-97904587D01*
X104392020Y-97995913D01*
X104441299Y-98045192D01*
X104471277Y-98075170D01*
X104477201Y-98080491D01*
X104482477Y-98086023D01*
X104492055Y-98096068D01*
X104524062Y-98158124D01*
X104524405Y-98159900D01*
X104520767Y-98221171D01*
X104518411Y-98228541D01*
X104507686Y-98252784D01*
X104415816Y-98411906D01*
X104415814Y-98411911D01*
X104415807Y-98411927D01*
X104346954Y-98601096D01*
X104312000Y-98799338D01*
X104312000Y-100355566D01*
X104311943Y-100359280D01*
X104311830Y-100363044D01*
X104311830Y-100363051D01*
X104311661Y-100366759D01*
X104295272Y-100637888D01*
X104294594Y-100645349D01*
X104293693Y-100652771D01*
X104292567Y-100660171D01*
X104244645Y-100921779D01*
X104243076Y-100929094D01*
X104241283Y-100936373D01*
X104239271Y-100943593D01*
X104160171Y-101197524D01*
X104157731Y-101204599D01*
X104155076Y-101211603D01*
X104152209Y-101218526D01*
X104043088Y-101461068D01*
X104039813Y-101467797D01*
X104036337Y-101474423D01*
X104032658Y-101480950D01*
X103895096Y-101708594D01*
X103891028Y-101714887D01*
X103886776Y-101721049D01*
X103882342Y-101727078D01*
X103718353Y-101936480D01*
X103713555Y-101942239D01*
X103708590Y-101947845D01*
X103703463Y-101953293D01*
X103515445Y-102141397D01*
X103510001Y-102146525D01*
X103504398Y-102151492D01*
X103498641Y-102156292D01*
X103480316Y-102170657D01*
X103480315Y-102170659D01*
X103317360Y-102298395D01*
X103317358Y-102298396D01*
X103289319Y-102320374D01*
X103283296Y-102324809D01*
X103277133Y-102329066D01*
X103270840Y-102333137D01*
X103043270Y-102470799D01*
X103036750Y-102474479D01*
X103030117Y-102477963D01*
X103023383Y-102481244D01*
X102780876Y-102590481D01*
X102773957Y-102593350D01*
X102766971Y-102596002D01*
X102759896Y-102598446D01*
X102505996Y-102677665D01*
X102498771Y-102679682D01*
X102491497Y-102681477D01*
X102484188Y-102683048D01*
X102222594Y-102731092D01*
X102215197Y-102732221D01*
X102207788Y-102733124D01*
X102200324Y-102733806D01*
X101929200Y-102750319D01*
X101925450Y-102750490D01*
X101921720Y-102750604D01*
X101918002Y-102750662D01*
X101912784Y-102750664D01*
X101912550Y-102750666D01*
X101889311Y-102750676D01*
X101889252Y-102750677D01*
X101889250Y-102750677D01*
X101889223Y-102750677D01*
X101826832Y-102750704D01*
X101826832Y-102750705D01*
X101814948Y-102750710D01*
X81110174Y-102760231D01*
X81071085Y-102748772D01*
X81040168Y-102741477D01*
X81014547Y-102714941D01*
X81013636Y-102714124D01*
X81013012Y-102713352D01*
X80991637Y-102691213D01*
X80977985Y-102622690D01*
X81003547Y-102557664D01*
X81028937Y-102533149D01*
X81033099Y-102530145D01*
X81058193Y-102516145D01*
X81132187Y-102485496D01*
X81134046Y-102484803D01*
X81134498Y-102484600D01*
X81134507Y-102484596D01*
X81136173Y-102483845D01*
X81136221Y-102483826D01*
X81136224Y-102483824D01*
X81136230Y-102483822D01*
X81136243Y-102483813D01*
X81136597Y-102483655D01*
X81137926Y-102482917D01*
X81139626Y-102481861D01*
X81403070Y-102329762D01*
X81647517Y-102142191D01*
X81865391Y-101924317D01*
X82052962Y-101679870D01*
X82207022Y-101413030D01*
X82324935Y-101128364D01*
X82404682Y-100830744D01*
X82444900Y-100525260D01*
X82444900Y-100217140D01*
X82404682Y-99911656D01*
X82324935Y-99614036D01*
X82207022Y-99329370D01*
X82207020Y-99329367D01*
X82207018Y-99329362D01*
X82207014Y-99329356D01*
X82206901Y-99329082D01*
X82206112Y-99327660D01*
X82205032Y-99325922D01*
X82142455Y-99217536D01*
X82142454Y-99217535D01*
X82052967Y-99062537D01*
X82051609Y-99060767D01*
X81996934Y-98989513D01*
X81975041Y-98960981D01*
X81922405Y-98892384D01*
X81922404Y-98892381D01*
X81922401Y-98892379D01*
X81919943Y-98889176D01*
X81919936Y-98889168D01*
X81897930Y-98860489D01*
X81870718Y-98825025D01*
X85349500Y-98825025D01*
X85349500Y-98969975D01*
X85350682Y-98974386D01*
X85381895Y-99090875D01*
X85387016Y-99109986D01*
X85387018Y-99109991D01*
X85457631Y-99232295D01*
X85459489Y-99235513D01*
X85561985Y-99338009D01*
X85562675Y-99338507D01*
X85565192Y-99339861D01*
X85668672Y-99399605D01*
X85684476Y-99410440D01*
X85692971Y-99417286D01*
X85692971Y-99417287D01*
X85698663Y-99421874D01*
X85704063Y-99426226D01*
X85743908Y-99483620D01*
X85746398Y-99553446D01*
X85710748Y-99613527D01*
X85699637Y-99623872D01*
X85677140Y-99640505D01*
X85561992Y-99706985D01*
X85561984Y-99706990D01*
X85561968Y-99707005D01*
X85459505Y-99809468D01*
X85459490Y-99809484D01*
X85459485Y-99809492D01*
X85387017Y-99935009D01*
X85386989Y-99935078D01*
X85386748Y-99936011D01*
X85349500Y-100075025D01*
X85349500Y-100219975D01*
X85379703Y-100332691D01*
X85386843Y-100359340D01*
X85387017Y-100359987D01*
X85387018Y-100359990D01*
X85457631Y-100482295D01*
X85459489Y-100485513D01*
X85561985Y-100588009D01*
X85562674Y-100588505D01*
X85565178Y-100589853D01*
X85684069Y-100658495D01*
X85687087Y-100660369D01*
X85687514Y-100660483D01*
X85687515Y-100660484D01*
X85827525Y-100698000D01*
X85827528Y-100698000D01*
X85972472Y-100698000D01*
X85972475Y-100698000D01*
X86112485Y-100660484D01*
X86238015Y-100588009D01*
X86340509Y-100485515D01*
X86412984Y-100359985D01*
X86450500Y-100219975D01*
X86450500Y-100075025D01*
X86412984Y-99935015D01*
X86399499Y-99911658D01*
X86399498Y-99911656D01*
X86399497Y-99911655D01*
X86340516Y-99809496D01*
X86340508Y-99809484D01*
X86340493Y-99809468D01*
X86238030Y-99707005D01*
X86238014Y-99706990D01*
X86238006Y-99706985D01*
X86131379Y-99645424D01*
X86115598Y-99634608D01*
X86095965Y-99618795D01*
X86056102Y-99561413D01*
X86053590Y-99491589D01*
X86089226Y-99431492D01*
X86100317Y-99421160D01*
X86122832Y-99404511D01*
X86180068Y-99371465D01*
X86200414Y-99359718D01*
X86238015Y-99338009D01*
X86285333Y-99290691D01*
X89549500Y-99290691D01*
X89549500Y-99409309D01*
X89580201Y-99523886D01*
X89639511Y-99626613D01*
X89723387Y-99710489D01*
X89826114Y-99769799D01*
X89940691Y-99800500D01*
X89940694Y-99800500D01*
X90059306Y-99800500D01*
X90059309Y-99800500D01*
X90173886Y-99769799D01*
X90276613Y-99710489D01*
X90360489Y-99626613D01*
X90419799Y-99523886D01*
X90450500Y-99409309D01*
X90450500Y-99290691D01*
X90433304Y-99226515D01*
X94431931Y-99226515D01*
X94431931Y-99371465D01*
X94448014Y-99431488D01*
X94465927Y-99498339D01*
X94469448Y-99511478D01*
X94469449Y-99511481D01*
X94540062Y-99633785D01*
X94541920Y-99637003D01*
X94644416Y-99739499D01*
X94645105Y-99739995D01*
X94647609Y-99741343D01*
X94766500Y-99809985D01*
X94769518Y-99811859D01*
X94769945Y-99811973D01*
X94769946Y-99811974D01*
X94909956Y-99849490D01*
X94909959Y-99849490D01*
X95054903Y-99849490D01*
X95054906Y-99849490D01*
X95194916Y-99811974D01*
X95320446Y-99739499D01*
X95422940Y-99637005D01*
X95495415Y-99511475D01*
X95532931Y-99371465D01*
X95532931Y-99226515D01*
X100931931Y-99226515D01*
X100931931Y-99371465D01*
X100948014Y-99431488D01*
X100965927Y-99498339D01*
X100969448Y-99511478D01*
X100969449Y-99511481D01*
X101040062Y-99633785D01*
X101041920Y-99637003D01*
X101144416Y-99739499D01*
X101145105Y-99739995D01*
X101147609Y-99741343D01*
X101266500Y-99809985D01*
X101269518Y-99811859D01*
X101269945Y-99811973D01*
X101269946Y-99811974D01*
X101409956Y-99849490D01*
X101409959Y-99849490D01*
X101554903Y-99849490D01*
X101554906Y-99849490D01*
X101694916Y-99811974D01*
X101820446Y-99739499D01*
X101922940Y-99637005D01*
X101995415Y-99511475D01*
X102032931Y-99371465D01*
X102032931Y-99226515D01*
X101995415Y-99086505D01*
X101995413Y-99086502D01*
X101995414Y-99086502D01*
X101987841Y-99073386D01*
X101987840Y-99073385D01*
X101922944Y-98960981D01*
X101922939Y-98960974D01*
X101922924Y-98960958D01*
X101820461Y-98858495D01*
X101820445Y-98858480D01*
X101820437Y-98858475D01*
X101789185Y-98840432D01*
X101766673Y-98827434D01*
X101738239Y-98797614D01*
X101683438Y-98782929D01*
X101683438Y-98782930D01*
X101599955Y-98760561D01*
X101554906Y-98748490D01*
X101554905Y-98748490D01*
X101409956Y-98748490D01*
X101281425Y-98782929D01*
X101281424Y-98782930D01*
X101273769Y-98784981D01*
X101269941Y-98786007D01*
X101144422Y-98858475D01*
X101144415Y-98858480D01*
X101144399Y-98858495D01*
X101041936Y-98960958D01*
X101041921Y-98960974D01*
X101041916Y-98960982D01*
X100969449Y-99086498D01*
X100969447Y-99086502D01*
X100965014Y-99103040D01*
X100965015Y-99103041D01*
X100965014Y-99103045D01*
X100931931Y-99226515D01*
X95532931Y-99226515D01*
X95495415Y-99086505D01*
X95487841Y-99073387D01*
X95439417Y-98989513D01*
X95422944Y-98960981D01*
X95422939Y-98960974D01*
X95422924Y-98960958D01*
X95320461Y-98858495D01*
X95320445Y-98858480D01*
X95320437Y-98858475D01*
X95289185Y-98840432D01*
X95266673Y-98827434D01*
X95238239Y-98797614D01*
X95183438Y-98782929D01*
X95183438Y-98782930D01*
X95099955Y-98760561D01*
X95054906Y-98748490D01*
X95054905Y-98748490D01*
X94909956Y-98748490D01*
X94781425Y-98782929D01*
X94781424Y-98782930D01*
X94773769Y-98784981D01*
X94769941Y-98786007D01*
X94644422Y-98858475D01*
X94644415Y-98858480D01*
X94644399Y-98858495D01*
X94541936Y-98960958D01*
X94541921Y-98960974D01*
X94541916Y-98960982D01*
X94469449Y-99086498D01*
X94469447Y-99086502D01*
X94465014Y-99103040D01*
X94465015Y-99103041D01*
X94465014Y-99103045D01*
X94431931Y-99226515D01*
X90433304Y-99226515D01*
X90419799Y-99176114D01*
X90360489Y-99073387D01*
X90276613Y-98989511D01*
X90173886Y-98930201D01*
X90059309Y-98899500D01*
X90059306Y-98899500D01*
X89940691Y-98899500D01*
X89849728Y-98923873D01*
X89849723Y-98923874D01*
X89826114Y-98930201D01*
X89826112Y-98930201D01*
X89826112Y-98930202D01*
X89804947Y-98942421D01*
X89804939Y-98942425D01*
X89723386Y-98989511D01*
X89723378Y-98989517D01*
X89639517Y-99073378D01*
X89639513Y-99073383D01*
X89622390Y-99103041D01*
X89580201Y-99176114D01*
X89549500Y-99290691D01*
X86285333Y-99290691D01*
X86340509Y-99235515D01*
X86412984Y-99109985D01*
X86450500Y-98969975D01*
X86450500Y-98825025D01*
X86412984Y-98685015D01*
X86411802Y-98682969D01*
X86411586Y-98682594D01*
X86411588Y-98682592D01*
X86411580Y-98682584D01*
X86340511Y-98559488D01*
X86340506Y-98559482D01*
X86340493Y-98559468D01*
X86238030Y-98457005D01*
X86238014Y-98456990D01*
X86238006Y-98456985D01*
X86184243Y-98425945D01*
X86155808Y-98396124D01*
X86101007Y-98381439D01*
X86101007Y-98381440D01*
X86036740Y-98364220D01*
X85972475Y-98347000D01*
X85972474Y-98347000D01*
X85827525Y-98347000D01*
X85698994Y-98381439D01*
X85698993Y-98381440D01*
X85691338Y-98383491D01*
X85687510Y-98384517D01*
X85561991Y-98456985D01*
X85561984Y-98456990D01*
X85561968Y-98457005D01*
X85459505Y-98559468D01*
X85459490Y-98559484D01*
X85459485Y-98559492D01*
X85387017Y-98685009D01*
X85386989Y-98685078D01*
X85386748Y-98686011D01*
X85356428Y-98799168D01*
X85349500Y-98825025D01*
X81870718Y-98825025D01*
X81865391Y-98818083D01*
X81865389Y-98818081D01*
X81865386Y-98818077D01*
X81865385Y-98818076D01*
X81865382Y-98818072D01*
X81647530Y-98600221D01*
X81647522Y-98600213D01*
X81647515Y-98600207D01*
X81647512Y-98600204D01*
X81647507Y-98600200D01*
X81410670Y-98418469D01*
X81410666Y-98418466D01*
X81403074Y-98412641D01*
X81403073Y-98412640D01*
X81403070Y-98412638D01*
X81289382Y-98347000D01*
X81288966Y-98346759D01*
X81288912Y-98346728D01*
X81220643Y-98307313D01*
X81136237Y-98258581D01*
X81136226Y-98258576D01*
X80851562Y-98140664D01*
X80851561Y-98140663D01*
X80851557Y-98140662D01*
X80553940Y-98060916D01*
X80250338Y-98020947D01*
X80248657Y-98020700D01*
X80248466Y-98020700D01*
X80248460Y-98020700D01*
X79940340Y-98020700D01*
X79940334Y-98020700D01*
X79940332Y-98020700D01*
X79934212Y-98021453D01*
X79933306Y-98021625D01*
X79634858Y-98060916D01*
X79337241Y-98140662D01*
X79052566Y-98258578D01*
X78785732Y-98412636D01*
X78785716Y-98412647D01*
X78541291Y-98600200D01*
X78541276Y-98600214D01*
X78541268Y-98600221D01*
X78323421Y-98818068D01*
X78323414Y-98818076D01*
X78323400Y-98818091D01*
X78135847Y-99062516D01*
X78135836Y-99062532D01*
X77981939Y-99329088D01*
X77981781Y-99329362D01*
X77981776Y-99329374D01*
X77950653Y-99404511D01*
X77950283Y-99405405D01*
X77924700Y-99437149D01*
X77906129Y-99462894D01*
X77872184Y-99476242D01*
X77870912Y-99476853D01*
X77869780Y-99477187D01*
X77841106Y-99488464D01*
X77772582Y-99474820D01*
X77722311Y-99426295D01*
X77709398Y-99393458D01*
X77708217Y-99388460D01*
X77704900Y-99359970D01*
X77704900Y-97267525D01*
X81199500Y-97267525D01*
X81199500Y-97412475D01*
X81235187Y-97545658D01*
X81237017Y-97552488D01*
X81308672Y-97676597D01*
X81309356Y-97677880D01*
X81411985Y-97780509D01*
X81412674Y-97781005D01*
X81415178Y-97782353D01*
X81534069Y-97850995D01*
X81537087Y-97852869D01*
X81537514Y-97852983D01*
X81537515Y-97852984D01*
X81677525Y-97890500D01*
X81677528Y-97890500D01*
X81822472Y-97890500D01*
X81822475Y-97890500D01*
X81962485Y-97852984D01*
X82088015Y-97780509D01*
X82190509Y-97678015D01*
X82262984Y-97552485D01*
X82300500Y-97412475D01*
X82300500Y-97267525D01*
X82262984Y-97127515D01*
X82260672Y-97123511D01*
X82260096Y-97122513D01*
X82260095Y-97122511D01*
X82190513Y-97001992D01*
X82190508Y-97001984D01*
X82190493Y-97001968D01*
X82088030Y-96899505D01*
X82088014Y-96899490D01*
X82088011Y-96899488D01*
X82065546Y-96886518D01*
X82034240Y-96868443D01*
X82005807Y-96838623D01*
X81943826Y-96822016D01*
X81903375Y-96811177D01*
X81822475Y-96789500D01*
X81822473Y-96789500D01*
X81677525Y-96789500D01*
X81556174Y-96822016D01*
X81556173Y-96822015D01*
X81537510Y-96827017D01*
X81537507Y-96827018D01*
X81411992Y-96899485D01*
X81411984Y-96899490D01*
X81411968Y-96899505D01*
X81309505Y-97001968D01*
X81309490Y-97001984D01*
X81309485Y-97001992D01*
X81237017Y-97127509D01*
X81236989Y-97127578D01*
X81236748Y-97128511D01*
X81202928Y-97254732D01*
X81199500Y-97267525D01*
X77704900Y-97267525D01*
X77704900Y-96677525D01*
X88449500Y-96677525D01*
X88449500Y-96822475D01*
X88453827Y-96838623D01*
X88487013Y-96962477D01*
X88487016Y-96962485D01*
X88487017Y-96962488D01*
X88509825Y-97001992D01*
X88557631Y-97084795D01*
X88559489Y-97088013D01*
X88661985Y-97190509D01*
X88662674Y-97191005D01*
X88665178Y-97192353D01*
X88784069Y-97260995D01*
X88787087Y-97262869D01*
X88787514Y-97262983D01*
X88787515Y-97262984D01*
X88927525Y-97300500D01*
X88927528Y-97300500D01*
X89072472Y-97300500D01*
X89072475Y-97300500D01*
X89212485Y-97262984D01*
X89338015Y-97190509D01*
X89440509Y-97088015D01*
X89512984Y-96962485D01*
X89550500Y-96822475D01*
X89550500Y-96677525D01*
X89512984Y-96537515D01*
X89484705Y-96488535D01*
X89440511Y-96411988D01*
X89440506Y-96411982D01*
X89440493Y-96411968D01*
X89338030Y-96309505D01*
X89338014Y-96309490D01*
X89338011Y-96309488D01*
X89322048Y-96300272D01*
X89212488Y-96237017D01*
X89212489Y-96237017D01*
X89163961Y-96224014D01*
X89154549Y-96221492D01*
X89154547Y-96221491D01*
X89091467Y-96204589D01*
X89072475Y-96199500D01*
X89072474Y-96199500D01*
X88927525Y-96199500D01*
X88836039Y-96224013D01*
X88836039Y-96224014D01*
X88814639Y-96229747D01*
X88787506Y-96237018D01*
X88661992Y-96309485D01*
X88661984Y-96309490D01*
X88661968Y-96309505D01*
X88559505Y-96411968D01*
X88559490Y-96411984D01*
X88559485Y-96411992D01*
X88488287Y-96535308D01*
X88488286Y-96535312D01*
X88487017Y-96537511D01*
X88487016Y-96537515D01*
X88449500Y-96677525D01*
X77704900Y-96677525D01*
X77704900Y-96354637D01*
X77709921Y-96319710D01*
X77712917Y-96309505D01*
X77713107Y-96308855D01*
X77750877Y-96250076D01*
X77814431Y-96221047D01*
X77883586Y-96230985D01*
X77890572Y-96234175D01*
X77926739Y-96259285D01*
X77995727Y-96328273D01*
X77995731Y-96328276D01*
X78102266Y-96399461D01*
X78102272Y-96399464D01*
X78102273Y-96399465D01*
X78215762Y-96446473D01*
X78216347Y-96446724D01*
X78216541Y-96446884D01*
X78219453Y-96448261D01*
X78220652Y-96448499D01*
X78220656Y-96448501D01*
X78220659Y-96448501D01*
X78220660Y-96448501D01*
X78220661Y-96448502D01*
X78318299Y-96467924D01*
X78346327Y-96473500D01*
X79474471Y-96473500D01*
X79474473Y-96473500D01*
X79559015Y-96456682D01*
X79600144Y-96448501D01*
X79718527Y-96399465D01*
X79825069Y-96328276D01*
X79915676Y-96237669D01*
X79986865Y-96131127D01*
X80035901Y-96012744D01*
X80044082Y-95971615D01*
X80060900Y-95887071D01*
X80060900Y-95860622D01*
X81934637Y-95860622D01*
X81964894Y-96012726D01*
X81964895Y-96012732D01*
X81964899Y-96012744D01*
X82013929Y-96131118D01*
X82013934Y-96131128D01*
X82085124Y-96237670D01*
X82085125Y-96237671D01*
X82085130Y-96237677D01*
X82175721Y-96328268D01*
X82175727Y-96328273D01*
X82175731Y-96328276D01*
X82282266Y-96399461D01*
X82282272Y-96399464D01*
X82282273Y-96399465D01*
X82395762Y-96446473D01*
X82396347Y-96446724D01*
X82396541Y-96446884D01*
X82399453Y-96448261D01*
X82400652Y-96448499D01*
X82400656Y-96448501D01*
X82400659Y-96448501D01*
X82400660Y-96448501D01*
X82400661Y-96448502D01*
X82498299Y-96467924D01*
X82526327Y-96473500D01*
X83654471Y-96473500D01*
X83654473Y-96473500D01*
X83739015Y-96456682D01*
X83780144Y-96448501D01*
X83898527Y-96399465D01*
X84005069Y-96328276D01*
X84095676Y-96237669D01*
X84166865Y-96131127D01*
X84215901Y-96012744D01*
X84221474Y-95984726D01*
X84224082Y-95971617D01*
X84224082Y-95971615D01*
X84240900Y-95887071D01*
X84240900Y-95758928D01*
X84240900Y-95758925D01*
X84215695Y-95632220D01*
X84214124Y-95628947D01*
X84213873Y-95628362D01*
X84166865Y-95514873D01*
X84166864Y-95514872D01*
X84166861Y-95514866D01*
X84095676Y-95408331D01*
X84095673Y-95408327D01*
X84095668Y-95408321D01*
X84005077Y-95317730D01*
X84005071Y-95317725D01*
X84005070Y-95317724D01*
X83898527Y-95246534D01*
X83898528Y-95246534D01*
X83898518Y-95246529D01*
X83780153Y-95197502D01*
X83780133Y-95197495D01*
X83780125Y-95197493D01*
X83654474Y-95172500D01*
X83654471Y-95172500D01*
X83654469Y-95172500D01*
X82526331Y-95172500D01*
X82526329Y-95172500D01*
X82526326Y-95172500D01*
X82400673Y-95197493D01*
X82400665Y-95197495D01*
X82400645Y-95197502D01*
X82282280Y-95246529D01*
X82282270Y-95246534D01*
X82175728Y-95317724D01*
X82175727Y-95317725D01*
X82175721Y-95317730D01*
X82085130Y-95408321D01*
X82085125Y-95408327D01*
X82085124Y-95408328D01*
X82013934Y-95514870D01*
X82013929Y-95514880D01*
X81964902Y-95633245D01*
X81964895Y-95633265D01*
X81964893Y-95633273D01*
X81939900Y-95758923D01*
X81939900Y-95842702D01*
X81934637Y-95860622D01*
X80060900Y-95860622D01*
X80060900Y-95758928D01*
X80060900Y-95758925D01*
X80035695Y-95632220D01*
X80034124Y-95628947D01*
X80033873Y-95628362D01*
X79986865Y-95514873D01*
X79986864Y-95514872D01*
X79986861Y-95514866D01*
X79915676Y-95408331D01*
X79915673Y-95408327D01*
X79915668Y-95408321D01*
X79825077Y-95317730D01*
X79825071Y-95317725D01*
X79825070Y-95317724D01*
X79718527Y-95246534D01*
X79718528Y-95246534D01*
X79718518Y-95246529D01*
X79600153Y-95197502D01*
X79600133Y-95197495D01*
X79600125Y-95197493D01*
X79474474Y-95172500D01*
X79474471Y-95172500D01*
X79474469Y-95172500D01*
X78346331Y-95172500D01*
X78346329Y-95172500D01*
X78346326Y-95172500D01*
X78220673Y-95197493D01*
X78220665Y-95197495D01*
X78220645Y-95197502D01*
X78102280Y-95246529D01*
X78102270Y-95246534D01*
X77995735Y-95317720D01*
X77995727Y-95317726D01*
X77995717Y-95317734D01*
X77929185Y-95384267D01*
X77900932Y-95405418D01*
X77891008Y-95410837D01*
X77822735Y-95425689D01*
X77757270Y-95401273D01*
X77715399Y-95345339D01*
X77715397Y-95345335D01*
X77712713Y-95338137D01*
X77704900Y-95294817D01*
X77704900Y-94455598D01*
X82114899Y-94455598D01*
X82119431Y-94472511D01*
X82147305Y-94576536D01*
X82209905Y-94684964D01*
X82298436Y-94773495D01*
X82406864Y-94836095D01*
X82527799Y-94868500D01*
X82527801Y-94868500D01*
X82652999Y-94868500D01*
X82653001Y-94868500D01*
X82773936Y-94836095D01*
X82882364Y-94773495D01*
X82970895Y-94684964D01*
X83015604Y-94607525D01*
X87639500Y-94607525D01*
X87639500Y-94752475D01*
X87659746Y-94828035D01*
X87673724Y-94880199D01*
X87677017Y-94892489D01*
X87677018Y-94892491D01*
X87747631Y-95014795D01*
X87749489Y-95018013D01*
X87851985Y-95120509D01*
X87852674Y-95121005D01*
X87855178Y-95122353D01*
X87974069Y-95190995D01*
X87977087Y-95192869D01*
X87977514Y-95192983D01*
X87977515Y-95192984D01*
X88117525Y-95230500D01*
X88117528Y-95230500D01*
X88262472Y-95230500D01*
X88262475Y-95230500D01*
X88402485Y-95192984D01*
X88528015Y-95120509D01*
X88630509Y-95018015D01*
X88702984Y-94892485D01*
X88740500Y-94752475D01*
X88740500Y-94607525D01*
X88702984Y-94467515D01*
X88696105Y-94455601D01*
X88677795Y-94423887D01*
X88630516Y-94341996D01*
X88630508Y-94341984D01*
X88630504Y-94341980D01*
X88597830Y-94309306D01*
X88564095Y-94275571D01*
X88528015Y-94239491D01*
X88507932Y-94227896D01*
X88469890Y-94193773D01*
X88469506Y-94193249D01*
X88467676Y-94190691D01*
X90550500Y-94190691D01*
X90550500Y-94309309D01*
X90581201Y-94423886D01*
X90640511Y-94526613D01*
X90724387Y-94610489D01*
X90827114Y-94669799D01*
X90941691Y-94700500D01*
X90941694Y-94700500D01*
X91060306Y-94700500D01*
X91060309Y-94700500D01*
X91174886Y-94669799D01*
X91277613Y-94610489D01*
X91361489Y-94526613D01*
X91420799Y-94423886D01*
X91451500Y-94309309D01*
X91451500Y-94190691D01*
X91420799Y-94076114D01*
X91361489Y-93973387D01*
X91277613Y-93889511D01*
X91174886Y-93830201D01*
X91060309Y-93799500D01*
X91060306Y-93799500D01*
X90941691Y-93799500D01*
X90850728Y-93823873D01*
X90850723Y-93823874D01*
X90827114Y-93830201D01*
X90827112Y-93830201D01*
X90827112Y-93830202D01*
X90805947Y-93842421D01*
X90805939Y-93842425D01*
X90724386Y-93889511D01*
X90724378Y-93889517D01*
X90640517Y-93973378D01*
X90640513Y-93973383D01*
X90590722Y-94059623D01*
X90581201Y-94076114D01*
X90550500Y-94190691D01*
X88467676Y-94190691D01*
X88467520Y-94190473D01*
X88467318Y-94190261D01*
X88464946Y-94187022D01*
X88454277Y-94157475D01*
X88441882Y-94128619D01*
X88442507Y-94124875D01*
X88441218Y-94121305D01*
X88448216Y-94090685D01*
X88452133Y-94067227D01*
X88450423Y-94066544D01*
X88450734Y-94065766D01*
X88452881Y-94062748D01*
X88453390Y-94059704D01*
X88453429Y-94059623D01*
X88454005Y-94058436D01*
X88455429Y-94059127D01*
X88456786Y-94053192D01*
X88466346Y-94043829D01*
X88484674Y-94018079D01*
X88488461Y-94014797D01*
X88507653Y-94001131D01*
X88578015Y-93960509D01*
X88680509Y-93858015D01*
X88752984Y-93732485D01*
X88790500Y-93592475D01*
X88790500Y-93447525D01*
X88752984Y-93307515D01*
X88752982Y-93307512D01*
X88752983Y-93307512D01*
X88748619Y-93299954D01*
X88748618Y-93299953D01*
X88689351Y-93197300D01*
X88681086Y-93180027D01*
X88671131Y-93154286D01*
X88665308Y-93084664D01*
X88668042Y-93071327D01*
X88682127Y-93034228D01*
X88737984Y-92937485D01*
X88775500Y-92797475D01*
X88775500Y-92652525D01*
X88737984Y-92512515D01*
X88735292Y-92507853D01*
X88722688Y-92486023D01*
X88700181Y-92447038D01*
X88676503Y-92406028D01*
X88663388Y-92373270D01*
X88659701Y-92358069D01*
X88663025Y-92288285D01*
X88667787Y-92274526D01*
X88677576Y-92253094D01*
X88680507Y-92248016D01*
X88680509Y-92248015D01*
X88752984Y-92122485D01*
X88790500Y-91982475D01*
X88790500Y-91837525D01*
X88752984Y-91697515D01*
X88739342Y-91673887D01*
X88680511Y-91571988D01*
X88680506Y-91571982D01*
X88578017Y-91469493D01*
X88578011Y-91469488D01*
X88528134Y-91440691D01*
X96299500Y-91440691D01*
X96299500Y-91559309D01*
X96330201Y-91673886D01*
X96389511Y-91776613D01*
X96473387Y-91860489D01*
X96576114Y-91919799D01*
X96690691Y-91950500D01*
X96690694Y-91950500D01*
X96809306Y-91950500D01*
X96809309Y-91950500D01*
X96923886Y-91919799D01*
X97026613Y-91860489D01*
X97110489Y-91776613D01*
X97169799Y-91673886D01*
X97200500Y-91559309D01*
X97200500Y-91440691D01*
X97169799Y-91326114D01*
X97110489Y-91223387D01*
X97026613Y-91139511D01*
X96942055Y-91090691D01*
X123374500Y-91090691D01*
X123374500Y-91209309D01*
X123405201Y-91323886D01*
X123464511Y-91426613D01*
X123548387Y-91510489D01*
X123651114Y-91569799D01*
X123765691Y-91600500D01*
X123765694Y-91600500D01*
X123884306Y-91600500D01*
X123884309Y-91600500D01*
X123998886Y-91569799D01*
X124101613Y-91510489D01*
X124185489Y-91426613D01*
X124244799Y-91323886D01*
X124275500Y-91209309D01*
X124275500Y-91090691D01*
X124244799Y-90976114D01*
X124185489Y-90873387D01*
X124101613Y-90789511D01*
X123998886Y-90730201D01*
X123884309Y-90699500D01*
X123884306Y-90699500D01*
X123765691Y-90699500D01*
X123674728Y-90723873D01*
X123674723Y-90723874D01*
X123651114Y-90730201D01*
X123651112Y-90730201D01*
X123651112Y-90730202D01*
X123629947Y-90742421D01*
X123629939Y-90742425D01*
X123548386Y-90789511D01*
X123548378Y-90789517D01*
X123464517Y-90873378D01*
X123464513Y-90873383D01*
X123464507Y-90873392D01*
X123443091Y-90910487D01*
X123405201Y-90976113D01*
X123404397Y-90979114D01*
X123374500Y-91090691D01*
X96942055Y-91090691D01*
X96923886Y-91080201D01*
X96809309Y-91049500D01*
X96809306Y-91049500D01*
X96690691Y-91049500D01*
X96599728Y-91073873D01*
X96599723Y-91073874D01*
X96576114Y-91080201D01*
X96576112Y-91080201D01*
X96576112Y-91080202D01*
X96554947Y-91092421D01*
X96554939Y-91092425D01*
X96473386Y-91139511D01*
X96473378Y-91139517D01*
X96389517Y-91223378D01*
X96389513Y-91223383D01*
X96389511Y-91223387D01*
X96330201Y-91326114D01*
X96299500Y-91440691D01*
X88528134Y-91440691D01*
X88516787Y-91434140D01*
X88510005Y-91428853D01*
X88495390Y-91408512D01*
X88441007Y-91393939D01*
X88441007Y-91393940D01*
X88376740Y-91376720D01*
X88312475Y-91359500D01*
X88312474Y-91359500D01*
X88167525Y-91359500D01*
X88038994Y-91393939D01*
X88038993Y-91393940D01*
X88031338Y-91395991D01*
X88027510Y-91397017D01*
X87901991Y-91469485D01*
X87901984Y-91469490D01*
X87901968Y-91469505D01*
X87799505Y-91571968D01*
X87799490Y-91571984D01*
X87799485Y-91571992D01*
X87727017Y-91697509D01*
X87726989Y-91697578D01*
X87726748Y-91698511D01*
X87689500Y-91837525D01*
X87689500Y-91982474D01*
X87720260Y-92097274D01*
X87727015Y-92122484D01*
X87727016Y-92122487D01*
X87788494Y-92228968D01*
X87801611Y-92261732D01*
X87805297Y-92276925D01*
X87801973Y-92346714D01*
X87797062Y-92360904D01*
X87786002Y-92383170D01*
X87786520Y-92383470D01*
X87712017Y-92512510D01*
X87709202Y-92523016D01*
X87709202Y-92523017D01*
X87674500Y-92652525D01*
X87674500Y-92797475D01*
X87678508Y-92812432D01*
X87695537Y-92875988D01*
X87712015Y-92937484D01*
X87712016Y-92937487D01*
X87763556Y-93026756D01*
X87775232Y-93046979D01*
X87775650Y-93047702D01*
X87783917Y-93064980D01*
X87786367Y-93071315D01*
X87786367Y-93071316D01*
X87791528Y-93084664D01*
X87793869Y-93090716D01*
X87799688Y-93160343D01*
X87799688Y-93160346D01*
X87796954Y-93173680D01*
X87782868Y-93210773D01*
X87727017Y-93307509D01*
X87726989Y-93307578D01*
X87726748Y-93308511D01*
X87708500Y-93376615D01*
X87689500Y-93447525D01*
X87689500Y-93592475D01*
X87724479Y-93723017D01*
X87727017Y-93732488D01*
X87790489Y-93842425D01*
X87797635Y-93854801D01*
X87797637Y-93854805D01*
X87799488Y-93858012D01*
X87901985Y-93960509D01*
X87902677Y-93961008D01*
X87905202Y-93962366D01*
X87914676Y-93967836D01*
X87917152Y-93969266D01*
X87944892Y-93991081D01*
X87954470Y-94001126D01*
X87986486Y-94063228D01*
X87979845Y-94132781D01*
X87979837Y-94132801D01*
X87979233Y-94134309D01*
X87945323Y-94181919D01*
X87941534Y-94185202D01*
X87922335Y-94198874D01*
X87851981Y-94239493D01*
X87851976Y-94239497D01*
X87749505Y-94341968D01*
X87749490Y-94341984D01*
X87749485Y-94341992D01*
X87678287Y-94465308D01*
X87678286Y-94465312D01*
X87677017Y-94467511D01*
X87677016Y-94467515D01*
X87639500Y-94607525D01*
X83015604Y-94607525D01*
X83033495Y-94576536D01*
X83065900Y-94455601D01*
X83065900Y-94330399D01*
X83033495Y-94209464D01*
X82970895Y-94101036D01*
X82882364Y-94012505D01*
X82882363Y-94012504D01*
X82882360Y-94012502D01*
X82845690Y-93991331D01*
X82817259Y-93961513D01*
X82733624Y-93939103D01*
X82733624Y-93939102D01*
X82660558Y-93919525D01*
X82653001Y-93917500D01*
X82653000Y-93917500D01*
X82527799Y-93917500D01*
X82447174Y-93939103D01*
X82447173Y-93939102D01*
X82406869Y-93949902D01*
X82406862Y-93949905D01*
X82298435Y-94012504D01*
X82298433Y-94012506D01*
X82298428Y-94012510D01*
X82209910Y-94101028D01*
X82209906Y-94101033D01*
X82209904Y-94101035D01*
X82147305Y-94209462D01*
X82147303Y-94209467D01*
X82137919Y-94244486D01*
X82137920Y-94244487D01*
X82114900Y-94330399D01*
X82114900Y-94455597D01*
X82114899Y-94455598D01*
X77704900Y-94455598D01*
X77704900Y-92293691D01*
X84249500Y-92293691D01*
X84249500Y-92412309D01*
X84280201Y-92526886D01*
X84339511Y-92629613D01*
X84423387Y-92713489D01*
X84526114Y-92772799D01*
X84640691Y-92803500D01*
X84640694Y-92803500D01*
X84747335Y-92803500D01*
X84782267Y-92808521D01*
X84795586Y-92812432D01*
X84854364Y-92850206D01*
X84883390Y-92913761D01*
X84883391Y-92913772D01*
X84884600Y-92922185D01*
X84881636Y-92971914D01*
X84863209Y-93040686D01*
X84863209Y-93159305D01*
X84863208Y-93159305D01*
X84863209Y-93159308D01*
X84863209Y-93159309D01*
X84893910Y-93273886D01*
X84953220Y-93376613D01*
X85037096Y-93460489D01*
X85139823Y-93519799D01*
X85254400Y-93550500D01*
X85254403Y-93550500D01*
X85373015Y-93550500D01*
X85373018Y-93550500D01*
X85487595Y-93519799D01*
X85590322Y-93460489D01*
X85674198Y-93376613D01*
X85733508Y-93273886D01*
X85764209Y-93159309D01*
X85764209Y-93040691D01*
X85733508Y-92926114D01*
X85674198Y-92823387D01*
X85590322Y-92739511D01*
X85487595Y-92680201D01*
X85373018Y-92649500D01*
X85373015Y-92649500D01*
X85266374Y-92649500D01*
X85231435Y-92644476D01*
X85218117Y-92640565D01*
X85159340Y-92602789D01*
X85130318Y-92539235D01*
X85130270Y-92538904D01*
X85129108Y-92530817D01*
X85132071Y-92481080D01*
X85150500Y-92412309D01*
X85150500Y-92293691D01*
X85119799Y-92179114D01*
X85060489Y-92076387D01*
X84976613Y-91992511D01*
X84873886Y-91933201D01*
X84759309Y-91902500D01*
X84759306Y-91902500D01*
X84640691Y-91902500D01*
X84549728Y-91926873D01*
X84549723Y-91926874D01*
X84526114Y-91933201D01*
X84526112Y-91933201D01*
X84526112Y-91933202D01*
X84504947Y-91945421D01*
X84504939Y-91945425D01*
X84423386Y-91992511D01*
X84423378Y-91992517D01*
X84339517Y-92076378D01*
X84339513Y-92076383D01*
X84339507Y-92076392D01*
X84318647Y-92112524D01*
X84280201Y-92179113D01*
X84280201Y-92179114D01*
X84249500Y-92293691D01*
X77704900Y-92293691D01*
X77704900Y-91093691D01*
X84249500Y-91093691D01*
X84249500Y-91212309D01*
X84280201Y-91326886D01*
X84339511Y-91429613D01*
X84423387Y-91513489D01*
X84526114Y-91572799D01*
X84640691Y-91603500D01*
X84640694Y-91603500D01*
X84759306Y-91603500D01*
X84759309Y-91603500D01*
X84873886Y-91572799D01*
X84976613Y-91513489D01*
X85060489Y-91429613D01*
X85119799Y-91326886D01*
X85150500Y-91212309D01*
X85150500Y-91093691D01*
X85119799Y-90979114D01*
X85066528Y-90886846D01*
X85058260Y-90869564D01*
X85049880Y-90847887D01*
X85044067Y-90778259D01*
X85076819Y-90716544D01*
X85080482Y-90712793D01*
X85137106Y-90679653D01*
X85173886Y-90669799D01*
X85276613Y-90610489D01*
X85360489Y-90526613D01*
X85419799Y-90423886D01*
X85437104Y-90359305D01*
X93249499Y-90359305D01*
X93249500Y-90359307D01*
X93249500Y-90359309D01*
X93280201Y-90473886D01*
X93339511Y-90576613D01*
X93423387Y-90660489D01*
X93526114Y-90719799D01*
X93640691Y-90750500D01*
X93640694Y-90750500D01*
X93759306Y-90750500D01*
X93759309Y-90750500D01*
X93873886Y-90719799D01*
X93976613Y-90660489D01*
X94060489Y-90576613D01*
X94119799Y-90473886D01*
X94150500Y-90359309D01*
X94150500Y-90359305D01*
X94499499Y-90359305D01*
X94499500Y-90359307D01*
X94499500Y-90359309D01*
X94530201Y-90473886D01*
X94589511Y-90576613D01*
X94673387Y-90660489D01*
X94776114Y-90719799D01*
X94890691Y-90750500D01*
X94890694Y-90750500D01*
X95009306Y-90750500D01*
X95009309Y-90750500D01*
X95123886Y-90719799D01*
X95226613Y-90660489D01*
X95310489Y-90576613D01*
X95360097Y-90490691D01*
X99699500Y-90490691D01*
X99699500Y-90609309D01*
X99730201Y-90723886D01*
X99789511Y-90826613D01*
X99873387Y-90910489D01*
X99976114Y-90969799D01*
X100090691Y-91000500D01*
X100090694Y-91000500D01*
X100209306Y-91000500D01*
X100209309Y-91000500D01*
X100323886Y-90969799D01*
X100426613Y-90910489D01*
X100510489Y-90826613D01*
X100569799Y-90723886D01*
X100600500Y-90609309D01*
X100600500Y-90490691D01*
X101099500Y-90490691D01*
X101099500Y-90609309D01*
X101130201Y-90723886D01*
X101189511Y-90826613D01*
X101273387Y-90910489D01*
X101376114Y-90969799D01*
X101490691Y-91000500D01*
X101490694Y-91000500D01*
X101609306Y-91000500D01*
X101609309Y-91000500D01*
X101723886Y-90969799D01*
X101826613Y-90910489D01*
X101910489Y-90826613D01*
X101969799Y-90723886D01*
X102000500Y-90609309D01*
X102000500Y-90490691D01*
X101969799Y-90376114D01*
X101910489Y-90273387D01*
X101826613Y-90189511D01*
X101723886Y-90130201D01*
X101609309Y-90099500D01*
X101609306Y-90099500D01*
X101490691Y-90099500D01*
X101399728Y-90123873D01*
X101399723Y-90123874D01*
X101376114Y-90130201D01*
X101376112Y-90130201D01*
X101376112Y-90130202D01*
X101354947Y-90142421D01*
X101354939Y-90142425D01*
X101273386Y-90189511D01*
X101273378Y-90189517D01*
X101189517Y-90273378D01*
X101189513Y-90273383D01*
X101189507Y-90273392D01*
X101150783Y-90340464D01*
X101150782Y-90340466D01*
X101139905Y-90359307D01*
X101130201Y-90376114D01*
X101099500Y-90490691D01*
X100600500Y-90490691D01*
X100569799Y-90376114D01*
X100510489Y-90273387D01*
X100426613Y-90189511D01*
X100323886Y-90130201D01*
X100209309Y-90099500D01*
X100209306Y-90099500D01*
X100090691Y-90099500D01*
X99999728Y-90123873D01*
X99999723Y-90123874D01*
X99976114Y-90130201D01*
X99976112Y-90130201D01*
X99976112Y-90130202D01*
X99954947Y-90142421D01*
X99954939Y-90142425D01*
X99873386Y-90189511D01*
X99873378Y-90189517D01*
X99789517Y-90273378D01*
X99789513Y-90273383D01*
X99789507Y-90273392D01*
X99750783Y-90340464D01*
X99750782Y-90340466D01*
X99739905Y-90359307D01*
X99730201Y-90376114D01*
X99699500Y-90490691D01*
X95360097Y-90490691D01*
X95369799Y-90473886D01*
X95400500Y-90359309D01*
X95400500Y-90240691D01*
X95369799Y-90126114D01*
X95310489Y-90023387D01*
X95226613Y-89939511D01*
X95123886Y-89880201D01*
X95009309Y-89849500D01*
X95009306Y-89849500D01*
X94890691Y-89849500D01*
X94799728Y-89873873D01*
X94799723Y-89873874D01*
X94776114Y-89880201D01*
X94776112Y-89880201D01*
X94776112Y-89880202D01*
X94754947Y-89892421D01*
X94754939Y-89892425D01*
X94673386Y-89939511D01*
X94673378Y-89939517D01*
X94589517Y-90023378D01*
X94589513Y-90023383D01*
X94578868Y-90041821D01*
X94530201Y-90126114D01*
X94499500Y-90240691D01*
X94499500Y-90240693D01*
X94499500Y-90359305D01*
X94499499Y-90359305D01*
X94150500Y-90359305D01*
X94150500Y-90240691D01*
X94119799Y-90126114D01*
X94060489Y-90023387D01*
X93976613Y-89939511D01*
X93873886Y-89880201D01*
X93759309Y-89849500D01*
X93759306Y-89849500D01*
X93640691Y-89849500D01*
X93549728Y-89873873D01*
X93549723Y-89873874D01*
X93526114Y-89880201D01*
X93526112Y-89880201D01*
X93526112Y-89880202D01*
X93504947Y-89892421D01*
X93504939Y-89892425D01*
X93423386Y-89939511D01*
X93423378Y-89939517D01*
X93339517Y-90023378D01*
X93339513Y-90023383D01*
X93328868Y-90041821D01*
X93280201Y-90126114D01*
X93249500Y-90240691D01*
X93249500Y-90240693D01*
X93249500Y-90359305D01*
X93249499Y-90359305D01*
X85437104Y-90359305D01*
X85450500Y-90309309D01*
X85450500Y-90190691D01*
X85419799Y-90076114D01*
X85360489Y-89973387D01*
X85276613Y-89889511D01*
X85173886Y-89830201D01*
X85059309Y-89799500D01*
X85059306Y-89799500D01*
X84940691Y-89799500D01*
X84849728Y-89823873D01*
X84849723Y-89823874D01*
X84826114Y-89830201D01*
X84826112Y-89830201D01*
X84826112Y-89830202D01*
X84804947Y-89842421D01*
X84804939Y-89842425D01*
X84723386Y-89889511D01*
X84723378Y-89889517D01*
X84639517Y-89973378D01*
X84639513Y-89973383D01*
X84639512Y-89973385D01*
X84639511Y-89973387D01*
X84608754Y-90026660D01*
X84580201Y-90076114D01*
X84549500Y-90190691D01*
X84549500Y-90309309D01*
X84573539Y-90399022D01*
X84580202Y-90423889D01*
X84633466Y-90516144D01*
X84641738Y-90533433D01*
X84650119Y-90555113D01*
X84655931Y-90624740D01*
X84623177Y-90686457D01*
X84623165Y-90686469D01*
X84619506Y-90690215D01*
X84562895Y-90723345D01*
X84527926Y-90732715D01*
X84526229Y-90733142D01*
X84526122Y-90733196D01*
X84526101Y-90733206D01*
X84423397Y-90792504D01*
X84423383Y-90792513D01*
X84423378Y-90792517D01*
X84339517Y-90876378D01*
X84339513Y-90876383D01*
X84281933Y-90976114D01*
X84280201Y-90979114D01*
X84249500Y-91093691D01*
X77704900Y-91093691D01*
X77704900Y-88550399D01*
X82114900Y-88550399D01*
X82114900Y-88675601D01*
X82147305Y-88796536D01*
X82209905Y-88904964D01*
X82298436Y-88993495D01*
X82406864Y-89056095D01*
X82527799Y-89088500D01*
X82527801Y-89088500D01*
X82652999Y-89088500D01*
X82653001Y-89088500D01*
X82773936Y-89056095D01*
X82882364Y-88993495D01*
X82970895Y-88904964D01*
X83033495Y-88796536D01*
X83065900Y-88675601D01*
X83065900Y-88550399D01*
X83033495Y-88429464D01*
X82970895Y-88321036D01*
X82882364Y-88232505D01*
X82882363Y-88232504D01*
X82882360Y-88232502D01*
X82845690Y-88211331D01*
X82817259Y-88181513D01*
X82733624Y-88159103D01*
X82733624Y-88159102D01*
X82670037Y-88142065D01*
X82653001Y-88137500D01*
X82653000Y-88137500D01*
X82527799Y-88137500D01*
X82447174Y-88159103D01*
X82447173Y-88159102D01*
X82406869Y-88169902D01*
X82406862Y-88169905D01*
X82298435Y-88232504D01*
X82298433Y-88232506D01*
X82298428Y-88232510D01*
X82209910Y-88321028D01*
X82209906Y-88321033D01*
X82209902Y-88321039D01*
X82209900Y-88321041D01*
X82148757Y-88426946D01*
X82148756Y-88426948D01*
X82147305Y-88429463D01*
X82147305Y-88429464D01*
X82114900Y-88550399D01*
X77704900Y-88550399D01*
X77704900Y-87714637D01*
X77709921Y-87679710D01*
X77713107Y-87668857D01*
X77750877Y-87610076D01*
X77814431Y-87581047D01*
X77883586Y-87590985D01*
X77890572Y-87594175D01*
X77926739Y-87619285D01*
X77995727Y-87688273D01*
X77995731Y-87688276D01*
X78102266Y-87759461D01*
X78102272Y-87759464D01*
X78102273Y-87759465D01*
X78215762Y-87806473D01*
X78216347Y-87806724D01*
X78216541Y-87806884D01*
X78219453Y-87808261D01*
X78220652Y-87808499D01*
X78220656Y-87808501D01*
X78220659Y-87808501D01*
X78220660Y-87808501D01*
X78220661Y-87808502D01*
X78303804Y-87825041D01*
X78346327Y-87833500D01*
X79474471Y-87833500D01*
X79474473Y-87833500D01*
X79559015Y-87816682D01*
X79600144Y-87808501D01*
X79718527Y-87759465D01*
X79825069Y-87688276D01*
X79915676Y-87597669D01*
X79986865Y-87491127D01*
X79988108Y-87488128D01*
X80004566Y-87448392D01*
X80035901Y-87372744D01*
X80050237Y-87300676D01*
X80060900Y-87247071D01*
X80060900Y-87220622D01*
X81934637Y-87220622D01*
X81964894Y-87372726D01*
X81964895Y-87372732D01*
X81964902Y-87372753D01*
X82013929Y-87491118D01*
X82013932Y-87491123D01*
X82013934Y-87491127D01*
X82085124Y-87597670D01*
X82085125Y-87597671D01*
X82085130Y-87597677D01*
X82175721Y-87688268D01*
X82175727Y-87688273D01*
X82175731Y-87688276D01*
X82282266Y-87759461D01*
X82282272Y-87759464D01*
X82282273Y-87759465D01*
X82395762Y-87806473D01*
X82396347Y-87806724D01*
X82396541Y-87806884D01*
X82399453Y-87808261D01*
X82400652Y-87808499D01*
X82400656Y-87808501D01*
X82400659Y-87808501D01*
X82400660Y-87808501D01*
X82400661Y-87808502D01*
X82483804Y-87825041D01*
X82526327Y-87833500D01*
X83654471Y-87833500D01*
X83654473Y-87833500D01*
X83739015Y-87816682D01*
X83780144Y-87808501D01*
X83898527Y-87759465D01*
X84005069Y-87688276D01*
X84095676Y-87597669D01*
X84166865Y-87491127D01*
X84168108Y-87488128D01*
X84184566Y-87448392D01*
X84215901Y-87372744D01*
X84230237Y-87300676D01*
X84240900Y-87247071D01*
X84240900Y-87118928D01*
X84240900Y-87118925D01*
X84215662Y-86992054D01*
X84213575Y-86987641D01*
X84212332Y-86984641D01*
X84177974Y-86901692D01*
X84166866Y-86874875D01*
X84166861Y-86874866D01*
X84095676Y-86768331D01*
X84095673Y-86768327D01*
X84095668Y-86768321D01*
X84005077Y-86677730D01*
X84005071Y-86677725D01*
X84005070Y-86677724D01*
X83898527Y-86606534D01*
X83898528Y-86606534D01*
X83898518Y-86606529D01*
X83780153Y-86557502D01*
X83780133Y-86557495D01*
X83780125Y-86557493D01*
X83654474Y-86532500D01*
X83654471Y-86532500D01*
X83654469Y-86532500D01*
X82526331Y-86532500D01*
X82526329Y-86532500D01*
X82526326Y-86532500D01*
X82400673Y-86557493D01*
X82400665Y-86557495D01*
X82400645Y-86557502D01*
X82282280Y-86606529D01*
X82282270Y-86606534D01*
X82175728Y-86677724D01*
X82175727Y-86677725D01*
X82175721Y-86677730D01*
X82085130Y-86768321D01*
X82085125Y-86768327D01*
X82085124Y-86768328D01*
X82013934Y-86874870D01*
X82013929Y-86874880D01*
X81964902Y-86993245D01*
X81964895Y-86993265D01*
X81964893Y-86993273D01*
X81939900Y-87118923D01*
X81939900Y-87202702D01*
X81934637Y-87220622D01*
X80060900Y-87220622D01*
X80060900Y-87118928D01*
X80060900Y-87118925D01*
X80035662Y-86992054D01*
X80033575Y-86987641D01*
X80032332Y-86984641D01*
X79997974Y-86901692D01*
X79986866Y-86874875D01*
X79986861Y-86874866D01*
X79915676Y-86768331D01*
X79915673Y-86768327D01*
X79915668Y-86768321D01*
X79825077Y-86677730D01*
X79825071Y-86677725D01*
X79825070Y-86677724D01*
X79718527Y-86606534D01*
X79718528Y-86606534D01*
X79718518Y-86606529D01*
X79600153Y-86557502D01*
X79600133Y-86557495D01*
X79600125Y-86557493D01*
X79474474Y-86532500D01*
X79474471Y-86532500D01*
X79474469Y-86532500D01*
X78346331Y-86532500D01*
X78346329Y-86532500D01*
X78346326Y-86532500D01*
X78220673Y-86557493D01*
X78220665Y-86557495D01*
X78220645Y-86557502D01*
X78102280Y-86606529D01*
X78102270Y-86606534D01*
X77995735Y-86677720D01*
X77995727Y-86677726D01*
X77995717Y-86677734D01*
X77929185Y-86744267D01*
X77900932Y-86765418D01*
X77891008Y-86770837D01*
X77822735Y-86785689D01*
X77757270Y-86761273D01*
X77715399Y-86705339D01*
X77715397Y-86705335D01*
X77712713Y-86698137D01*
X77704900Y-86654817D01*
X77704900Y-85627525D01*
X81299500Y-85627525D01*
X81299500Y-85772475D01*
X81300888Y-85777654D01*
X81337013Y-85912477D01*
X81337016Y-85912485D01*
X81337017Y-85912488D01*
X81372368Y-85973717D01*
X81407631Y-86034795D01*
X81409489Y-86038013D01*
X81511985Y-86140509D01*
X81512674Y-86141005D01*
X81515178Y-86142353D01*
X81634069Y-86210995D01*
X81637087Y-86212869D01*
X81637514Y-86212983D01*
X81637515Y-86212984D01*
X81777525Y-86250500D01*
X81777528Y-86250500D01*
X81922472Y-86250500D01*
X81922475Y-86250500D01*
X82062485Y-86212984D01*
X82188015Y-86140509D01*
X82290509Y-86038015D01*
X82362984Y-85912485D01*
X82400500Y-85772475D01*
X82400500Y-85740691D01*
X101949500Y-85740691D01*
X101949500Y-85859309D01*
X101980201Y-85973886D01*
X102039511Y-86076613D01*
X102123387Y-86160489D01*
X102226114Y-86219799D01*
X102340691Y-86250500D01*
X102340694Y-86250500D01*
X102459306Y-86250500D01*
X102459309Y-86250500D01*
X102573886Y-86219799D01*
X102676613Y-86160489D01*
X102760489Y-86076613D01*
X102783702Y-86036406D01*
X102805508Y-86008676D01*
X102815563Y-85999089D01*
X102877661Y-85967076D01*
X102947211Y-85973716D01*
X102948756Y-85974335D01*
X102996345Y-86008230D01*
X102999629Y-86012020D01*
X103013305Y-86031225D01*
X103039509Y-86076611D01*
X103039510Y-86076612D01*
X103039511Y-86076613D01*
X103123387Y-86160489D01*
X103226114Y-86219799D01*
X103340691Y-86250500D01*
X103340694Y-86250500D01*
X103459306Y-86250500D01*
X103459309Y-86250500D01*
X103573886Y-86219799D01*
X103676613Y-86160489D01*
X103760489Y-86076613D01*
X103819799Y-85973886D01*
X103850500Y-85859309D01*
X103850500Y-85740691D01*
X103819799Y-85626114D01*
X103760489Y-85523387D01*
X103676613Y-85439511D01*
X103573886Y-85380201D01*
X103459309Y-85349500D01*
X103459306Y-85349500D01*
X103340691Y-85349500D01*
X103249728Y-85373873D01*
X103249723Y-85373874D01*
X103226114Y-85380201D01*
X103226112Y-85380201D01*
X103226112Y-85380202D01*
X103204947Y-85392421D01*
X103204939Y-85392425D01*
X103123386Y-85439511D01*
X103123378Y-85439517D01*
X103039517Y-85523378D01*
X103039511Y-85523385D01*
X103016299Y-85563589D01*
X102994487Y-85591326D01*
X102988589Y-85596949D01*
X102984443Y-85600902D01*
X102922344Y-85632921D01*
X102852791Y-85626283D01*
X102852779Y-85626278D01*
X102851268Y-85625673D01*
X102803654Y-85591768D01*
X102800372Y-85587981D01*
X102786695Y-85568777D01*
X102760489Y-85523387D01*
X102676613Y-85439511D01*
X102573886Y-85380201D01*
X102459309Y-85349500D01*
X102459306Y-85349500D01*
X102340691Y-85349500D01*
X102249728Y-85373873D01*
X102249723Y-85373874D01*
X102226114Y-85380201D01*
X102226112Y-85380201D01*
X102226112Y-85380202D01*
X102204947Y-85392421D01*
X102204939Y-85392425D01*
X102123386Y-85439511D01*
X102123378Y-85439517D01*
X102039517Y-85523378D01*
X102039513Y-85523383D01*
X102039507Y-85523392D01*
X102004793Y-85583518D01*
X102004792Y-85583521D01*
X101994196Y-85601875D01*
X101980201Y-85626114D01*
X101949500Y-85740691D01*
X82400500Y-85740691D01*
X82400500Y-85627525D01*
X82362984Y-85487515D01*
X82358367Y-85479519D01*
X82315185Y-85404725D01*
X82290513Y-85361991D01*
X82290508Y-85361984D01*
X82290493Y-85361968D01*
X82188030Y-85259505D01*
X82188014Y-85259490D01*
X82188011Y-85259488D01*
X82134241Y-85228444D01*
X82105807Y-85198623D01*
X82021053Y-85175914D01*
X81955854Y-85158444D01*
X81922475Y-85149500D01*
X81922474Y-85149500D01*
X81777525Y-85149500D01*
X81678947Y-85175914D01*
X81678946Y-85175913D01*
X81637512Y-85187016D01*
X81637507Y-85187018D01*
X81511992Y-85259485D01*
X81511984Y-85259490D01*
X81511968Y-85259505D01*
X81409505Y-85361968D01*
X81409490Y-85361984D01*
X81409485Y-85361992D01*
X81338287Y-85485308D01*
X81338286Y-85485312D01*
X81337017Y-85487511D01*
X81337016Y-85487515D01*
X81299500Y-85627525D01*
X77704900Y-85627525D01*
X77704900Y-83520954D01*
X77716371Y-83481885D01*
X77723670Y-83450979D01*
X77749865Y-83425694D01*
X77750836Y-83424611D01*
X77751781Y-83423844D01*
X77773942Y-83402455D01*
X77842467Y-83388814D01*
X77907489Y-83414385D01*
X77932000Y-83439780D01*
X77934995Y-83443932D01*
X77948990Y-83469021D01*
X77979873Y-83543579D01*
X78041777Y-83693029D01*
X78041781Y-83693037D01*
X78116387Y-83822257D01*
X78195838Y-83959870D01*
X78195840Y-83959873D01*
X78195841Y-83959874D01*
X78201720Y-83967536D01*
X78201721Y-83967537D01*
X78383400Y-84204307D01*
X78383404Y-84204312D01*
X78383407Y-84204315D01*
X78383413Y-84204322D01*
X78601277Y-84422186D01*
X78601284Y-84422192D01*
X78601287Y-84422194D01*
X78601291Y-84422198D01*
X78665486Y-84471456D01*
X78698708Y-84496948D01*
X78700330Y-84498192D01*
X78700331Y-84498194D01*
X78845730Y-84609762D01*
X78958253Y-84674727D01*
X79109122Y-84761832D01*
X79110860Y-84762912D01*
X79112282Y-84763701D01*
X79112556Y-84763814D01*
X79112562Y-84763818D01*
X79112567Y-84763820D01*
X79112570Y-84763822D01*
X79397236Y-84881735D01*
X79694856Y-84961482D01*
X80000340Y-85001700D01*
X80000347Y-85001700D01*
X80308453Y-85001700D01*
X80308460Y-85001700D01*
X80613944Y-84961482D01*
X80691537Y-84940691D01*
X93349500Y-84940691D01*
X93349500Y-85059309D01*
X93380201Y-85173886D01*
X93439511Y-85276613D01*
X93523387Y-85360489D01*
X93626114Y-85419799D01*
X93740691Y-85450500D01*
X93740694Y-85450500D01*
X93859306Y-85450500D01*
X93859309Y-85450500D01*
X93973886Y-85419799D01*
X94076613Y-85360489D01*
X94160489Y-85276613D01*
X94219799Y-85173886D01*
X94250500Y-85059309D01*
X94250500Y-84940691D01*
X94219799Y-84826114D01*
X94160489Y-84723387D01*
X94076613Y-84639511D01*
X93973886Y-84580201D01*
X93859309Y-84549500D01*
X93859306Y-84549500D01*
X93740691Y-84549500D01*
X93649728Y-84573873D01*
X93649723Y-84573874D01*
X93626114Y-84580201D01*
X93626112Y-84580201D01*
X93626112Y-84580202D01*
X93604947Y-84592421D01*
X93604939Y-84592425D01*
X93523386Y-84639511D01*
X93523378Y-84639517D01*
X93439517Y-84723378D01*
X93439513Y-84723383D01*
X93394323Y-84801654D01*
X93380201Y-84826114D01*
X93349500Y-84940691D01*
X80691537Y-84940691D01*
X80911564Y-84881735D01*
X81196230Y-84763822D01*
X81463070Y-84609762D01*
X81707517Y-84422191D01*
X81925391Y-84204317D01*
X82112962Y-83959870D01*
X82267022Y-83693030D01*
X82384935Y-83408364D01*
X82464682Y-83110744D01*
X82504900Y-82805260D01*
X82504900Y-82497140D01*
X82464682Y-82191656D01*
X82384935Y-81894036D01*
X82267022Y-81609370D01*
X82267020Y-81609367D01*
X82267018Y-81609362D01*
X82267014Y-81609356D01*
X82266901Y-81609082D01*
X82266112Y-81607660D01*
X82265032Y-81605922D01*
X82180739Y-81459923D01*
X82183192Y-81458506D01*
X82175331Y-81449434D01*
X82166757Y-81389806D01*
X82164833Y-81388886D01*
X82115219Y-81345907D01*
X82112964Y-81342532D01*
X81973287Y-81160501D01*
X81973283Y-81160498D01*
X81964718Y-81149336D01*
X81925392Y-81098084D01*
X81925386Y-81098077D01*
X81707522Y-80880213D01*
X81707515Y-80880207D01*
X81707512Y-80880204D01*
X81707507Y-80880200D01*
X81470775Y-80698550D01*
X81470774Y-80698549D01*
X81463074Y-80692641D01*
X81463073Y-80692640D01*
X81463070Y-80692638D01*
X81308296Y-80603279D01*
X81255621Y-80572867D01*
X81196246Y-80538586D01*
X81196229Y-80538577D01*
X80936002Y-80430787D01*
X80904284Y-80405227D01*
X80878553Y-80386700D01*
X80865565Y-80353760D01*
X80864747Y-80352066D01*
X80864254Y-80350435D01*
X80852925Y-80321700D01*
X80866507Y-80253164D01*
X80914987Y-80202850D01*
X80947816Y-80189905D01*
X80952790Y-80188726D01*
X80981199Y-80185383D01*
X82380826Y-80183303D01*
X82415764Y-80188274D01*
X82422640Y-80190282D01*
X82426620Y-80191444D01*
X82485455Y-80229130D01*
X82514574Y-80292643D01*
X82504737Y-80361810D01*
X82501586Y-80368738D01*
X82476394Y-80405082D01*
X82389485Y-80491991D01*
X82317017Y-80617509D01*
X82316989Y-80617578D01*
X82316748Y-80618511D01*
X82286668Y-80730775D01*
X82279500Y-80757525D01*
X82279500Y-80902475D01*
X82281552Y-80910132D01*
X82317013Y-81042477D01*
X82317016Y-81042485D01*
X82317017Y-81042488D01*
X82349123Y-81098097D01*
X82387631Y-81164795D01*
X82389489Y-81168013D01*
X82491985Y-81270509D01*
X82492674Y-81271005D01*
X82495178Y-81272353D01*
X82614069Y-81340995D01*
X82617087Y-81342869D01*
X82617514Y-81342983D01*
X82617515Y-81342984D01*
X82757525Y-81380500D01*
X82757528Y-81380500D01*
X82902472Y-81380500D01*
X82902475Y-81380500D01*
X83042485Y-81342984D01*
X83168015Y-81270509D01*
X83270509Y-81168015D01*
X83342984Y-81042485D01*
X83380500Y-80902475D01*
X83380500Y-80757525D01*
X83342984Y-80617515D01*
X83317202Y-80572860D01*
X83270511Y-80491988D01*
X83270506Y-80491982D01*
X83179711Y-80401187D01*
X83175242Y-80395538D01*
X83173461Y-80391127D01*
X83163658Y-80378032D01*
X83158236Y-80368102D01*
X83151309Y-80336258D01*
X83149085Y-80330749D01*
X83149562Y-80328230D01*
X83143385Y-80299831D01*
X83167802Y-80234367D01*
X83223731Y-80192497D01*
X83230991Y-80189789D01*
X83274128Y-80181975D01*
X86357287Y-80177392D01*
X86392224Y-80182363D01*
X86405546Y-80186253D01*
X86464381Y-80223939D01*
X86493501Y-80287451D01*
X86493511Y-80287515D01*
X86493737Y-80289076D01*
X86488232Y-80347296D01*
X86486572Y-80352106D01*
X86476745Y-80373650D01*
X86470648Y-80384210D01*
X86467769Y-80394958D01*
X86467084Y-80397513D01*
X86433131Y-80524227D01*
X86433131Y-80669177D01*
X86440942Y-80698328D01*
X86463121Y-80781102D01*
X86470647Y-80809188D01*
X86470649Y-80809193D01*
X86541262Y-80931497D01*
X86543120Y-80934715D01*
X86645616Y-81037211D01*
X86646305Y-81037707D01*
X86648809Y-81039055D01*
X86767700Y-81107697D01*
X86770718Y-81109571D01*
X86771145Y-81109685D01*
X86771146Y-81109686D01*
X86911156Y-81147202D01*
X86911159Y-81147202D01*
X87056103Y-81147202D01*
X87056106Y-81147202D01*
X87196116Y-81109686D01*
X87321646Y-81037211D01*
X87424140Y-80934717D01*
X87496615Y-80809187D01*
X87534131Y-80669177D01*
X87534131Y-80524227D01*
X87496615Y-80384217D01*
X87495091Y-80381577D01*
X87494939Y-80381313D01*
X87494939Y-80381312D01*
X87492453Y-80377008D01*
X87479331Y-80344236D01*
X87476058Y-80330744D01*
X87479382Y-80260955D01*
X87519907Y-80204044D01*
X87521269Y-80202973D01*
X87574313Y-80178736D01*
X87579157Y-80177799D01*
X87602525Y-80175541D01*
X88266506Y-80174554D01*
X88301443Y-80179525D01*
X88314765Y-80183415D01*
X88373600Y-80221101D01*
X88402720Y-80284611D01*
X88402947Y-80286173D01*
X88397440Y-80344494D01*
X88395777Y-80349308D01*
X88385962Y-80370817D01*
X88376998Y-80386343D01*
X88371333Y-80407487D01*
X88339481Y-80526358D01*
X88339481Y-80671308D01*
X88346721Y-80698328D01*
X88368900Y-80781102D01*
X88376997Y-80811319D01*
X88376999Y-80811324D01*
X88447612Y-80933628D01*
X88449470Y-80936846D01*
X88551966Y-81039342D01*
X88552655Y-81039838D01*
X88555159Y-81041186D01*
X88674050Y-81109828D01*
X88677068Y-81111702D01*
X88677495Y-81111816D01*
X88677496Y-81111817D01*
X88817506Y-81149333D01*
X88817509Y-81149333D01*
X88962453Y-81149333D01*
X88962456Y-81149333D01*
X89102466Y-81111817D01*
X89227996Y-81039342D01*
X89330490Y-80936848D01*
X89402965Y-80811318D01*
X89440481Y-80671308D01*
X89440481Y-80526358D01*
X89402965Y-80386348D01*
X89395934Y-80374171D01*
X89382816Y-80341405D01*
X89382796Y-80341322D01*
X89379544Y-80327917D01*
X89382868Y-80258127D01*
X89423381Y-80201225D01*
X89424703Y-80200185D01*
X89477806Y-80175906D01*
X89482657Y-80174967D01*
X89506008Y-80172712D01*
X90374782Y-80171421D01*
X90409719Y-80176392D01*
X90423041Y-80180282D01*
X90481876Y-80217968D01*
X90510996Y-80281480D01*
X90511004Y-80281532D01*
X90511230Y-80283092D01*
X90505727Y-80341322D01*
X90504065Y-80346138D01*
X90494238Y-80367684D01*
X90492192Y-80371228D01*
X90484699Y-80384208D01*
X90484691Y-80384222D01*
X90477017Y-80397512D01*
X90477017Y-80397513D01*
X90477016Y-80397515D01*
X90439500Y-80537525D01*
X90439500Y-80682475D01*
X90463876Y-80773445D01*
X90465928Y-80781102D01*
X90477018Y-80822492D01*
X90547631Y-80944795D01*
X90549489Y-80948013D01*
X90651985Y-81050509D01*
X90652674Y-81051005D01*
X90655178Y-81052353D01*
X90774069Y-81120995D01*
X90777087Y-81122869D01*
X90777514Y-81122983D01*
X90777515Y-81122984D01*
X90917525Y-81160500D01*
X90917528Y-81160500D01*
X91062472Y-81160500D01*
X91062475Y-81160500D01*
X91202485Y-81122984D01*
X91328015Y-81050509D01*
X91430509Y-80948015D01*
X91502984Y-80822485D01*
X91540500Y-80682475D01*
X91540500Y-80537525D01*
X91502984Y-80397515D01*
X91487707Y-80371056D01*
X91474593Y-80338299D01*
X91474264Y-80336942D01*
X91471321Y-80324811D01*
X91474642Y-80255024D01*
X91515157Y-80198115D01*
X91516478Y-80197076D01*
X91569582Y-80172797D01*
X91574433Y-80171858D01*
X91597785Y-80169603D01*
X93497158Y-80166780D01*
X93532095Y-80171751D01*
X93545417Y-80175641D01*
X93604252Y-80213327D01*
X93633372Y-80276839D01*
X93633380Y-80276891D01*
X93633606Y-80278451D01*
X93628103Y-80336681D01*
X93626441Y-80341497D01*
X93616612Y-80363046D01*
X93580203Y-80426107D01*
X93580175Y-80426176D01*
X93579933Y-80427112D01*
X93553340Y-80526360D01*
X93549500Y-80540691D01*
X93549500Y-80659309D01*
X93580201Y-80773886D01*
X93639511Y-80876613D01*
X93723387Y-80960489D01*
X93826114Y-81019799D01*
X93940691Y-81050500D01*
X93940694Y-81050500D01*
X94059306Y-81050500D01*
X94059309Y-81050500D01*
X94173886Y-81019799D01*
X94276613Y-80960489D01*
X94360489Y-80876613D01*
X94419799Y-80773886D01*
X94450500Y-80659309D01*
X94450500Y-80540691D01*
X94419799Y-80426114D01*
X94419797Y-80426110D01*
X94419797Y-80426109D01*
X94419796Y-80426108D01*
X94418770Y-80424331D01*
X94418040Y-80421870D01*
X94416644Y-80418500D01*
X94411636Y-80411973D01*
X94385527Y-80366752D01*
X94372409Y-80333988D01*
X94371623Y-80330749D01*
X94369137Y-80320500D01*
X94372460Y-80250711D01*
X94412983Y-80193800D01*
X94414304Y-80192761D01*
X94467399Y-80168489D01*
X94472246Y-80167551D01*
X94495601Y-80165295D01*
X96120189Y-80162880D01*
X96159294Y-80174299D01*
X96190247Y-80181588D01*
X96216508Y-80208761D01*
X96217101Y-80209294D01*
X96217480Y-80209767D01*
X96238802Y-80231829D01*
X96252487Y-80300346D01*
X96226957Y-80365384D01*
X96201578Y-80389911D01*
X96197408Y-80392923D01*
X96172255Y-80406964D01*
X96036083Y-80463368D01*
X96036081Y-80463369D01*
X96036071Y-80463375D01*
X95872218Y-80572860D01*
X95872214Y-80572862D01*
X95872208Y-80572867D01*
X95732867Y-80712208D01*
X95732862Y-80712214D01*
X95732861Y-80712215D01*
X95623375Y-80876072D01*
X95623365Y-80876089D01*
X95623360Y-80876098D01*
X95547958Y-81058137D01*
X95547945Y-81058176D01*
X95509500Y-81251451D01*
X95509500Y-81404174D01*
X95504237Y-81422094D01*
X95547945Y-81641822D01*
X95547946Y-81641826D01*
X95547947Y-81641829D01*
X95547950Y-81641839D01*
X95547953Y-81641847D01*
X95547958Y-81641861D01*
X95623360Y-81823900D01*
X95623365Y-81823909D01*
X95623375Y-81823926D01*
X95732861Y-81987783D01*
X95732862Y-81987784D01*
X95732867Y-81987790D01*
X95872208Y-82127131D01*
X95872214Y-82127136D01*
X95872218Y-82127139D01*
X96036079Y-82236628D01*
X96036092Y-82236635D01*
X96157360Y-82286865D01*
X96212553Y-82309726D01*
X96216963Y-82311812D01*
X96411453Y-82350500D01*
X96608543Y-82350500D01*
X96608544Y-82350500D01*
X96630216Y-82346188D01*
X96738582Y-82324632D01*
X96738583Y-82324632D01*
X96751301Y-82322102D01*
X96801835Y-82312051D01*
X96983914Y-82236632D01*
X97147782Y-82127139D01*
X97287139Y-81987782D01*
X97396632Y-81823914D01*
X97472051Y-81641835D01*
X97490704Y-81548062D01*
X97498741Y-81507658D01*
X97498741Y-81507656D01*
X97510500Y-81448544D01*
X97510500Y-81251453D01*
X97471812Y-81056963D01*
X97469722Y-81052543D01*
X97469650Y-81052370D01*
X97468876Y-81050500D01*
X97465557Y-81042488D01*
X97421801Y-80936850D01*
X97396635Y-80876092D01*
X97396628Y-80876079D01*
X97287139Y-80712218D01*
X97287136Y-80712214D01*
X97287131Y-80712208D01*
X97147790Y-80572867D01*
X97147784Y-80572862D01*
X97147781Y-80572860D01*
X96983926Y-80463375D01*
X96983925Y-80463374D01*
X96983920Y-80463371D01*
X96983907Y-80463364D01*
X96905258Y-80430787D01*
X96848161Y-80407137D01*
X96816442Y-80381577D01*
X96790712Y-80363053D01*
X96777751Y-80330186D01*
X96776922Y-80328470D01*
X96776418Y-80326806D01*
X96765081Y-80298054D01*
X96778660Y-80229516D01*
X96827137Y-80179200D01*
X96859966Y-80166254D01*
X96864940Y-80165075D01*
X96893353Y-80161731D01*
X98669338Y-80159091D01*
X98704273Y-80164061D01*
X98712874Y-80166572D01*
X98771708Y-80204257D01*
X98800830Y-80267768D01*
X98790992Y-80336942D01*
X98750737Y-80386114D01*
X98746568Y-80389126D01*
X98721403Y-80403175D01*
X98576083Y-80463368D01*
X98576081Y-80463369D01*
X98576071Y-80463375D01*
X98412218Y-80572860D01*
X98412214Y-80572862D01*
X98412208Y-80572867D01*
X98272867Y-80712208D01*
X98272862Y-80712214D01*
X98272861Y-80712215D01*
X98163375Y-80876072D01*
X98163365Y-80876089D01*
X98163360Y-80876098D01*
X98087958Y-81058137D01*
X98087945Y-81058176D01*
X98049500Y-81251451D01*
X98049500Y-81404174D01*
X98044237Y-81422094D01*
X98087945Y-81641822D01*
X98087946Y-81641826D01*
X98087947Y-81641829D01*
X98087950Y-81641839D01*
X98087953Y-81641847D01*
X98087958Y-81641861D01*
X98163360Y-81823900D01*
X98163365Y-81823909D01*
X98163375Y-81823926D01*
X98272861Y-81987783D01*
X98272862Y-81987784D01*
X98272867Y-81987790D01*
X98412208Y-82127131D01*
X98412214Y-82127136D01*
X98412218Y-82127139D01*
X98576079Y-82236628D01*
X98576092Y-82236635D01*
X98697360Y-82286865D01*
X98752553Y-82309726D01*
X98756963Y-82311812D01*
X98951453Y-82350500D01*
X99148543Y-82350500D01*
X99148544Y-82350500D01*
X99170216Y-82346188D01*
X99278582Y-82324632D01*
X99278583Y-82324632D01*
X99291301Y-82322102D01*
X99341835Y-82312051D01*
X99523914Y-82236632D01*
X99687782Y-82127139D01*
X99827139Y-81987782D01*
X99936632Y-81823914D01*
X100012051Y-81641835D01*
X100030704Y-81548062D01*
X100038741Y-81507658D01*
X100038741Y-81507656D01*
X100050500Y-81448544D01*
X100050500Y-81251453D01*
X100011812Y-81056963D01*
X100009722Y-81052543D01*
X100009650Y-81052370D01*
X100008876Y-81050500D01*
X100005557Y-81042488D01*
X99961801Y-80936850D01*
X99936635Y-80876092D01*
X99936628Y-80876079D01*
X99827139Y-80712218D01*
X99827136Y-80712214D01*
X99827131Y-80712208D01*
X99687790Y-80572867D01*
X99687784Y-80572862D01*
X99687781Y-80572860D01*
X99523926Y-80463375D01*
X99523925Y-80463374D01*
X99523920Y-80463371D01*
X99523907Y-80463364D01*
X99523893Y-80463358D01*
X99379079Y-80403375D01*
X99347360Y-80377815D01*
X99321630Y-80359291D01*
X99308669Y-80326424D01*
X99307840Y-80324708D01*
X99307336Y-80323044D01*
X99295999Y-80294292D01*
X99309578Y-80225754D01*
X99358055Y-80175438D01*
X99390884Y-80162492D01*
X99395858Y-80161313D01*
X99424271Y-80157969D01*
X103119274Y-80152477D01*
X103119277Y-80152478D01*
X103143985Y-80152441D01*
X103143986Y-80152442D01*
X103170221Y-80152403D01*
X103175626Y-80152513D01*
X103181036Y-80152741D01*
X103186440Y-80153087D01*
X103356725Y-80167743D01*
X103367448Y-80169139D01*
X103378090Y-80171001D01*
X103388643Y-80173325D01*
X103545967Y-80215271D01*
X103556278Y-80218508D01*
X103566432Y-80222191D01*
X103576425Y-80226318D01*
X103724046Y-80294962D01*
X103733647Y-80299948D01*
X103743003Y-80305338D01*
X103752116Y-80311131D01*
X103885555Y-80404386D01*
X103894131Y-80410954D01*
X103902425Y-80417901D01*
X103910411Y-80425208D01*
X104025596Y-80540222D01*
X104032913Y-80548195D01*
X104039864Y-80556468D01*
X104046456Y-80565048D01*
X104139895Y-80698328D01*
X104145719Y-80707460D01*
X104151119Y-80716803D01*
X104156122Y-80726402D01*
X104224975Y-80873899D01*
X104229122Y-80883901D01*
X104232819Y-80894048D01*
X104236078Y-80904374D01*
X104278244Y-81061586D01*
X104280591Y-81072166D01*
X104282467Y-81082800D01*
X104283880Y-81093526D01*
X104298805Y-81263963D01*
X104299143Y-81269002D01*
X104299365Y-81273761D01*
X104299500Y-81279539D01*
X104299500Y-81315476D01*
X104299743Y-81325926D01*
X104299648Y-81326278D01*
X104299775Y-81328196D01*
X104311998Y-83799937D01*
X104312000Y-83800550D01*
X104312000Y-83900660D01*
X104346955Y-84098907D01*
X104384556Y-84202214D01*
X104384563Y-84202231D01*
X104385324Y-84204322D01*
X104410228Y-84272745D01*
X104415809Y-84288077D01*
X104415812Y-84288084D01*
X104423623Y-84301613D01*
X104505438Y-84443321D01*
X104518555Y-84476087D01*
X104521263Y-84487248D01*
X104522241Y-84491279D01*
X104518920Y-84561052D01*
X104518327Y-84562766D01*
X104484559Y-84613971D01*
X104476002Y-84621751D01*
X104468116Y-84628344D01*
X104466592Y-84629514D01*
X104459967Y-84636139D01*
X104459966Y-84636138D01*
X104441300Y-84654805D01*
X104392024Y-84704081D01*
X104392018Y-84704088D01*
X104339295Y-84795408D01*
X104339292Y-84795413D01*
X104316163Y-84881735D01*
X104312000Y-84897273D01*
X104312000Y-85002727D01*
X104339293Y-85104587D01*
X104388638Y-85190056D01*
X104388642Y-85190063D01*
X104388641Y-85190063D01*
X104392020Y-85195914D01*
X104392022Y-85195916D01*
X104437513Y-85241406D01*
X104440465Y-85244460D01*
X104471384Y-85277572D01*
X104471267Y-85277726D01*
X104483919Y-85290996D01*
X104484390Y-85291501D01*
X104499812Y-85322199D01*
X104515519Y-85352669D01*
X104515455Y-85353335D01*
X104515756Y-85353934D01*
X104512181Y-85387644D01*
X104508884Y-85422195D01*
X104508279Y-85423707D01*
X104474355Y-85471354D01*
X104451684Y-85490998D01*
X104450103Y-85494882D01*
X104440764Y-85505341D01*
X104392024Y-85554081D01*
X104392018Y-85554088D01*
X104339295Y-85645408D01*
X104339292Y-85645413D01*
X104313764Y-85740691D01*
X104312000Y-85747273D01*
X104312000Y-85852727D01*
X104339293Y-85954587D01*
X104387461Y-86038017D01*
X104392021Y-86045914D01*
X104392023Y-86045917D01*
X104437513Y-86091406D01*
X104440465Y-86094460D01*
X104471384Y-86127572D01*
X104471267Y-86127726D01*
X104483914Y-86140991D01*
X104484390Y-86141501D01*
X104499812Y-86172199D01*
X104515519Y-86202669D01*
X104515455Y-86203335D01*
X104515756Y-86203934D01*
X104512181Y-86237644D01*
X104508884Y-86272195D01*
X104508279Y-86273707D01*
X104474355Y-86321354D01*
X104451684Y-86340998D01*
X104450103Y-86344882D01*
X104440764Y-86355341D01*
X104392024Y-86404081D01*
X104392019Y-86404088D01*
X104339293Y-86495411D01*
X104319563Y-86569048D01*
X104312000Y-86597273D01*
X104312000Y-86702727D01*
X104339293Y-86804587D01*
X104392020Y-86895913D01*
X104441299Y-86945192D01*
X104471277Y-86975170D01*
X104477201Y-86980491D01*
X104489378Y-86993261D01*
X104492055Y-86996068D01*
X104524062Y-87058124D01*
X104524405Y-87059900D01*
X104520767Y-87121171D01*
X104518411Y-87128541D01*
X104507686Y-87152784D01*
X104415816Y-87311906D01*
X104415814Y-87311911D01*
X104415807Y-87311927D01*
X104346954Y-87501096D01*
X104312000Y-87699338D01*
X104312000Y-87798634D01*
X104311999Y-87799233D01*
X104311997Y-87799647D01*
X104311994Y-87800081D01*
X104299902Y-89250947D01*
X104299500Y-89254400D01*
X104299500Y-89265649D01*
X104299500Y-89299394D01*
X104299496Y-89299875D01*
X104299496Y-89299881D01*
X104299176Y-89338230D01*
X104299500Y-89341661D01*
X104299500Y-89400660D01*
X104329458Y-89570563D01*
X104334456Y-89598908D01*
X104365843Y-89685141D01*
X104403232Y-89787867D01*
X104403233Y-89787869D01*
X104403283Y-89788005D01*
X104403307Y-89788072D01*
X104403310Y-89788081D01*
X104403314Y-89788089D01*
X104408923Y-89797803D01*
X104409903Y-89799500D01*
X104466474Y-89897485D01*
X104492938Y-89943321D01*
X104506055Y-89976087D01*
X104508763Y-89987248D01*
X104509741Y-89991279D01*
X104506420Y-90061052D01*
X104505827Y-90062766D01*
X104472059Y-90113971D01*
X104463502Y-90121751D01*
X104455616Y-90128344D01*
X104454092Y-90129514D01*
X104447467Y-90136139D01*
X104447466Y-90136138D01*
X104428800Y-90154805D01*
X104379524Y-90204081D01*
X104379518Y-90204088D01*
X104326795Y-90295408D01*
X104326792Y-90295413D01*
X104311598Y-90352121D01*
X104300810Y-90392387D01*
X104299501Y-90397271D01*
X104299500Y-90397273D01*
X104299500Y-90502728D01*
X104322371Y-90588087D01*
X104322374Y-90588093D01*
X104326793Y-90604585D01*
X104326793Y-90604586D01*
X104326794Y-90604589D01*
X104340922Y-90629059D01*
X104379520Y-90695913D01*
X104454087Y-90770480D01*
X104545413Y-90823207D01*
X104647273Y-90850500D01*
X104647275Y-90850500D01*
X104752725Y-90850500D01*
X104752727Y-90850500D01*
X104854587Y-90823207D01*
X104945913Y-90770480D01*
X105020480Y-90695913D01*
X105073207Y-90604587D01*
X105091067Y-90537926D01*
X105104957Y-90505489D01*
X105113096Y-90492136D01*
X105164784Y-90445146D01*
X105168999Y-90443098D01*
X105223684Y-90430634D01*
X105226397Y-90430645D01*
X105247422Y-90432527D01*
X105349344Y-90450500D01*
X105349346Y-90450500D01*
X105550654Y-90450500D01*
X105550656Y-90450500D01*
X105645456Y-90433783D01*
X105680729Y-90432664D01*
X105690672Y-90433772D01*
X105696263Y-90434396D01*
X105760706Y-90461387D01*
X105763539Y-90463689D01*
X105764347Y-90464345D01*
X105798734Y-90508611D01*
X105799870Y-90511072D01*
X105807061Y-90530948D01*
X105822371Y-90588087D01*
X105826792Y-90604585D01*
X105826793Y-90604586D01*
X105826794Y-90604589D01*
X105840922Y-90629059D01*
X105879520Y-90695913D01*
X105954087Y-90770480D01*
X106045413Y-90823207D01*
X106147273Y-90850500D01*
X106147275Y-90850500D01*
X106252725Y-90850500D01*
X106252727Y-90850500D01*
X106354587Y-90823207D01*
X106445913Y-90770480D01*
X106520480Y-90695913D01*
X106573207Y-90604587D01*
X106590328Y-90540691D01*
X121274500Y-90540691D01*
X121274500Y-90659309D01*
X121305201Y-90773886D01*
X121364511Y-90876613D01*
X121448387Y-90960489D01*
X121551114Y-91019799D01*
X121665691Y-91050500D01*
X121665694Y-91050500D01*
X121784306Y-91050500D01*
X121784309Y-91050500D01*
X121898886Y-91019799D01*
X122001613Y-90960489D01*
X122085489Y-90876613D01*
X122144799Y-90773886D01*
X122175500Y-90659309D01*
X122175500Y-90540691D01*
X122144799Y-90426114D01*
X122085489Y-90323387D01*
X122001613Y-90239511D01*
X121898886Y-90180201D01*
X121784309Y-90149500D01*
X121784306Y-90149500D01*
X121665691Y-90149500D01*
X121574728Y-90173873D01*
X121574723Y-90173874D01*
X121551114Y-90180201D01*
X121551112Y-90180201D01*
X121551112Y-90180202D01*
X121529947Y-90192421D01*
X121529939Y-90192425D01*
X121448386Y-90239511D01*
X121448378Y-90239517D01*
X121364517Y-90323378D01*
X121364513Y-90323383D01*
X121364509Y-90323389D01*
X121364507Y-90323391D01*
X121332285Y-90379203D01*
X121332284Y-90379204D01*
X121321853Y-90397273D01*
X121305201Y-90426114D01*
X121274500Y-90540691D01*
X106590328Y-90540691D01*
X106600500Y-90502727D01*
X106600500Y-90397273D01*
X106573207Y-90295413D01*
X106520480Y-90204087D01*
X106445913Y-90129520D01*
X106441238Y-90124845D01*
X106435289Y-90119502D01*
X106420438Y-90103924D01*
X106388427Y-90041821D01*
X106388423Y-90041799D01*
X106388080Y-90040017D01*
X106391733Y-89978822D01*
X106394090Y-89971449D01*
X106404812Y-89947217D01*
X106496690Y-89788080D01*
X106565543Y-89598909D01*
X106591456Y-89451945D01*
X106999500Y-89451945D01*
X106999500Y-89570563D01*
X107030201Y-89685140D01*
X107089511Y-89787867D01*
X107173387Y-89871743D01*
X107276114Y-89931053D01*
X107390691Y-89961754D01*
X107390694Y-89961754D01*
X107509306Y-89961754D01*
X107509309Y-89961754D01*
X107623886Y-89931053D01*
X107726613Y-89871743D01*
X107810489Y-89787867D01*
X107869799Y-89685140D01*
X107900500Y-89570563D01*
X107900500Y-89451945D01*
X107874022Y-89353127D01*
X107874022Y-89353126D01*
X107869742Y-89337157D01*
X107869032Y-89335517D01*
X107866645Y-89329755D01*
X107861636Y-89323227D01*
X107849345Y-89301939D01*
X107836227Y-89269175D01*
X107832955Y-89255689D01*
X107836278Y-89185898D01*
X107876745Y-89129031D01*
X107878024Y-89128024D01*
X107931286Y-89103686D01*
X107936216Y-89102735D01*
X107959658Y-89100500D01*
X108264824Y-89100500D01*
X108296745Y-89094150D01*
X108300880Y-89093326D01*
X108308717Y-89091768D01*
X108308717Y-89091767D01*
X108308718Y-89091767D01*
X108308722Y-89091767D01*
X108308723Y-89091765D01*
X108313868Y-89090742D01*
X108324006Y-89081554D01*
X108358504Y-89058504D01*
X108391767Y-89008722D01*
X108400500Y-88964820D01*
X108400500Y-87935180D01*
X108400500Y-87935177D01*
X108391768Y-87891282D01*
X108391767Y-87891281D01*
X108391767Y-87891278D01*
X108378898Y-87872018D01*
X108358507Y-87841500D01*
X108358505Y-87841498D01*
X108358504Y-87841496D01*
X108358502Y-87841495D01*
X108358501Y-87841493D01*
X108347811Y-87834350D01*
X108347811Y-87834351D01*
X108333878Y-87825041D01*
X108333871Y-87825036D01*
X108308724Y-87808234D01*
X108303182Y-87805938D01*
X108297829Y-87802607D01*
X108298386Y-87801263D01*
X108281349Y-87792351D01*
X108277404Y-87789896D01*
X108257107Y-87767149D01*
X108235167Y-87745978D01*
X108234067Y-87741326D01*
X108230887Y-87737762D01*
X108226116Y-87707693D01*
X108219098Y-87678001D01*
X108219224Y-87675640D01*
X108220471Y-87672105D01*
X108219940Y-87668756D01*
X108221286Y-87665691D01*
X111549500Y-87665691D01*
X111549500Y-87784309D01*
X111580201Y-87898886D01*
X111639511Y-88001613D01*
X111723387Y-88085489D01*
X111826114Y-88144799D01*
X111940691Y-88175500D01*
X111940694Y-88175500D01*
X112059306Y-88175500D01*
X112059309Y-88175500D01*
X112173886Y-88144799D01*
X112276613Y-88085489D01*
X112360489Y-88001613D01*
X112419799Y-87898886D01*
X112450500Y-87784309D01*
X112450500Y-87665691D01*
X112419799Y-87551114D01*
X112360489Y-87448387D01*
X112276613Y-87364511D01*
X112173886Y-87305201D01*
X112059309Y-87274500D01*
X112059306Y-87274500D01*
X111940691Y-87274500D01*
X111849728Y-87298873D01*
X111849723Y-87298874D01*
X111826114Y-87305201D01*
X111826112Y-87305201D01*
X111826112Y-87305202D01*
X111804947Y-87317421D01*
X111804939Y-87317425D01*
X111723386Y-87364511D01*
X111723378Y-87364517D01*
X111639517Y-87448378D01*
X111639513Y-87448383D01*
X111639507Y-87448392D01*
X111614837Y-87491123D01*
X111580201Y-87551113D01*
X111580201Y-87551114D01*
X111549500Y-87665691D01*
X108221286Y-87665691D01*
X108228618Y-87648997D01*
X108242457Y-87609750D01*
X108254903Y-87595123D01*
X108255273Y-87594672D01*
X108255273Y-87594671D01*
X108255276Y-87594669D01*
X108326465Y-87488127D01*
X108375501Y-87369744D01*
X108399903Y-87247071D01*
X108399908Y-87247072D01*
X108399908Y-87247045D01*
X108400500Y-87244071D01*
X108400500Y-87115928D01*
X108400500Y-87115925D01*
X108375262Y-86989054D01*
X108373175Y-86984641D01*
X108367309Y-86970480D01*
X108336423Y-86895914D01*
X108334965Y-86892394D01*
X108326466Y-86871875D01*
X108326461Y-86871866D01*
X108255276Y-86765331D01*
X108255273Y-86765327D01*
X108164671Y-86674725D01*
X108144978Y-86661567D01*
X108139641Y-86658001D01*
X108139635Y-86657993D01*
X108113395Y-86634424D01*
X108104495Y-86623775D01*
X108097374Y-86607418D01*
X108094841Y-86604386D01*
X108094349Y-86600467D01*
X108076608Y-86559712D01*
X108087783Y-86490742D01*
X108087788Y-86490732D01*
X108090049Y-86486007D01*
X108133011Y-86436429D01*
X108164669Y-86415276D01*
X108255276Y-86324669D01*
X108326465Y-86218127D01*
X108375501Y-86099744D01*
X108387781Y-86038011D01*
X108400500Y-85974071D01*
X108400500Y-85845925D01*
X108375262Y-85719055D01*
X108373176Y-85714644D01*
X108326465Y-85601873D01*
X108326464Y-85601872D01*
X108326461Y-85601866D01*
X108296833Y-85557525D01*
X110452139Y-85557525D01*
X110452139Y-85702475D01*
X110456905Y-85720260D01*
X110480273Y-85807474D01*
X110489654Y-85842484D01*
X110489657Y-85842491D01*
X110560270Y-85964795D01*
X110562128Y-85968013D01*
X110664624Y-86070509D01*
X110665313Y-86071005D01*
X110667817Y-86072353D01*
X110786708Y-86140995D01*
X110789726Y-86142869D01*
X110790153Y-86142983D01*
X110790154Y-86142984D01*
X110930164Y-86180500D01*
X110930167Y-86180500D01*
X111075111Y-86180500D01*
X111075114Y-86180500D01*
X111215124Y-86142984D01*
X111340654Y-86070509D01*
X111443148Y-85968015D01*
X111515623Y-85842485D01*
X111553139Y-85702475D01*
X111553139Y-85557525D01*
X112302139Y-85557525D01*
X112302139Y-85702475D01*
X112306905Y-85720260D01*
X112330273Y-85807474D01*
X112339654Y-85842484D01*
X112339657Y-85842491D01*
X112410270Y-85964795D01*
X112412128Y-85968013D01*
X112514624Y-86070509D01*
X112515313Y-86071005D01*
X112517817Y-86072353D01*
X112636708Y-86140995D01*
X112639726Y-86142869D01*
X112640153Y-86142983D01*
X112640154Y-86142984D01*
X112780164Y-86180500D01*
X112780167Y-86180500D01*
X112925111Y-86180500D01*
X112925114Y-86180500D01*
X113065124Y-86142984D01*
X113190654Y-86070509D01*
X113293148Y-85968015D01*
X113365623Y-85842485D01*
X113403139Y-85702475D01*
X113403139Y-85557525D01*
X113365623Y-85417515D01*
X113365621Y-85417512D01*
X113365622Y-85417512D01*
X113358239Y-85404725D01*
X113358238Y-85404724D01*
X113293152Y-85291991D01*
X113293147Y-85291984D01*
X113293132Y-85291968D01*
X113190669Y-85189505D01*
X113190653Y-85189490D01*
X113190650Y-85189488D01*
X113186368Y-85187016D01*
X113136879Y-85158443D01*
X113108446Y-85128623D01*
X113018747Y-85104589D01*
X112971930Y-85092044D01*
X112925114Y-85079500D01*
X112925113Y-85079500D01*
X112780164Y-85079500D01*
X112686531Y-85104589D01*
X112686530Y-85104588D01*
X112640151Y-85117016D01*
X112640146Y-85117018D01*
X112514631Y-85189485D01*
X112514623Y-85189490D01*
X112514607Y-85189505D01*
X112412144Y-85291968D01*
X112412129Y-85291984D01*
X112412124Y-85291992D01*
X112339656Y-85417510D01*
X112339655Y-85417515D01*
X112339043Y-85419799D01*
X112302139Y-85557525D01*
X111553139Y-85557525D01*
X111515623Y-85417515D01*
X111508239Y-85404726D01*
X111444603Y-85294505D01*
X111443152Y-85291991D01*
X111443147Y-85291984D01*
X111443132Y-85291968D01*
X111340669Y-85189505D01*
X111340653Y-85189490D01*
X111340650Y-85189488D01*
X111336368Y-85187016D01*
X111286879Y-85158443D01*
X111258446Y-85128623D01*
X111168747Y-85104589D01*
X111121930Y-85092044D01*
X111075114Y-85079500D01*
X111075113Y-85079500D01*
X110930164Y-85079500D01*
X110836531Y-85104589D01*
X110836530Y-85104588D01*
X110790151Y-85117016D01*
X110790146Y-85117018D01*
X110664631Y-85189485D01*
X110664623Y-85189490D01*
X110664607Y-85189505D01*
X110562144Y-85291968D01*
X110562129Y-85291984D01*
X110562124Y-85291992D01*
X110489656Y-85417510D01*
X110489655Y-85417515D01*
X110489043Y-85419799D01*
X110452139Y-85557525D01*
X108296833Y-85557525D01*
X108255276Y-85495331D01*
X108255274Y-85495328D01*
X108255273Y-85495327D01*
X108255268Y-85495321D01*
X108164677Y-85404730D01*
X108164670Y-85404724D01*
X108058127Y-85333534D01*
X108058128Y-85333534D01*
X108058118Y-85333529D01*
X107939753Y-85284502D01*
X107939733Y-85284495D01*
X107939725Y-85284493D01*
X107814074Y-85259500D01*
X107814071Y-85259500D01*
X107814069Y-85259500D01*
X107685931Y-85259500D01*
X107685929Y-85259500D01*
X107685926Y-85259500D01*
X107560273Y-85284493D01*
X107560265Y-85284495D01*
X107560245Y-85284502D01*
X107441880Y-85333529D01*
X107441870Y-85333534D01*
X107335329Y-85404724D01*
X107335321Y-85404730D01*
X107244730Y-85495321D01*
X107244725Y-85495327D01*
X107244724Y-85495328D01*
X107173534Y-85601870D01*
X107173529Y-85601880D01*
X107124502Y-85720245D01*
X107124495Y-85720265D01*
X107124493Y-85720273D01*
X107099500Y-85845923D01*
X107099500Y-85929702D01*
X107094237Y-85947622D01*
X107124494Y-86099726D01*
X107124495Y-86099732D01*
X107124502Y-86099753D01*
X107173529Y-86218118D01*
X107173534Y-86218128D01*
X107244724Y-86324670D01*
X107244725Y-86324671D01*
X107244730Y-86324677D01*
X107335325Y-86415272D01*
X107335328Y-86415274D01*
X107335331Y-86415276D01*
X107360352Y-86431994D01*
X107386606Y-86455578D01*
X107395508Y-86466230D01*
X107423391Y-86530295D01*
X107412212Y-86599265D01*
X107412210Y-86599267D01*
X107409949Y-86603992D01*
X107366988Y-86653569D01*
X107335350Y-86674708D01*
X107335336Y-86674718D01*
X107335322Y-86674729D01*
X107244730Y-86765321D01*
X107244725Y-86765327D01*
X107244724Y-86765328D01*
X107173534Y-86871870D01*
X107173529Y-86871880D01*
X107124502Y-86990245D01*
X107124495Y-86990265D01*
X107124493Y-86990273D01*
X107099500Y-87115923D01*
X107099500Y-87199702D01*
X107094237Y-87217622D01*
X107124494Y-87369726D01*
X107124495Y-87369732D01*
X107124502Y-87369753D01*
X107173529Y-87488118D01*
X107173534Y-87488128D01*
X107244724Y-87594670D01*
X107244732Y-87594682D01*
X107247368Y-87598196D01*
X107246931Y-87598523D01*
X107257528Y-87613777D01*
X107265017Y-87627492D01*
X107279869Y-87695765D01*
X107255452Y-87761229D01*
X107206689Y-87800168D01*
X107179846Y-87812138D01*
X107173823Y-87819821D01*
X107170637Y-87822023D01*
X107141496Y-87841494D01*
X107141493Y-87841497D01*
X107108236Y-87891270D01*
X107108230Y-87891281D01*
X107108230Y-87891283D01*
X107099500Y-87935172D01*
X107099500Y-87935176D01*
X107099500Y-87935177D01*
X107099500Y-87935180D01*
X107099500Y-88964820D01*
X107099500Y-88964822D01*
X107099499Y-88964822D01*
X107108231Y-89008717D01*
X107108234Y-89008724D01*
X107134687Y-89048314D01*
X107141024Y-89068555D01*
X107141031Y-89068579D01*
X107144684Y-89080242D01*
X107145932Y-89150101D01*
X107145930Y-89150108D01*
X107143986Y-89157193D01*
X107112087Y-89212063D01*
X107089518Y-89234631D01*
X107089515Y-89234634D01*
X107089510Y-89234642D01*
X107083823Y-89244493D01*
X107051436Y-89300589D01*
X107050657Y-89301939D01*
X107030200Y-89337368D01*
X106999500Y-89451945D01*
X106591456Y-89451945D01*
X106600500Y-89400656D01*
X106600500Y-89300589D01*
X106612537Y-87855860D01*
X106612956Y-87849311D01*
X106612787Y-87849302D01*
X106613000Y-87845670D01*
X106613000Y-87800598D01*
X106613244Y-87771319D01*
X106613000Y-87770715D01*
X106613000Y-87699344D01*
X106578043Y-87501091D01*
X106509190Y-87311920D01*
X106509182Y-87311906D01*
X106419559Y-87156672D01*
X106406444Y-87123915D01*
X106402758Y-87108722D01*
X106406080Y-87038937D01*
X106406685Y-87037191D01*
X106440443Y-86986025D01*
X106449027Y-86978222D01*
X106456948Y-86971604D01*
X106458410Y-86970482D01*
X106458410Y-86970481D01*
X106458413Y-86970480D01*
X106532980Y-86895913D01*
X106585707Y-86804587D01*
X106613000Y-86702727D01*
X106613000Y-86597273D01*
X106585707Y-86495413D01*
X106532980Y-86404087D01*
X106487468Y-86358575D01*
X106484517Y-86355522D01*
X106453613Y-86322426D01*
X106453734Y-86322270D01*
X106441043Y-86308964D01*
X106440607Y-86308497D01*
X106425184Y-86277798D01*
X106409483Y-86247354D01*
X106409547Y-86246674D01*
X106409241Y-86246064D01*
X106412852Y-86212010D01*
X106416112Y-86177807D01*
X106416717Y-86176296D01*
X106450635Y-86128657D01*
X106452924Y-86126674D01*
X106452923Y-86126673D01*
X106473306Y-86109011D01*
X106474892Y-86105119D01*
X106484214Y-86094678D01*
X106532980Y-86045913D01*
X106585707Y-85954587D01*
X106613000Y-85852727D01*
X106613000Y-85747273D01*
X106585707Y-85645413D01*
X106532980Y-85554087D01*
X106487468Y-85508575D01*
X106484517Y-85505522D01*
X106453613Y-85472426D01*
X106453734Y-85472270D01*
X106441043Y-85458964D01*
X106440607Y-85458497D01*
X106425184Y-85427798D01*
X106409483Y-85397354D01*
X106409547Y-85396674D01*
X106409241Y-85396064D01*
X106412852Y-85362010D01*
X106416112Y-85327807D01*
X106416717Y-85326296D01*
X106450635Y-85278657D01*
X106452924Y-85276674D01*
X106452923Y-85276673D01*
X106473306Y-85259011D01*
X106474892Y-85255119D01*
X106484214Y-85244678D01*
X106532980Y-85195913D01*
X106585707Y-85104587D01*
X106613000Y-85002727D01*
X106613000Y-84897273D01*
X106585707Y-84795413D01*
X106532980Y-84704087D01*
X106458413Y-84629520D01*
X106453738Y-84624845D01*
X106447789Y-84619502D01*
X106432938Y-84603924D01*
X106400927Y-84541821D01*
X106400923Y-84541799D01*
X106400580Y-84540017D01*
X106404233Y-84478822D01*
X106406590Y-84471449D01*
X106417312Y-84447217D01*
X106509190Y-84288080D01*
X106578043Y-84098909D01*
X106613000Y-83900656D01*
X106613000Y-83829551D01*
X106613146Y-83829194D01*
X106613000Y-83799562D01*
X106613000Y-83765649D01*
X106613000Y-83753308D01*
X106612998Y-83753298D01*
X106612938Y-83752247D01*
X106612733Y-83745719D01*
X106611136Y-83421669D01*
X106622431Y-83382487D01*
X106629694Y-83351426D01*
X106679859Y-83302791D01*
X106748354Y-83288999D01*
X106813432Y-83314427D01*
X106837999Y-83339767D01*
X106841042Y-83343966D01*
X106855197Y-83369276D01*
X106878118Y-83424611D01*
X106927397Y-83543579D01*
X106927402Y-83543591D01*
X106927404Y-83543594D01*
X106978288Y-83631727D01*
X106978290Y-83631730D01*
X107081455Y-83810418D01*
X107081457Y-83810421D01*
X107081676Y-83810750D01*
X107082679Y-83812014D01*
X107269021Y-84054861D01*
X107269025Y-84054866D01*
X107269028Y-84054869D01*
X107269034Y-84054876D01*
X107269042Y-84054884D01*
X107486884Y-84272727D01*
X107486898Y-84272740D01*
X107486904Y-84272745D01*
X107731351Y-84460316D01*
X107791472Y-84495027D01*
X107902851Y-84559332D01*
X107960623Y-84592687D01*
X107998183Y-84614372D01*
X107998188Y-84614374D01*
X107998191Y-84614376D01*
X108282857Y-84732289D01*
X108580477Y-84812036D01*
X108885961Y-84852254D01*
X108885968Y-84852254D01*
X109194074Y-84852254D01*
X109194081Y-84852254D01*
X109499565Y-84812036D01*
X109797185Y-84732289D01*
X110081851Y-84614376D01*
X110082553Y-84613971D01*
X110119871Y-84592425D01*
X110348691Y-84460316D01*
X110593138Y-84272745D01*
X110625192Y-84240691D01*
X111599500Y-84240691D01*
X111599500Y-84359309D01*
X111630201Y-84473886D01*
X111689511Y-84576613D01*
X111773387Y-84660489D01*
X111876114Y-84719799D01*
X111990691Y-84750500D01*
X111990694Y-84750500D01*
X112109306Y-84750500D01*
X112109309Y-84750500D01*
X112223886Y-84719799D01*
X112326613Y-84660489D01*
X112410489Y-84576613D01*
X112469799Y-84473886D01*
X112500500Y-84359309D01*
X112500500Y-84240691D01*
X112469799Y-84126114D01*
X112410489Y-84023387D01*
X112352793Y-83965691D01*
X114299500Y-83965691D01*
X114299500Y-84084309D01*
X114330201Y-84198886D01*
X114389511Y-84301613D01*
X114473387Y-84385489D01*
X114576114Y-84444799D01*
X114690691Y-84475500D01*
X114690694Y-84475500D01*
X114809306Y-84475500D01*
X114809309Y-84475500D01*
X114923886Y-84444799D01*
X115026613Y-84385489D01*
X115110489Y-84301613D01*
X115169799Y-84198886D01*
X115200500Y-84084309D01*
X115200500Y-83965691D01*
X115169799Y-83851114D01*
X115110489Y-83748387D01*
X115026613Y-83664511D01*
X114923886Y-83605201D01*
X114809309Y-83574500D01*
X114809306Y-83574500D01*
X114690691Y-83574500D01*
X114599728Y-83598873D01*
X114599723Y-83598874D01*
X114576114Y-83605201D01*
X114576112Y-83605201D01*
X114576112Y-83605202D01*
X114554947Y-83617421D01*
X114554939Y-83617425D01*
X114473386Y-83664511D01*
X114473378Y-83664517D01*
X114389517Y-83748378D01*
X114389513Y-83748383D01*
X114389512Y-83748385D01*
X114353348Y-83811021D01*
X114353347Y-83811024D01*
X114342651Y-83829551D01*
X114330201Y-83851114D01*
X114299500Y-83965691D01*
X112352793Y-83965691D01*
X112326613Y-83939511D01*
X112223886Y-83880201D01*
X112109309Y-83849500D01*
X112109306Y-83849500D01*
X111990691Y-83849500D01*
X111899728Y-83873873D01*
X111899723Y-83873874D01*
X111876114Y-83880201D01*
X111876112Y-83880201D01*
X111876112Y-83880202D01*
X111854947Y-83892421D01*
X111854939Y-83892425D01*
X111773386Y-83939511D01*
X111773378Y-83939517D01*
X111689517Y-84023378D01*
X111689513Y-84023383D01*
X111689509Y-84023389D01*
X111689507Y-84023391D01*
X111646308Y-84098215D01*
X111646307Y-84098217D01*
X111635098Y-84117633D01*
X111630201Y-84126114D01*
X111599500Y-84240691D01*
X110625192Y-84240691D01*
X110721001Y-84144883D01*
X110764818Y-84101066D01*
X110811008Y-84054876D01*
X110811012Y-84054871D01*
X110998583Y-83810424D01*
X111152643Y-83543584D01*
X111270556Y-83258918D01*
X111350303Y-82961298D01*
X111390521Y-82655814D01*
X111390521Y-82347694D01*
X111350303Y-82042210D01*
X111270556Y-81744590D01*
X111152643Y-81459924D01*
X111152641Y-81459921D01*
X111152639Y-81459916D01*
X111152635Y-81459910D01*
X111152522Y-81459636D01*
X111151733Y-81458214D01*
X111150653Y-81456476D01*
X111085128Y-81342984D01*
X111075483Y-81326278D01*
X110998583Y-81193084D01*
X110959366Y-81141975D01*
X110889176Y-81050502D01*
X110889173Y-81050499D01*
X110889168Y-81050493D01*
X110820106Y-80960488D01*
X110811019Y-80948645D01*
X110811015Y-80948641D01*
X110811013Y-80948638D01*
X110811007Y-80948631D01*
X110593143Y-80730767D01*
X110593136Y-80730761D01*
X110593133Y-80730758D01*
X110593128Y-80730754D01*
X110377174Y-80565048D01*
X110348695Y-80543195D01*
X110348694Y-80543194D01*
X110348691Y-80543192D01*
X110234530Y-80477281D01*
X110234092Y-80477028D01*
X110081860Y-80389136D01*
X110081845Y-80389129D01*
X110081784Y-80389103D01*
X110045794Y-80374195D01*
X110014104Y-80348657D01*
X109988462Y-80330309D01*
X109976768Y-80300905D01*
X109975343Y-80298034D01*
X109974058Y-80294091D01*
X109962643Y-80265385D01*
X109976023Y-80196808D01*
X110024354Y-80146352D01*
X110057148Y-80133310D01*
X110062034Y-80132137D01*
X110090075Y-80128711D01*
X112777121Y-80108893D01*
X112780934Y-80108924D01*
G37*
%TD.AperFunction*%
%TD*%
M02*
