M48
; DRILL file {KiCad 9.0.0} date 2025-09-15T11:44:44-0600
; FORMAT={-:-/ absolute / inch / decimal}
; #@! TF.CreationDate,2025-09-15T11:44:44-06:00
; #@! TF.GenerationSoftware,Kicad,Pcbnew,9.0.0
; #@! TF.FileFunction,Plated,1,2,PTH
FMAT,2
INCH
; #@! TA.AperFunction,Plated,PTH,ViaDrill
T1C0.0118
; #@! TA.AperFunction,Plated,PTH,ViaDrill
T2C0.0155
; #@! TA.AperFunction,Plated,PTH,ViaDrill
T3C0.0157
; #@! TA.AperFunction,Plated,PTH,ComponentDrill
T4C0.0197
; #@! TA.AperFunction,Plated,PTH,ComponentDrill
T5C0.0236
; #@! TA.AperFunction,Plated,PTH,ComponentDrill
T6C0.0315
; #@! TA.AperFunction,Plated,PTH,ComponentDrill
T7C0.0866
%
G90
G05
T1
X3.0866Y-3.4882
X3.0866Y-3.6024
X3.0866Y-3.7165
X3.1339Y-3.4882
X3.1339Y-3.6024
X3.1339Y-3.7165
X3.1811Y-3.4882
X3.1811Y-3.7165
X3.2555Y-4.02
X3.2953Y-3.185
X3.2953Y-3.2795
X3.2953Y-3.374
X3.2972Y-3.8327
X3.3539Y-4.02
X3.3543Y-3.7087
X3.3543Y-3.7717
X3.435Y-3.7087
X3.4378Y-4.0196
X3.499Y-3.1752
X3.5039Y-3.3671
X3.5039Y-3.42
X3.5043Y-3.4528
X3.5413Y-3.4203
X3.5417Y-3.4531
X3.5433Y-3.7087
X3.5504Y-4.0201
X3.5528Y-3.5205
X3.5528Y-3.5522
X3.5797Y-3.1742
X3.6311Y-3.5858
X3.6319Y-3.4531
X3.6319Y-3.5197
X3.6551Y-4.0201
X3.6585Y-3.1742
X3.6937Y-3.452
X3.6937Y-3.5189
X3.6937Y-3.5858
X3.6937Y-3.6528
X3.6937Y-3.7197
X3.6937Y-3.7866
X3.7402Y-3.1752
X3.7484Y-3.5197
X3.7484Y-3.5866
X3.7484Y-3.6535
X3.7484Y-3.7205
X3.7484Y-3.7874
X3.7504Y-4.0201
X3.7618Y-3.35
X3.8177Y-3.35
X3.8429Y-3.7472
X3.8429Y-3.8142
X3.8429Y-3.8811
X3.8453Y-3.5118
X3.8732Y-3.5118
X3.8736Y-3.3496
X3.8976Y-3.748
X3.8976Y-3.815
X3.8976Y-3.8819
X3.9012Y-3.5118
X3.9311Y-3.2756
X3.9315Y-3.1827
X3.9793Y-3.5591
X4.0287Y-3.1827
X4.0496Y-3.2803
X4.0553Y-3.513
X4.0557Y-3.4874
X4.0634Y-3.7472
X4.0634Y-3.8142
X4.0634Y-3.8811
X4.0787Y-3.278
X4.0811Y-3.5134
X4.0815Y-3.4878
X4.1055Y-3.513
X4.1059Y-3.4874
X4.111Y-3.2807
X4.1181Y-3.748
X4.1181Y-3.815
X4.1181Y-3.8819
X4.1193Y-3.1831
X4.1689Y-3.4531
X4.2031Y-3.1831
X4.2352Y-3.8809
X4.2362Y-3.5118
X4.2362Y-3.6693
X4.2874Y-3.4394
X4.2874Y-3.5118
X4.3117Y-3.6693
X4.3854Y-3.1819
X4.3854Y-3.239
X4.3854Y-3.3059
X4.3858Y-3.728
X4.3862Y-3.4398
X4.3866Y-3.6693
X4.45Y-3.7724
X4.4799Y-3.1823
X4.4803Y-3.2386
X4.4803Y-3.3055
X4.4811Y-3.4402
X4.5087Y-3.7732
X4.5819Y-3.1827
X4.7Y-3.3
X4.7008Y-3.1831
X4.8425Y-3.1831
X4.902Y-3.4646
X4.9024Y-3.7362
X4.9713Y-3.7374
X4.9717Y-3.4622
X5.0228Y-3.776
X5.0244Y-3.4219
T2
X3.2386Y-3.6209
X3.2401Y-3.56
X3.3473Y-3.5657
T3
X3.3475Y-3.6404
T4
X3.6024Y-3.6685
X3.6024Y-3.7079
T5
X3.1067Y-3.4324
X3.1067Y-3.7726
X3.2713Y-3.4324
X3.2713Y-3.7726
T6
X4.5833Y-3.3498
X4.5833Y-3.4502
X4.5833Y-3.7502
X4.5833Y-3.8506
X4.8504Y-3.352
X4.8504Y-3.452
X4.8504Y-3.752
X4.8504Y-3.852
T7
X3.1533Y-3.9516
X3.1557Y-3.254
X4.9541Y-3.9516
X4.9543Y-3.2516
M30
