%TF.GenerationSoftware,KiCad,Pcbnew,9.0.0*%
%TF.CreationDate,2025-09-15T11:44:44-06:00*%
%TF.ProjectId,Burnwing,4275726e-7769-46e6-972e-6b696361645f,Rev 1*%
%TF.SameCoordinates,Original*%
%TF.FileFunction,Legend,Top*%
%TF.FilePolarity,Positive*%
%FSLAX46Y46*%
G04 Gerber Fmt 4.6, Leading zero omitted, Abs format (unit mm)*
G04 Created by KiCad (PCBNEW 9.0.0) date 2025-09-15 11:44:44*
%MOMM*%
%LPD*%
G01*
G04 APERTURE LIST*
G04 Aperture macros list*
%AMRoundRect*
0 Rectangle with rounded corners*
0 $1 Rounding radius*
0 $2 $3 $4 $5 $6 $7 $8 $9 X,Y pos of 4 corners*
0 Add a 4 corners polygon primitive as box body*
4,1,4,$2,$3,$4,$5,$6,$7,$8,$9,$2,$3,0*
0 Add four circle primitives for the rounded corners*
1,1,$1+$1,$2,$3*
1,1,$1+$1,$4,$5*
1,1,$1+$1,$6,$7*
1,1,$1+$1,$8,$9*
0 Add four rect primitives between the rounded corners*
20,1,$1+$1,$2,$3,$4,$5,0*
20,1,$1+$1,$4,$5,$6,$7,0*
20,1,$1+$1,$6,$7,$8,$9,0*
20,1,$1+$1,$8,$9,$2,$3,0*%
G04 Aperture macros list end*
%ADD10C,0.125000*%
%ADD11C,0.119969*%
%ADD12C,0.150000*%
%ADD13C,0.093750*%
%ADD14C,0.200000*%
%ADD15C,0.100000*%
%ADD16C,0.120000*%
%ADD17C,0.101600*%
%ADD18C,0.300000*%
%ADD19C,0.203200*%
%ADD20C,0.000000*%
%ADD21C,0.127000*%
%ADD22C,0.152400*%
%ADD23C,4.400000*%
%ADD24RoundRect,0.250000X0.475000X-0.337500X0.475000X0.337500X-0.475000X0.337500X-0.475000X-0.337500X0*%
%ADD25RoundRect,0.237500X-0.250000X-0.237500X0.250000X-0.237500X0.250000X0.237500X-0.250000X0.237500X0*%
%ADD26RoundRect,0.237500X0.250000X0.237500X-0.250000X0.237500X-0.250000X-0.237500X0.250000X-0.237500X0*%
%ADD27RoundRect,0.237500X0.237500X-0.250000X0.237500X0.250000X-0.237500X0.250000X-0.237500X-0.250000X0*%
%ADD28C,0.650000*%
%ADD29RoundRect,0.050800X-0.575000X0.287500X-0.575000X-0.287500X0.575000X-0.287500X0.575000X0.287500X0*%
%ADD30RoundRect,0.050800X-0.575000X0.137500X-0.575000X-0.137500X0.575000X-0.137500X0.575000X0.137500X0*%
%ADD31O,2.101600X1.101600*%
%ADD32RoundRect,0.237500X-0.237500X0.250000X-0.237500X-0.250000X0.237500X-0.250000X0.237500X0.250000X0*%
%ADD33O,0.590000X2.050000*%
%ADD34C,1.600000*%
%ADD35O,1.600000X1.600000*%
%ADD36R,0.850000X0.850000*%
%ADD37O,0.850000X0.850000*%
%ADD38RoundRect,0.303571X-1.371429X0.546429X-1.371429X-0.546429X1.371429X-0.546429X1.371429X0.546429X0*%
%ADD39RoundRect,0.237500X-0.237500X0.287500X-0.237500X-0.287500X0.237500X-0.287500X0.237500X0.287500X0*%
%ADD40RoundRect,0.200000X0.200000X0.600000X-0.200000X0.600000X-0.200000X-0.600000X0.200000X-0.600000X0*%
%ADD41RoundRect,0.277977X0.889523X1.222023X-0.889523X1.222023X-0.889523X-1.222023X0.889523X-1.222023X0*%
%ADD42RoundRect,0.150000X0.150000X0.350000X-0.150000X0.350000X-0.150000X-0.350000X0.150000X-0.350000X0*%
%ADD43RoundRect,0.250000X0.375000X0.650000X-0.375000X0.650000X-0.375000X-0.650000X0.375000X-0.650000X0*%
%ADD44RoundRect,0.250000X-0.337500X-0.475000X0.337500X-0.475000X0.337500X0.475000X-0.337500X0.475000X0*%
%ADD45RoundRect,0.250000X0.250000X-0.600000X0.250000X0.600000X-0.250000X0.600000X-0.250000X-0.600000X0*%
%ADD46RoundRect,0.050800X0.210000X-0.350000X0.210000X0.350000X-0.210000X0.350000X-0.210000X-0.350000X0*%
%ADD47RoundRect,0.050800X-1.175000X-1.125000X1.175000X-1.125000X1.175000X1.125000X-1.175000X1.125000X0*%
%ADD48RoundRect,0.237500X0.287500X0.237500X-0.287500X0.237500X-0.287500X-0.237500X0.287500X-0.237500X0*%
%ADD49RoundRect,0.035160X-0.415640X0.140640X-0.415640X-0.140640X0.415640X-0.140640X0.415640X0.140640X0*%
%ADD50RoundRect,0.168160X-0.672640X1.057640X-0.672640X-1.057640X0.672640X-1.057640X0.672640X1.057640X0*%
G04 APERTURE END LIST*
D10*
X99639523Y-84044333D02*
X100020476Y-84044333D01*
X100849523Y-84034333D02*
X101230476Y-84034333D01*
X101039999Y-84224809D02*
X101039999Y-83843857D01*
X103399523Y-84064333D02*
X103780476Y-84064333D01*
X104707619Y-83982904D02*
X104779047Y-84006714D01*
X104779047Y-84006714D02*
X104802857Y-84030523D01*
X104802857Y-84030523D02*
X104826666Y-84078142D01*
X104826666Y-84078142D02*
X104826666Y-84149571D01*
X104826666Y-84149571D02*
X104802857Y-84197190D01*
X104802857Y-84197190D02*
X104779047Y-84221000D01*
X104779047Y-84221000D02*
X104731428Y-84244809D01*
X104731428Y-84244809D02*
X104540952Y-84244809D01*
X104540952Y-84244809D02*
X104540952Y-83744809D01*
X104540952Y-83744809D02*
X104707619Y-83744809D01*
X104707619Y-83744809D02*
X104755238Y-83768619D01*
X104755238Y-83768619D02*
X104779047Y-83792428D01*
X104779047Y-83792428D02*
X104802857Y-83840047D01*
X104802857Y-83840047D02*
X104802857Y-83887666D01*
X104802857Y-83887666D02*
X104779047Y-83935285D01*
X104779047Y-83935285D02*
X104755238Y-83959095D01*
X104755238Y-83959095D02*
X104707619Y-83982904D01*
X104707619Y-83982904D02*
X104540952Y-83982904D01*
X105302857Y-84244809D02*
X105017143Y-84244809D01*
X105160000Y-84244809D02*
X105160000Y-83744809D01*
X105160000Y-83744809D02*
X105112381Y-83816238D01*
X105112381Y-83816238D02*
X105064762Y-83863857D01*
X105064762Y-83863857D02*
X105017143Y-83887666D01*
X102097619Y-83992904D02*
X102169047Y-84016714D01*
X102169047Y-84016714D02*
X102192857Y-84040523D01*
X102192857Y-84040523D02*
X102216666Y-84088142D01*
X102216666Y-84088142D02*
X102216666Y-84159571D01*
X102216666Y-84159571D02*
X102192857Y-84207190D01*
X102192857Y-84207190D02*
X102169047Y-84231000D01*
X102169047Y-84231000D02*
X102121428Y-84254809D01*
X102121428Y-84254809D02*
X101930952Y-84254809D01*
X101930952Y-84254809D02*
X101930952Y-83754809D01*
X101930952Y-83754809D02*
X102097619Y-83754809D01*
X102097619Y-83754809D02*
X102145238Y-83778619D01*
X102145238Y-83778619D02*
X102169047Y-83802428D01*
X102169047Y-83802428D02*
X102192857Y-83850047D01*
X102192857Y-83850047D02*
X102192857Y-83897666D01*
X102192857Y-83897666D02*
X102169047Y-83945285D01*
X102169047Y-83945285D02*
X102145238Y-83969095D01*
X102145238Y-83969095D02*
X102097619Y-83992904D01*
X102097619Y-83992904D02*
X101930952Y-83992904D01*
X102407143Y-83802428D02*
X102430952Y-83778619D01*
X102430952Y-83778619D02*
X102478571Y-83754809D01*
X102478571Y-83754809D02*
X102597619Y-83754809D01*
X102597619Y-83754809D02*
X102645238Y-83778619D01*
X102645238Y-83778619D02*
X102669047Y-83802428D01*
X102669047Y-83802428D02*
X102692857Y-83850047D01*
X102692857Y-83850047D02*
X102692857Y-83897666D01*
X102692857Y-83897666D02*
X102669047Y-83969095D01*
X102669047Y-83969095D02*
X102383333Y-84254809D01*
X102383333Y-84254809D02*
X102692857Y-84254809D01*
X89766666Y-81027190D02*
X89742857Y-81051000D01*
X89742857Y-81051000D02*
X89671428Y-81074809D01*
X89671428Y-81074809D02*
X89623809Y-81074809D01*
X89623809Y-81074809D02*
X89552381Y-81051000D01*
X89552381Y-81051000D02*
X89504762Y-81003380D01*
X89504762Y-81003380D02*
X89480952Y-80955761D01*
X89480952Y-80955761D02*
X89457143Y-80860523D01*
X89457143Y-80860523D02*
X89457143Y-80789095D01*
X89457143Y-80789095D02*
X89480952Y-80693857D01*
X89480952Y-80693857D02*
X89504762Y-80646238D01*
X89504762Y-80646238D02*
X89552381Y-80598619D01*
X89552381Y-80598619D02*
X89623809Y-80574809D01*
X89623809Y-80574809D02*
X89671428Y-80574809D01*
X89671428Y-80574809D02*
X89742857Y-80598619D01*
X89742857Y-80598619D02*
X89766666Y-80622428D01*
X90195238Y-80741476D02*
X90195238Y-81074809D01*
X90076190Y-80551000D02*
X89957143Y-80908142D01*
X89957143Y-80908142D02*
X90266666Y-80908142D01*
X81678571Y-85904809D02*
X81511905Y-85666714D01*
X81392857Y-85904809D02*
X81392857Y-85404809D01*
X81392857Y-85404809D02*
X81583333Y-85404809D01*
X81583333Y-85404809D02*
X81630952Y-85428619D01*
X81630952Y-85428619D02*
X81654762Y-85452428D01*
X81654762Y-85452428D02*
X81678571Y-85500047D01*
X81678571Y-85500047D02*
X81678571Y-85571476D01*
X81678571Y-85571476D02*
X81654762Y-85619095D01*
X81654762Y-85619095D02*
X81630952Y-85642904D01*
X81630952Y-85642904D02*
X81583333Y-85666714D01*
X81583333Y-85666714D02*
X81392857Y-85666714D01*
X82154762Y-85904809D02*
X81869048Y-85904809D01*
X82011905Y-85904809D02*
X82011905Y-85404809D01*
X82011905Y-85404809D02*
X81964286Y-85476238D01*
X81964286Y-85476238D02*
X81916667Y-85523857D01*
X81916667Y-85523857D02*
X81869048Y-85547666D01*
X82630952Y-85904809D02*
X82345238Y-85904809D01*
X82488095Y-85904809D02*
X82488095Y-85404809D01*
X82488095Y-85404809D02*
X82440476Y-85476238D01*
X82440476Y-85476238D02*
X82392857Y-85523857D01*
X82392857Y-85523857D02*
X82345238Y-85547666D01*
X92278571Y-96424809D02*
X92111905Y-96186714D01*
X91992857Y-96424809D02*
X91992857Y-95924809D01*
X91992857Y-95924809D02*
X92183333Y-95924809D01*
X92183333Y-95924809D02*
X92230952Y-95948619D01*
X92230952Y-95948619D02*
X92254762Y-95972428D01*
X92254762Y-95972428D02*
X92278571Y-96020047D01*
X92278571Y-96020047D02*
X92278571Y-96091476D01*
X92278571Y-96091476D02*
X92254762Y-96139095D01*
X92254762Y-96139095D02*
X92230952Y-96162904D01*
X92230952Y-96162904D02*
X92183333Y-96186714D01*
X92183333Y-96186714D02*
X91992857Y-96186714D01*
X92754762Y-96424809D02*
X92469048Y-96424809D01*
X92611905Y-96424809D02*
X92611905Y-95924809D01*
X92611905Y-95924809D02*
X92564286Y-95996238D01*
X92564286Y-95996238D02*
X92516667Y-96043857D01*
X92516667Y-96043857D02*
X92469048Y-96067666D01*
X93040476Y-96139095D02*
X92992857Y-96115285D01*
X92992857Y-96115285D02*
X92969047Y-96091476D01*
X92969047Y-96091476D02*
X92945238Y-96043857D01*
X92945238Y-96043857D02*
X92945238Y-96020047D01*
X92945238Y-96020047D02*
X92969047Y-95972428D01*
X92969047Y-95972428D02*
X92992857Y-95948619D01*
X92992857Y-95948619D02*
X93040476Y-95924809D01*
X93040476Y-95924809D02*
X93135714Y-95924809D01*
X93135714Y-95924809D02*
X93183333Y-95948619D01*
X93183333Y-95948619D02*
X93207142Y-95972428D01*
X93207142Y-95972428D02*
X93230952Y-96020047D01*
X93230952Y-96020047D02*
X93230952Y-96043857D01*
X93230952Y-96043857D02*
X93207142Y-96091476D01*
X93207142Y-96091476D02*
X93183333Y-96115285D01*
X93183333Y-96115285D02*
X93135714Y-96139095D01*
X93135714Y-96139095D02*
X93040476Y-96139095D01*
X93040476Y-96139095D02*
X92992857Y-96162904D01*
X92992857Y-96162904D02*
X92969047Y-96186714D01*
X92969047Y-96186714D02*
X92945238Y-96234333D01*
X92945238Y-96234333D02*
X92945238Y-96329571D01*
X92945238Y-96329571D02*
X92969047Y-96377190D01*
X92969047Y-96377190D02*
X92992857Y-96401000D01*
X92992857Y-96401000D02*
X93040476Y-96424809D01*
X93040476Y-96424809D02*
X93135714Y-96424809D01*
X93135714Y-96424809D02*
X93183333Y-96401000D01*
X93183333Y-96401000D02*
X93207142Y-96377190D01*
X93207142Y-96377190D02*
X93230952Y-96329571D01*
X93230952Y-96329571D02*
X93230952Y-96234333D01*
X93230952Y-96234333D02*
X93207142Y-96186714D01*
X93207142Y-96186714D02*
X93183333Y-96162904D01*
X93183333Y-96162904D02*
X93135714Y-96139095D01*
X101678571Y-92484809D02*
X101511905Y-92246714D01*
X101392857Y-92484809D02*
X101392857Y-91984809D01*
X101392857Y-91984809D02*
X101583333Y-91984809D01*
X101583333Y-91984809D02*
X101630952Y-92008619D01*
X101630952Y-92008619D02*
X101654762Y-92032428D01*
X101654762Y-92032428D02*
X101678571Y-92080047D01*
X101678571Y-92080047D02*
X101678571Y-92151476D01*
X101678571Y-92151476D02*
X101654762Y-92199095D01*
X101654762Y-92199095D02*
X101630952Y-92222904D01*
X101630952Y-92222904D02*
X101583333Y-92246714D01*
X101583333Y-92246714D02*
X101392857Y-92246714D01*
X102154762Y-92484809D02*
X101869048Y-92484809D01*
X102011905Y-92484809D02*
X102011905Y-91984809D01*
X102011905Y-91984809D02*
X101964286Y-92056238D01*
X101964286Y-92056238D02*
X101916667Y-92103857D01*
X101916667Y-92103857D02*
X101869048Y-92127666D01*
X102607142Y-91984809D02*
X102369047Y-91984809D01*
X102369047Y-91984809D02*
X102345238Y-92222904D01*
X102345238Y-92222904D02*
X102369047Y-92199095D01*
X102369047Y-92199095D02*
X102416666Y-92175285D01*
X102416666Y-92175285D02*
X102535714Y-92175285D01*
X102535714Y-92175285D02*
X102583333Y-92199095D01*
X102583333Y-92199095D02*
X102607142Y-92222904D01*
X102607142Y-92222904D02*
X102630952Y-92270523D01*
X102630952Y-92270523D02*
X102630952Y-92389571D01*
X102630952Y-92389571D02*
X102607142Y-92437190D01*
X102607142Y-92437190D02*
X102583333Y-92461000D01*
X102583333Y-92461000D02*
X102535714Y-92484809D01*
X102535714Y-92484809D02*
X102416666Y-92484809D01*
X102416666Y-92484809D02*
X102369047Y-92461000D01*
X102369047Y-92461000D02*
X102345238Y-92437190D01*
X86366666Y-96424809D02*
X86200000Y-96186714D01*
X86080952Y-96424809D02*
X86080952Y-95924809D01*
X86080952Y-95924809D02*
X86271428Y-95924809D01*
X86271428Y-95924809D02*
X86319047Y-95948619D01*
X86319047Y-95948619D02*
X86342857Y-95972428D01*
X86342857Y-95972428D02*
X86366666Y-96020047D01*
X86366666Y-96020047D02*
X86366666Y-96091476D01*
X86366666Y-96091476D02*
X86342857Y-96139095D01*
X86342857Y-96139095D02*
X86319047Y-96162904D01*
X86319047Y-96162904D02*
X86271428Y-96186714D01*
X86271428Y-96186714D02*
X86080952Y-96186714D01*
X86533333Y-95924809D02*
X86866666Y-95924809D01*
X86866666Y-95924809D02*
X86652381Y-96424809D01*
D11*
X78825836Y-91617570D02*
X78825836Y-91974713D01*
X78825836Y-91974713D02*
X78802027Y-92046141D01*
X78802027Y-92046141D02*
X78754408Y-92093761D01*
X78754408Y-92093761D02*
X78682979Y-92117570D01*
X78682979Y-92117570D02*
X78635360Y-92117570D01*
X79325836Y-92117570D02*
X79040122Y-92117570D01*
X79182979Y-92117570D02*
X79182979Y-91617570D01*
X79182979Y-91617570D02*
X79135360Y-91688999D01*
X79135360Y-91688999D02*
X79087741Y-91736618D01*
X79087741Y-91736618D02*
X79040122Y-91760427D01*
D10*
X96116666Y-92424809D02*
X95950000Y-92186714D01*
X95830952Y-92424809D02*
X95830952Y-91924809D01*
X95830952Y-91924809D02*
X96021428Y-91924809D01*
X96021428Y-91924809D02*
X96069047Y-91948619D01*
X96069047Y-91948619D02*
X96092857Y-91972428D01*
X96092857Y-91972428D02*
X96116666Y-92020047D01*
X96116666Y-92020047D02*
X96116666Y-92091476D01*
X96116666Y-92091476D02*
X96092857Y-92139095D01*
X96092857Y-92139095D02*
X96069047Y-92162904D01*
X96069047Y-92162904D02*
X96021428Y-92186714D01*
X96021428Y-92186714D02*
X95830952Y-92186714D01*
X96354762Y-92424809D02*
X96450000Y-92424809D01*
X96450000Y-92424809D02*
X96497619Y-92401000D01*
X96497619Y-92401000D02*
X96521428Y-92377190D01*
X96521428Y-92377190D02*
X96569047Y-92305761D01*
X96569047Y-92305761D02*
X96592857Y-92210523D01*
X96592857Y-92210523D02*
X96592857Y-92020047D01*
X96592857Y-92020047D02*
X96569047Y-91972428D01*
X96569047Y-91972428D02*
X96545238Y-91948619D01*
X96545238Y-91948619D02*
X96497619Y-91924809D01*
X96497619Y-91924809D02*
X96402381Y-91924809D01*
X96402381Y-91924809D02*
X96354762Y-91948619D01*
X96354762Y-91948619D02*
X96330952Y-91972428D01*
X96330952Y-91972428D02*
X96307143Y-92020047D01*
X96307143Y-92020047D02*
X96307143Y-92139095D01*
X96307143Y-92139095D02*
X96330952Y-92186714D01*
X96330952Y-92186714D02*
X96354762Y-92210523D01*
X96354762Y-92210523D02*
X96402381Y-92234333D01*
X96402381Y-92234333D02*
X96497619Y-92234333D01*
X96497619Y-92234333D02*
X96545238Y-92210523D01*
X96545238Y-92210523D02*
X96569047Y-92186714D01*
X96569047Y-92186714D02*
X96592857Y-92139095D01*
X109452380Y-94264928D02*
X109404761Y-94241119D01*
X109404761Y-94241119D02*
X109357142Y-94193500D01*
X109357142Y-94193500D02*
X109285714Y-94122071D01*
X109285714Y-94122071D02*
X109238095Y-94098261D01*
X109238095Y-94098261D02*
X109190476Y-94098261D01*
X109214285Y-94217309D02*
X109166666Y-94193500D01*
X109166666Y-94193500D02*
X109119047Y-94145880D01*
X109119047Y-94145880D02*
X109095238Y-94050642D01*
X109095238Y-94050642D02*
X109095238Y-93883976D01*
X109095238Y-93883976D02*
X109119047Y-93788738D01*
X109119047Y-93788738D02*
X109166666Y-93741119D01*
X109166666Y-93741119D02*
X109214285Y-93717309D01*
X109214285Y-93717309D02*
X109309523Y-93717309D01*
X109309523Y-93717309D02*
X109357142Y-93741119D01*
X109357142Y-93741119D02*
X109404761Y-93788738D01*
X109404761Y-93788738D02*
X109428571Y-93883976D01*
X109428571Y-93883976D02*
X109428571Y-94050642D01*
X109428571Y-94050642D02*
X109404761Y-94145880D01*
X109404761Y-94145880D02*
X109357142Y-94193500D01*
X109357142Y-94193500D02*
X109309523Y-94217309D01*
X109309523Y-94217309D02*
X109214285Y-94217309D01*
X109904762Y-94217309D02*
X109619048Y-94217309D01*
X109761905Y-94217309D02*
X109761905Y-93717309D01*
X109761905Y-93717309D02*
X109714286Y-93788738D01*
X109714286Y-93788738D02*
X109666667Y-93836357D01*
X109666667Y-93836357D02*
X109619048Y-93860166D01*
X84726666Y-88114809D02*
X84560000Y-87876714D01*
X84440952Y-88114809D02*
X84440952Y-87614809D01*
X84440952Y-87614809D02*
X84631428Y-87614809D01*
X84631428Y-87614809D02*
X84679047Y-87638619D01*
X84679047Y-87638619D02*
X84702857Y-87662428D01*
X84702857Y-87662428D02*
X84726666Y-87710047D01*
X84726666Y-87710047D02*
X84726666Y-87781476D01*
X84726666Y-87781476D02*
X84702857Y-87829095D01*
X84702857Y-87829095D02*
X84679047Y-87852904D01*
X84679047Y-87852904D02*
X84631428Y-87876714D01*
X84631428Y-87876714D02*
X84440952Y-87876714D01*
X84893333Y-87614809D02*
X85202857Y-87614809D01*
X85202857Y-87614809D02*
X85036190Y-87805285D01*
X85036190Y-87805285D02*
X85107619Y-87805285D01*
X85107619Y-87805285D02*
X85155238Y-87829095D01*
X85155238Y-87829095D02*
X85179047Y-87852904D01*
X85179047Y-87852904D02*
X85202857Y-87900523D01*
X85202857Y-87900523D02*
X85202857Y-88019571D01*
X85202857Y-88019571D02*
X85179047Y-88067190D01*
X85179047Y-88067190D02*
X85155238Y-88091000D01*
X85155238Y-88091000D02*
X85107619Y-88114809D01*
X85107619Y-88114809D02*
X84964762Y-88114809D01*
X84964762Y-88114809D02*
X84917143Y-88091000D01*
X84917143Y-88091000D02*
X84893333Y-88067190D01*
D12*
X118205566Y-96659164D02*
X117955566Y-96302021D01*
X117776995Y-96659164D02*
X117776995Y-95909164D01*
X117776995Y-95909164D02*
X118062709Y-95909164D01*
X118062709Y-95909164D02*
X118134138Y-95944878D01*
X118134138Y-95944878D02*
X118169852Y-95980592D01*
X118169852Y-95980592D02*
X118205566Y-96052021D01*
X118205566Y-96052021D02*
X118205566Y-96159164D01*
X118205566Y-96159164D02*
X118169852Y-96230592D01*
X118169852Y-96230592D02*
X118134138Y-96266307D01*
X118134138Y-96266307D02*
X118062709Y-96302021D01*
X118062709Y-96302021D02*
X117776995Y-96302021D01*
X118919852Y-96659164D02*
X118491281Y-96659164D01*
X118705566Y-96659164D02*
X118705566Y-95909164D01*
X118705566Y-95909164D02*
X118634138Y-96016307D01*
X118634138Y-96016307D02*
X118562709Y-96087735D01*
X118562709Y-96087735D02*
X118491281Y-96123450D01*
D13*
X88228105Y-102455339D02*
X87799534Y-102455339D01*
X88013819Y-102455339D02*
X88013819Y-101705339D01*
X88013819Y-101705339D02*
X87942391Y-101812482D01*
X87942391Y-101812482D02*
X87870962Y-101883910D01*
X87870962Y-101883910D02*
X87799534Y-101919625D01*
X88513820Y-101776767D02*
X88549534Y-101741053D01*
X88549534Y-101741053D02*
X88620963Y-101705339D01*
X88620963Y-101705339D02*
X88799534Y-101705339D01*
X88799534Y-101705339D02*
X88870963Y-101741053D01*
X88870963Y-101741053D02*
X88906677Y-101776767D01*
X88906677Y-101776767D02*
X88942391Y-101848196D01*
X88942391Y-101848196D02*
X88942391Y-101919625D01*
X88942391Y-101919625D02*
X88906677Y-102026767D01*
X88906677Y-102026767D02*
X88478105Y-102455339D01*
X88478105Y-102455339D02*
X88942391Y-102455339D01*
X89156677Y-101705339D02*
X89406677Y-102455339D01*
X89406677Y-102455339D02*
X89656677Y-101705339D01*
D10*
X98010952Y-93724809D02*
X98010952Y-93224809D01*
X98010952Y-93224809D02*
X98130000Y-93224809D01*
X98130000Y-93224809D02*
X98201428Y-93248619D01*
X98201428Y-93248619D02*
X98249047Y-93296238D01*
X98249047Y-93296238D02*
X98272857Y-93343857D01*
X98272857Y-93343857D02*
X98296666Y-93439095D01*
X98296666Y-93439095D02*
X98296666Y-93510523D01*
X98296666Y-93510523D02*
X98272857Y-93605761D01*
X98272857Y-93605761D02*
X98249047Y-93653380D01*
X98249047Y-93653380D02*
X98201428Y-93701000D01*
X98201428Y-93701000D02*
X98130000Y-93724809D01*
X98130000Y-93724809D02*
X98010952Y-93724809D01*
X98772857Y-93724809D02*
X98487143Y-93724809D01*
X98630000Y-93724809D02*
X98630000Y-93224809D01*
X98630000Y-93224809D02*
X98582381Y-93296238D01*
X98582381Y-93296238D02*
X98534762Y-93343857D01*
X98534762Y-93343857D02*
X98487143Y-93367666D01*
X103380952Y-93737309D02*
X103380952Y-93237309D01*
X103380952Y-93237309D02*
X103500000Y-93237309D01*
X103500000Y-93237309D02*
X103571428Y-93261119D01*
X103571428Y-93261119D02*
X103619047Y-93308738D01*
X103619047Y-93308738D02*
X103642857Y-93356357D01*
X103642857Y-93356357D02*
X103666666Y-93451595D01*
X103666666Y-93451595D02*
X103666666Y-93523023D01*
X103666666Y-93523023D02*
X103642857Y-93618261D01*
X103642857Y-93618261D02*
X103619047Y-93665880D01*
X103619047Y-93665880D02*
X103571428Y-93713500D01*
X103571428Y-93713500D02*
X103500000Y-93737309D01*
X103500000Y-93737309D02*
X103380952Y-93737309D01*
X103857143Y-93284928D02*
X103880952Y-93261119D01*
X103880952Y-93261119D02*
X103928571Y-93237309D01*
X103928571Y-93237309D02*
X104047619Y-93237309D01*
X104047619Y-93237309D02*
X104095238Y-93261119D01*
X104095238Y-93261119D02*
X104119047Y-93284928D01*
X104119047Y-93284928D02*
X104142857Y-93332547D01*
X104142857Y-93332547D02*
X104142857Y-93380166D01*
X104142857Y-93380166D02*
X104119047Y-93451595D01*
X104119047Y-93451595D02*
X103833333Y-93737309D01*
X103833333Y-93737309D02*
X104142857Y-93737309D01*
D12*
X121355566Y-96659164D02*
X121105566Y-96302021D01*
X120926995Y-96659164D02*
X120926995Y-95909164D01*
X120926995Y-95909164D02*
X121212709Y-95909164D01*
X121212709Y-95909164D02*
X121284138Y-95944878D01*
X121284138Y-95944878D02*
X121319852Y-95980592D01*
X121319852Y-95980592D02*
X121355566Y-96052021D01*
X121355566Y-96052021D02*
X121355566Y-96159164D01*
X121355566Y-96159164D02*
X121319852Y-96230592D01*
X121319852Y-96230592D02*
X121284138Y-96266307D01*
X121284138Y-96266307D02*
X121212709Y-96302021D01*
X121212709Y-96302021D02*
X120926995Y-96302021D01*
X121641281Y-95980592D02*
X121676995Y-95944878D01*
X121676995Y-95944878D02*
X121748424Y-95909164D01*
X121748424Y-95909164D02*
X121926995Y-95909164D01*
X121926995Y-95909164D02*
X121998424Y-95944878D01*
X121998424Y-95944878D02*
X122034138Y-95980592D01*
X122034138Y-95980592D02*
X122069852Y-96052021D01*
X122069852Y-96052021D02*
X122069852Y-96123450D01*
X122069852Y-96123450D02*
X122034138Y-96230592D01*
X122034138Y-96230592D02*
X121605566Y-96659164D01*
X121605566Y-96659164D02*
X122069852Y-96659164D01*
D13*
X85850962Y-102455046D02*
X85993819Y-102455046D01*
X85993819Y-102455046D02*
X86065248Y-102419332D01*
X86065248Y-102419332D02*
X86100962Y-102383617D01*
X86100962Y-102383617D02*
X86172391Y-102276474D01*
X86172391Y-102276474D02*
X86208105Y-102133617D01*
X86208105Y-102133617D02*
X86208105Y-101847903D01*
X86208105Y-101847903D02*
X86172391Y-101776474D01*
X86172391Y-101776474D02*
X86136677Y-101740760D01*
X86136677Y-101740760D02*
X86065248Y-101705046D01*
X86065248Y-101705046D02*
X85922391Y-101705046D01*
X85922391Y-101705046D02*
X85850962Y-101740760D01*
X85850962Y-101740760D02*
X85815248Y-101776474D01*
X85815248Y-101776474D02*
X85779534Y-101847903D01*
X85779534Y-101847903D02*
X85779534Y-102026474D01*
X85779534Y-102026474D02*
X85815248Y-102097903D01*
X85815248Y-102097903D02*
X85850962Y-102133617D01*
X85850962Y-102133617D02*
X85922391Y-102169332D01*
X85922391Y-102169332D02*
X86065248Y-102169332D01*
X86065248Y-102169332D02*
X86136677Y-102133617D01*
X86136677Y-102133617D02*
X86172391Y-102097903D01*
X86172391Y-102097903D02*
X86208105Y-102026474D01*
X86422391Y-101705046D02*
X86672391Y-102455046D01*
X86672391Y-102455046D02*
X86922391Y-101705046D01*
D10*
X105949523Y-84064333D02*
X106330476Y-84064333D01*
X106139999Y-84254809D02*
X106139999Y-83873857D01*
X99588571Y-92534809D02*
X99421905Y-92296714D01*
X99302857Y-92534809D02*
X99302857Y-92034809D01*
X99302857Y-92034809D02*
X99493333Y-92034809D01*
X99493333Y-92034809D02*
X99540952Y-92058619D01*
X99540952Y-92058619D02*
X99564762Y-92082428D01*
X99564762Y-92082428D02*
X99588571Y-92130047D01*
X99588571Y-92130047D02*
X99588571Y-92201476D01*
X99588571Y-92201476D02*
X99564762Y-92249095D01*
X99564762Y-92249095D02*
X99540952Y-92272904D01*
X99540952Y-92272904D02*
X99493333Y-92296714D01*
X99493333Y-92296714D02*
X99302857Y-92296714D01*
X100064762Y-92534809D02*
X99779048Y-92534809D01*
X99921905Y-92534809D02*
X99921905Y-92034809D01*
X99921905Y-92034809D02*
X99874286Y-92106238D01*
X99874286Y-92106238D02*
X99826667Y-92153857D01*
X99826667Y-92153857D02*
X99779048Y-92177666D01*
X100374285Y-92034809D02*
X100421904Y-92034809D01*
X100421904Y-92034809D02*
X100469523Y-92058619D01*
X100469523Y-92058619D02*
X100493333Y-92082428D01*
X100493333Y-92082428D02*
X100517142Y-92130047D01*
X100517142Y-92130047D02*
X100540952Y-92225285D01*
X100540952Y-92225285D02*
X100540952Y-92344333D01*
X100540952Y-92344333D02*
X100517142Y-92439571D01*
X100517142Y-92439571D02*
X100493333Y-92487190D01*
X100493333Y-92487190D02*
X100469523Y-92511000D01*
X100469523Y-92511000D02*
X100421904Y-92534809D01*
X100421904Y-92534809D02*
X100374285Y-92534809D01*
X100374285Y-92534809D02*
X100326666Y-92511000D01*
X100326666Y-92511000D02*
X100302857Y-92487190D01*
X100302857Y-92487190D02*
X100279047Y-92439571D01*
X100279047Y-92439571D02*
X100255238Y-92344333D01*
X100255238Y-92344333D02*
X100255238Y-92225285D01*
X100255238Y-92225285D02*
X100279047Y-92130047D01*
X100279047Y-92130047D02*
X100302857Y-92082428D01*
X100302857Y-92082428D02*
X100326666Y-92058619D01*
X100326666Y-92058619D02*
X100374285Y-92034809D01*
D13*
X91523105Y-102458046D02*
X91094534Y-102458046D01*
X91308819Y-102458046D02*
X91308819Y-101708046D01*
X91308819Y-101708046D02*
X91237391Y-101815189D01*
X91237391Y-101815189D02*
X91165962Y-101886617D01*
X91165962Y-101886617D02*
X91094534Y-101922332D01*
X91808820Y-102243760D02*
X92165963Y-102243760D01*
X91737391Y-102458046D02*
X91987391Y-101708046D01*
X91987391Y-101708046D02*
X92237391Y-102458046D01*
D10*
X85296666Y-89897190D02*
X85272857Y-89921000D01*
X85272857Y-89921000D02*
X85201428Y-89944809D01*
X85201428Y-89944809D02*
X85153809Y-89944809D01*
X85153809Y-89944809D02*
X85082381Y-89921000D01*
X85082381Y-89921000D02*
X85034762Y-89873380D01*
X85034762Y-89873380D02*
X85010952Y-89825761D01*
X85010952Y-89825761D02*
X84987143Y-89730523D01*
X84987143Y-89730523D02*
X84987143Y-89659095D01*
X84987143Y-89659095D02*
X85010952Y-89563857D01*
X85010952Y-89563857D02*
X85034762Y-89516238D01*
X85034762Y-89516238D02*
X85082381Y-89468619D01*
X85082381Y-89468619D02*
X85153809Y-89444809D01*
X85153809Y-89444809D02*
X85201428Y-89444809D01*
X85201428Y-89444809D02*
X85272857Y-89468619D01*
X85272857Y-89468619D02*
X85296666Y-89492428D01*
X85772857Y-89944809D02*
X85487143Y-89944809D01*
X85630000Y-89944809D02*
X85630000Y-89444809D01*
X85630000Y-89444809D02*
X85582381Y-89516238D01*
X85582381Y-89516238D02*
X85534762Y-89563857D01*
X85534762Y-89563857D02*
X85487143Y-89587666D01*
X105358571Y-92414809D02*
X105191905Y-92176714D01*
X105072857Y-92414809D02*
X105072857Y-91914809D01*
X105072857Y-91914809D02*
X105263333Y-91914809D01*
X105263333Y-91914809D02*
X105310952Y-91938619D01*
X105310952Y-91938619D02*
X105334762Y-91962428D01*
X105334762Y-91962428D02*
X105358571Y-92010047D01*
X105358571Y-92010047D02*
X105358571Y-92081476D01*
X105358571Y-92081476D02*
X105334762Y-92129095D01*
X105334762Y-92129095D02*
X105310952Y-92152904D01*
X105310952Y-92152904D02*
X105263333Y-92176714D01*
X105263333Y-92176714D02*
X105072857Y-92176714D01*
X105834762Y-92414809D02*
X105549048Y-92414809D01*
X105691905Y-92414809D02*
X105691905Y-91914809D01*
X105691905Y-91914809D02*
X105644286Y-91986238D01*
X105644286Y-91986238D02*
X105596667Y-92033857D01*
X105596667Y-92033857D02*
X105549048Y-92057666D01*
X106263333Y-91914809D02*
X106168095Y-91914809D01*
X106168095Y-91914809D02*
X106120476Y-91938619D01*
X106120476Y-91938619D02*
X106096666Y-91962428D01*
X106096666Y-91962428D02*
X106049047Y-92033857D01*
X106049047Y-92033857D02*
X106025238Y-92129095D01*
X106025238Y-92129095D02*
X106025238Y-92319571D01*
X106025238Y-92319571D02*
X106049047Y-92367190D01*
X106049047Y-92367190D02*
X106072857Y-92391000D01*
X106072857Y-92391000D02*
X106120476Y-92414809D01*
X106120476Y-92414809D02*
X106215714Y-92414809D01*
X106215714Y-92414809D02*
X106263333Y-92391000D01*
X106263333Y-92391000D02*
X106287142Y-92367190D01*
X106287142Y-92367190D02*
X106310952Y-92319571D01*
X106310952Y-92319571D02*
X106310952Y-92200523D01*
X106310952Y-92200523D02*
X106287142Y-92152904D01*
X106287142Y-92152904D02*
X106263333Y-92129095D01*
X106263333Y-92129095D02*
X106215714Y-92105285D01*
X106215714Y-92105285D02*
X106120476Y-92105285D01*
X106120476Y-92105285D02*
X106072857Y-92129095D01*
X106072857Y-92129095D02*
X106049047Y-92152904D01*
X106049047Y-92152904D02*
X106025238Y-92200523D01*
X92046666Y-87394809D02*
X91880000Y-87156714D01*
X91760952Y-87394809D02*
X91760952Y-86894809D01*
X91760952Y-86894809D02*
X91951428Y-86894809D01*
X91951428Y-86894809D02*
X91999047Y-86918619D01*
X91999047Y-86918619D02*
X92022857Y-86942428D01*
X92022857Y-86942428D02*
X92046666Y-86990047D01*
X92046666Y-86990047D02*
X92046666Y-87061476D01*
X92046666Y-87061476D02*
X92022857Y-87109095D01*
X92022857Y-87109095D02*
X91999047Y-87132904D01*
X91999047Y-87132904D02*
X91951428Y-87156714D01*
X91951428Y-87156714D02*
X91760952Y-87156714D01*
X92475238Y-87061476D02*
X92475238Y-87394809D01*
X92356190Y-86871000D02*
X92237143Y-87228142D01*
X92237143Y-87228142D02*
X92546666Y-87228142D01*
D14*
X96860952Y-101898409D02*
X97003809Y-101946028D01*
X97003809Y-101946028D02*
X97051428Y-101993647D01*
X97051428Y-101993647D02*
X97099047Y-102088885D01*
X97099047Y-102088885D02*
X97099047Y-102231742D01*
X97099047Y-102231742D02*
X97051428Y-102326980D01*
X97051428Y-102326980D02*
X97003809Y-102374600D01*
X97003809Y-102374600D02*
X96908571Y-102422219D01*
X96908571Y-102422219D02*
X96527619Y-102422219D01*
X96527619Y-102422219D02*
X96527619Y-101422219D01*
X96527619Y-101422219D02*
X96860952Y-101422219D01*
X96860952Y-101422219D02*
X96956190Y-101469838D01*
X96956190Y-101469838D02*
X97003809Y-101517457D01*
X97003809Y-101517457D02*
X97051428Y-101612695D01*
X97051428Y-101612695D02*
X97051428Y-101707933D01*
X97051428Y-101707933D02*
X97003809Y-101803171D01*
X97003809Y-101803171D02*
X96956190Y-101850790D01*
X96956190Y-101850790D02*
X96860952Y-101898409D01*
X96860952Y-101898409D02*
X96527619Y-101898409D01*
X97956190Y-101755552D02*
X97956190Y-102422219D01*
X97527619Y-101755552D02*
X97527619Y-102279361D01*
X97527619Y-102279361D02*
X97575238Y-102374600D01*
X97575238Y-102374600D02*
X97670476Y-102422219D01*
X97670476Y-102422219D02*
X97813333Y-102422219D01*
X97813333Y-102422219D02*
X97908571Y-102374600D01*
X97908571Y-102374600D02*
X97956190Y-102326980D01*
X98432381Y-102422219D02*
X98432381Y-101755552D01*
X98432381Y-101946028D02*
X98480000Y-101850790D01*
X98480000Y-101850790D02*
X98527619Y-101803171D01*
X98527619Y-101803171D02*
X98622857Y-101755552D01*
X98622857Y-101755552D02*
X98718095Y-101755552D01*
X99051429Y-101755552D02*
X99051429Y-102422219D01*
X99051429Y-101850790D02*
X99099048Y-101803171D01*
X99099048Y-101803171D02*
X99194286Y-101755552D01*
X99194286Y-101755552D02*
X99337143Y-101755552D01*
X99337143Y-101755552D02*
X99432381Y-101803171D01*
X99432381Y-101803171D02*
X99480000Y-101898409D01*
X99480000Y-101898409D02*
X99480000Y-102422219D01*
X100480000Y-102422219D02*
X99908572Y-102422219D01*
X100194286Y-102422219D02*
X100194286Y-101422219D01*
X100194286Y-101422219D02*
X100099048Y-101565076D01*
X100099048Y-101565076D02*
X100003810Y-101660314D01*
X100003810Y-101660314D02*
X99908572Y-101707933D01*
D10*
X91841666Y-81052190D02*
X91817857Y-81076000D01*
X91817857Y-81076000D02*
X91746428Y-81099809D01*
X91746428Y-81099809D02*
X91698809Y-81099809D01*
X91698809Y-81099809D02*
X91627381Y-81076000D01*
X91627381Y-81076000D02*
X91579762Y-81028380D01*
X91579762Y-81028380D02*
X91555952Y-80980761D01*
X91555952Y-80980761D02*
X91532143Y-80885523D01*
X91532143Y-80885523D02*
X91532143Y-80814095D01*
X91532143Y-80814095D02*
X91555952Y-80718857D01*
X91555952Y-80718857D02*
X91579762Y-80671238D01*
X91579762Y-80671238D02*
X91627381Y-80623619D01*
X91627381Y-80623619D02*
X91698809Y-80599809D01*
X91698809Y-80599809D02*
X91746428Y-80599809D01*
X91746428Y-80599809D02*
X91817857Y-80623619D01*
X91817857Y-80623619D02*
X91841666Y-80647428D01*
X92008333Y-80599809D02*
X92317857Y-80599809D01*
X92317857Y-80599809D02*
X92151190Y-80790285D01*
X92151190Y-80790285D02*
X92222619Y-80790285D01*
X92222619Y-80790285D02*
X92270238Y-80814095D01*
X92270238Y-80814095D02*
X92294047Y-80837904D01*
X92294047Y-80837904D02*
X92317857Y-80885523D01*
X92317857Y-80885523D02*
X92317857Y-81004571D01*
X92317857Y-81004571D02*
X92294047Y-81052190D01*
X92294047Y-81052190D02*
X92270238Y-81076000D01*
X92270238Y-81076000D02*
X92222619Y-81099809D01*
X92222619Y-81099809D02*
X92079762Y-81099809D01*
X92079762Y-81099809D02*
X92032143Y-81076000D01*
X92032143Y-81076000D02*
X92008333Y-81052190D01*
X126288571Y-87184809D02*
X126121905Y-86946714D01*
X126002857Y-87184809D02*
X126002857Y-86684809D01*
X126002857Y-86684809D02*
X126193333Y-86684809D01*
X126193333Y-86684809D02*
X126240952Y-86708619D01*
X126240952Y-86708619D02*
X126264762Y-86732428D01*
X126264762Y-86732428D02*
X126288571Y-86780047D01*
X126288571Y-86780047D02*
X126288571Y-86851476D01*
X126288571Y-86851476D02*
X126264762Y-86899095D01*
X126264762Y-86899095D02*
X126240952Y-86922904D01*
X126240952Y-86922904D02*
X126193333Y-86946714D01*
X126193333Y-86946714D02*
X126002857Y-86946714D01*
X126764762Y-87184809D02*
X126479048Y-87184809D01*
X126621905Y-87184809D02*
X126621905Y-86684809D01*
X126621905Y-86684809D02*
X126574286Y-86756238D01*
X126574286Y-86756238D02*
X126526667Y-86803857D01*
X126526667Y-86803857D02*
X126479048Y-86827666D01*
X126955238Y-86732428D02*
X126979047Y-86708619D01*
X126979047Y-86708619D02*
X127026666Y-86684809D01*
X127026666Y-86684809D02*
X127145714Y-86684809D01*
X127145714Y-86684809D02*
X127193333Y-86708619D01*
X127193333Y-86708619D02*
X127217142Y-86732428D01*
X127217142Y-86732428D02*
X127240952Y-86780047D01*
X127240952Y-86780047D02*
X127240952Y-86827666D01*
X127240952Y-86827666D02*
X127217142Y-86899095D01*
X127217142Y-86899095D02*
X126931428Y-87184809D01*
X126931428Y-87184809D02*
X127240952Y-87184809D01*
X81828571Y-97564809D02*
X81661905Y-97326714D01*
X81542857Y-97564809D02*
X81542857Y-97064809D01*
X81542857Y-97064809D02*
X81733333Y-97064809D01*
X81733333Y-97064809D02*
X81780952Y-97088619D01*
X81780952Y-97088619D02*
X81804762Y-97112428D01*
X81804762Y-97112428D02*
X81828571Y-97160047D01*
X81828571Y-97160047D02*
X81828571Y-97231476D01*
X81828571Y-97231476D02*
X81804762Y-97279095D01*
X81804762Y-97279095D02*
X81780952Y-97302904D01*
X81780952Y-97302904D02*
X81733333Y-97326714D01*
X81733333Y-97326714D02*
X81542857Y-97326714D01*
X82304762Y-97564809D02*
X82019048Y-97564809D01*
X82161905Y-97564809D02*
X82161905Y-97064809D01*
X82161905Y-97064809D02*
X82114286Y-97136238D01*
X82114286Y-97136238D02*
X82066667Y-97183857D01*
X82066667Y-97183857D02*
X82019048Y-97207666D01*
X82471428Y-97064809D02*
X82780952Y-97064809D01*
X82780952Y-97064809D02*
X82614285Y-97255285D01*
X82614285Y-97255285D02*
X82685714Y-97255285D01*
X82685714Y-97255285D02*
X82733333Y-97279095D01*
X82733333Y-97279095D02*
X82757142Y-97302904D01*
X82757142Y-97302904D02*
X82780952Y-97350523D01*
X82780952Y-97350523D02*
X82780952Y-97469571D01*
X82780952Y-97469571D02*
X82757142Y-97517190D01*
X82757142Y-97517190D02*
X82733333Y-97541000D01*
X82733333Y-97541000D02*
X82685714Y-97564809D01*
X82685714Y-97564809D02*
X82542857Y-97564809D01*
X82542857Y-97564809D02*
X82495238Y-97541000D01*
X82495238Y-97541000D02*
X82471428Y-97517190D01*
X117028571Y-83534809D02*
X116861905Y-83296714D01*
X116742857Y-83534809D02*
X116742857Y-83034809D01*
X116742857Y-83034809D02*
X116933333Y-83034809D01*
X116933333Y-83034809D02*
X116980952Y-83058619D01*
X116980952Y-83058619D02*
X117004762Y-83082428D01*
X117004762Y-83082428D02*
X117028571Y-83130047D01*
X117028571Y-83130047D02*
X117028571Y-83201476D01*
X117028571Y-83201476D02*
X117004762Y-83249095D01*
X117004762Y-83249095D02*
X116980952Y-83272904D01*
X116980952Y-83272904D02*
X116933333Y-83296714D01*
X116933333Y-83296714D02*
X116742857Y-83296714D01*
X117504762Y-83534809D02*
X117219048Y-83534809D01*
X117361905Y-83534809D02*
X117361905Y-83034809D01*
X117361905Y-83034809D02*
X117314286Y-83106238D01*
X117314286Y-83106238D02*
X117266667Y-83153857D01*
X117266667Y-83153857D02*
X117219048Y-83177666D01*
X117671428Y-83034809D02*
X118004761Y-83034809D01*
X118004761Y-83034809D02*
X117790476Y-83534809D01*
D15*
X84397430Y-84166228D02*
X84349811Y-84142419D01*
X84349811Y-84142419D02*
X84302192Y-84094800D01*
X84302192Y-84094800D02*
X84230764Y-84023371D01*
X84230764Y-84023371D02*
X84183145Y-83999561D01*
X84183145Y-83999561D02*
X84135526Y-83999561D01*
X84159335Y-84118609D02*
X84111716Y-84094800D01*
X84111716Y-84094800D02*
X84064097Y-84047180D01*
X84064097Y-84047180D02*
X84040288Y-83951942D01*
X84040288Y-83951942D02*
X84040288Y-83785276D01*
X84040288Y-83785276D02*
X84064097Y-83690038D01*
X84064097Y-83690038D02*
X84111716Y-83642419D01*
X84111716Y-83642419D02*
X84159335Y-83618609D01*
X84159335Y-83618609D02*
X84254573Y-83618609D01*
X84254573Y-83618609D02*
X84302192Y-83642419D01*
X84302192Y-83642419D02*
X84349811Y-83690038D01*
X84349811Y-83690038D02*
X84373621Y-83785276D01*
X84373621Y-83785276D02*
X84373621Y-83951942D01*
X84373621Y-83951942D02*
X84349811Y-84047180D01*
X84349811Y-84047180D02*
X84302192Y-84094800D01*
X84302192Y-84094800D02*
X84254573Y-84118609D01*
X84254573Y-84118609D02*
X84159335Y-84118609D01*
X84564098Y-83666228D02*
X84587907Y-83642419D01*
X84587907Y-83642419D02*
X84635526Y-83618609D01*
X84635526Y-83618609D02*
X84754574Y-83618609D01*
X84754574Y-83618609D02*
X84802193Y-83642419D01*
X84802193Y-83642419D02*
X84826002Y-83666228D01*
X84826002Y-83666228D02*
X84849812Y-83713847D01*
X84849812Y-83713847D02*
X84849812Y-83761466D01*
X84849812Y-83761466D02*
X84826002Y-83832895D01*
X84826002Y-83832895D02*
X84540288Y-84118609D01*
X84540288Y-84118609D02*
X84849812Y-84118609D01*
D10*
X84732914Y-86615516D02*
X84566248Y-86377421D01*
X84447200Y-86615516D02*
X84447200Y-86115516D01*
X84447200Y-86115516D02*
X84637676Y-86115516D01*
X84637676Y-86115516D02*
X84685295Y-86139326D01*
X84685295Y-86139326D02*
X84709105Y-86163135D01*
X84709105Y-86163135D02*
X84732914Y-86210754D01*
X84732914Y-86210754D02*
X84732914Y-86282183D01*
X84732914Y-86282183D02*
X84709105Y-86329802D01*
X84709105Y-86329802D02*
X84685295Y-86353611D01*
X84685295Y-86353611D02*
X84637676Y-86377421D01*
X84637676Y-86377421D02*
X84447200Y-86377421D01*
X85185295Y-86115516D02*
X84947200Y-86115516D01*
X84947200Y-86115516D02*
X84923391Y-86353611D01*
X84923391Y-86353611D02*
X84947200Y-86329802D01*
X84947200Y-86329802D02*
X84994819Y-86305992D01*
X84994819Y-86305992D02*
X85113867Y-86305992D01*
X85113867Y-86305992D02*
X85161486Y-86329802D01*
X85161486Y-86329802D02*
X85185295Y-86353611D01*
X85185295Y-86353611D02*
X85209105Y-86401230D01*
X85209105Y-86401230D02*
X85209105Y-86520278D01*
X85209105Y-86520278D02*
X85185295Y-86567897D01*
X85185295Y-86567897D02*
X85161486Y-86591707D01*
X85161486Y-86591707D02*
X85113867Y-86615516D01*
X85113867Y-86615516D02*
X84994819Y-86615516D01*
X84994819Y-86615516D02*
X84947200Y-86591707D01*
X84947200Y-86591707D02*
X84923391Y-86567897D01*
D13*
X83857391Y-101693339D02*
X83500248Y-101693339D01*
X83500248Y-101693339D02*
X83464534Y-102050482D01*
X83464534Y-102050482D02*
X83500248Y-102014767D01*
X83500248Y-102014767D02*
X83571677Y-101979053D01*
X83571677Y-101979053D02*
X83750248Y-101979053D01*
X83750248Y-101979053D02*
X83821677Y-102014767D01*
X83821677Y-102014767D02*
X83857391Y-102050482D01*
X83857391Y-102050482D02*
X83893105Y-102121910D01*
X83893105Y-102121910D02*
X83893105Y-102300482D01*
X83893105Y-102300482D02*
X83857391Y-102371910D01*
X83857391Y-102371910D02*
X83821677Y-102407625D01*
X83821677Y-102407625D02*
X83750248Y-102443339D01*
X83750248Y-102443339D02*
X83571677Y-102443339D01*
X83571677Y-102443339D02*
X83500248Y-102407625D01*
X83500248Y-102407625D02*
X83464534Y-102371910D01*
X84107391Y-101693339D02*
X84357391Y-102443339D01*
X84357391Y-102443339D02*
X84607391Y-101693339D01*
D10*
X126228571Y-96144809D02*
X126061905Y-95906714D01*
X125942857Y-96144809D02*
X125942857Y-95644809D01*
X125942857Y-95644809D02*
X126133333Y-95644809D01*
X126133333Y-95644809D02*
X126180952Y-95668619D01*
X126180952Y-95668619D02*
X126204762Y-95692428D01*
X126204762Y-95692428D02*
X126228571Y-95740047D01*
X126228571Y-95740047D02*
X126228571Y-95811476D01*
X126228571Y-95811476D02*
X126204762Y-95859095D01*
X126204762Y-95859095D02*
X126180952Y-95882904D01*
X126180952Y-95882904D02*
X126133333Y-95906714D01*
X126133333Y-95906714D02*
X125942857Y-95906714D01*
X126704762Y-96144809D02*
X126419048Y-96144809D01*
X126561905Y-96144809D02*
X126561905Y-95644809D01*
X126561905Y-95644809D02*
X126514286Y-95716238D01*
X126514286Y-95716238D02*
X126466667Y-95763857D01*
X126466667Y-95763857D02*
X126419048Y-95787666D01*
X127133333Y-95811476D02*
X127133333Y-96144809D01*
X127014285Y-95621000D02*
X126895238Y-95978142D01*
X126895238Y-95978142D02*
X127204761Y-95978142D01*
X93891666Y-81027190D02*
X93867857Y-81051000D01*
X93867857Y-81051000D02*
X93796428Y-81074809D01*
X93796428Y-81074809D02*
X93748809Y-81074809D01*
X93748809Y-81074809D02*
X93677381Y-81051000D01*
X93677381Y-81051000D02*
X93629762Y-81003380D01*
X93629762Y-81003380D02*
X93605952Y-80955761D01*
X93605952Y-80955761D02*
X93582143Y-80860523D01*
X93582143Y-80860523D02*
X93582143Y-80789095D01*
X93582143Y-80789095D02*
X93605952Y-80693857D01*
X93605952Y-80693857D02*
X93629762Y-80646238D01*
X93629762Y-80646238D02*
X93677381Y-80598619D01*
X93677381Y-80598619D02*
X93748809Y-80574809D01*
X93748809Y-80574809D02*
X93796428Y-80574809D01*
X93796428Y-80574809D02*
X93867857Y-80598619D01*
X93867857Y-80598619D02*
X93891666Y-80622428D01*
X94082143Y-80622428D02*
X94105952Y-80598619D01*
X94105952Y-80598619D02*
X94153571Y-80574809D01*
X94153571Y-80574809D02*
X94272619Y-80574809D01*
X94272619Y-80574809D02*
X94320238Y-80598619D01*
X94320238Y-80598619D02*
X94344047Y-80622428D01*
X94344047Y-80622428D02*
X94367857Y-80670047D01*
X94367857Y-80670047D02*
X94367857Y-80717666D01*
X94367857Y-80717666D02*
X94344047Y-80789095D01*
X94344047Y-80789095D02*
X94058333Y-81074809D01*
X94058333Y-81074809D02*
X94367857Y-81074809D01*
X90376666Y-96434809D02*
X90210000Y-96196714D01*
X90090952Y-96434809D02*
X90090952Y-95934809D01*
X90090952Y-95934809D02*
X90281428Y-95934809D01*
X90281428Y-95934809D02*
X90329047Y-95958619D01*
X90329047Y-95958619D02*
X90352857Y-95982428D01*
X90352857Y-95982428D02*
X90376666Y-96030047D01*
X90376666Y-96030047D02*
X90376666Y-96101476D01*
X90376666Y-96101476D02*
X90352857Y-96149095D01*
X90352857Y-96149095D02*
X90329047Y-96172904D01*
X90329047Y-96172904D02*
X90281428Y-96196714D01*
X90281428Y-96196714D02*
X90090952Y-96196714D01*
X90662381Y-96149095D02*
X90614762Y-96125285D01*
X90614762Y-96125285D02*
X90590952Y-96101476D01*
X90590952Y-96101476D02*
X90567143Y-96053857D01*
X90567143Y-96053857D02*
X90567143Y-96030047D01*
X90567143Y-96030047D02*
X90590952Y-95982428D01*
X90590952Y-95982428D02*
X90614762Y-95958619D01*
X90614762Y-95958619D02*
X90662381Y-95934809D01*
X90662381Y-95934809D02*
X90757619Y-95934809D01*
X90757619Y-95934809D02*
X90805238Y-95958619D01*
X90805238Y-95958619D02*
X90829047Y-95982428D01*
X90829047Y-95982428D02*
X90852857Y-96030047D01*
X90852857Y-96030047D02*
X90852857Y-96053857D01*
X90852857Y-96053857D02*
X90829047Y-96101476D01*
X90829047Y-96101476D02*
X90805238Y-96125285D01*
X90805238Y-96125285D02*
X90757619Y-96149095D01*
X90757619Y-96149095D02*
X90662381Y-96149095D01*
X90662381Y-96149095D02*
X90614762Y-96172904D01*
X90614762Y-96172904D02*
X90590952Y-96196714D01*
X90590952Y-96196714D02*
X90567143Y-96244333D01*
X90567143Y-96244333D02*
X90567143Y-96339571D01*
X90567143Y-96339571D02*
X90590952Y-96387190D01*
X90590952Y-96387190D02*
X90614762Y-96411000D01*
X90614762Y-96411000D02*
X90662381Y-96434809D01*
X90662381Y-96434809D02*
X90757619Y-96434809D01*
X90757619Y-96434809D02*
X90805238Y-96411000D01*
X90805238Y-96411000D02*
X90829047Y-96387190D01*
X90829047Y-96387190D02*
X90852857Y-96339571D01*
X90852857Y-96339571D02*
X90852857Y-96244333D01*
X90852857Y-96244333D02*
X90829047Y-96196714D01*
X90829047Y-96196714D02*
X90805238Y-96172904D01*
X90805238Y-96172904D02*
X90757619Y-96149095D01*
X120075000Y-81350464D02*
X120075000Y-80600464D01*
X120075000Y-80600464D02*
X120360714Y-80600464D01*
X120360714Y-80600464D02*
X120432143Y-80636178D01*
X120432143Y-80636178D02*
X120467857Y-80671892D01*
X120467857Y-80671892D02*
X120503571Y-80743321D01*
X120503571Y-80743321D02*
X120503571Y-80850464D01*
X120503571Y-80850464D02*
X120467857Y-80921892D01*
X120467857Y-80921892D02*
X120432143Y-80957607D01*
X120432143Y-80957607D02*
X120360714Y-80993321D01*
X120360714Y-80993321D02*
X120075000Y-80993321D01*
X120753571Y-80600464D02*
X120932143Y-81350464D01*
X120932143Y-81350464D02*
X121075000Y-80814750D01*
X121075000Y-80814750D02*
X121217857Y-81350464D01*
X121217857Y-81350464D02*
X121396429Y-80600464D01*
X122110714Y-81350464D02*
X121860714Y-80993321D01*
X121682143Y-81350464D02*
X121682143Y-80600464D01*
X121682143Y-80600464D02*
X121967857Y-80600464D01*
X121967857Y-80600464D02*
X122039286Y-80636178D01*
X122039286Y-80636178D02*
X122075000Y-80671892D01*
X122075000Y-80671892D02*
X122110714Y-80743321D01*
X122110714Y-80743321D02*
X122110714Y-80850464D01*
X122110714Y-80850464D02*
X122075000Y-80921892D01*
X122075000Y-80921892D02*
X122039286Y-80957607D01*
X122039286Y-80957607D02*
X121967857Y-80993321D01*
X121967857Y-80993321D02*
X121682143Y-80993321D01*
D13*
X93489037Y-101781974D02*
X93524751Y-101746260D01*
X93524751Y-101746260D02*
X93596180Y-101710546D01*
X93596180Y-101710546D02*
X93774751Y-101710546D01*
X93774751Y-101710546D02*
X93846180Y-101746260D01*
X93846180Y-101746260D02*
X93881894Y-101781974D01*
X93881894Y-101781974D02*
X93917608Y-101853403D01*
X93917608Y-101853403D02*
X93917608Y-101924832D01*
X93917608Y-101924832D02*
X93881894Y-102031974D01*
X93881894Y-102031974D02*
X93453322Y-102460546D01*
X93453322Y-102460546D02*
X93917608Y-102460546D01*
X94203323Y-102246260D02*
X94560466Y-102246260D01*
X94131894Y-102460546D02*
X94381894Y-101710546D01*
X94381894Y-101710546D02*
X94631894Y-102460546D01*
D14*
X102310721Y-101898409D02*
X102453578Y-101946028D01*
X102453578Y-101946028D02*
X102501197Y-101993647D01*
X102501197Y-101993647D02*
X102548816Y-102088885D01*
X102548816Y-102088885D02*
X102548816Y-102231742D01*
X102548816Y-102231742D02*
X102501197Y-102326980D01*
X102501197Y-102326980D02*
X102453578Y-102374600D01*
X102453578Y-102374600D02*
X102358340Y-102422219D01*
X102358340Y-102422219D02*
X101977388Y-102422219D01*
X101977388Y-102422219D02*
X101977388Y-101422219D01*
X101977388Y-101422219D02*
X102310721Y-101422219D01*
X102310721Y-101422219D02*
X102405959Y-101469838D01*
X102405959Y-101469838D02*
X102453578Y-101517457D01*
X102453578Y-101517457D02*
X102501197Y-101612695D01*
X102501197Y-101612695D02*
X102501197Y-101707933D01*
X102501197Y-101707933D02*
X102453578Y-101803171D01*
X102453578Y-101803171D02*
X102405959Y-101850790D01*
X102405959Y-101850790D02*
X102310721Y-101898409D01*
X102310721Y-101898409D02*
X101977388Y-101898409D01*
X103405959Y-101755552D02*
X103405959Y-102422219D01*
X102977388Y-101755552D02*
X102977388Y-102279361D01*
X102977388Y-102279361D02*
X103025007Y-102374600D01*
X103025007Y-102374600D02*
X103120245Y-102422219D01*
X103120245Y-102422219D02*
X103263102Y-102422219D01*
X103263102Y-102422219D02*
X103358340Y-102374600D01*
X103358340Y-102374600D02*
X103405959Y-102326980D01*
X103882150Y-102422219D02*
X103882150Y-101755552D01*
X103882150Y-101946028D02*
X103929769Y-101850790D01*
X103929769Y-101850790D02*
X103977388Y-101803171D01*
X103977388Y-101803171D02*
X104072626Y-101755552D01*
X104072626Y-101755552D02*
X104167864Y-101755552D01*
X104501198Y-101755552D02*
X104501198Y-102422219D01*
X104501198Y-101850790D02*
X104548817Y-101803171D01*
X104548817Y-101803171D02*
X104644055Y-101755552D01*
X104644055Y-101755552D02*
X104786912Y-101755552D01*
X104786912Y-101755552D02*
X104882150Y-101803171D01*
X104882150Y-101803171D02*
X104929769Y-101898409D01*
X104929769Y-101898409D02*
X104929769Y-102422219D01*
X105358341Y-101517457D02*
X105405960Y-101469838D01*
X105405960Y-101469838D02*
X105501198Y-101422219D01*
X105501198Y-101422219D02*
X105739293Y-101422219D01*
X105739293Y-101422219D02*
X105834531Y-101469838D01*
X105834531Y-101469838D02*
X105882150Y-101517457D01*
X105882150Y-101517457D02*
X105929769Y-101612695D01*
X105929769Y-101612695D02*
X105929769Y-101707933D01*
X105929769Y-101707933D02*
X105882150Y-101850790D01*
X105882150Y-101850790D02*
X105310722Y-102422219D01*
X105310722Y-102422219D02*
X105929769Y-102422219D01*
D16*
%TO.C,C4*%
X89105000Y-83323752D02*
X89105000Y-82801248D01*
X90575000Y-83323752D02*
X90575000Y-82801248D01*
%TO.C,R11*%
X79377776Y-85157500D02*
X79887224Y-85157500D01*
X79377776Y-86202500D02*
X79887224Y-86202500D01*
%TO.C,R18*%
X92842224Y-96647500D02*
X92332776Y-96647500D01*
X92842224Y-97692500D02*
X92332776Y-97692500D01*
%TO.C,R15*%
X101457500Y-90622224D02*
X101457500Y-90112776D01*
X102502500Y-90622224D02*
X102502500Y-90112776D01*
%TO.C,R7*%
X87177500Y-96482224D02*
X87177500Y-95972776D01*
X88222500Y-96482224D02*
X88222500Y-95972776D01*
D17*
%TO.C,J1*%
X76310400Y-87033000D02*
X77660400Y-87033000D01*
X76310400Y-95973000D02*
X76310400Y-87033000D01*
X77660400Y-95973000D02*
X76310400Y-95973000D01*
X80310400Y-87033000D02*
X81660400Y-87033000D01*
X81660400Y-95973000D02*
X80310400Y-95973000D01*
D16*
%TO.C,R9*%
X95940114Y-90035983D02*
X95940114Y-90545431D01*
X96985114Y-90035983D02*
X96985114Y-90545431D01*
D12*
%TO.C,Q1*%
X106987500Y-92472500D02*
X112047500Y-92472500D01*
X106987500Y-95512500D02*
X106987500Y-92472500D01*
X112047500Y-92472500D02*
X112047500Y-95512500D01*
X112047500Y-95512500D02*
X106987500Y-95512500D01*
D18*
X111577500Y-93222500D02*
G75*
G02*
X111277500Y-93222500I-150000J0D01*
G01*
X111277500Y-93222500D02*
G75*
G02*
X111577500Y-93222500I150000J0D01*
G01*
X111597500Y-89582500D02*
G75*
G02*
X111297500Y-89582500I-150000J0D01*
G01*
X111297500Y-89582500D02*
G75*
G02*
X111597500Y-89582500I150000J0D01*
G01*
D16*
%TO.C,R3*%
X87215976Y-87360793D02*
X86706528Y-87360793D01*
X87215976Y-88405793D02*
X86706528Y-88405793D01*
%TO.C,J3*%
X90805000Y-93495000D02*
X90805000Y-92620000D01*
X90891724Y-93495000D02*
X90805000Y-93495000D01*
X91105507Y-92620000D02*
X90805000Y-92620000D01*
X92195000Y-92620000D02*
X91894493Y-92620000D01*
X92195000Y-93495000D02*
X92108276Y-93495000D01*
X92195000Y-93495000D02*
X92195000Y-92620000D01*
X92195000Y-94180000D02*
X92195000Y-94865000D01*
X92195000Y-94865000D02*
X91500000Y-94865000D01*
D19*
%TO.C,12V*%
X87685153Y-101091293D02*
X87685153Y-98297293D01*
X87939153Y-98043293D02*
X89463153Y-98043293D01*
X87939153Y-101345293D02*
X89463153Y-101345293D01*
X89717153Y-98297293D02*
X89717153Y-101091293D01*
X87685153Y-98297293D02*
G75*
G02*
X87939153Y-98043293I254000J0D01*
G01*
X87939153Y-101345293D02*
G75*
G02*
X87685153Y-101091293I0J254000D01*
G01*
X89463153Y-98043293D02*
G75*
G02*
X89717153Y-98297293I0J-254000D01*
G01*
X89717153Y-101091293D02*
G75*
G02*
X89463153Y-101345293I-254000J0D01*
G01*
D16*
%TO.C,REF\u002A\u002A*%
X120190000Y-89247936D02*
X120190000Y-93602064D01*
X123610000Y-89247936D02*
X123610000Y-93602064D01*
%TO.C,D1*%
X97626907Y-89830000D02*
X97626907Y-92290000D01*
X99096907Y-89830000D02*
X97626907Y-89830000D01*
X99096907Y-92290000D02*
X99096907Y-89830000D01*
%TO.C,D2*%
X103015000Y-89875000D02*
X103015000Y-92335000D01*
X104485000Y-89875000D02*
X103015000Y-89875000D01*
X104485000Y-92335000D02*
X104485000Y-89875000D01*
%TO.C,REF\u002A\u002A*%
X116350000Y-89252936D02*
X116350000Y-93607064D01*
X119770000Y-89252936D02*
X119770000Y-93607064D01*
D19*
%TO.C,9V*%
X85364000Y-101091000D02*
X85364000Y-98297000D01*
X85618000Y-98043000D02*
X87142000Y-98043000D01*
X85618000Y-101345000D02*
X87142000Y-101345000D01*
X87396000Y-98297000D02*
X87396000Y-101091000D01*
X85364000Y-98297000D02*
G75*
G02*
X85618000Y-98043000I254000J0D01*
G01*
X85618000Y-101345000D02*
G75*
G02*
X85364000Y-101091000I0J254000D01*
G01*
X87142000Y-98043000D02*
G75*
G02*
X87396000Y-98297000I0J-254000D01*
G01*
X87396000Y-101091000D02*
G75*
G02*
X87142000Y-101345000I-254000J0D01*
G01*
D16*
%TO.C,J2*%
X98235000Y-80080000D02*
X98235000Y-80530000D01*
X98235000Y-84050000D02*
X98235000Y-84500000D01*
X98235000Y-84500000D02*
X99185000Y-84500000D01*
X106755000Y-84500000D02*
X106755000Y-85990000D01*
X107705000Y-80080000D02*
X98235000Y-80080000D01*
X107705000Y-80530000D02*
X107705000Y-80080000D01*
X107705000Y-84050000D02*
X107705000Y-84500000D01*
X107705000Y-84500000D02*
X106755000Y-84500000D01*
X96480000Y-82670000D02*
X96480000Y-86800000D01*
X96480000Y-86800000D02*
X98655000Y-86800000D01*
X98650000Y-80480000D02*
X97495000Y-80480000D01*
X98650000Y-82480000D02*
X98650000Y-80480000D01*
X107275000Y-86800000D02*
X107275000Y-87200000D01*
X107280000Y-80480000D02*
X107280000Y-82480000D01*
X107280000Y-82480000D02*
X98650000Y-82480000D01*
X108435000Y-80480000D02*
X107280000Y-80480000D01*
X109450000Y-82670000D02*
X109450000Y-86800000D01*
X109450000Y-86800000D02*
X107275000Y-86800000D01*
%TO.C,R10*%
X99657500Y-90112776D02*
X99657500Y-90622224D01*
X100702500Y-90112776D02*
X100702500Y-90622224D01*
D19*
%TO.C,1A*%
X90654000Y-101091000D02*
X90654000Y-98297000D01*
X92432000Y-98043000D02*
X90908000Y-98043000D01*
X92432000Y-101345000D02*
X90908000Y-101345000D01*
X92686000Y-98297000D02*
X92686000Y-101091000D01*
X90654000Y-98297000D02*
G75*
G02*
X90908000Y-98043000I254000J0D01*
G01*
X90908000Y-101345000D02*
G75*
G02*
X90654000Y-101091000I0J254000D01*
G01*
X92432000Y-98043000D02*
G75*
G02*
X92686000Y-98297000I0J-254000D01*
G01*
X92686000Y-101091000D02*
G75*
G02*
X92432000Y-101345000I-254000J0D01*
G01*
D16*
%TO.C,C1*%
X87390248Y-88927000D02*
X87912752Y-88927000D01*
X87390248Y-90397000D02*
X87912752Y-90397000D01*
%TO.C,R16*%
X105159407Y-90060983D02*
X105159407Y-90570431D01*
X106204407Y-90060983D02*
X106204407Y-90570431D01*
%TO.C,R4*%
X90477500Y-87422224D02*
X90477500Y-86912776D01*
X91522500Y-87422224D02*
X91522500Y-86912776D01*
D12*
%TO.C,Burn1*%
X95790000Y-95540000D02*
X96680000Y-94650000D01*
X95790000Y-98100000D02*
X95790000Y-95540000D01*
X95790000Y-98100000D02*
X96680000Y-98990000D01*
X96540000Y-95920000D02*
X97440000Y-95020000D01*
X96540000Y-97820000D02*
X96540000Y-95920000D01*
X97170000Y-94270000D02*
X99510000Y-94270000D01*
X97170000Y-99370000D02*
X99510000Y-99370000D01*
X97340000Y-98620000D02*
X96540000Y-97820000D01*
X97440000Y-95020000D02*
X99240000Y-95020000D01*
X99240000Y-95020000D02*
X100240000Y-96020000D01*
X99340000Y-98620000D02*
X97340000Y-98620000D01*
X100000000Y-94650000D02*
X100890000Y-95540000D01*
X100000000Y-98990000D02*
X100890000Y-98100000D01*
X100240000Y-96020000D02*
X100240000Y-97720000D01*
X100240000Y-97720000D02*
X99340000Y-98620000D01*
X100890000Y-98100000D02*
X100890000Y-95540000D01*
X95870000Y-100070000D02*
G75*
G02*
X95810000Y-100070000I-30000J0D01*
G01*
X95810000Y-100070000D02*
G75*
G02*
X95870000Y-100070000I30000J0D01*
G01*
X99620000Y-96820000D02*
G75*
G02*
X97060000Y-96820000I-1280000J0D01*
G01*
X97060000Y-96820000D02*
G75*
G02*
X99620000Y-96820000I1280000J0D01*
G01*
D16*
%TO.C,C3*%
X91185000Y-83323752D02*
X91185000Y-82801248D01*
X92655000Y-83323752D02*
X92655000Y-82801248D01*
%TO.C,R12*%
X126927224Y-85417500D02*
X126417776Y-85417500D01*
X126927224Y-86462500D02*
X126417776Y-86462500D01*
D20*
%TO.C,.space*%
G36*
X119274999Y-101078706D02*
G01*
X119325818Y-101094126D01*
X119345503Y-101123938D01*
X119348092Y-101160131D01*
X119338241Y-101243493D01*
X119304584Y-101292183D01*
X119240965Y-101312746D01*
X119202834Y-101314570D01*
X119114646Y-101325983D01*
X119045567Y-101364848D01*
X119041090Y-101368622D01*
X118978189Y-101422673D01*
X118971007Y-101772152D01*
X118963824Y-102121631D01*
X118864519Y-102121631D01*
X118765215Y-102121631D01*
X118765215Y-101606008D01*
X118765215Y-101090386D01*
X118866098Y-101090386D01*
X118928241Y-101092563D01*
X118957681Y-101103882D01*
X118966510Y-101131530D01*
X118966980Y-101150340D01*
X118966980Y-101210294D01*
X119017422Y-101163042D01*
X119109596Y-101101932D01*
X119212174Y-101075463D01*
X119274999Y-101078706D01*
G37*
G36*
X108576393Y-101661252D02*
G01*
X108639672Y-101686371D01*
X108729465Y-101726066D01*
X108839095Y-101777370D01*
X108961883Y-101837313D01*
X108981410Y-101847059D01*
X109381334Y-102047269D01*
X109787353Y-101844611D01*
X109953405Y-101763556D01*
X110081549Y-101705067D01*
X110171585Y-101669227D01*
X110223316Y-101656120D01*
X110232837Y-101657097D01*
X110259243Y-101673988D01*
X110248894Y-101700602D01*
X110241755Y-101709662D01*
X110214724Y-101728577D01*
X110155059Y-101762674D01*
X110070193Y-101808240D01*
X109967563Y-101861563D01*
X109854602Y-101918930D01*
X109738746Y-101976627D01*
X109627431Y-102030943D01*
X109528091Y-102078165D01*
X109448161Y-102114581D01*
X109395077Y-102136476D01*
X109377619Y-102141164D01*
X109352885Y-102131363D01*
X109294033Y-102104701D01*
X109207199Y-102064063D01*
X109098520Y-102012329D01*
X108974133Y-101952384D01*
X108925667Y-101928851D01*
X108769610Y-101851717D01*
X108652002Y-101790448D01*
X108570150Y-101743088D01*
X108521359Y-101707683D01*
X108502935Y-101682279D01*
X108512183Y-101664921D01*
X108546307Y-101653676D01*
X108576393Y-101661252D01*
G37*
G36*
X108578395Y-102097583D02*
G01*
X108641674Y-102122703D01*
X108731467Y-102162398D01*
X108841097Y-102213701D01*
X108963885Y-102273645D01*
X108983412Y-102283391D01*
X109383336Y-102483600D01*
X109789355Y-102280943D01*
X109955407Y-102199888D01*
X110083551Y-102141398D01*
X110173587Y-102105559D01*
X110225318Y-102092452D01*
X110234839Y-102093429D01*
X110261251Y-102110336D01*
X110250659Y-102136876D01*
X110243757Y-102145512D01*
X110216042Y-102165166D01*
X110155702Y-102200085D01*
X110070245Y-102246483D01*
X109967180Y-102300574D01*
X109854017Y-102358573D01*
X109738265Y-102416695D01*
X109627431Y-102471155D01*
X109529026Y-102518167D01*
X109450558Y-102553945D01*
X109399536Y-102574706D01*
X109385074Y-102578378D01*
X109358710Y-102568777D01*
X109298382Y-102542180D01*
X109210312Y-102501476D01*
X109100722Y-102449558D01*
X108975833Y-102389316D01*
X108927737Y-102365860D01*
X108771868Y-102288418D01*
X108654401Y-102226925D01*
X108572635Y-102179417D01*
X108523869Y-102143930D01*
X108505403Y-102118500D01*
X108514535Y-102101164D01*
X108548309Y-102090008D01*
X108578395Y-102097583D01*
G37*
G36*
X112286434Y-101409848D02*
G01*
X112288276Y-101572141D01*
X112294558Y-101695826D01*
X112306637Y-101787028D01*
X112325866Y-101851867D01*
X112353600Y-101896468D01*
X112391194Y-101926953D01*
X112402168Y-101933023D01*
X112489963Y-101956910D01*
X112578799Y-101945526D01*
X112652439Y-101901294D01*
X112658739Y-101894721D01*
X112674556Y-101872756D01*
X112686217Y-101842259D01*
X112694541Y-101796191D01*
X112700343Y-101727510D01*
X112704442Y-101629176D01*
X112707654Y-101494148D01*
X112708130Y-101469211D01*
X112715211Y-101090386D01*
X112814617Y-101090386D01*
X112914023Y-101090386D01*
X112914023Y-101606008D01*
X112914023Y-102121631D01*
X112813141Y-102121631D01*
X112745853Y-102116949D01*
X112715634Y-102101415D01*
X112712258Y-102089099D01*
X112705286Y-102072233D01*
X112678166Y-102074760D01*
X112621599Y-102097727D01*
X112616980Y-102099816D01*
X112518119Y-102134505D01*
X112428803Y-102138533D01*
X112327436Y-102112767D01*
X112324058Y-102111569D01*
X112248400Y-102080085D01*
X112190319Y-102042399D01*
X112147564Y-101992511D01*
X112117888Y-101924417D01*
X112099042Y-101832116D01*
X112088778Y-101709606D01*
X112084847Y-101550885D01*
X112084544Y-101472218D01*
X112084544Y-101090386D01*
X112185427Y-101090386D01*
X112286309Y-101090386D01*
X112286434Y-101409848D01*
G37*
G36*
X117872609Y-101469211D02*
G01*
X117875756Y-101610624D01*
X117879662Y-101714242D01*
X117885143Y-101787104D01*
X117893018Y-101836250D01*
X117904102Y-101868721D01*
X117919214Y-101891558D01*
X117922000Y-101894721D01*
X117992503Y-101943176D01*
X118075432Y-101957676D01*
X118158048Y-101940682D01*
X118227613Y-101894657D01*
X118269581Y-101827528D01*
X118278667Y-101779061D01*
X118286214Y-101695623D01*
X118291614Y-101587071D01*
X118294262Y-101463259D01*
X118294429Y-101423316D01*
X118294429Y-101090386D01*
X118395312Y-101090386D01*
X118496195Y-101090386D01*
X118496195Y-101606008D01*
X118496195Y-102121631D01*
X118395312Y-102121631D01*
X118332351Y-102118746D01*
X118302567Y-102106641D01*
X118294486Y-102080140D01*
X118294429Y-102076123D01*
X118292468Y-102047418D01*
X118279302Y-102044546D01*
X118244007Y-102067925D01*
X118229508Y-102078614D01*
X118149910Y-102116197D01*
X118049454Y-102135127D01*
X117949274Y-102132458D01*
X117909255Y-102123217D01*
X117794440Y-102064041D01*
X117708474Y-101971541D01*
X117693523Y-101944251D01*
X117682607Y-101909808D01*
X117675108Y-101861204D01*
X117670410Y-101791433D01*
X117667894Y-101693489D01*
X117666943Y-101560366D01*
X117666863Y-101499521D01*
X117666715Y-101090386D01*
X117766122Y-101090386D01*
X117865528Y-101090386D01*
X117872609Y-101469211D01*
G37*
G36*
X120052846Y-101093410D02*
G01*
X120165171Y-101140612D01*
X120259547Y-101218440D01*
X120308299Y-101287597D01*
X120343570Y-101365030D01*
X120345857Y-101414768D01*
X120313405Y-101441291D01*
X120244975Y-101449080D01*
X120182032Y-101443934D01*
X120148391Y-101423978D01*
X120134753Y-101398639D01*
X120083925Y-101321666D01*
X120008536Y-101273004D01*
X119920662Y-101255241D01*
X119832384Y-101270967D01*
X119760093Y-101318328D01*
X119727784Y-101356691D01*
X119707914Y-101400988D01*
X119696242Y-101464854D01*
X119689577Y-101545048D01*
X119689878Y-101698617D01*
X119713480Y-101814817D01*
X119761178Y-101895057D01*
X119833765Y-101940746D01*
X119919760Y-101953493D01*
X120020343Y-101934676D01*
X120095698Y-101879591D01*
X120135835Y-101810531D01*
X120155482Y-101775783D01*
X120187894Y-101765229D01*
X120237815Y-101770485D01*
X120296651Y-101783988D01*
X120335101Y-101799945D01*
X120338082Y-101802388D01*
X120344134Y-101837135D01*
X120324131Y-101891307D01*
X120285124Y-101954093D01*
X120234165Y-102014680D01*
X120178304Y-102062257D01*
X120162197Y-102072075D01*
X120061871Y-102111711D01*
X119948888Y-102133056D01*
X119842522Y-102133465D01*
X119791170Y-102122976D01*
X119666598Y-102066388D01*
X119574699Y-101985369D01*
X119513346Y-101876464D01*
X119480410Y-101736213D01*
X119473076Y-101606008D01*
X119475919Y-101497066D01*
X119486315Y-101416610D01*
X119507066Y-101348543D01*
X119524829Y-101308648D01*
X119597109Y-101206209D01*
X119694704Y-101133233D01*
X119808960Y-101089953D01*
X119931224Y-101076601D01*
X120052846Y-101093410D01*
G37*
G36*
X113384809Y-100935085D02*
G01*
X113384809Y-101183314D01*
X113441908Y-101138400D01*
X113539577Y-101088311D01*
X113650883Y-101074242D01*
X113764835Y-101094747D01*
X113870445Y-101148376D01*
X113931815Y-101202947D01*
X113997876Y-101294808D01*
X114037917Y-101400298D01*
X114055597Y-101530892D01*
X114057235Y-101596335D01*
X114042154Y-101766798D01*
X113997348Y-101907542D01*
X113923978Y-102016587D01*
X113823206Y-102091954D01*
X113749720Y-102120283D01*
X113659230Y-102139977D01*
X113588266Y-102138421D01*
X113516026Y-102113954D01*
X113485692Y-102099212D01*
X113426010Y-102069156D01*
X113396192Y-102057815D01*
X113385902Y-102064039D01*
X113384808Y-102086682D01*
X113384809Y-102088003D01*
X113371606Y-102110168D01*
X113326715Y-102120263D01*
X113283926Y-102121631D01*
X113183044Y-102121631D01*
X113183044Y-101553171D01*
X113408582Y-101553171D01*
X113408864Y-101665528D01*
X113420635Y-101768495D01*
X113442033Y-101840718D01*
X113497927Y-101914298D01*
X113572539Y-101951665D01*
X113655992Y-101951141D01*
X113738409Y-101911048D01*
X113757962Y-101894394D01*
X113805727Y-101822579D01*
X113834543Y-101723275D01*
X113843878Y-101609871D01*
X113833197Y-101495759D01*
X113801969Y-101394329D01*
X113779480Y-101354016D01*
X113712357Y-101286869D01*
X113634317Y-101257213D01*
X113555366Y-101264560D01*
X113485512Y-101308420D01*
X113442428Y-101370467D01*
X113419775Y-101448969D01*
X113408582Y-101553171D01*
X113183044Y-101553171D01*
X113183044Y-101404243D01*
X113183044Y-100686856D01*
X113283926Y-100686856D01*
X113384809Y-100686856D01*
X113384809Y-100935085D01*
G37*
G36*
X114899829Y-101113596D02*
G01*
X114951387Y-101140810D01*
X115020800Y-101206058D01*
X115078694Y-101303926D01*
X115119551Y-101422601D01*
X115137275Y-101538753D01*
X115144650Y-101662054D01*
X114801119Y-101668252D01*
X114457588Y-101674449D01*
X114472649Y-101746716D01*
X114506939Y-101845671D01*
X114564369Y-101910575D01*
X114629695Y-101942504D01*
X114741247Y-101958708D01*
X114842990Y-101932595D01*
X114919994Y-101875522D01*
X114962135Y-101834468D01*
X114991600Y-101822260D01*
X115026236Y-101834896D01*
X115047221Y-101847008D01*
X115090909Y-101878333D01*
X115110893Y-101903551D01*
X115111023Y-101904918D01*
X115096337Y-101930956D01*
X115058656Y-101975974D01*
X115026448Y-102009715D01*
X114914099Y-102093041D01*
X114785669Y-102134555D01*
X114641466Y-102134178D01*
X114581158Y-102122693D01*
X114469809Y-102074465D01*
X114375235Y-101991586D01*
X114323494Y-101914209D01*
X114291278Y-101821858D01*
X114270370Y-101702897D01*
X114262136Y-101574433D01*
X114264926Y-101516335D01*
X114465612Y-101516335D01*
X114701446Y-101516335D01*
X114937280Y-101516335D01*
X114922726Y-101443475D01*
X114884052Y-101349753D01*
X114814570Y-101286986D01*
X114719494Y-101259436D01*
X114696396Y-101258524D01*
X114600245Y-101274638D01*
X114532460Y-101324556D01*
X114490190Y-101410641D01*
X114484072Y-101434487D01*
X114465612Y-101516335D01*
X114264926Y-101516335D01*
X114267940Y-101453576D01*
X114281094Y-101382638D01*
X114333798Y-101267311D01*
X114417716Y-101176193D01*
X114524561Y-101112274D01*
X114646051Y-101078543D01*
X114773902Y-101077987D01*
X114899829Y-101113596D01*
G37*
G36*
X117131929Y-101102772D02*
G01*
X117240666Y-101157153D01*
X117331344Y-101240450D01*
X117396163Y-101351776D01*
X117408776Y-101388387D01*
X117439366Y-101549709D01*
X117436091Y-101704243D01*
X117401071Y-101845070D01*
X117336428Y-101965271D01*
X117244282Y-102057925D01*
X117194007Y-102088997D01*
X117109777Y-102118042D01*
X117007355Y-102133543D01*
X116908577Y-102133316D01*
X116854365Y-102122976D01*
X116730887Y-102067482D01*
X116639547Y-101988627D01*
X116577984Y-101882512D01*
X116543836Y-101745236D01*
X116536959Y-101633368D01*
X116747791Y-101633368D01*
X116756318Y-101736158D01*
X116775804Y-101822282D01*
X116803609Y-101875353D01*
X116886425Y-101940364D01*
X116978629Y-101961553D01*
X117071159Y-101942843D01*
X117121532Y-101909213D01*
X117169309Y-101855592D01*
X117174585Y-101847565D01*
X117197597Y-101803432D01*
X117210603Y-101754047D01*
X117215481Y-101686586D01*
X117214112Y-101588221D01*
X117213828Y-101579762D01*
X117208948Y-101481543D01*
X117200575Y-101416332D01*
X117185859Y-101372309D01*
X117161949Y-101337649D01*
X117153112Y-101327899D01*
X117072649Y-101270968D01*
X116982733Y-101252965D01*
X116894138Y-101272802D01*
X116817635Y-101329389D01*
X116791326Y-101364452D01*
X116764960Y-101433571D01*
X116750560Y-101527858D01*
X116747791Y-101633368D01*
X116536959Y-101633368D01*
X116534588Y-101594799D01*
X116536323Y-101491098D01*
X116543274Y-101418122D01*
X116558056Y-101361836D01*
X116583289Y-101308203D01*
X116590393Y-101295558D01*
X116672412Y-101192092D01*
X116775376Y-101121965D01*
X116891483Y-101084293D01*
X117012935Y-101078190D01*
X117131929Y-101102772D01*
G37*
G36*
X121146616Y-101104374D02*
G01*
X121250238Y-101170586D01*
X121329814Y-101272090D01*
X121382786Y-101406737D01*
X121403544Y-101528475D01*
X121417065Y-101673264D01*
X121074614Y-101673264D01*
X120732164Y-101673264D01*
X120745348Y-101754508D01*
X120777135Y-101847902D01*
X120840319Y-101911775D01*
X120908957Y-101943204D01*
X121016208Y-101956765D01*
X121116548Y-101927704D01*
X121190203Y-101870955D01*
X121231317Y-101830088D01*
X121259728Y-101818615D01*
X121292564Y-101832457D01*
X121308624Y-101842759D01*
X121349433Y-101879769D01*
X121365745Y-101914192D01*
X121346893Y-101959097D01*
X121298004Y-102011665D01*
X121230577Y-102062678D01*
X121156111Y-102102915D01*
X121110887Y-102118548D01*
X121010407Y-102138638D01*
X120929496Y-102139474D01*
X120846988Y-102120532D01*
X120819974Y-102111349D01*
X120702411Y-102048839D01*
X120615652Y-101955563D01*
X120559102Y-101830462D01*
X120532166Y-101672478D01*
X120529540Y-101594799D01*
X120538399Y-101475238D01*
X120738329Y-101475238D01*
X120754345Y-101499773D01*
X120799328Y-101511874D01*
X120879096Y-101515931D01*
X120962214Y-101516335D01*
X121186398Y-101516335D01*
X121186398Y-101454068D01*
X121166822Y-101367887D01*
X121113842Y-101302788D01*
X121036074Y-101264219D01*
X120942138Y-101257630D01*
X120892061Y-101267953D01*
X120823467Y-101298090D01*
X120782126Y-101345617D01*
X120769921Y-101371316D01*
X120745461Y-101433882D01*
X120738329Y-101475238D01*
X120538399Y-101475238D01*
X120541795Y-101429405D01*
X120579921Y-101299010D01*
X120645957Y-101200634D01*
X120741942Y-101131295D01*
X120869918Y-101088015D01*
X120877463Y-101086426D01*
X121021505Y-101075604D01*
X121146616Y-101104374D01*
G37*
G36*
X111560950Y-100705065D02*
G01*
X111674468Y-100765461D01*
X111697091Y-100783811D01*
X111771560Y-100867976D01*
X111827883Y-100967755D01*
X111857443Y-101066556D01*
X111859868Y-101097219D01*
X111857522Y-101134925D01*
X111841872Y-101152371D01*
X111801173Y-101155768D01*
X111753873Y-101153265D01*
X111689118Y-101146840D01*
X111656474Y-101133024D01*
X111643223Y-101103635D01*
X111639820Y-101079883D01*
X111608370Y-100983461D01*
X111543532Y-100909295D01*
X111453517Y-100862915D01*
X111346536Y-100849851D01*
X111305041Y-100854440D01*
X111218939Y-100878880D01*
X111155861Y-100924754D01*
X111113921Y-100977678D01*
X111099365Y-101005127D01*
X111088944Y-101043395D01*
X111082014Y-101099655D01*
X111077934Y-101181080D01*
X111076061Y-101294840D01*
X111075718Y-101404243D01*
X111076370Y-101546596D01*
X111078752Y-101651298D01*
X111083509Y-101725520D01*
X111091281Y-101776435D01*
X111102711Y-101811215D01*
X111113921Y-101830808D01*
X111172749Y-101899822D01*
X111240390Y-101938239D01*
X111305041Y-101954047D01*
X111416155Y-101954466D01*
X111513288Y-101919558D01*
X111588229Y-101854854D01*
X111632767Y-101765884D01*
X111639820Y-101728604D01*
X111648061Y-101688062D01*
X111669178Y-101667288D01*
X111715889Y-101658098D01*
X111753873Y-101655221D01*
X111818004Y-101652666D01*
X111849193Y-101659987D01*
X111859185Y-101683393D01*
X111859868Y-101711267D01*
X111850151Y-101771746D01*
X111826551Y-101845067D01*
X111817927Y-101865405D01*
X111744129Y-101976381D01*
X111639802Y-102061342D01*
X111513238Y-102116705D01*
X111372732Y-102138889D01*
X111226574Y-102124312D01*
X111221437Y-102123086D01*
X111084661Y-102069191D01*
X110976853Y-101982779D01*
X110901489Y-101867139D01*
X110876279Y-101796565D01*
X110867039Y-101740248D01*
X110859393Y-101650829D01*
X110854075Y-101540030D01*
X110851815Y-101419578D01*
X110851785Y-101404243D01*
X110854178Y-101241789D01*
X110862372Y-101115853D01*
X110877889Y-101018321D01*
X110902251Y-100941079D01*
X110936981Y-100876015D01*
X110955917Y-100849182D01*
X111046647Y-100763990D01*
X111163095Y-100706049D01*
X111294682Y-100676292D01*
X111430827Y-100675653D01*
X111560950Y-100705065D01*
G37*
G36*
X115939000Y-100680459D02*
G01*
X116058460Y-100716287D01*
X116163595Y-100774112D01*
X116247260Y-100851808D01*
X116302311Y-100947251D01*
X116321614Y-101055645D01*
X116319521Y-101104541D01*
X116305107Y-101127694D01*
X116266168Y-101134731D01*
X116220731Y-101135223D01*
X116157821Y-101132370D01*
X116128055Y-101120312D01*
X116119919Y-101093806D01*
X116119849Y-101089273D01*
X116098700Y-101000376D01*
X116038994Y-100926319D01*
X115952395Y-100876482D01*
X115843437Y-100850600D01*
X115743434Y-100855101D01*
X115659140Y-100885823D01*
X115597308Y-100938599D01*
X115564693Y-101009267D01*
X115568048Y-101093661D01*
X115573116Y-101110348D01*
X115584041Y-101134076D01*
X115602970Y-101156900D01*
X115635221Y-101181939D01*
X115686112Y-101212311D01*
X115760958Y-101251137D01*
X115865076Y-101301535D01*
X116003784Y-101366624D01*
X116033736Y-101380559D01*
X116156788Y-101445058D01*
X116242524Y-101509571D01*
X116297860Y-101581469D01*
X116329707Y-101668125D01*
X116336623Y-101703545D01*
X116334514Y-101816620D01*
X116294065Y-101918723D01*
X116221195Y-102006057D01*
X116121821Y-102074825D01*
X116001863Y-102121229D01*
X115867240Y-102141473D01*
X115723870Y-102131759D01*
X115682691Y-102123086D01*
X115548786Y-102072484D01*
X115443604Y-101995431D01*
X115371654Y-101896874D01*
X115337445Y-101781758D01*
X115335206Y-101741992D01*
X115335206Y-101650845D01*
X115436089Y-101650845D01*
X115498105Y-101652734D01*
X115527477Y-101663995D01*
X115536383Y-101693019D01*
X115536971Y-101720342D01*
X115557700Y-101797670D01*
X115613287Y-101868483D01*
X115693832Y-101923606D01*
X115788848Y-101953775D01*
X115909620Y-101956898D01*
X116007528Y-101929184D01*
X116077633Y-101873737D01*
X116114992Y-101793665D01*
X116119849Y-101745669D01*
X116111254Y-101690441D01*
X116081969Y-101641115D01*
X116026739Y-101593450D01*
X115940311Y-101543207D01*
X115817432Y-101486145D01*
X115776837Y-101468814D01*
X115643969Y-101407321D01*
X115534693Y-101345673D01*
X115458902Y-101289458D01*
X115458507Y-101289091D01*
X115411910Y-101243813D01*
X115385120Y-101206544D01*
X115372657Y-101162398D01*
X115369039Y-101096491D01*
X115368834Y-101045550D01*
X115369894Y-100961412D01*
X115376811Y-100907122D01*
X115395190Y-100867692D01*
X115430637Y-100828132D01*
X115460803Y-100799615D01*
X115566117Y-100726206D01*
X115685684Y-100683293D01*
X115812360Y-100668753D01*
X115939000Y-100680459D01*
G37*
G36*
X109449282Y-99791304D02*
G01*
X109512283Y-99818366D01*
X109602380Y-99859828D01*
X109713145Y-99912713D01*
X109838151Y-99974041D01*
X109879603Y-99994709D01*
X110305328Y-100207795D01*
X110305328Y-100731040D01*
X110305055Y-100899013D01*
X110303967Y-101027835D01*
X110301659Y-101123188D01*
X110297726Y-101190756D01*
X110291764Y-101236222D01*
X110283368Y-101265269D01*
X110272132Y-101283581D01*
X110265499Y-101290328D01*
X110233640Y-101310847D01*
X110169876Y-101345722D01*
X110081721Y-101391321D01*
X109976690Y-101444010D01*
X109862296Y-101500156D01*
X109746053Y-101556127D01*
X109635477Y-101608288D01*
X109538080Y-101653007D01*
X109461378Y-101686650D01*
X109412883Y-101705584D01*
X109400838Y-101708408D01*
X109373860Y-101698346D01*
X109313261Y-101670915D01*
X109225356Y-101629129D01*
X109116458Y-101576004D01*
X108992881Y-101514555D01*
X108954622Y-101495317D01*
X108534277Y-101283420D01*
X108534277Y-101249516D01*
X108690788Y-101249516D01*
X109010459Y-101411127D01*
X109119959Y-101466049D01*
X109215449Y-101513117D01*
X109289772Y-101548871D01*
X109335773Y-101569848D01*
X109346943Y-101573915D01*
X109352885Y-101553243D01*
X109357906Y-101495582D01*
X109361597Y-101408773D01*
X109363551Y-101300660D01*
X109363757Y-101250024D01*
X109475848Y-101250024D01*
X109476563Y-101364956D01*
X109478530Y-101462042D01*
X109481481Y-101533402D01*
X109485151Y-101571153D01*
X109486860Y-101575091D01*
X109509627Y-101565586D01*
X109565502Y-101539309D01*
X109647528Y-101499615D01*
X109748747Y-101449860D01*
X109823344Y-101412812D01*
X110148817Y-101250533D01*
X109829146Y-101088922D01*
X109719646Y-101034000D01*
X109624156Y-100986931D01*
X109549832Y-100951178D01*
X109503832Y-100930201D01*
X109492662Y-100926134D01*
X109486720Y-100946806D01*
X109481699Y-101004467D01*
X109478008Y-101091276D01*
X109476054Y-101199389D01*
X109475848Y-101250024D01*
X109363757Y-101250024D01*
X109363042Y-101135093D01*
X109361075Y-101038007D01*
X109358124Y-100966647D01*
X109354454Y-100928896D01*
X109352745Y-100924958D01*
X109329978Y-100934463D01*
X109274103Y-100960740D01*
X109192077Y-101000433D01*
X109090858Y-101050189D01*
X109016261Y-101087237D01*
X108690788Y-101249516D01*
X108534277Y-101249516D01*
X108534277Y-100745611D01*
X108623951Y-100745611D01*
X108624524Y-100878251D01*
X108626119Y-100994042D01*
X108628551Y-101086099D01*
X108631634Y-101147536D01*
X108635183Y-101171467D01*
X108635424Y-101171560D01*
X108658203Y-101161999D01*
X108714411Y-101135454D01*
X108797440Y-101095129D01*
X108900684Y-101044231D01*
X109005327Y-100992081D01*
X109133349Y-100927627D01*
X109226623Y-100879192D01*
X109290635Y-100843005D01*
X109330869Y-100815292D01*
X109352811Y-100792284D01*
X109361945Y-100770208D01*
X109363757Y-100745611D01*
X109363757Y-100745606D01*
X109475848Y-100745606D01*
X109477755Y-100770635D01*
X109487150Y-100792871D01*
X109509546Y-100816142D01*
X109550456Y-100844278D01*
X109615392Y-100881108D01*
X109709866Y-100930463D01*
X109828938Y-100990892D01*
X109944180Y-101048691D01*
X110045602Y-101098810D01*
X110126434Y-101137962D01*
X110179905Y-101162864D01*
X110198840Y-101170377D01*
X110204075Y-101149488D01*
X110208644Y-101090624D01*
X110212278Y-101000645D01*
X110214704Y-100886409D01*
X110215650Y-100754779D01*
X110215654Y-100745611D01*
X110215081Y-100612971D01*
X110213486Y-100497180D01*
X110211054Y-100405124D01*
X110207971Y-100343687D01*
X110204422Y-100319756D01*
X110204181Y-100319663D01*
X110181402Y-100329223D01*
X110125194Y-100355769D01*
X110042165Y-100396093D01*
X109938921Y-100446992D01*
X109834278Y-100499141D01*
X109706256Y-100563596D01*
X109612981Y-100612031D01*
X109548969Y-100648219D01*
X109508735Y-100675931D01*
X109486793Y-100698940D01*
X109477659Y-100721016D01*
X109475848Y-100745606D01*
X109363757Y-100745606D01*
X109361892Y-100720750D01*
X109352641Y-100698685D01*
X109330519Y-100675643D01*
X109290040Y-100647854D01*
X109225720Y-100611546D01*
X109132075Y-100562947D01*
X109005327Y-100499141D01*
X108889546Y-100441472D01*
X108788040Y-100391494D01*
X108707417Y-100352414D01*
X108654281Y-100327436D01*
X108635424Y-100319663D01*
X108631851Y-100340933D01*
X108628732Y-100400154D01*
X108626253Y-100490440D01*
X108624598Y-100604905D01*
X108623953Y-100736664D01*
X108623951Y-100745611D01*
X108534277Y-100745611D01*
X108534277Y-100745607D01*
X108534277Y-100229993D01*
X108713624Y-100229993D01*
X108732430Y-100242955D01*
X108783604Y-100271686D01*
X108859275Y-100312171D01*
X108951575Y-100360395D01*
X109052637Y-100412342D01*
X109154590Y-100463996D01*
X109249566Y-100511344D01*
X109329697Y-100550369D01*
X109387114Y-100577056D01*
X109413948Y-100587390D01*
X109414012Y-100587395D01*
X109438579Y-100578270D01*
X109496325Y-100552168D01*
X109580407Y-100512324D01*
X109683980Y-100461970D01*
X109778311Y-100415276D01*
X109891540Y-100358138D01*
X109989345Y-100307517D01*
X110065242Y-100266874D01*
X110112751Y-100239665D01*
X110125981Y-100229765D01*
X110106916Y-100216379D01*
X110054011Y-100186706D01*
X109973700Y-100144162D01*
X109872417Y-100092166D01*
X109772447Y-100041997D01*
X109418913Y-99866333D01*
X109066268Y-100042221D01*
X108952190Y-100099762D01*
X108853488Y-100150772D01*
X108776600Y-100191826D01*
X108727958Y-100219496D01*
X108713624Y-100229993D01*
X108534277Y-100229993D01*
X108534277Y-100207795D01*
X108960002Y-99994709D01*
X109088174Y-99931330D01*
X109204136Y-99875454D01*
X109301461Y-99830059D01*
X109373724Y-99798122D01*
X109414496Y-99782624D01*
X109419802Y-99781622D01*
X109449282Y-99791304D01*
G37*
D16*
%TO.C,R13*%
X79387776Y-96817500D02*
X79897224Y-96817500D01*
X79387776Y-97862500D02*
X79897224Y-97862500D01*
%TO.C,R17*%
X117072776Y-81787500D02*
X117582224Y-81787500D01*
X117072776Y-82832500D02*
X117582224Y-82832500D01*
D21*
%TO.C,Q2*%
X85125000Y-81535000D02*
X88475000Y-81535000D01*
X85125000Y-84885000D02*
X85125000Y-81535000D01*
X88475000Y-81535000D02*
X88475000Y-84885000D01*
X88475000Y-84885000D02*
X85125000Y-84885000D01*
D22*
X85388621Y-84886400D02*
G75*
G02*
X84909379Y-84886400I-239621J0D01*
G01*
X84909379Y-84886400D02*
G75*
G02*
X85388621Y-84886400I239621J0D01*
G01*
D16*
%TO.C,R5*%
X86712776Y-85837500D02*
X87222224Y-85837500D01*
X86712776Y-86882500D02*
X87222224Y-86882500D01*
D19*
%TO.C,5V*%
X83024000Y-101095000D02*
X83024000Y-98301000D01*
X83278000Y-98047000D02*
X84802000Y-98047000D01*
X83278000Y-101349000D02*
X84802000Y-101349000D01*
X85056000Y-98301000D02*
X85056000Y-101095000D01*
X83024000Y-98301000D02*
G75*
G02*
X83278000Y-98047000I254000J0D01*
G01*
X83278000Y-101349000D02*
G75*
G02*
X83024000Y-101095000I0J254000D01*
G01*
X84802000Y-98047000D02*
G75*
G02*
X85056000Y-98301000I0J-254000D01*
G01*
X85056000Y-101095000D02*
G75*
G02*
X84802000Y-101349000I-254000J0D01*
G01*
D16*
%TO.C,R14*%
X126947224Y-96387500D02*
X126437776Y-96387500D01*
X126947224Y-97432500D02*
X126437776Y-97432500D01*
%TO.C,C2*%
X93255000Y-83323752D02*
X93255000Y-82801248D01*
X94725000Y-83323752D02*
X94725000Y-82801248D01*
%TO.C,R8*%
X88727500Y-96482224D02*
X88727500Y-95972776D01*
X89772500Y-96482224D02*
X89772500Y-95972776D01*
%TO.C,D3*%
X120075000Y-83045000D02*
X122535000Y-83045000D01*
X122535000Y-81575000D02*
X120075000Y-81575000D01*
X122535000Y-83045000D02*
X122535000Y-81575000D01*
D19*
%TO.C,2A*%
X93004000Y-101092000D02*
X93004000Y-98298000D01*
X94782000Y-98044000D02*
X93258000Y-98044000D01*
X94782000Y-101346000D02*
X93258000Y-101346000D01*
X95036000Y-98298000D02*
X95036000Y-101092000D01*
X93004000Y-98298000D02*
G75*
G02*
X93258000Y-98044000I254000J0D01*
G01*
X93258000Y-101346000D02*
G75*
G02*
X93004000Y-101092000I0J254000D01*
G01*
X94782000Y-98044000D02*
G75*
G02*
X95036000Y-98298000I0J-254000D01*
G01*
X95036000Y-101092000D02*
G75*
G02*
X94782000Y-101346000I-254000J0D01*
G01*
%TO.C,U1*%
X90170000Y-90760000D02*
X87170000Y-90760000D01*
X90170000Y-93760000D02*
X87170000Y-93760000D01*
D15*
X86951803Y-90760000D02*
G75*
G02*
X86728197Y-90760000I-111803J0D01*
G01*
X86728197Y-90760000D02*
G75*
G02*
X86951803Y-90760000I111803J0D01*
G01*
D12*
%TO.C,Burn2*%
X101290000Y-95540000D02*
X102180000Y-94650000D01*
X101290000Y-98100000D02*
X101290000Y-95540000D01*
X101290000Y-98100000D02*
X102180000Y-98990000D01*
X102040000Y-95920000D02*
X102940000Y-95020000D01*
X102040000Y-97820000D02*
X102040000Y-95920000D01*
X102670000Y-94270000D02*
X105010000Y-94270000D01*
X102670000Y-99370000D02*
X105010000Y-99370000D01*
X102840000Y-98620000D02*
X102040000Y-97820000D01*
X102940000Y-95020000D02*
X104740000Y-95020000D01*
X104740000Y-95020000D02*
X105740000Y-96020000D01*
X104840000Y-98620000D02*
X102840000Y-98620000D01*
X105500000Y-94650000D02*
X106390000Y-95540000D01*
X105500000Y-98990000D02*
X106390000Y-98100000D01*
X105740000Y-96020000D02*
X105740000Y-97720000D01*
X105740000Y-97720000D02*
X104840000Y-98620000D01*
X106390000Y-98100000D02*
X106390000Y-95540000D01*
X101370000Y-100070000D02*
G75*
G02*
X101310000Y-100070000I-30000J0D01*
G01*
X101310000Y-100070000D02*
G75*
G02*
X101370000Y-100070000I30000J0D01*
G01*
X105120000Y-96820000D02*
G75*
G02*
X102560000Y-96820000I-1280000J0D01*
G01*
X102560000Y-96820000D02*
G75*
G02*
X105120000Y-96820000I1280000J0D01*
G01*
%TD*%
%LPC*%
D20*
%TO.C,12V*%
G36*
X89526653Y-101154793D02*
G01*
X87875653Y-101154793D01*
X87875653Y-98233793D01*
X89526653Y-98233793D01*
X89526653Y-101154793D01*
G37*
%TO.C,9V*%
G36*
X87205500Y-101154500D02*
G01*
X85554500Y-101154500D01*
X85554500Y-98233500D01*
X87205500Y-98233500D01*
X87205500Y-101154500D01*
G37*
%TO.C,1A*%
G36*
X92559000Y-101091000D02*
G01*
X90781000Y-101091000D01*
X90781000Y-98297000D01*
X92559000Y-98297000D01*
X92559000Y-101091000D01*
G37*
%TO.C,5V*%
G36*
X84929000Y-101095000D02*
G01*
X83151000Y-101095000D01*
X83151000Y-98301000D01*
X84929000Y-98301000D01*
X84929000Y-101095000D01*
G37*
%TO.C,2A*%
G36*
X94845500Y-101155500D02*
G01*
X93194500Y-101155500D01*
X93194500Y-98234500D01*
X94845500Y-98234500D01*
X94845500Y-101155500D01*
G37*
%TD*%
D23*
%TO.C,H2*%
X125840000Y-82589900D03*
%TD*%
D24*
%TO.C,C4*%
X89840000Y-84100000D03*
X89840000Y-82025000D03*
%TD*%
D25*
%TO.C,R11*%
X78720000Y-85680000D03*
X80545000Y-85680000D03*
%TD*%
D23*
%TO.C,H3*%
X80094400Y-100371200D03*
%TD*%
D26*
%TO.C,R18*%
X93500000Y-97170000D03*
X91675000Y-97170000D03*
%TD*%
D27*
%TO.C,R15*%
X101980000Y-91280000D03*
X101980000Y-89455000D03*
%TD*%
%TO.C,R7*%
X87700000Y-97140000D03*
X87700000Y-95315000D03*
%TD*%
D28*
%TO.C,J1*%
X82590400Y-88613000D03*
X82590400Y-94393000D03*
D29*
X83665400Y-88303000D03*
X83665400Y-89103000D03*
D30*
X83665400Y-90253000D03*
X83665400Y-91253000D03*
X83665400Y-91753000D03*
X83665400Y-92753000D03*
D29*
X83665400Y-94703000D03*
X83665400Y-93903000D03*
D30*
X83665400Y-93253000D03*
X83665400Y-92253000D03*
X83665400Y-90753000D03*
X83665400Y-89753000D03*
D31*
X83090400Y-87183000D03*
X78910400Y-87183000D03*
X83090400Y-95823000D03*
X78910400Y-95823000D03*
%TD*%
D32*
%TO.C,R9*%
X96462614Y-89378207D03*
X96462614Y-91203207D03*
%TD*%
D33*
%TO.C,Q1*%
X111427500Y-91222500D03*
X110147500Y-91222500D03*
X108887500Y-91222500D03*
X107617500Y-91222500D03*
X107617500Y-96762500D03*
X108887500Y-96762500D03*
X110147500Y-96762500D03*
X111427500Y-96762500D03*
%TD*%
D26*
%TO.C,R3*%
X87873752Y-87883293D03*
X86048752Y-87883293D03*
%TD*%
D34*
%TO.C,R1*%
X116415000Y-85085611D03*
X116415000Y-87635611D03*
D35*
X116415000Y-95255611D03*
X116415000Y-97805611D03*
%TD*%
D36*
%TO.C,J3*%
X91500000Y-94180000D03*
D37*
X91500000Y-93180000D03*
%TD*%
D38*
%TO.C,REF\u002A\u002A*%
X121900000Y-88375000D03*
X121900000Y-94475000D03*
%TD*%
D39*
%TO.C,D1*%
X98361907Y-90615000D03*
X98361907Y-92365000D03*
%TD*%
%TO.C,D2*%
X103750000Y-90660000D03*
X103750000Y-92410000D03*
%TD*%
D38*
%TO.C,REF\u002A\u002A*%
X118060000Y-88380000D03*
X118060000Y-94480000D03*
%TD*%
D34*
%TO.C,R2*%
X123200000Y-85140000D03*
X123200000Y-87680000D03*
D35*
X123200000Y-95300000D03*
X123200000Y-97840000D03*
%TD*%
D40*
%TO.C,J2*%
X106095000Y-85190000D03*
X104845000Y-85190000D03*
X103595000Y-85190000D03*
X102345000Y-85190000D03*
X101095000Y-85190000D03*
X99845000Y-85190000D03*
D41*
X108762500Y-82290000D03*
X97177500Y-82290000D03*
%TD*%
D42*
%TO.C,J2*%
X106715000Y-86700000D03*
X105215000Y-86700000D03*
X103715000Y-86700000D03*
X102215000Y-86700000D03*
X100715000Y-86700000D03*
X99215000Y-86700000D03*
D43*
X109320000Y-81510000D03*
X96610000Y-81510000D03*
%TD*%
D32*
%TO.C,R10*%
X100180000Y-89455000D03*
X100180000Y-91280000D03*
%TD*%
D23*
%TO.C,H4*%
X125832900Y-100371200D03*
%TD*%
D44*
%TO.C,C1*%
X86614000Y-89662000D03*
X88689000Y-89662000D03*
%TD*%
D32*
%TO.C,R16*%
X105681907Y-89403207D03*
X105681907Y-91228207D03*
%TD*%
D27*
%TO.C,R4*%
X91000000Y-88080000D03*
X91000000Y-86255000D03*
%TD*%
D45*
%TO.C,Burn1*%
X96490000Y-100120000D03*
X96490000Y-93520000D03*
X100190000Y-100120000D03*
X100190000Y-93520000D03*
%TD*%
D24*
%TO.C,C3*%
X91920000Y-84100000D03*
X91920000Y-82025000D03*
%TD*%
D26*
%TO.C,R12*%
X127585000Y-85940000D03*
X125760000Y-85940000D03*
%TD*%
D25*
%TO.C,R13*%
X78730000Y-97340000D03*
X80555000Y-97340000D03*
%TD*%
%TO.C,R17*%
X116415000Y-82310000D03*
X118240000Y-82310000D03*
%TD*%
D46*
%TO.C,Q2*%
X85825000Y-84910000D03*
X86475000Y-84910000D03*
X87125000Y-84910000D03*
X87775000Y-84910000D03*
D47*
X86800000Y-82460000D03*
%TD*%
D25*
%TO.C,R5*%
X86055000Y-86360000D03*
X87880000Y-86360000D03*
%TD*%
D26*
%TO.C,R14*%
X127605000Y-96910000D03*
X125780000Y-96910000D03*
%TD*%
D23*
%TO.C,H1*%
X80154400Y-82651200D03*
%TD*%
D24*
%TO.C,C2*%
X93990000Y-84100000D03*
X93990000Y-82025000D03*
%TD*%
D27*
%TO.C,R8*%
X89250000Y-97140000D03*
X89250000Y-95315000D03*
%TD*%
D48*
%TO.C,D3*%
X121750000Y-82310000D03*
X120000000Y-82310000D03*
%TD*%
D49*
%TO.C,U1*%
X87170000Y-91260000D03*
X87170000Y-91760000D03*
X87170000Y-92260000D03*
X87170000Y-92760000D03*
X87170000Y-93260000D03*
X90170000Y-93260000D03*
X90170000Y-92760000D03*
X90170000Y-92260000D03*
X90170000Y-91760000D03*
X90170000Y-91260000D03*
D50*
X88670000Y-92260000D03*
%TD*%
D45*
%TO.C,Burn2*%
X101990000Y-100120000D03*
X101990000Y-93520000D03*
X105690000Y-100120000D03*
X105690000Y-93520000D03*
%TD*%
%LPD*%
M02*
