%TF.GenerationSoftware,KiCad,Pcbnew,9.0.0*%
%TF.CreationDate,2025-07-16T19:02:16-06:00*%
%TF.ProjectId,Burnwing,4275726e-7769-46e6-972e-6b696361645f,Rev 1*%
%TF.SameCoordinates,Original*%
%TF.FileFunction,Legend,Top*%
%TF.FilePolarity,Positive*%
%FSLAX46Y46*%
G04 Gerber Fmt 4.6, Leading zero omitted, Abs format (unit mm)*
G04 Created by KiCad (PCBNEW 9.0.0) date 2025-07-16 19:02:16*
%MOMM*%
%LPD*%
G01*
G04 APERTURE LIST*
G04 Aperture macros list*
%AMRoundRect*
0 Rectangle with rounded corners*
0 $1 Rounding radius*
0 $2 $3 $4 $5 $6 $7 $8 $9 X,Y pos of 4 corners*
0 Add a 4 corners polygon primitive as box body*
4,1,4,$2,$3,$4,$5,$6,$7,$8,$9,$2,$3,0*
0 Add four circle primitives for the rounded corners*
1,1,$1+$1,$2,$3*
1,1,$1+$1,$4,$5*
1,1,$1+$1,$6,$7*
1,1,$1+$1,$8,$9*
0 Add four rect primitives between the rounded corners*
20,1,$1+$1,$2,$3,$4,$5,0*
20,1,$1+$1,$4,$5,$6,$7,0*
20,1,$1+$1,$6,$7,$8,$9,0*
20,1,$1+$1,$8,$9,$2,$3,0*%
G04 Aperture macros list end*
%ADD10C,0.119969*%
%ADD11C,0.125000*%
%ADD12C,0.150000*%
%ADD13C,0.100000*%
%ADD14C,0.200000*%
%ADD15C,0.120000*%
%ADD16C,0.304800*%
%ADD17C,0.101600*%
%ADD18C,0.203200*%
%ADD19C,0.000000*%
%ADD20C,0.127000*%
%ADD21C,0.152400*%
%ADD22RoundRect,0.303571X-1.371429X0.546429X-1.371429X-0.546429X1.371429X-0.546429X1.371429X0.546429X0*%
%ADD23RoundRect,0.050800X0.750000X-0.620000X0.750000X0.620000X-0.750000X0.620000X-0.750000X-0.620000X0*%
%ADD24RoundRect,0.237500X-0.250000X-0.237500X0.250000X-0.237500X0.250000X0.237500X-0.250000X0.237500X0*%
%ADD25C,4.400000*%
%ADD26C,1.600000*%
%ADD27O,1.600000X1.600000*%
%ADD28RoundRect,0.050800X-0.537500X-0.500000X0.537500X-0.500000X0.537500X0.500000X-0.537500X0.500000X0*%
%ADD29C,0.650000*%
%ADD30RoundRect,0.050800X-0.575000X0.287500X-0.575000X-0.287500X0.575000X-0.287500X0.575000X0.287500X0*%
%ADD31RoundRect,0.050800X-0.575000X0.137500X-0.575000X-0.137500X0.575000X-0.137500X0.575000X0.137500X0*%
%ADD32O,2.101600X1.101600*%
%ADD33RoundRect,0.237500X-0.237500X0.250000X-0.237500X-0.250000X0.237500X-0.250000X0.237500X0.250000X0*%
%ADD34RoundRect,0.237500X0.287500X0.237500X-0.287500X0.237500X-0.287500X-0.237500X0.287500X-0.237500X0*%
%ADD35R,0.850000X0.850000*%
%ADD36O,0.850000X0.850000*%
%ADD37RoundRect,0.237500X-0.237500X0.287500X-0.237500X-0.287500X0.237500X-0.287500X0.237500X0.287500X0*%
%ADD38RoundRect,0.200000X0.200000X0.600000X-0.200000X0.600000X-0.200000X-0.600000X0.200000X-0.600000X0*%
%ADD39RoundRect,0.250001X0.799999X1.249999X-0.799999X1.249999X-0.799999X-1.249999X0.799999X-1.249999X0*%
%ADD40RoundRect,0.150000X0.150000X0.350000X-0.150000X0.350000X-0.150000X-0.350000X0.150000X-0.350000X0*%
%ADD41RoundRect,0.250000X0.375000X0.650000X-0.375000X0.650000X-0.375000X-0.650000X0.375000X-0.650000X0*%
%ADD42RoundRect,0.237500X0.237500X-0.250000X0.237500X0.250000X-0.237500X0.250000X-0.237500X-0.250000X0*%
%ADD43RoundRect,0.050800X0.500000X-0.537500X0.500000X0.537500X-0.500000X0.537500X-0.500000X-0.537500X0*%
%ADD44RoundRect,0.250000X0.250000X-0.600000X0.250000X0.600000X-0.250000X0.600000X-0.250000X-0.600000X0*%
%ADD45RoundRect,0.050800X-0.350000X-0.210000X0.350000X-0.210000X0.350000X0.210000X-0.350000X0.210000X0*%
%ADD46RoundRect,0.050800X-1.125000X1.175000X-1.125000X-1.175000X1.125000X-1.175000X1.125000X1.175000X0*%
%ADD47RoundRect,0.050800X-0.500000X0.537500X-0.500000X-0.537500X0.500000X-0.537500X0.500000X0.537500X0*%
%ADD48RoundRect,0.035160X0.140640X0.415640X-0.140640X0.415640X-0.140640X-0.415640X0.140640X-0.415640X0*%
%ADD49RoundRect,0.168160X1.057640X0.672640X-1.057640X0.672640X-1.057640X-0.672640X1.057640X-0.672640X0*%
G04 APERTURE END LIST*
D10*
X92349645Y-81769951D02*
X92325836Y-81793761D01*
X92325836Y-81793761D02*
X92254407Y-81817570D01*
X92254407Y-81817570D02*
X92206788Y-81817570D01*
X92206788Y-81817570D02*
X92135360Y-81793761D01*
X92135360Y-81793761D02*
X92087741Y-81746141D01*
X92087741Y-81746141D02*
X92063931Y-81698522D01*
X92063931Y-81698522D02*
X92040122Y-81603284D01*
X92040122Y-81603284D02*
X92040122Y-81531856D01*
X92040122Y-81531856D02*
X92063931Y-81436618D01*
X92063931Y-81436618D02*
X92087741Y-81388999D01*
X92087741Y-81388999D02*
X92135360Y-81341380D01*
X92135360Y-81341380D02*
X92206788Y-81317570D01*
X92206788Y-81317570D02*
X92254407Y-81317570D01*
X92254407Y-81317570D02*
X92325836Y-81341380D01*
X92325836Y-81341380D02*
X92349645Y-81365189D01*
X92778217Y-81484237D02*
X92778217Y-81817570D01*
X92659169Y-81293761D02*
X92540122Y-81650903D01*
X92540122Y-81650903D02*
X92849645Y-81650903D01*
D11*
X82003571Y-85949809D02*
X81836905Y-85711714D01*
X81717857Y-85949809D02*
X81717857Y-85449809D01*
X81717857Y-85449809D02*
X81908333Y-85449809D01*
X81908333Y-85449809D02*
X81955952Y-85473619D01*
X81955952Y-85473619D02*
X81979762Y-85497428D01*
X81979762Y-85497428D02*
X82003571Y-85545047D01*
X82003571Y-85545047D02*
X82003571Y-85616476D01*
X82003571Y-85616476D02*
X81979762Y-85664095D01*
X81979762Y-85664095D02*
X81955952Y-85687904D01*
X81955952Y-85687904D02*
X81908333Y-85711714D01*
X81908333Y-85711714D02*
X81717857Y-85711714D01*
X82479762Y-85949809D02*
X82194048Y-85949809D01*
X82336905Y-85949809D02*
X82336905Y-85449809D01*
X82336905Y-85449809D02*
X82289286Y-85521238D01*
X82289286Y-85521238D02*
X82241667Y-85568857D01*
X82241667Y-85568857D02*
X82194048Y-85592666D01*
X82955952Y-85949809D02*
X82670238Y-85949809D01*
X82813095Y-85949809D02*
X82813095Y-85449809D01*
X82813095Y-85449809D02*
X82765476Y-85521238D01*
X82765476Y-85521238D02*
X82717857Y-85568857D01*
X82717857Y-85568857D02*
X82670238Y-85592666D01*
D12*
X119982923Y-86954819D02*
X119649590Y-86478628D01*
X119411495Y-86954819D02*
X119411495Y-85954819D01*
X119411495Y-85954819D02*
X119792447Y-85954819D01*
X119792447Y-85954819D02*
X119887685Y-86002438D01*
X119887685Y-86002438D02*
X119935304Y-86050057D01*
X119935304Y-86050057D02*
X119982923Y-86145295D01*
X119982923Y-86145295D02*
X119982923Y-86288152D01*
X119982923Y-86288152D02*
X119935304Y-86383390D01*
X119935304Y-86383390D02*
X119887685Y-86431009D01*
X119887685Y-86431009D02*
X119792447Y-86478628D01*
X119792447Y-86478628D02*
X119411495Y-86478628D01*
X120363876Y-86050057D02*
X120411495Y-86002438D01*
X120411495Y-86002438D02*
X120506733Y-85954819D01*
X120506733Y-85954819D02*
X120744828Y-85954819D01*
X120744828Y-85954819D02*
X120840066Y-86002438D01*
X120840066Y-86002438D02*
X120887685Y-86050057D01*
X120887685Y-86050057D02*
X120935304Y-86145295D01*
X120935304Y-86145295D02*
X120935304Y-86240533D01*
X120935304Y-86240533D02*
X120887685Y-86383390D01*
X120887685Y-86383390D02*
X120316257Y-86954819D01*
X120316257Y-86954819D02*
X120935304Y-86954819D01*
D10*
X86423687Y-102042570D02*
X86257021Y-101804475D01*
X86137973Y-102042570D02*
X86137973Y-101542570D01*
X86137973Y-101542570D02*
X86328449Y-101542570D01*
X86328449Y-101542570D02*
X86376068Y-101566380D01*
X86376068Y-101566380D02*
X86399878Y-101590189D01*
X86399878Y-101590189D02*
X86423687Y-101637808D01*
X86423687Y-101637808D02*
X86423687Y-101709237D01*
X86423687Y-101709237D02*
X86399878Y-101756856D01*
X86399878Y-101756856D02*
X86376068Y-101780665D01*
X86376068Y-101780665D02*
X86328449Y-101804475D01*
X86328449Y-101804475D02*
X86137973Y-101804475D01*
X86899878Y-102042570D02*
X86614164Y-102042570D01*
X86757021Y-102042570D02*
X86757021Y-101542570D01*
X86757021Y-101542570D02*
X86709402Y-101613999D01*
X86709402Y-101613999D02*
X86661783Y-101661618D01*
X86661783Y-101661618D02*
X86614164Y-101685427D01*
X87185592Y-101756856D02*
X87137973Y-101733046D01*
X87137973Y-101733046D02*
X87114163Y-101709237D01*
X87114163Y-101709237D02*
X87090354Y-101661618D01*
X87090354Y-101661618D02*
X87090354Y-101637808D01*
X87090354Y-101637808D02*
X87114163Y-101590189D01*
X87114163Y-101590189D02*
X87137973Y-101566380D01*
X87137973Y-101566380D02*
X87185592Y-101542570D01*
X87185592Y-101542570D02*
X87280830Y-101542570D01*
X87280830Y-101542570D02*
X87328449Y-101566380D01*
X87328449Y-101566380D02*
X87352258Y-101590189D01*
X87352258Y-101590189D02*
X87376068Y-101637808D01*
X87376068Y-101637808D02*
X87376068Y-101661618D01*
X87376068Y-101661618D02*
X87352258Y-101709237D01*
X87352258Y-101709237D02*
X87328449Y-101733046D01*
X87328449Y-101733046D02*
X87280830Y-101756856D01*
X87280830Y-101756856D02*
X87185592Y-101756856D01*
X87185592Y-101756856D02*
X87137973Y-101780665D01*
X87137973Y-101780665D02*
X87114163Y-101804475D01*
X87114163Y-101804475D02*
X87090354Y-101852094D01*
X87090354Y-101852094D02*
X87090354Y-101947332D01*
X87090354Y-101947332D02*
X87114163Y-101994951D01*
X87114163Y-101994951D02*
X87137973Y-102018761D01*
X87137973Y-102018761D02*
X87185592Y-102042570D01*
X87185592Y-102042570D02*
X87280830Y-102042570D01*
X87280830Y-102042570D02*
X87328449Y-102018761D01*
X87328449Y-102018761D02*
X87352258Y-101994951D01*
X87352258Y-101994951D02*
X87376068Y-101947332D01*
X87376068Y-101947332D02*
X87376068Y-101852094D01*
X87376068Y-101852094D02*
X87352258Y-101804475D01*
X87352258Y-101804475D02*
X87328449Y-101780665D01*
X87328449Y-101780665D02*
X87280830Y-101756856D01*
X88919645Y-86836570D02*
X88752979Y-86598475D01*
X88633931Y-86836570D02*
X88633931Y-86336570D01*
X88633931Y-86336570D02*
X88824407Y-86336570D01*
X88824407Y-86336570D02*
X88872026Y-86360380D01*
X88872026Y-86360380D02*
X88895836Y-86384189D01*
X88895836Y-86384189D02*
X88919645Y-86431808D01*
X88919645Y-86431808D02*
X88919645Y-86503237D01*
X88919645Y-86503237D02*
X88895836Y-86550856D01*
X88895836Y-86550856D02*
X88872026Y-86574665D01*
X88872026Y-86574665D02*
X88824407Y-86598475D01*
X88824407Y-86598475D02*
X88633931Y-86598475D01*
X89086312Y-86336570D02*
X89419645Y-86336570D01*
X89419645Y-86336570D02*
X89205360Y-86836570D01*
X78440122Y-91617570D02*
X78773455Y-92117570D01*
X78773455Y-91617570D02*
X78440122Y-92117570D01*
X79225836Y-92117570D02*
X78940122Y-92117570D01*
X79082979Y-92117570D02*
X79082979Y-91617570D01*
X79082979Y-91617570D02*
X79035360Y-91688999D01*
X79035360Y-91688999D02*
X78987741Y-91736618D01*
X78987741Y-91736618D02*
X78940122Y-91760427D01*
D11*
X118475000Y-81365464D02*
X118475000Y-80615464D01*
X118475000Y-80615464D02*
X118760714Y-80615464D01*
X118760714Y-80615464D02*
X118832143Y-80651178D01*
X118832143Y-80651178D02*
X118867857Y-80686892D01*
X118867857Y-80686892D02*
X118903571Y-80758321D01*
X118903571Y-80758321D02*
X118903571Y-80865464D01*
X118903571Y-80865464D02*
X118867857Y-80936892D01*
X118867857Y-80936892D02*
X118832143Y-80972607D01*
X118832143Y-80972607D02*
X118760714Y-81008321D01*
X118760714Y-81008321D02*
X118475000Y-81008321D01*
X119153571Y-80615464D02*
X119332143Y-81365464D01*
X119332143Y-81365464D02*
X119475000Y-80829750D01*
X119475000Y-80829750D02*
X119617857Y-81365464D01*
X119617857Y-81365464D02*
X119796429Y-80615464D01*
X120510714Y-81365464D02*
X120260714Y-81008321D01*
X120082143Y-81365464D02*
X120082143Y-80615464D01*
X120082143Y-80615464D02*
X120367857Y-80615464D01*
X120367857Y-80615464D02*
X120439286Y-80651178D01*
X120439286Y-80651178D02*
X120475000Y-80686892D01*
X120475000Y-80686892D02*
X120510714Y-80758321D01*
X120510714Y-80758321D02*
X120510714Y-80865464D01*
X120510714Y-80865464D02*
X120475000Y-80936892D01*
X120475000Y-80936892D02*
X120439286Y-80972607D01*
X120439286Y-80972607D02*
X120367857Y-81008321D01*
X120367857Y-81008321D02*
X120082143Y-81008321D01*
D13*
X85459524Y-98010800D02*
X85516667Y-98029847D01*
X85516667Y-98029847D02*
X85611905Y-98029847D01*
X85611905Y-98029847D02*
X85650000Y-98010800D01*
X85650000Y-98010800D02*
X85669048Y-97991752D01*
X85669048Y-97991752D02*
X85688095Y-97953657D01*
X85688095Y-97953657D02*
X85688095Y-97915561D01*
X85688095Y-97915561D02*
X85669048Y-97877466D01*
X85669048Y-97877466D02*
X85650000Y-97858419D01*
X85650000Y-97858419D02*
X85611905Y-97839371D01*
X85611905Y-97839371D02*
X85535714Y-97820323D01*
X85535714Y-97820323D02*
X85497619Y-97801276D01*
X85497619Y-97801276D02*
X85478572Y-97782228D01*
X85478572Y-97782228D02*
X85459524Y-97744133D01*
X85459524Y-97744133D02*
X85459524Y-97706038D01*
X85459524Y-97706038D02*
X85478572Y-97667942D01*
X85478572Y-97667942D02*
X85497619Y-97648895D01*
X85497619Y-97648895D02*
X85535714Y-97629847D01*
X85535714Y-97629847D02*
X85630953Y-97629847D01*
X85630953Y-97629847D02*
X85688095Y-97648895D01*
X85859524Y-98029847D02*
X85859524Y-97629847D01*
X85859524Y-97629847D02*
X85954762Y-97629847D01*
X85954762Y-97629847D02*
X86011905Y-97648895D01*
X86011905Y-97648895D02*
X86050000Y-97686990D01*
X86050000Y-97686990D02*
X86069047Y-97725085D01*
X86069047Y-97725085D02*
X86088095Y-97801276D01*
X86088095Y-97801276D02*
X86088095Y-97858419D01*
X86088095Y-97858419D02*
X86069047Y-97934609D01*
X86069047Y-97934609D02*
X86050000Y-97972704D01*
X86050000Y-97972704D02*
X86011905Y-98010800D01*
X86011905Y-98010800D02*
X85954762Y-98029847D01*
X85954762Y-98029847D02*
X85859524Y-98029847D01*
X86240476Y-97915561D02*
X86430952Y-97915561D01*
X86202381Y-98029847D02*
X86335714Y-97629847D01*
X86335714Y-97629847D02*
X86469047Y-98029847D01*
X86888095Y-98010800D02*
X86945238Y-98029847D01*
X86945238Y-98029847D02*
X87040476Y-98029847D01*
X87040476Y-98029847D02*
X87078571Y-98010800D01*
X87078571Y-98010800D02*
X87097619Y-97991752D01*
X87097619Y-97991752D02*
X87116666Y-97953657D01*
X87116666Y-97953657D02*
X87116666Y-97915561D01*
X87116666Y-97915561D02*
X87097619Y-97877466D01*
X87097619Y-97877466D02*
X87078571Y-97858419D01*
X87078571Y-97858419D02*
X87040476Y-97839371D01*
X87040476Y-97839371D02*
X86964285Y-97820323D01*
X86964285Y-97820323D02*
X86926190Y-97801276D01*
X86926190Y-97801276D02*
X86907143Y-97782228D01*
X86907143Y-97782228D02*
X86888095Y-97744133D01*
X86888095Y-97744133D02*
X86888095Y-97706038D01*
X86888095Y-97706038D02*
X86907143Y-97667942D01*
X86907143Y-97667942D02*
X86926190Y-97648895D01*
X86926190Y-97648895D02*
X86964285Y-97629847D01*
X86964285Y-97629847D02*
X87059524Y-97629847D01*
X87059524Y-97629847D02*
X87116666Y-97648895D01*
X87516666Y-97991752D02*
X87497618Y-98010800D01*
X87497618Y-98010800D02*
X87440476Y-98029847D01*
X87440476Y-98029847D02*
X87402380Y-98029847D01*
X87402380Y-98029847D02*
X87345237Y-98010800D01*
X87345237Y-98010800D02*
X87307142Y-97972704D01*
X87307142Y-97972704D02*
X87288095Y-97934609D01*
X87288095Y-97934609D02*
X87269047Y-97858419D01*
X87269047Y-97858419D02*
X87269047Y-97801276D01*
X87269047Y-97801276D02*
X87288095Y-97725085D01*
X87288095Y-97725085D02*
X87307142Y-97686990D01*
X87307142Y-97686990D02*
X87345237Y-97648895D01*
X87345237Y-97648895D02*
X87402380Y-97629847D01*
X87402380Y-97629847D02*
X87440476Y-97629847D01*
X87440476Y-97629847D02*
X87497618Y-97648895D01*
X87497618Y-97648895D02*
X87516666Y-97667942D01*
X87878571Y-98029847D02*
X87688095Y-98029847D01*
X87688095Y-98029847D02*
X87688095Y-97629847D01*
D10*
X84434432Y-81102363D02*
X84148718Y-81102363D01*
X84291575Y-81102363D02*
X84291575Y-80602363D01*
X84291575Y-80602363D02*
X84243956Y-80673792D01*
X84243956Y-80673792D02*
X84196337Y-80721411D01*
X84196337Y-80721411D02*
X84148718Y-80745220D01*
X84624908Y-80649982D02*
X84648717Y-80626173D01*
X84648717Y-80626173D02*
X84696336Y-80602363D01*
X84696336Y-80602363D02*
X84815384Y-80602363D01*
X84815384Y-80602363D02*
X84863003Y-80626173D01*
X84863003Y-80626173D02*
X84886812Y-80649982D01*
X84886812Y-80649982D02*
X84910622Y-80697601D01*
X84910622Y-80697601D02*
X84910622Y-80745220D01*
X84910622Y-80745220D02*
X84886812Y-80816649D01*
X84886812Y-80816649D02*
X84601098Y-81102363D01*
X84601098Y-81102363D02*
X84910622Y-81102363D01*
X85053479Y-80602363D02*
X85220145Y-81102363D01*
X85220145Y-81102363D02*
X85386812Y-80602363D01*
X86771783Y-81109863D02*
X86867021Y-81109863D01*
X86867021Y-81109863D02*
X86914640Y-81086054D01*
X86914640Y-81086054D02*
X86938449Y-81062244D01*
X86938449Y-81062244D02*
X86986068Y-80990815D01*
X86986068Y-80990815D02*
X87009878Y-80895577D01*
X87009878Y-80895577D02*
X87009878Y-80705101D01*
X87009878Y-80705101D02*
X86986068Y-80657482D01*
X86986068Y-80657482D02*
X86962259Y-80633673D01*
X86962259Y-80633673D02*
X86914640Y-80609863D01*
X86914640Y-80609863D02*
X86819402Y-80609863D01*
X86819402Y-80609863D02*
X86771783Y-80633673D01*
X86771783Y-80633673D02*
X86747973Y-80657482D01*
X86747973Y-80657482D02*
X86724164Y-80705101D01*
X86724164Y-80705101D02*
X86724164Y-80824149D01*
X86724164Y-80824149D02*
X86747973Y-80871768D01*
X86747973Y-80871768D02*
X86771783Y-80895577D01*
X86771783Y-80895577D02*
X86819402Y-80919387D01*
X86819402Y-80919387D02*
X86914640Y-80919387D01*
X86914640Y-80919387D02*
X86962259Y-80895577D01*
X86962259Y-80895577D02*
X86986068Y-80871768D01*
X86986068Y-80871768D02*
X87009878Y-80824149D01*
X87152735Y-80609863D02*
X87319401Y-81109863D01*
X87319401Y-81109863D02*
X87486068Y-80609863D01*
D12*
X116725833Y-86903819D02*
X116392500Y-86427628D01*
X116154405Y-86903819D02*
X116154405Y-85903819D01*
X116154405Y-85903819D02*
X116535357Y-85903819D01*
X116535357Y-85903819D02*
X116630595Y-85951438D01*
X116630595Y-85951438D02*
X116678214Y-85999057D01*
X116678214Y-85999057D02*
X116725833Y-86094295D01*
X116725833Y-86094295D02*
X116725833Y-86237152D01*
X116725833Y-86237152D02*
X116678214Y-86332390D01*
X116678214Y-86332390D02*
X116630595Y-86380009D01*
X116630595Y-86380009D02*
X116535357Y-86427628D01*
X116535357Y-86427628D02*
X116154405Y-86427628D01*
X117678214Y-86903819D02*
X117106786Y-86903819D01*
X117392500Y-86903819D02*
X117392500Y-85903819D01*
X117392500Y-85903819D02*
X117297262Y-86046676D01*
X117297262Y-86046676D02*
X117202024Y-86141914D01*
X117202024Y-86141914D02*
X117106786Y-86189533D01*
D10*
X89379878Y-102320570D02*
X89094164Y-102320570D01*
X89237021Y-102320570D02*
X89237021Y-101820570D01*
X89237021Y-101820570D02*
X89189402Y-101891999D01*
X89189402Y-101891999D02*
X89141783Y-101939618D01*
X89141783Y-101939618D02*
X89094164Y-101963427D01*
X89570354Y-102177713D02*
X89808449Y-102177713D01*
X89522735Y-102320570D02*
X89689401Y-101820570D01*
X89689401Y-101820570D02*
X89856068Y-102320570D01*
D13*
X85270550Y-90285990D02*
X85246741Y-90309800D01*
X85246741Y-90309800D02*
X85175312Y-90333609D01*
X85175312Y-90333609D02*
X85127693Y-90333609D01*
X85127693Y-90333609D02*
X85056265Y-90309800D01*
X85056265Y-90309800D02*
X85008646Y-90262180D01*
X85008646Y-90262180D02*
X84984836Y-90214561D01*
X84984836Y-90214561D02*
X84961027Y-90119323D01*
X84961027Y-90119323D02*
X84961027Y-90047895D01*
X84961027Y-90047895D02*
X84984836Y-89952657D01*
X84984836Y-89952657D02*
X85008646Y-89905038D01*
X85008646Y-89905038D02*
X85056265Y-89857419D01*
X85056265Y-89857419D02*
X85127693Y-89833609D01*
X85127693Y-89833609D02*
X85175312Y-89833609D01*
X85175312Y-89833609D02*
X85246741Y-89857419D01*
X85246741Y-89857419D02*
X85270550Y-89881228D01*
X85746741Y-90333609D02*
X85461027Y-90333609D01*
X85603884Y-90333609D02*
X85603884Y-89833609D01*
X85603884Y-89833609D02*
X85556265Y-89905038D01*
X85556265Y-89905038D02*
X85508646Y-89952657D01*
X85508646Y-89952657D02*
X85461027Y-89976466D01*
D10*
X89919645Y-95897570D02*
X89752979Y-95659475D01*
X89633931Y-95897570D02*
X89633931Y-95397570D01*
X89633931Y-95397570D02*
X89824407Y-95397570D01*
X89824407Y-95397570D02*
X89872026Y-95421380D01*
X89872026Y-95421380D02*
X89895836Y-95445189D01*
X89895836Y-95445189D02*
X89919645Y-95492808D01*
X89919645Y-95492808D02*
X89919645Y-95564237D01*
X89919645Y-95564237D02*
X89895836Y-95611856D01*
X89895836Y-95611856D02*
X89872026Y-95635665D01*
X89872026Y-95635665D02*
X89824407Y-95659475D01*
X89824407Y-95659475D02*
X89633931Y-95659475D01*
X90348217Y-95564237D02*
X90348217Y-95897570D01*
X90229169Y-95373761D02*
X90110122Y-95730903D01*
X90110122Y-95730903D02*
X90419645Y-95730903D01*
D14*
X92300952Y-101048409D02*
X92443809Y-101096028D01*
X92443809Y-101096028D02*
X92491428Y-101143647D01*
X92491428Y-101143647D02*
X92539047Y-101238885D01*
X92539047Y-101238885D02*
X92539047Y-101381742D01*
X92539047Y-101381742D02*
X92491428Y-101476980D01*
X92491428Y-101476980D02*
X92443809Y-101524600D01*
X92443809Y-101524600D02*
X92348571Y-101572219D01*
X92348571Y-101572219D02*
X91967619Y-101572219D01*
X91967619Y-101572219D02*
X91967619Y-100572219D01*
X91967619Y-100572219D02*
X92300952Y-100572219D01*
X92300952Y-100572219D02*
X92396190Y-100619838D01*
X92396190Y-100619838D02*
X92443809Y-100667457D01*
X92443809Y-100667457D02*
X92491428Y-100762695D01*
X92491428Y-100762695D02*
X92491428Y-100857933D01*
X92491428Y-100857933D02*
X92443809Y-100953171D01*
X92443809Y-100953171D02*
X92396190Y-101000790D01*
X92396190Y-101000790D02*
X92300952Y-101048409D01*
X92300952Y-101048409D02*
X91967619Y-101048409D01*
X93396190Y-100905552D02*
X93396190Y-101572219D01*
X92967619Y-100905552D02*
X92967619Y-101429361D01*
X92967619Y-101429361D02*
X93015238Y-101524600D01*
X93015238Y-101524600D02*
X93110476Y-101572219D01*
X93110476Y-101572219D02*
X93253333Y-101572219D01*
X93253333Y-101572219D02*
X93348571Y-101524600D01*
X93348571Y-101524600D02*
X93396190Y-101476980D01*
X93872381Y-101572219D02*
X93872381Y-100905552D01*
X93872381Y-101096028D02*
X93920000Y-101000790D01*
X93920000Y-101000790D02*
X93967619Y-100953171D01*
X93967619Y-100953171D02*
X94062857Y-100905552D01*
X94062857Y-100905552D02*
X94158095Y-100905552D01*
X94491429Y-100905552D02*
X94491429Y-101572219D01*
X94491429Y-101000790D02*
X94539048Y-100953171D01*
X94539048Y-100953171D02*
X94634286Y-100905552D01*
X94634286Y-100905552D02*
X94777143Y-100905552D01*
X94777143Y-100905552D02*
X94872381Y-100953171D01*
X94872381Y-100953171D02*
X94920000Y-101048409D01*
X94920000Y-101048409D02*
X94920000Y-101572219D01*
X95920000Y-101572219D02*
X95348572Y-101572219D01*
X95634286Y-101572219D02*
X95634286Y-100572219D01*
X95634286Y-100572219D02*
X95539048Y-100715076D01*
X95539048Y-100715076D02*
X95443810Y-100810314D01*
X95443810Y-100810314D02*
X95348572Y-100857933D01*
D10*
X94479645Y-81769951D02*
X94455836Y-81793761D01*
X94455836Y-81793761D02*
X94384407Y-81817570D01*
X94384407Y-81817570D02*
X94336788Y-81817570D01*
X94336788Y-81817570D02*
X94265360Y-81793761D01*
X94265360Y-81793761D02*
X94217741Y-81746141D01*
X94217741Y-81746141D02*
X94193931Y-81698522D01*
X94193931Y-81698522D02*
X94170122Y-81603284D01*
X94170122Y-81603284D02*
X94170122Y-81531856D01*
X94170122Y-81531856D02*
X94193931Y-81436618D01*
X94193931Y-81436618D02*
X94217741Y-81388999D01*
X94217741Y-81388999D02*
X94265360Y-81341380D01*
X94265360Y-81341380D02*
X94336788Y-81317570D01*
X94336788Y-81317570D02*
X94384407Y-81317570D01*
X94384407Y-81317570D02*
X94455836Y-81341380D01*
X94455836Y-81341380D02*
X94479645Y-81365189D01*
X94646312Y-81317570D02*
X94955836Y-81317570D01*
X94955836Y-81317570D02*
X94789169Y-81508046D01*
X94789169Y-81508046D02*
X94860598Y-81508046D01*
X94860598Y-81508046D02*
X94908217Y-81531856D01*
X94908217Y-81531856D02*
X94932026Y-81555665D01*
X94932026Y-81555665D02*
X94955836Y-81603284D01*
X94955836Y-81603284D02*
X94955836Y-81722332D01*
X94955836Y-81722332D02*
X94932026Y-81769951D01*
X94932026Y-81769951D02*
X94908217Y-81793761D01*
X94908217Y-81793761D02*
X94860598Y-81817570D01*
X94860598Y-81817570D02*
X94717741Y-81817570D01*
X94717741Y-81817570D02*
X94670122Y-81793761D01*
X94670122Y-81793761D02*
X94646312Y-81769951D01*
D11*
X125328571Y-87574809D02*
X125161905Y-87336714D01*
X125042857Y-87574809D02*
X125042857Y-87074809D01*
X125042857Y-87074809D02*
X125233333Y-87074809D01*
X125233333Y-87074809D02*
X125280952Y-87098619D01*
X125280952Y-87098619D02*
X125304762Y-87122428D01*
X125304762Y-87122428D02*
X125328571Y-87170047D01*
X125328571Y-87170047D02*
X125328571Y-87241476D01*
X125328571Y-87241476D02*
X125304762Y-87289095D01*
X125304762Y-87289095D02*
X125280952Y-87312904D01*
X125280952Y-87312904D02*
X125233333Y-87336714D01*
X125233333Y-87336714D02*
X125042857Y-87336714D01*
X125804762Y-87574809D02*
X125519048Y-87574809D01*
X125661905Y-87574809D02*
X125661905Y-87074809D01*
X125661905Y-87074809D02*
X125614286Y-87146238D01*
X125614286Y-87146238D02*
X125566667Y-87193857D01*
X125566667Y-87193857D02*
X125519048Y-87217666D01*
X125995238Y-87122428D02*
X126019047Y-87098619D01*
X126019047Y-87098619D02*
X126066666Y-87074809D01*
X126066666Y-87074809D02*
X126185714Y-87074809D01*
X126185714Y-87074809D02*
X126233333Y-87098619D01*
X126233333Y-87098619D02*
X126257142Y-87122428D01*
X126257142Y-87122428D02*
X126280952Y-87170047D01*
X126280952Y-87170047D02*
X126280952Y-87217666D01*
X126280952Y-87217666D02*
X126257142Y-87289095D01*
X126257142Y-87289095D02*
X125971428Y-87574809D01*
X125971428Y-87574809D02*
X126280952Y-87574809D01*
D12*
G36*
X119487261Y-101875000D02*
G01*
X119487261Y-101683513D01*
X119645042Y-101683513D01*
X119645042Y-101875000D01*
X119487261Y-101875000D01*
G37*
G36*
X119750432Y-101665806D02*
G01*
X119908213Y-101636618D01*
X119920811Y-101679650D01*
X119939516Y-101710518D01*
X119963988Y-101731929D01*
X119995205Y-101745183D01*
X120035281Y-101749947D01*
X120087438Y-101743811D01*
X120119972Y-101728210D01*
X120141034Y-101703152D01*
X120147999Y-101671789D01*
X120144718Y-101649954D01*
X120135725Y-101634481D01*
X120118880Y-101622933D01*
X120084434Y-101610790D01*
X119953552Y-101570890D01*
X119877281Y-101538550D01*
X119837871Y-101512787D01*
X119809578Y-101481748D01*
X119789301Y-101445713D01*
X119776717Y-101403692D01*
X119772292Y-101354274D01*
X119776599Y-101304802D01*
X119788894Y-101262241D01*
X119808756Y-101225306D01*
X119836467Y-101193073D01*
X119870076Y-101167824D01*
X119911246Y-101148971D01*
X119961558Y-101136862D01*
X120023007Y-101132501D01*
X120099885Y-101138332D01*
X120157649Y-101153950D01*
X120200572Y-101177442D01*
X120235496Y-101211469D01*
X120264133Y-101258673D01*
X120285996Y-101322339D01*
X120137740Y-101355251D01*
X120122905Y-101316940D01*
X120100215Y-101291062D01*
X120068828Y-101275106D01*
X120025694Y-101269277D01*
X119972395Y-101274360D01*
X119943018Y-101286435D01*
X119924456Y-101306405D01*
X119918471Y-101330887D01*
X119923919Y-101352944D01*
X119941003Y-101371493D01*
X119975585Y-101387759D01*
X120081015Y-101419609D01*
X120167669Y-101448405D01*
X120224740Y-101478011D01*
X120259984Y-101507658D01*
X120285111Y-101545296D01*
X120300835Y-101591354D01*
X120306451Y-101648098D01*
X120301749Y-101699592D01*
X120288159Y-101745031D01*
X120265891Y-101785597D01*
X120234400Y-101822121D01*
X120196577Y-101851101D01*
X120151765Y-101872390D01*
X120098591Y-101885848D01*
X120035281Y-101890631D01*
X119960235Y-101883717D01*
X119898255Y-101864276D01*
X119846725Y-101833234D01*
X119804599Y-101790514D01*
X119772437Y-101735592D01*
X119750432Y-101665806D01*
G37*
G36*
X120819032Y-101138305D02*
G01*
X120863535Y-101155613D01*
X120905666Y-101185302D01*
X120946123Y-101229527D01*
X120976370Y-101279132D01*
X120999327Y-101339958D01*
X121014206Y-101414262D01*
X121019579Y-101504727D01*
X121014121Y-101600057D01*
X120999075Y-101677685D01*
X120976002Y-101740588D01*
X120945818Y-101791285D01*
X120905040Y-101836706D01*
X120862744Y-101867080D01*
X120818232Y-101884727D01*
X120770268Y-101890631D01*
X120724694Y-101884893D01*
X120682463Y-101867733D01*
X120643405Y-101838113D01*
X120596734Y-101784691D01*
X120596734Y-102152459D01*
X120438892Y-102152459D01*
X120438892Y-101495751D01*
X120594658Y-101495751D01*
X120600050Y-101577167D01*
X120614134Y-101635523D01*
X120634591Y-101676369D01*
X120664574Y-101709781D01*
X120696372Y-101728255D01*
X120731312Y-101734316D01*
X120764616Y-101728657D01*
X120794478Y-101711538D01*
X120822170Y-101680826D01*
X120840849Y-101642968D01*
X120853958Y-101586761D01*
X120859051Y-101505949D01*
X120853945Y-101429518D01*
X120840585Y-101374545D01*
X120821132Y-101335894D01*
X120792689Y-101304315D01*
X120762260Y-101286778D01*
X120728564Y-101281001D01*
X120692960Y-101286765D01*
X120661517Y-101304019D01*
X120632882Y-101334551D01*
X120613094Y-101372294D01*
X120599715Y-101424569D01*
X120594658Y-101495751D01*
X120438892Y-101495751D01*
X120438892Y-101148133D01*
X120585804Y-101148133D01*
X120585804Y-101254684D01*
X120621095Y-101203013D01*
X120665000Y-101164924D01*
X120698969Y-101146776D01*
X120734075Y-101136081D01*
X120770940Y-101132501D01*
X120819032Y-101138305D01*
G37*
G36*
X121442914Y-101136226D02*
G01*
X121492478Y-101146088D01*
X121528765Y-101160528D01*
X121561157Y-101181990D01*
X121585894Y-101207301D01*
X121603930Y-101236793D01*
X121614894Y-101270456D01*
X121623134Y-101326070D01*
X121626462Y-101412159D01*
X121625118Y-101636374D01*
X121627335Y-101724661D01*
X121632629Y-101776875D01*
X121643056Y-101823362D01*
X121660595Y-101875000D01*
X121504890Y-101875000D01*
X121484373Y-101795743D01*
X121441597Y-101838337D01*
X121397972Y-101867123D01*
X121350431Y-101884748D01*
X121299909Y-101890631D01*
X121244608Y-101883907D01*
X121197919Y-101864562D01*
X121157821Y-101832379D01*
X121127743Y-101790524D01*
X121109115Y-101739700D01*
X121102500Y-101677407D01*
X121104409Y-101658417D01*
X121260342Y-101658417D01*
X121266706Y-101695987D01*
X121285254Y-101726378D01*
X121313327Y-101746965D01*
X121347781Y-101753855D01*
X121380372Y-101748546D01*
X121414031Y-101731690D01*
X121442306Y-101706792D01*
X121459461Y-101678995D01*
X121468176Y-101642210D01*
X121472100Y-101568230D01*
X121472100Y-101531106D01*
X121378494Y-101558949D01*
X121312761Y-101580858D01*
X121282873Y-101600043D01*
X121266147Y-101625458D01*
X121260342Y-101658417D01*
X121104409Y-101658417D01*
X121108401Y-101618721D01*
X121125031Y-101570429D01*
X121152308Y-101529210D01*
X121188534Y-101497522D01*
X121236487Y-101473836D01*
X121319754Y-101449162D01*
X121420321Y-101422335D01*
X121472100Y-101402145D01*
X121469341Y-101347387D01*
X121463552Y-101323560D01*
X121451868Y-101306969D01*
X121432105Y-101292908D01*
X121406597Y-101284371D01*
X121367564Y-101281001D01*
X121328384Y-101286132D01*
X121300947Y-101299930D01*
X121280509Y-101324495D01*
X121261685Y-101370882D01*
X121118925Y-101339619D01*
X121141797Y-101268628D01*
X121170636Y-101217091D01*
X121204654Y-101180861D01*
X121247181Y-101155333D01*
X121303178Y-101138657D01*
X121376479Y-101132501D01*
X121442914Y-101136226D01*
G37*
G36*
X122300633Y-101363066D02*
G01*
X122145539Y-101394330D01*
X122130790Y-101340963D01*
X122108160Y-101307259D01*
X122078146Y-101287823D01*
X122038316Y-101281001D01*
X122002103Y-101286498D01*
X121971396Y-101302609D01*
X121944710Y-101330460D01*
X121926841Y-101365627D01*
X121914188Y-101419068D01*
X121909234Y-101497339D01*
X121914254Y-101584224D01*
X121926981Y-101642850D01*
X121944710Y-101680765D01*
X121971738Y-101711066D01*
X122002888Y-101728420D01*
X122039721Y-101734316D01*
X122068024Y-101730854D01*
X122092050Y-101720868D01*
X122112810Y-101704213D01*
X122128439Y-101682151D01*
X122142398Y-101647982D01*
X122153782Y-101597540D01*
X122308815Y-101628803D01*
X122289475Y-101704267D01*
X122263269Y-101763566D01*
X122231043Y-101809566D01*
X122192914Y-101844437D01*
X122148249Y-101869503D01*
X122095733Y-101885119D01*
X122033492Y-101890631D01*
X121976071Y-101885815D01*
X121927101Y-101872135D01*
X121885042Y-101850182D01*
X121848764Y-101819777D01*
X121817643Y-101779989D01*
X121787592Y-101723515D01*
X121765656Y-101660960D01*
X121752032Y-101591377D01*
X121747301Y-101513642D01*
X121753158Y-101419010D01*
X121769313Y-101342133D01*
X121794160Y-101279925D01*
X121826863Y-101229832D01*
X121870104Y-101186982D01*
X121918491Y-101157002D01*
X121973092Y-101138800D01*
X122035568Y-101132501D01*
X122103277Y-101139116D01*
X122159279Y-101157773D01*
X122205989Y-101187761D01*
X122243701Y-101228811D01*
X122275512Y-101285882D01*
X122300633Y-101363066D01*
G37*
G36*
X122708904Y-101138714D02*
G01*
X122761789Y-101156484D01*
X122807443Y-101185466D01*
X122847065Y-101226596D01*
X122881053Y-101281700D01*
X122907120Y-101350928D01*
X122924193Y-101437318D01*
X122930413Y-101544478D01*
X122929742Y-101566277D01*
X122535534Y-101566277D01*
X122541014Y-101621111D01*
X122554248Y-101663540D01*
X122574124Y-101696214D01*
X122601455Y-101722294D01*
X122631014Y-101737163D01*
X122663944Y-101742131D01*
X122697666Y-101736418D01*
X122724954Y-101719754D01*
X122747471Y-101690531D01*
X122765061Y-101644434D01*
X122921498Y-101675697D01*
X122895105Y-101745465D01*
X122862392Y-101798461D01*
X122823801Y-101837752D01*
X122777200Y-101866777D01*
X122724038Y-101884478D01*
X122662601Y-101890631D01*
X122598000Y-101884653D01*
X122543793Y-101867727D01*
X122497931Y-101840517D01*
X122459024Y-101802520D01*
X122423767Y-101749595D01*
X122397356Y-101685672D01*
X122380412Y-101608579D01*
X122374333Y-101515657D01*
X122378968Y-101445132D01*
X122538281Y-101445132D01*
X122773976Y-101445132D01*
X122768334Y-101391566D01*
X122755843Y-101351623D01*
X122737767Y-101322217D01*
X122712806Y-101298781D01*
X122686049Y-101285445D01*
X122656495Y-101281001D01*
X122625248Y-101285678D01*
X122597593Y-101299592D01*
X122572414Y-101323866D01*
X122553985Y-101354711D01*
X122542257Y-101394327D01*
X122538281Y-101445132D01*
X122378968Y-101445132D01*
X122380322Y-101424534D01*
X122397204Y-101347044D01*
X122423833Y-101281024D01*
X122459757Y-101224703D01*
X122499302Y-101183772D01*
X122542981Y-101155425D01*
X122591695Y-101138368D01*
X122646908Y-101132501D01*
X122708904Y-101138714D01*
G37*
D11*
X82028571Y-97474809D02*
X81861905Y-97236714D01*
X81742857Y-97474809D02*
X81742857Y-96974809D01*
X81742857Y-96974809D02*
X81933333Y-96974809D01*
X81933333Y-96974809D02*
X81980952Y-96998619D01*
X81980952Y-96998619D02*
X82004762Y-97022428D01*
X82004762Y-97022428D02*
X82028571Y-97070047D01*
X82028571Y-97070047D02*
X82028571Y-97141476D01*
X82028571Y-97141476D02*
X82004762Y-97189095D01*
X82004762Y-97189095D02*
X81980952Y-97212904D01*
X81980952Y-97212904D02*
X81933333Y-97236714D01*
X81933333Y-97236714D02*
X81742857Y-97236714D01*
X82504762Y-97474809D02*
X82219048Y-97474809D01*
X82361905Y-97474809D02*
X82361905Y-96974809D01*
X82361905Y-96974809D02*
X82314286Y-97046238D01*
X82314286Y-97046238D02*
X82266667Y-97093857D01*
X82266667Y-97093857D02*
X82219048Y-97117666D01*
X82671428Y-96974809D02*
X82980952Y-96974809D01*
X82980952Y-96974809D02*
X82814285Y-97165285D01*
X82814285Y-97165285D02*
X82885714Y-97165285D01*
X82885714Y-97165285D02*
X82933333Y-97189095D01*
X82933333Y-97189095D02*
X82957142Y-97212904D01*
X82957142Y-97212904D02*
X82980952Y-97260523D01*
X82980952Y-97260523D02*
X82980952Y-97379571D01*
X82980952Y-97379571D02*
X82957142Y-97427190D01*
X82957142Y-97427190D02*
X82933333Y-97451000D01*
X82933333Y-97451000D02*
X82885714Y-97474809D01*
X82885714Y-97474809D02*
X82742857Y-97474809D01*
X82742857Y-97474809D02*
X82695238Y-97451000D01*
X82695238Y-97451000D02*
X82671428Y-97427190D01*
X115652864Y-83649102D02*
X115486198Y-83411007D01*
X115367150Y-83649102D02*
X115367150Y-83149102D01*
X115367150Y-83149102D02*
X115557626Y-83149102D01*
X115557626Y-83149102D02*
X115605245Y-83172912D01*
X115605245Y-83172912D02*
X115629055Y-83196721D01*
X115629055Y-83196721D02*
X115652864Y-83244340D01*
X115652864Y-83244340D02*
X115652864Y-83315769D01*
X115652864Y-83315769D02*
X115629055Y-83363388D01*
X115629055Y-83363388D02*
X115605245Y-83387197D01*
X115605245Y-83387197D02*
X115557626Y-83411007D01*
X115557626Y-83411007D02*
X115367150Y-83411007D01*
X116129055Y-83649102D02*
X115843341Y-83649102D01*
X115986198Y-83649102D02*
X115986198Y-83149102D01*
X115986198Y-83149102D02*
X115938579Y-83220531D01*
X115938579Y-83220531D02*
X115890960Y-83268150D01*
X115890960Y-83268150D02*
X115843341Y-83291959D01*
X116581435Y-83149102D02*
X116343340Y-83149102D01*
X116343340Y-83149102D02*
X116319531Y-83387197D01*
X116319531Y-83387197D02*
X116343340Y-83363388D01*
X116343340Y-83363388D02*
X116390959Y-83339578D01*
X116390959Y-83339578D02*
X116510007Y-83339578D01*
X116510007Y-83339578D02*
X116557626Y-83363388D01*
X116557626Y-83363388D02*
X116581435Y-83387197D01*
X116581435Y-83387197D02*
X116605245Y-83434816D01*
X116605245Y-83434816D02*
X116605245Y-83553864D01*
X116605245Y-83553864D02*
X116581435Y-83601483D01*
X116581435Y-83601483D02*
X116557626Y-83625293D01*
X116557626Y-83625293D02*
X116510007Y-83649102D01*
X116510007Y-83649102D02*
X116390959Y-83649102D01*
X116390959Y-83649102D02*
X116343340Y-83625293D01*
X116343340Y-83625293D02*
X116319531Y-83601483D01*
D13*
X92911591Y-86116228D02*
X92863972Y-86092419D01*
X92863972Y-86092419D02*
X92816353Y-86044800D01*
X92816353Y-86044800D02*
X92744925Y-85973371D01*
X92744925Y-85973371D02*
X92697306Y-85949561D01*
X92697306Y-85949561D02*
X92649687Y-85949561D01*
X92673496Y-86068609D02*
X92625877Y-86044800D01*
X92625877Y-86044800D02*
X92578258Y-85997180D01*
X92578258Y-85997180D02*
X92554449Y-85901942D01*
X92554449Y-85901942D02*
X92554449Y-85735276D01*
X92554449Y-85735276D02*
X92578258Y-85640038D01*
X92578258Y-85640038D02*
X92625877Y-85592419D01*
X92625877Y-85592419D02*
X92673496Y-85568609D01*
X92673496Y-85568609D02*
X92768734Y-85568609D01*
X92768734Y-85568609D02*
X92816353Y-85592419D01*
X92816353Y-85592419D02*
X92863972Y-85640038D01*
X92863972Y-85640038D02*
X92887782Y-85735276D01*
X92887782Y-85735276D02*
X92887782Y-85901942D01*
X92887782Y-85901942D02*
X92863972Y-85997180D01*
X92863972Y-85997180D02*
X92816353Y-86044800D01*
X92816353Y-86044800D02*
X92768734Y-86068609D01*
X92768734Y-86068609D02*
X92673496Y-86068609D01*
X93363973Y-86068609D02*
X93078259Y-86068609D01*
X93221116Y-86068609D02*
X93221116Y-85568609D01*
X93221116Y-85568609D02*
X93173497Y-85640038D01*
X93173497Y-85640038D02*
X93125878Y-85687657D01*
X93125878Y-85687657D02*
X93078259Y-85711466D01*
D10*
X89436068Y-80610863D02*
X89197973Y-80610863D01*
X89197973Y-80610863D02*
X89174164Y-80848958D01*
X89174164Y-80848958D02*
X89197973Y-80825149D01*
X89197973Y-80825149D02*
X89245592Y-80801339D01*
X89245592Y-80801339D02*
X89364640Y-80801339D01*
X89364640Y-80801339D02*
X89412259Y-80825149D01*
X89412259Y-80825149D02*
X89436068Y-80848958D01*
X89436068Y-80848958D02*
X89459878Y-80896577D01*
X89459878Y-80896577D02*
X89459878Y-81015625D01*
X89459878Y-81015625D02*
X89436068Y-81063244D01*
X89436068Y-81063244D02*
X89412259Y-81087054D01*
X89412259Y-81087054D02*
X89364640Y-81110863D01*
X89364640Y-81110863D02*
X89245592Y-81110863D01*
X89245592Y-81110863D02*
X89197973Y-81087054D01*
X89197973Y-81087054D02*
X89174164Y-81063244D01*
X89602735Y-80610863D02*
X89769401Y-81110863D01*
X89769401Y-81110863D02*
X89936068Y-80610863D01*
D11*
X125366071Y-95824809D02*
X125199405Y-95586714D01*
X125080357Y-95824809D02*
X125080357Y-95324809D01*
X125080357Y-95324809D02*
X125270833Y-95324809D01*
X125270833Y-95324809D02*
X125318452Y-95348619D01*
X125318452Y-95348619D02*
X125342262Y-95372428D01*
X125342262Y-95372428D02*
X125366071Y-95420047D01*
X125366071Y-95420047D02*
X125366071Y-95491476D01*
X125366071Y-95491476D02*
X125342262Y-95539095D01*
X125342262Y-95539095D02*
X125318452Y-95562904D01*
X125318452Y-95562904D02*
X125270833Y-95586714D01*
X125270833Y-95586714D02*
X125080357Y-95586714D01*
X125842262Y-95824809D02*
X125556548Y-95824809D01*
X125699405Y-95824809D02*
X125699405Y-95324809D01*
X125699405Y-95324809D02*
X125651786Y-95396238D01*
X125651786Y-95396238D02*
X125604167Y-95443857D01*
X125604167Y-95443857D02*
X125556548Y-95467666D01*
X126270833Y-95491476D02*
X126270833Y-95824809D01*
X126151785Y-95301000D02*
X126032738Y-95658142D01*
X126032738Y-95658142D02*
X126342261Y-95658142D01*
D10*
X89203687Y-88842570D02*
X89037021Y-88604475D01*
X88917973Y-88842570D02*
X88917973Y-88342570D01*
X88917973Y-88342570D02*
X89108449Y-88342570D01*
X89108449Y-88342570D02*
X89156068Y-88366380D01*
X89156068Y-88366380D02*
X89179878Y-88390189D01*
X89179878Y-88390189D02*
X89203687Y-88437808D01*
X89203687Y-88437808D02*
X89203687Y-88509237D01*
X89203687Y-88509237D02*
X89179878Y-88556856D01*
X89179878Y-88556856D02*
X89156068Y-88580665D01*
X89156068Y-88580665D02*
X89108449Y-88604475D01*
X89108449Y-88604475D02*
X88917973Y-88604475D01*
X89370354Y-88342570D02*
X89679878Y-88342570D01*
X89679878Y-88342570D02*
X89513211Y-88533046D01*
X89513211Y-88533046D02*
X89584640Y-88533046D01*
X89584640Y-88533046D02*
X89632259Y-88556856D01*
X89632259Y-88556856D02*
X89656068Y-88580665D01*
X89656068Y-88580665D02*
X89679878Y-88628284D01*
X89679878Y-88628284D02*
X89679878Y-88747332D01*
X89679878Y-88747332D02*
X89656068Y-88794951D01*
X89656068Y-88794951D02*
X89632259Y-88818761D01*
X89632259Y-88818761D02*
X89584640Y-88842570D01*
X89584640Y-88842570D02*
X89441783Y-88842570D01*
X89441783Y-88842570D02*
X89394164Y-88818761D01*
X89394164Y-88818761D02*
X89370354Y-88794951D01*
X96499645Y-81769951D02*
X96475836Y-81793761D01*
X96475836Y-81793761D02*
X96404407Y-81817570D01*
X96404407Y-81817570D02*
X96356788Y-81817570D01*
X96356788Y-81817570D02*
X96285360Y-81793761D01*
X96285360Y-81793761D02*
X96237741Y-81746141D01*
X96237741Y-81746141D02*
X96213931Y-81698522D01*
X96213931Y-81698522D02*
X96190122Y-81603284D01*
X96190122Y-81603284D02*
X96190122Y-81531856D01*
X96190122Y-81531856D02*
X96213931Y-81436618D01*
X96213931Y-81436618D02*
X96237741Y-81388999D01*
X96237741Y-81388999D02*
X96285360Y-81341380D01*
X96285360Y-81341380D02*
X96356788Y-81317570D01*
X96356788Y-81317570D02*
X96404407Y-81317570D01*
X96404407Y-81317570D02*
X96475836Y-81341380D01*
X96475836Y-81341380D02*
X96499645Y-81365189D01*
X96690122Y-81365189D02*
X96713931Y-81341380D01*
X96713931Y-81341380D02*
X96761550Y-81317570D01*
X96761550Y-81317570D02*
X96880598Y-81317570D01*
X96880598Y-81317570D02*
X96928217Y-81341380D01*
X96928217Y-81341380D02*
X96952026Y-81365189D01*
X96952026Y-81365189D02*
X96975836Y-81412808D01*
X96975836Y-81412808D02*
X96975836Y-81460427D01*
X96975836Y-81460427D02*
X96952026Y-81531856D01*
X96952026Y-81531856D02*
X96666312Y-81817570D01*
X96666312Y-81817570D02*
X96975836Y-81817570D01*
X85774645Y-86841570D02*
X85607979Y-86603475D01*
X85488931Y-86841570D02*
X85488931Y-86341570D01*
X85488931Y-86341570D02*
X85679407Y-86341570D01*
X85679407Y-86341570D02*
X85727026Y-86365380D01*
X85727026Y-86365380D02*
X85750836Y-86389189D01*
X85750836Y-86389189D02*
X85774645Y-86436808D01*
X85774645Y-86436808D02*
X85774645Y-86508237D01*
X85774645Y-86508237D02*
X85750836Y-86555856D01*
X85750836Y-86555856D02*
X85727026Y-86579665D01*
X85727026Y-86579665D02*
X85679407Y-86603475D01*
X85679407Y-86603475D02*
X85488931Y-86603475D01*
X86060360Y-86555856D02*
X86012741Y-86532046D01*
X86012741Y-86532046D02*
X85988931Y-86508237D01*
X85988931Y-86508237D02*
X85965122Y-86460618D01*
X85965122Y-86460618D02*
X85965122Y-86436808D01*
X85965122Y-86436808D02*
X85988931Y-86389189D01*
X85988931Y-86389189D02*
X86012741Y-86365380D01*
X86012741Y-86365380D02*
X86060360Y-86341570D01*
X86060360Y-86341570D02*
X86155598Y-86341570D01*
X86155598Y-86341570D02*
X86203217Y-86365380D01*
X86203217Y-86365380D02*
X86227026Y-86389189D01*
X86227026Y-86389189D02*
X86250836Y-86436808D01*
X86250836Y-86436808D02*
X86250836Y-86460618D01*
X86250836Y-86460618D02*
X86227026Y-86508237D01*
X86227026Y-86508237D02*
X86203217Y-86532046D01*
X86203217Y-86532046D02*
X86155598Y-86555856D01*
X86155598Y-86555856D02*
X86060360Y-86555856D01*
X86060360Y-86555856D02*
X86012741Y-86579665D01*
X86012741Y-86579665D02*
X85988931Y-86603475D01*
X85988931Y-86603475D02*
X85965122Y-86651094D01*
X85965122Y-86651094D02*
X85965122Y-86746332D01*
X85965122Y-86746332D02*
X85988931Y-86793951D01*
X85988931Y-86793951D02*
X86012741Y-86817761D01*
X86012741Y-86817761D02*
X86060360Y-86841570D01*
X86060360Y-86841570D02*
X86155598Y-86841570D01*
X86155598Y-86841570D02*
X86203217Y-86817761D01*
X86203217Y-86817761D02*
X86227026Y-86793951D01*
X86227026Y-86793951D02*
X86250836Y-86746332D01*
X86250836Y-86746332D02*
X86250836Y-86651094D01*
X86250836Y-86651094D02*
X86227026Y-86603475D01*
X86227026Y-86603475D02*
X86203217Y-86579665D01*
X86203217Y-86579665D02*
X86155598Y-86555856D01*
X83591551Y-101855189D02*
X83615360Y-101831380D01*
X83615360Y-101831380D02*
X83662979Y-101807570D01*
X83662979Y-101807570D02*
X83782027Y-101807570D01*
X83782027Y-101807570D02*
X83829646Y-101831380D01*
X83829646Y-101831380D02*
X83853455Y-101855189D01*
X83853455Y-101855189D02*
X83877265Y-101902808D01*
X83877265Y-101902808D02*
X83877265Y-101950427D01*
X83877265Y-101950427D02*
X83853455Y-102021856D01*
X83853455Y-102021856D02*
X83567741Y-102307570D01*
X83567741Y-102307570D02*
X83877265Y-102307570D01*
X84067741Y-102164713D02*
X84305836Y-102164713D01*
X84020122Y-102307570D02*
X84186788Y-101807570D01*
X84186788Y-101807570D02*
X84353455Y-102307570D01*
X85065121Y-94367570D02*
X85065121Y-94772332D01*
X85065121Y-94772332D02*
X85088931Y-94819951D01*
X85088931Y-94819951D02*
X85112740Y-94843761D01*
X85112740Y-94843761D02*
X85160359Y-94867570D01*
X85160359Y-94867570D02*
X85255597Y-94867570D01*
X85255597Y-94867570D02*
X85303216Y-94843761D01*
X85303216Y-94843761D02*
X85327026Y-94819951D01*
X85327026Y-94819951D02*
X85350835Y-94772332D01*
X85350835Y-94772332D02*
X85350835Y-94367570D01*
X85850836Y-94867570D02*
X85565122Y-94867570D01*
X85707979Y-94867570D02*
X85707979Y-94367570D01*
X85707979Y-94367570D02*
X85660360Y-94438999D01*
X85660360Y-94438999D02*
X85612741Y-94486618D01*
X85612741Y-94486618D02*
X85565122Y-94510427D01*
D14*
X98050952Y-101048409D02*
X98193809Y-101096028D01*
X98193809Y-101096028D02*
X98241428Y-101143647D01*
X98241428Y-101143647D02*
X98289047Y-101238885D01*
X98289047Y-101238885D02*
X98289047Y-101381742D01*
X98289047Y-101381742D02*
X98241428Y-101476980D01*
X98241428Y-101476980D02*
X98193809Y-101524600D01*
X98193809Y-101524600D02*
X98098571Y-101572219D01*
X98098571Y-101572219D02*
X97717619Y-101572219D01*
X97717619Y-101572219D02*
X97717619Y-100572219D01*
X97717619Y-100572219D02*
X98050952Y-100572219D01*
X98050952Y-100572219D02*
X98146190Y-100619838D01*
X98146190Y-100619838D02*
X98193809Y-100667457D01*
X98193809Y-100667457D02*
X98241428Y-100762695D01*
X98241428Y-100762695D02*
X98241428Y-100857933D01*
X98241428Y-100857933D02*
X98193809Y-100953171D01*
X98193809Y-100953171D02*
X98146190Y-101000790D01*
X98146190Y-101000790D02*
X98050952Y-101048409D01*
X98050952Y-101048409D02*
X97717619Y-101048409D01*
X99146190Y-100905552D02*
X99146190Y-101572219D01*
X98717619Y-100905552D02*
X98717619Y-101429361D01*
X98717619Y-101429361D02*
X98765238Y-101524600D01*
X98765238Y-101524600D02*
X98860476Y-101572219D01*
X98860476Y-101572219D02*
X99003333Y-101572219D01*
X99003333Y-101572219D02*
X99098571Y-101524600D01*
X99098571Y-101524600D02*
X99146190Y-101476980D01*
X99622381Y-101572219D02*
X99622381Y-100905552D01*
X99622381Y-101096028D02*
X99670000Y-101000790D01*
X99670000Y-101000790D02*
X99717619Y-100953171D01*
X99717619Y-100953171D02*
X99812857Y-100905552D01*
X99812857Y-100905552D02*
X99908095Y-100905552D01*
X100241429Y-100905552D02*
X100241429Y-101572219D01*
X100241429Y-101000790D02*
X100289048Y-100953171D01*
X100289048Y-100953171D02*
X100384286Y-100905552D01*
X100384286Y-100905552D02*
X100527143Y-100905552D01*
X100527143Y-100905552D02*
X100622381Y-100953171D01*
X100622381Y-100953171D02*
X100670000Y-101048409D01*
X100670000Y-101048409D02*
X100670000Y-101572219D01*
X101098572Y-100667457D02*
X101146191Y-100619838D01*
X101146191Y-100619838D02*
X101241429Y-100572219D01*
X101241429Y-100572219D02*
X101479524Y-100572219D01*
X101479524Y-100572219D02*
X101574762Y-100619838D01*
X101574762Y-100619838D02*
X101622381Y-100667457D01*
X101622381Y-100667457D02*
X101670000Y-100762695D01*
X101670000Y-100762695D02*
X101670000Y-100857933D01*
X101670000Y-100857933D02*
X101622381Y-101000790D01*
X101622381Y-101000790D02*
X101050953Y-101572219D01*
X101050953Y-101572219D02*
X101670000Y-101572219D01*
D15*
%TO.C,REF\u002A\u002A*%
X118860000Y-89272936D02*
X118860000Y-93627064D01*
X122280000Y-89272936D02*
X122280000Y-93627064D01*
D16*
%TO.C,C4*%
X91992000Y-83550000D02*
X93008000Y-83550000D01*
D15*
%TO.C,R11*%
X79402197Y-85177500D02*
X79911645Y-85177500D01*
X79402197Y-86222500D02*
X79911645Y-86222500D01*
D16*
%TO.C,R18*%
X86720000Y-100320000D02*
X86720000Y-101120000D01*
%TO.C,R7*%
X89070000Y-85070000D02*
X89070000Y-85870000D01*
D17*
%TO.C,X1*%
X76310400Y-87033000D02*
X77660400Y-87033000D01*
X76310400Y-95973000D02*
X76310400Y-87033000D01*
X77660400Y-95973000D02*
X76310400Y-95973000D01*
X80310400Y-87033000D02*
X81660400Y-87033000D01*
X81660400Y-95973000D02*
X80310400Y-95973000D01*
D15*
%TO.C,R20*%
X93427500Y-91132776D02*
X93427500Y-91642224D01*
X94472500Y-91132776D02*
X94472500Y-91642224D01*
%TO.C,D3*%
X118675000Y-83060000D02*
X121135000Y-83060000D01*
X121135000Y-81590000D02*
X118675000Y-81590000D01*
X121135000Y-83060000D02*
X121135000Y-81590000D01*
%TO.C,J2*%
X85433200Y-99715000D02*
X85433200Y-99020000D01*
X86118200Y-99715000D02*
X85433200Y-99715000D01*
X86803200Y-98325000D02*
X87678200Y-98325000D01*
X86803200Y-98411724D02*
X86803200Y-98325000D01*
X86803200Y-99715000D02*
X86803200Y-99628276D01*
X86803200Y-99715000D02*
X87678200Y-99715000D01*
X87678200Y-98625507D02*
X87678200Y-98325000D01*
X87678200Y-99715000D02*
X87678200Y-99414493D01*
D18*
%TO.C,12V*%
X83683554Y-84350793D02*
X83683554Y-81556793D01*
X85461554Y-81302793D02*
X83937554Y-81302793D01*
X85461554Y-84604793D02*
X83937554Y-84604793D01*
X85715554Y-81556793D02*
X85715554Y-84350793D01*
X83683554Y-81556793D02*
G75*
G02*
X83937554Y-81302793I254000J0D01*
G01*
X83937554Y-84604793D02*
G75*
G02*
X83683554Y-84350793I0J254000D01*
G01*
X85461554Y-81302793D02*
G75*
G02*
X85715554Y-81556793I0J-254000D01*
G01*
X85715554Y-84350793D02*
G75*
G02*
X85461554Y-84604793I-254000J0D01*
G01*
D15*
%TO.C,R16*%
X108667500Y-91213862D02*
X108667500Y-91723310D01*
X109712500Y-91213862D02*
X109712500Y-91723310D01*
%TO.C,D2*%
X106725000Y-89804293D02*
X106725000Y-92264293D01*
X108195000Y-89804293D02*
X106725000Y-89804293D01*
X108195000Y-92264293D02*
X108195000Y-89804293D01*
%TO.C,D1*%
X104935000Y-89782500D02*
X104935000Y-92242500D01*
X106405000Y-89782500D02*
X104935000Y-89782500D01*
X106405000Y-92242500D02*
X106405000Y-89782500D01*
D18*
%TO.C,9V*%
X86084000Y-84333293D02*
X86084000Y-81539293D01*
X87862000Y-81285293D02*
X86338000Y-81285293D01*
X87862000Y-84587293D02*
X86338000Y-84587293D01*
X88116000Y-81539293D02*
X88116000Y-84333293D01*
X86084000Y-81539293D02*
G75*
G02*
X86338000Y-81285293I254000J0D01*
G01*
X86338000Y-84587293D02*
G75*
G02*
X86084000Y-84333293I0J254000D01*
G01*
X87862000Y-81285293D02*
G75*
G02*
X88116000Y-81539293I0J-254000D01*
G01*
X88116000Y-84333293D02*
G75*
G02*
X87862000Y-84587293I-254000J0D01*
G01*
D15*
%TO.C,J1*%
X100900000Y-80095000D02*
X100900000Y-80545000D01*
X100900000Y-84065000D02*
X100900000Y-84515000D01*
X100900000Y-84515000D02*
X101850000Y-84515000D01*
X109420000Y-84515000D02*
X109420000Y-86005000D01*
X110370000Y-80095000D02*
X100900000Y-80095000D01*
X110370000Y-80545000D02*
X110370000Y-80095000D01*
X110370000Y-84065000D02*
X110370000Y-84515000D01*
X110370000Y-84515000D02*
X109420000Y-84515000D01*
%TO.C,p*%
X99145000Y-82860000D02*
X99145000Y-86990000D01*
X99145000Y-86990000D02*
X101320000Y-86990000D01*
X101315000Y-80670000D02*
X100160000Y-80670000D01*
X101315000Y-82670000D02*
X101315000Y-80670000D01*
X109940000Y-86990000D02*
X109940000Y-87390000D01*
X109945000Y-80670000D02*
X109945000Y-82670000D01*
X109945000Y-82670000D02*
X101315000Y-82670000D01*
X111100000Y-80670000D02*
X109945000Y-80670000D01*
X112115000Y-82860000D02*
X112115000Y-86990000D01*
X112115000Y-86990000D02*
X109940000Y-86990000D01*
%TO.C,R19*%
X99177500Y-91642224D02*
X99177500Y-91132776D01*
X100222500Y-91642224D02*
X100222500Y-91132776D01*
D18*
%TO.C,1A*%
X88504000Y-101307000D02*
X88504000Y-98513000D01*
X90282000Y-98259000D02*
X88758000Y-98259000D01*
X90282000Y-101561000D02*
X88758000Y-101561000D01*
X90536000Y-98513000D02*
X90536000Y-101307000D01*
X88504000Y-98513000D02*
G75*
G02*
X88758000Y-98259000I254000J0D01*
G01*
X88758000Y-101561000D02*
G75*
G02*
X88504000Y-101307000I0J254000D01*
G01*
X90282000Y-98259000D02*
G75*
G02*
X90536000Y-98513000I0J-254000D01*
G01*
X90536000Y-101307000D02*
G75*
G02*
X90282000Y-101561000I-254000J0D01*
G01*
D16*
%TO.C,C1*%
X86242000Y-90075000D02*
X87258000Y-90075000D01*
D15*
%TO.C,REF\u002A\u002A*%
X114782910Y-89257579D02*
X114782910Y-93611707D01*
X118202910Y-89257579D02*
X118202910Y-93611707D01*
D16*
%TO.C,R4*%
X89550000Y-93675000D02*
X90350000Y-93675000D01*
D12*
%TO.C,Burn1*%
X91404500Y-94670000D02*
X92294500Y-93780000D01*
X91404500Y-97230000D02*
X91404500Y-94670000D01*
X91404500Y-97230000D02*
X92294500Y-98120000D01*
X92154500Y-95050000D02*
X93054500Y-94150000D01*
X92154500Y-96950000D02*
X92154500Y-95050000D01*
X92784500Y-93400000D02*
X95124500Y-93400000D01*
X92784500Y-98500000D02*
X95124500Y-98500000D01*
X92954500Y-97750000D02*
X92154500Y-96950000D01*
X93054500Y-94150000D02*
X94854500Y-94150000D01*
X94854500Y-94150000D02*
X95854500Y-95150000D01*
X94954500Y-97750000D02*
X92954500Y-97750000D01*
X95614500Y-93780000D02*
X96504500Y-94670000D01*
X95614500Y-98120000D02*
X96504500Y-97230000D01*
X95854500Y-95150000D02*
X95854500Y-96850000D01*
X95854500Y-96850000D02*
X94954500Y-97750000D01*
X96504500Y-97230000D02*
X96504500Y-94670000D01*
X91484500Y-99200000D02*
G75*
G02*
X91424500Y-99200000I-30000J0D01*
G01*
X91424500Y-99200000D02*
G75*
G02*
X91484500Y-99200000I30000J0D01*
G01*
X95234500Y-95950000D02*
G75*
G02*
X92674500Y-95950000I-1280000J0D01*
G01*
X92674500Y-95950000D02*
G75*
G02*
X95234500Y-95950000I1280000J0D01*
G01*
D16*
%TO.C,C3*%
X94072000Y-83550000D02*
X95088000Y-83550000D01*
D15*
%TO.C,R12*%
X125432776Y-85577500D02*
X125942224Y-85577500D01*
X125432776Y-86622500D02*
X125942224Y-86622500D01*
D19*
%TO.C,.space*%
G36*
X117199985Y-100799198D02*
G01*
X117250804Y-100814618D01*
X117270489Y-100844430D01*
X117273078Y-100880623D01*
X117263227Y-100963985D01*
X117229570Y-101012675D01*
X117165951Y-101033238D01*
X117127820Y-101035062D01*
X117039632Y-101046475D01*
X116970553Y-101085340D01*
X116966076Y-101089114D01*
X116903175Y-101143165D01*
X116895993Y-101492644D01*
X116888810Y-101842123D01*
X116789505Y-101842123D01*
X116690201Y-101842123D01*
X116690201Y-101326500D01*
X116690201Y-100810878D01*
X116791084Y-100810878D01*
X116853227Y-100813055D01*
X116882667Y-100824374D01*
X116891496Y-100852022D01*
X116891966Y-100870832D01*
X116891966Y-100930786D01*
X116942408Y-100883534D01*
X117034582Y-100822424D01*
X117137160Y-100795955D01*
X117199985Y-100799198D01*
G37*
G36*
X105718141Y-101472970D02*
G01*
X105781420Y-101498089D01*
X105871213Y-101537784D01*
X105980843Y-101589088D01*
X106103631Y-101649031D01*
X106123158Y-101658777D01*
X106523082Y-101858987D01*
X106929101Y-101656329D01*
X107095153Y-101575274D01*
X107223297Y-101516785D01*
X107313333Y-101480945D01*
X107365064Y-101467838D01*
X107374585Y-101468815D01*
X107400991Y-101485706D01*
X107390642Y-101512320D01*
X107383503Y-101521380D01*
X107356472Y-101540295D01*
X107296807Y-101574392D01*
X107211941Y-101619958D01*
X107109311Y-101673281D01*
X106996350Y-101730648D01*
X106880494Y-101788345D01*
X106769179Y-101842661D01*
X106669839Y-101889883D01*
X106589909Y-101926299D01*
X106536825Y-101948194D01*
X106519367Y-101952882D01*
X106494633Y-101943081D01*
X106435781Y-101916419D01*
X106348947Y-101875781D01*
X106240268Y-101824047D01*
X106115881Y-101764102D01*
X106067415Y-101740569D01*
X105911358Y-101663435D01*
X105793750Y-101602166D01*
X105711898Y-101554806D01*
X105663107Y-101519401D01*
X105644683Y-101493997D01*
X105653931Y-101476639D01*
X105688055Y-101465394D01*
X105718141Y-101472970D01*
G37*
G36*
X105718141Y-101831663D02*
G01*
X105781420Y-101856783D01*
X105871213Y-101896478D01*
X105980843Y-101947781D01*
X106103631Y-102007725D01*
X106123158Y-102017471D01*
X106523082Y-102217680D01*
X106929101Y-102015023D01*
X107095153Y-101933968D01*
X107223297Y-101875478D01*
X107313333Y-101839639D01*
X107365064Y-101826532D01*
X107374585Y-101827509D01*
X107400997Y-101844416D01*
X107390405Y-101870956D01*
X107383503Y-101879592D01*
X107355788Y-101899246D01*
X107295448Y-101934165D01*
X107209991Y-101980563D01*
X107106926Y-102034654D01*
X106993763Y-102092653D01*
X106878011Y-102150775D01*
X106767177Y-102205235D01*
X106668772Y-102252247D01*
X106590304Y-102288025D01*
X106539282Y-102308786D01*
X106524820Y-102312458D01*
X106498456Y-102302857D01*
X106438128Y-102276260D01*
X106350058Y-102235556D01*
X106240468Y-102183638D01*
X106115579Y-102123396D01*
X106067483Y-102099940D01*
X105911614Y-102022498D01*
X105794147Y-101961005D01*
X105712381Y-101913497D01*
X105663615Y-101878010D01*
X105645149Y-101852580D01*
X105654281Y-101835244D01*
X105688055Y-101824088D01*
X105718141Y-101831663D01*
G37*
G36*
X110211420Y-101130340D02*
G01*
X110213262Y-101292633D01*
X110219544Y-101416318D01*
X110231623Y-101507520D01*
X110250852Y-101572359D01*
X110278586Y-101616960D01*
X110316180Y-101647445D01*
X110327154Y-101653515D01*
X110414949Y-101677402D01*
X110503785Y-101666018D01*
X110577425Y-101621786D01*
X110583725Y-101615213D01*
X110599542Y-101593248D01*
X110611203Y-101562751D01*
X110619527Y-101516683D01*
X110625329Y-101448002D01*
X110629428Y-101349668D01*
X110632640Y-101214640D01*
X110633116Y-101189703D01*
X110640197Y-100810878D01*
X110739603Y-100810878D01*
X110839009Y-100810878D01*
X110839009Y-101326500D01*
X110839009Y-101842123D01*
X110738127Y-101842123D01*
X110670839Y-101837441D01*
X110640620Y-101821907D01*
X110637244Y-101809591D01*
X110630272Y-101792725D01*
X110603152Y-101795252D01*
X110546585Y-101818219D01*
X110541966Y-101820308D01*
X110443105Y-101854997D01*
X110353789Y-101859025D01*
X110252422Y-101833259D01*
X110249044Y-101832061D01*
X110173386Y-101800577D01*
X110115305Y-101762891D01*
X110072550Y-101713003D01*
X110042874Y-101644909D01*
X110024028Y-101552608D01*
X110013764Y-101430098D01*
X110009833Y-101271377D01*
X110009530Y-101192710D01*
X110009530Y-100810878D01*
X110110413Y-100810878D01*
X110211295Y-100810878D01*
X110211420Y-101130340D01*
G37*
G36*
X115797595Y-101189703D02*
G01*
X115800742Y-101331116D01*
X115804648Y-101434734D01*
X115810129Y-101507596D01*
X115818004Y-101556742D01*
X115829088Y-101589213D01*
X115844200Y-101612050D01*
X115846986Y-101615213D01*
X115917489Y-101663668D01*
X116000418Y-101678168D01*
X116083034Y-101661174D01*
X116152599Y-101615149D01*
X116194567Y-101548020D01*
X116203653Y-101499553D01*
X116211200Y-101416115D01*
X116216600Y-101307563D01*
X116219248Y-101183751D01*
X116219415Y-101143808D01*
X116219415Y-100810878D01*
X116320298Y-100810878D01*
X116421181Y-100810878D01*
X116421181Y-101326500D01*
X116421181Y-101842123D01*
X116320298Y-101842123D01*
X116257337Y-101839238D01*
X116227553Y-101827133D01*
X116219472Y-101800632D01*
X116219415Y-101796615D01*
X116217454Y-101767910D01*
X116204288Y-101765038D01*
X116168993Y-101788417D01*
X116154494Y-101799106D01*
X116074896Y-101836689D01*
X115974440Y-101855619D01*
X115874260Y-101852950D01*
X115834241Y-101843709D01*
X115719426Y-101784533D01*
X115633460Y-101692033D01*
X115618509Y-101664743D01*
X115607593Y-101630300D01*
X115600094Y-101581696D01*
X115595396Y-101511925D01*
X115592880Y-101413981D01*
X115591929Y-101280858D01*
X115591849Y-101220013D01*
X115591701Y-100810878D01*
X115691108Y-100810878D01*
X115790514Y-100810878D01*
X115797595Y-101189703D01*
G37*
G36*
X117977832Y-100813902D02*
G01*
X118090157Y-100861104D01*
X118184533Y-100938932D01*
X118233285Y-101008089D01*
X118268556Y-101085522D01*
X118270843Y-101135260D01*
X118238391Y-101161783D01*
X118169961Y-101169572D01*
X118107018Y-101164426D01*
X118073377Y-101144470D01*
X118059739Y-101119131D01*
X118008911Y-101042158D01*
X117933522Y-100993496D01*
X117845648Y-100975733D01*
X117757370Y-100991459D01*
X117685079Y-101038820D01*
X117652770Y-101077183D01*
X117632900Y-101121480D01*
X117621228Y-101185346D01*
X117614563Y-101265540D01*
X117614864Y-101419109D01*
X117638466Y-101535309D01*
X117686164Y-101615549D01*
X117758751Y-101661238D01*
X117844746Y-101673985D01*
X117945329Y-101655168D01*
X118020684Y-101600083D01*
X118060821Y-101531023D01*
X118080468Y-101496275D01*
X118112880Y-101485721D01*
X118162801Y-101490977D01*
X118221637Y-101504480D01*
X118260087Y-101520437D01*
X118263068Y-101522880D01*
X118269120Y-101557627D01*
X118249117Y-101611799D01*
X118210110Y-101674585D01*
X118159151Y-101735172D01*
X118103290Y-101782749D01*
X118087183Y-101792567D01*
X117986857Y-101832203D01*
X117873874Y-101853548D01*
X117767508Y-101853957D01*
X117716156Y-101843468D01*
X117591584Y-101786880D01*
X117499685Y-101705861D01*
X117438332Y-101596956D01*
X117405396Y-101456705D01*
X117398062Y-101326500D01*
X117400905Y-101217558D01*
X117411301Y-101137102D01*
X117432052Y-101069035D01*
X117449815Y-101029140D01*
X117522095Y-100926701D01*
X117619690Y-100853725D01*
X117733946Y-100810445D01*
X117856210Y-100797093D01*
X117977832Y-100813902D01*
G37*
G36*
X111309795Y-100655577D02*
G01*
X111309795Y-100903806D01*
X111366894Y-100858892D01*
X111464563Y-100808803D01*
X111575869Y-100794734D01*
X111689821Y-100815239D01*
X111795431Y-100868868D01*
X111856801Y-100923439D01*
X111922862Y-101015300D01*
X111962903Y-101120790D01*
X111980583Y-101251384D01*
X111982221Y-101316827D01*
X111967140Y-101487290D01*
X111922334Y-101628034D01*
X111848964Y-101737079D01*
X111748192Y-101812446D01*
X111674706Y-101840775D01*
X111584216Y-101860469D01*
X111513252Y-101858913D01*
X111441012Y-101834446D01*
X111410678Y-101819704D01*
X111350996Y-101789648D01*
X111321178Y-101778307D01*
X111310888Y-101784531D01*
X111309794Y-101807174D01*
X111309795Y-101808495D01*
X111296592Y-101830660D01*
X111251701Y-101840755D01*
X111208912Y-101842123D01*
X111108030Y-101842123D01*
X111108030Y-101273663D01*
X111333568Y-101273663D01*
X111333850Y-101386020D01*
X111345621Y-101488987D01*
X111367019Y-101561210D01*
X111422913Y-101634790D01*
X111497525Y-101672157D01*
X111580978Y-101671633D01*
X111663395Y-101631540D01*
X111682948Y-101614886D01*
X111730713Y-101543071D01*
X111759529Y-101443767D01*
X111768864Y-101330363D01*
X111758183Y-101216251D01*
X111726955Y-101114821D01*
X111704466Y-101074508D01*
X111637343Y-101007361D01*
X111559303Y-100977705D01*
X111480352Y-100985052D01*
X111410498Y-101028912D01*
X111367414Y-101090959D01*
X111344761Y-101169461D01*
X111333568Y-101273663D01*
X111108030Y-101273663D01*
X111108030Y-101124735D01*
X111108030Y-100407348D01*
X111208912Y-100407348D01*
X111309795Y-100407348D01*
X111309795Y-100655577D01*
G37*
G36*
X112824815Y-100834088D02*
G01*
X112876373Y-100861302D01*
X112945786Y-100926550D01*
X113003680Y-101024418D01*
X113044537Y-101143093D01*
X113062261Y-101259245D01*
X113069636Y-101382546D01*
X112726105Y-101388744D01*
X112382574Y-101394941D01*
X112397635Y-101467208D01*
X112431925Y-101566163D01*
X112489355Y-101631067D01*
X112554681Y-101662996D01*
X112666233Y-101679200D01*
X112767976Y-101653087D01*
X112844980Y-101596014D01*
X112887121Y-101554960D01*
X112916586Y-101542752D01*
X112951222Y-101555388D01*
X112972207Y-101567500D01*
X113015895Y-101598825D01*
X113035879Y-101624043D01*
X113036009Y-101625410D01*
X113021323Y-101651448D01*
X112983642Y-101696466D01*
X112951434Y-101730207D01*
X112839085Y-101813533D01*
X112710655Y-101855047D01*
X112566452Y-101854670D01*
X112506144Y-101843185D01*
X112394795Y-101794957D01*
X112300221Y-101712078D01*
X112248480Y-101634701D01*
X112216264Y-101542350D01*
X112195356Y-101423389D01*
X112187122Y-101294925D01*
X112189912Y-101236827D01*
X112390598Y-101236827D01*
X112626432Y-101236827D01*
X112862266Y-101236827D01*
X112847712Y-101163967D01*
X112809038Y-101070245D01*
X112739556Y-101007478D01*
X112644480Y-100979928D01*
X112621382Y-100979016D01*
X112525231Y-100995130D01*
X112457446Y-101045048D01*
X112415176Y-101131133D01*
X112409058Y-101154979D01*
X112390598Y-101236827D01*
X112189912Y-101236827D01*
X112192926Y-101174068D01*
X112206080Y-101103130D01*
X112258784Y-100987803D01*
X112342702Y-100896685D01*
X112449547Y-100832766D01*
X112571037Y-100799035D01*
X112698888Y-100798479D01*
X112824815Y-100834088D01*
G37*
G36*
X115056915Y-100823264D02*
G01*
X115165652Y-100877645D01*
X115256330Y-100960942D01*
X115321149Y-101072268D01*
X115333762Y-101108879D01*
X115364352Y-101270201D01*
X115361077Y-101424735D01*
X115326057Y-101565562D01*
X115261414Y-101685763D01*
X115169268Y-101778417D01*
X115118993Y-101809489D01*
X115034763Y-101838534D01*
X114932341Y-101854035D01*
X114833563Y-101853808D01*
X114779351Y-101843468D01*
X114655873Y-101787974D01*
X114564533Y-101709119D01*
X114502970Y-101603004D01*
X114468822Y-101465728D01*
X114461945Y-101353860D01*
X114672777Y-101353860D01*
X114681304Y-101456650D01*
X114700790Y-101542774D01*
X114728595Y-101595845D01*
X114811411Y-101660856D01*
X114903615Y-101682045D01*
X114996145Y-101663335D01*
X115046518Y-101629705D01*
X115094295Y-101576084D01*
X115099571Y-101568057D01*
X115122583Y-101523924D01*
X115135589Y-101474539D01*
X115140467Y-101407078D01*
X115139098Y-101308713D01*
X115138814Y-101300254D01*
X115133934Y-101202035D01*
X115125561Y-101136824D01*
X115110845Y-101092801D01*
X115086935Y-101058141D01*
X115078098Y-101048391D01*
X114997635Y-100991460D01*
X114907719Y-100973457D01*
X114819124Y-100993294D01*
X114742621Y-101049881D01*
X114716312Y-101084944D01*
X114689946Y-101154063D01*
X114675546Y-101248350D01*
X114672777Y-101353860D01*
X114461945Y-101353860D01*
X114459574Y-101315291D01*
X114461309Y-101211590D01*
X114468260Y-101138614D01*
X114483042Y-101082328D01*
X114508275Y-101028695D01*
X114515379Y-101016050D01*
X114597398Y-100912584D01*
X114700362Y-100842457D01*
X114816469Y-100804785D01*
X114937921Y-100798682D01*
X115056915Y-100823264D01*
G37*
G36*
X119071602Y-100824866D02*
G01*
X119175224Y-100891078D01*
X119254800Y-100992582D01*
X119307772Y-101127229D01*
X119328530Y-101248967D01*
X119342051Y-101393756D01*
X118999600Y-101393756D01*
X118657150Y-101393756D01*
X118670334Y-101475000D01*
X118702121Y-101568394D01*
X118765305Y-101632267D01*
X118833943Y-101663696D01*
X118941194Y-101677257D01*
X119041534Y-101648196D01*
X119115189Y-101591447D01*
X119156303Y-101550580D01*
X119184714Y-101539107D01*
X119217550Y-101552949D01*
X119233610Y-101563251D01*
X119274419Y-101600261D01*
X119290731Y-101634684D01*
X119271879Y-101679589D01*
X119222990Y-101732157D01*
X119155563Y-101783170D01*
X119081097Y-101823407D01*
X119035873Y-101839040D01*
X118935393Y-101859130D01*
X118854482Y-101859966D01*
X118771974Y-101841024D01*
X118744960Y-101831841D01*
X118627397Y-101769331D01*
X118540638Y-101676055D01*
X118484088Y-101550954D01*
X118457152Y-101392970D01*
X118454526Y-101315291D01*
X118463385Y-101195730D01*
X118663315Y-101195730D01*
X118679331Y-101220265D01*
X118724314Y-101232366D01*
X118804082Y-101236423D01*
X118887200Y-101236827D01*
X119111384Y-101236827D01*
X119111384Y-101174560D01*
X119091808Y-101088379D01*
X119038828Y-101023280D01*
X118961060Y-100984711D01*
X118867124Y-100978122D01*
X118817047Y-100988445D01*
X118748453Y-101018582D01*
X118707112Y-101066109D01*
X118694907Y-101091808D01*
X118670447Y-101154374D01*
X118663315Y-101195730D01*
X118463385Y-101195730D01*
X118466781Y-101149897D01*
X118504907Y-101019502D01*
X118570943Y-100921126D01*
X118666928Y-100851787D01*
X118794904Y-100808507D01*
X118802449Y-100806918D01*
X118946491Y-100796096D01*
X119071602Y-100824866D01*
G37*
G36*
X109485936Y-100425557D02*
G01*
X109599454Y-100485953D01*
X109622077Y-100504303D01*
X109696546Y-100588468D01*
X109752869Y-100688247D01*
X109782429Y-100787048D01*
X109784854Y-100817711D01*
X109782508Y-100855417D01*
X109766858Y-100872863D01*
X109726159Y-100876260D01*
X109678859Y-100873757D01*
X109614104Y-100867332D01*
X109581460Y-100853516D01*
X109568209Y-100824127D01*
X109564806Y-100800375D01*
X109533356Y-100703953D01*
X109468518Y-100629787D01*
X109378503Y-100583407D01*
X109271522Y-100570343D01*
X109230027Y-100574932D01*
X109143925Y-100599372D01*
X109080847Y-100645246D01*
X109038907Y-100698170D01*
X109024351Y-100725619D01*
X109013930Y-100763887D01*
X109007000Y-100820147D01*
X109002920Y-100901572D01*
X109001047Y-101015332D01*
X109000704Y-101124735D01*
X109001356Y-101267088D01*
X109003738Y-101371790D01*
X109008495Y-101446012D01*
X109016267Y-101496927D01*
X109027697Y-101531707D01*
X109038907Y-101551300D01*
X109097735Y-101620314D01*
X109165376Y-101658731D01*
X109230027Y-101674539D01*
X109341141Y-101674958D01*
X109438274Y-101640050D01*
X109513215Y-101575346D01*
X109557753Y-101486376D01*
X109564806Y-101449096D01*
X109573047Y-101408554D01*
X109594164Y-101387780D01*
X109640875Y-101378590D01*
X109678859Y-101375713D01*
X109742990Y-101373158D01*
X109774179Y-101380479D01*
X109784171Y-101403885D01*
X109784854Y-101431759D01*
X109775137Y-101492238D01*
X109751537Y-101565559D01*
X109742913Y-101585897D01*
X109669115Y-101696873D01*
X109564788Y-101781834D01*
X109438224Y-101837197D01*
X109297718Y-101859381D01*
X109151560Y-101844804D01*
X109146423Y-101843578D01*
X109009647Y-101789683D01*
X108901839Y-101703271D01*
X108826475Y-101587631D01*
X108801265Y-101517057D01*
X108792025Y-101460740D01*
X108784379Y-101371321D01*
X108779061Y-101260522D01*
X108776801Y-101140070D01*
X108776771Y-101124735D01*
X108779164Y-100962281D01*
X108787358Y-100836345D01*
X108802875Y-100738813D01*
X108827237Y-100661571D01*
X108861967Y-100596507D01*
X108880903Y-100569674D01*
X108971633Y-100484482D01*
X109088081Y-100426541D01*
X109219668Y-100396784D01*
X109355813Y-100396145D01*
X109485936Y-100425557D01*
G37*
G36*
X113863986Y-100400951D02*
G01*
X113983446Y-100436779D01*
X114088581Y-100494604D01*
X114172246Y-100572300D01*
X114227297Y-100667743D01*
X114246600Y-100776137D01*
X114244507Y-100825033D01*
X114230093Y-100848186D01*
X114191154Y-100855223D01*
X114145717Y-100855715D01*
X114082807Y-100852862D01*
X114053041Y-100840804D01*
X114044905Y-100814298D01*
X114044835Y-100809765D01*
X114023686Y-100720868D01*
X113963980Y-100646811D01*
X113877381Y-100596974D01*
X113768423Y-100571092D01*
X113668420Y-100575593D01*
X113584126Y-100606315D01*
X113522294Y-100659091D01*
X113489679Y-100729759D01*
X113493034Y-100814153D01*
X113498102Y-100830840D01*
X113509027Y-100854568D01*
X113527956Y-100877392D01*
X113560207Y-100902431D01*
X113611098Y-100932803D01*
X113685944Y-100971629D01*
X113790062Y-101022027D01*
X113928770Y-101087116D01*
X113958722Y-101101051D01*
X114081774Y-101165550D01*
X114167510Y-101230063D01*
X114222846Y-101301961D01*
X114254693Y-101388617D01*
X114261609Y-101424037D01*
X114259500Y-101537112D01*
X114219051Y-101639215D01*
X114146181Y-101726549D01*
X114046807Y-101795317D01*
X113926849Y-101841721D01*
X113792226Y-101861965D01*
X113648856Y-101852251D01*
X113607677Y-101843578D01*
X113473772Y-101792976D01*
X113368590Y-101715923D01*
X113296640Y-101617366D01*
X113262431Y-101502250D01*
X113260192Y-101462484D01*
X113260192Y-101371337D01*
X113361075Y-101371337D01*
X113423091Y-101373226D01*
X113452463Y-101384487D01*
X113461369Y-101413511D01*
X113461957Y-101440834D01*
X113482686Y-101518162D01*
X113538273Y-101588975D01*
X113618818Y-101644098D01*
X113713834Y-101674267D01*
X113834606Y-101677390D01*
X113932514Y-101649676D01*
X114002619Y-101594229D01*
X114039978Y-101514157D01*
X114044835Y-101466161D01*
X114036240Y-101410933D01*
X114006955Y-101361607D01*
X113951725Y-101313942D01*
X113865297Y-101263699D01*
X113742418Y-101206637D01*
X113701823Y-101189306D01*
X113568955Y-101127813D01*
X113459679Y-101066165D01*
X113383888Y-101009950D01*
X113383493Y-101009583D01*
X113336896Y-100964305D01*
X113310106Y-100927036D01*
X113297643Y-100882890D01*
X113294025Y-100816983D01*
X113293820Y-100766042D01*
X113294880Y-100681904D01*
X113301797Y-100627614D01*
X113320176Y-100588184D01*
X113355623Y-100548624D01*
X113385789Y-100520107D01*
X113491103Y-100446698D01*
X113610670Y-100403785D01*
X113737346Y-100389245D01*
X113863986Y-100400951D01*
G37*
G36*
X106552955Y-99677224D02*
G01*
X106615956Y-99704286D01*
X106706053Y-99745748D01*
X106816818Y-99798633D01*
X106941824Y-99859961D01*
X106983276Y-99880629D01*
X107409001Y-100093715D01*
X107409001Y-100616960D01*
X107408728Y-100784933D01*
X107407640Y-100913755D01*
X107405332Y-101009108D01*
X107401399Y-101076676D01*
X107395437Y-101122142D01*
X107387041Y-101151189D01*
X107375805Y-101169501D01*
X107369172Y-101176248D01*
X107337313Y-101196767D01*
X107273549Y-101231642D01*
X107185394Y-101277241D01*
X107080363Y-101329930D01*
X106965969Y-101386076D01*
X106849726Y-101442047D01*
X106739150Y-101494208D01*
X106641753Y-101538927D01*
X106565051Y-101572570D01*
X106516556Y-101591504D01*
X106504511Y-101594328D01*
X106477533Y-101584266D01*
X106416934Y-101556835D01*
X106329029Y-101515049D01*
X106220131Y-101461924D01*
X106096554Y-101400475D01*
X106058295Y-101381237D01*
X105637950Y-101169340D01*
X105637950Y-101135436D01*
X105794461Y-101135436D01*
X106114132Y-101297047D01*
X106223632Y-101351969D01*
X106319122Y-101399037D01*
X106393445Y-101434791D01*
X106439446Y-101455768D01*
X106450616Y-101459835D01*
X106456558Y-101439163D01*
X106461579Y-101381502D01*
X106465270Y-101294693D01*
X106467224Y-101186580D01*
X106467430Y-101135944D01*
X106579521Y-101135944D01*
X106580236Y-101250876D01*
X106582203Y-101347962D01*
X106585154Y-101419322D01*
X106588824Y-101457073D01*
X106590533Y-101461011D01*
X106613300Y-101451506D01*
X106669175Y-101425229D01*
X106751201Y-101385535D01*
X106852420Y-101335780D01*
X106927017Y-101298732D01*
X107252490Y-101136453D01*
X106932819Y-100974842D01*
X106823319Y-100919920D01*
X106727829Y-100872851D01*
X106653505Y-100837098D01*
X106607505Y-100816121D01*
X106596335Y-100812054D01*
X106590393Y-100832726D01*
X106585372Y-100890387D01*
X106581681Y-100977196D01*
X106579727Y-101085309D01*
X106579521Y-101135944D01*
X106467430Y-101135944D01*
X106466715Y-101021013D01*
X106464748Y-100923927D01*
X106461797Y-100852567D01*
X106458127Y-100814816D01*
X106456418Y-100810878D01*
X106433651Y-100820383D01*
X106377776Y-100846660D01*
X106295750Y-100886353D01*
X106194531Y-100936109D01*
X106119934Y-100973157D01*
X105794461Y-101135436D01*
X105637950Y-101135436D01*
X105637950Y-100631531D01*
X105727624Y-100631531D01*
X105728197Y-100764171D01*
X105729792Y-100879962D01*
X105732224Y-100972019D01*
X105735307Y-101033456D01*
X105738856Y-101057387D01*
X105739097Y-101057480D01*
X105761876Y-101047919D01*
X105818084Y-101021374D01*
X105901113Y-100981049D01*
X106004357Y-100930151D01*
X106109000Y-100878001D01*
X106237022Y-100813547D01*
X106330296Y-100765112D01*
X106394308Y-100728925D01*
X106434542Y-100701212D01*
X106456484Y-100678204D01*
X106465618Y-100656128D01*
X106467430Y-100631531D01*
X106467430Y-100631526D01*
X106579521Y-100631526D01*
X106581428Y-100656555D01*
X106590823Y-100678791D01*
X106613219Y-100702062D01*
X106654129Y-100730198D01*
X106719065Y-100767028D01*
X106813539Y-100816383D01*
X106932611Y-100876812D01*
X107047853Y-100934611D01*
X107149275Y-100984730D01*
X107230107Y-101023882D01*
X107283578Y-101048784D01*
X107302513Y-101056297D01*
X107307748Y-101035408D01*
X107312317Y-100976544D01*
X107315951Y-100886565D01*
X107318377Y-100772329D01*
X107319323Y-100640699D01*
X107319327Y-100631531D01*
X107318754Y-100498891D01*
X107317159Y-100383100D01*
X107314727Y-100291044D01*
X107311644Y-100229607D01*
X107308095Y-100205676D01*
X107307854Y-100205583D01*
X107285075Y-100215143D01*
X107228867Y-100241689D01*
X107145838Y-100282013D01*
X107042594Y-100332912D01*
X106937951Y-100385061D01*
X106809929Y-100449516D01*
X106716654Y-100497951D01*
X106652642Y-100534139D01*
X106612408Y-100561851D01*
X106590466Y-100584860D01*
X106581332Y-100606936D01*
X106579521Y-100631526D01*
X106467430Y-100631526D01*
X106465565Y-100606670D01*
X106456314Y-100584605D01*
X106434192Y-100561563D01*
X106393713Y-100533774D01*
X106329393Y-100497466D01*
X106235748Y-100448867D01*
X106109000Y-100385061D01*
X105993219Y-100327392D01*
X105891713Y-100277414D01*
X105811090Y-100238334D01*
X105757954Y-100213356D01*
X105739097Y-100205583D01*
X105735524Y-100226853D01*
X105732405Y-100286074D01*
X105729926Y-100376360D01*
X105728271Y-100490825D01*
X105727626Y-100622584D01*
X105727624Y-100631531D01*
X105637950Y-100631531D01*
X105637950Y-100631527D01*
X105637950Y-100115913D01*
X105817297Y-100115913D01*
X105836103Y-100128875D01*
X105887277Y-100157606D01*
X105962948Y-100198091D01*
X106055248Y-100246315D01*
X106156310Y-100298262D01*
X106258263Y-100349916D01*
X106353239Y-100397264D01*
X106433370Y-100436289D01*
X106490787Y-100462976D01*
X106517621Y-100473310D01*
X106517685Y-100473315D01*
X106542252Y-100464190D01*
X106599998Y-100438088D01*
X106684080Y-100398244D01*
X106787653Y-100347890D01*
X106881984Y-100301196D01*
X106995213Y-100244058D01*
X107093018Y-100193437D01*
X107168915Y-100152794D01*
X107216424Y-100125585D01*
X107229654Y-100115685D01*
X107210589Y-100102299D01*
X107157684Y-100072626D01*
X107077373Y-100030082D01*
X106976090Y-99978086D01*
X106876120Y-99927917D01*
X106522586Y-99752253D01*
X106169941Y-99928141D01*
X106055863Y-99985682D01*
X105957161Y-100036692D01*
X105880273Y-100077746D01*
X105831631Y-100105416D01*
X105817297Y-100115913D01*
X105637950Y-100115913D01*
X105637950Y-100093715D01*
X106063675Y-99880629D01*
X106191847Y-99817250D01*
X106307809Y-99761374D01*
X106405134Y-99715979D01*
X106477397Y-99684042D01*
X106518169Y-99668544D01*
X106523475Y-99667542D01*
X106552955Y-99677224D01*
G37*
D15*
%TO.C,R13*%
X79462776Y-96727500D02*
X79972224Y-96727500D01*
X79462776Y-97772500D02*
X79972224Y-97772500D01*
%TO.C,R15*%
X115657776Y-81802500D02*
X116167224Y-81802500D01*
X115657776Y-82847500D02*
X116167224Y-82847500D01*
D20*
%TO.C,Q1*%
X91937500Y-86264161D02*
X95287500Y-86264161D01*
X91937500Y-89614161D02*
X91937500Y-86264161D01*
X95287500Y-86264161D02*
X95287500Y-89614161D01*
X95287500Y-89614161D02*
X91937500Y-89614161D01*
D21*
X92175721Y-86288161D02*
G75*
G02*
X91696479Y-86288161I-239621J0D01*
G01*
X91696479Y-86288161D02*
G75*
G02*
X92175721Y-86288161I239621J0D01*
G01*
D16*
%TO.C,R5*%
X90300000Y-90500000D02*
X89500000Y-90500000D01*
D18*
%TO.C,5V*%
X88484000Y-84343293D02*
X88484000Y-81549293D01*
X90262000Y-81295293D02*
X88738000Y-81295293D01*
X90262000Y-84597293D02*
X88738000Y-84597293D01*
X90516000Y-81549293D02*
X90516000Y-84343293D01*
X88484000Y-81549293D02*
G75*
G02*
X88738000Y-81295293I254000J0D01*
G01*
X88738000Y-84597293D02*
G75*
G02*
X88484000Y-84343293I0J254000D01*
G01*
X90262000Y-81295293D02*
G75*
G02*
X90516000Y-81549293I0J-254000D01*
G01*
X90516000Y-84343293D02*
G75*
G02*
X90262000Y-84597293I-254000J0D01*
G01*
D15*
%TO.C,R14*%
X125432776Y-96377500D02*
X125942224Y-96377500D01*
X125432776Y-97422500D02*
X125942224Y-97422500D01*
D16*
%TO.C,R3*%
X87957000Y-90499500D02*
X88757000Y-90499500D01*
%TO.C,C2*%
X96142000Y-83550000D02*
X97158000Y-83550000D01*
%TO.C,R8*%
X85875000Y-85075000D02*
X85875000Y-85875000D01*
D18*
%TO.C,2A*%
X82964000Y-101313000D02*
X82964000Y-98519000D01*
X83218000Y-98265000D02*
X84742000Y-98265000D01*
X83218000Y-101567000D02*
X84742000Y-101567000D01*
X84996000Y-98519000D02*
X84996000Y-101313000D01*
X82964000Y-98519000D02*
G75*
G02*
X83218000Y-98265000I254000J0D01*
G01*
X83218000Y-101567000D02*
G75*
G02*
X82964000Y-101313000I0J254000D01*
G01*
X84742000Y-98265000D02*
G75*
G02*
X84996000Y-98519000I0J-254000D01*
G01*
X84996000Y-101313000D02*
G75*
G02*
X84742000Y-101567000I-254000J0D01*
G01*
D15*
%TO.C,R15*%
X103307500Y-91202776D02*
X103307500Y-91712224D01*
X104352500Y-91202776D02*
X104352500Y-91712224D01*
D18*
%TO.C,U1*%
X86095000Y-96571500D02*
X86095000Y-93571500D01*
X89095000Y-96571500D02*
X89095000Y-93571500D01*
D13*
X89206803Y-93241500D02*
G75*
G02*
X88983197Y-93241500I-111803J0D01*
G01*
X88983197Y-93241500D02*
G75*
G02*
X89206803Y-93241500I111803J0D01*
G01*
D12*
%TO.C,Burn2*%
X97144300Y-94670000D02*
X98034300Y-93780000D01*
X97144300Y-97230000D02*
X97144300Y-94670000D01*
X97144300Y-97230000D02*
X98034300Y-98120000D01*
X97894300Y-95050000D02*
X98794300Y-94150000D01*
X97894300Y-96950000D02*
X97894300Y-95050000D01*
X98524300Y-93400000D02*
X100864300Y-93400000D01*
X98524300Y-98500000D02*
X100864300Y-98500000D01*
X98694300Y-97750000D02*
X97894300Y-96950000D01*
X98794300Y-94150000D02*
X100594300Y-94150000D01*
X100594300Y-94150000D02*
X101594300Y-95150000D01*
X100694300Y-97750000D02*
X98694300Y-97750000D01*
X101354300Y-93780000D02*
X102244300Y-94670000D01*
X101354300Y-98120000D02*
X102244300Y-97230000D01*
X101594300Y-95150000D02*
X101594300Y-96850000D01*
X101594300Y-96850000D02*
X100694300Y-97750000D01*
X102244300Y-97230000D02*
X102244300Y-94670000D01*
X97224300Y-99200000D02*
G75*
G02*
X97164300Y-99200000I-30000J0D01*
G01*
X97164300Y-99200000D02*
G75*
G02*
X97224300Y-99200000I30000J0D01*
G01*
X100974300Y-95950000D02*
G75*
G02*
X98414300Y-95950000I-1280000J0D01*
G01*
X98414300Y-95950000D02*
G75*
G02*
X100974300Y-95950000I1280000J0D01*
G01*
%TD*%
%LPC*%
D19*
%TO.C,12V*%
G36*
X85525054Y-84414293D02*
G01*
X83874054Y-84414293D01*
X83874054Y-81493293D01*
X85525054Y-81493293D01*
X85525054Y-84414293D01*
G37*
%TO.C,9V*%
G36*
X87925500Y-84396793D02*
G01*
X86274500Y-84396793D01*
X86274500Y-81475793D01*
X87925500Y-81475793D01*
X87925500Y-84396793D01*
G37*
%TO.C,1A*%
G36*
X90409000Y-101307000D02*
G01*
X88631000Y-101307000D01*
X88631000Y-98513000D01*
X90409000Y-98513000D01*
X90409000Y-101307000D01*
G37*
%TO.C,5V*%
G36*
X90389000Y-84343293D02*
G01*
X88611000Y-84343293D01*
X88611000Y-81549293D01*
X90389000Y-81549293D01*
X90389000Y-84343293D01*
G37*
%TO.C,2A*%
G36*
X84805500Y-101376500D02*
G01*
X83154500Y-101376500D01*
X83154500Y-98455500D01*
X84805500Y-98455500D01*
X84805500Y-101376500D01*
G37*
%TD*%
D22*
%TO.C,REF\u002A\u002A*%
X120570000Y-88400000D03*
X120570000Y-94500000D03*
%TD*%
D23*
%TO.C,C4*%
X92500000Y-84500000D03*
X92500000Y-82600000D03*
%TD*%
D24*
%TO.C,R11*%
X78744421Y-85700000D03*
X80569421Y-85700000D03*
%TD*%
D25*
%TO.C,H3*%
X80094400Y-100371200D03*
%TD*%
D26*
%TO.C,R2*%
X122039590Y-85075357D03*
X122039590Y-87615357D03*
D27*
X122039590Y-95235357D03*
X122039590Y-97775357D03*
%TD*%
D28*
%TO.C,R18*%
X85870000Y-100720000D03*
X87570000Y-100720000D03*
%TD*%
%TO.C,R7*%
X88220000Y-85470000D03*
X89920000Y-85470000D03*
%TD*%
D29*
%TO.C,X1*%
X82590400Y-88613000D03*
X82590400Y-94393000D03*
D30*
X83665400Y-88303000D03*
X83665400Y-89103000D03*
D31*
X83665400Y-90253000D03*
X83665400Y-91253000D03*
X83665400Y-91753000D03*
X83665400Y-92753000D03*
D30*
X83665400Y-94703000D03*
X83665400Y-93903000D03*
D31*
X83665400Y-93253000D03*
X83665400Y-92253000D03*
X83665400Y-90753000D03*
X83665400Y-89753000D03*
D32*
X83090400Y-87183000D03*
X78910400Y-87183000D03*
X83090400Y-95823000D03*
X78910400Y-95823000D03*
%TD*%
D33*
%TO.C,R20*%
X93950000Y-90475000D03*
X93950000Y-92300000D03*
%TD*%
D34*
%TO.C,D3*%
X120350000Y-82325000D03*
X118600000Y-82325000D03*
%TD*%
D35*
%TO.C,J2*%
X86118200Y-99020000D03*
D36*
X87118200Y-99020000D03*
%TD*%
D33*
%TO.C,R16*%
X109190000Y-90556086D03*
X109190000Y-92381086D03*
%TD*%
D37*
%TO.C,D2*%
X107460000Y-90589293D03*
X107460000Y-92339293D03*
%TD*%
%TO.C,D1*%
X105670000Y-90567500D03*
X105670000Y-92317500D03*
%TD*%
D26*
%TO.C,R1*%
X114980000Y-85089000D03*
X114980000Y-87639000D03*
D27*
X114980000Y-95259000D03*
X114980000Y-97809000D03*
%TD*%
D38*
%TO.C,J1*%
X108760000Y-85205000D03*
X107510000Y-85205000D03*
X106260000Y-85205000D03*
X105010000Y-85205000D03*
X103760000Y-85205000D03*
X102510000Y-85205000D03*
D39*
X111310000Y-82305000D03*
X99960000Y-82305000D03*
%TD*%
D40*
%TO.C,p*%
X109380000Y-86890000D03*
X107880000Y-86890000D03*
X106380000Y-86890000D03*
X104880000Y-86890000D03*
X103380000Y-86890000D03*
X101880000Y-86890000D03*
D41*
X111985000Y-81700000D03*
X99275000Y-81700000D03*
%TD*%
D42*
%TO.C,R19*%
X99700000Y-92300000D03*
X99700000Y-90475000D03*
%TD*%
D25*
%TO.C,H4*%
X125800000Y-100360000D03*
%TD*%
D23*
%TO.C,C1*%
X86750000Y-91025000D03*
X86750000Y-89125000D03*
%TD*%
D22*
%TO.C,REF\u002A\u002A*%
X116492910Y-88384643D03*
X116492910Y-94484643D03*
%TD*%
D43*
%TO.C,R4*%
X89950000Y-94525000D03*
X89950000Y-92825000D03*
%TD*%
D25*
%TO.C,H2*%
X125825000Y-82625000D03*
%TD*%
D44*
%TO.C,Burn1*%
X92104500Y-99250000D03*
X92104500Y-92650000D03*
X95804500Y-99250000D03*
X95804500Y-92650000D03*
%TD*%
D23*
%TO.C,C3*%
X94580000Y-84500000D03*
X94580000Y-82600000D03*
%TD*%
D24*
%TO.C,R12*%
X124775000Y-86100000D03*
X126600000Y-86100000D03*
%TD*%
%TO.C,R13*%
X78805000Y-97250000D03*
X80630000Y-97250000D03*
%TD*%
%TO.C,R15*%
X115000000Y-82325000D03*
X116825000Y-82325000D03*
%TD*%
D45*
%TO.C,Q1*%
X91912500Y-86964161D03*
X91912500Y-87614161D03*
X91912500Y-88264161D03*
X91912500Y-88914161D03*
D46*
X94362500Y-87939161D03*
%TD*%
D47*
%TO.C,R5*%
X89900000Y-89650000D03*
X89900000Y-91350000D03*
%TD*%
D24*
%TO.C,R14*%
X124775000Y-96900000D03*
X126600000Y-96900000D03*
%TD*%
D25*
%TO.C,H1*%
X80154400Y-82651200D03*
%TD*%
D43*
%TO.C,R3*%
X88357000Y-91349500D03*
X88357000Y-89649500D03*
%TD*%
D23*
%TO.C,C2*%
X96650000Y-84500000D03*
X96650000Y-82600000D03*
%TD*%
D28*
%TO.C,R8*%
X85025000Y-85475000D03*
X86725000Y-85475000D03*
%TD*%
D33*
%TO.C,R15*%
X103830000Y-90545000D03*
X103830000Y-92370000D03*
%TD*%
D48*
%TO.C,U1*%
X88595000Y-93571500D03*
X88095000Y-93571500D03*
X87595000Y-93571500D03*
X87095000Y-93571500D03*
X86595000Y-93571500D03*
X86595000Y-96571500D03*
X87095000Y-96571500D03*
X87595000Y-96571500D03*
X88095000Y-96571500D03*
X88595000Y-96571500D03*
D49*
X87595000Y-95071500D03*
%TD*%
D44*
%TO.C,Burn2*%
X97844300Y-99250000D03*
X97844300Y-92650000D03*
X101544300Y-99250000D03*
X101544300Y-92650000D03*
%TD*%
%LPD*%
M02*
