%TF.GenerationSoftware,KiCad,Pcbnew,10.0.0*%
%TF.CreationDate,2026-06-13T21:44:01-06:00*%
%TF.ProjectId,Burnwing,4275726e-7769-46e6-972e-6b696361645f,Rev 1*%
%TF.SameCoordinates,Original*%
%TF.FileFunction,Profile,NP*%
%FSLAX46Y46*%
G04 Gerber Fmt 4.6, Leading zero omitted, Abs format (unit mm)*
G04 Created by KiCad (PCBNEW 10.0.0) date 2026-06-13 21:44:01*
%MOMM*%
%LPD*%
G01*
G04 APERTURE LIST*
%TA.AperFunction,Profile*%
%ADD10C,0.200000*%
%TD*%
%TA.AperFunction,Profile*%
%ADD11C,0.100000*%
%TD*%
G04 APERTURE END LIST*
D10*
X77554400Y-82576300D02*
G75*
G02*
X80113946Y-80036174I2540200J0D01*
G01*
X77554401Y-100371200D02*
X77554400Y-82576300D01*
X80094400Y-102911199D02*
G75*
G02*
X77554401Y-100371200I0J2539999D01*
G01*
X80094400Y-102911199D02*
X101923668Y-102901162D01*
X80113946Y-80036174D02*
X103178112Y-80001891D01*
X103178112Y-80001891D02*
G75*
G02*
X104450010Y-81271889I1888J-1270009D01*
G01*
X104450000Y-89300000D02*
X104462500Y-87800000D01*
X104462500Y-83800000D02*
X104450000Y-81271889D01*
X104462500Y-94900000D02*
X104450000Y-93300000D01*
X104462500Y-98900000D02*
X104462500Y-100361163D01*
X104462500Y-100361163D02*
G75*
G02*
X101923668Y-102901100I-2539900J-37D01*
G01*
X106450000Y-89300000D02*
X106462500Y-87800000D01*
X106456286Y-82538855D02*
G75*
G02*
X108982592Y-79986291I2539914J12655D01*
G01*
X106462500Y-83800000D02*
X106456286Y-82538855D01*
X106462500Y-94900000D02*
X106450000Y-93300000D01*
X106462500Y-98900000D02*
X106462500Y-100345959D01*
X108982592Y-79986376D02*
X112782070Y-79958353D01*
X109016434Y-102885921D02*
G75*
G02*
X106462541Y-100345959I-13934J2539921D01*
G01*
X109016434Y-102885921D02*
X112814425Y-102868377D01*
X112782070Y-79958353D02*
G75*
G02*
X115167840Y-81590297I13630J-2539947D01*
G01*
X115167878Y-81590282D02*
X116279249Y-84488875D01*
X115173280Y-101234764D02*
G75*
G02*
X112814425Y-102868358I-2372780J906364D01*
G01*
X115173280Y-101234764D02*
X116279438Y-98338883D01*
X116279438Y-98338883D02*
G75*
G02*
X118650890Y-98335568I1186362J-453217D01*
G01*
X118651138Y-84489545D02*
G75*
G02*
X116279211Y-84488890I-1185838J454745D01*
G01*
X119760186Y-81592422D02*
X118651138Y-84489545D01*
X119760186Y-81592422D02*
G75*
G02*
X122131819Y-79961815I2371614J-909378D01*
G01*
X119772060Y-101245978D02*
X118650948Y-98335546D01*
X122142289Y-102872954D02*
G75*
G02*
X119772037Y-101245987I11J2540054D01*
G01*
X125831252Y-79972973D02*
X122131819Y-79961796D01*
X125831252Y-79972973D02*
G75*
G02*
X128371327Y-82512725I48J-2540027D01*
G01*
X125833064Y-102872954D02*
X122142289Y-102872954D01*
X128371271Y-82702971D02*
X128371252Y-82512725D01*
X128373045Y-100142952D02*
G75*
G02*
X129642919Y-98872845I1269955J152D01*
G01*
X128373064Y-100332706D02*
G75*
G02*
X125833064Y-102872964I-2539964J-294D01*
G01*
X128373064Y-100332706D02*
X128373045Y-100142952D01*
X129641397Y-83972847D02*
G75*
G02*
X128371253Y-82702971I-97J1270047D01*
G01*
X130179241Y-83950139D02*
X129641397Y-83972847D01*
X130179241Y-83950139D02*
G75*
G02*
X131449361Y-85220009I59J-1270061D01*
G01*
X130180759Y-98850120D02*
X129642919Y-98872828D01*
X131450633Y-97579990D02*
G75*
G02*
X130180759Y-98850033I-1269933J-110D01*
G01*
X131450633Y-97579990D02*
X131449367Y-85220009D01*
%TO.C,REF\u002A\u002A*%
D11*
X104450000Y-93300000D02*
G75*
G02*
X106450000Y-93300000I1000000J0D01*
G01*
X106450000Y-89300000D02*
G75*
G02*
X104450000Y-89300000I-1000000J0D01*
G01*
X104462500Y-87800000D02*
G75*
G02*
X106462500Y-87800000I1000000J0D01*
G01*
X106462500Y-83800000D02*
G75*
G02*
X104462500Y-83800000I-1000000J0D01*
G01*
X104462500Y-98900000D02*
G75*
G02*
X106462500Y-98900000I1000000J0D01*
G01*
X106462500Y-94900000D02*
G75*
G02*
X104462500Y-94900000I-1000000J0D01*
G01*
%TD*%
M02*
