%TF.GenerationSoftware,KiCad,Pcbnew,9.0.0*%
%TF.CreationDate,2025-07-16T19:02:16-06:00*%
%TF.ProjectId,Burnwing,4275726e-7769-46e6-972e-6b696361645f,Rev 1*%
%TF.SameCoordinates,Original*%
%TF.FileFunction,Copper,L1,Top*%
%TF.FilePolarity,Positive*%
%FSLAX46Y46*%
G04 Gerber Fmt 4.6, Leading zero omitted, Abs format (unit mm)*
G04 Created by KiCad (PCBNEW 9.0.0) date 2025-07-16 19:02:16*
%MOMM*%
%LPD*%
G01*
G04 APERTURE LIST*
G04 Aperture macros list*
%AMRoundRect*
0 Rectangle with rounded corners*
0 $1 Rounding radius*
0 $2 $3 $4 $5 $6 $7 $8 $9 X,Y pos of 4 corners*
0 Add a 4 corners polygon primitive as box body*
4,1,4,$2,$3,$4,$5,$6,$7,$8,$9,$2,$3,0*
0 Add four circle primitives for the rounded corners*
1,1,$1+$1,$2,$3*
1,1,$1+$1,$4,$5*
1,1,$1+$1,$6,$7*
1,1,$1+$1,$8,$9*
0 Add four rect primitives between the rounded corners*
20,1,$1+$1,$2,$3,$4,$5,0*
20,1,$1+$1,$4,$5,$6,$7,0*
20,1,$1+$1,$6,$7,$8,$9,0*
20,1,$1+$1,$8,$9,$2,$3,0*%
%AMFreePoly0*
4,1,10,1.122121,-0.002663,0.336584,-0.788200,-0.378600,-0.788200,-0.378600,-0.583565,-0.381000,-0.571500,-0.381000,0.571500,-0.378600,0.583565,-0.378600,0.788200,0.388850,0.788200,1.122121,-0.002663,1.122121,-0.002663,$1*%
%AMFreePoly1*
4,1,10,0.378600,0.583565,0.381000,0.571500,0.381000,-0.571500,0.378600,-0.583565,0.378600,-0.788200,-1.331893,-0.788200,-0.572852,0.000000,-1.331893,0.788200,0.378600,0.788200,0.378600,0.583565,0.378600,0.583565,$1*%
G04 Aperture macros list end*
%TA.AperFunction,SMDPad,CuDef*%
%ADD10RoundRect,0.303571X-1.371429X0.546429X-1.371429X-0.546429X1.371429X-0.546429X1.371429X0.546429X0*%
%TD*%
%TA.AperFunction,SMDPad,CuDef*%
%ADD11R,1.500000X1.240000*%
%TD*%
%TA.AperFunction,SMDPad,CuDef*%
%ADD12RoundRect,0.237500X-0.250000X-0.237500X0.250000X-0.237500X0.250000X0.237500X-0.250000X0.237500X0*%
%TD*%
%TA.AperFunction,ComponentPad*%
%ADD13C,4.400000*%
%TD*%
%TA.AperFunction,ComponentPad*%
%ADD14C,1.600000*%
%TD*%
%TA.AperFunction,ComponentPad*%
%ADD15O,1.600000X1.600000*%
%TD*%
%TA.AperFunction,SMDPad,CuDef*%
%ADD16R,1.075000X1.000000*%
%TD*%
%TA.AperFunction,SMDPad,CuDef*%
%ADD17R,1.150000X0.575000*%
%TD*%
%TA.AperFunction,SMDPad,CuDef*%
%ADD18R,1.150000X0.275000*%
%TD*%
%TA.AperFunction,ComponentPad*%
%ADD19O,2.000000X1.000000*%
%TD*%
%TA.AperFunction,SMDPad,CuDef*%
%ADD20RoundRect,0.237500X-0.237500X0.250000X-0.237500X-0.250000X0.237500X-0.250000X0.237500X0.250000X0*%
%TD*%
%TA.AperFunction,SMDPad,CuDef*%
%ADD21RoundRect,0.237500X0.287500X0.237500X-0.287500X0.237500X-0.287500X-0.237500X0.287500X-0.237500X0*%
%TD*%
%TA.AperFunction,ComponentPad*%
%ADD22R,0.850000X0.850000*%
%TD*%
%TA.AperFunction,ComponentPad*%
%ADD23O,0.850000X0.850000*%
%TD*%
%TA.AperFunction,SMDPad,CuDef*%
%ADD24FreePoly0,90.000000*%
%TD*%
%TA.AperFunction,SMDPad,CuDef*%
%ADD25FreePoly1,90.000000*%
%TD*%
%TA.AperFunction,SMDPad,CuDef*%
%ADD26RoundRect,0.237500X-0.237500X0.287500X-0.237500X-0.287500X0.237500X-0.287500X0.237500X0.287500X0*%
%TD*%
%TA.AperFunction,SMDPad,CuDef*%
%ADD27RoundRect,0.200000X0.200000X0.600000X-0.200000X0.600000X-0.200000X-0.600000X0.200000X-0.600000X0*%
%TD*%
%TA.AperFunction,SMDPad,CuDef*%
%ADD28RoundRect,0.250001X0.799999X1.249999X-0.799999X1.249999X-0.799999X-1.249999X0.799999X-1.249999X0*%
%TD*%
%TA.AperFunction,SMDPad,CuDef*%
%ADD29RoundRect,0.150000X0.150000X0.350000X-0.150000X0.350000X-0.150000X-0.350000X0.150000X-0.350000X0*%
%TD*%
%TA.AperFunction,SMDPad,CuDef*%
%ADD30RoundRect,0.250000X0.375000X0.650000X-0.375000X0.650000X-0.375000X-0.650000X0.375000X-0.650000X0*%
%TD*%
%TA.AperFunction,SMDPad,CuDef*%
%ADD31RoundRect,0.237500X0.237500X-0.250000X0.237500X0.250000X-0.237500X0.250000X-0.237500X-0.250000X0*%
%TD*%
%TA.AperFunction,SMDPad,CuDef*%
%ADD32R,1.600200X1.168400*%
%TD*%
%TA.AperFunction,SMDPad,CuDef*%
%ADD33R,0.203200X0.635000*%
%TD*%
%TA.AperFunction,SMDPad,CuDef*%
%ADD34R,1.000000X1.075000*%
%TD*%
%TA.AperFunction,SMDPad,CuDef*%
%ADD35RoundRect,0.250000X0.250000X-0.600000X0.250000X0.600000X-0.250000X0.600000X-0.250000X-0.600000X0*%
%TD*%
%TA.AperFunction,SMDPad,CuDef*%
%ADD36R,0.700000X0.420000*%
%TD*%
%TA.AperFunction,SMDPad,CuDef*%
%ADD37R,2.250000X2.350000*%
%TD*%
%TA.AperFunction,SMDPad,CuDef*%
%ADD38FreePoly0,270.000000*%
%TD*%
%TA.AperFunction,SMDPad,CuDef*%
%ADD39FreePoly1,270.000000*%
%TD*%
%TA.AperFunction,SMDPad,CuDef*%
%ADD40RoundRect,0.025000X0.100000X0.375000X-0.100000X0.375000X-0.100000X-0.375000X0.100000X-0.375000X0*%
%TD*%
%TA.AperFunction,SMDPad,CuDef*%
%ADD41RoundRect,0.158000X1.017000X0.632000X-1.017000X0.632000X-1.017000X-0.632000X1.017000X-0.632000X0*%
%TD*%
%TA.AperFunction,ViaPad*%
%ADD42C,0.600000*%
%TD*%
%TA.AperFunction,ViaPad*%
%ADD43C,0.906400*%
%TD*%
%TA.AperFunction,ViaPad*%
%ADD44C,0.800100*%
%TD*%
%TA.AperFunction,Conductor*%
%ADD45C,0.800000*%
%TD*%
%TA.AperFunction,Conductor*%
%ADD46C,0.200000*%
%TD*%
%TA.AperFunction,Conductor*%
%ADD47C,0.406400*%
%TD*%
%TA.AperFunction,Conductor*%
%ADD48C,0.254000*%
%TD*%
%TA.AperFunction,Conductor*%
%ADD49C,0.203200*%
%TD*%
%TA.AperFunction,Conductor*%
%ADD50C,1.200000*%
%TD*%
%TA.AperFunction,Conductor*%
%ADD51C,1.000000*%
%TD*%
G04 APERTURE END LIST*
D10*
%TO.P,REF\u002A\u002A,1*%
%TO.N,VDC*%
X120570000Y-88400000D03*
%TO.P,REF\u002A\u002A,2*%
%TO.N,Net-(Q2-DRAIN2-Pad5)*%
X120570000Y-94500000D03*
%TD*%
D11*
%TO.P,C4,1*%
%TO.N,VDC*%
X92500000Y-84500000D03*
%TO.P,C4,2*%
%TO.N,GND*%
X92500000Y-82600000D03*
%TD*%
D12*
%TO.P,R11,1*%
%TO.N,Net-(H1-Pad1)*%
X78744421Y-85700000D03*
%TO.P,R11,2*%
%TO.N,GND*%
X80569421Y-85700000D03*
%TD*%
D13*
%TO.P,H3,1,1*%
%TO.N,Net-(H3-Pad1)*%
X80094400Y-100371200D03*
%TD*%
D14*
%TO.P,R2,1*%
%TO.N,VDC*%
X122039590Y-85075357D03*
X122039590Y-87615357D03*
D15*
%TO.P,R2,2*%
%TO.N,Net-(Q2-DRAIN2-Pad5)*%
X122039590Y-95235357D03*
X122039590Y-97775357D03*
%TD*%
D16*
%TO.P,R18,1*%
%TO.N,N$10*%
X85870000Y-100720000D03*
%TO.P,R18,2*%
%TO.N,N$9*%
X87570000Y-100720000D03*
%TD*%
%TO.P,R7,1*%
%TO.N,N$5*%
X88220000Y-85470000D03*
%TO.P,R7,2*%
%TO.N,N$3*%
X89920000Y-85470000D03*
%TD*%
D17*
%TO.P,X1,A1B12*%
%TO.N,GND*%
X83665400Y-88303000D03*
%TO.P,X1,A4B9*%
%TO.N,VBUS*%
X83665400Y-89103000D03*
D18*
%TO.P,X1,A5*%
%TO.N,CC1*%
X83665400Y-90253000D03*
%TO.P,X1,A6*%
%TO.N,D+*%
X83665400Y-91253000D03*
%TO.P,X1,A7*%
%TO.N,D-*%
X83665400Y-91753000D03*
%TO.P,X1,A8*%
%TO.N,N/C*%
X83665400Y-92753000D03*
D17*
%TO.P,X1,B1A12*%
%TO.N,GND*%
X83665400Y-94703000D03*
%TO.P,X1,B4A9*%
%TO.N,VBUS*%
X83665400Y-93903000D03*
D18*
%TO.P,X1,B5*%
%TO.N,CC2*%
X83665400Y-93253000D03*
%TO.P,X1,B6*%
%TO.N,D+*%
X83665400Y-92253000D03*
%TO.P,X1,B7*%
%TO.N,D-*%
X83665400Y-90753000D03*
%TO.P,X1,B8*%
%TO.N,N/C*%
X83665400Y-89753000D03*
D19*
%TO.P,X1,MP*%
%TO.N,GND*%
X83090400Y-87183000D03*
X78910400Y-87183000D03*
X83090400Y-95823000D03*
X78910400Y-95823000D03*
%TD*%
D20*
%TO.P,R20,1*%
%TO.N,VDC*%
X93950000Y-90475000D03*
%TO.P,R20,2*%
X93950000Y-92300000D03*
%TD*%
D21*
%TO.P,D3,1,K*%
%TO.N,GND*%
X120350000Y-82325000D03*
%TO.P,D3,2,A*%
%TO.N,Net-(D5-A)*%
X118600000Y-82325000D03*
%TD*%
D22*
%TO.P,J2,1*%
%TO.N,SDA*%
X86118200Y-99020000D03*
D23*
%TO.P,J2,2*%
%TO.N,SCL*%
X87118200Y-99020000D03*
%TD*%
D24*
%TO.P,12V,1*%
%TO.N,N$6*%
X84699554Y-83969793D03*
D25*
%TO.P,12V,2*%
%TO.N,GND*%
X84699554Y-81937793D03*
%TD*%
D20*
%TO.P,R16,1*%
%TO.N,BURN_CTRL_2*%
X109190000Y-90556086D03*
%TO.P,R16,2*%
%TO.N,GND*%
X109190000Y-92381086D03*
%TD*%
D26*
%TO.P,D2,1,K*%
%TO.N,BURN_CTRL_2*%
X107460000Y-90589293D03*
%TO.P,D2,2,A*%
X107460000Y-92339293D03*
%TD*%
%TO.P,D1,1,K*%
%TO.N,BURN_CTRL_1*%
X105670000Y-90567500D03*
%TO.P,D1,2,A*%
X105670000Y-92317500D03*
%TD*%
D24*
%TO.P,9V,1*%
%TO.N,N$5*%
X87100000Y-83952293D03*
D25*
%TO.P,9V,2*%
%TO.N,GND*%
X87100000Y-81920293D03*
%TD*%
D14*
%TO.P,R1,1*%
%TO.N,VDC*%
X114980000Y-85089000D03*
X114980000Y-87639000D03*
D15*
%TO.P,R1,2*%
%TO.N,Net-(Q2-DRAIN1-Pad7)*%
X114980000Y-95259000D03*
X114980000Y-97809000D03*
%TD*%
D27*
%TO.P,J1,1,Pin_1*%
%TO.N,VDC*%
X108760000Y-85205000D03*
%TO.P,J1,2,Pin_2*%
%TO.N,BURN_CTRL_1*%
X107510000Y-85205000D03*
%TO.P,J1,3,Pin_3*%
%TO.N,GND*%
X106260000Y-85205000D03*
%TO.P,J1,4,Pin_4*%
%TO.N,BURN_CTRL_2*%
X105010000Y-85205000D03*
%TO.P,J1,5,Pin_5*%
%TO.N,VDC*%
X103760000Y-85205000D03*
%TO.P,J1,6,Pin_6*%
%TO.N,GND*%
X102510000Y-85205000D03*
D28*
%TO.P,J1,MP,MountPin*%
X111310000Y-82305000D03*
X99960000Y-82305000D03*
%TD*%
D29*
%TO.P,p,1*%
%TO.N,VDC*%
X109380000Y-86890000D03*
%TO.P,p,2*%
%TO.N,BURN_CTRL_1*%
X107880000Y-86890000D03*
%TO.P,p,3*%
%TO.N,GND*%
X106380000Y-86890000D03*
%TO.P,p,4*%
%TO.N,BURN_CTRL_2*%
X104880000Y-86890000D03*
%TO.P,p,5*%
%TO.N,VDC*%
X103380000Y-86890000D03*
%TO.P,p,6*%
%TO.N,GND*%
X101880000Y-86890000D03*
D30*
%TO.P,p,MP*%
X111985000Y-81700000D03*
X99275000Y-81700000D03*
%TD*%
D31*
%TO.P,R19,1*%
%TO.N,VDC*%
X99700000Y-92300000D03*
%TO.P,R19,2*%
X99700000Y-90475000D03*
%TD*%
D13*
%TO.P,H4,1,1*%
%TO.N,Net-(H4-Pad1)*%
X125800000Y-100360000D03*
%TD*%
D32*
%TO.P,1A,1*%
%TO.N,GND*%
X89520000Y-100672000D03*
%TO.P,1A,2*%
%TO.N,N$9*%
X89520000Y-99148000D03*
D33*
%TO.P,1A,WIRE*%
%TO.N,N/C*%
X89520000Y-99910000D03*
%TD*%
D11*
%TO.P,C1,1*%
%TO.N,N$1*%
X86750000Y-91025000D03*
%TO.P,C1,2*%
%TO.N,GND*%
X86750000Y-89125000D03*
%TD*%
D10*
%TO.P,REF\u002A\u002A,1*%
%TO.N,VDC*%
X116492910Y-88384643D03*
%TO.P,REF\u002A\u002A,2*%
%TO.N,Net-(Q2-DRAIN1-Pad7)*%
X116492910Y-94484643D03*
%TD*%
D34*
%TO.P,R4,1*%
%TO.N,N$4*%
X89950000Y-94525000D03*
%TO.P,R4,2*%
%TO.N,N$2*%
X89950000Y-92825000D03*
%TD*%
D13*
%TO.P,H2,1,1*%
%TO.N,Net-(H2-Pad1)*%
X125825000Y-82625000D03*
%TD*%
D35*
%TO.P,Burn1,1,A*%
%TO.N,VDC*%
X92104500Y-99250000D03*
%TO.P,Burn1,2,B*%
X92104500Y-92650000D03*
%TO.P,Burn1,3,C*%
%TO.N,BURN_CTRL_1*%
X95804500Y-99250000D03*
%TO.P,Burn1,4,D*%
X95804500Y-92650000D03*
%TD*%
D11*
%TO.P,C3,1*%
%TO.N,VDC*%
X94580000Y-84500000D03*
%TO.P,C3,2*%
%TO.N,GND*%
X94580000Y-82600000D03*
%TD*%
D12*
%TO.P,R12,1*%
%TO.N,Net-(H2-Pad1)*%
X124775000Y-86100000D03*
%TO.P,R12,2*%
%TO.N,GND*%
X126600000Y-86100000D03*
%TD*%
%TO.P,R13,1*%
%TO.N,Net-(H3-Pad1)*%
X78805000Y-97250000D03*
%TO.P,R13,2*%
%TO.N,GND*%
X80630000Y-97250000D03*
%TD*%
%TO.P,R15,1*%
%TO.N,VDC*%
X115000000Y-82325000D03*
%TO.P,R15,2*%
%TO.N,Net-(D5-A)*%
X116825000Y-82325000D03*
%TD*%
D36*
%TO.P,Q1,1*%
%TO.N,VBUS*%
X91912500Y-86964161D03*
%TO.P,Q1,2*%
X91912500Y-87614161D03*
%TO.P,Q1,3*%
X91912500Y-88264161D03*
%TO.P,Q1,4*%
%TO.N,N$2*%
X91912500Y-88914161D03*
D37*
%TO.P,Q1,5678*%
%TO.N,VDC*%
X94362500Y-87939161D03*
%TD*%
D34*
%TO.P,R5,1*%
%TO.N,VBUS*%
X89900000Y-89650000D03*
%TO.P,R5,2*%
%TO.N,N$2*%
X89900000Y-91350000D03*
%TD*%
D32*
%TO.P,5V,1*%
%TO.N,N$3*%
X89500000Y-83708293D03*
%TO.P,5V,2*%
%TO.N,GND*%
X89500000Y-82184293D03*
D33*
%TO.P,5V,WIRE*%
%TO.N,N/C*%
X89500000Y-82946293D03*
%TD*%
D12*
%TO.P,R14,1*%
%TO.N,Net-(H4-Pad1)*%
X124775000Y-96900000D03*
%TO.P,R14,2*%
%TO.N,GND*%
X126600000Y-96900000D03*
%TD*%
D13*
%TO.P,H1,1,1*%
%TO.N,Net-(H1-Pad1)*%
X80154400Y-82651200D03*
%TD*%
D34*
%TO.P,R3,1*%
%TO.N,N$1*%
X88357000Y-91349500D03*
%TO.P,R3,2*%
%TO.N,VBUS*%
X88357000Y-89649500D03*
%TD*%
D11*
%TO.P,C2,1*%
%TO.N,VDC*%
X96650000Y-84500000D03*
%TO.P,C2,2*%
%TO.N,GND*%
X96650000Y-82600000D03*
%TD*%
D16*
%TO.P,R8,1*%
%TO.N,N$6*%
X85025000Y-85475000D03*
%TO.P,R8,2*%
%TO.N,N$3*%
X86725000Y-85475000D03*
%TD*%
D38*
%TO.P,2A,1*%
%TO.N,GND*%
X83980000Y-98900000D03*
D39*
%TO.P,2A,2*%
%TO.N,N$10*%
X83980000Y-100932000D03*
%TD*%
D20*
%TO.P,R15,1*%
%TO.N,BURN_CTRL_1*%
X103830000Y-90545000D03*
%TO.P,R15,2*%
%TO.N,GND*%
X103830000Y-92370000D03*
%TD*%
D40*
%TO.P,U1,1*%
%TO.N,N$1*%
X88595000Y-93571500D03*
%TO.P,U1,2*%
%TO.N,D+*%
X88095000Y-93571500D03*
%TO.P,U1,3*%
%TO.N,D-*%
X87595000Y-93571500D03*
%TO.P,U1,4*%
%TO.N,CC1*%
X87095000Y-93571500D03*
%TO.P,U1,5*%
%TO.N,CC2*%
X86595000Y-93571500D03*
%TO.P,U1,6*%
%TO.N,SDA*%
X86595000Y-96571500D03*
%TO.P,U1,7*%
%TO.N,SCL*%
X87095000Y-96571500D03*
%TO.P,U1,8*%
%TO.N,N$3*%
X87595000Y-96571500D03*
%TO.P,U1,9*%
%TO.N,N$9*%
X88095000Y-96571500D03*
%TO.P,U1,10*%
%TO.N,N$4*%
X88595000Y-96571500D03*
D41*
%TO.P,U1,GND*%
%TO.N,GND*%
X87595000Y-95071500D03*
%TD*%
D35*
%TO.P,Burn2,1,A*%
%TO.N,VDC*%
X97844300Y-99250000D03*
%TO.P,Burn2,2,B*%
X97844300Y-92650000D03*
%TO.P,Burn2,3,C*%
%TO.N,BURN_CTRL_2*%
X101544300Y-99250000D03*
%TO.P,Burn2,4,D*%
X101544300Y-92650000D03*
%TD*%
D42*
%TO.N,GND*%
X103800000Y-81675000D03*
D43*
X78786900Y-94043000D03*
D42*
X127400000Y-87500000D03*
X102550000Y-81675000D03*
X105050000Y-81675000D03*
X106250000Y-81675000D03*
X124200000Y-95400000D03*
X127400000Y-95400000D03*
X85230000Y-95830000D03*
X107550000Y-81675000D03*
D43*
X78800000Y-89000000D03*
D42*
X108800000Y-81675000D03*
X84010000Y-97330000D03*
X100000000Y-84800000D03*
D43*
X87595000Y-95071500D03*
D42*
X124200000Y-87500000D03*
%TO.N,N$3*%
X89900000Y-86920000D03*
X88265735Y-98034265D03*
D44*
%TO.N,CC1*%
X85460250Y-93171563D03*
X85260062Y-90939938D03*
%TO.N,D-*%
X82300000Y-90563850D03*
X82261000Y-91970350D03*
D43*
%TO.N,VBUS*%
X88357000Y-88389415D03*
X85245500Y-89039000D03*
%TD*%
D45*
%TO.N,GND*%
X101880000Y-86890000D02*
X101880000Y-85835000D01*
X101880000Y-85835000D02*
X102510000Y-85205000D01*
D46*
X83665400Y-94703000D02*
X83665400Y-95248000D01*
X83665400Y-87758000D02*
X83090400Y-87183000D01*
D47*
X83665400Y-88303000D02*
X83786800Y-88181600D01*
D46*
X83665400Y-95248000D02*
X83090400Y-95823000D01*
X83665400Y-88303000D02*
X83665400Y-87758000D01*
D47*
X83786800Y-88181600D02*
X85806600Y-88181600D01*
D45*
X106260000Y-85205000D02*
X106260000Y-86770000D01*
D47*
X85806600Y-88181600D02*
X86750000Y-89125000D01*
D46*
%TO.N,Net-(H1-Pad1)*%
X78744421Y-85700000D02*
X78744421Y-84061179D01*
%TO.N,Net-(H3-Pad1)*%
X78840000Y-97830000D02*
X80094400Y-99084400D01*
X78840000Y-97160000D02*
X78840000Y-97830000D01*
%TO.N,Net-(H4-Pad1)*%
X124850000Y-96650000D02*
X124850000Y-99410000D01*
%TO.N,Net-(H2-Pad1)*%
X124850000Y-83600000D02*
X124850000Y-86275000D01*
%TO.N,BURN_CTRL_2*%
X104880000Y-90920000D02*
X104290000Y-91510000D01*
X104880000Y-86890000D02*
X104880000Y-90920000D01*
X105010000Y-85205000D02*
X105010000Y-86760000D01*
X104290000Y-91510000D02*
X102717100Y-91510000D01*
X106159293Y-93790000D02*
X102684300Y-93790000D01*
X102684300Y-93790000D02*
X101544300Y-92650000D01*
X107600000Y-92349293D02*
X106159293Y-93790000D01*
X102717100Y-91510000D02*
X101577100Y-92650000D01*
%TO.N,BURN_CTRL_1*%
X101730000Y-91390000D02*
X102585000Y-90535000D01*
X107880000Y-86890000D02*
X107880000Y-87580000D01*
X97064500Y-91390000D02*
X101730000Y-91390000D01*
X95804500Y-92650000D02*
X97064500Y-91390000D01*
X102585000Y-90535000D02*
X103950000Y-90535000D01*
X107880000Y-86890000D02*
X107880000Y-87590000D01*
X107690000Y-86700000D02*
X107690000Y-85385000D01*
%TO.N,N$10*%
X85870000Y-100720000D02*
X84192000Y-100720000D01*
%TO.N,N$9*%
X88100000Y-97020000D02*
X89520000Y-98440000D01*
X88100000Y-96576500D02*
X88100000Y-97020000D01*
X88840000Y-99150000D02*
X87580000Y-100410000D01*
X89520000Y-98440000D02*
X89520000Y-99148000D01*
%TO.N,N$3*%
X89900000Y-84558554D02*
X89050446Y-83709000D01*
X89610000Y-87080000D02*
X87970000Y-87080000D01*
X87970000Y-87080000D02*
X86725000Y-85835000D01*
X89900000Y-86920000D02*
X89900000Y-84558554D01*
X89770000Y-86920000D02*
X89610000Y-87080000D01*
X87600000Y-97190000D02*
X87600000Y-96576500D01*
X88265735Y-98034265D02*
X88205735Y-97974265D01*
X88205735Y-97974265D02*
X88205735Y-97795735D01*
X89900000Y-86920000D02*
X89770000Y-86920000D01*
X88205735Y-97795735D02*
X87600000Y-97190000D01*
%TO.N,SDA*%
X85300000Y-97600000D02*
X86328500Y-96571500D01*
X85300000Y-98201800D02*
X85300000Y-97600000D01*
X86118200Y-99020000D02*
X85300000Y-98201800D01*
X86328500Y-96571500D02*
X86595000Y-96571500D01*
%TO.N,SCL*%
X87118200Y-98568200D02*
X87118200Y-99020000D01*
X86691000Y-98141000D02*
X87118200Y-98568200D01*
X86691000Y-97429000D02*
X86691000Y-98141000D01*
X87095000Y-96571500D02*
X87095000Y-97025000D01*
X87095000Y-97025000D02*
X86691000Y-97429000D01*
D48*
%TO.N,N$1*%
X88357000Y-91730500D02*
X88595000Y-91968500D01*
D49*
X86788000Y-91050000D02*
X88057500Y-91050000D01*
D48*
X88595000Y-93571500D02*
X88595000Y-91968500D01*
D46*
%TO.N,N$5*%
X88220000Y-85100000D02*
X87073000Y-83953000D01*
%TO.N,N$6*%
X84699554Y-85149554D02*
X84699554Y-83970500D01*
D49*
%TO.N,CC2*%
X84472500Y-93265500D02*
X85107500Y-93900500D01*
X85107500Y-93900500D02*
X86266000Y-93900500D01*
X84472500Y-93265500D02*
X83774000Y-93265500D01*
X83665400Y-93253000D02*
X83725300Y-93193100D01*
X86595000Y-93571500D02*
X86266000Y-93900500D01*
%TO.N,N$4*%
X89310000Y-96140000D02*
X88878500Y-96571500D01*
X88878500Y-96571500D02*
X88595000Y-96571500D01*
X89310000Y-95365000D02*
X89310000Y-96140000D01*
X90050000Y-94625000D02*
X89310000Y-95365000D01*
D46*
%TO.N,N$2*%
X91924540Y-88926201D02*
X91924540Y-89325460D01*
X89950000Y-92825000D02*
X89950000Y-91400000D01*
X91924540Y-89325460D02*
X89900000Y-91350000D01*
D49*
%TO.N,CC1*%
X85460250Y-93171563D02*
X85777750Y-92854063D01*
X84585625Y-90265500D02*
X83774000Y-90265500D01*
X87095000Y-93571500D02*
X87095000Y-92854063D01*
X85260062Y-90939938D02*
X84585625Y-90265500D01*
X85777750Y-92854063D02*
X87095000Y-92854063D01*
%TO.N,D+*%
X81876000Y-91265500D02*
X81372000Y-91769500D01*
X85278800Y-91993300D02*
X84551000Y-91265500D01*
X82450250Y-92800000D02*
X82984750Y-92265500D01*
X81372000Y-91769500D02*
X81372000Y-92472000D01*
X88095000Y-92578647D02*
X87509654Y-91993300D01*
X88095000Y-93571500D02*
X88095000Y-92578647D01*
X81372000Y-92472000D02*
X81700000Y-92800000D01*
X82984750Y-92265500D02*
X83774000Y-92265500D01*
X84551000Y-91265500D02*
X81876000Y-91265500D01*
X87509654Y-91993300D02*
X85278800Y-91993300D01*
X81700000Y-92800000D02*
X82450250Y-92800000D01*
%TO.N,D-*%
X85055000Y-92404500D02*
X87346119Y-92404500D01*
X82465850Y-91765500D02*
X82261000Y-91970350D01*
X84416000Y-91765500D02*
X85055000Y-92404500D01*
X83774000Y-91765500D02*
X84416000Y-91765500D01*
X87346119Y-92404500D02*
X87595000Y-92653382D01*
X87595000Y-92653382D02*
X87595000Y-93571500D01*
X82300000Y-90563850D02*
X82501650Y-90765500D01*
X82501650Y-90765500D02*
X83774000Y-90765500D01*
X82300000Y-90563850D02*
X82391200Y-90563850D01*
X83774000Y-91765500D02*
X82465850Y-91765500D01*
D45*
%TO.N,VBUS*%
X88528339Y-89478161D02*
X89971839Y-89478161D01*
D48*
X83932400Y-93789000D02*
X82984838Y-93789000D01*
D47*
X81288400Y-93687000D02*
X80755400Y-93154000D01*
X80755400Y-90106000D02*
X81466200Y-89395200D01*
X83665400Y-89103000D02*
X85060400Y-89103000D01*
D48*
X82843725Y-89395200D02*
X83135925Y-89103000D01*
X82882838Y-93687000D02*
X82152400Y-93687000D01*
X82660400Y-89395200D02*
X82843725Y-89395200D01*
X83135925Y-89103000D02*
X83665400Y-89103000D01*
D47*
X82152400Y-93687000D02*
X81288400Y-93687000D01*
X81466200Y-89395200D02*
X82660400Y-89395200D01*
D45*
X88357000Y-89649500D02*
X88528339Y-89478161D01*
X91924540Y-87928322D02*
X91924540Y-87278322D01*
X91924540Y-87525460D02*
X91924540Y-87278322D01*
D47*
X80755400Y-93154000D02*
X80755400Y-90106000D01*
D45*
X89971839Y-89478161D02*
X91924540Y-87525460D01*
D47*
X85169000Y-89115500D02*
X85245500Y-89039000D01*
D48*
X82984838Y-93789000D02*
X82882838Y-93687000D01*
D47*
X85060400Y-89103000D02*
X85136900Y-89026500D01*
D45*
X88357000Y-88389415D02*
X88357000Y-89649500D01*
D46*
%TO.N,Net-(D5-A)*%
X116825000Y-82325000D02*
X118600000Y-82325000D01*
D50*
%TO.N,VDC*%
X102250000Y-88525000D02*
X99675000Y-88525000D01*
D46*
X93950000Y-90475000D02*
X93950000Y-88551661D01*
D50*
X96650000Y-84500000D02*
X92500000Y-84500000D01*
X103380000Y-87395000D02*
X102250000Y-88525000D01*
D46*
X99700000Y-92300000D02*
X98194300Y-92300000D01*
X114980000Y-85089000D02*
X114980000Y-86890000D01*
X93950000Y-92300000D02*
X92454500Y-92300000D01*
X99700000Y-88700000D02*
X99700000Y-90475000D01*
D45*
X109380000Y-85825000D02*
X108760000Y-85205000D01*
D50*
X114980000Y-87640000D02*
X114980000Y-85090000D01*
D46*
X114980000Y-85089000D02*
X114980000Y-82345000D01*
D50*
X113915000Y-85825000D02*
X110445000Y-85825000D01*
X122039590Y-87615357D02*
X122039590Y-85075357D01*
X94948339Y-88525000D02*
X94362500Y-87939161D01*
D46*
X122039590Y-85075357D02*
X114994643Y-85075357D01*
D50*
X103380000Y-86890000D02*
X103380000Y-87395000D01*
X99675000Y-88525000D02*
X94948339Y-88525000D01*
D51*
X103760000Y-85205000D02*
X103760000Y-86510000D01*
X103760000Y-86510000D02*
X103380000Y-86890000D01*
X109380000Y-86890000D02*
X109380000Y-85825000D01*
D50*
X114980000Y-86890000D02*
X113915000Y-85825000D01*
X108760000Y-85205000D02*
X121909947Y-85205000D01*
X110445000Y-85825000D02*
X109380000Y-86890000D01*
%TO.N,Net-(Q2-DRAIN2-Pad5)*%
X122039590Y-95235357D02*
X122039590Y-97775357D01*
%TO.N,Net-(Q2-DRAIN1-Pad7)*%
X114980000Y-97809000D02*
X114980000Y-95259000D01*
X114903342Y-95335658D02*
X114903342Y-97140000D01*
X114980000Y-97809000D02*
X114980000Y-95303905D01*
%TD*%
%TA.AperFunction,Conductor*%
%TO.N,D-*%
G36*
X83616723Y-90742009D02*
G01*
X83624060Y-90747142D01*
X83625619Y-90755960D01*
X83620486Y-90763298D01*
X83616912Y-90764813D01*
X83092724Y-90889945D01*
X83088044Y-90890099D01*
X82962637Y-90868757D01*
X82955056Y-90863991D01*
X82952900Y-90857223D01*
X82952900Y-90672784D01*
X82956327Y-90664511D01*
X82961457Y-90661514D01*
X83087584Y-90626353D01*
X83093252Y-90626200D01*
X83616723Y-90742009D01*
G37*
%TD.AperFunction*%
%TD*%
%TA.AperFunction,Conductor*%
%TO.N,VDC*%
G36*
X122637578Y-86034156D02*
G01*
X122640908Y-86040929D01*
X122822818Y-87448456D01*
X122820480Y-87457100D01*
X122813512Y-87461428D01*
X122041887Y-87615897D01*
X122037293Y-87615897D01*
X121265667Y-87461428D01*
X121258228Y-87456444D01*
X121256361Y-87448457D01*
X121438272Y-86040929D01*
X121442731Y-86033164D01*
X121449875Y-86030729D01*
X122629305Y-86030729D01*
X122637578Y-86034156D01*
G37*
%TD.AperFunction*%
%TD*%
%TA.AperFunction,Conductor*%
%TO.N,D-*%
G36*
X82531255Y-90238805D02*
G01*
X82532223Y-90239531D01*
X83037006Y-90660392D01*
X83041166Y-90668321D01*
X83041214Y-90669377D01*
X83041214Y-90856866D01*
X83037787Y-90865139D01*
X83031072Y-90868462D01*
X82388909Y-90954753D01*
X82380253Y-90952458D01*
X82375881Y-90945468D01*
X82360367Y-90868462D01*
X82299963Y-90568630D01*
X82301689Y-90559844D01*
X82301718Y-90559800D01*
X82515022Y-90241998D01*
X82522476Y-90237040D01*
X82531255Y-90238805D01*
G37*
%TD.AperFunction*%
%TD*%
%TA.AperFunction,Conductor*%
%TO.N,BURN_CTRL_2*%
G36*
X106996592Y-92173759D02*
G01*
X107455422Y-92336709D01*
X107462070Y-92342706D01*
X107462553Y-92343882D01*
X107640507Y-92854375D01*
X107639994Y-92863315D01*
X107634475Y-92868796D01*
X106856797Y-93237833D01*
X106847854Y-93238284D01*
X106843508Y-93235536D01*
X106712852Y-93104880D01*
X106709425Y-93096607D01*
X106709912Y-93093267D01*
X106981483Y-92181448D01*
X106987128Y-92174501D01*
X106996035Y-92173578D01*
X106996592Y-92173759D01*
G37*
%TD.AperFunction*%
%TD*%
%TA.AperFunction,Conductor*%
%TO.N,SDA*%
G36*
X86472674Y-96449460D02*
G01*
X86474424Y-96450889D01*
X86587627Y-96563194D01*
X86591087Y-96571453D01*
X86587693Y-96579740D01*
X86587627Y-96579806D01*
X86474424Y-96692110D01*
X86466137Y-96695504D01*
X86463890Y-96695277D01*
X86354406Y-96673381D01*
X86346965Y-96668398D01*
X86345000Y-96661908D01*
X86345000Y-96481092D01*
X86348427Y-96472819D01*
X86354405Y-96469619D01*
X86463889Y-96447722D01*
X86472674Y-96449460D01*
G37*
%TD.AperFunction*%
%TD*%
%TA.AperFunction,Conductor*%
%TO.N,Net-(Q2-DRAIN2-Pad5)*%
G36*
X122813513Y-95389286D02*
G01*
X122820951Y-95394269D01*
X122822818Y-95402257D01*
X122640908Y-96809785D01*
X122636450Y-96817550D01*
X122629305Y-96819985D01*
X121449875Y-96819985D01*
X121441602Y-96816558D01*
X121438272Y-96809785D01*
X121256361Y-95402257D01*
X121258699Y-95393613D01*
X121265664Y-95389286D01*
X122037297Y-95234816D01*
X122041883Y-95234816D01*
X122813513Y-95389286D01*
G37*
%TD.AperFunction*%
%TD*%
%TA.AperFunction,Conductor*%
%TO.N,VDC*%
G36*
X121600849Y-84418715D02*
G01*
X122036230Y-85068847D01*
X122037987Y-85077628D01*
X122036230Y-85081867D01*
X121600849Y-85731998D01*
X121593399Y-85736966D01*
X121585932Y-85735971D01*
X120461466Y-85178580D01*
X120455575Y-85171835D01*
X120454962Y-85168097D01*
X120454962Y-84982616D01*
X120458389Y-84974343D01*
X120461466Y-84972133D01*
X121585932Y-84414741D01*
X121594866Y-84414138D01*
X121600849Y-84418715D01*
G37*
%TD.AperFunction*%
%TD*%
%TA.AperFunction,Conductor*%
%TO.N,VDC*%
G36*
X115577988Y-86057799D02*
G01*
X115581318Y-86064572D01*
X115763228Y-87472099D01*
X115760890Y-87480743D01*
X115753922Y-87485071D01*
X114982297Y-87639540D01*
X114977703Y-87639540D01*
X114206077Y-87485071D01*
X114198638Y-87480087D01*
X114196771Y-87472100D01*
X114378682Y-86064572D01*
X114383141Y-86056807D01*
X114390285Y-86054372D01*
X115569715Y-86054372D01*
X115577988Y-86057799D01*
G37*
%TD.AperFunction*%
%TD*%
%TA.AperFunction,Conductor*%
%TO.N,Net-(D5-A)*%
G36*
X117174871Y-81873237D02*
G01*
X117781626Y-82221627D01*
X117787094Y-82228718D01*
X117787500Y-82231773D01*
X117787500Y-82418226D01*
X117784073Y-82426499D01*
X117781626Y-82428372D01*
X117174873Y-82776761D01*
X117165992Y-82777909D01*
X117159679Y-82773624D01*
X116901347Y-82428372D01*
X116829243Y-82332008D01*
X116827031Y-82323332D01*
X116829244Y-82317991D01*
X116898824Y-82225000D01*
X117159680Y-81876374D01*
X117167379Y-81871803D01*
X117174871Y-81873237D01*
G37*
%TD.AperFunction*%
%TD*%
%TA.AperFunction,Conductor*%
%TO.N,VBUS*%
G36*
X85153151Y-88599654D02*
G01*
X85159277Y-88606185D01*
X85159800Y-88608008D01*
X85246035Y-89036693D01*
X85246035Y-89041307D01*
X85159432Y-89471822D01*
X85154441Y-89479257D01*
X85145655Y-89480985D01*
X85145458Y-89480944D01*
X84357004Y-89308214D01*
X84349656Y-89303096D01*
X84347808Y-89296785D01*
X84347808Y-88907891D01*
X84351235Y-88899618D01*
X84355376Y-88896944D01*
X85144201Y-88599368D01*
X85153151Y-88599654D01*
G37*
%TD.AperFunction*%
%TD*%
%TA.AperFunction,Conductor*%
%TO.N,VDC*%
G36*
X95493965Y-87216778D02*
G01*
X95923542Y-87522993D01*
X96482591Y-87921501D01*
X96487339Y-87929092D01*
X96487500Y-87931027D01*
X96487500Y-89113221D01*
X96484073Y-89121494D01*
X96475800Y-89124921D01*
X96475722Y-89124921D01*
X94868995Y-89114212D01*
X94860745Y-89110730D01*
X94858307Y-89107092D01*
X94365356Y-87948226D01*
X94365271Y-87939271D01*
X94369774Y-87933818D01*
X95480829Y-87216475D01*
X95489637Y-87214867D01*
X95493965Y-87216778D01*
G37*
%TD.AperFunction*%
%TD*%
%TA.AperFunction,Conductor*%
%TO.N,VDC*%
G36*
X99801500Y-89515927D02*
G01*
X99803373Y-89518374D01*
X100151761Y-90125126D01*
X100152909Y-90134007D01*
X100148624Y-90140320D01*
X99707009Y-90470755D01*
X99698332Y-90472968D01*
X99692991Y-90470755D01*
X99251375Y-90140320D01*
X99246803Y-90132620D01*
X99248237Y-90125129D01*
X99596627Y-89518373D01*
X99603718Y-89512906D01*
X99606773Y-89512500D01*
X99793227Y-89512500D01*
X99801500Y-89515927D01*
G37*
%TD.AperFunction*%
%TD*%
%TA.AperFunction,Conductor*%
%TO.N,VDC*%
G36*
X115433611Y-84428252D02*
G01*
X116558024Y-84972162D01*
X116563978Y-84978848D01*
X116564628Y-84982693D01*
X116564628Y-85168175D01*
X116561201Y-85176448D01*
X116558224Y-85178608D01*
X115433702Y-85749482D01*
X115424774Y-85750171D01*
X115418685Y-85745559D01*
X114983358Y-85095508D01*
X114981602Y-85086729D01*
X114983357Y-85082492D01*
X115418796Y-84432274D01*
X115426246Y-84427307D01*
X115433611Y-84428252D01*
G37*
%TD.AperFunction*%
%TD*%
%TA.AperFunction,Conductor*%
%TO.N,VDC*%
G36*
X114961922Y-84622472D02*
G01*
X114964628Y-84629955D01*
X114964628Y-85782013D01*
X114961201Y-85790286D01*
X114952928Y-85793713D01*
X114946043Y-85791472D01*
X114207520Y-85253914D01*
X114202847Y-85246275D01*
X114204946Y-85237570D01*
X114206919Y-85235463D01*
X114945446Y-84620960D01*
X114953996Y-84618304D01*
X114961922Y-84622472D01*
G37*
%TD.AperFunction*%
%TD*%
%TA.AperFunction,Conductor*%
%TO.N,VDC*%
G36*
X94051500Y-89515927D02*
G01*
X94053373Y-89518374D01*
X94401761Y-90125126D01*
X94402909Y-90134007D01*
X94398624Y-90140320D01*
X93957009Y-90470755D01*
X93948332Y-90472968D01*
X93942991Y-90470755D01*
X93501375Y-90140320D01*
X93496803Y-90132620D01*
X93498237Y-90125129D01*
X93846627Y-89518373D01*
X93853718Y-89512906D01*
X93856773Y-89512500D01*
X94043227Y-89512500D01*
X94051500Y-89515927D01*
G37*
%TD.AperFunction*%
%TD*%
%TA.AperFunction,Conductor*%
%TO.N,VDC*%
G36*
X94369016Y-87948274D02*
G01*
X94370621Y-87950176D01*
X95151684Y-89105739D01*
X95153478Y-89114512D01*
X95149832Y-89120974D01*
X94053341Y-90111144D01*
X94045500Y-90114161D01*
X93856554Y-90114161D01*
X93848281Y-90110734D01*
X93846577Y-90108572D01*
X93242207Y-89121846D01*
X93240808Y-89113001D01*
X93243728Y-89107650D01*
X94352476Y-87948638D01*
X94360669Y-87945031D01*
X94369016Y-87948274D01*
G37*
%TD.AperFunction*%
%TD*%
%TA.AperFunction,Conductor*%
%TO.N,Net-(H1-Pad1)*%
G36*
X80152074Y-82666122D02*
G01*
X80154195Y-82672945D01*
X80134893Y-84824404D01*
X80131392Y-84832646D01*
X80127372Y-84835227D01*
X78846440Y-85325101D01*
X78842261Y-85325873D01*
X78654017Y-85325873D01*
X78645744Y-85322446D01*
X78642543Y-85316464D01*
X78362812Y-83915332D01*
X78364553Y-83906548D01*
X78367563Y-83903466D01*
X80135778Y-82663260D01*
X80144518Y-82661316D01*
X80152074Y-82666122D01*
G37*
%TD.AperFunction*%
%TD*%
%TA.AperFunction,Conductor*%
%TO.N,Net-(H4-Pad1)*%
G36*
X124952951Y-97391847D02*
G01*
X126151952Y-98193669D01*
X126156924Y-98201116D01*
X126156991Y-98205306D01*
X125803718Y-100338546D01*
X125798985Y-100346148D01*
X125790263Y-100348177D01*
X125783903Y-100344909D01*
X125777538Y-100338546D01*
X124262076Y-98823617D01*
X124258649Y-98815346D01*
X124259288Y-98811531D01*
X124747279Y-97397756D01*
X124753218Y-97391054D01*
X124758339Y-97389874D01*
X124946448Y-97389874D01*
X124952951Y-97391847D01*
G37*
%TD.AperFunction*%
%TD*%
%TA.AperFunction,Conductor*%
%TO.N,N$3*%
G36*
X89509443Y-83714206D02*
G01*
X89509709Y-83714394D01*
X90291269Y-84286034D01*
X90295924Y-84293684D01*
X90294247Y-84301737D01*
X90003445Y-84761046D01*
X89996124Y-84766203D01*
X89993560Y-84766487D01*
X89803574Y-84766487D01*
X89797036Y-84764490D01*
X89106334Y-84299100D01*
X89101388Y-84291635D01*
X89103168Y-84282861D01*
X89493172Y-83717195D01*
X89500687Y-83712331D01*
X89509443Y-83714206D01*
G37*
%TD.AperFunction*%
%TD*%
%TA.AperFunction,Conductor*%
%TO.N,N$2*%
G36*
X91921517Y-88921690D02*
G01*
X91921545Y-88921717D01*
X92119858Y-89118239D01*
X92123322Y-89126497D01*
X92122122Y-89131711D01*
X91996310Y-89387650D01*
X91989585Y-89393563D01*
X91980649Y-89392989D01*
X91977537Y-89390762D01*
X91847672Y-89260897D01*
X91714314Y-89132366D01*
X91710735Y-89124158D01*
X91714009Y-89115823D01*
X91714042Y-89115788D01*
X91904972Y-88921819D01*
X91913217Y-88918328D01*
X91921517Y-88921690D01*
G37*
%TD.AperFunction*%
%TD*%
%TA.AperFunction,Conductor*%
%TO.N,VDC*%
G36*
X92593102Y-91956561D02*
G01*
X93097829Y-92196824D01*
X93103826Y-92203474D01*
X93104500Y-92207388D01*
X93104500Y-92395787D01*
X93101816Y-92403244D01*
X92611416Y-92996146D01*
X92603502Y-93000337D01*
X92595642Y-92998240D01*
X92112930Y-92656673D01*
X92108156Y-92649097D01*
X92110052Y-92640487D01*
X92578439Y-91960488D01*
X92585954Y-91955620D01*
X92593102Y-91956561D01*
G37*
%TD.AperFunction*%
%TD*%
%TA.AperFunction,Conductor*%
%TO.N,Net-(Q2-DRAIN2-Pad5)*%
G36*
X122637578Y-96194156D02*
G01*
X122640908Y-96200929D01*
X122822818Y-97608456D01*
X122820480Y-97617100D01*
X122813512Y-97621428D01*
X122041887Y-97775897D01*
X122037293Y-97775897D01*
X121265667Y-97621428D01*
X121258228Y-97616444D01*
X121256361Y-97608457D01*
X121438272Y-96200929D01*
X121442731Y-96193164D01*
X121449875Y-96190729D01*
X122629305Y-96190729D01*
X122637578Y-96194156D01*
G37*
%TD.AperFunction*%
%TD*%
%TA.AperFunction,Conductor*%
%TO.N,Net-(Q2-DRAIN1-Pad7)*%
G36*
X116491680Y-94487684D02*
G01*
X116497238Y-94493476D01*
X116863456Y-95325401D01*
X116863653Y-95334354D01*
X116858978Y-95340018D01*
X115582856Y-96142827D01*
X115576626Y-96144624D01*
X114397382Y-96144624D01*
X114389109Y-96141197D01*
X114385682Y-96132924D01*
X114386541Y-96128524D01*
X114820676Y-95059996D01*
X114826962Y-95053625D01*
X114827716Y-95053337D01*
X116482746Y-94487120D01*
X116491680Y-94487684D01*
G37*
%TD.AperFunction*%
%TD*%
%TA.AperFunction,Conductor*%
%TO.N,N$4*%
G36*
X88726027Y-96447628D02*
G01*
X88835454Y-96468113D01*
X88842954Y-96473002D01*
X88845000Y-96479612D01*
X88845000Y-96663387D01*
X88841573Y-96671660D01*
X88835453Y-96674887D01*
X88726034Y-96695370D01*
X88717271Y-96693524D01*
X88715641Y-96692176D01*
X88698214Y-96674887D01*
X88602371Y-96579805D01*
X88598912Y-96571547D01*
X88602306Y-96563260D01*
X88602372Y-96563194D01*
X88715643Y-96450822D01*
X88723928Y-96447429D01*
X88726027Y-96447628D01*
G37*
%TD.AperFunction*%
%TD*%
%TA.AperFunction,Conductor*%
%TO.N,Net-(D5-A)*%
G36*
X118227902Y-81875653D02*
G01*
X118594794Y-82317526D01*
X118597442Y-82326080D01*
X118594794Y-82332474D01*
X118227902Y-82774346D01*
X118219980Y-82778522D01*
X118213074Y-82777018D01*
X117605874Y-82428372D01*
X117600406Y-82421281D01*
X117600000Y-82418226D01*
X117600000Y-82231773D01*
X117603427Y-82223500D01*
X117605874Y-82221627D01*
X118213076Y-81872980D01*
X118221955Y-81871833D01*
X118227902Y-81875653D01*
G37*
%TD.AperFunction*%
%TD*%
%TA.AperFunction,Conductor*%
%TO.N,CC1*%
G36*
X86117420Y-92756026D02*
G01*
X86121143Y-92764170D01*
X86121151Y-92764593D01*
X86121151Y-92951765D01*
X86118815Y-92958780D01*
X85799516Y-93384959D01*
X85791812Y-93389526D01*
X85783665Y-93387681D01*
X85463305Y-93174264D01*
X85458320Y-93166825D01*
X85458311Y-93166781D01*
X85384845Y-92792650D01*
X85386614Y-92783872D01*
X85394072Y-92778915D01*
X85395898Y-92778704D01*
X86109029Y-92752901D01*
X86117420Y-92756026D01*
G37*
%TD.AperFunction*%
%TD*%
%TA.AperFunction,Conductor*%
%TO.N,BURN_CTRL_1*%
G36*
X107885738Y-86904662D02*
G01*
X107890197Y-86909121D01*
X108131358Y-87337700D01*
X108132428Y-87346591D01*
X108128781Y-87352317D01*
X107983287Y-87477179D01*
X107975667Y-87480000D01*
X107784333Y-87480000D01*
X107776713Y-87477179D01*
X107631218Y-87352317D01*
X107627172Y-87344328D01*
X107628640Y-87337701D01*
X107869803Y-86909120D01*
X107876847Y-86903592D01*
X107885738Y-86904662D01*
G37*
%TD.AperFunction*%
%TD*%
%TA.AperFunction,Conductor*%
%TO.N,BURN_CTRL_1*%
G36*
X107885738Y-86904662D02*
G01*
X107890197Y-86909121D01*
X108131358Y-87337700D01*
X108132428Y-87346591D01*
X108128781Y-87352317D01*
X107983287Y-87477179D01*
X107975667Y-87480000D01*
X107784333Y-87480000D01*
X107776713Y-87477179D01*
X107631218Y-87352317D01*
X107627172Y-87344328D01*
X107628640Y-87337701D01*
X107869803Y-86909120D01*
X107876847Y-86903592D01*
X107885738Y-86904662D01*
G37*
%TD.AperFunction*%
%TD*%
%TA.AperFunction,Conductor*%
%TO.N,N$2*%
G36*
X90052650Y-91790927D02*
G01*
X90053513Y-91791891D01*
X90443698Y-92279622D01*
X90446190Y-92288223D01*
X90443136Y-92294892D01*
X89958574Y-92816765D01*
X89950433Y-92820496D01*
X89942039Y-92817378D01*
X89941426Y-92816765D01*
X89653772Y-92506963D01*
X89456862Y-92294891D01*
X89453745Y-92286498D01*
X89456299Y-92279625D01*
X89846487Y-91791890D01*
X89854331Y-91787572D01*
X89855623Y-91787500D01*
X90044377Y-91787500D01*
X90052650Y-91790927D01*
G37*
%TD.AperFunction*%
%TD*%
%TA.AperFunction,Conductor*%
%TO.N,CC2*%
G36*
X84243215Y-93126353D02*
G01*
X84369342Y-93161514D01*
X84376391Y-93167036D01*
X84377900Y-93172784D01*
X84377900Y-93357223D01*
X84374473Y-93365496D01*
X84368163Y-93368757D01*
X84242755Y-93390099D01*
X84238075Y-93389945D01*
X83713887Y-93264813D01*
X83706636Y-93259559D01*
X83705224Y-93250716D01*
X83710478Y-93243465D01*
X83714072Y-93242010D01*
X84237547Y-93126200D01*
X84243215Y-93126353D01*
G37*
%TD.AperFunction*%
%TD*%
%TA.AperFunction,Conductor*%
%TO.N,N$4*%
G36*
X89462119Y-94370058D02*
G01*
X89944907Y-94522393D01*
X89951764Y-94528150D01*
X89952122Y-94528901D01*
X90178717Y-95052219D01*
X90178859Y-95061173D01*
X90173091Y-95067393D01*
X89536311Y-95376635D01*
X89435693Y-95425500D01*
X89414020Y-95436025D01*
X89408909Y-95437200D01*
X89223033Y-95437200D01*
X89214760Y-95433773D01*
X89211333Y-95425500D01*
X89211620Y-95422925D01*
X89447200Y-94378645D01*
X89452363Y-94371329D01*
X89461188Y-94369807D01*
X89462119Y-94370058D01*
G37*
%TD.AperFunction*%
%TD*%
%TA.AperFunction,Conductor*%
%TO.N,BURN_CTRL_2*%
G36*
X102330327Y-91761757D02*
G01*
X102330897Y-91762291D01*
X102462901Y-91894295D01*
X102466328Y-91902568D01*
X102465335Y-91907285D01*
X102048951Y-92852333D01*
X102042479Y-92858523D01*
X102033679Y-92858389D01*
X101552301Y-92654397D01*
X101546021Y-92648013D01*
X101545376Y-92641418D01*
X101705203Y-91808865D01*
X101710128Y-91801386D01*
X101715910Y-91799397D01*
X102321844Y-91758890D01*
X102330327Y-91761757D01*
G37*
%TD.AperFunction*%
%TD*%
%TA.AperFunction,Conductor*%
%TO.N,N$1*%
G36*
X88364984Y-91357442D02*
G01*
X88366738Y-91358988D01*
X88852493Y-91882146D01*
X88855611Y-91890540D01*
X88855157Y-91893361D01*
X88724446Y-92344796D01*
X88718854Y-92351790D01*
X88713208Y-92353242D01*
X88472627Y-92353242D01*
X88464624Y-92350077D01*
X88458991Y-92344796D01*
X87978205Y-91894016D01*
X87974515Y-91885859D01*
X87976701Y-91878664D01*
X88348659Y-91360127D01*
X88356264Y-91355404D01*
X88364984Y-91357442D01*
G37*
%TD.AperFunction*%
%TD*%
%TA.AperFunction,Conductor*%
%TO.N,D-*%
G36*
X83616723Y-91742009D02*
G01*
X83624060Y-91747142D01*
X83625619Y-91755960D01*
X83620486Y-91763298D01*
X83616912Y-91764813D01*
X83092724Y-91889945D01*
X83088044Y-91890099D01*
X82962637Y-91868757D01*
X82955056Y-91863991D01*
X82952900Y-91857223D01*
X82952900Y-91672784D01*
X82956327Y-91664511D01*
X82961457Y-91661514D01*
X83087584Y-91626353D01*
X83093252Y-91626200D01*
X83616723Y-91742009D01*
G37*
%TD.AperFunction*%
%TD*%
%TA.AperFunction,Conductor*%
%TO.N,N$10*%
G36*
X85339890Y-100226862D02*
G01*
X85551963Y-100423772D01*
X85861765Y-100711426D01*
X85865496Y-100719567D01*
X85862378Y-100727961D01*
X85861765Y-100728574D01*
X85339892Y-101213136D01*
X85331498Y-101216254D01*
X85324622Y-101213698D01*
X84836891Y-100823512D01*
X84832572Y-100815668D01*
X84832500Y-100814376D01*
X84832500Y-100625623D01*
X84835927Y-100617350D01*
X84836891Y-100616487D01*
X85324624Y-100226300D01*
X85333223Y-100223809D01*
X85339890Y-100226862D01*
G37*
%TD.AperFunction*%
%TD*%
%TA.AperFunction,Conductor*%
%TO.N,N$3*%
G36*
X87258377Y-85410081D02*
G01*
X87262816Y-85417857D01*
X87262903Y-85418961D01*
X87289105Y-86252781D01*
X87285940Y-86261157D01*
X87285684Y-86261421D01*
X87154283Y-86392822D01*
X87146010Y-86396249D01*
X87140018Y-86394598D01*
X86446226Y-85980898D01*
X86440875Y-85973718D01*
X86442075Y-85965017D01*
X86721394Y-85479333D01*
X86728487Y-85473872D01*
X86730049Y-85473563D01*
X87249740Y-85407721D01*
X87258377Y-85410081D01*
G37*
%TD.AperFunction*%
%TD*%
%TA.AperFunction,Conductor*%
%TO.N,CC1*%
G36*
X87194857Y-93049927D02*
G01*
X87198144Y-93056397D01*
X87219562Y-93193696D01*
X87219105Y-93199190D01*
X87106103Y-93539102D01*
X87100241Y-93545872D01*
X87091309Y-93546514D01*
X87084539Y-93540652D01*
X87083897Y-93539102D01*
X86970894Y-93199190D01*
X86970437Y-93193696D01*
X86991856Y-93056397D01*
X86996517Y-93048751D01*
X87003416Y-93046500D01*
X87186584Y-93046500D01*
X87194857Y-93049927D01*
G37*
%TD.AperFunction*%
%TD*%
%TA.AperFunction,Conductor*%
%TO.N,N$9*%
G36*
X88728630Y-98865335D02*
G01*
X89514514Y-99145088D01*
X89521159Y-99151090D01*
X89522045Y-99153728D01*
X89568659Y-99377918D01*
X89566988Y-99386716D01*
X89559586Y-99391755D01*
X89557204Y-99392000D01*
X89398652Y-99392000D01*
X89369410Y-99397816D01*
X89340168Y-99403633D01*
X89273848Y-99447947D01*
X89273847Y-99447948D01*
X89229533Y-99514268D01*
X89217900Y-99572752D01*
X89217900Y-99727981D01*
X89214473Y-99736254D01*
X89206401Y-99739679D01*
X88382482Y-99753816D01*
X88374151Y-99750532D01*
X88374008Y-99750391D01*
X88242775Y-99619158D01*
X88239348Y-99610885D01*
X88241214Y-99604547D01*
X88714878Y-98870015D01*
X88722240Y-98864922D01*
X88728630Y-98865335D01*
G37*
%TD.AperFunction*%
%TD*%
%TA.AperFunction,Conductor*%
%TO.N,N$10*%
G36*
X84774505Y-100405432D02*
G01*
X85143314Y-100616629D01*
X85148791Y-100623714D01*
X85149200Y-100626782D01*
X85149200Y-100814921D01*
X85145773Y-100823194D01*
X85145491Y-100823467D01*
X84773161Y-101171586D01*
X84764777Y-101174733D01*
X84761711Y-101174217D01*
X84002386Y-100939237D01*
X83995496Y-100933518D01*
X83994668Y-100924601D01*
X83999320Y-100918349D01*
X84762168Y-100405873D01*
X84770946Y-100404105D01*
X84774505Y-100405432D01*
G37*
%TD.AperFunction*%
%TD*%
%TA.AperFunction,Conductor*%
%TO.N,BURN_CTRL_2*%
G36*
X105108252Y-86093427D02*
G01*
X105111540Y-86099902D01*
X105179173Y-86534687D01*
X105177058Y-86543388D01*
X105176506Y-86544087D01*
X104891720Y-86877287D01*
X104883740Y-86881349D01*
X104875224Y-86878579D01*
X104872258Y-86874706D01*
X104656580Y-86420780D01*
X104656125Y-86411837D01*
X104657971Y-86408501D01*
X104906487Y-86094440D01*
X104914308Y-86090079D01*
X104915662Y-86090000D01*
X105099979Y-86090000D01*
X105108252Y-86093427D01*
G37*
%TD.AperFunction*%
%TD*%
%TA.AperFunction,Conductor*%
%TO.N,D-*%
G36*
X82990696Y-91662576D02*
G01*
X82998458Y-91667040D01*
X83000889Y-91674179D01*
X83000889Y-91861656D01*
X82997462Y-91869929D01*
X82996725Y-91870606D01*
X82849637Y-91994461D01*
X82847951Y-91995643D01*
X82799260Y-92023757D01*
X82799254Y-92023761D01*
X82716495Y-92106519D01*
X82715758Y-92107196D01*
X82493235Y-92294575D01*
X82484700Y-92297282D01*
X82476749Y-92293161D01*
X82475984Y-92292145D01*
X82262718Y-91974399D01*
X82260953Y-91965620D01*
X82260963Y-91965568D01*
X82280095Y-91870606D01*
X82336891Y-91588682D01*
X82341885Y-91581250D01*
X82349865Y-91579391D01*
X82990696Y-91662576D01*
G37*
%TD.AperFunction*%
%TD*%
%TA.AperFunction,Conductor*%
%TO.N,Net-(H3-Pad1)*%
G36*
X78942537Y-97521939D02*
G01*
X78957316Y-97529627D01*
X80220206Y-98186515D01*
X80225964Y-98193373D01*
X80226485Y-98197604D01*
X80095781Y-100349448D01*
X80091859Y-100357499D01*
X80083394Y-100360417D01*
X80076719Y-100357815D01*
X78398685Y-98992581D01*
X78394430Y-98984701D01*
X78394682Y-98980815D01*
X78737870Y-97529627D01*
X78743109Y-97522365D01*
X78749256Y-97520620D01*
X78937139Y-97520620D01*
X78942537Y-97521939D01*
G37*
%TD.AperFunction*%
%TD*%
%TA.AperFunction,Conductor*%
%TO.N,D+*%
G36*
X83612400Y-92242175D02*
G01*
X83619896Y-92247074D01*
X83621732Y-92255839D01*
X83616833Y-92263335D01*
X83612965Y-92265050D01*
X83094771Y-92389450D01*
X83086450Y-92388351D01*
X83035556Y-92360671D01*
X83032873Y-92358666D01*
X82903401Y-92229194D01*
X82899974Y-92220921D01*
X82903401Y-92212648D01*
X82907691Y-92209921D01*
X83087395Y-92144925D01*
X83093537Y-92144430D01*
X83612400Y-92242175D01*
G37*
%TD.AperFunction*%
%TD*%
%TA.AperFunction,Conductor*%
%TO.N,BURN_CTRL_1*%
G36*
X107793192Y-86101383D02*
G01*
X107793468Y-86101668D01*
X108065375Y-86392672D01*
X108068519Y-86401057D01*
X108067740Y-86404875D01*
X107887065Y-86872704D01*
X107880888Y-86879187D01*
X107871936Y-86879403D01*
X107867257Y-86876091D01*
X107582904Y-86543397D01*
X107580101Y-86535530D01*
X107583143Y-86401057D01*
X107589741Y-86109390D01*
X107593354Y-86101198D01*
X107601438Y-86097956D01*
X107784919Y-86097956D01*
X107793192Y-86101383D01*
G37*
%TD.AperFunction*%
%TD*%
%TA.AperFunction,Conductor*%
%TO.N,VDC*%
G36*
X99377843Y-91839458D02*
G01*
X99696284Y-92293280D01*
X99698231Y-92302020D01*
X99696284Y-92306720D01*
X99377843Y-92760541D01*
X99370286Y-92765345D01*
X99362289Y-92763879D01*
X98755723Y-92403401D01*
X98750361Y-92396228D01*
X98750000Y-92393343D01*
X98750000Y-92206656D01*
X98753427Y-92198383D01*
X98755718Y-92196601D01*
X99362289Y-91836119D01*
X99371151Y-91834839D01*
X99377843Y-91839458D01*
G37*
%TD.AperFunction*%
%TD*%
%TA.AperFunction,Conductor*%
%TO.N,Net-(Q2-DRAIN1-Pad7)*%
G36*
X115577988Y-96227799D02*
G01*
X115581318Y-96234572D01*
X115763228Y-97642099D01*
X115760890Y-97650743D01*
X115753922Y-97655071D01*
X114982297Y-97809540D01*
X114977703Y-97809540D01*
X114206077Y-97655071D01*
X114198638Y-97650087D01*
X114196771Y-97642100D01*
X114378682Y-96234572D01*
X114383141Y-96226807D01*
X114390285Y-96224372D01*
X115569715Y-96224372D01*
X115577988Y-96227799D01*
G37*
%TD.AperFunction*%
%TD*%
%TA.AperFunction,Conductor*%
%TO.N,CC2*%
G36*
X86477941Y-93522950D02*
G01*
X86584780Y-93566354D01*
X86591155Y-93572643D01*
X86591216Y-93581598D01*
X86591180Y-93581684D01*
X86476711Y-93857127D01*
X86470372Y-93863452D01*
X86461417Y-93863441D01*
X86457634Y-93860910D01*
X86317304Y-93720580D01*
X86313877Y-93712307D01*
X86316567Y-93704844D01*
X86464530Y-93526323D01*
X86472447Y-93522141D01*
X86477941Y-93522950D01*
G37*
%TD.AperFunction*%
%TD*%
%TA.AperFunction,Conductor*%
%TO.N,D+*%
G36*
X88194857Y-93049927D02*
G01*
X88198144Y-93056397D01*
X88219562Y-93193696D01*
X88219105Y-93199190D01*
X88106103Y-93539102D01*
X88100241Y-93545872D01*
X88091309Y-93546514D01*
X88084539Y-93540652D01*
X88083897Y-93539102D01*
X87970894Y-93199190D01*
X87970437Y-93193696D01*
X87991856Y-93056397D01*
X87996517Y-93048751D01*
X88003416Y-93046500D01*
X88186584Y-93046500D01*
X88194857Y-93049927D01*
G37*
%TD.AperFunction*%
%TD*%
%TA.AperFunction,Conductor*%
%TO.N,VBUS*%
G36*
X90416100Y-88483994D02*
G01*
X90966864Y-89034758D01*
X90970291Y-89043031D01*
X90968090Y-89049862D01*
X90405238Y-89832561D01*
X90397626Y-89837277D01*
X90391605Y-89836675D01*
X89904373Y-89652625D01*
X89897844Y-89646496D01*
X89897479Y-89645589D01*
X89711109Y-89119830D01*
X89711575Y-89110887D01*
X89714263Y-89107267D01*
X90399955Y-88483611D01*
X90408381Y-88480580D01*
X90416100Y-88483994D01*
G37*
%TD.AperFunction*%
%TD*%
%TA.AperFunction,Conductor*%
%TO.N,VDC*%
G36*
X114986507Y-85092357D02*
G01*
X115636641Y-85527740D01*
X115641609Y-85535190D01*
X115640614Y-85542657D01*
X115083224Y-86667124D01*
X115076479Y-86673015D01*
X115072741Y-86673628D01*
X114887259Y-86673628D01*
X114878986Y-86670201D01*
X114876776Y-86667124D01*
X114319385Y-85542657D01*
X114318781Y-85533723D01*
X114323356Y-85527741D01*
X114973491Y-85092358D01*
X114982271Y-85090602D01*
X114986507Y-85092357D01*
G37*
%TD.AperFunction*%
%TD*%
%TA.AperFunction,Conductor*%
%TO.N,Net-(Q2-DRAIN1-Pad7)*%
G36*
X115753923Y-95412929D02*
G01*
X115761361Y-95417912D01*
X115763228Y-95425900D01*
X115581318Y-96833428D01*
X115576860Y-96841193D01*
X115569715Y-96843628D01*
X114390285Y-96843628D01*
X114382012Y-96840201D01*
X114378682Y-96833428D01*
X114196771Y-95425900D01*
X114199109Y-95417256D01*
X114206074Y-95412929D01*
X114977707Y-95258459D01*
X114982293Y-95258459D01*
X115753923Y-95412929D01*
G37*
%TD.AperFunction*%
%TD*%
%TA.AperFunction,Conductor*%
%TO.N,VDC*%
G36*
X114809159Y-85874760D02*
G01*
X114810771Y-85876774D01*
X115639076Y-87184911D01*
X115640607Y-87193734D01*
X115635703Y-87200890D01*
X114982653Y-87638402D01*
X114978412Y-87640160D01*
X114206579Y-87792854D01*
X114197798Y-87791097D01*
X114192888Y-87783920D01*
X113955819Y-86719221D01*
X113957366Y-86710403D01*
X113958961Y-86708412D01*
X114792614Y-85874759D01*
X114800886Y-85871333D01*
X114809159Y-85874760D01*
G37*
%TD.AperFunction*%
%TD*%
%TA.AperFunction,Conductor*%
%TO.N,VDC*%
G36*
X122813513Y-85229286D02*
G01*
X122820951Y-85234269D01*
X122822818Y-85242257D01*
X122640908Y-86649785D01*
X122636450Y-86657550D01*
X122629305Y-86659985D01*
X121449875Y-86659985D01*
X121441602Y-86656558D01*
X121438272Y-86649785D01*
X121256361Y-85242257D01*
X121258699Y-85233613D01*
X121265664Y-85229286D01*
X122037297Y-85074816D01*
X122041883Y-85074816D01*
X122813513Y-85229286D01*
G37*
%TD.AperFunction*%
%TD*%
%TA.AperFunction,Conductor*%
%TO.N,SCL*%
G36*
X87103641Y-96610025D02*
G01*
X87104616Y-96612820D01*
X87179945Y-96968162D01*
X87179455Y-96974694D01*
X87121530Y-97129250D01*
X87115418Y-97135794D01*
X87106468Y-97136100D01*
X87102301Y-97133417D01*
X86976853Y-97007969D01*
X86973450Y-97000443D01*
X86971385Y-96968162D01*
X86970146Y-96948784D01*
X86970727Y-96944326D01*
X87081645Y-96612820D01*
X87082075Y-96611532D01*
X87087949Y-96604775D01*
X87096882Y-96604151D01*
X87103641Y-96610025D01*
G37*
%TD.AperFunction*%
%TD*%
%TA.AperFunction,Conductor*%
%TO.N,N$9*%
G36*
X88216607Y-96572808D02*
G01*
X88220129Y-96581041D01*
X88220129Y-96581047D01*
X88224749Y-96998461D01*
X88221414Y-97006771D01*
X88221323Y-97006863D01*
X88096064Y-97132122D01*
X88087791Y-97135549D01*
X88079518Y-97132122D01*
X88076886Y-97128088D01*
X88017252Y-96974657D01*
X88016674Y-96968175D01*
X88092467Y-96580139D01*
X88097416Y-96572676D01*
X88103814Y-96570683D01*
X88208295Y-96569477D01*
X88216607Y-96572808D01*
G37*
%TD.AperFunction*%
%TD*%
%TA.AperFunction,Conductor*%
%TO.N,N$1*%
G36*
X87859064Y-90814988D02*
G01*
X87861818Y-90817169D01*
X87992467Y-90957336D01*
X88349079Y-91339929D01*
X88352213Y-91348317D01*
X88348497Y-91356465D01*
X88347495Y-91357300D01*
X87865657Y-91715071D01*
X87856972Y-91717251D01*
X87849887Y-91713393D01*
X87359905Y-91154911D01*
X87357000Y-91147195D01*
X87357000Y-90957336D01*
X87360427Y-90949063D01*
X87365620Y-90946048D01*
X87850184Y-90813859D01*
X87859064Y-90814988D01*
G37*
%TD.AperFunction*%
%TD*%
%TA.AperFunction,Conductor*%
%TO.N,VBUS*%
G36*
X88791560Y-88475832D02*
G01*
X88798995Y-88480823D01*
X88800935Y-88487944D01*
X88757608Y-89276049D01*
X88753733Y-89284122D01*
X88745926Y-89287107D01*
X87968074Y-89287107D01*
X87959801Y-89283680D01*
X87956392Y-89276049D01*
X87913064Y-88487944D01*
X87916031Y-88479495D01*
X87922438Y-88475832D01*
X88354693Y-88388879D01*
X88359307Y-88388879D01*
X88791560Y-88475832D01*
G37*
%TD.AperFunction*%
%TD*%
%TA.AperFunction,Conductor*%
%TO.N,Net-(Q2-DRAIN1-Pad7)*%
G36*
X115577988Y-96227799D02*
G01*
X115581318Y-96234572D01*
X115763228Y-97642099D01*
X115760890Y-97650743D01*
X115753922Y-97655071D01*
X114982297Y-97809540D01*
X114977703Y-97809540D01*
X114206077Y-97655071D01*
X114198638Y-97650087D01*
X114196771Y-97642100D01*
X114378682Y-96234572D01*
X114383141Y-96226807D01*
X114390285Y-96224372D01*
X115569715Y-96224372D01*
X115577988Y-96227799D01*
G37*
%TD.AperFunction*%
%TD*%
%TA.AperFunction,Conductor*%
%TO.N,CC1*%
G36*
X84778835Y-90310831D02*
G01*
X84899474Y-90361673D01*
X85469295Y-90601820D01*
X85475588Y-90608191D01*
X85475533Y-90617146D01*
X85474495Y-90619078D01*
X85262073Y-90938681D01*
X85258805Y-90941949D01*
X84939202Y-91154371D01*
X84930415Y-91156097D01*
X84922982Y-91151103D01*
X84921946Y-91149175D01*
X84630956Y-90458710D01*
X84630901Y-90449755D01*
X84633463Y-90445895D01*
X84766019Y-90313339D01*
X84774291Y-90309913D01*
X84778835Y-90310831D01*
G37*
%TD.AperFunction*%
%TD*%
%TA.AperFunction,Conductor*%
%TO.N,N$2*%
G36*
X90684608Y-90428717D02*
G01*
X90688328Y-90431222D01*
X90818662Y-90561556D01*
X90822089Y-90569829D01*
X90821143Y-90574438D01*
X90404545Y-91546500D01*
X90398136Y-91552754D01*
X90389332Y-91552708D01*
X89904356Y-91352794D01*
X89898013Y-91346473D01*
X89897656Y-91345493D01*
X89733622Y-90822786D01*
X89734414Y-90813867D01*
X89740381Y-90808444D01*
X90675653Y-90428655D01*
X90684608Y-90428717D01*
G37*
%TD.AperFunction*%
%TD*%
%TA.AperFunction,Conductor*%
%TO.N,VBUS*%
G36*
X88912180Y-89078667D02*
G01*
X89717052Y-89112162D01*
X89725175Y-89115930D01*
X89727685Y-89120214D01*
X89898543Y-89642491D01*
X89897858Y-89651420D01*
X89894953Y-89655084D01*
X89405293Y-90066856D01*
X89396756Y-90069558D01*
X89393547Y-90068815D01*
X88907484Y-89881052D01*
X88901001Y-89874874D01*
X88900000Y-89870138D01*
X88900000Y-89090358D01*
X88903427Y-89082085D01*
X88911700Y-89078658D01*
X88912180Y-89078667D01*
G37*
%TD.AperFunction*%
%TD*%
%TA.AperFunction,Conductor*%
%TO.N,VBUS*%
G36*
X83096358Y-88986026D02*
G01*
X83658074Y-89100653D01*
X83665494Y-89105665D01*
X83667308Y-89110402D01*
X83706968Y-89377993D01*
X83704791Y-89386679D01*
X83697109Y-89391282D01*
X83696209Y-89391380D01*
X83371139Y-89414085D01*
X83358442Y-89414972D01*
X83357629Y-89415000D01*
X83070652Y-89415000D01*
X83041410Y-89420816D01*
X83012168Y-89426633D01*
X82993822Y-89438891D01*
X82988138Y-89440835D01*
X82982228Y-89441248D01*
X82973736Y-89438406D01*
X82973139Y-89437849D01*
X82805811Y-89270521D01*
X82802384Y-89262248D01*
X82805811Y-89253975D01*
X82806009Y-89253782D01*
X82972552Y-89096268D01*
X83085981Y-88988991D01*
X83094346Y-88985796D01*
X83096358Y-88986026D01*
G37*
%TD.AperFunction*%
%TD*%
%TA.AperFunction,Conductor*%
%TO.N,Net-(Q2-DRAIN1-Pad7)*%
G36*
X115501861Y-96227799D02*
G01*
X115505097Y-96233967D01*
X115762557Y-97641609D01*
X115760675Y-97650364D01*
X115753345Y-97655186D01*
X114982297Y-97809540D01*
X114977703Y-97809540D01*
X114205522Y-97654959D01*
X114198083Y-97649975D01*
X114196152Y-97642605D01*
X114302524Y-96235190D01*
X114306565Y-96227199D01*
X114314191Y-96224372D01*
X115493588Y-96224372D01*
X115501861Y-96227799D01*
G37*
%TD.AperFunction*%
%TD*%
%TA.AperFunction,Conductor*%
%TO.N,BURN_CTRL_2*%
G36*
X104886752Y-86899719D02*
G01*
X104889555Y-86902522D01*
X105164612Y-87291785D01*
X105166588Y-87300519D01*
X105165603Y-87303603D01*
X104983187Y-87683366D01*
X104976516Y-87689340D01*
X104972641Y-87690000D01*
X104787359Y-87690000D01*
X104779086Y-87686573D01*
X104776813Y-87683366D01*
X104594396Y-87303603D01*
X104593902Y-87294662D01*
X104595384Y-87291788D01*
X104870445Y-86902521D01*
X104878018Y-86897743D01*
X104886752Y-86899719D01*
G37*
%TD.AperFunction*%
%TD*%
%TA.AperFunction,Conductor*%
%TO.N,D-*%
G36*
X84243215Y-91626353D02*
G01*
X84369342Y-91661514D01*
X84376391Y-91667036D01*
X84377900Y-91672784D01*
X84377900Y-91857223D01*
X84374473Y-91865496D01*
X84368163Y-91868757D01*
X84242755Y-91890099D01*
X84238075Y-91889945D01*
X83713887Y-91764813D01*
X83706636Y-91759559D01*
X83705224Y-91750716D01*
X83710478Y-91743465D01*
X83714072Y-91742010D01*
X84237547Y-91626200D01*
X84243215Y-91626353D01*
G37*
%TD.AperFunction*%
%TD*%
%TA.AperFunction,Conductor*%
%TO.N,CC1*%
G36*
X84243215Y-90126353D02*
G01*
X84369342Y-90161514D01*
X84376391Y-90167036D01*
X84377900Y-90172784D01*
X84377900Y-90357223D01*
X84374473Y-90365496D01*
X84368163Y-90368757D01*
X84242755Y-90390099D01*
X84238075Y-90389945D01*
X83713887Y-90264813D01*
X83706636Y-90259559D01*
X83705224Y-90250716D01*
X83710478Y-90243465D01*
X83714072Y-90242010D01*
X84237547Y-90126200D01*
X84243215Y-90126353D01*
G37*
%TD.AperFunction*%
%TD*%
%TA.AperFunction,Conductor*%
%TO.N,N$6*%
G36*
X84707814Y-83977075D02*
G01*
X85073455Y-84343675D01*
X85076871Y-84351952D01*
X85074587Y-84358882D01*
X84803061Y-84727038D01*
X84795393Y-84731662D01*
X84793645Y-84731793D01*
X84605463Y-84731793D01*
X84597190Y-84728366D01*
X84596047Y-84727038D01*
X84324520Y-84358882D01*
X84322367Y-84350189D01*
X84325650Y-84343677D01*
X84691271Y-83977097D01*
X84699539Y-83973660D01*
X84707814Y-83977075D01*
G37*
%TD.AperFunction*%
%TD*%
%TA.AperFunction,Conductor*%
%TO.N,N$1*%
G36*
X87507428Y-90426286D02*
G01*
X88053855Y-90944940D01*
X88057496Y-90953121D01*
X88057500Y-90953426D01*
X88057500Y-91146331D01*
X88054073Y-91154604D01*
X88053554Y-91155092D01*
X87507490Y-91638370D01*
X87499024Y-91641287D01*
X87492287Y-91638632D01*
X86895967Y-91146331D01*
X86760055Y-91034127D01*
X86755858Y-91026218D01*
X86758482Y-91017656D01*
X86760153Y-91016003D01*
X87492029Y-90425664D01*
X87500618Y-90423138D01*
X87507428Y-90426286D01*
G37*
%TD.AperFunction*%
%TD*%
%TA.AperFunction,Conductor*%
%TO.N,VBUS*%
G36*
X88755681Y-88615427D02*
G01*
X88758881Y-88621405D01*
X88855826Y-89106130D01*
X88854088Y-89114915D01*
X88852927Y-89116386D01*
X88365574Y-89641265D01*
X88357433Y-89644996D01*
X88349039Y-89641878D01*
X88348426Y-89641265D01*
X87861072Y-89116386D01*
X87857954Y-89107992D01*
X87858171Y-89106142D01*
X87955119Y-88621405D01*
X87960102Y-88613965D01*
X87966592Y-88612000D01*
X88747408Y-88612000D01*
X88755681Y-88615427D01*
G37*
%TD.AperFunction*%
%TD*%
%TA.AperFunction,Conductor*%
%TO.N,BURN_CTRL_2*%
G36*
X102042587Y-92447306D02*
G01*
X102048845Y-92453499D01*
X102465443Y-93425561D01*
X102465552Y-93434515D01*
X102462962Y-93438443D01*
X102331143Y-93570262D01*
X102322870Y-93573689D01*
X102321521Y-93573611D01*
X101695919Y-93501012D01*
X101688096Y-93496654D01*
X101685732Y-93491339D01*
X101545146Y-92658495D01*
X101547148Y-92649770D01*
X101552220Y-92645736D01*
X102033633Y-92447291D01*
X102042587Y-92447306D01*
G37*
%TD.AperFunction*%
%TD*%
%TA.AperFunction,Conductor*%
%TO.N,SDA*%
G36*
X85470738Y-98227052D02*
G01*
X86084746Y-98501396D01*
X86283868Y-98590366D01*
X86290023Y-98596870D01*
X86289913Y-98605504D01*
X86120762Y-99016200D01*
X86114443Y-99022544D01*
X86114400Y-99022562D01*
X85703704Y-99191713D01*
X85694749Y-99191695D01*
X85688566Y-99185668D01*
X85599596Y-98986546D01*
X85325252Y-98372540D01*
X85325007Y-98363592D01*
X85327660Y-98359499D01*
X85457698Y-98229461D01*
X85465970Y-98226035D01*
X85470738Y-98227052D01*
G37*
%TD.AperFunction*%
%TD*%
%TA.AperFunction,Conductor*%
%TO.N,SCL*%
G36*
X86921359Y-98229995D02*
G01*
X86921387Y-98230022D01*
X87461585Y-98773826D01*
X87464984Y-98782111D01*
X87461530Y-98790373D01*
X87459807Y-98791785D01*
X87122951Y-99017991D01*
X87114172Y-99019758D01*
X87114130Y-99019750D01*
X86753102Y-98947447D01*
X86745663Y-98942462D01*
X86743700Y-98935975D01*
X86743700Y-98592296D01*
X86743787Y-98590873D01*
X86771204Y-98367112D01*
X86774542Y-98360266D01*
X86904814Y-98229994D01*
X86913086Y-98226568D01*
X86921359Y-98229995D01*
G37*
%TD.AperFunction*%
%TD*%
%TA.AperFunction,Conductor*%
%TO.N,VBUS*%
G36*
X89353227Y-89081745D02*
G01*
X89356990Y-89089870D01*
X89357000Y-89090350D01*
X89357000Y-89870133D01*
X89353573Y-89878406D01*
X89349510Y-89881049D01*
X88863451Y-90068528D01*
X88854499Y-90068308D01*
X88851709Y-90066565D01*
X88362051Y-89654591D01*
X88357926Y-89646642D01*
X88358467Y-89641989D01*
X88530065Y-89119704D01*
X88535903Y-89112915D01*
X88540698Y-89111667D01*
X89344822Y-89078660D01*
X89353227Y-89081745D01*
G37*
%TD.AperFunction*%
%TD*%
%TA.AperFunction,Conductor*%
%TO.N,D-*%
G36*
X87694857Y-93049927D02*
G01*
X87698144Y-93056397D01*
X87719562Y-93193696D01*
X87719105Y-93199190D01*
X87606103Y-93539102D01*
X87600241Y-93545872D01*
X87591309Y-93546514D01*
X87584539Y-93540652D01*
X87583897Y-93539102D01*
X87470894Y-93199190D01*
X87470437Y-93193696D01*
X87491856Y-93056397D01*
X87496517Y-93048751D01*
X87503416Y-93046500D01*
X87686584Y-93046500D01*
X87694857Y-93049927D01*
G37*
%TD.AperFunction*%
%TD*%
%TA.AperFunction,Conductor*%
%TO.N,N$5*%
G36*
X87814994Y-84550455D02*
G01*
X88036128Y-84683634D01*
X88501751Y-84964058D01*
X88507070Y-84971262D01*
X88505831Y-84979959D01*
X88223638Y-85465661D01*
X88216519Y-85471093D01*
X88214913Y-85471400D01*
X87695333Y-85533632D01*
X87686711Y-85531213D01*
X87682325Y-85523406D01*
X87682244Y-85522256D01*
X87665834Y-84692136D01*
X87669097Y-84683799D01*
X87669205Y-84683689D01*
X87800688Y-84552205D01*
X87808960Y-84548779D01*
X87814994Y-84550455D01*
G37*
%TD.AperFunction*%
%TD*%
%TA.AperFunction,Conductor*%
%TO.N,Net-(Q2-DRAIN2-Pad5)*%
G36*
X122073810Y-95051237D02*
G01*
X122227447Y-95107657D01*
X122234032Y-95113726D01*
X122234350Y-95114482D01*
X122633562Y-96164616D01*
X122633299Y-96173567D01*
X122626784Y-96179710D01*
X122622626Y-96180474D01*
X121443111Y-96180474D01*
X121436653Y-96178530D01*
X120193186Y-95355499D01*
X120188179Y-95348076D01*
X120188985Y-95340919D01*
X120291460Y-95114482D01*
X120565516Y-94508906D01*
X120572049Y-94502783D01*
X120580206Y-94502748D01*
X122073810Y-95051237D01*
G37*
%TD.AperFunction*%
%TD*%
%TA.AperFunction,Conductor*%
%TO.N,VBUS*%
G36*
X82977589Y-93597322D02*
G01*
X83689652Y-93615175D01*
X83697836Y-93618808D01*
X83701054Y-93627164D01*
X83700965Y-93628340D01*
X83667120Y-93895697D01*
X83662682Y-93903475D01*
X83658259Y-93905601D01*
X83096367Y-94041284D01*
X83087521Y-94039895D01*
X83085822Y-94038632D01*
X82802257Y-93785050D01*
X82798374Y-93776981D01*
X82801335Y-93768530D01*
X82801765Y-93768074D01*
X82969094Y-93600745D01*
X82977366Y-93597319D01*
X82977589Y-93597322D01*
G37*
%TD.AperFunction*%
%TD*%
%TA.AperFunction,Conductor*%
%TO.N,BURN_CTRL_1*%
G36*
X96590334Y-91728838D02*
G01*
X96591343Y-91729737D01*
X96723162Y-91861556D01*
X96726589Y-91869829D01*
X96725643Y-91874438D01*
X96309045Y-92846500D01*
X96302636Y-92852754D01*
X96293832Y-92852708D01*
X95812424Y-92654265D01*
X95806081Y-92647944D01*
X95805346Y-92641504D01*
X95945932Y-91808660D01*
X95950687Y-91801074D01*
X95956117Y-91798987D01*
X96581721Y-91726388D01*
X96590334Y-91728838D01*
G37*
%TD.AperFunction*%
%TD*%
%TA.AperFunction,Conductor*%
%TO.N,N$2*%
G36*
X89907961Y-91357660D02*
G01*
X89908793Y-91358471D01*
X90393568Y-91880573D01*
X90396686Y-91888966D01*
X90394579Y-91895242D01*
X90053493Y-92382509D01*
X90045941Y-92387322D01*
X90043908Y-92387500D01*
X89855414Y-92387500D01*
X89847141Y-92384073D01*
X89846496Y-92383374D01*
X89431900Y-91895215D01*
X89429157Y-91886691D01*
X89432039Y-91879908D01*
X89891450Y-91358699D01*
X89899489Y-91354760D01*
X89907961Y-91357660D01*
G37*
%TD.AperFunction*%
%TD*%
%TA.AperFunction,Conductor*%
%TO.N,Net-(H2-Pad1)*%
G36*
X125825293Y-82640107D02*
G01*
X125828505Y-82646503D01*
X126161683Y-84785110D01*
X126159570Y-84793812D01*
X126156497Y-84796722D01*
X124952907Y-85578803D01*
X124946532Y-85580692D01*
X124758400Y-85580692D01*
X124750127Y-85577265D01*
X124747314Y-85572734D01*
X124270303Y-84159560D01*
X124270904Y-84150625D01*
X124273190Y-84147471D01*
X125808749Y-82639954D01*
X125817052Y-82636604D01*
X125825293Y-82640107D01*
G37*
%TD.AperFunction*%
%TD*%
%TA.AperFunction,Conductor*%
%TO.N,VBUS*%
G36*
X84519493Y-88897334D02*
G01*
X84526467Y-88902950D01*
X84527900Y-88908561D01*
X84527900Y-89297438D01*
X84524473Y-89305711D01*
X84519492Y-89308665D01*
X84244807Y-89389207D01*
X84236290Y-89388448D01*
X83685372Y-89113468D01*
X83679500Y-89106708D01*
X83680129Y-89097775D01*
X83685372Y-89092532D01*
X84053954Y-88908561D01*
X84236291Y-88817550D01*
X84244806Y-88816792D01*
X84519493Y-88897334D01*
G37*
%TD.AperFunction*%
%TD*%
%TA.AperFunction,Conductor*%
%TO.N,BURN_CTRL_1*%
G36*
X103507769Y-90084352D02*
G01*
X103826284Y-90538280D01*
X103828231Y-90547020D01*
X103826284Y-90551720D01*
X103507917Y-91005435D01*
X103500360Y-91010239D01*
X103492244Y-91008702D01*
X102885604Y-90638420D01*
X102880328Y-90631184D01*
X102880000Y-90628433D01*
X102880000Y-90441750D01*
X102883427Y-90433477D01*
X102885840Y-90431623D01*
X103492336Y-90080942D01*
X103501213Y-90079769D01*
X103507769Y-90084352D01*
G37*
%TD.AperFunction*%
%TD*%
%TA.AperFunction,Conductor*%
%TO.N,VDC*%
G36*
X98332902Y-91956561D02*
G01*
X98837629Y-92196824D01*
X98843626Y-92203474D01*
X98844300Y-92207388D01*
X98844300Y-92395787D01*
X98841616Y-92403244D01*
X98351216Y-92996146D01*
X98343302Y-93000337D01*
X98335442Y-92998240D01*
X97852730Y-92656673D01*
X97847956Y-92649097D01*
X97849852Y-92640487D01*
X98318239Y-91960488D01*
X98325754Y-91955620D01*
X98332902Y-91956561D01*
G37*
%TD.AperFunction*%
%TD*%
%TA.AperFunction,Conductor*%
%TO.N,VDC*%
G36*
X115081014Y-86057799D02*
G01*
X115083224Y-86060876D01*
X115640614Y-87185342D01*
X115641218Y-87194276D01*
X115636641Y-87200259D01*
X114986510Y-87635640D01*
X114977729Y-87637397D01*
X114973490Y-87635640D01*
X114323358Y-87200259D01*
X114318390Y-87192809D01*
X114319385Y-87185342D01*
X114876776Y-86060876D01*
X114883521Y-86054985D01*
X114887259Y-86054372D01*
X115072741Y-86054372D01*
X115081014Y-86057799D01*
G37*
%TD.AperFunction*%
%TD*%
%TA.AperFunction,Conductor*%
%TO.N,N$9*%
G36*
X88059115Y-99802009D02*
G01*
X88190345Y-99933239D01*
X88193772Y-99941512D01*
X88193715Y-99942670D01*
X88108735Y-100797388D01*
X88104506Y-100805281D01*
X88095934Y-100807873D01*
X88095181Y-100807773D01*
X87574943Y-100721642D01*
X87567341Y-100716910D01*
X87566566Y-100715671D01*
X87303624Y-100230127D01*
X87302697Y-100221220D01*
X87308178Y-100214356D01*
X88045109Y-99800082D01*
X88054000Y-99799016D01*
X88059115Y-99802009D01*
G37*
%TD.AperFunction*%
%TD*%
%TA.AperFunction,Conductor*%
%TO.N,N$5*%
G36*
X87109843Y-83956673D02*
G01*
X87110329Y-83956892D01*
X87715768Y-84247987D01*
X87877736Y-84325862D01*
X87883707Y-84332536D01*
X87883249Y-84341396D01*
X87794279Y-84530147D01*
X87791969Y-84533431D01*
X87657831Y-84667569D01*
X87649558Y-84670996D01*
X87644530Y-84669861D01*
X86947402Y-84338109D01*
X86941405Y-84331459D01*
X86941659Y-84322976D01*
X87094503Y-83962870D01*
X87100889Y-83956595D01*
X87109843Y-83956673D01*
G37*
%TD.AperFunction*%
%TD*%
%TA.AperFunction,Conductor*%
%TO.N,VDC*%
G36*
X115081014Y-83507799D02*
G01*
X115083224Y-83510876D01*
X115640614Y-84635342D01*
X115641218Y-84644276D01*
X115636641Y-84650259D01*
X114986510Y-85085640D01*
X114977729Y-85087397D01*
X114973490Y-85085640D01*
X114323358Y-84650259D01*
X114318390Y-84642809D01*
X114319385Y-84635342D01*
X114876776Y-83510876D01*
X114883521Y-83504985D01*
X114887259Y-83504372D01*
X115072741Y-83504372D01*
X115081014Y-83507799D01*
G37*
%TD.AperFunction*%
%TD*%
%TA.AperFunction,Conductor*%
%TO.N,VDC*%
G36*
X121880688Y-84294860D02*
G01*
X121885813Y-84302203D01*
X121885858Y-84302420D01*
X122040130Y-85073060D01*
X122040130Y-85077654D01*
X121885475Y-85850207D01*
X121880491Y-85857646D01*
X121873553Y-85859601D01*
X120466212Y-85805433D01*
X120458077Y-85801691D01*
X120454962Y-85793742D01*
X120454962Y-84614406D01*
X120458389Y-84606133D01*
X120464147Y-84602979D01*
X121871874Y-84293290D01*
X121880688Y-84294860D01*
G37*
%TD.AperFunction*%
%TD*%
%TA.AperFunction,Conductor*%
%TO.N,N$3*%
G36*
X87605708Y-96603195D02*
G01*
X87606447Y-96604933D01*
X87719149Y-96943940D01*
X87719643Y-96949177D01*
X87701354Y-97086346D01*
X87696864Y-97094094D01*
X87689757Y-97096500D01*
X87509676Y-97096500D01*
X87501403Y-97093073D01*
X87498184Y-97086995D01*
X87474235Y-96961616D01*
X87474559Y-96955934D01*
X87584177Y-96605132D01*
X87589915Y-96598260D01*
X87598834Y-96597457D01*
X87605708Y-96603195D01*
G37*
%TD.AperFunction*%
%TD*%
%TA.AperFunction,Conductor*%
%TO.N,VDC*%
G36*
X122630899Y-86722952D02*
G01*
X122634326Y-86731225D01*
X122633562Y-86735383D01*
X122234349Y-87785515D01*
X122228206Y-87792030D01*
X122227446Y-87792340D01*
X120580208Y-88397251D01*
X120571261Y-88396886D01*
X120565516Y-88391092D01*
X120188985Y-87559079D01*
X120188696Y-87550129D01*
X120193184Y-87544500D01*
X121436653Y-86721469D01*
X121443111Y-86719525D01*
X122622626Y-86719525D01*
X122630899Y-86722952D01*
G37*
%TD.AperFunction*%
%TD*%
%TA.AperFunction,Conductor*%
%TO.N,Net-(Q2-DRAIN1-Pad7)*%
G36*
X115753923Y-95412929D02*
G01*
X115761361Y-95417912D01*
X115763228Y-95425900D01*
X115581318Y-96833428D01*
X115576860Y-96841193D01*
X115569715Y-96843628D01*
X114390285Y-96843628D01*
X114382012Y-96840201D01*
X114378682Y-96833428D01*
X114196771Y-95425900D01*
X114199109Y-95417256D01*
X114206074Y-95412929D01*
X114977707Y-95258459D01*
X114982293Y-95258459D01*
X115753923Y-95412929D01*
G37*
%TD.AperFunction*%
%TD*%
%TA.AperFunction,Conductor*%
%TO.N,Net-(Q2-DRAIN1-Pad7)*%
G36*
X115753345Y-95412813D02*
G01*
X115760784Y-95417797D01*
X115762557Y-95426390D01*
X115505097Y-96834033D01*
X115500238Y-96841555D01*
X115493588Y-96843628D01*
X114314191Y-96843628D01*
X114305918Y-96840201D01*
X114302524Y-96832810D01*
X114196152Y-95425394D01*
X114198946Y-95416886D01*
X114205521Y-95413040D01*
X114977707Y-95258459D01*
X114982293Y-95258459D01*
X115753345Y-95412813D01*
G37*
%TD.AperFunction*%
%TD*%
%TA.AperFunction,Conductor*%
%TO.N,VDC*%
G36*
X93627843Y-91839458D02*
G01*
X93946284Y-92293280D01*
X93948231Y-92302020D01*
X93946284Y-92306720D01*
X93627843Y-92760541D01*
X93620286Y-92765345D01*
X93612289Y-92763879D01*
X93005723Y-92403401D01*
X93000361Y-92396228D01*
X93000000Y-92393343D01*
X93000000Y-92206656D01*
X93003427Y-92198383D01*
X93005718Y-92196601D01*
X93612289Y-91836119D01*
X93621151Y-91834839D01*
X93627843Y-91839458D01*
G37*
%TD.AperFunction*%
%TD*%
%TA.AperFunction,Conductor*%
%TO.N,VDC*%
G36*
X115582856Y-86726459D02*
G01*
X115605598Y-86740766D01*
X116858978Y-87529267D01*
X116864156Y-87536572D01*
X116863456Y-87543883D01*
X116497238Y-88375808D01*
X116490769Y-88381999D01*
X116482743Y-88382164D01*
X114827725Y-87815949D01*
X114821006Y-87810029D01*
X114820678Y-87809295D01*
X114386543Y-86740766D01*
X114386603Y-86731811D01*
X114392978Y-86725523D01*
X114397382Y-86724662D01*
X115576626Y-86724662D01*
X115582856Y-86726459D01*
G37*
%TD.AperFunction*%
%TD*%
%TA.AperFunction,Conductor*%
%TO.N,N$9*%
G36*
X89273290Y-98049924D02*
G01*
X89939634Y-98556846D01*
X89944143Y-98564583D01*
X89941992Y-98573068D01*
X89527625Y-99139253D01*
X89519973Y-99143905D01*
X89511274Y-99141785D01*
X88734923Y-98572094D01*
X88730281Y-98564437D01*
X88732412Y-98555739D01*
X88733799Y-98554166D01*
X89123738Y-98185159D01*
X89257934Y-98050962D01*
X89266206Y-98047536D01*
X89273290Y-98049924D01*
G37*
%TD.AperFunction*%
%TD*%
%TA.AperFunction,Conductor*%
%TO.N,VDC*%
G36*
X115753923Y-85242929D02*
G01*
X115761361Y-85247912D01*
X115763228Y-85255900D01*
X115581318Y-86663428D01*
X115576860Y-86671193D01*
X115569715Y-86673628D01*
X114390285Y-86673628D01*
X114382012Y-86670201D01*
X114378682Y-86663428D01*
X114196771Y-85255900D01*
X114199109Y-85247256D01*
X114206074Y-85242929D01*
X114977707Y-85088459D01*
X114982293Y-85088459D01*
X115753923Y-85242929D01*
G37*
%TD.AperFunction*%
%TD*%
%TA.AperFunction,Conductor*%
%TO.N,N$6*%
G36*
X84802831Y-84477785D02*
G01*
X85379627Y-84967989D01*
X85383712Y-84975958D01*
X85381526Y-84983767D01*
X85032767Y-85465276D01*
X85025138Y-85469966D01*
X85016428Y-85467889D01*
X85015314Y-85466972D01*
X85013494Y-85465276D01*
X84492405Y-84979572D01*
X84488690Y-84971425D01*
X84488965Y-84968460D01*
X84597505Y-84484140D01*
X84602658Y-84476818D01*
X84608922Y-84475000D01*
X84795254Y-84475000D01*
X84802831Y-84477785D01*
G37*
%TD.AperFunction*%
%TD*%
%TA.AperFunction,Conductor*%
%TO.N,N$3*%
G36*
X88033488Y-97480146D02*
G01*
X88423706Y-97778179D01*
X88428200Y-97785924D01*
X88426353Y-97793945D01*
X88269144Y-98030899D01*
X88261715Y-98035898D01*
X88261671Y-98035907D01*
X88261646Y-98035912D01*
X87983121Y-98090513D01*
X87974343Y-98088742D01*
X87969389Y-98081283D01*
X87969362Y-98081143D01*
X87885041Y-97621393D01*
X87886919Y-97612640D01*
X87888270Y-97611018D01*
X88018117Y-97481171D01*
X88026389Y-97477745D01*
X88033488Y-97480146D01*
G37*
%TD.AperFunction*%
%TD*%
%TA.AperFunction,Conductor*%
%TO.N,GND*%
G36*
X102796637Y-92016333D02*
G01*
X102843094Y-92068520D01*
X102854554Y-92119554D01*
X102855000Y-92120000D01*
X103706000Y-92120000D01*
X103773039Y-92139685D01*
X103818794Y-92192489D01*
X103830000Y-92244000D01*
X103830000Y-92496000D01*
X103810315Y-92563039D01*
X103757511Y-92608794D01*
X103706000Y-92620000D01*
X102855001Y-92620000D01*
X102855001Y-92669154D01*
X102865319Y-92770152D01*
X102919546Y-92933800D01*
X102919551Y-92933811D01*
X103010052Y-93080534D01*
X103010055Y-93080538D01*
X103131961Y-93202444D01*
X103131965Y-93202447D01*
X103225210Y-93259962D01*
X103271935Y-93311910D01*
X103283156Y-93380872D01*
X103255313Y-93444954D01*
X103197244Y-93483810D01*
X103160113Y-93489500D01*
X102860133Y-93489500D01*
X102830692Y-93480855D01*
X102800706Y-93474332D01*
X102795690Y-93470577D01*
X102793094Y-93469815D01*
X102772452Y-93453181D01*
X102664046Y-93344775D01*
X102637753Y-93305940D01*
X102637036Y-93304266D01*
X102380831Y-92706456D01*
X102372517Y-92637086D01*
X102381329Y-92607624D01*
X102617526Y-92071540D01*
X102662570Y-92018129D01*
X102729340Y-91997548D01*
X102796637Y-92016333D01*
G37*
%TD.AperFunction*%
%TA.AperFunction,Conductor*%
G36*
X109784642Y-80570512D02*
G01*
X109830399Y-80623314D01*
X109840344Y-80692472D01*
X109827240Y-80728652D01*
X109828696Y-80729331D01*
X109825641Y-80735881D01*
X109770494Y-80902303D01*
X109770493Y-80902310D01*
X109760000Y-81005014D01*
X109760000Y-82055000D01*
X111186000Y-82055000D01*
X111253039Y-82074685D01*
X111298794Y-82127489D01*
X111310000Y-82179000D01*
X111310000Y-82431000D01*
X111290315Y-82498039D01*
X111237511Y-82543794D01*
X111186000Y-82555000D01*
X109760000Y-82555000D01*
X109760000Y-83604985D01*
X109770493Y-83707689D01*
X109770494Y-83707696D01*
X109825641Y-83874118D01*
X109825643Y-83874123D01*
X109917684Y-84023344D01*
X110041655Y-84147315D01*
X110086476Y-84174961D01*
X110133200Y-84226909D01*
X110144423Y-84295872D01*
X110116579Y-84359954D01*
X110058511Y-84398810D01*
X110021379Y-84404500D01*
X109377255Y-84404500D01*
X109310216Y-84384815D01*
X109289574Y-84368181D01*
X109198347Y-84276954D01*
X109198344Y-84276952D01*
X109198342Y-84276950D01*
X109114384Y-84234171D01*
X109085301Y-84219352D01*
X108991524Y-84204500D01*
X108528482Y-84204500D01*
X108447519Y-84217323D01*
X108434696Y-84219354D01*
X108321658Y-84276950D01*
X108321657Y-84276951D01*
X108321652Y-84276954D01*
X108225049Y-84373558D01*
X108223006Y-84371515D01*
X108179984Y-84404689D01*
X108110370Y-84410665D01*
X108048576Y-84378057D01*
X108042905Y-84371512D01*
X107948347Y-84276954D01*
X107948344Y-84276952D01*
X107948342Y-84276950D01*
X107864384Y-84234171D01*
X107835301Y-84219352D01*
X107741524Y-84204500D01*
X107278482Y-84204500D01*
X107216976Y-84214241D01*
X107184696Y-84219354D01*
X107184694Y-84219354D01*
X107184693Y-84219355D01*
X107180514Y-84221484D01*
X107111844Y-84234375D01*
X107047106Y-84208094D01*
X107018112Y-84175148D01*
X107015078Y-84170130D01*
X106894875Y-84049926D01*
X106749395Y-83961980D01*
X106749396Y-83961980D01*
X106587105Y-83911409D01*
X106587106Y-83911409D01*
X106516572Y-83905000D01*
X106510000Y-83905000D01*
X106510000Y-85760000D01*
X106511662Y-85761662D01*
X106573039Y-85779685D01*
X106618794Y-85832489D01*
X106630000Y-85884000D01*
X106630000Y-87887295D01*
X106630001Y-87887295D01*
X106632486Y-87887100D01*
X106790198Y-87841281D01*
X106931552Y-87757685D01*
X106931561Y-87757678D01*
X107047678Y-87641561D01*
X107047685Y-87641552D01*
X107131281Y-87500197D01*
X107166913Y-87377551D01*
X107176559Y-87362445D01*
X107181586Y-87345244D01*
X107194972Y-87333613D01*
X107204519Y-87318665D01*
X107220800Y-87311172D01*
X107234329Y-87299419D01*
X107251879Y-87296872D01*
X107267991Y-87289458D01*
X107285738Y-87291958D01*
X107303475Y-87289384D01*
X107319617Y-87296730D01*
X107337178Y-87299204D01*
X107350755Y-87310900D01*
X107367069Y-87318325D01*
X107382254Y-87338037D01*
X107390113Y-87344807D01*
X107390217Y-87344968D01*
X107394182Y-87351120D01*
X107440802Y-87446483D01*
X107478473Y-87484154D01*
X107497386Y-87508264D01*
X107536255Y-87541621D01*
X107574309Y-87600217D01*
X107577440Y-87621634D01*
X107578439Y-87621503D01*
X107579499Y-87629559D01*
X107599979Y-87705990D01*
X107599982Y-87705995D01*
X107639535Y-87774504D01*
X107639539Y-87774509D01*
X107639540Y-87774511D01*
X107695489Y-87830460D01*
X107695491Y-87830461D01*
X107695495Y-87830464D01*
X107751729Y-87862930D01*
X107764011Y-87870021D01*
X107840438Y-87890500D01*
X107840440Y-87890500D01*
X107919560Y-87890500D01*
X107919562Y-87890500D01*
X107995989Y-87870021D01*
X108064511Y-87830460D01*
X108120460Y-87774511D01*
X108160021Y-87705989D01*
X108180500Y-87629562D01*
X108180500Y-87629559D01*
X108181561Y-87621503D01*
X108184558Y-87621897D01*
X108189227Y-87605996D01*
X108195966Y-87575748D01*
X108199318Y-87571628D01*
X108200185Y-87568679D01*
X108217258Y-87547600D01*
X108220397Y-87544491D01*
X108262613Y-87508263D01*
X108296511Y-87469169D01*
X108319198Y-87446483D01*
X108370573Y-87341393D01*
X108380500Y-87273260D01*
X108380500Y-87192190D01*
X108400185Y-87125151D01*
X108452989Y-87079396D01*
X108522147Y-87069452D01*
X108585703Y-87098477D01*
X108619061Y-87144738D01*
X108670602Y-87269172D01*
X108670609Y-87269185D01*
X108758210Y-87400288D01*
X108758213Y-87400292D01*
X108869707Y-87511786D01*
X108869711Y-87511789D01*
X109000814Y-87599390D01*
X109000827Y-87599397D01*
X109114565Y-87646508D01*
X109146503Y-87659737D01*
X109301153Y-87690499D01*
X109301156Y-87690500D01*
X109301158Y-87690500D01*
X109458844Y-87690500D01*
X109458845Y-87690499D01*
X109613497Y-87659737D01*
X109759179Y-87599394D01*
X109890289Y-87511789D01*
X110740259Y-86661819D01*
X110801582Y-86628334D01*
X110827940Y-86625500D01*
X113532060Y-86625500D01*
X113561500Y-86634144D01*
X113591487Y-86640668D01*
X113596502Y-86644422D01*
X113599099Y-86645185D01*
X113619741Y-86661819D01*
X113739291Y-86781369D01*
X113772646Y-86842100D01*
X113985390Y-87797550D01*
X113980746Y-87867265D01*
X113939149Y-87923403D01*
X113873805Y-87948139D01*
X113864354Y-87948500D01*
X111872679Y-87948500D01*
X111660233Y-87979044D01*
X111660223Y-87979047D01*
X111454282Y-88039517D01*
X111259060Y-88128672D01*
X111259044Y-88128681D01*
X111078486Y-88244719D01*
X111078479Y-88244725D01*
X110916275Y-88385274D01*
X110916273Y-88385276D01*
X110775724Y-88547480D01*
X110775721Y-88547483D01*
X110659679Y-88728048D01*
X110659672Y-88728061D01*
X110570517Y-88923283D01*
X110510047Y-89129224D01*
X110510044Y-89129234D01*
X110479500Y-89341681D01*
X110479500Y-93556317D01*
X110510044Y-93768764D01*
X110510047Y-93768774D01*
X110570517Y-93974715D01*
X110659672Y-94169938D01*
X110659679Y-94169951D01*
X110734253Y-94285991D01*
X110766602Y-94336327D01*
X110775720Y-94350514D01*
X110916275Y-94512724D01*
X110990454Y-94577000D01*
X111078487Y-94653281D01*
X111187015Y-94723027D01*
X111259048Y-94769320D01*
X111259061Y-94769327D01*
X111454284Y-94858482D01*
X111454288Y-94858483D01*
X111454290Y-94858484D01*
X111660231Y-94918954D01*
X111660232Y-94918954D01*
X111660235Y-94918955D01*
X111723584Y-94928062D01*
X111872682Y-94949500D01*
X111914108Y-94949500D01*
X113870368Y-94949500D01*
X113937407Y-94969185D01*
X113983162Y-95021989D01*
X113993106Y-95091147D01*
X113991985Y-95097692D01*
X113979500Y-95160456D01*
X113979500Y-95357545D01*
X113989201Y-95406315D01*
X113990283Y-95434764D01*
X113991375Y-95434789D01*
X113991236Y-95440884D01*
X114073146Y-96524653D01*
X114073146Y-96543343D01*
X113991236Y-97627106D01*
X113991275Y-97632258D01*
X113990806Y-97632261D01*
X113989259Y-97661388D01*
X113979831Y-97708793D01*
X113979500Y-97710459D01*
X113979500Y-97907541D01*
X113979500Y-97907543D01*
X113979499Y-97907543D01*
X114017947Y-98100829D01*
X114017950Y-98100839D01*
X114093364Y-98282907D01*
X114093371Y-98282920D01*
X114202860Y-98446781D01*
X114202863Y-98446785D01*
X114342214Y-98586136D01*
X114342218Y-98586139D01*
X114506079Y-98695628D01*
X114506092Y-98695635D01*
X114683491Y-98769115D01*
X114688165Y-98771051D01*
X114688169Y-98771051D01*
X114688170Y-98771052D01*
X114881456Y-98809500D01*
X114881459Y-98809500D01*
X115078543Y-98809500D01*
X115208582Y-98783632D01*
X115271835Y-98771051D01*
X115453914Y-98695632D01*
X115617782Y-98586139D01*
X115757139Y-98446782D01*
X115866632Y-98282914D01*
X115942051Y-98100835D01*
X115958965Y-98015803D01*
X115980500Y-97907543D01*
X115980500Y-97710457D01*
X115973808Y-97676816D01*
X115968879Y-97652040D01*
X115966783Y-97619441D01*
X115967033Y-97615763D01*
X115967032Y-97615761D01*
X115967033Y-97615759D01*
X115829279Y-96549891D01*
X115829279Y-96518105D01*
X115837367Y-96455521D01*
X115862237Y-96263086D01*
X115890352Y-96199124D01*
X115919180Y-96174026D01*
X116904464Y-95554184D01*
X116970493Y-95535143D01*
X117912548Y-95535143D01*
X117912564Y-95535142D01*
X117972589Y-95528688D01*
X117987839Y-95523000D01*
X118108398Y-95478034D01*
X118224436Y-95391169D01*
X118311301Y-95275131D01*
X118361955Y-95139322D01*
X118362225Y-95136811D01*
X118368409Y-95079297D01*
X118368410Y-95079280D01*
X118368410Y-95008958D01*
X118370902Y-95000468D01*
X118369615Y-94991717D01*
X118380594Y-94967462D01*
X118388095Y-94941919D01*
X118394779Y-94936126D01*
X118398429Y-94928065D01*
X118420783Y-94913594D01*
X118440899Y-94896164D01*
X118451198Y-94893905D01*
X118457082Y-94890097D01*
X118491995Y-94884959D01*
X118570090Y-94884701D01*
X118637194Y-94904164D01*
X118683124Y-94956816D01*
X118694500Y-95008700D01*
X118694500Y-95094654D01*
X118700954Y-95154679D01*
X118751608Y-95290487D01*
X118751609Y-95290488D01*
X118838474Y-95406526D01*
X118936477Y-95479890D01*
X118954511Y-95493390D01*
X118954512Y-95493391D01*
X119090320Y-95544045D01*
X119150345Y-95550499D01*
X119150362Y-95550500D01*
X120078155Y-95550500D01*
X120145194Y-95570185D01*
X120146595Y-95571098D01*
X120586851Y-95862496D01*
X121104527Y-96205138D01*
X121110172Y-96208874D01*
X121110203Y-96208911D01*
X121110250Y-96208926D01*
X121110254Y-96208928D01*
X121132835Y-96235752D01*
X121155211Y-96262290D01*
X121155228Y-96262353D01*
X121155250Y-96262379D01*
X121164709Y-96296382D01*
X121185874Y-96460144D01*
X121189664Y-96489462D01*
X121189664Y-96521250D01*
X121052556Y-97582111D01*
X121052556Y-97582118D01*
X121052868Y-97588282D01*
X121050643Y-97618735D01*
X121039090Y-97676813D01*
X121039090Y-97676814D01*
X121039090Y-97676816D01*
X121039090Y-97873898D01*
X121039090Y-97873900D01*
X121039089Y-97873900D01*
X121077537Y-98067186D01*
X121077540Y-98067196D01*
X121152954Y-98249264D01*
X121152961Y-98249277D01*
X121262450Y-98413138D01*
X121262453Y-98413142D01*
X121401804Y-98552493D01*
X121401808Y-98552496D01*
X121565669Y-98661985D01*
X121565682Y-98661992D01*
X121714699Y-98723716D01*
X121747755Y-98737408D01*
X121747759Y-98737408D01*
X121747760Y-98737409D01*
X121941046Y-98775857D01*
X121941049Y-98775857D01*
X122138133Y-98775857D01*
X122268172Y-98749989D01*
X122331425Y-98737408D01*
X122513504Y-98661989D01*
X122677372Y-98552496D01*
X122816729Y-98413139D01*
X122926222Y-98249271D01*
X122935261Y-98227450D01*
X122943311Y-98208012D01*
X123001641Y-98067192D01*
X123015763Y-97996195D01*
X123040090Y-97873900D01*
X123040090Y-97676814D01*
X123033530Y-97643838D01*
X123028469Y-97618397D01*
X123026373Y-97585798D01*
X123026623Y-97582120D01*
X123026623Y-97582117D01*
X123026623Y-97582116D01*
X122889515Y-96521248D01*
X122889515Y-96489461D01*
X122892597Y-96465616D01*
X123026623Y-95428597D01*
X123026311Y-95422433D01*
X123028536Y-95391980D01*
X123028698Y-95391169D01*
X123037023Y-95349315D01*
X123040090Y-95333899D01*
X123040090Y-95136813D01*
X123040089Y-95136811D01*
X123023627Y-95054048D01*
X123029854Y-94984457D01*
X123072717Y-94929279D01*
X123138607Y-94906035D01*
X123145244Y-94905857D01*
X127307000Y-94905857D01*
X127307004Y-94905858D01*
X127365938Y-94905857D01*
X127379819Y-94906637D01*
X127406598Y-94909654D01*
X127470152Y-94916814D01*
X127497222Y-94922992D01*
X127576421Y-94950706D01*
X127601428Y-94962749D01*
X127672479Y-95007394D01*
X127694185Y-95024706D01*
X127753507Y-95084031D01*
X127770819Y-95105740D01*
X127805197Y-95160456D01*
X127815459Y-95176788D01*
X127827503Y-95201800D01*
X127855213Y-95281002D01*
X127861389Y-95308068D01*
X127871613Y-95398846D01*
X127872392Y-95412722D01*
X127872392Y-95413982D01*
X127872389Y-95471221D01*
X127872392Y-95471234D01*
X127872393Y-95479890D01*
X127872393Y-98754224D01*
X127852708Y-98821263D01*
X127799904Y-98867018D01*
X127730746Y-98876962D01*
X127667190Y-98847937D01*
X127651446Y-98831537D01*
X127592734Y-98757915D01*
X127402084Y-98567265D01*
X127318560Y-98500657D01*
X127191289Y-98399162D01*
X126962997Y-98255716D01*
X126962994Y-98255714D01*
X126720082Y-98138734D01*
X126465602Y-98049687D01*
X126465589Y-98049683D01*
X126446407Y-98045305D01*
X126385428Y-98011196D01*
X126352571Y-97949534D01*
X126350000Y-97924414D01*
X126350000Y-97874999D01*
X126850000Y-97874999D01*
X126899140Y-97874999D01*
X126899154Y-97874998D01*
X127000152Y-97864680D01*
X127163800Y-97810453D01*
X127163811Y-97810448D01*
X127310534Y-97719947D01*
X127310538Y-97719944D01*
X127432444Y-97598038D01*
X127432447Y-97598034D01*
X127522948Y-97451311D01*
X127522953Y-97451300D01*
X127577180Y-97287652D01*
X127587499Y-97186654D01*
X127587500Y-97186641D01*
X127587500Y-97150000D01*
X126850000Y-97150000D01*
X126850000Y-97874999D01*
X126350000Y-97874999D01*
X126350000Y-96650000D01*
X126850000Y-96650000D01*
X127587499Y-96650000D01*
X127587499Y-96613360D01*
X127587498Y-96613345D01*
X127577180Y-96512347D01*
X127522953Y-96348699D01*
X127522948Y-96348688D01*
X127432447Y-96201965D01*
X127432444Y-96201961D01*
X127310538Y-96080055D01*
X127310534Y-96080052D01*
X127163811Y-95989551D01*
X127163800Y-95989546D01*
X127000152Y-95935319D01*
X126899154Y-95925000D01*
X126850000Y-95925000D01*
X126850000Y-96650000D01*
X126350000Y-96650000D01*
X126350000Y-95925000D01*
X126349999Y-95924999D01*
X126300861Y-95925000D01*
X126300843Y-95925001D01*
X126199847Y-95935319D01*
X126036199Y-95989546D01*
X126036188Y-95989551D01*
X125889465Y-96080052D01*
X125889461Y-96080055D01*
X125767555Y-96201961D01*
X125767552Y-96201965D01*
X125677051Y-96348688D01*
X125677046Y-96348699D01*
X125646393Y-96441206D01*
X125606620Y-96498651D01*
X125542105Y-96525474D01*
X125473329Y-96513159D01*
X125422129Y-96465616D01*
X125419057Y-96460144D01*
X125416617Y-96455529D01*
X125416616Y-96455525D01*
X125338211Y-96349289D01*
X125337397Y-96348688D01*
X125231976Y-96270884D01*
X125107348Y-96227274D01*
X125107349Y-96227274D01*
X125077760Y-96224500D01*
X125077756Y-96224500D01*
X124472244Y-96224500D01*
X124472240Y-96224500D01*
X124442650Y-96227274D01*
X124318023Y-96270884D01*
X124211789Y-96349288D01*
X124211788Y-96349289D01*
X124133384Y-96455523D01*
X124089774Y-96580150D01*
X124087000Y-96609739D01*
X124087000Y-97190260D01*
X124089774Y-97219849D01*
X124133384Y-97344476D01*
X124211788Y-97450710D01*
X124211789Y-97450711D01*
X124318022Y-97529115D01*
X124318025Y-97529116D01*
X124350048Y-97540321D01*
X124406823Y-97581041D01*
X124432571Y-97645994D01*
X124426307Y-97697821D01*
X124097726Y-98649763D01*
X124068195Y-98696984D01*
X124007265Y-98757915D01*
X123839161Y-98968712D01*
X123695714Y-99197005D01*
X123578734Y-99439917D01*
X123489687Y-99694397D01*
X123489684Y-99694405D01*
X123429688Y-99957268D01*
X123429686Y-99957280D01*
X123399500Y-100225186D01*
X123399500Y-100494813D01*
X123429686Y-100762719D01*
X123429687Y-100762728D01*
X123429688Y-100762732D01*
X123437281Y-100796000D01*
X123489684Y-101025594D01*
X123489687Y-101025602D01*
X123578734Y-101280082D01*
X123695714Y-101522994D01*
X123702753Y-101534197D01*
X123839162Y-101751289D01*
X123848094Y-101762489D01*
X124007265Y-101962084D01*
X124197915Y-102152734D01*
X124244334Y-102189752D01*
X124284474Y-102246940D01*
X124287324Y-102316752D01*
X124251979Y-102377022D01*
X124189660Y-102408615D01*
X124167021Y-102410699D01*
X81741423Y-102410699D01*
X81674384Y-102391014D01*
X81628629Y-102338210D01*
X81618685Y-102269052D01*
X81647710Y-102205496D01*
X81664111Y-102189751D01*
X81696485Y-102163934D01*
X81887134Y-101973285D01*
X82055238Y-101762489D01*
X82198684Y-101534197D01*
X82315667Y-101291279D01*
X82404716Y-101036791D01*
X82464712Y-100773932D01*
X82494900Y-100506009D01*
X82494900Y-100236391D01*
X82464712Y-99968468D01*
X82404716Y-99705609D01*
X82315667Y-99451121D01*
X82315664Y-99451116D01*
X82315661Y-99451107D01*
X82198685Y-99208205D01*
X82198684Y-99208203D01*
X82055238Y-98979911D01*
X81887134Y-98769115D01*
X81696485Y-98578466D01*
X81682439Y-98567265D01*
X81624928Y-98521401D01*
X82686800Y-98521401D01*
X82686800Y-99020560D01*
X83730000Y-99020560D01*
X83730000Y-98014000D01*
X83408502Y-98014000D01*
X83390194Y-98015803D01*
X83378041Y-98016400D01*
X83191797Y-98016400D01*
X83119929Y-98021540D01*
X82982018Y-98062034D01*
X82861096Y-98139745D01*
X82766967Y-98248376D01*
X82766966Y-98248377D01*
X82707256Y-98379121D01*
X82707255Y-98379125D01*
X82686800Y-98521401D01*
X81624928Y-98521401D01*
X81579997Y-98485570D01*
X81485689Y-98410362D01*
X81386775Y-98348210D01*
X81309040Y-98299365D01*
X81262749Y-98247030D01*
X81252101Y-98177976D01*
X81280476Y-98114128D01*
X81309917Y-98088831D01*
X81340539Y-98069943D01*
X81462444Y-97948038D01*
X81462447Y-97948034D01*
X81552948Y-97801311D01*
X81552953Y-97801300D01*
X81607180Y-97637652D01*
X81617499Y-97536654D01*
X81617500Y-97536641D01*
X81617500Y-97500000D01*
X80754000Y-97500000D01*
X80686961Y-97480315D01*
X80641206Y-97427511D01*
X80630000Y-97376000D01*
X80630000Y-97250000D01*
X80504000Y-97250000D01*
X80436961Y-97230315D01*
X80391206Y-97177511D01*
X80380000Y-97126000D01*
X80380000Y-97000000D01*
X80880000Y-97000000D01*
X81617499Y-97000000D01*
X81617499Y-96963360D01*
X81617498Y-96963345D01*
X81607180Y-96862347D01*
X81552953Y-96698699D01*
X81552948Y-96698688D01*
X81462447Y-96551965D01*
X81462444Y-96551961D01*
X81340538Y-96430055D01*
X81340534Y-96430052D01*
X81193811Y-96339551D01*
X81193800Y-96339546D01*
X81030152Y-96285319D01*
X80929154Y-96275000D01*
X80880000Y-96275000D01*
X80880000Y-97000000D01*
X80380000Y-97000000D01*
X80380000Y-96270050D01*
X80352469Y-96219629D01*
X80355732Y-96174023D01*
X80357454Y-96149939D01*
X80359076Y-96145818D01*
X80371969Y-96114692D01*
X80371969Y-96114691D01*
X80380262Y-96073000D01*
X81620538Y-96073000D01*
X81628830Y-96114690D01*
X81628830Y-96114692D01*
X81704207Y-96296671D01*
X81704214Y-96296684D01*
X81813648Y-96460462D01*
X81813651Y-96460466D01*
X81952933Y-96599748D01*
X81952937Y-96599751D01*
X82116715Y-96709185D01*
X82116728Y-96709192D01*
X82298706Y-96784569D01*
X82298718Y-96784572D01*
X82491904Y-96822999D01*
X82491908Y-96823000D01*
X82840400Y-96823000D01*
X83340400Y-96823000D01*
X83688892Y-96823000D01*
X83688895Y-96822999D01*
X83882081Y-96784572D01*
X83882093Y-96784569D01*
X84064071Y-96709192D01*
X84064084Y-96709185D01*
X84227862Y-96599751D01*
X84227866Y-96599748D01*
X84367148Y-96460466D01*
X84367151Y-96460462D01*
X84476585Y-96296684D01*
X84476592Y-96296671D01*
X84551969Y-96114692D01*
X84551969Y-96114690D01*
X84560262Y-96073000D01*
X83340400Y-96073000D01*
X83340400Y-96823000D01*
X82840400Y-96823000D01*
X82840400Y-96073000D01*
X81620538Y-96073000D01*
X80380262Y-96073000D01*
X79077388Y-96073000D01*
X79094605Y-96063060D01*
X79150460Y-96007205D01*
X79189956Y-95938796D01*
X79210400Y-95862496D01*
X79210400Y-95783504D01*
X79189956Y-95707204D01*
X79150460Y-95638795D01*
X79094605Y-95582940D01*
X79077388Y-95573000D01*
X79160400Y-95573000D01*
X80380262Y-95573000D01*
X80371969Y-95531309D01*
X80371969Y-95531307D01*
X80296592Y-95349328D01*
X80296585Y-95349315D01*
X80187151Y-95185537D01*
X80187148Y-95185533D01*
X80047866Y-95046251D01*
X80047862Y-95046248D01*
X79884084Y-94936814D01*
X79884071Y-94936807D01*
X79702093Y-94861430D01*
X79702081Y-94861427D01*
X79508895Y-94823000D01*
X79160400Y-94823000D01*
X79160400Y-95573000D01*
X79077388Y-95573000D01*
X79026196Y-95543444D01*
X78949896Y-95523000D01*
X78870904Y-95523000D01*
X78794604Y-95543444D01*
X78726195Y-95582940D01*
X78670340Y-95638795D01*
X78660400Y-95656011D01*
X78660400Y-94823000D01*
X78311910Y-94823000D01*
X78203090Y-94844645D01*
X78133499Y-94838417D01*
X78078322Y-94795553D01*
X78055078Y-94729663D01*
X78054900Y-94723027D01*
X78054900Y-90052852D01*
X80351699Y-90052852D01*
X80351699Y-90059905D01*
X80351699Y-90169137D01*
X80351700Y-90169150D01*
X80351700Y-93093239D01*
X80351699Y-93093257D01*
X80351699Y-93100852D01*
X80351699Y-93207148D01*
X80366938Y-93264019D01*
X80379211Y-93309823D01*
X80432359Y-93401878D01*
X80432361Y-93401880D01*
X80514587Y-93484106D01*
X80514593Y-93484111D01*
X80961018Y-93930536D01*
X80961028Y-93930547D01*
X80965358Y-93934877D01*
X80965359Y-93934878D01*
X81040522Y-94010041D01*
X81132577Y-94063189D01*
X81154044Y-94068941D01*
X81235252Y-94090701D01*
X81341548Y-94090701D01*
X81341552Y-94090700D01*
X81914000Y-94090700D01*
X81981039Y-94110385D01*
X82026794Y-94163189D01*
X82036738Y-94232347D01*
X82033777Y-94246780D01*
X82014900Y-94317234D01*
X82014900Y-94317236D01*
X82014900Y-94468765D01*
X82054119Y-94615136D01*
X82092002Y-94680750D01*
X82129885Y-94746365D01*
X82129887Y-94746367D01*
X82131936Y-94748416D01*
X82133111Y-94750569D01*
X82134832Y-94752811D01*
X82134482Y-94753079D01*
X82165421Y-94809739D01*
X82160437Y-94879431D01*
X82118565Y-94935364D01*
X82113146Y-94939199D01*
X81952937Y-95046248D01*
X81952933Y-95046251D01*
X81813651Y-95185533D01*
X81813648Y-95185537D01*
X81704214Y-95349315D01*
X81704207Y-95349328D01*
X81628830Y-95531307D01*
X81628830Y-95531309D01*
X81620538Y-95573000D01*
X82923412Y-95573000D01*
X82906195Y-95582940D01*
X82850340Y-95638795D01*
X82810844Y-95707204D01*
X82790400Y-95783504D01*
X82790400Y-95862496D01*
X82810844Y-95938796D01*
X82850340Y-96007205D01*
X82906195Y-96063060D01*
X82974604Y-96102556D01*
X83050904Y-96123000D01*
X83129896Y-96123000D01*
X83206196Y-96102556D01*
X83274605Y-96063060D01*
X83330460Y-96007205D01*
X83369956Y-95938796D01*
X83390400Y-95862496D01*
X83390400Y-95783504D01*
X83369956Y-95707204D01*
X83330460Y-95638795D01*
X83274605Y-95582940D01*
X83257388Y-95573000D01*
X84560262Y-95573000D01*
X84551969Y-95531308D01*
X84551969Y-95531307D01*
X84541574Y-95506212D01*
X84534104Y-95436743D01*
X84565378Y-95374263D01*
X84581828Y-95359487D01*
X84597588Y-95347690D01*
X84683752Y-95232588D01*
X84683754Y-95232586D01*
X84733996Y-95097879D01*
X84733998Y-95097872D01*
X84740399Y-95038344D01*
X84740400Y-95038327D01*
X84740400Y-94953000D01*
X83789400Y-94953000D01*
X83722361Y-94933315D01*
X83676606Y-94880511D01*
X83665400Y-94829000D01*
X83665400Y-94577000D01*
X83685085Y-94509961D01*
X83737889Y-94464206D01*
X83789400Y-94453000D01*
X84740400Y-94453000D01*
X84740400Y-94367672D01*
X84740399Y-94367655D01*
X84733998Y-94308127D01*
X84733996Y-94308120D01*
X84722688Y-94277800D01*
X84717704Y-94208109D01*
X84751189Y-94146786D01*
X84812512Y-94113301D01*
X84882204Y-94118285D01*
X84914307Y-94138917D01*
X84915555Y-94137291D01*
X84922001Y-94142237D01*
X84990894Y-94182014D01*
X85067724Y-94202599D01*
X85067728Y-94202600D01*
X85067731Y-94202600D01*
X85799271Y-94202600D01*
X85866310Y-94222285D01*
X85912065Y-94275089D01*
X85922889Y-94336327D01*
X85920000Y-94373032D01*
X85920000Y-94821500D01*
X87471000Y-94821500D01*
X87538039Y-94841185D01*
X87583794Y-94893989D01*
X87595000Y-94945500D01*
X87595000Y-95197500D01*
X87575315Y-95264539D01*
X87522511Y-95310294D01*
X87471000Y-95321500D01*
X85920001Y-95321500D01*
X85920001Y-95769969D01*
X85922935Y-95807252D01*
X85969315Y-95966895D01*
X85969319Y-95966902D01*
X86053940Y-96109991D01*
X86053949Y-96110003D01*
X86121806Y-96177860D01*
X86155291Y-96239183D01*
X86150307Y-96308875D01*
X86121806Y-96353222D01*
X85115489Y-97359540D01*
X85059541Y-97415487D01*
X85059535Y-97415495D01*
X85019982Y-97484004D01*
X85019979Y-97484009D01*
X84999500Y-97560439D01*
X84999500Y-97906552D01*
X84979815Y-97973591D01*
X84927011Y-98019346D01*
X84857854Y-98029290D01*
X84768200Y-98016400D01*
X84581959Y-98016400D01*
X84569806Y-98015803D01*
X84551498Y-98014000D01*
X84230000Y-98014000D01*
X84230000Y-99146560D01*
X84210315Y-99213599D01*
X84157511Y-99259354D01*
X84106000Y-99270560D01*
X83980000Y-99270560D01*
X83980000Y-99396560D01*
X83960315Y-99463599D01*
X83907511Y-99509354D01*
X83856000Y-99520560D01*
X83455453Y-99520560D01*
X83388414Y-99500875D01*
X83369440Y-99485878D01*
X83334356Y-99452092D01*
X83319925Y-99439439D01*
X83237528Y-99399759D01*
X83146072Y-99399759D01*
X83063672Y-99439440D01*
X83036213Y-99473874D01*
X82979025Y-99514013D01*
X82939267Y-99520560D01*
X82779979Y-99520560D01*
X82834704Y-99593665D01*
X82834713Y-99593675D01*
X82949981Y-99708942D01*
X82983466Y-99770265D01*
X82986300Y-99796624D01*
X82986300Y-101310604D01*
X82991451Y-101356328D01*
X83031133Y-101438726D01*
X83031134Y-101438727D01*
X83102637Y-101495749D01*
X83169228Y-101510948D01*
X83191795Y-101516099D01*
X83191800Y-101516100D01*
X83378041Y-101516100D01*
X83390194Y-101516697D01*
X83396467Y-101517314D01*
X83408500Y-101518500D01*
X83408502Y-101518500D01*
X84551498Y-101518500D01*
X84551500Y-101518500D01*
X84563532Y-101517314D01*
X84569806Y-101516697D01*
X84581959Y-101516100D01*
X84768203Y-101516100D01*
X84768203Y-101516099D01*
X84813928Y-101510948D01*
X84896327Y-101471266D01*
X84953349Y-101399763D01*
X84953349Y-101399761D01*
X84953350Y-101399761D01*
X84959411Y-101387176D01*
X84961947Y-101388397D01*
X84967521Y-101378428D01*
X84981930Y-101349636D01*
X84984463Y-101348132D01*
X84985902Y-101345560D01*
X85014322Y-101330411D01*
X85042015Y-101313976D01*
X85044960Y-101314080D01*
X85047560Y-101312695D01*
X85079656Y-101315316D01*
X85111840Y-101316462D01*
X85115048Y-101318206D01*
X85117198Y-101318382D01*
X85143403Y-101332256D01*
X85146855Y-101334652D01*
X85196247Y-101374166D01*
X85236207Y-101396798D01*
X85254269Y-101408867D01*
X85297588Y-101417483D01*
X85312386Y-101420863D01*
X85315136Y-101420500D01*
X86427248Y-101420500D01*
X86427250Y-101420500D01*
X86427251Y-101420499D01*
X86442415Y-101417483D01*
X86485729Y-101408868D01*
X86485729Y-101408867D01*
X86485731Y-101408867D01*
X86552052Y-101364552D01*
X86596367Y-101298231D01*
X86598382Y-101288099D01*
X86630767Y-101226188D01*
X86691483Y-101191614D01*
X86761252Y-101195353D01*
X86817924Y-101236219D01*
X86841618Y-101288100D01*
X86843633Y-101298231D01*
X86887947Y-101364552D01*
X86954269Y-101408867D01*
X86954270Y-101408868D01*
X87012747Y-101420499D01*
X87012750Y-101420500D01*
X87012752Y-101420500D01*
X88127246Y-101420500D01*
X88127248Y-101420500D01*
X88135728Y-101418813D01*
X88205317Y-101425039D01*
X88260496Y-101467900D01*
X88276103Y-101497097D01*
X88276549Y-101498292D01*
X88362709Y-101613387D01*
X88362712Y-101613390D01*
X88477806Y-101699550D01*
X88477813Y-101699554D01*
X88612520Y-101749796D01*
X88612527Y-101749798D01*
X88672055Y-101756199D01*
X88672072Y-101756200D01*
X89270000Y-101756200D01*
X89770000Y-101756200D01*
X90367928Y-101756200D01*
X90367944Y-101756199D01*
X90427472Y-101749798D01*
X90427479Y-101749796D01*
X90562186Y-101699554D01*
X90562193Y-101699550D01*
X90677287Y-101613390D01*
X90677290Y-101613387D01*
X90763450Y-101498293D01*
X90763454Y-101498286D01*
X90813696Y-101363579D01*
X90813698Y-101363572D01*
X90820099Y-101304044D01*
X90820100Y-101304027D01*
X90820100Y-100922000D01*
X89770000Y-100922000D01*
X89770000Y-101756200D01*
X89270000Y-101756200D01*
X89270000Y-100796000D01*
X89289685Y-100728961D01*
X89342489Y-100683206D01*
X89394000Y-100672000D01*
X89520000Y-100672000D01*
X89520000Y-100552000D01*
X89539685Y-100484961D01*
X89592489Y-100439206D01*
X89625481Y-100429391D01*
X89634690Y-100428000D01*
X89641348Y-100428000D01*
X89662354Y-100423821D01*
X89665205Y-100423391D01*
X89667047Y-100423642D01*
X89683724Y-100422000D01*
X90820100Y-100422000D01*
X90820100Y-100039972D01*
X90820099Y-100039955D01*
X90813698Y-99980427D01*
X90813696Y-99980420D01*
X90763454Y-99845713D01*
X90763450Y-99845706D01*
X90677290Y-99730612D01*
X90570288Y-99650509D01*
X90528418Y-99594575D01*
X90520600Y-99551243D01*
X90520600Y-98595730D01*
X91404000Y-98595730D01*
X91404000Y-99904269D01*
X91406853Y-99934699D01*
X91406853Y-99934701D01*
X91451706Y-100062880D01*
X91451707Y-100062882D01*
X91532350Y-100172150D01*
X91641618Y-100252793D01*
X91684345Y-100267744D01*
X91769799Y-100297646D01*
X91800230Y-100300500D01*
X91800234Y-100300500D01*
X92408770Y-100300500D01*
X92439199Y-100297646D01*
X92439201Y-100297646D01*
X92503290Y-100275219D01*
X92567382Y-100252793D01*
X92676650Y-100172150D01*
X92757293Y-100062882D01*
X92794249Y-99957268D01*
X92802146Y-99934701D01*
X92802146Y-99934699D01*
X92805000Y-99904269D01*
X92805000Y-98595730D01*
X95104000Y-98595730D01*
X95104000Y-99904269D01*
X95106853Y-99934699D01*
X95106853Y-99934701D01*
X95151706Y-100062880D01*
X95151707Y-100062882D01*
X95232350Y-100172150D01*
X95341618Y-100252793D01*
X95384345Y-100267744D01*
X95469799Y-100297646D01*
X95500230Y-100300500D01*
X95500234Y-100300500D01*
X96108770Y-100300500D01*
X96139199Y-100297646D01*
X96139201Y-100297646D01*
X96203290Y-100275219D01*
X96267382Y-100252793D01*
X96376650Y-100172150D01*
X96457293Y-100062882D01*
X96494249Y-99957268D01*
X96502146Y-99934701D01*
X96502146Y-99934699D01*
X96505000Y-99904269D01*
X96505000Y-98595730D01*
X97143800Y-98595730D01*
X97143800Y-99904269D01*
X97146653Y-99934699D01*
X97146653Y-99934701D01*
X97191506Y-100062880D01*
X97191507Y-100062882D01*
X97272150Y-100172150D01*
X97381418Y-100252793D01*
X97424145Y-100267744D01*
X97509599Y-100297646D01*
X97540030Y-100300500D01*
X97540034Y-100300500D01*
X98148570Y-100300500D01*
X98178999Y-100297646D01*
X98179001Y-100297646D01*
X98243090Y-100275219D01*
X98307182Y-100252793D01*
X98416450Y-100172150D01*
X98497093Y-100062882D01*
X98534049Y-99957268D01*
X98541946Y-99934701D01*
X98541946Y-99934699D01*
X98544800Y-99904269D01*
X98544800Y-98595730D01*
X100843800Y-98595730D01*
X100843800Y-99904269D01*
X100846653Y-99934699D01*
X100846653Y-99934701D01*
X100891506Y-100062880D01*
X100891507Y-100062882D01*
X100972150Y-100172150D01*
X101081418Y-100252793D01*
X101124145Y-100267744D01*
X101209599Y-100297646D01*
X101240030Y-100300500D01*
X101240034Y-100300500D01*
X101848570Y-100300500D01*
X101878999Y-100297646D01*
X101879001Y-100297646D01*
X101943090Y-100275219D01*
X102007182Y-100252793D01*
X102116450Y-100172150D01*
X102197093Y-100062882D01*
X102234049Y-99957268D01*
X102241946Y-99934701D01*
X102241946Y-99934699D01*
X102244800Y-99904269D01*
X102244800Y-98595730D01*
X102241946Y-98565300D01*
X102241946Y-98565298D01*
X102205630Y-98461515D01*
X102197093Y-98437118D01*
X102116450Y-98327850D01*
X102007182Y-98247207D01*
X102007180Y-98247206D01*
X101879000Y-98202353D01*
X101848570Y-98199500D01*
X101848566Y-98199500D01*
X101240034Y-98199500D01*
X101240030Y-98199500D01*
X101209600Y-98202353D01*
X101209598Y-98202353D01*
X101081419Y-98247206D01*
X101081417Y-98247207D01*
X100972150Y-98327850D01*
X100891507Y-98437117D01*
X100891506Y-98437119D01*
X100846653Y-98565298D01*
X100846653Y-98565300D01*
X100843800Y-98595730D01*
X98544800Y-98595730D01*
X98541946Y-98565300D01*
X98541946Y-98565298D01*
X98505630Y-98461515D01*
X98497093Y-98437118D01*
X98416450Y-98327850D01*
X98307182Y-98247207D01*
X98307180Y-98247206D01*
X98179000Y-98202353D01*
X98148570Y-98199500D01*
X98148566Y-98199500D01*
X97540034Y-98199500D01*
X97540030Y-98199500D01*
X97509600Y-98202353D01*
X97509598Y-98202353D01*
X97381419Y-98247206D01*
X97381417Y-98247207D01*
X97272150Y-98327850D01*
X97191507Y-98437117D01*
X97191506Y-98437119D01*
X97146653Y-98565298D01*
X97146653Y-98565300D01*
X97143800Y-98595730D01*
X96505000Y-98595730D01*
X96502146Y-98565300D01*
X96502146Y-98565298D01*
X96465830Y-98461515D01*
X96457293Y-98437118D01*
X96376650Y-98327850D01*
X96267382Y-98247207D01*
X96267380Y-98247206D01*
X96139200Y-98202353D01*
X96108770Y-98199500D01*
X96108766Y-98199500D01*
X95500234Y-98199500D01*
X95500230Y-98199500D01*
X95469800Y-98202353D01*
X95469798Y-98202353D01*
X95341619Y-98247206D01*
X95341617Y-98247207D01*
X95232350Y-98327850D01*
X95151707Y-98437117D01*
X95151706Y-98437119D01*
X95106853Y-98565298D01*
X95106853Y-98565300D01*
X95104000Y-98595730D01*
X92805000Y-98595730D01*
X92802146Y-98565300D01*
X92802146Y-98565298D01*
X92765830Y-98461515D01*
X92757293Y-98437118D01*
X92676650Y-98327850D01*
X92567382Y-98247207D01*
X92567380Y-98247206D01*
X92439200Y-98202353D01*
X92408770Y-98199500D01*
X92408766Y-98199500D01*
X91800234Y-98199500D01*
X91800230Y-98199500D01*
X91769800Y-98202353D01*
X91769798Y-98202353D01*
X91641619Y-98247206D01*
X91641617Y-98247207D01*
X91532350Y-98327850D01*
X91451707Y-98437117D01*
X91451706Y-98437119D01*
X91406853Y-98565298D01*
X91406853Y-98565300D01*
X91404000Y-98595730D01*
X90520600Y-98595730D01*
X90520600Y-98544049D01*
X90520599Y-98544047D01*
X90508968Y-98485570D01*
X90508967Y-98485569D01*
X90464652Y-98419247D01*
X90398330Y-98374932D01*
X90398329Y-98374931D01*
X90339852Y-98363300D01*
X90339848Y-98363300D01*
X90066434Y-98363300D01*
X89999395Y-98343615D01*
X89991357Y-98337988D01*
X89397717Y-97886375D01*
X89393472Y-97883660D01*
X89393913Y-97882969D01*
X89371000Y-97866029D01*
X88818431Y-97313460D01*
X88784946Y-97252137D01*
X88789930Y-97182445D01*
X88831802Y-97126512D01*
X88837188Y-97122700D01*
X88857577Y-97109077D01*
X88907417Y-97034486D01*
X88920500Y-96968711D01*
X88920499Y-96966781D01*
X88920786Y-96965806D01*
X88921097Y-96962650D01*
X88921695Y-96962708D01*
X88940175Y-96899744D01*
X88988511Y-96857848D01*
X88988067Y-96857078D01*
X88992062Y-96854771D01*
X88992973Y-96853982D01*
X88994826Y-96853175D01*
X88995107Y-96853013D01*
X89063994Y-96813240D01*
X89551740Y-96325494D01*
X89591513Y-96256607D01*
X89595920Y-96240162D01*
X89612099Y-96179775D01*
X89612100Y-96179772D01*
X89612100Y-96100228D01*
X89612100Y-95645911D01*
X89631785Y-95578872D01*
X89681930Y-95534368D01*
X90215072Y-95275457D01*
X90269241Y-95263000D01*
X90469750Y-95263000D01*
X90469751Y-95262999D01*
X90484568Y-95260052D01*
X90528229Y-95251368D01*
X90528229Y-95251367D01*
X90528231Y-95251367D01*
X90594552Y-95207052D01*
X90638867Y-95140731D01*
X90638867Y-95140729D01*
X90638868Y-95140729D01*
X90650499Y-95082252D01*
X90650500Y-95082250D01*
X90650500Y-93967749D01*
X90650499Y-93967747D01*
X90638868Y-93909270D01*
X90638867Y-93909269D01*
X90594552Y-93842947D01*
X90528231Y-93798633D01*
X90528221Y-93798631D01*
X90518099Y-93796617D01*
X90456188Y-93764233D01*
X90421614Y-93703517D01*
X90425353Y-93633748D01*
X90466219Y-93577076D01*
X90518099Y-93553382D01*
X90528231Y-93551367D01*
X90594552Y-93507052D01*
X90638867Y-93440731D01*
X90638867Y-93440729D01*
X90638868Y-93440729D01*
X90650499Y-93382252D01*
X90650500Y-93382250D01*
X90650500Y-92267749D01*
X90647613Y-92253240D01*
X90643725Y-92233693D01*
X90643572Y-92231035D01*
X90642374Y-92226900D01*
X90638867Y-92209269D01*
X90638866Y-92209267D01*
X90622082Y-92184148D01*
X90621705Y-92183580D01*
X90618106Y-92178130D01*
X90604167Y-92151247D01*
X90582360Y-92123989D01*
X90579241Y-92119264D01*
X90570579Y-92091057D01*
X90559385Y-92063758D01*
X90560437Y-92058033D01*
X90558730Y-92052472D01*
X90566673Y-92024130D01*
X90571896Y-91995730D01*
X91404000Y-91995730D01*
X91404000Y-93304269D01*
X91406853Y-93334699D01*
X91406853Y-93334701D01*
X91446849Y-93449000D01*
X91451707Y-93462882D01*
X91532350Y-93572150D01*
X91641618Y-93652793D01*
X91678576Y-93665725D01*
X91769799Y-93697646D01*
X91800230Y-93700500D01*
X91800234Y-93700500D01*
X92408770Y-93700500D01*
X92439199Y-93697646D01*
X92439201Y-93697646D01*
X92503290Y-93675219D01*
X92567382Y-93652793D01*
X92676650Y-93572150D01*
X92757293Y-93462882D01*
X92785508Y-93382248D01*
X92802146Y-93334701D01*
X92802146Y-93334699D01*
X92805000Y-93304269D01*
X92805000Y-93129161D01*
X92824685Y-93062122D01*
X92833444Y-93050134D01*
X93048643Y-92789956D01*
X93106538Y-92750844D01*
X93176390Y-92749242D01*
X93207543Y-92762393D01*
X93478742Y-92923565D01*
X93478746Y-92923567D01*
X93490670Y-92930653D01*
X93505525Y-92941616D01*
X93575134Y-92965973D01*
X93575234Y-92966011D01*
X93575249Y-92966013D01*
X93578029Y-92966985D01*
X93578903Y-92967368D01*
X93580457Y-92967835D01*
X93630151Y-92985225D01*
X93646591Y-92986766D01*
X93659740Y-92988000D01*
X93659744Y-92988000D01*
X94240260Y-92988000D01*
X94269849Y-92985225D01*
X94273390Y-92983986D01*
X94394475Y-92941616D01*
X94500711Y-92863211D01*
X94579116Y-92756975D01*
X94622725Y-92632349D01*
X94625500Y-92602756D01*
X94625500Y-91997244D01*
X94625358Y-91995734D01*
X94622725Y-91967650D01*
X94579743Y-91844818D01*
X94579116Y-91843025D01*
X94574757Y-91837119D01*
X94500711Y-91736789D01*
X94500710Y-91736788D01*
X94394476Y-91658384D01*
X94269848Y-91614774D01*
X94269849Y-91614774D01*
X94240260Y-91612000D01*
X94240256Y-91612000D01*
X93659744Y-91612000D01*
X93659740Y-91612000D01*
X93630150Y-91614774D01*
X93630148Y-91614774D01*
X93505525Y-91658383D01*
X93505523Y-91658384D01*
X93495645Y-91665674D01*
X93485369Y-91672494D01*
X93092664Y-91905877D01*
X93085048Y-91907826D01*
X93079027Y-91912879D01*
X93051683Y-91916368D01*
X93024977Y-91923205D01*
X93015757Y-91920952D01*
X93009719Y-91921723D01*
X92976017Y-91911243D01*
X92939563Y-91893890D01*
X92751201Y-91804224D01*
X92704730Y-91765898D01*
X92676650Y-91727850D01*
X92661661Y-91716788D01*
X92567382Y-91647207D01*
X92567380Y-91647206D01*
X92439200Y-91602353D01*
X92408770Y-91599500D01*
X92408766Y-91599500D01*
X91800234Y-91599500D01*
X91800230Y-91599500D01*
X91769800Y-91602353D01*
X91769798Y-91602353D01*
X91641619Y-91647206D01*
X91641617Y-91647207D01*
X91532350Y-91727850D01*
X91451707Y-91837117D01*
X91451706Y-91837119D01*
X91406853Y-91965298D01*
X91406853Y-91965300D01*
X91404000Y-91995730D01*
X90571896Y-91995730D01*
X90572015Y-91995083D01*
X90577134Y-91984939D01*
X90584732Y-91971917D01*
X90588867Y-91965731D01*
X90589277Y-91963664D01*
X90591268Y-91955217D01*
X90591492Y-91954392D01*
X90591500Y-91954370D01*
X90601296Y-91908070D01*
X90601295Y-91908063D01*
X90601346Y-91906759D01*
X90600500Y-91893890D01*
X90600500Y-91636403D01*
X90610526Y-91587557D01*
X90730043Y-91308684D01*
X90993454Y-90694056D01*
X91019743Y-90655227D01*
X92165000Y-89509971D01*
X92166888Y-89506701D01*
X92204561Y-89441449D01*
X92208264Y-89427626D01*
X92216752Y-89405028D01*
X92226425Y-89385352D01*
X92273664Y-89333876D01*
X92313511Y-89318442D01*
X92340731Y-89313028D01*
X92407052Y-89268713D01*
X92451367Y-89202392D01*
X92451367Y-89202390D01*
X92451368Y-89202390D01*
X92460066Y-89158660D01*
X92463000Y-89143909D01*
X92463000Y-88684413D01*
X92463000Y-88684410D01*
X92462999Y-88684408D01*
X92448985Y-88613951D01*
X92453278Y-88613097D01*
X92448296Y-88567298D01*
X92449146Y-88564403D01*
X92448985Y-88564371D01*
X92460068Y-88508646D01*
X92463000Y-88493909D01*
X92463000Y-88229907D01*
X92479612Y-88167908D01*
X92484117Y-88160106D01*
X92525040Y-88007379D01*
X92525040Y-87199265D01*
X92484117Y-87046538D01*
X92479610Y-87038731D01*
X92475461Y-87023245D01*
X92468023Y-87011672D01*
X92463000Y-86976737D01*
X92463000Y-86744408D01*
X93037000Y-86744408D01*
X93037000Y-86744413D01*
X93037000Y-89133909D01*
X93038185Y-89139867D01*
X93037831Y-89145106D01*
X93039230Y-89153951D01*
X93043044Y-89164297D01*
X93045000Y-89174132D01*
X93045038Y-89174327D01*
X93048631Y-89192386D01*
X93048632Y-89192389D01*
X93048633Y-89192392D01*
X93048634Y-89192393D01*
X93051111Y-89196100D01*
X93064352Y-89222093D01*
X93066963Y-89229176D01*
X93066964Y-89229178D01*
X93070159Y-89234394D01*
X93373335Y-89729376D01*
X93394361Y-89763703D01*
X93397872Y-89776694D01*
X93405702Y-89787635D01*
X93406808Y-89809762D01*
X93412590Y-89831153D01*
X93408596Y-89845501D01*
X93409193Y-89857418D01*
X93396153Y-89890215D01*
X93332908Y-90000362D01*
X93325154Y-90012237D01*
X93320883Y-90018024D01*
X93320882Y-90018026D01*
X93306045Y-90060424D01*
X93306046Y-90060425D01*
X93305649Y-90061558D01*
X93296402Y-90086492D01*
X93295768Y-90089793D01*
X93293021Y-90097646D01*
X93293019Y-90097654D01*
X93291433Y-90102187D01*
X93277274Y-90142653D01*
X93277274Y-90142656D01*
X93274500Y-90172239D01*
X93274500Y-90777760D01*
X93277274Y-90807349D01*
X93320884Y-90931976D01*
X93399288Y-91038210D01*
X93399289Y-91038211D01*
X93505523Y-91116615D01*
X93505524Y-91116615D01*
X93505525Y-91116616D01*
X93630151Y-91160225D01*
X93630150Y-91160225D01*
X93659740Y-91163000D01*
X93659744Y-91163000D01*
X94240260Y-91163000D01*
X94269849Y-91160225D01*
X94394475Y-91116616D01*
X94500711Y-91038211D01*
X94579116Y-90931975D01*
X94622725Y-90807349D01*
X94623822Y-90795654D01*
X94625500Y-90777760D01*
X94625500Y-90172239D01*
X94622725Y-90142650D01*
X94622725Y-90142648D01*
X94578466Y-90016166D01*
X94574903Y-89946387D01*
X94609632Y-89885760D01*
X94612370Y-89883209D01*
X95194563Y-89357469D01*
X95257511Y-89327149D01*
X95277669Y-89325500D01*
X95736445Y-89325500D01*
X95737270Y-89325502D01*
X95869266Y-89326382D01*
X96474426Y-89330416D01*
X96474426Y-89330415D01*
X96474430Y-89330416D01*
X96487801Y-89327802D01*
X96511586Y-89325500D01*
X99256219Y-89325500D01*
X99323258Y-89345185D01*
X99369013Y-89397989D01*
X99378957Y-89467147D01*
X99363753Y-89511245D01*
X99085947Y-89995067D01*
X99085941Y-89995079D01*
X99079369Y-90006526D01*
X99070884Y-90018025D01*
X99055664Y-90061519D01*
X99053822Y-90066482D01*
X99053809Y-90066514D01*
X99046403Y-90086484D01*
X99045407Y-90090054D01*
X99043022Y-90097646D01*
X99041433Y-90102187D01*
X99027274Y-90142653D01*
X99027274Y-90142656D01*
X99024500Y-90172239D01*
X99024500Y-90777760D01*
X99027274Y-90807348D01*
X99068284Y-90924544D01*
X99071847Y-90994323D01*
X99037118Y-91054951D01*
X98975125Y-91087178D01*
X98951243Y-91089500D01*
X97024938Y-91089500D01*
X96986724Y-91099739D01*
X96948509Y-91109979D01*
X96948508Y-91109980D01*
X96885547Y-91146330D01*
X96885547Y-91146331D01*
X96879989Y-91149540D01*
X96879986Y-91149542D01*
X96531124Y-91498403D01*
X96469801Y-91531888D01*
X96457737Y-91533895D01*
X95932438Y-91594855D01*
X95932412Y-91594860D01*
X95928154Y-91595908D01*
X95898526Y-91599500D01*
X95500230Y-91599500D01*
X95469800Y-91602353D01*
X95469798Y-91602353D01*
X95341619Y-91647206D01*
X95341617Y-91647207D01*
X95232350Y-91727850D01*
X95151707Y-91837117D01*
X95151706Y-91837119D01*
X95106853Y-91965298D01*
X95106853Y-91965300D01*
X95104000Y-91995730D01*
X95104000Y-93304269D01*
X95106853Y-93334699D01*
X95106853Y-93334701D01*
X95146849Y-93449000D01*
X95151707Y-93462882D01*
X95232350Y-93572150D01*
X95341618Y-93652793D01*
X95378576Y-93665725D01*
X95469799Y-93697646D01*
X95500230Y-93700500D01*
X95500234Y-93700500D01*
X96108770Y-93700500D01*
X96139199Y-93697646D01*
X96139201Y-93697646D01*
X96203290Y-93675219D01*
X96267382Y-93652793D01*
X96376650Y-93572150D01*
X96457293Y-93462882D01*
X96485508Y-93382248D01*
X96502146Y-93334701D01*
X96502146Y-93334699D01*
X96505000Y-93304269D01*
X96505000Y-92936403D01*
X96515026Y-92887557D01*
X96556721Y-92790269D01*
X96897954Y-91994056D01*
X96902140Y-91987873D01*
X96903099Y-91983471D01*
X96924245Y-91955225D01*
X96932126Y-91947344D01*
X96993450Y-91913865D01*
X97063141Y-91918854D01*
X97119072Y-91960729D01*
X97143485Y-92026195D01*
X97143800Y-92035033D01*
X97143800Y-93304269D01*
X97146653Y-93334699D01*
X97146653Y-93334701D01*
X97186649Y-93449000D01*
X97191507Y-93462882D01*
X97272150Y-93572150D01*
X97381418Y-93652793D01*
X97418376Y-93665725D01*
X97509599Y-93697646D01*
X97540030Y-93700500D01*
X97540034Y-93700500D01*
X98148570Y-93700500D01*
X98178999Y-93697646D01*
X98179001Y-93697646D01*
X98243090Y-93675219D01*
X98307182Y-93652793D01*
X98416450Y-93572150D01*
X98497093Y-93462882D01*
X98525308Y-93382248D01*
X98541946Y-93334701D01*
X98541946Y-93334699D01*
X98544800Y-93304269D01*
X98544800Y-93129161D01*
X98564485Y-93062122D01*
X98573245Y-93050134D01*
X98791804Y-92785892D01*
X98849699Y-92746781D01*
X98919551Y-92745178D01*
X98950704Y-92758328D01*
X99219732Y-92918210D01*
X99240670Y-92930653D01*
X99255525Y-92941616D01*
X99325134Y-92965973D01*
X99325234Y-92966011D01*
X99325249Y-92966013D01*
X99328029Y-92966985D01*
X99328903Y-92967368D01*
X99330457Y-92967835D01*
X99380151Y-92985225D01*
X99396591Y-92986766D01*
X99409740Y-92988000D01*
X99409744Y-92988000D01*
X99990260Y-92988000D01*
X100019849Y-92985225D01*
X100023390Y-92983986D01*
X100144475Y-92941616D01*
X100250711Y-92863211D01*
X100329116Y-92756975D01*
X100372725Y-92632349D01*
X100375500Y-92602756D01*
X100375500Y-91997244D01*
X100375358Y-91995734D01*
X100372725Y-91967650D01*
X100372725Y-91967648D01*
X100333466Y-91855455D01*
X100329903Y-91785677D01*
X100364632Y-91725049D01*
X100426625Y-91692821D01*
X100450507Y-91690500D01*
X100768050Y-91690500D01*
X100835089Y-91710185D01*
X100880844Y-91762989D01*
X100890788Y-91832147D01*
X100885092Y-91855449D01*
X100878393Y-91874597D01*
X100846653Y-91965301D01*
X100843800Y-91995730D01*
X100843800Y-93304269D01*
X100846653Y-93334699D01*
X100846653Y-93334701D01*
X100886649Y-93449000D01*
X100891507Y-93462882D01*
X100972150Y-93572150D01*
X101081418Y-93652793D01*
X101118376Y-93665725D01*
X101209599Y-93697646D01*
X101240030Y-93700500D01*
X101240034Y-93700500D01*
X101638336Y-93700500D01*
X101666056Y-93704857D01*
X101666275Y-93703850D01*
X101672229Y-93705142D01*
X101767977Y-93716253D01*
X102197535Y-93766101D01*
X102261858Y-93793382D01*
X102270922Y-93801593D01*
X102443840Y-93974511D01*
X102499789Y-94030460D01*
X102499791Y-94030461D01*
X102499795Y-94030464D01*
X102562318Y-94066561D01*
X102568311Y-94070021D01*
X102644738Y-94090500D01*
X102644740Y-94090500D01*
X106198853Y-94090500D01*
X106198855Y-94090500D01*
X106275282Y-94070021D01*
X106343804Y-94030460D01*
X106399753Y-93974511D01*
X106940924Y-93433338D01*
X106975438Y-93408996D01*
X107675555Y-93076765D01*
X107728716Y-93064793D01*
X107750260Y-93064793D01*
X107779849Y-93062018D01*
X107815417Y-93049572D01*
X107904475Y-93018409D01*
X108010711Y-92940004D01*
X108052958Y-92882759D01*
X108108604Y-92840509D01*
X108178260Y-92835050D01*
X108239810Y-92868116D01*
X108270433Y-92917386D01*
X108279545Y-92944885D01*
X108279551Y-92944897D01*
X108370052Y-93091620D01*
X108370055Y-93091624D01*
X108491961Y-93213530D01*
X108491965Y-93213533D01*
X108638688Y-93304034D01*
X108638699Y-93304039D01*
X108802347Y-93358266D01*
X108903352Y-93368585D01*
X108940000Y-93368585D01*
X109440000Y-93368585D01*
X109476640Y-93368585D01*
X109476654Y-93368584D01*
X109577652Y-93358266D01*
X109741300Y-93304039D01*
X109741311Y-93304034D01*
X109888034Y-93213533D01*
X109888038Y-93213530D01*
X110009944Y-93091624D01*
X110009947Y-93091620D01*
X110100448Y-92944897D01*
X110100453Y-92944886D01*
X110154680Y-92781238D01*
X110164999Y-92680240D01*
X110165000Y-92680226D01*
X110165000Y-92631086D01*
X109440000Y-92631086D01*
X109440000Y-93368585D01*
X108940000Y-93368585D01*
X108940000Y-92505086D01*
X108959685Y-92438047D01*
X109012489Y-92392292D01*
X109064000Y-92381086D01*
X109190000Y-92381086D01*
X109190000Y-92255086D01*
X109209685Y-92188047D01*
X109262489Y-92142292D01*
X109314000Y-92131086D01*
X110164999Y-92131086D01*
X110164999Y-92081946D01*
X110164998Y-92081931D01*
X110154680Y-91980933D01*
X110100453Y-91817285D01*
X110100448Y-91817274D01*
X110009947Y-91670551D01*
X110009944Y-91670547D01*
X109888038Y-91548641D01*
X109888034Y-91548638D01*
X109741311Y-91458137D01*
X109741300Y-91458132D01*
X109648793Y-91427479D01*
X109591348Y-91387707D01*
X109564525Y-91323191D01*
X109576840Y-91254415D01*
X109624383Y-91203215D01*
X109629859Y-91200141D01*
X109634470Y-91197703D01*
X109634475Y-91197702D01*
X109740711Y-91119297D01*
X109819116Y-91013061D01*
X109862725Y-90888435D01*
X109865500Y-90858842D01*
X109865500Y-90253330D01*
X109865097Y-90249037D01*
X109862725Y-90223736D01*
X109832829Y-90138299D01*
X109819116Y-90099111D01*
X109818041Y-90097655D01*
X109740711Y-89992875D01*
X109740710Y-89992874D01*
X109634476Y-89914470D01*
X109509848Y-89870860D01*
X109509849Y-89870860D01*
X109480260Y-89868086D01*
X109480256Y-89868086D01*
X108899744Y-89868086D01*
X108899740Y-89868086D01*
X108870150Y-89870860D01*
X108745523Y-89914470D01*
X108639289Y-89992874D01*
X108639288Y-89992875D01*
X108560884Y-90099109D01*
X108517274Y-90223736D01*
X108514500Y-90253325D01*
X108514500Y-90858846D01*
X108517274Y-90888435D01*
X108560884Y-91013062D01*
X108637310Y-91116616D01*
X108639289Y-91119297D01*
X108745525Y-91197702D01*
X108745529Y-91197703D01*
X108750144Y-91200143D01*
X108800216Y-91248872D01*
X108815995Y-91316936D01*
X108792470Y-91382727D01*
X108737111Y-91425355D01*
X108731206Y-91427479D01*
X108638699Y-91458132D01*
X108638688Y-91458137D01*
X108491965Y-91548638D01*
X108491961Y-91548641D01*
X108370055Y-91670547D01*
X108370052Y-91670551D01*
X108279936Y-91816651D01*
X108227988Y-91863376D01*
X108159025Y-91874597D01*
X108094943Y-91846754D01*
X108074628Y-91825187D01*
X108010711Y-91738582D01*
X108010710Y-91738581D01*
X107904476Y-91660177D01*
X107779848Y-91616567D01*
X107779849Y-91616567D01*
X107750260Y-91613793D01*
X107750256Y-91613793D01*
X107169744Y-91613793D01*
X107169740Y-91613793D01*
X107140150Y-91616567D01*
X107015523Y-91660177D01*
X106909289Y-91738581D01*
X106909288Y-91738582D01*
X106830884Y-91844816D01*
X106787274Y-91969443D01*
X106784500Y-91999032D01*
X106784500Y-92104825D01*
X106779341Y-92140220D01*
X106531782Y-92971412D01*
X106500622Y-93023698D01*
X106071141Y-93453181D01*
X106009818Y-93486666D01*
X105983460Y-93489500D01*
X104499887Y-93489500D01*
X104432848Y-93469815D01*
X104387093Y-93417011D01*
X104377149Y-93347853D01*
X104406174Y-93284297D01*
X104434790Y-93259962D01*
X104528034Y-93202447D01*
X104528038Y-93202444D01*
X104649944Y-93080538D01*
X104649947Y-93080534D01*
X104740448Y-92933811D01*
X104740454Y-92933798D01*
X104792802Y-92775821D01*
X104832574Y-92718376D01*
X104897090Y-92691552D01*
X104965866Y-92703867D01*
X105017066Y-92751409D01*
X105027549Y-92773867D01*
X105031757Y-92785893D01*
X105037679Y-92802817D01*
X105040885Y-92811977D01*
X105119288Y-92918210D01*
X105119289Y-92918211D01*
X105225523Y-92996615D01*
X105225524Y-92996615D01*
X105225525Y-92996616D01*
X105350151Y-93040225D01*
X105350150Y-93040225D01*
X105379740Y-93043000D01*
X105379744Y-93043000D01*
X105960260Y-93043000D01*
X105989849Y-93040225D01*
X105998297Y-93037269D01*
X106114475Y-92996616D01*
X106220711Y-92918211D01*
X106299116Y-92811975D01*
X106342725Y-92687349D01*
X106343393Y-92680226D01*
X106345500Y-92657760D01*
X106345500Y-91977239D01*
X106342725Y-91947650D01*
X106317162Y-91874597D01*
X106299116Y-91823025D01*
X106289872Y-91810500D01*
X106220711Y-91716789D01*
X106220710Y-91716788D01*
X106114476Y-91638384D01*
X105989848Y-91594774D01*
X105989849Y-91594774D01*
X105960260Y-91592000D01*
X105960256Y-91592000D01*
X105379744Y-91592000D01*
X105379740Y-91592000D01*
X105350150Y-91594774D01*
X105225523Y-91638384D01*
X105119289Y-91716788D01*
X105119288Y-91716789D01*
X105040884Y-91823023D01*
X105009679Y-91912201D01*
X104968957Y-91968976D01*
X104904004Y-91994723D01*
X104835442Y-91981266D01*
X104785040Y-91932878D01*
X104774932Y-91910249D01*
X104740453Y-91806199D01*
X104740448Y-91806188D01*
X104669204Y-91690685D01*
X104650763Y-91623293D01*
X104671685Y-91556630D01*
X104687048Y-91537922D01*
X105007857Y-91217112D01*
X105069178Y-91183629D01*
X105138870Y-91188613D01*
X105169169Y-91205024D01*
X105225525Y-91246616D01*
X105350151Y-91290225D01*
X105350150Y-91290225D01*
X105379740Y-91293000D01*
X105379744Y-91293000D01*
X105960260Y-91293000D01*
X105989849Y-91290225D01*
X106114475Y-91246616D01*
X106220711Y-91168211D01*
X106299116Y-91061975D01*
X106342725Y-90937349D01*
X106343456Y-90929553D01*
X106345500Y-90907760D01*
X106345500Y-90249032D01*
X106784500Y-90249032D01*
X106784500Y-90929553D01*
X106787274Y-90959142D01*
X106830884Y-91083769D01*
X106909288Y-91190003D01*
X106909289Y-91190004D01*
X107015523Y-91268408D01*
X107015524Y-91268408D01*
X107015525Y-91268409D01*
X107140151Y-91312018D01*
X107140150Y-91312018D01*
X107169740Y-91314793D01*
X107169744Y-91314793D01*
X107750260Y-91314793D01*
X107779849Y-91312018D01*
X107789377Y-91308684D01*
X107904475Y-91268409D01*
X108010711Y-91190004D01*
X108089116Y-91083768D01*
X108132725Y-90959142D01*
X108134769Y-90937349D01*
X108135500Y-90929553D01*
X108135500Y-90249032D01*
X108132725Y-90219443D01*
X108095028Y-90111713D01*
X108089116Y-90094818D01*
X108085411Y-90089798D01*
X108010711Y-89988582D01*
X108010710Y-89988581D01*
X107904476Y-89910177D01*
X107779848Y-89866567D01*
X107779849Y-89866567D01*
X107750260Y-89863793D01*
X107750256Y-89863793D01*
X107169744Y-89863793D01*
X107169740Y-89863793D01*
X107140150Y-89866567D01*
X107015523Y-89910177D01*
X106909289Y-89988581D01*
X106909288Y-89988582D01*
X106830884Y-90094816D01*
X106787274Y-90219443D01*
X106784500Y-90249032D01*
X106345500Y-90249032D01*
X106345500Y-90227239D01*
X106342725Y-90197650D01*
X106307994Y-90098398D01*
X106299116Y-90073025D01*
X106290624Y-90061519D01*
X106220711Y-89966789D01*
X106220710Y-89966788D01*
X106114476Y-89888384D01*
X105989848Y-89844774D01*
X105989849Y-89844774D01*
X105960260Y-89842000D01*
X105960256Y-89842000D01*
X105379744Y-89842000D01*
X105379740Y-89842000D01*
X105350150Y-89844774D01*
X105350146Y-89844775D01*
X105345452Y-89846418D01*
X105275673Y-89849979D01*
X105215047Y-89815248D01*
X105182821Y-89753254D01*
X105180500Y-89729376D01*
X105180500Y-87775442D01*
X105192726Y-87721752D01*
X105200862Y-87704815D01*
X105350841Y-87392581D01*
X105359838Y-87369954D01*
X105402897Y-87314935D01*
X105468870Y-87291927D01*
X105536808Y-87308239D01*
X105585143Y-87358692D01*
X105594138Y-87381177D01*
X105628715Y-87500193D01*
X105628717Y-87500196D01*
X105712314Y-87641552D01*
X105712321Y-87641561D01*
X105828438Y-87757678D01*
X105828447Y-87757685D01*
X105969801Y-87841281D01*
X106127514Y-87887100D01*
X106127511Y-87887100D01*
X106129998Y-87887295D01*
X106130000Y-87887295D01*
X106130000Y-86635000D01*
X106128337Y-86633337D01*
X106066961Y-86615315D01*
X106021206Y-86562511D01*
X106010000Y-86511000D01*
X106010000Y-83905000D01*
X106009999Y-83904999D01*
X106003436Y-83905000D01*
X106003417Y-83905001D01*
X105932897Y-83911408D01*
X105932892Y-83911409D01*
X105770603Y-83961981D01*
X105625122Y-84049927D01*
X105504928Y-84170121D01*
X105504923Y-84170127D01*
X105501886Y-84175152D01*
X105450356Y-84222337D01*
X105381496Y-84234171D01*
X105339482Y-84221483D01*
X105335300Y-84219352D01*
X105241524Y-84204500D01*
X104778482Y-84204500D01*
X104697519Y-84217323D01*
X104684696Y-84219354D01*
X104571658Y-84276950D01*
X104571657Y-84276951D01*
X104571652Y-84276954D01*
X104475049Y-84373558D01*
X104473006Y-84371515D01*
X104429984Y-84404689D01*
X104360370Y-84410665D01*
X104298576Y-84378057D01*
X104292905Y-84371512D01*
X104198347Y-84276954D01*
X104198344Y-84276952D01*
X104198342Y-84276950D01*
X104114384Y-84234171D01*
X104085301Y-84219352D01*
X103991524Y-84204500D01*
X103528482Y-84204500D01*
X103466976Y-84214241D01*
X103434696Y-84219354D01*
X103434694Y-84219354D01*
X103434693Y-84219355D01*
X103430514Y-84221484D01*
X103361844Y-84234375D01*
X103297106Y-84208094D01*
X103268112Y-84175148D01*
X103265078Y-84170130D01*
X103144875Y-84049926D01*
X102999395Y-83961980D01*
X102999396Y-83961980D01*
X102837105Y-83911409D01*
X102837106Y-83911409D01*
X102766572Y-83905000D01*
X102760000Y-83905000D01*
X102760000Y-85081000D01*
X102740315Y-85148039D01*
X102687511Y-85193794D01*
X102636000Y-85205000D01*
X102510000Y-85205000D01*
X102510000Y-85331000D01*
X102490315Y-85398039D01*
X102437511Y-85443794D01*
X102386000Y-85455000D01*
X101610001Y-85455000D01*
X101610001Y-85804884D01*
X101590316Y-85871923D01*
X101537512Y-85917678D01*
X101520597Y-85923960D01*
X101469804Y-85938716D01*
X101469803Y-85938717D01*
X101328447Y-86022314D01*
X101328438Y-86022321D01*
X101212321Y-86138438D01*
X101212314Y-86138447D01*
X101128717Y-86279803D01*
X101128716Y-86279806D01*
X101082900Y-86437504D01*
X101082899Y-86437510D01*
X101080000Y-86474350D01*
X101080000Y-86640000D01*
X101756000Y-86640000D01*
X101823039Y-86659685D01*
X101868794Y-86712489D01*
X101880000Y-86764000D01*
X101880000Y-87016000D01*
X101860315Y-87083039D01*
X101807511Y-87128794D01*
X101756000Y-87140000D01*
X101080000Y-87140000D01*
X101080000Y-87305649D01*
X101082899Y-87342489D01*
X101082900Y-87342495D01*
X101128716Y-87500193D01*
X101128717Y-87500196D01*
X101150707Y-87537379D01*
X101167890Y-87605103D01*
X101145730Y-87671365D01*
X101091264Y-87715129D01*
X101043975Y-87724500D01*
X96599931Y-87724500D01*
X96532892Y-87704815D01*
X96527955Y-87701472D01*
X95740024Y-87139810D01*
X95696860Y-87084868D01*
X95688000Y-87038838D01*
X95688000Y-86744410D01*
X95687999Y-86744408D01*
X95676368Y-86685931D01*
X95676367Y-86685930D01*
X95632052Y-86619608D01*
X95565730Y-86575293D01*
X95565729Y-86575292D01*
X95507252Y-86563661D01*
X95507248Y-86563661D01*
X93217752Y-86563661D01*
X93217747Y-86563661D01*
X93159270Y-86575292D01*
X93159269Y-86575293D01*
X93092947Y-86619608D01*
X93048632Y-86685930D01*
X93048631Y-86685931D01*
X93037000Y-86744408D01*
X92463000Y-86744408D01*
X92463000Y-86734410D01*
X92462999Y-86734408D01*
X92451368Y-86675931D01*
X92451367Y-86675930D01*
X92407052Y-86609608D01*
X92340730Y-86565293D01*
X92340729Y-86565292D01*
X92282252Y-86553661D01*
X92282248Y-86553661D01*
X91542752Y-86553661D01*
X91542747Y-86553661D01*
X91484270Y-86565292D01*
X91484269Y-86565293D01*
X91417947Y-86609608D01*
X91373632Y-86675930D01*
X91373631Y-86675931D01*
X91362000Y-86734408D01*
X91362000Y-87041271D01*
X91359445Y-87066313D01*
X91358712Y-87069864D01*
X91324040Y-87199265D01*
X91324040Y-87238013D01*
X91321485Y-87250404D01*
X91310777Y-87270530D01*
X91304355Y-87292401D01*
X91289008Y-87311445D01*
X91288667Y-87312087D01*
X91288346Y-87312266D01*
X91287721Y-87313043D01*
X90291239Y-88309524D01*
X90267494Y-88328089D01*
X90261687Y-88331583D01*
X89696767Y-88845394D01*
X89671708Y-88857574D01*
X89648269Y-88872638D01*
X89637547Y-88874179D01*
X89633928Y-88875939D01*
X89613334Y-88877661D01*
X89373676Y-88877661D01*
X89354487Y-88876167D01*
X89336392Y-88873332D01*
X89233488Y-88877557D01*
X89228402Y-88877661D01*
X89121357Y-88877661D01*
X89054318Y-88857976D01*
X89008563Y-88805172D01*
X88999765Y-88777979D01*
X88995817Y-88758239D01*
X88993596Y-88727114D01*
X89006125Y-88499225D01*
X89006123Y-88499213D01*
X89005999Y-88494252D01*
X89006982Y-88494227D01*
X89008255Y-88466089D01*
X89010700Y-88453800D01*
X89010700Y-88325030D01*
X89010699Y-88325026D01*
X89002334Y-88282972D01*
X88985579Y-88198738D01*
X88936301Y-88079772D01*
X88936299Y-88079769D01*
X88936297Y-88079765D01*
X88864762Y-87972706D01*
X88864759Y-87972702D01*
X88773712Y-87881655D01*
X88773708Y-87881652D01*
X88666649Y-87810117D01*
X88666639Y-87810112D01*
X88547677Y-87760836D01*
X88547669Y-87760834D01*
X88421388Y-87735715D01*
X88421384Y-87735715D01*
X88292616Y-87735715D01*
X88292611Y-87735715D01*
X88166330Y-87760834D01*
X88166322Y-87760836D01*
X88047360Y-87810112D01*
X88047350Y-87810117D01*
X87940291Y-87881652D01*
X87940287Y-87881655D01*
X87849240Y-87972702D01*
X87849236Y-87972707D01*
X87834795Y-87994319D01*
X87781181Y-88039123D01*
X87711856Y-88047828D01*
X87688363Y-88041607D01*
X87607382Y-88011403D01*
X87607372Y-88011401D01*
X87547844Y-88005000D01*
X87000000Y-88005000D01*
X87000000Y-89001000D01*
X86980315Y-89068039D01*
X86927511Y-89113794D01*
X86876000Y-89125000D01*
X86624000Y-89125000D01*
X86556961Y-89105315D01*
X86511206Y-89052511D01*
X86500000Y-89001000D01*
X86500000Y-88005000D01*
X85952155Y-88005000D01*
X85892627Y-88011401D01*
X85892620Y-88011403D01*
X85757913Y-88061645D01*
X85757906Y-88061649D01*
X85642812Y-88147809D01*
X85642809Y-88147812D01*
X85556649Y-88262906D01*
X85556646Y-88262911D01*
X85533985Y-88323670D01*
X85492113Y-88379603D01*
X85426649Y-88404020D01*
X85393613Y-88401954D01*
X85331410Y-88389581D01*
X85309884Y-88385300D01*
X85181116Y-88385300D01*
X85181111Y-88385300D01*
X85054830Y-88410419D01*
X85054823Y-88410421D01*
X84974773Y-88443578D01*
X84971089Y-88445035D01*
X84706049Y-88545019D01*
X84662282Y-88553000D01*
X83789400Y-88553000D01*
X83722361Y-88533315D01*
X83676606Y-88480511D01*
X83665400Y-88429000D01*
X83665400Y-88177000D01*
X83685085Y-88109961D01*
X83737889Y-88064206D01*
X83789400Y-88053000D01*
X84740400Y-88053000D01*
X84740400Y-87967672D01*
X84740398Y-87967641D01*
X84733998Y-87908127D01*
X84733996Y-87908120D01*
X84683754Y-87773413D01*
X84683752Y-87773411D01*
X84597590Y-87658313D01*
X84597588Y-87658310D01*
X84581822Y-87646508D01*
X84539952Y-87590574D01*
X84534968Y-87520882D01*
X84541574Y-87499786D01*
X84551970Y-87474689D01*
X84560262Y-87433000D01*
X83257388Y-87433000D01*
X83274605Y-87423060D01*
X83330460Y-87367205D01*
X83369956Y-87298796D01*
X83390400Y-87222496D01*
X83390400Y-87143504D01*
X83369956Y-87067204D01*
X83330460Y-86998795D01*
X83274605Y-86942940D01*
X83257388Y-86933000D01*
X83340400Y-86933000D01*
X84560262Y-86933000D01*
X84551969Y-86891309D01*
X84551969Y-86891307D01*
X84476592Y-86709328D01*
X84476585Y-86709315D01*
X84367151Y-86545537D01*
X84367148Y-86545533D01*
X84227866Y-86406251D01*
X84227862Y-86406248D01*
X84064084Y-86296814D01*
X84064071Y-86296807D01*
X83882093Y-86221430D01*
X83882081Y-86221427D01*
X83688895Y-86183000D01*
X83340400Y-86183000D01*
X83340400Y-86933000D01*
X83257388Y-86933000D01*
X83206196Y-86903444D01*
X83129896Y-86883000D01*
X83050904Y-86883000D01*
X82974604Y-86903444D01*
X82906195Y-86942940D01*
X82850340Y-86998795D01*
X82810844Y-87067204D01*
X82790400Y-87143504D01*
X82790400Y-87222496D01*
X82810844Y-87298796D01*
X82850340Y-87367205D01*
X82906195Y-87423060D01*
X82923412Y-87433000D01*
X81620538Y-87433000D01*
X81628830Y-87474690D01*
X81628830Y-87474692D01*
X81704207Y-87656671D01*
X81704214Y-87656684D01*
X81813648Y-87820462D01*
X81813651Y-87820466D01*
X81952933Y-87959748D01*
X81952937Y-87959751D01*
X82113146Y-88066800D01*
X82157951Y-88120412D01*
X82166658Y-88189737D01*
X82136503Y-88252765D01*
X82131942Y-88257578D01*
X82129886Y-88259633D01*
X82129885Y-88259635D01*
X82054119Y-88390863D01*
X82026417Y-88494252D01*
X82014900Y-88537234D01*
X82014900Y-88688766D01*
X82025426Y-88728050D01*
X82054192Y-88835407D01*
X82052529Y-88905257D01*
X82013366Y-88963119D01*
X81949138Y-88990623D01*
X81934417Y-88991500D01*
X81519352Y-88991500D01*
X81519348Y-88991499D01*
X81413052Y-88991499D01*
X81337618Y-89011712D01*
X81328506Y-89014153D01*
X81328500Y-89014154D01*
X81310379Y-89019009D01*
X81310378Y-89019010D01*
X81218325Y-89072157D01*
X81218319Y-89072161D01*
X80432361Y-89858119D01*
X80432357Y-89858125D01*
X80379210Y-89950177D01*
X80375983Y-89962223D01*
X80375975Y-89962251D01*
X80375695Y-89963300D01*
X80351699Y-90052852D01*
X78054900Y-90052852D01*
X78054900Y-88282972D01*
X78074585Y-88215933D01*
X78127389Y-88170178D01*
X78196547Y-88160234D01*
X78203091Y-88161355D01*
X78311905Y-88182999D01*
X78311908Y-88183000D01*
X78660400Y-88183000D01*
X79160400Y-88183000D01*
X79508892Y-88183000D01*
X79508895Y-88182999D01*
X79702081Y-88144572D01*
X79702093Y-88144569D01*
X79884071Y-88069192D01*
X79884084Y-88069185D01*
X80047862Y-87959751D01*
X80047866Y-87959748D01*
X80187148Y-87820466D01*
X80187151Y-87820462D01*
X80296585Y-87656684D01*
X80296592Y-87656671D01*
X80371969Y-87474692D01*
X80371969Y-87474690D01*
X80380262Y-87433000D01*
X79160400Y-87433000D01*
X79160400Y-88183000D01*
X78660400Y-88183000D01*
X78660400Y-87349988D01*
X78670340Y-87367205D01*
X78726195Y-87423060D01*
X78794604Y-87462556D01*
X78870904Y-87483000D01*
X78949896Y-87483000D01*
X79026196Y-87462556D01*
X79094605Y-87423060D01*
X79150460Y-87367205D01*
X79189956Y-87298796D01*
X79210400Y-87222496D01*
X79210400Y-87143504D01*
X79189956Y-87067204D01*
X79150460Y-86998795D01*
X79094605Y-86942940D01*
X79077388Y-86933000D01*
X80372972Y-86933000D01*
X81620538Y-86933000D01*
X82840400Y-86933000D01*
X82840400Y-86183000D01*
X82491904Y-86183000D01*
X82298718Y-86221427D01*
X82298706Y-86221430D01*
X82116728Y-86296807D01*
X82116715Y-86296814D01*
X81952937Y-86406248D01*
X81952933Y-86406251D01*
X81813651Y-86545533D01*
X81813648Y-86545537D01*
X81704214Y-86709315D01*
X81704207Y-86709328D01*
X81628830Y-86891307D01*
X81628830Y-86891309D01*
X81620538Y-86933000D01*
X80372972Y-86933000D01*
X80321145Y-86767307D01*
X80320625Y-86737706D01*
X80317461Y-86708273D01*
X80319421Y-86704357D01*
X80319421Y-86674999D01*
X80819421Y-86674999D01*
X80868561Y-86674999D01*
X80868575Y-86674998D01*
X80969573Y-86664680D01*
X81133221Y-86610453D01*
X81133232Y-86610448D01*
X81279955Y-86519947D01*
X81279959Y-86519944D01*
X81401865Y-86398038D01*
X81401868Y-86398034D01*
X81492369Y-86251311D01*
X81492374Y-86251300D01*
X81546601Y-86087652D01*
X81556920Y-85986654D01*
X81556921Y-85986641D01*
X81556921Y-85950000D01*
X80819421Y-85950000D01*
X80819421Y-86674999D01*
X80319421Y-86674999D01*
X80319421Y-85824000D01*
X80339106Y-85756961D01*
X80391910Y-85711206D01*
X80443421Y-85700000D01*
X80569421Y-85700000D01*
X80569421Y-85574000D01*
X80589106Y-85506961D01*
X80641910Y-85461206D01*
X80693421Y-85450000D01*
X81556920Y-85450000D01*
X81556920Y-85413360D01*
X81556919Y-85413345D01*
X81546601Y-85312347D01*
X81492374Y-85148699D01*
X81492369Y-85148688D01*
X81401868Y-85001965D01*
X81401865Y-85001961D01*
X81327852Y-84927948D01*
X81294367Y-84866625D01*
X81299351Y-84796933D01*
X81341223Y-84741000D01*
X81349545Y-84735283D01*
X81545689Y-84612038D01*
X81756485Y-84443934D01*
X81947134Y-84253285D01*
X82115238Y-84042489D01*
X82258684Y-83814197D01*
X82375667Y-83571279D01*
X82464716Y-83316791D01*
X82524712Y-83053932D01*
X82554900Y-82786009D01*
X82554900Y-82663240D01*
X83406354Y-82663240D01*
X83406354Y-83269691D01*
X83407051Y-83296215D01*
X83434951Y-83437215D01*
X83434952Y-83437216D01*
X83501450Y-83564650D01*
X83501453Y-83564654D01*
X83601152Y-83668182D01*
X83643320Y-83692250D01*
X83691786Y-83742577D01*
X83705854Y-83799944D01*
X83705854Y-84348397D01*
X83711005Y-84394121D01*
X83750687Y-84476519D01*
X83750688Y-84476520D01*
X83822191Y-84533542D01*
X83887406Y-84548427D01*
X83911349Y-84553892D01*
X83911354Y-84553893D01*
X84097595Y-84553893D01*
X84103045Y-84554013D01*
X84106408Y-84554160D01*
X84128054Y-84556293D01*
X84154871Y-84556293D01*
X84157599Y-84556413D01*
X84188180Y-84566872D01*
X84219188Y-84575978D01*
X84221707Y-84578340D01*
X84223708Y-84579025D01*
X84227379Y-84583659D01*
X84251942Y-84606691D01*
X84261255Y-84619318D01*
X84300815Y-84672957D01*
X84324765Y-84738594D01*
X84322020Y-84773674D01*
X84288436Y-84923533D01*
X84284344Y-84949472D01*
X84284341Y-84949499D01*
X84284068Y-84952437D01*
X84283235Y-84967119D01*
X84284442Y-84972968D01*
X84287000Y-84998024D01*
X84287000Y-85994752D01*
X84298631Y-86053229D01*
X84298632Y-86053230D01*
X84342947Y-86119552D01*
X84409269Y-86163867D01*
X84409270Y-86163868D01*
X84467747Y-86175499D01*
X84467750Y-86175500D01*
X84467752Y-86175500D01*
X85582250Y-86175500D01*
X85582251Y-86175499D01*
X85601040Y-86171762D01*
X85640729Y-86163868D01*
X85640729Y-86163867D01*
X85640731Y-86163867D01*
X85707052Y-86119552D01*
X85751367Y-86053231D01*
X85753382Y-86043099D01*
X85785767Y-85981188D01*
X85846483Y-85946614D01*
X85916252Y-85950353D01*
X85972924Y-85991219D01*
X85996617Y-86043099D01*
X85997919Y-86049643D01*
X85998633Y-86053231D01*
X86042947Y-86119552D01*
X86109269Y-86163867D01*
X86109270Y-86163868D01*
X86167747Y-86175499D01*
X86167750Y-86175500D01*
X86167752Y-86175500D01*
X86337168Y-86175500D01*
X86400675Y-86192997D01*
X86689101Y-86364982D01*
X87005523Y-86553661D01*
X87024880Y-86565203D01*
X87049054Y-86584025D01*
X87729540Y-87264511D01*
X87785489Y-87320460D01*
X87785491Y-87320461D01*
X87785495Y-87320464D01*
X87827659Y-87344807D01*
X87854011Y-87360021D01*
X87930438Y-87380500D01*
X87930440Y-87380500D01*
X89657690Y-87380500D01*
X89657690Y-87381649D01*
X89698239Y-87386989D01*
X89698963Y-87384288D01*
X89706812Y-87386391D01*
X89706814Y-87386392D01*
X89834108Y-87420500D01*
X89834110Y-87420500D01*
X89965890Y-87420500D01*
X89965892Y-87420500D01*
X90093186Y-87386392D01*
X90207314Y-87320500D01*
X90300500Y-87227314D01*
X90366392Y-87113186D01*
X90400500Y-86985892D01*
X90400500Y-86854108D01*
X90366392Y-86726814D01*
X90300500Y-86612686D01*
X90236818Y-86549004D01*
X90222113Y-86522073D01*
X90205523Y-86496258D01*
X90204631Y-86490055D01*
X90203334Y-86487680D01*
X90200500Y-86461323D01*
X90200500Y-86294500D01*
X90220185Y-86227461D01*
X90272989Y-86181706D01*
X90324500Y-86170500D01*
X90477250Y-86170500D01*
X90477251Y-86170499D01*
X90492068Y-86167552D01*
X90535729Y-86158868D01*
X90535729Y-86158867D01*
X90535731Y-86158867D01*
X90602052Y-86114552D01*
X90646367Y-86048231D01*
X90646367Y-86048229D01*
X90646368Y-86048229D01*
X90657999Y-85989752D01*
X90658000Y-85989750D01*
X90658000Y-84950249D01*
X90657999Y-84950247D01*
X90646368Y-84891770D01*
X90646367Y-84891769D01*
X90602052Y-84825447D01*
X90535730Y-84781132D01*
X90535729Y-84781131D01*
X90477252Y-84769500D01*
X90477248Y-84769500D01*
X90466588Y-84769500D01*
X90459415Y-84767393D01*
X90452047Y-84768644D01*
X90426351Y-84757685D01*
X90399549Y-84749815D01*
X90394654Y-84744166D01*
X90387778Y-84741234D01*
X90372083Y-84718117D01*
X90353794Y-84697011D01*
X90352730Y-84689614D01*
X90348531Y-84683429D01*
X90347825Y-84655499D01*
X90343850Y-84627853D01*
X90346910Y-84619318D01*
X90346766Y-84613582D01*
X90358990Y-84585638D01*
X90360612Y-84581117D01*
X90361184Y-84580175D01*
X90467873Y-84411665D01*
X90476504Y-84390355D01*
X90481697Y-84381809D01*
X90482640Y-84380948D01*
X90484572Y-84377300D01*
X90488967Y-84370724D01*
X90493318Y-84348848D01*
X90495431Y-84343633D01*
X90497108Y-84335580D01*
X90497534Y-84327653D01*
X90500600Y-84312241D01*
X90500600Y-83305049D01*
X90511525Y-83267844D01*
X91250000Y-83267844D01*
X91256401Y-83327372D01*
X91256403Y-83327379D01*
X91306645Y-83462086D01*
X91306649Y-83462093D01*
X91392809Y-83577187D01*
X91392812Y-83577190D01*
X91515011Y-83668669D01*
X91512863Y-83671537D01*
X91550198Y-83708878D01*
X91565044Y-83777152D01*
X91562979Y-83792486D01*
X91549500Y-83860252D01*
X91549500Y-85139752D01*
X91561131Y-85198229D01*
X91561132Y-85198230D01*
X91605447Y-85264552D01*
X91671769Y-85308867D01*
X91671770Y-85308868D01*
X91730247Y-85320499D01*
X91730250Y-85320500D01*
X91730252Y-85320500D01*
X93269750Y-85320500D01*
X93269751Y-85320499D01*
X93284485Y-85317568D01*
X93340210Y-85306485D01*
X93340316Y-85307021D01*
X93373096Y-85300500D01*
X93706904Y-85300500D01*
X93739683Y-85307021D01*
X93739790Y-85306485D01*
X93810247Y-85320499D01*
X93810250Y-85320500D01*
X93810252Y-85320500D01*
X95349750Y-85320500D01*
X95349751Y-85320499D01*
X95364485Y-85317568D01*
X95420210Y-85306485D01*
X95420316Y-85307021D01*
X95453096Y-85300500D01*
X95776904Y-85300500D01*
X95809683Y-85307021D01*
X95809790Y-85306485D01*
X95880247Y-85320499D01*
X95880250Y-85320500D01*
X95880252Y-85320500D01*
X97419750Y-85320500D01*
X97419751Y-85320499D01*
X97434568Y-85317552D01*
X97478229Y-85308868D01*
X97478229Y-85308867D01*
X97478231Y-85308867D01*
X97544552Y-85264552D01*
X97588867Y-85198231D01*
X97588867Y-85198229D01*
X97588868Y-85198229D01*
X97598602Y-85149289D01*
X97600500Y-85139748D01*
X97600500Y-84548427D01*
X101610000Y-84548427D01*
X101610000Y-84955000D01*
X102260000Y-84955000D01*
X102260000Y-83905000D01*
X102259999Y-83904999D01*
X102253436Y-83905000D01*
X102253417Y-83905001D01*
X102182897Y-83911408D01*
X102182892Y-83911409D01*
X102020603Y-83961981D01*
X101875122Y-84049927D01*
X101754927Y-84170122D01*
X101666980Y-84315604D01*
X101616409Y-84477893D01*
X101610000Y-84548427D01*
X97600500Y-84548427D01*
X97600500Y-83860252D01*
X97600500Y-83860249D01*
X97587021Y-83792488D01*
X97593248Y-83722896D01*
X97635177Y-83668920D01*
X97634989Y-83668669D01*
X97635906Y-83667982D01*
X97636111Y-83667719D01*
X97637036Y-83667135D01*
X97757187Y-83577190D01*
X97757190Y-83577187D01*
X97843350Y-83462093D01*
X97843354Y-83462086D01*
X97893596Y-83327379D01*
X97893598Y-83327372D01*
X97899999Y-83267844D01*
X97900000Y-83267827D01*
X97900000Y-82850000D01*
X91250000Y-82850000D01*
X91250000Y-83267844D01*
X90511525Y-83267844D01*
X90520285Y-83238010D01*
X90550289Y-83205783D01*
X90657287Y-83125683D01*
X90657290Y-83125680D01*
X90743450Y-83010586D01*
X90743454Y-83010579D01*
X90793696Y-82875872D01*
X90793698Y-82875865D01*
X90800099Y-82816337D01*
X90800100Y-82816320D01*
X90800100Y-82434293D01*
X89663724Y-82434293D01*
X89639533Y-82431910D01*
X89621348Y-82428293D01*
X89378652Y-82428293D01*
X89360466Y-82431910D01*
X89336276Y-82434293D01*
X88518200Y-82434293D01*
X88518200Y-82521740D01*
X88498515Y-82588779D01*
X88445711Y-82634534D01*
X88394200Y-82645740D01*
X87181117Y-82645740D01*
X87133366Y-82626979D01*
X87042163Y-82633779D01*
X87021428Y-82645740D01*
X86102109Y-82645740D01*
X86075250Y-82660406D01*
X86048892Y-82663240D01*
X84780671Y-82663240D01*
X84732920Y-82644479D01*
X84641717Y-82651279D01*
X84620982Y-82663240D01*
X83406354Y-82663240D01*
X82554900Y-82663240D01*
X82554900Y-82516391D01*
X82524712Y-82248468D01*
X82464716Y-81985609D01*
X82375667Y-81731121D01*
X82350471Y-81678800D01*
X82316648Y-81608566D01*
X82292872Y-81559194D01*
X83406354Y-81559194D01*
X83406354Y-82163240D01*
X84449554Y-82163240D01*
X84449554Y-81051793D01*
X84949554Y-81051793D01*
X84949554Y-82163240D01*
X85697445Y-82163240D01*
X85724304Y-82148574D01*
X85750662Y-82145740D01*
X86850000Y-82145740D01*
X87350000Y-82145740D01*
X88069900Y-82145740D01*
X88069900Y-82058293D01*
X88089585Y-81991254D01*
X88142389Y-81945499D01*
X88193900Y-81934293D01*
X89250000Y-81934293D01*
X89750000Y-81934293D01*
X90800100Y-81934293D01*
X90800100Y-81932155D01*
X91250000Y-81932155D01*
X91250000Y-82350000D01*
X92250000Y-82350000D01*
X92750000Y-82350000D01*
X94330000Y-82350000D01*
X94830000Y-82350000D01*
X96400000Y-82350000D01*
X96900000Y-82350000D01*
X97900000Y-82350000D01*
X97900000Y-81932172D01*
X97899999Y-81932155D01*
X97893598Y-81872627D01*
X97893596Y-81872620D01*
X97843354Y-81737913D01*
X97843350Y-81737906D01*
X97757190Y-81622812D01*
X97757187Y-81622809D01*
X97642093Y-81536649D01*
X97642086Y-81536645D01*
X97507379Y-81486403D01*
X97507372Y-81486401D01*
X97447844Y-81480000D01*
X96900000Y-81480000D01*
X96900000Y-82350000D01*
X96400000Y-82350000D01*
X96400000Y-81480000D01*
X95852155Y-81480000D01*
X95792627Y-81486401D01*
X95792620Y-81486403D01*
X95658333Y-81536489D01*
X95588641Y-81541473D01*
X95571667Y-81536489D01*
X95437379Y-81486403D01*
X95437372Y-81486401D01*
X95377844Y-81480000D01*
X94830000Y-81480000D01*
X94830000Y-82350000D01*
X94330000Y-82350000D01*
X94330000Y-81480000D01*
X93782155Y-81480000D01*
X93722627Y-81486401D01*
X93722620Y-81486403D01*
X93583333Y-81538354D01*
X93513641Y-81543338D01*
X93496667Y-81538354D01*
X93357379Y-81486403D01*
X93357372Y-81486401D01*
X93297844Y-81480000D01*
X92750000Y-81480000D01*
X92750000Y-82350000D01*
X92250000Y-82350000D01*
X92250000Y-81480000D01*
X91702155Y-81480000D01*
X91642627Y-81486401D01*
X91642620Y-81486403D01*
X91507913Y-81536645D01*
X91507906Y-81536649D01*
X91392812Y-81622809D01*
X91392809Y-81622812D01*
X91306649Y-81737906D01*
X91306645Y-81737913D01*
X91256403Y-81872620D01*
X91256401Y-81872627D01*
X91250000Y-81932155D01*
X90800100Y-81932155D01*
X90800100Y-81552265D01*
X90800099Y-81552248D01*
X90793698Y-81492720D01*
X90793696Y-81492713D01*
X90743454Y-81358006D01*
X90743450Y-81357999D01*
X90657290Y-81242905D01*
X90657287Y-81242902D01*
X90542193Y-81156742D01*
X90542186Y-81156738D01*
X90407479Y-81106496D01*
X90407472Y-81106494D01*
X90347944Y-81100093D01*
X89750000Y-81100093D01*
X89750000Y-81934293D01*
X89250000Y-81934293D01*
X89250000Y-81100093D01*
X88652055Y-81100093D01*
X88592527Y-81106494D01*
X88592520Y-81106496D01*
X88457813Y-81156738D01*
X88457807Y-81156742D01*
X88403377Y-81197488D01*
X88337913Y-81221905D01*
X88269640Y-81207053D01*
X88247864Y-81191934D01*
X88161224Y-81116860D01*
X88161222Y-81116859D01*
X88030478Y-81057149D01*
X88030474Y-81057148D01*
X87888198Y-81036693D01*
X87701959Y-81036693D01*
X87689806Y-81036096D01*
X87671498Y-81034293D01*
X87350000Y-81034293D01*
X87350000Y-82145740D01*
X86850000Y-82145740D01*
X86850000Y-81034293D01*
X86528502Y-81034293D01*
X86510194Y-81036096D01*
X86498041Y-81036693D01*
X86311797Y-81036693D01*
X86239929Y-81041833D01*
X86102018Y-81082327D01*
X85981094Y-81160039D01*
X85981090Y-81160042D01*
X85980516Y-81160706D01*
X85979779Y-81161179D01*
X85974395Y-81165845D01*
X85973723Y-81165070D01*
X85921734Y-81198474D01*
X85851864Y-81198466D01*
X85805610Y-81173206D01*
X85760782Y-81134362D01*
X85760776Y-81134359D01*
X85630032Y-81074649D01*
X85630028Y-81074648D01*
X85487752Y-81054193D01*
X85301513Y-81054193D01*
X85289360Y-81053596D01*
X85271052Y-81051793D01*
X84949554Y-81051793D01*
X84449554Y-81051793D01*
X84128056Y-81051793D01*
X84109748Y-81053596D01*
X84097595Y-81054193D01*
X83911351Y-81054193D01*
X83839483Y-81059333D01*
X83701572Y-81099827D01*
X83580650Y-81177538D01*
X83486521Y-81286169D01*
X83486520Y-81286170D01*
X83426810Y-81416914D01*
X83426809Y-81416918D01*
X83406354Y-81559194D01*
X82292872Y-81559194D01*
X82258685Y-81488205D01*
X82257553Y-81486403D01*
X82115238Y-81259911D01*
X81947134Y-81049115D01*
X81756485Y-80858466D01*
X81648810Y-80772598D01*
X81608670Y-80715410D01*
X81605820Y-80645598D01*
X81641165Y-80585328D01*
X81703484Y-80553735D01*
X81726116Y-80551651D01*
X98104801Y-80551170D01*
X98171836Y-80570852D01*
X98217593Y-80623654D01*
X98227538Y-80692812D01*
X98217187Y-80727563D01*
X98215644Y-80730871D01*
X98160494Y-80897302D01*
X98160493Y-80897309D01*
X98150000Y-81000013D01*
X98150000Y-81450000D01*
X99151000Y-81450000D01*
X99218039Y-81469685D01*
X99263794Y-81522489D01*
X99275000Y-81574000D01*
X99275000Y-81826000D01*
X99255315Y-81893039D01*
X99202511Y-81938794D01*
X99151000Y-81950000D01*
X98150001Y-81950000D01*
X98150001Y-82399986D01*
X98160494Y-82502697D01*
X98215641Y-82669119D01*
X98215643Y-82669124D01*
X98307684Y-82818345D01*
X98373681Y-82884342D01*
X98407166Y-82945665D01*
X98410000Y-82972023D01*
X98410000Y-83604985D01*
X98420493Y-83707689D01*
X98420494Y-83707696D01*
X98475641Y-83874118D01*
X98475643Y-83874123D01*
X98567684Y-84023344D01*
X98691655Y-84147315D01*
X98840876Y-84239356D01*
X98840881Y-84239358D01*
X99007303Y-84294505D01*
X99007310Y-84294506D01*
X99110014Y-84304999D01*
X99110027Y-84305000D01*
X99710000Y-84305000D01*
X100210000Y-84305000D01*
X100809973Y-84305000D01*
X100809985Y-84304999D01*
X100912689Y-84294506D01*
X100912696Y-84294505D01*
X101079118Y-84239358D01*
X101079123Y-84239356D01*
X101228344Y-84147315D01*
X101352315Y-84023344D01*
X101444356Y-83874123D01*
X101444358Y-83874118D01*
X101499505Y-83707696D01*
X101499506Y-83707689D01*
X101509999Y-83604985D01*
X101510000Y-83604972D01*
X101510000Y-82555000D01*
X100210000Y-82555000D01*
X100210000Y-84305000D01*
X99710000Y-84305000D01*
X99710000Y-82429000D01*
X99729685Y-82361961D01*
X99782489Y-82316206D01*
X99834000Y-82305000D01*
X99960000Y-82305000D01*
X99960000Y-82179000D01*
X99979685Y-82111961D01*
X100032489Y-82066206D01*
X100084000Y-82055000D01*
X101510000Y-82055000D01*
X101510000Y-81005027D01*
X101509999Y-81005014D01*
X101499506Y-80902310D01*
X101499505Y-80902303D01*
X101444358Y-80735881D01*
X101441304Y-80729331D01*
X101443733Y-80728198D01*
X101428561Y-80672809D01*
X101449464Y-80606140D01*
X101503093Y-80561355D01*
X101552533Y-80551069D01*
X109717605Y-80550830D01*
X109784642Y-80570512D01*
G37*
%TD.AperFunction*%
%TA.AperFunction,Conductor*%
G36*
X124289022Y-80570087D02*
G01*
X124334779Y-80622889D01*
X124344724Y-80692047D01*
X124315701Y-80755604D01*
X124299299Y-80771351D01*
X124222915Y-80832265D01*
X124032265Y-81022915D01*
X123864161Y-81233712D01*
X123720714Y-81462005D01*
X123603734Y-81704917D01*
X123514687Y-81959397D01*
X123514684Y-81959405D01*
X123454688Y-82222268D01*
X123454686Y-82222280D01*
X123424500Y-82490186D01*
X123424500Y-82759813D01*
X123454686Y-83027719D01*
X123454688Y-83027731D01*
X123514684Y-83290594D01*
X123514687Y-83290602D01*
X123603734Y-83545082D01*
X123720714Y-83787994D01*
X123737177Y-83814194D01*
X123864162Y-84016289D01*
X123941531Y-84113307D01*
X124032265Y-84227084D01*
X124078068Y-84272887D01*
X124107874Y-84320911D01*
X124438017Y-85298977D01*
X124440807Y-85368790D01*
X124405410Y-85429030D01*
X124361488Y-85455674D01*
X124318025Y-85470883D01*
X124318023Y-85470884D01*
X124211789Y-85549288D01*
X124211788Y-85549289D01*
X124133384Y-85655523D01*
X124089774Y-85780150D01*
X124087000Y-85809739D01*
X124087000Y-86390260D01*
X124089774Y-86419849D01*
X124133384Y-86544476D01*
X124211788Y-86650710D01*
X124211789Y-86650711D01*
X124318023Y-86729115D01*
X124318024Y-86729115D01*
X124318025Y-86729116D01*
X124442651Y-86772725D01*
X124442650Y-86772725D01*
X124472240Y-86775500D01*
X124472244Y-86775500D01*
X125077760Y-86775500D01*
X125107349Y-86772725D01*
X125231975Y-86729116D01*
X125338211Y-86650711D01*
X125416616Y-86544475D01*
X125416617Y-86544470D01*
X125419055Y-86539859D01*
X125467782Y-86489785D01*
X125535846Y-86474004D01*
X125601638Y-86497526D01*
X125644267Y-86552884D01*
X125646393Y-86558793D01*
X125677046Y-86651300D01*
X125677051Y-86651311D01*
X125767552Y-86798034D01*
X125767555Y-86798038D01*
X125889461Y-86919944D01*
X125889465Y-86919947D01*
X126036188Y-87010448D01*
X126036199Y-87010453D01*
X126199847Y-87064680D01*
X126300851Y-87074999D01*
X126850000Y-87074999D01*
X126899140Y-87074999D01*
X126899154Y-87074998D01*
X127000152Y-87064680D01*
X127163800Y-87010453D01*
X127163811Y-87010448D01*
X127310534Y-86919947D01*
X127310538Y-86919944D01*
X127432444Y-86798038D01*
X127432447Y-86798034D01*
X127522948Y-86651311D01*
X127522953Y-86651300D01*
X127577180Y-86487652D01*
X127587499Y-86386654D01*
X127587500Y-86386641D01*
X127587500Y-86350000D01*
X126850000Y-86350000D01*
X126850000Y-87074999D01*
X126300851Y-87074999D01*
X126349999Y-87074998D01*
X126350000Y-87074998D01*
X126350000Y-85850000D01*
X126850000Y-85850000D01*
X127587499Y-85850000D01*
X127587499Y-85813360D01*
X127587498Y-85813345D01*
X127577180Y-85712347D01*
X127522953Y-85548699D01*
X127522948Y-85548688D01*
X127432447Y-85401965D01*
X127432444Y-85401961D01*
X127310538Y-85280055D01*
X127310534Y-85280052D01*
X127163811Y-85189551D01*
X127163800Y-85189546D01*
X127000152Y-85135319D01*
X126899154Y-85125000D01*
X126850000Y-85125000D01*
X126850000Y-85850000D01*
X126350000Y-85850000D01*
X126350000Y-85099777D01*
X126346853Y-85094014D01*
X126346853Y-85094008D01*
X126346851Y-85094004D01*
X126349082Y-85062838D01*
X126351837Y-85024322D01*
X126351840Y-85024317D01*
X126351841Y-85024313D01*
X126371524Y-84998024D01*
X126393709Y-84968389D01*
X126393714Y-84968386D01*
X126393717Y-84968383D01*
X126393742Y-84968373D01*
X126440426Y-84946765D01*
X126490591Y-84935316D01*
X126745079Y-84846267D01*
X126987997Y-84729284D01*
X127216289Y-84585838D01*
X127427085Y-84417734D01*
X127617734Y-84227085D01*
X127658553Y-84175899D01*
X127715741Y-84135759D01*
X127785552Y-84132909D01*
X127845822Y-84168254D01*
X127877416Y-84230573D01*
X127879500Y-84253212D01*
X127879500Y-87450689D01*
X127879498Y-87450697D01*
X127879499Y-87469169D01*
X127879499Y-87477692D01*
X127879499Y-87509622D01*
X127878720Y-87523505D01*
X127868542Y-87613857D01*
X127862363Y-87640928D01*
X127834651Y-87720129D01*
X127822604Y-87745148D01*
X127777961Y-87816199D01*
X127760648Y-87837909D01*
X127701316Y-87897242D01*
X127679608Y-87914554D01*
X127608562Y-87959197D01*
X127583542Y-87971246D01*
X127504333Y-87998962D01*
X127477264Y-88005140D01*
X127403786Y-88013419D01*
X127387116Y-88015298D01*
X127373234Y-88016078D01*
X123131077Y-88016078D01*
X123064038Y-87996393D01*
X123018283Y-87943589D01*
X123008339Y-87874431D01*
X123009460Y-87867887D01*
X123033465Y-87747205D01*
X123040090Y-87713898D01*
X123040090Y-87516816D01*
X123040040Y-87516567D01*
X123033593Y-87484154D01*
X123028469Y-87458397D01*
X123026373Y-87425798D01*
X123026623Y-87422120D01*
X123026622Y-87422118D01*
X123026623Y-87422116D01*
X122889515Y-86361248D01*
X122889515Y-86329461D01*
X122892781Y-86304193D01*
X123026623Y-85268597D01*
X123026311Y-85262433D01*
X123028536Y-85231980D01*
X123040090Y-85173899D01*
X123040090Y-84976813D01*
X123001642Y-84783527D01*
X123001641Y-84783526D01*
X123001641Y-84783522D01*
X123001639Y-84783517D01*
X122926225Y-84601449D01*
X122926218Y-84601436D01*
X122816729Y-84437575D01*
X122816726Y-84437571D01*
X122677375Y-84298220D01*
X122677371Y-84298217D01*
X122513510Y-84188728D01*
X122513497Y-84188721D01*
X122331429Y-84113307D01*
X122331419Y-84113304D01*
X122138133Y-84074857D01*
X122138131Y-84074857D01*
X121941049Y-84074857D01*
X121865371Y-84089910D01*
X121843683Y-84092267D01*
X121830111Y-84092540D01*
X121827721Y-84092589D01*
X121827716Y-84092589D01*
X121827716Y-84092590D01*
X120423057Y-84401604D01*
X120396415Y-84404500D01*
X115884842Y-84404500D01*
X115872994Y-84401784D01*
X115864481Y-84402817D01*
X115830849Y-84392127D01*
X115761967Y-84358807D01*
X115710190Y-84311895D01*
X115704865Y-84302253D01*
X115293400Y-83472171D01*
X115280500Y-83417100D01*
X115280500Y-83103850D01*
X115300185Y-83036811D01*
X115352989Y-82991056D01*
X115363545Y-82986809D01*
X115389262Y-82977810D01*
X115456975Y-82954116D01*
X115563211Y-82875711D01*
X115641616Y-82769475D01*
X115685225Y-82644849D01*
X115688000Y-82615256D01*
X115688000Y-82034744D01*
X115688000Y-82034739D01*
X116137000Y-82034739D01*
X116137000Y-82615260D01*
X116139774Y-82644849D01*
X116183384Y-82769476D01*
X116261788Y-82875710D01*
X116261789Y-82875711D01*
X116368023Y-82954115D01*
X116368024Y-82954115D01*
X116368025Y-82954116D01*
X116492651Y-82997725D01*
X116492650Y-82997725D01*
X116522240Y-83000500D01*
X116522244Y-83000500D01*
X117127760Y-83000500D01*
X117157349Y-82997725D01*
X117157351Y-82997725D01*
X117259378Y-82962023D01*
X117281975Y-82954116D01*
X117287753Y-82949850D01*
X117299636Y-82942089D01*
X117632004Y-82751247D01*
X117699943Y-82734937D01*
X117755493Y-82751247D01*
X118094023Y-82945627D01*
X118105525Y-82954116D01*
X118130875Y-82962986D01*
X118155827Y-82972601D01*
X118169341Y-82977810D01*
X118169344Y-82977810D01*
X118169345Y-82977811D01*
X118172252Y-82978444D01*
X118186823Y-82982563D01*
X118230151Y-82997725D01*
X118246591Y-82999266D01*
X118259740Y-83000500D01*
X118259744Y-83000500D01*
X118940260Y-83000500D01*
X118969849Y-82997725D01*
X118969852Y-82997724D01*
X119094475Y-82954116D01*
X119200711Y-82875711D01*
X119200716Y-82875703D01*
X119206385Y-82870035D01*
X119267707Y-82836548D01*
X119337399Y-82841529D01*
X119393334Y-82883399D01*
X119399608Y-82892615D01*
X119480054Y-83023037D01*
X119601961Y-83144944D01*
X119601965Y-83144947D01*
X119748688Y-83235448D01*
X119748699Y-83235453D01*
X119912347Y-83289680D01*
X120013351Y-83299999D01*
X120600000Y-83299999D01*
X120686640Y-83299999D01*
X120686654Y-83299998D01*
X120787652Y-83289680D01*
X120951300Y-83235453D01*
X120951311Y-83235448D01*
X121098034Y-83144947D01*
X121098038Y-83144944D01*
X121219944Y-83023038D01*
X121219947Y-83023034D01*
X121310448Y-82876311D01*
X121310453Y-82876300D01*
X121364680Y-82712652D01*
X121374999Y-82611654D01*
X121375000Y-82611641D01*
X121375000Y-82575000D01*
X120600000Y-82575000D01*
X120600000Y-83299999D01*
X120013351Y-83299999D01*
X120100000Y-83299998D01*
X120100000Y-82075000D01*
X120600000Y-82075000D01*
X121374999Y-82075000D01*
X121374999Y-82038360D01*
X121374998Y-82038345D01*
X121364680Y-81937347D01*
X121310453Y-81773699D01*
X121310448Y-81773688D01*
X121219947Y-81626965D01*
X121219944Y-81626961D01*
X121098038Y-81505055D01*
X121098034Y-81505052D01*
X120951311Y-81414551D01*
X120951300Y-81414546D01*
X120787652Y-81360319D01*
X120686654Y-81350000D01*
X120600000Y-81350000D01*
X120600000Y-82075000D01*
X120100000Y-82075000D01*
X120100000Y-81350000D01*
X120099999Y-81349999D01*
X120013360Y-81350000D01*
X120013343Y-81350001D01*
X119912347Y-81360319D01*
X119748699Y-81414546D01*
X119748688Y-81414551D01*
X119601965Y-81505052D01*
X119601961Y-81505055D01*
X119480054Y-81626962D01*
X119399608Y-81757384D01*
X119347660Y-81804108D01*
X119278697Y-81815329D01*
X119214615Y-81787485D01*
X119206389Y-81779967D01*
X119200710Y-81774288D01*
X119094476Y-81695884D01*
X118969848Y-81652274D01*
X118969849Y-81652274D01*
X118940260Y-81649500D01*
X118940256Y-81649500D01*
X118259744Y-81649500D01*
X118259740Y-81649500D01*
X118230150Y-81652274D01*
X118230148Y-81652274D01*
X118105530Y-81695881D01*
X118105520Y-81695886D01*
X118099743Y-81700150D01*
X118087865Y-81707906D01*
X117755493Y-81898749D01*
X117687553Y-81915060D01*
X117632003Y-81898749D01*
X117304944Y-81710955D01*
X117304932Y-81710949D01*
X117293473Y-81704370D01*
X117281975Y-81695884D01*
X117238455Y-81680655D01*
X117233457Y-81678801D01*
X117233454Y-81678800D01*
X117213506Y-81671401D01*
X117209963Y-81670413D01*
X117202337Y-81668017D01*
X117157348Y-81652274D01*
X117157349Y-81652274D01*
X117127760Y-81649500D01*
X117127756Y-81649500D01*
X116522244Y-81649500D01*
X116522240Y-81649500D01*
X116492650Y-81652274D01*
X116368023Y-81695884D01*
X116261789Y-81774288D01*
X116261788Y-81774289D01*
X116183384Y-81880523D01*
X116139774Y-82005150D01*
X116137000Y-82034739D01*
X115688000Y-82034739D01*
X115685225Y-82005151D01*
X115678385Y-81985605D01*
X115641615Y-81880523D01*
X115563211Y-81774289D01*
X115563210Y-81774288D01*
X115456976Y-81695884D01*
X115332348Y-81652274D01*
X115332349Y-81652274D01*
X115302760Y-81649500D01*
X115302756Y-81649500D01*
X114697244Y-81649500D01*
X114697240Y-81649500D01*
X114667650Y-81652274D01*
X114543023Y-81695884D01*
X114436789Y-81774288D01*
X114436788Y-81774289D01*
X114358384Y-81880523D01*
X114314774Y-82005150D01*
X114312000Y-82034739D01*
X114312000Y-82615260D01*
X114314774Y-82644849D01*
X114358384Y-82769476D01*
X114436788Y-82875710D01*
X114436789Y-82875711D01*
X114531522Y-82945627D01*
X114543025Y-82954116D01*
X114596456Y-82972812D01*
X114653231Y-83013533D01*
X114678978Y-83078486D01*
X114679500Y-83089853D01*
X114679500Y-83417099D01*
X114666600Y-83472170D01*
X114630460Y-83545079D01*
X114240383Y-84332011D01*
X114238618Y-84335571D01*
X114191207Y-84386894D01*
X114127518Y-84404500D01*
X112598621Y-84404500D01*
X112531582Y-84384815D01*
X112485827Y-84332011D01*
X112475883Y-84262853D01*
X112504908Y-84199297D01*
X112533524Y-84174961D01*
X112578344Y-84147315D01*
X112702315Y-84023344D01*
X112794356Y-83874123D01*
X112794358Y-83874118D01*
X112849505Y-83707696D01*
X112849506Y-83707689D01*
X112859999Y-83604985D01*
X112860000Y-83604972D01*
X112860000Y-82962023D01*
X112879685Y-82894984D01*
X112896319Y-82874342D01*
X112952315Y-82818345D01*
X113044356Y-82669124D01*
X113044358Y-82669119D01*
X113099505Y-82502697D01*
X113099506Y-82502690D01*
X113109999Y-82399986D01*
X113110000Y-82399973D01*
X113110000Y-81950000D01*
X112109000Y-81950000D01*
X112041961Y-81930315D01*
X111996206Y-81877511D01*
X111985000Y-81826000D01*
X111985000Y-81574000D01*
X112004685Y-81506961D01*
X112057489Y-81461206D01*
X112109000Y-81450000D01*
X113109999Y-81450000D01*
X113109999Y-81000028D01*
X113109998Y-81000013D01*
X113099505Y-80897302D01*
X113044356Y-80730873D01*
X113042611Y-80727131D01*
X113042183Y-80724318D01*
X113042086Y-80724023D01*
X113042136Y-80724006D01*
X113032120Y-80658053D01*
X113060642Y-80594270D01*
X113119119Y-80556032D01*
X113154988Y-80550729D01*
X124221983Y-80550404D01*
X124289022Y-80570087D01*
G37*
%TD.AperFunction*%
%TD*%
M02*
