M48
; DRILL file KiCad 10.0.0 date 2026-06-13T21:44:01
; FORMAT={-:-/ absolute / inch / decimal}
; #@! TF.CreationDate,2026-06-13T21:44:01-06:00
; #@! TF.GenerationSoftware,Kicad,Pcbnew,10.0.0
; #@! TF.FileFunction,Plated,1,4,PTH
FMAT,2
INCH
; #@! TA.AperFunction,Plated,PTH,ViaDrill
T1C0.0118
; #@! TA.AperFunction,Plated,PTH,ViaDrill
T2C0.0157
; #@! TA.AperFunction,Plated,PTH,ComponentDrill
T3C0.0236
; #@! TA.AperFunction,Plated,PTH,ComponentDrill
T4C0.0256
; #@! TA.AperFunction,Plated,PTH,ComponentDrill
T5C0.0315
; #@! TA.AperFunction,Plated,PTH,ComponentDrill
T6C0.0394
; #@! TA.AperFunction,Plated,PTH,ComponentDrill
T7C0.0866
%
G90
G05
T1
X3.2185Y-3.8323
X3.2224Y-3.374
X3.261Y-3.1823
X3.3346Y-3.5887
X3.3346Y-3.6359
X3.3465Y-3.5531
X3.3588Y-3.6654
X3.3819Y-3.8936
X3.3819Y-3.9428
X3.4246Y-3.1731
X3.472Y-3.7276
X3.4734Y-3.6506
X3.474Y-3.6185
X3.474Y-3.6819
X3.4996Y-3.1732
X3.5039Y-3.8091
X3.5433Y-3.9114
X3.5823Y-3.1736
X3.5827Y-3.7106
X3.689Y-3.5551
X3.6929Y-3.3465
X3.7008Y-3.1732
X3.7382Y-3.5551
X3.7395Y-3.9094
X3.8091Y-3.6024
X3.9429Y-3.565
X3.9941Y-3.3425
X3.9954Y-3.9094
X3.998Y-3.565
X4.0315Y-3.378
X4.0709Y-3.378
X4.2303Y-3.5241
X4.4094Y-3.4537
X4.4114Y-3.3189
X4.4114Y-3.752
X4.4213Y-3.878
X4.4843Y-3.878
X4.5177Y-3.3081
X4.75Y-3.2272
X4.75Y-3.9733
X4.7923Y-3.5669
X4.875Y-3.5886
X4.9579Y-3.3754
X4.9598Y-3.8321
X5.0189Y-3.4797
X5.0189Y-3.7278
X5.0465Y-3.4797
X5.0465Y-3.7278
X5.1311Y-3.4797
X5.1311Y-3.5309
X5.1311Y-3.5781
X5.1311Y-3.6293
X5.1311Y-3.6766
X5.1311Y-3.7278
T2
X3.4606Y-3.3465
X3.561Y-3.3484
X3.624Y-3.3465
X3.624Y-3.4528
X3.6832Y-3.8756
X3.8819Y-3.4547
X3.9336Y-3.8759
X4.3543Y-3.563
X4.3543Y-3.6024
X4.3543Y-3.6417
X4.4035Y-3.563
X4.4035Y-3.6024
X4.4035Y-3.6417
X5.0189Y-3.5299
X5.0189Y-3.6766
X5.0465Y-3.5299
X5.0465Y-3.6766
T3
X3.1067Y-3.4324
X3.1067Y-3.7726
X3.2713Y-3.4324
X3.2713Y-3.7726
T4
X4.2421Y-3.3823
X4.2421Y-3.4323
X4.2421Y-3.4823
X4.2421Y-3.7215
X4.2421Y-3.7715
X4.2421Y-3.8215
T5
X4.3702Y-3.3713
X4.3736Y-3.8236
X4.443Y-3.3713
X4.4465Y-3.8236
X4.7973Y-3.3713
X4.8008Y-3.8236
X4.8702Y-3.3713
X4.8736Y-3.8236
T6
X3.7996Y-3.2028
X3.8996Y-3.2028
T7
X3.1533Y-3.9516
X3.1557Y-3.254
X4.2926Y-3.9482
X4.2929Y-3.2481
X4.9541Y-3.9516
X4.9543Y-3.2516
M30
