%TF.GenerationSoftware,KiCad,Pcbnew,9.0.0*%
%TF.CreationDate,2025-07-16T19:02:16-06:00*%
%TF.ProjectId,Burnwing,4275726e-7769-46e6-972e-6b696361645f,Rev 1*%
%TF.SameCoordinates,Original*%
%TF.FileFunction,Soldermask,Top*%
%TF.FilePolarity,Negative*%
%FSLAX46Y46*%
G04 Gerber Fmt 4.6, Leading zero omitted, Abs format (unit mm)*
G04 Created by KiCad (PCBNEW 9.0.0) date 2025-07-16 19:02:16*
%MOMM*%
%LPD*%
G01*
G04 APERTURE LIST*
G04 Aperture macros list*
%AMRoundRect*
0 Rectangle with rounded corners*
0 $1 Rounding radius*
0 $2 $3 $4 $5 $6 $7 $8 $9 X,Y pos of 4 corners*
0 Add a 4 corners polygon primitive as box body*
4,1,4,$2,$3,$4,$5,$6,$7,$8,$9,$2,$3,0*
0 Add four circle primitives for the rounded corners*
1,1,$1+$1,$2,$3*
1,1,$1+$1,$4,$5*
1,1,$1+$1,$6,$7*
1,1,$1+$1,$8,$9*
0 Add four rect primitives between the rounded corners*
20,1,$1+$1,$2,$3,$4,$5,0*
20,1,$1+$1,$4,$5,$6,$7,0*
20,1,$1+$1,$6,$7,$8,$9,0*
20,1,$1+$1,$8,$9,$2,$3,0*%
G04 Aperture macros list end*
%ADD10C,0.000000*%
%ADD11RoundRect,0.303571X-1.371429X0.546429X-1.371429X-0.546429X1.371429X-0.546429X1.371429X0.546429X0*%
%ADD12RoundRect,0.050800X0.750000X-0.620000X0.750000X0.620000X-0.750000X0.620000X-0.750000X-0.620000X0*%
%ADD13RoundRect,0.237500X-0.250000X-0.237500X0.250000X-0.237500X0.250000X0.237500X-0.250000X0.237500X0*%
%ADD14C,4.400000*%
%ADD15C,1.600000*%
%ADD16O,1.600000X1.600000*%
%ADD17RoundRect,0.050800X-0.537500X-0.500000X0.537500X-0.500000X0.537500X0.500000X-0.537500X0.500000X0*%
%ADD18RoundRect,0.050800X-0.575000X0.287500X-0.575000X-0.287500X0.575000X-0.287500X0.575000X0.287500X0*%
%ADD19RoundRect,0.050800X-0.575000X0.137500X-0.575000X-0.137500X0.575000X-0.137500X0.575000X0.137500X0*%
%ADD20O,2.101600X1.101600*%
%ADD21RoundRect,0.237500X-0.237500X0.250000X-0.237500X-0.250000X0.237500X-0.250000X0.237500X0.250000X0*%
%ADD22RoundRect,0.237500X0.287500X0.237500X-0.287500X0.237500X-0.287500X-0.237500X0.287500X-0.237500X0*%
%ADD23R,0.850000X0.850000*%
%ADD24O,0.850000X0.850000*%
%ADD25RoundRect,0.237500X-0.237500X0.287500X-0.237500X-0.287500X0.237500X-0.287500X0.237500X0.287500X0*%
%ADD26RoundRect,0.200000X0.200000X0.600000X-0.200000X0.600000X-0.200000X-0.600000X0.200000X-0.600000X0*%
%ADD27RoundRect,0.250001X0.799999X1.249999X-0.799999X1.249999X-0.799999X-1.249999X0.799999X-1.249999X0*%
%ADD28RoundRect,0.150000X0.150000X0.350000X-0.150000X0.350000X-0.150000X-0.350000X0.150000X-0.350000X0*%
%ADD29RoundRect,0.250000X0.375000X0.650000X-0.375000X0.650000X-0.375000X-0.650000X0.375000X-0.650000X0*%
%ADD30RoundRect,0.237500X0.237500X-0.250000X0.237500X0.250000X-0.237500X0.250000X-0.237500X-0.250000X0*%
%ADD31RoundRect,0.050800X0.500000X-0.537500X0.500000X0.537500X-0.500000X0.537500X-0.500000X-0.537500X0*%
%ADD32RoundRect,0.250000X0.250000X-0.600000X0.250000X0.600000X-0.250000X0.600000X-0.250000X-0.600000X0*%
%ADD33RoundRect,0.050800X-0.350000X-0.210000X0.350000X-0.210000X0.350000X0.210000X-0.350000X0.210000X0*%
%ADD34RoundRect,0.050800X-1.125000X1.175000X-1.125000X-1.175000X1.125000X-1.175000X1.125000X1.175000X0*%
%ADD35RoundRect,0.050800X-0.500000X0.537500X-0.500000X-0.537500X0.500000X-0.537500X0.500000X0.537500X0*%
%ADD36RoundRect,0.035160X0.140640X0.415640X-0.140640X0.415640X-0.140640X-0.415640X0.140640X-0.415640X0*%
%ADD37RoundRect,0.168160X1.057640X0.672640X-1.057640X0.672640X-1.057640X-0.672640X1.057640X-0.672640X0*%
G04 APERTURE END LIST*
D10*
%TO.C,12V*%
G36*
X85525054Y-84414293D02*
G01*
X83874054Y-84414293D01*
X83874054Y-81493293D01*
X85525054Y-81493293D01*
X85525054Y-84414293D01*
G37*
%TO.C,9V*%
G36*
X87925500Y-84396793D02*
G01*
X86274500Y-84396793D01*
X86274500Y-81475793D01*
X87925500Y-81475793D01*
X87925500Y-84396793D01*
G37*
%TO.C,1A*%
G36*
X90409000Y-101307000D02*
G01*
X88631000Y-101307000D01*
X88631000Y-98513000D01*
X90409000Y-98513000D01*
X90409000Y-101307000D01*
G37*
%TO.C,5V*%
G36*
X90389000Y-84343293D02*
G01*
X88611000Y-84343293D01*
X88611000Y-81549293D01*
X90389000Y-81549293D01*
X90389000Y-84343293D01*
G37*
%TO.C,2A*%
G36*
X84805500Y-101376500D02*
G01*
X83154500Y-101376500D01*
X83154500Y-98455500D01*
X84805500Y-98455500D01*
X84805500Y-101376500D01*
G37*
%TD*%
D11*
%TO.C,REF\u002A\u002A*%
X120570000Y-88400000D03*
X120570000Y-94500000D03*
%TD*%
D12*
%TO.C,C4*%
X92500000Y-84500000D03*
X92500000Y-82600000D03*
%TD*%
D13*
%TO.C,R11*%
X78744421Y-85700000D03*
X80569421Y-85700000D03*
%TD*%
D14*
%TO.C,H3*%
X80094400Y-100371200D03*
%TD*%
D15*
%TO.C,R2*%
X122039590Y-85075357D03*
X122039590Y-87615357D03*
D16*
X122039590Y-95235357D03*
X122039590Y-97775357D03*
%TD*%
D17*
%TO.C,R18*%
X85870000Y-100720000D03*
X87570000Y-100720000D03*
%TD*%
%TO.C,R7*%
X88220000Y-85470000D03*
X89920000Y-85470000D03*
%TD*%
D18*
%TO.C,X1*%
X83665400Y-88303000D03*
X83665400Y-89103000D03*
D19*
X83665400Y-90253000D03*
X83665400Y-91253000D03*
X83665400Y-91753000D03*
X83665400Y-92753000D03*
D18*
X83665400Y-94703000D03*
X83665400Y-93903000D03*
D19*
X83665400Y-93253000D03*
X83665400Y-92253000D03*
X83665400Y-90753000D03*
X83665400Y-89753000D03*
D20*
X83090400Y-87183000D03*
X78910400Y-87183000D03*
X83090400Y-95823000D03*
X78910400Y-95823000D03*
%TD*%
D21*
%TO.C,R20*%
X93950000Y-90475000D03*
X93950000Y-92300000D03*
%TD*%
D22*
%TO.C,D3*%
X120350000Y-82325000D03*
X118600000Y-82325000D03*
%TD*%
D23*
%TO.C,J2*%
X86118200Y-99020000D03*
D24*
X87118200Y-99020000D03*
%TD*%
D21*
%TO.C,R16*%
X109190000Y-90556086D03*
X109190000Y-92381086D03*
%TD*%
D25*
%TO.C,D2*%
X107460000Y-90589293D03*
X107460000Y-92339293D03*
%TD*%
%TO.C,D1*%
X105670000Y-90567500D03*
X105670000Y-92317500D03*
%TD*%
D15*
%TO.C,R1*%
X114980000Y-85089000D03*
X114980000Y-87639000D03*
D16*
X114980000Y-95259000D03*
X114980000Y-97809000D03*
%TD*%
D26*
%TO.C,J1*%
X108760000Y-85205000D03*
X107510000Y-85205000D03*
X106260000Y-85205000D03*
X105010000Y-85205000D03*
X103760000Y-85205000D03*
X102510000Y-85205000D03*
D27*
X111310000Y-82305000D03*
X99960000Y-82305000D03*
%TD*%
D28*
%TO.C,p*%
X109380000Y-86890000D03*
X107880000Y-86890000D03*
X106380000Y-86890000D03*
X104880000Y-86890000D03*
X103380000Y-86890000D03*
X101880000Y-86890000D03*
D29*
X111985000Y-81700000D03*
X99275000Y-81700000D03*
%TD*%
D30*
%TO.C,R19*%
X99700000Y-92300000D03*
X99700000Y-90475000D03*
%TD*%
D14*
%TO.C,H4*%
X125800000Y-100360000D03*
%TD*%
D12*
%TO.C,C1*%
X86750000Y-91025000D03*
X86750000Y-89125000D03*
%TD*%
D11*
%TO.C,REF\u002A\u002A*%
X116492910Y-88384643D03*
X116492910Y-94484643D03*
%TD*%
D31*
%TO.C,R4*%
X89950000Y-94525000D03*
X89950000Y-92825000D03*
%TD*%
D14*
%TO.C,H2*%
X125825000Y-82625000D03*
%TD*%
D32*
%TO.C,Burn1*%
X92104500Y-99250000D03*
X92104500Y-92650000D03*
X95804500Y-99250000D03*
X95804500Y-92650000D03*
%TD*%
D12*
%TO.C,C3*%
X94580000Y-84500000D03*
X94580000Y-82600000D03*
%TD*%
D13*
%TO.C,R12*%
X124775000Y-86100000D03*
X126600000Y-86100000D03*
%TD*%
%TO.C,R13*%
X78805000Y-97250000D03*
X80630000Y-97250000D03*
%TD*%
%TO.C,R15*%
X115000000Y-82325000D03*
X116825000Y-82325000D03*
%TD*%
D33*
%TO.C,Q1*%
X91912500Y-86964161D03*
X91912500Y-87614161D03*
X91912500Y-88264161D03*
X91912500Y-88914161D03*
D34*
X94362500Y-87939161D03*
%TD*%
D35*
%TO.C,R5*%
X89900000Y-89650000D03*
X89900000Y-91350000D03*
%TD*%
D13*
%TO.C,R14*%
X124775000Y-96900000D03*
X126600000Y-96900000D03*
%TD*%
D14*
%TO.C,H1*%
X80154400Y-82651200D03*
%TD*%
D31*
%TO.C,R3*%
X88357000Y-91349500D03*
X88357000Y-89649500D03*
%TD*%
D12*
%TO.C,C2*%
X96650000Y-84500000D03*
X96650000Y-82600000D03*
%TD*%
D17*
%TO.C,R8*%
X85025000Y-85475000D03*
X86725000Y-85475000D03*
%TD*%
D21*
%TO.C,R15*%
X103830000Y-90545000D03*
X103830000Y-92370000D03*
%TD*%
D36*
%TO.C,U1*%
X88595000Y-93571500D03*
X88095000Y-93571500D03*
X87595000Y-93571500D03*
X87095000Y-93571500D03*
X86595000Y-93571500D03*
X86595000Y-96571500D03*
X87095000Y-96571500D03*
X87595000Y-96571500D03*
X88095000Y-96571500D03*
X88595000Y-96571500D03*
D37*
X87595000Y-95071500D03*
%TD*%
D32*
%TO.C,Burn2*%
X97844300Y-99250000D03*
X97844300Y-92650000D03*
X101544300Y-99250000D03*
X101544300Y-92650000D03*
%TD*%
M02*
