%TF.GenerationSoftware,KiCad,Pcbnew,9.0.0*%
%TF.CreationDate,2025-09-15T11:44:44-06:00*%
%TF.ProjectId,Burnwing,4275726e-7769-46e6-972e-6b696361645f,Rev 1*%
%TF.SameCoordinates,Original*%
%TF.FileFunction,Legend,Bot*%
%TF.FilePolarity,Positive*%
%FSLAX46Y46*%
G04 Gerber Fmt 4.6, Leading zero omitted, Abs format (unit mm)*
G04 Created by KiCad (PCBNEW 9.0.0) date 2025-09-15 11:44:44*
%MOMM*%
%LPD*%
G01*
G04 APERTURE LIST*
%ADD10C,0.187500*%
%ADD11C,0.125000*%
%ADD12C,0.150000*%
%ADD13C,0.000000*%
%ADD14C,4.400000*%
%ADD15C,0.650000*%
%ADD16O,2.000000X1.000000*%
%ADD17C,1.600000*%
%ADD18O,1.600000X1.600000*%
%ADD19R,0.850000X0.850000*%
%ADD20O,0.850000X0.850000*%
G04 APERTURE END LIST*
D10*
X92367856Y-99765607D02*
X92260713Y-99801321D01*
X92260713Y-99801321D02*
X92224999Y-99837035D01*
X92224999Y-99837035D02*
X92189285Y-99908464D01*
X92189285Y-99908464D02*
X92189285Y-100015607D01*
X92189285Y-100015607D02*
X92224999Y-100087035D01*
X92224999Y-100087035D02*
X92260713Y-100122750D01*
X92260713Y-100122750D02*
X92332142Y-100158464D01*
X92332142Y-100158464D02*
X92617856Y-100158464D01*
X92617856Y-100158464D02*
X92617856Y-99408464D01*
X92617856Y-99408464D02*
X92367856Y-99408464D01*
X92367856Y-99408464D02*
X92296428Y-99444178D01*
X92296428Y-99444178D02*
X92260713Y-99479892D01*
X92260713Y-99479892D02*
X92224999Y-99551321D01*
X92224999Y-99551321D02*
X92224999Y-99622750D01*
X92224999Y-99622750D02*
X92260713Y-99694178D01*
X92260713Y-99694178D02*
X92296428Y-99729892D01*
X92296428Y-99729892D02*
X92367856Y-99765607D01*
X92367856Y-99765607D02*
X92617856Y-99765607D01*
X91546428Y-99658464D02*
X91546428Y-100158464D01*
X91867856Y-99658464D02*
X91867856Y-100051321D01*
X91867856Y-100051321D02*
X91832142Y-100122750D01*
X91832142Y-100122750D02*
X91760713Y-100158464D01*
X91760713Y-100158464D02*
X91653570Y-100158464D01*
X91653570Y-100158464D02*
X91582142Y-100122750D01*
X91582142Y-100122750D02*
X91546428Y-100087035D01*
X91189285Y-100158464D02*
X91189285Y-99658464D01*
X91189285Y-99801321D02*
X91153571Y-99729892D01*
X91153571Y-99729892D02*
X91117857Y-99694178D01*
X91117857Y-99694178D02*
X91046428Y-99658464D01*
X91046428Y-99658464D02*
X90974999Y-99658464D01*
X90724999Y-99658464D02*
X90724999Y-100158464D01*
X90724999Y-99729892D02*
X90689285Y-99694178D01*
X90689285Y-99694178D02*
X90617856Y-99658464D01*
X90617856Y-99658464D02*
X90510713Y-99658464D01*
X90510713Y-99658464D02*
X90439285Y-99694178D01*
X90439285Y-99694178D02*
X90403571Y-99765607D01*
X90403571Y-99765607D02*
X90403571Y-100158464D01*
X90117857Y-99658464D02*
X89975000Y-100158464D01*
X89975000Y-100158464D02*
X89832142Y-99801321D01*
X89832142Y-99801321D02*
X89689285Y-100158464D01*
X89689285Y-100158464D02*
X89546428Y-99658464D01*
X89260714Y-100158464D02*
X89260714Y-99658464D01*
X89260714Y-99408464D02*
X89296428Y-99444178D01*
X89296428Y-99444178D02*
X89260714Y-99479892D01*
X89260714Y-99479892D02*
X89225000Y-99444178D01*
X89225000Y-99444178D02*
X89260714Y-99408464D01*
X89260714Y-99408464D02*
X89260714Y-99479892D01*
X88903571Y-99658464D02*
X88903571Y-100158464D01*
X88903571Y-99729892D02*
X88867857Y-99694178D01*
X88867857Y-99694178D02*
X88796428Y-99658464D01*
X88796428Y-99658464D02*
X88689285Y-99658464D01*
X88689285Y-99658464D02*
X88617857Y-99694178D01*
X88617857Y-99694178D02*
X88582143Y-99765607D01*
X88582143Y-99765607D02*
X88582143Y-100158464D01*
X87903572Y-99658464D02*
X87903572Y-100265607D01*
X87903572Y-100265607D02*
X87939286Y-100337035D01*
X87939286Y-100337035D02*
X87975000Y-100372750D01*
X87975000Y-100372750D02*
X88046429Y-100408464D01*
X88046429Y-100408464D02*
X88153572Y-100408464D01*
X88153572Y-100408464D02*
X88225000Y-100372750D01*
X87903572Y-100122750D02*
X87975000Y-100158464D01*
X87975000Y-100158464D02*
X88117857Y-100158464D01*
X88117857Y-100158464D02*
X88189286Y-100122750D01*
X88189286Y-100122750D02*
X88225000Y-100087035D01*
X88225000Y-100087035D02*
X88260714Y-100015607D01*
X88260714Y-100015607D02*
X88260714Y-99801321D01*
X88260714Y-99801321D02*
X88225000Y-99729892D01*
X88225000Y-99729892D02*
X88189286Y-99694178D01*
X88189286Y-99694178D02*
X88117857Y-99658464D01*
X88117857Y-99658464D02*
X87975000Y-99658464D01*
X87975000Y-99658464D02*
X87903572Y-99694178D01*
X85975000Y-100158464D02*
X86225000Y-99801321D01*
X86403571Y-100158464D02*
X86403571Y-99408464D01*
X86403571Y-99408464D02*
X86117857Y-99408464D01*
X86117857Y-99408464D02*
X86046428Y-99444178D01*
X86046428Y-99444178D02*
X86010714Y-99479892D01*
X86010714Y-99479892D02*
X85975000Y-99551321D01*
X85975000Y-99551321D02*
X85975000Y-99658464D01*
X85975000Y-99658464D02*
X86010714Y-99729892D01*
X86010714Y-99729892D02*
X86046428Y-99765607D01*
X86046428Y-99765607D02*
X86117857Y-99801321D01*
X86117857Y-99801321D02*
X86403571Y-99801321D01*
X85367857Y-100122750D02*
X85439285Y-100158464D01*
X85439285Y-100158464D02*
X85582143Y-100158464D01*
X85582143Y-100158464D02*
X85653571Y-100122750D01*
X85653571Y-100122750D02*
X85689285Y-100051321D01*
X85689285Y-100051321D02*
X85689285Y-99765607D01*
X85689285Y-99765607D02*
X85653571Y-99694178D01*
X85653571Y-99694178D02*
X85582143Y-99658464D01*
X85582143Y-99658464D02*
X85439285Y-99658464D01*
X85439285Y-99658464D02*
X85367857Y-99694178D01*
X85367857Y-99694178D02*
X85332143Y-99765607D01*
X85332143Y-99765607D02*
X85332143Y-99837035D01*
X85332143Y-99837035D02*
X85689285Y-99908464D01*
X85082143Y-99658464D02*
X84903571Y-100158464D01*
X84903571Y-100158464D02*
X84725000Y-99658464D01*
X84474999Y-99479892D02*
X84439285Y-99444178D01*
X84439285Y-99444178D02*
X84367857Y-99408464D01*
X84367857Y-99408464D02*
X84189285Y-99408464D01*
X84189285Y-99408464D02*
X84117857Y-99444178D01*
X84117857Y-99444178D02*
X84082142Y-99479892D01*
X84082142Y-99479892D02*
X84046428Y-99551321D01*
X84046428Y-99551321D02*
X84046428Y-99622750D01*
X84046428Y-99622750D02*
X84082142Y-99729892D01*
X84082142Y-99729892D02*
X84510714Y-100158464D01*
X84510714Y-100158464D02*
X84046428Y-100158464D01*
D11*
X88693569Y-84179928D02*
X88669760Y-84156119D01*
X88669760Y-84156119D02*
X88622141Y-84132309D01*
X88622141Y-84132309D02*
X88503093Y-84132309D01*
X88503093Y-84132309D02*
X88455474Y-84156119D01*
X88455474Y-84156119D02*
X88431665Y-84179928D01*
X88431665Y-84179928D02*
X88407855Y-84227547D01*
X88407855Y-84227547D02*
X88407855Y-84275166D01*
X88407855Y-84275166D02*
X88431665Y-84346595D01*
X88431665Y-84346595D02*
X88717379Y-84632309D01*
X88717379Y-84632309D02*
X88407855Y-84632309D01*
X88098332Y-84132309D02*
X88050713Y-84132309D01*
X88050713Y-84132309D02*
X88003094Y-84156119D01*
X88003094Y-84156119D02*
X87979284Y-84179928D01*
X87979284Y-84179928D02*
X87955475Y-84227547D01*
X87955475Y-84227547D02*
X87931665Y-84322785D01*
X87931665Y-84322785D02*
X87931665Y-84441833D01*
X87931665Y-84441833D02*
X87955475Y-84537071D01*
X87955475Y-84537071D02*
X87979284Y-84584690D01*
X87979284Y-84584690D02*
X88003094Y-84608500D01*
X88003094Y-84608500D02*
X88050713Y-84632309D01*
X88050713Y-84632309D02*
X88098332Y-84632309D01*
X88098332Y-84632309D02*
X88145951Y-84608500D01*
X88145951Y-84608500D02*
X88169760Y-84584690D01*
X88169760Y-84584690D02*
X88193570Y-84537071D01*
X88193570Y-84537071D02*
X88217379Y-84441833D01*
X88217379Y-84441833D02*
X88217379Y-84322785D01*
X88217379Y-84322785D02*
X88193570Y-84227547D01*
X88193570Y-84227547D02*
X88169760Y-84179928D01*
X88169760Y-84179928D02*
X88145951Y-84156119D01*
X88145951Y-84156119D02*
X88098332Y-84132309D01*
X87741189Y-84179928D02*
X87717380Y-84156119D01*
X87717380Y-84156119D02*
X87669761Y-84132309D01*
X87669761Y-84132309D02*
X87550713Y-84132309D01*
X87550713Y-84132309D02*
X87503094Y-84156119D01*
X87503094Y-84156119D02*
X87479285Y-84179928D01*
X87479285Y-84179928D02*
X87455475Y-84227547D01*
X87455475Y-84227547D02*
X87455475Y-84275166D01*
X87455475Y-84275166D02*
X87479285Y-84346595D01*
X87479285Y-84346595D02*
X87764999Y-84632309D01*
X87764999Y-84632309D02*
X87455475Y-84632309D01*
X87003095Y-84132309D02*
X87241190Y-84132309D01*
X87241190Y-84132309D02*
X87264999Y-84370404D01*
X87264999Y-84370404D02*
X87241190Y-84346595D01*
X87241190Y-84346595D02*
X87193571Y-84322785D01*
X87193571Y-84322785D02*
X87074523Y-84322785D01*
X87074523Y-84322785D02*
X87026904Y-84346595D01*
X87026904Y-84346595D02*
X87003095Y-84370404D01*
X87003095Y-84370404D02*
X86979285Y-84418023D01*
X86979285Y-84418023D02*
X86979285Y-84537071D01*
X86979285Y-84537071D02*
X87003095Y-84584690D01*
X87003095Y-84584690D02*
X87026904Y-84608500D01*
X87026904Y-84608500D02*
X87074523Y-84632309D01*
X87074523Y-84632309D02*
X87193571Y-84632309D01*
X87193571Y-84632309D02*
X87241190Y-84608500D01*
X87241190Y-84608500D02*
X87264999Y-84584690D01*
X86765000Y-84441833D02*
X86384048Y-84441833D01*
X86050714Y-84132309D02*
X86003095Y-84132309D01*
X86003095Y-84132309D02*
X85955476Y-84156119D01*
X85955476Y-84156119D02*
X85931666Y-84179928D01*
X85931666Y-84179928D02*
X85907857Y-84227547D01*
X85907857Y-84227547D02*
X85884047Y-84322785D01*
X85884047Y-84322785D02*
X85884047Y-84441833D01*
X85884047Y-84441833D02*
X85907857Y-84537071D01*
X85907857Y-84537071D02*
X85931666Y-84584690D01*
X85931666Y-84584690D02*
X85955476Y-84608500D01*
X85955476Y-84608500D02*
X86003095Y-84632309D01*
X86003095Y-84632309D02*
X86050714Y-84632309D01*
X86050714Y-84632309D02*
X86098333Y-84608500D01*
X86098333Y-84608500D02*
X86122142Y-84584690D01*
X86122142Y-84584690D02*
X86145952Y-84537071D01*
X86145952Y-84537071D02*
X86169761Y-84441833D01*
X86169761Y-84441833D02*
X86169761Y-84322785D01*
X86169761Y-84322785D02*
X86145952Y-84227547D01*
X86145952Y-84227547D02*
X86122142Y-84179928D01*
X86122142Y-84179928D02*
X86098333Y-84156119D01*
X86098333Y-84156119D02*
X86050714Y-84132309D01*
X85717381Y-84132309D02*
X85384048Y-84132309D01*
X85384048Y-84132309D02*
X85598333Y-84632309D01*
X85193572Y-84441833D02*
X84812620Y-84441833D01*
X84598333Y-84179928D02*
X84574524Y-84156119D01*
X84574524Y-84156119D02*
X84526905Y-84132309D01*
X84526905Y-84132309D02*
X84407857Y-84132309D01*
X84407857Y-84132309D02*
X84360238Y-84156119D01*
X84360238Y-84156119D02*
X84336429Y-84179928D01*
X84336429Y-84179928D02*
X84312619Y-84227547D01*
X84312619Y-84227547D02*
X84312619Y-84275166D01*
X84312619Y-84275166D02*
X84336429Y-84346595D01*
X84336429Y-84346595D02*
X84622143Y-84632309D01*
X84622143Y-84632309D02*
X84312619Y-84632309D01*
X83836429Y-84632309D02*
X84122143Y-84632309D01*
X83979286Y-84632309D02*
X83979286Y-84132309D01*
X83979286Y-84132309D02*
X84026905Y-84203738D01*
X84026905Y-84203738D02*
X84074524Y-84251357D01*
X84074524Y-84251357D02*
X84122143Y-84275166D01*
D12*
G36*
X97967724Y-100244508D02*
G01*
X97967724Y-100053021D01*
X97809943Y-100053021D01*
X97809943Y-100244508D01*
X97967724Y-100244508D01*
G37*
G36*
X97704553Y-100035314D02*
G01*
X97546772Y-100006126D01*
X97534174Y-100049158D01*
X97515469Y-100080026D01*
X97490997Y-100101437D01*
X97459780Y-100114691D01*
X97419704Y-100119455D01*
X97367547Y-100113319D01*
X97335013Y-100097718D01*
X97313951Y-100072660D01*
X97306986Y-100041297D01*
X97310267Y-100019462D01*
X97319260Y-100003989D01*
X97336105Y-99992441D01*
X97370551Y-99980298D01*
X97501433Y-99940398D01*
X97577704Y-99908058D01*
X97617114Y-99882295D01*
X97645407Y-99851256D01*
X97665684Y-99815221D01*
X97678268Y-99773200D01*
X97682693Y-99723782D01*
X97678386Y-99674310D01*
X97666091Y-99631749D01*
X97646229Y-99594814D01*
X97618518Y-99562581D01*
X97584909Y-99537332D01*
X97543739Y-99518479D01*
X97493427Y-99506370D01*
X97431978Y-99502009D01*
X97355100Y-99507840D01*
X97297336Y-99523458D01*
X97254413Y-99546950D01*
X97219489Y-99580977D01*
X97190852Y-99628181D01*
X97168989Y-99691847D01*
X97317245Y-99724759D01*
X97332080Y-99686448D01*
X97354770Y-99660570D01*
X97386157Y-99644614D01*
X97429291Y-99638785D01*
X97482590Y-99643868D01*
X97511967Y-99655943D01*
X97530529Y-99675913D01*
X97536514Y-99700395D01*
X97531066Y-99722452D01*
X97513982Y-99741001D01*
X97479400Y-99757267D01*
X97373970Y-99789117D01*
X97287316Y-99817913D01*
X97230245Y-99847519D01*
X97195001Y-99877166D01*
X97169874Y-99914804D01*
X97154150Y-99960862D01*
X97148534Y-100017606D01*
X97153236Y-100069100D01*
X97166826Y-100114539D01*
X97189094Y-100155105D01*
X97220585Y-100191629D01*
X97258408Y-100220609D01*
X97303220Y-100241898D01*
X97356394Y-100255356D01*
X97419704Y-100260139D01*
X97494750Y-100253225D01*
X97556730Y-100233784D01*
X97608260Y-100202742D01*
X97650386Y-100160022D01*
X97682548Y-100105100D01*
X97704553Y-100035314D01*
G37*
G36*
X96720910Y-99505589D02*
G01*
X96756016Y-99516284D01*
X96789985Y-99534432D01*
X96833890Y-99572521D01*
X96869181Y-99624192D01*
X96869181Y-99517641D01*
X97016093Y-99517641D01*
X97016093Y-100521967D01*
X96858251Y-100521967D01*
X96858251Y-100154199D01*
X96811580Y-100207621D01*
X96772522Y-100237241D01*
X96730291Y-100254401D01*
X96684717Y-100260139D01*
X96636753Y-100254235D01*
X96592241Y-100236588D01*
X96549945Y-100206214D01*
X96509167Y-100160793D01*
X96478983Y-100110096D01*
X96455910Y-100047193D01*
X96440864Y-99969565D01*
X96435476Y-99875457D01*
X96595934Y-99875457D01*
X96601027Y-99956269D01*
X96614136Y-100012476D01*
X96632815Y-100050334D01*
X96660507Y-100081046D01*
X96690369Y-100098165D01*
X96723673Y-100103824D01*
X96758613Y-100097763D01*
X96790411Y-100079289D01*
X96820394Y-100045877D01*
X96840851Y-100005031D01*
X96854935Y-99946675D01*
X96860327Y-99865259D01*
X96855270Y-99794077D01*
X96841891Y-99741802D01*
X96822103Y-99704059D01*
X96793468Y-99673527D01*
X96762025Y-99656273D01*
X96726421Y-99650509D01*
X96692725Y-99656286D01*
X96662296Y-99673823D01*
X96633853Y-99705402D01*
X96614400Y-99744053D01*
X96601040Y-99799026D01*
X96595934Y-99875457D01*
X96435476Y-99875457D01*
X96435406Y-99874235D01*
X96440779Y-99783770D01*
X96455658Y-99709466D01*
X96478615Y-99648640D01*
X96508862Y-99599035D01*
X96549319Y-99554810D01*
X96591450Y-99525121D01*
X96635953Y-99507813D01*
X96684045Y-99502009D01*
X96720910Y-99505589D01*
G37*
G36*
X96151807Y-99508165D02*
G01*
X96207804Y-99524841D01*
X96250331Y-99550369D01*
X96284349Y-99586599D01*
X96313188Y-99638136D01*
X96336060Y-99709127D01*
X96193300Y-99740390D01*
X96174476Y-99694003D01*
X96154038Y-99669438D01*
X96126601Y-99655640D01*
X96087421Y-99650509D01*
X96048388Y-99653879D01*
X96022880Y-99662416D01*
X96003117Y-99676477D01*
X95991433Y-99693068D01*
X95985644Y-99716895D01*
X95982885Y-99771653D01*
X96034664Y-99791843D01*
X96135231Y-99818670D01*
X96218498Y-99843344D01*
X96266451Y-99867030D01*
X96302677Y-99898718D01*
X96329954Y-99939937D01*
X96346584Y-99988229D01*
X96352485Y-100046915D01*
X96345870Y-100109208D01*
X96327242Y-100160032D01*
X96297164Y-100201887D01*
X96257066Y-100234070D01*
X96210377Y-100253415D01*
X96155076Y-100260139D01*
X96104554Y-100254256D01*
X96057013Y-100236631D01*
X96013388Y-100207845D01*
X95970612Y-100165251D01*
X95950095Y-100244508D01*
X95794390Y-100244508D01*
X95811929Y-100192870D01*
X95822356Y-100146383D01*
X95827650Y-100094169D01*
X95829867Y-100005882D01*
X95829459Y-99937738D01*
X95982885Y-99937738D01*
X95986809Y-100011718D01*
X95995524Y-100048503D01*
X96012679Y-100076300D01*
X96040954Y-100101198D01*
X96074613Y-100118054D01*
X96107204Y-100123363D01*
X96141658Y-100116473D01*
X96169731Y-100095886D01*
X96188279Y-100065495D01*
X96194643Y-100027925D01*
X96188838Y-99994966D01*
X96172112Y-99969551D01*
X96142224Y-99950366D01*
X96076491Y-99928457D01*
X95982885Y-99900614D01*
X95982885Y-99937738D01*
X95829459Y-99937738D01*
X95828523Y-99781667D01*
X95831851Y-99695578D01*
X95840091Y-99639964D01*
X95851055Y-99606301D01*
X95869091Y-99576809D01*
X95893828Y-99551498D01*
X95926220Y-99530036D01*
X95962507Y-99515596D01*
X96012071Y-99505734D01*
X96078506Y-99502009D01*
X96151807Y-99508165D01*
G37*
G36*
X95154352Y-99732574D02*
G01*
X95309446Y-99763838D01*
X95324195Y-99710471D01*
X95346825Y-99676767D01*
X95376839Y-99657331D01*
X95416669Y-99650509D01*
X95452882Y-99656006D01*
X95483589Y-99672117D01*
X95510275Y-99699968D01*
X95528144Y-99735135D01*
X95540797Y-99788576D01*
X95545751Y-99866847D01*
X95540731Y-99953732D01*
X95528004Y-100012358D01*
X95510275Y-100050273D01*
X95483247Y-100080574D01*
X95452097Y-100097928D01*
X95415264Y-100103824D01*
X95386961Y-100100362D01*
X95362935Y-100090376D01*
X95342175Y-100073721D01*
X95326546Y-100051659D01*
X95312587Y-100017490D01*
X95301203Y-99967048D01*
X95146170Y-99998311D01*
X95165510Y-100073775D01*
X95191716Y-100133074D01*
X95223942Y-100179074D01*
X95262071Y-100213945D01*
X95306736Y-100239011D01*
X95359252Y-100254627D01*
X95421493Y-100260139D01*
X95478914Y-100255323D01*
X95527884Y-100241643D01*
X95569943Y-100219690D01*
X95606221Y-100189285D01*
X95637342Y-100149497D01*
X95667393Y-100093023D01*
X95689329Y-100030468D01*
X95702953Y-99960885D01*
X95707684Y-99883150D01*
X95701827Y-99788518D01*
X95685672Y-99711641D01*
X95660825Y-99649433D01*
X95628122Y-99599340D01*
X95584881Y-99556490D01*
X95536494Y-99526510D01*
X95481893Y-99508308D01*
X95419417Y-99502009D01*
X95351708Y-99508624D01*
X95295706Y-99527281D01*
X95248996Y-99557269D01*
X95211284Y-99598319D01*
X95179473Y-99655390D01*
X95154352Y-99732574D01*
G37*
G36*
X94863290Y-99507876D02*
G01*
X94912004Y-99524933D01*
X94955683Y-99553280D01*
X94995228Y-99594211D01*
X95031152Y-99650532D01*
X95057781Y-99716552D01*
X95074663Y-99794042D01*
X95080652Y-99885165D01*
X95074573Y-99978087D01*
X95057629Y-100055180D01*
X95031218Y-100119103D01*
X94995961Y-100172028D01*
X94957054Y-100210025D01*
X94911192Y-100237235D01*
X94856985Y-100254161D01*
X94792384Y-100260139D01*
X94730947Y-100253986D01*
X94677785Y-100236285D01*
X94631184Y-100207260D01*
X94592593Y-100167969D01*
X94559880Y-100114973D01*
X94533487Y-100045205D01*
X94689924Y-100013942D01*
X94707514Y-100060039D01*
X94730031Y-100089262D01*
X94757319Y-100105926D01*
X94791041Y-100111639D01*
X94823971Y-100106671D01*
X94853530Y-100091802D01*
X94880861Y-100065722D01*
X94900737Y-100033048D01*
X94913971Y-99990619D01*
X94919451Y-99935785D01*
X94525243Y-99935785D01*
X94524572Y-99913986D01*
X94530338Y-99814640D01*
X94681009Y-99814640D01*
X94916704Y-99814640D01*
X94912728Y-99763835D01*
X94901000Y-99724219D01*
X94882571Y-99693374D01*
X94857392Y-99669100D01*
X94829737Y-99655186D01*
X94798490Y-99650509D01*
X94768936Y-99654953D01*
X94742179Y-99668289D01*
X94717218Y-99691725D01*
X94699142Y-99721131D01*
X94686651Y-99761074D01*
X94681009Y-99814640D01*
X94530338Y-99814640D01*
X94530792Y-99806826D01*
X94547865Y-99720436D01*
X94573932Y-99651208D01*
X94607920Y-99596104D01*
X94647542Y-99554974D01*
X94693196Y-99525992D01*
X94746081Y-99508222D01*
X94808077Y-99502009D01*
X94863290Y-99507876D01*
G37*
D13*
%TO.C,.space*%
G36*
X100420404Y-99191932D02*
G01*
X100512578Y-99253042D01*
X100563020Y-99300294D01*
X100563020Y-99240340D01*
X100563490Y-99221530D01*
X100572319Y-99193882D01*
X100601759Y-99182563D01*
X100663902Y-99180386D01*
X100764785Y-99180386D01*
X100764785Y-99696008D01*
X100764785Y-100211631D01*
X100665481Y-100211631D01*
X100566176Y-100211631D01*
X100558993Y-99862152D01*
X100551811Y-99512673D01*
X100488910Y-99458622D01*
X100484433Y-99454848D01*
X100415354Y-99415983D01*
X100327166Y-99404570D01*
X100289035Y-99402746D01*
X100225416Y-99382183D01*
X100191759Y-99333493D01*
X100181908Y-99250131D01*
X100184497Y-99213938D01*
X100204182Y-99184126D01*
X100255001Y-99168706D01*
X100317826Y-99165463D01*
X100420404Y-99191932D01*
G37*
G36*
X111015465Y-100191164D02*
G01*
X111024597Y-100208500D01*
X111006131Y-100233930D01*
X110957365Y-100269417D01*
X110875599Y-100316925D01*
X110758132Y-100378418D01*
X110602263Y-100455860D01*
X110554167Y-100479316D01*
X110429278Y-100539558D01*
X110319688Y-100591476D01*
X110231618Y-100632180D01*
X110171290Y-100658777D01*
X110144926Y-100668378D01*
X110130464Y-100664706D01*
X110079442Y-100643945D01*
X110000974Y-100608167D01*
X109902569Y-100561155D01*
X109791735Y-100506695D01*
X109675983Y-100448573D01*
X109562820Y-100390574D01*
X109459755Y-100336483D01*
X109374298Y-100290085D01*
X109313958Y-100255166D01*
X109286243Y-100235512D01*
X109279341Y-100226876D01*
X109268749Y-100200336D01*
X109295161Y-100183429D01*
X109304682Y-100182452D01*
X109356413Y-100195559D01*
X109446449Y-100231398D01*
X109574593Y-100289888D01*
X109740645Y-100370943D01*
X110146664Y-100573600D01*
X110546588Y-100373391D01*
X110566115Y-100363645D01*
X110688903Y-100303701D01*
X110798533Y-100252398D01*
X110888326Y-100212703D01*
X110951605Y-100187583D01*
X110981691Y-100180008D01*
X111015465Y-100191164D01*
G37*
G36*
X111017817Y-99754921D02*
G01*
X111027065Y-99772279D01*
X111008641Y-99797683D01*
X110959850Y-99833088D01*
X110877998Y-99880448D01*
X110760390Y-99941717D01*
X110604333Y-100018851D01*
X110555867Y-100042384D01*
X110431480Y-100102329D01*
X110322801Y-100154063D01*
X110235967Y-100194701D01*
X110177115Y-100221363D01*
X110152381Y-100231164D01*
X110134923Y-100226476D01*
X110081839Y-100204581D01*
X110001909Y-100168165D01*
X109902569Y-100120943D01*
X109791254Y-100066627D01*
X109675398Y-100008930D01*
X109562437Y-99951563D01*
X109459807Y-99898240D01*
X109374941Y-99852674D01*
X109315276Y-99818577D01*
X109288245Y-99799662D01*
X109281106Y-99790602D01*
X109270757Y-99763988D01*
X109297163Y-99747097D01*
X109306684Y-99746120D01*
X109358415Y-99759227D01*
X109448451Y-99795067D01*
X109576595Y-99853556D01*
X109742647Y-99934611D01*
X110148666Y-100137269D01*
X110548590Y-99937059D01*
X110568117Y-99927313D01*
X110690905Y-99867370D01*
X110800535Y-99816066D01*
X110890328Y-99776371D01*
X110953607Y-99751252D01*
X110983693Y-99743676D01*
X111017817Y-99754921D01*
G37*
G36*
X106821870Y-99559211D02*
G01*
X106822346Y-99584148D01*
X106825558Y-99719176D01*
X106829657Y-99817510D01*
X106835459Y-99886191D01*
X106843783Y-99932259D01*
X106855444Y-99962756D01*
X106871261Y-99984721D01*
X106877561Y-99991294D01*
X106951201Y-100035526D01*
X107040037Y-100046910D01*
X107127832Y-100023023D01*
X107138806Y-100016953D01*
X107176400Y-99986468D01*
X107204134Y-99941867D01*
X107223363Y-99877028D01*
X107235442Y-99785826D01*
X107241724Y-99662141D01*
X107243566Y-99499848D01*
X107243691Y-99180386D01*
X107344573Y-99180386D01*
X107445456Y-99180386D01*
X107445456Y-99562218D01*
X107445153Y-99640885D01*
X107441222Y-99799606D01*
X107430958Y-99922116D01*
X107412112Y-100014417D01*
X107382436Y-100082511D01*
X107339681Y-100132399D01*
X107281600Y-100170085D01*
X107205942Y-100201569D01*
X107202564Y-100202767D01*
X107101197Y-100228533D01*
X107011881Y-100224505D01*
X106913020Y-100189816D01*
X106908401Y-100187727D01*
X106851834Y-100164760D01*
X106824714Y-100162233D01*
X106817742Y-100179099D01*
X106814366Y-100191415D01*
X106784147Y-100206949D01*
X106716859Y-100211631D01*
X106615977Y-100211631D01*
X106615977Y-99696008D01*
X106615977Y-99180386D01*
X106715383Y-99180386D01*
X106814789Y-99180386D01*
X106821870Y-99559211D01*
G37*
G36*
X101235571Y-99513316D02*
G01*
X101235738Y-99553259D01*
X101238386Y-99677071D01*
X101243786Y-99785623D01*
X101251333Y-99869061D01*
X101260419Y-99917528D01*
X101302387Y-99984657D01*
X101371952Y-100030682D01*
X101454568Y-100047676D01*
X101537497Y-100033176D01*
X101608000Y-99984721D01*
X101610786Y-99981558D01*
X101625898Y-99958721D01*
X101636982Y-99926250D01*
X101644857Y-99877104D01*
X101650338Y-99804242D01*
X101654244Y-99700624D01*
X101657391Y-99559211D01*
X101664472Y-99180386D01*
X101763878Y-99180386D01*
X101863285Y-99180386D01*
X101863137Y-99589521D01*
X101863057Y-99650366D01*
X101862106Y-99783489D01*
X101859590Y-99881433D01*
X101854892Y-99951204D01*
X101847393Y-99999808D01*
X101836477Y-100034251D01*
X101821526Y-100061541D01*
X101735560Y-100154041D01*
X101620745Y-100213217D01*
X101580726Y-100222458D01*
X101480546Y-100225127D01*
X101380090Y-100206197D01*
X101300492Y-100168614D01*
X101285993Y-100157925D01*
X101250698Y-100134546D01*
X101237532Y-100137418D01*
X101235571Y-100166123D01*
X101235514Y-100170140D01*
X101227433Y-100196641D01*
X101197649Y-100208746D01*
X101134688Y-100211631D01*
X101033805Y-100211631D01*
X101033805Y-99696008D01*
X101033805Y-99180386D01*
X101134688Y-99180386D01*
X101235571Y-99180386D01*
X101235571Y-99513316D01*
G37*
G36*
X99721040Y-99179953D02*
G01*
X99835296Y-99223233D01*
X99932891Y-99296209D01*
X100005171Y-99398648D01*
X100022934Y-99438543D01*
X100043685Y-99506610D01*
X100054081Y-99587066D01*
X100056924Y-99696008D01*
X100049590Y-99826213D01*
X100016654Y-99966464D01*
X99955301Y-100075369D01*
X99863402Y-100156388D01*
X99738830Y-100212976D01*
X99687478Y-100223465D01*
X99581112Y-100223056D01*
X99468129Y-100201711D01*
X99367803Y-100162075D01*
X99351696Y-100152257D01*
X99295835Y-100104680D01*
X99244876Y-100044093D01*
X99205869Y-99981307D01*
X99185866Y-99927135D01*
X99191918Y-99892388D01*
X99194899Y-99889945D01*
X99233349Y-99873988D01*
X99292185Y-99860485D01*
X99342106Y-99855229D01*
X99374518Y-99865783D01*
X99394165Y-99900531D01*
X99434302Y-99969591D01*
X99509657Y-100024676D01*
X99610240Y-100043493D01*
X99696235Y-100030746D01*
X99768822Y-99985057D01*
X99816520Y-99904817D01*
X99840122Y-99788617D01*
X99840423Y-99635048D01*
X99833758Y-99554854D01*
X99822086Y-99490988D01*
X99802216Y-99446691D01*
X99769907Y-99408328D01*
X99697616Y-99360967D01*
X99609338Y-99345241D01*
X99521464Y-99363004D01*
X99446075Y-99411666D01*
X99395247Y-99488639D01*
X99381609Y-99513978D01*
X99347968Y-99533934D01*
X99285025Y-99539080D01*
X99216595Y-99531291D01*
X99184143Y-99504768D01*
X99186430Y-99455030D01*
X99221701Y-99377597D01*
X99270453Y-99308440D01*
X99364829Y-99230612D01*
X99477154Y-99183410D01*
X99598776Y-99166601D01*
X99721040Y-99179953D01*
G37*
G36*
X105267864Y-99664433D02*
G01*
X105259630Y-99792897D01*
X105238722Y-99911858D01*
X105206506Y-100004209D01*
X105154765Y-100081586D01*
X105060191Y-100164465D01*
X104948842Y-100212693D01*
X104888534Y-100224178D01*
X104744331Y-100224555D01*
X104615901Y-100183041D01*
X104503552Y-100099715D01*
X104471344Y-100065974D01*
X104433663Y-100020956D01*
X104418977Y-99994918D01*
X104419107Y-99993551D01*
X104439091Y-99968333D01*
X104482779Y-99937008D01*
X104503764Y-99924896D01*
X104538400Y-99912260D01*
X104567865Y-99924468D01*
X104610006Y-99965522D01*
X104687010Y-100022595D01*
X104788753Y-100048708D01*
X104900305Y-100032504D01*
X104965631Y-100000575D01*
X105023061Y-99935671D01*
X105057351Y-99836716D01*
X105072412Y-99764449D01*
X104728881Y-99758252D01*
X104385350Y-99752054D01*
X104392725Y-99628753D01*
X104396146Y-99606335D01*
X104592720Y-99606335D01*
X104828554Y-99606335D01*
X105064388Y-99606335D01*
X105045928Y-99524487D01*
X105039810Y-99500641D01*
X104997540Y-99414556D01*
X104929755Y-99364638D01*
X104833604Y-99348524D01*
X104810506Y-99349436D01*
X104715430Y-99376986D01*
X104645948Y-99439753D01*
X104607274Y-99533475D01*
X104592720Y-99606335D01*
X104396146Y-99606335D01*
X104410449Y-99512601D01*
X104451306Y-99393926D01*
X104509200Y-99296058D01*
X104578613Y-99230810D01*
X104630171Y-99203596D01*
X104756098Y-99167987D01*
X104883949Y-99168543D01*
X105005439Y-99202274D01*
X105112284Y-99266193D01*
X105196202Y-99357311D01*
X105248906Y-99472638D01*
X105262060Y-99543576D01*
X105265074Y-99606335D01*
X105267864Y-99664433D01*
G37*
G36*
X106346956Y-100211631D02*
G01*
X106246074Y-100211631D01*
X106203285Y-100210263D01*
X106158394Y-100200168D01*
X106145191Y-100178003D01*
X106145192Y-100176682D01*
X106144098Y-100154039D01*
X106133808Y-100147815D01*
X106103990Y-100159156D01*
X106044308Y-100189212D01*
X106013974Y-100203954D01*
X105941734Y-100228421D01*
X105870770Y-100229977D01*
X105780280Y-100210283D01*
X105706794Y-100181954D01*
X105606022Y-100106587D01*
X105532652Y-99997542D01*
X105487846Y-99856798D01*
X105473963Y-99699871D01*
X105686122Y-99699871D01*
X105695457Y-99813275D01*
X105724273Y-99912579D01*
X105772038Y-99984394D01*
X105791591Y-100001048D01*
X105874008Y-100041141D01*
X105957461Y-100041665D01*
X106032073Y-100004298D01*
X106087967Y-99930718D01*
X106109365Y-99858495D01*
X106121136Y-99755528D01*
X106121418Y-99643171D01*
X106110225Y-99538969D01*
X106087572Y-99460467D01*
X106044488Y-99398420D01*
X105974634Y-99354560D01*
X105895683Y-99347213D01*
X105817643Y-99376869D01*
X105750520Y-99444016D01*
X105728031Y-99484329D01*
X105696803Y-99585759D01*
X105686122Y-99699871D01*
X105473963Y-99699871D01*
X105472765Y-99686335D01*
X105474403Y-99620892D01*
X105492083Y-99490298D01*
X105532124Y-99384808D01*
X105598185Y-99292947D01*
X105659555Y-99238376D01*
X105765165Y-99184747D01*
X105879117Y-99164242D01*
X105990423Y-99178311D01*
X106088092Y-99228400D01*
X106145191Y-99273314D01*
X106145191Y-99025085D01*
X106145191Y-98776856D01*
X106246074Y-98776856D01*
X106346956Y-98776856D01*
X106346956Y-99494243D01*
X106346956Y-99643171D01*
X106346956Y-100211631D01*
G37*
G36*
X102986164Y-99835236D02*
G01*
X102952016Y-99972512D01*
X102890453Y-100078627D01*
X102799113Y-100157482D01*
X102675635Y-100212976D01*
X102621423Y-100223316D01*
X102522645Y-100223543D01*
X102420223Y-100208042D01*
X102335993Y-100178997D01*
X102285718Y-100147925D01*
X102193572Y-100055271D01*
X102128929Y-99935070D01*
X102093909Y-99794243D01*
X102093535Y-99776586D01*
X102314519Y-99776586D01*
X102319397Y-99844047D01*
X102332403Y-99893432D01*
X102355415Y-99937565D01*
X102360691Y-99945592D01*
X102408468Y-99999213D01*
X102458841Y-100032843D01*
X102551371Y-100051553D01*
X102643575Y-100030364D01*
X102726391Y-99965353D01*
X102754196Y-99912282D01*
X102773682Y-99826158D01*
X102782209Y-99723368D01*
X102779440Y-99617858D01*
X102765040Y-99523571D01*
X102738674Y-99454452D01*
X102712365Y-99419389D01*
X102635862Y-99362802D01*
X102547267Y-99342965D01*
X102457351Y-99360968D01*
X102376888Y-99417899D01*
X102368051Y-99427649D01*
X102344141Y-99462309D01*
X102329425Y-99506332D01*
X102321052Y-99571543D01*
X102316172Y-99669762D01*
X102315888Y-99678221D01*
X102314519Y-99776586D01*
X102093535Y-99776586D01*
X102090634Y-99639709D01*
X102121224Y-99478387D01*
X102133837Y-99441776D01*
X102198656Y-99330450D01*
X102289334Y-99247153D01*
X102398071Y-99192772D01*
X102517065Y-99168190D01*
X102638517Y-99174293D01*
X102754624Y-99211965D01*
X102857588Y-99282092D01*
X102939607Y-99385558D01*
X102946711Y-99398203D01*
X102971944Y-99451836D01*
X102986726Y-99508122D01*
X102993677Y-99581098D01*
X102995412Y-99684799D01*
X102993041Y-99723368D01*
X102986164Y-99835236D01*
G37*
G36*
X99000460Y-99684799D02*
G01*
X98997834Y-99762478D01*
X98970898Y-99920462D01*
X98914348Y-100045563D01*
X98827589Y-100138839D01*
X98710026Y-100201349D01*
X98683012Y-100210532D01*
X98600504Y-100229474D01*
X98519593Y-100228638D01*
X98419113Y-100208548D01*
X98373889Y-100192915D01*
X98299423Y-100152678D01*
X98231996Y-100101665D01*
X98183107Y-100049097D01*
X98164255Y-100004192D01*
X98180567Y-99969769D01*
X98221376Y-99932759D01*
X98237436Y-99922457D01*
X98270272Y-99908615D01*
X98298683Y-99920088D01*
X98339797Y-99960955D01*
X98413452Y-100017704D01*
X98513792Y-100046765D01*
X98621043Y-100033204D01*
X98689681Y-100001775D01*
X98752865Y-99937902D01*
X98784652Y-99844508D01*
X98797836Y-99763264D01*
X98455386Y-99763264D01*
X98112935Y-99763264D01*
X98126456Y-99618475D01*
X98139143Y-99544068D01*
X98343602Y-99544068D01*
X98343602Y-99606335D01*
X98567786Y-99606335D01*
X98650904Y-99605931D01*
X98730672Y-99601874D01*
X98775655Y-99589773D01*
X98791671Y-99565238D01*
X98784539Y-99523882D01*
X98760079Y-99461316D01*
X98747874Y-99435617D01*
X98706533Y-99388090D01*
X98637939Y-99357953D01*
X98587862Y-99347630D01*
X98493926Y-99354219D01*
X98416158Y-99392788D01*
X98363178Y-99457887D01*
X98343602Y-99544068D01*
X98139143Y-99544068D01*
X98147214Y-99496737D01*
X98200186Y-99362090D01*
X98279762Y-99260586D01*
X98383384Y-99194374D01*
X98508495Y-99165604D01*
X98652537Y-99176426D01*
X98660082Y-99178015D01*
X98788058Y-99221295D01*
X98884043Y-99290634D01*
X98950079Y-99389010D01*
X98988205Y-99519405D01*
X98991601Y-99565238D01*
X99000460Y-99684799D01*
G37*
G36*
X108235318Y-98766292D02*
G01*
X108366905Y-98796049D01*
X108483353Y-98853990D01*
X108574083Y-98939182D01*
X108593019Y-98966015D01*
X108627749Y-99031079D01*
X108652111Y-99108321D01*
X108667628Y-99205853D01*
X108675822Y-99331789D01*
X108678215Y-99494243D01*
X108678185Y-99509578D01*
X108675925Y-99630030D01*
X108670607Y-99740829D01*
X108662961Y-99830248D01*
X108653721Y-99886565D01*
X108628511Y-99957139D01*
X108553147Y-100072779D01*
X108445339Y-100159191D01*
X108308563Y-100213086D01*
X108303426Y-100214312D01*
X108157268Y-100228889D01*
X108016762Y-100206705D01*
X107890198Y-100151342D01*
X107785871Y-100066381D01*
X107712073Y-99955405D01*
X107703449Y-99935067D01*
X107679849Y-99861746D01*
X107670132Y-99801267D01*
X107670815Y-99773393D01*
X107680807Y-99749987D01*
X107711996Y-99742666D01*
X107776127Y-99745221D01*
X107814111Y-99748098D01*
X107860822Y-99757288D01*
X107881939Y-99778062D01*
X107890180Y-99818604D01*
X107897233Y-99855884D01*
X107941771Y-99944854D01*
X108016712Y-100009558D01*
X108113845Y-100044466D01*
X108224959Y-100044047D01*
X108289610Y-100028239D01*
X108357251Y-99989822D01*
X108416079Y-99920808D01*
X108427289Y-99901215D01*
X108438719Y-99866435D01*
X108446491Y-99815520D01*
X108451248Y-99741298D01*
X108453630Y-99636596D01*
X108454282Y-99494243D01*
X108453939Y-99384840D01*
X108452066Y-99271080D01*
X108447986Y-99189655D01*
X108441056Y-99133395D01*
X108430635Y-99095127D01*
X108416079Y-99067678D01*
X108374139Y-99014754D01*
X108311061Y-98968880D01*
X108224959Y-98944440D01*
X108183464Y-98939851D01*
X108076483Y-98952915D01*
X107986468Y-98999295D01*
X107921630Y-99073461D01*
X107890180Y-99169883D01*
X107886777Y-99193635D01*
X107873526Y-99223024D01*
X107840882Y-99236840D01*
X107776127Y-99243265D01*
X107728827Y-99245768D01*
X107688128Y-99242371D01*
X107672478Y-99224925D01*
X107670132Y-99187219D01*
X107672557Y-99156556D01*
X107702117Y-99057755D01*
X107758440Y-98957976D01*
X107832909Y-98873811D01*
X107855532Y-98855461D01*
X107969050Y-98795065D01*
X108099173Y-98765653D01*
X108235318Y-98766292D01*
G37*
G36*
X103844316Y-98773293D02*
G01*
X103963883Y-98816206D01*
X104069197Y-98889615D01*
X104099363Y-98918132D01*
X104134810Y-98957692D01*
X104153189Y-98997122D01*
X104160106Y-99051412D01*
X104161166Y-99135550D01*
X104160961Y-99186491D01*
X104157343Y-99252398D01*
X104144880Y-99296544D01*
X104118090Y-99333813D01*
X104071493Y-99379091D01*
X104071098Y-99379458D01*
X103995307Y-99435673D01*
X103886031Y-99497321D01*
X103753163Y-99558814D01*
X103712568Y-99576145D01*
X103589689Y-99633207D01*
X103503261Y-99683450D01*
X103448031Y-99731115D01*
X103418746Y-99780441D01*
X103410151Y-99835669D01*
X103415008Y-99883665D01*
X103452367Y-99963737D01*
X103522472Y-100019184D01*
X103620380Y-100046898D01*
X103741152Y-100043775D01*
X103836168Y-100013606D01*
X103916713Y-99958483D01*
X103972300Y-99887670D01*
X103993029Y-99810342D01*
X103993617Y-99783019D01*
X104002523Y-99753995D01*
X104031895Y-99742734D01*
X104093911Y-99740845D01*
X104194794Y-99740845D01*
X104194794Y-99831992D01*
X104192555Y-99871758D01*
X104158346Y-99986874D01*
X104086396Y-100085431D01*
X103981214Y-100162484D01*
X103847309Y-100213086D01*
X103806130Y-100221759D01*
X103662760Y-100231473D01*
X103528137Y-100211229D01*
X103408179Y-100164825D01*
X103308805Y-100096057D01*
X103235935Y-100008723D01*
X103195486Y-99906620D01*
X103193377Y-99793545D01*
X103200293Y-99758125D01*
X103232140Y-99671469D01*
X103287476Y-99599571D01*
X103373212Y-99535058D01*
X103496264Y-99470559D01*
X103526216Y-99456624D01*
X103664924Y-99391535D01*
X103769042Y-99341137D01*
X103843888Y-99302311D01*
X103894779Y-99271939D01*
X103927030Y-99246900D01*
X103945959Y-99224076D01*
X103956884Y-99200348D01*
X103961952Y-99183661D01*
X103965307Y-99099267D01*
X103932692Y-99028599D01*
X103870860Y-98975823D01*
X103786566Y-98945101D01*
X103686563Y-98940600D01*
X103577605Y-98966482D01*
X103491006Y-99016319D01*
X103431300Y-99090376D01*
X103410151Y-99179273D01*
X103410081Y-99183806D01*
X103401945Y-99210312D01*
X103372179Y-99222370D01*
X103309269Y-99225223D01*
X103263832Y-99224731D01*
X103224893Y-99217694D01*
X103210479Y-99194541D01*
X103208386Y-99145645D01*
X103227689Y-99037251D01*
X103282740Y-98941808D01*
X103366405Y-98864112D01*
X103471540Y-98806287D01*
X103591000Y-98770459D01*
X103717640Y-98758753D01*
X103844316Y-98773293D01*
G37*
G36*
X110995723Y-98835607D02*
G01*
X110995723Y-98835611D01*
X110995723Y-99339516D01*
X110995723Y-99373420D01*
X110575378Y-99585317D01*
X110537119Y-99604555D01*
X110413542Y-99666004D01*
X110304644Y-99719129D01*
X110216739Y-99760915D01*
X110156140Y-99788346D01*
X110129162Y-99798408D01*
X110117117Y-99795584D01*
X110068622Y-99776650D01*
X109991920Y-99743007D01*
X109894523Y-99698288D01*
X109783947Y-99646127D01*
X109667704Y-99590156D01*
X109553310Y-99534010D01*
X109448279Y-99481321D01*
X109360124Y-99435722D01*
X109296360Y-99400847D01*
X109264501Y-99380328D01*
X109257868Y-99373581D01*
X109246632Y-99355269D01*
X109242373Y-99340533D01*
X109381183Y-99340533D01*
X109706656Y-99502812D01*
X109781253Y-99539860D01*
X109882472Y-99589615D01*
X109964498Y-99629309D01*
X110020373Y-99655586D01*
X110043140Y-99665091D01*
X110044849Y-99661153D01*
X110048519Y-99623402D01*
X110051470Y-99552042D01*
X110053437Y-99454956D01*
X110054152Y-99340024D01*
X110166243Y-99340024D01*
X110166449Y-99390660D01*
X110168403Y-99498773D01*
X110172094Y-99585582D01*
X110177115Y-99643243D01*
X110183057Y-99663915D01*
X110194227Y-99659848D01*
X110240228Y-99638871D01*
X110314551Y-99603117D01*
X110410041Y-99556049D01*
X110519541Y-99501127D01*
X110839212Y-99339516D01*
X110513739Y-99177237D01*
X110439142Y-99140189D01*
X110337923Y-99090433D01*
X110255897Y-99050740D01*
X110200022Y-99024463D01*
X110177255Y-99014958D01*
X110175546Y-99018896D01*
X110171876Y-99056647D01*
X110168925Y-99128007D01*
X110166958Y-99225093D01*
X110166243Y-99340024D01*
X110054152Y-99340024D01*
X110053946Y-99289389D01*
X110051992Y-99181276D01*
X110048301Y-99094467D01*
X110043280Y-99036806D01*
X110037338Y-99016134D01*
X110026168Y-99020201D01*
X109980168Y-99041178D01*
X109905844Y-99076931D01*
X109810354Y-99124000D01*
X109700854Y-99178922D01*
X109381183Y-99340533D01*
X109242373Y-99340533D01*
X109238236Y-99326222D01*
X109232274Y-99280756D01*
X109228341Y-99213188D01*
X109226033Y-99117835D01*
X109224945Y-98989013D01*
X109224696Y-98835611D01*
X109314346Y-98835611D01*
X109314350Y-98844779D01*
X109315296Y-98976409D01*
X109317722Y-99090645D01*
X109321356Y-99180624D01*
X109325925Y-99239488D01*
X109331160Y-99260377D01*
X109350095Y-99252864D01*
X109403566Y-99227962D01*
X109484398Y-99188810D01*
X109585820Y-99138691D01*
X109701062Y-99080892D01*
X109820134Y-99020463D01*
X109914608Y-98971108D01*
X109979544Y-98934278D01*
X110020454Y-98906142D01*
X110042850Y-98882871D01*
X110052245Y-98860635D01*
X110054152Y-98835611D01*
X110166243Y-98835611D01*
X110168055Y-98860208D01*
X110177189Y-98882284D01*
X110199131Y-98905292D01*
X110239365Y-98933005D01*
X110303377Y-98969192D01*
X110396651Y-99017627D01*
X110524673Y-99082081D01*
X110629316Y-99134231D01*
X110732560Y-99185129D01*
X110815589Y-99225454D01*
X110871797Y-99251999D01*
X110894576Y-99261560D01*
X110894817Y-99261467D01*
X110898366Y-99237536D01*
X110901449Y-99176099D01*
X110903881Y-99084042D01*
X110905476Y-98968251D01*
X110906049Y-98835611D01*
X110906047Y-98826664D01*
X110905402Y-98694905D01*
X110903747Y-98580440D01*
X110901268Y-98490154D01*
X110898149Y-98430933D01*
X110894576Y-98409663D01*
X110875719Y-98417436D01*
X110822583Y-98442414D01*
X110741960Y-98481494D01*
X110640454Y-98531472D01*
X110524673Y-98589141D01*
X110397925Y-98652947D01*
X110304280Y-98701546D01*
X110239960Y-98737854D01*
X110199481Y-98765643D01*
X110177359Y-98788685D01*
X110168108Y-98810750D01*
X110166243Y-98835606D01*
X110166243Y-98835611D01*
X110054152Y-98835611D01*
X110054152Y-98835606D01*
X110052341Y-98811016D01*
X110043207Y-98788940D01*
X110021265Y-98765931D01*
X109981031Y-98738219D01*
X109917019Y-98702031D01*
X109823744Y-98653596D01*
X109695722Y-98589141D01*
X109591079Y-98536992D01*
X109487835Y-98486093D01*
X109404806Y-98445769D01*
X109348598Y-98419223D01*
X109325819Y-98409663D01*
X109325578Y-98409756D01*
X109322029Y-98433687D01*
X109318946Y-98495124D01*
X109316514Y-98587180D01*
X109314919Y-98702971D01*
X109314346Y-98835611D01*
X109224696Y-98835611D01*
X109224672Y-98821040D01*
X109224672Y-98319765D01*
X109404019Y-98319765D01*
X109417249Y-98329665D01*
X109464758Y-98356874D01*
X109540655Y-98397517D01*
X109638460Y-98448138D01*
X109751689Y-98505276D01*
X109846020Y-98551970D01*
X109949593Y-98602324D01*
X110033675Y-98642168D01*
X110091421Y-98668270D01*
X110115988Y-98677395D01*
X110116052Y-98677390D01*
X110142886Y-98667056D01*
X110200303Y-98640369D01*
X110280434Y-98601344D01*
X110375410Y-98553996D01*
X110477363Y-98502342D01*
X110578425Y-98450395D01*
X110670725Y-98402171D01*
X110746396Y-98361686D01*
X110797570Y-98332955D01*
X110816376Y-98319993D01*
X110802042Y-98309496D01*
X110753400Y-98281826D01*
X110676512Y-98240772D01*
X110577810Y-98189762D01*
X110463732Y-98132221D01*
X110111087Y-97956333D01*
X109757553Y-98131997D01*
X109657583Y-98182166D01*
X109556300Y-98234162D01*
X109475989Y-98276706D01*
X109423084Y-98306379D01*
X109404019Y-98319765D01*
X109224672Y-98319765D01*
X109224672Y-98297795D01*
X109650397Y-98084709D01*
X109691849Y-98064041D01*
X109816855Y-98002713D01*
X109927620Y-97949828D01*
X110017717Y-97908366D01*
X110080718Y-97881304D01*
X110110198Y-97871622D01*
X110115504Y-97872624D01*
X110156276Y-97888122D01*
X110228539Y-97920059D01*
X110325864Y-97965454D01*
X110441826Y-98021330D01*
X110569998Y-98084709D01*
X110995723Y-98297795D01*
X110995723Y-98319993D01*
X110995723Y-98835607D01*
G37*
%TO.C,G\u002A\u002A\u002A*%
G36*
X99593343Y-87042112D02*
G01*
X99593343Y-87718443D01*
X98917012Y-87718443D01*
X98240681Y-87718443D01*
X98240681Y-87042112D01*
X98240681Y-86365780D01*
X98917012Y-86365780D01*
X99593343Y-86365780D01*
X99593343Y-87042112D01*
G37*
G36*
X99593343Y-95158088D02*
G01*
X99593343Y-95834419D01*
X98917012Y-95834419D01*
X98240681Y-95834419D01*
X98240681Y-95158088D01*
X98240681Y-94481757D01*
X98917012Y-94481757D01*
X99593343Y-94481757D01*
X99593343Y-95158088D01*
G37*
G36*
X100044231Y-90649212D02*
G01*
X100044231Y-90874656D01*
X99818787Y-90874656D01*
X99593343Y-90874656D01*
X99593343Y-90649212D01*
X99593343Y-90423769D01*
X99818787Y-90423769D01*
X100044231Y-90423769D01*
X100044231Y-90649212D01*
G37*
G36*
X100495118Y-89296550D02*
G01*
X100495118Y-89521993D01*
X100269675Y-89521993D01*
X100044231Y-89521993D01*
X100044231Y-89296550D01*
X100044231Y-89071106D01*
X100269675Y-89071106D01*
X100495118Y-89071106D01*
X100495118Y-89296550D01*
G37*
G36*
X101396894Y-94030869D02*
G01*
X101396894Y-94481757D01*
X101171450Y-94481757D01*
X100946006Y-94481757D01*
X100946006Y-94030869D01*
X100946006Y-93579982D01*
X101171450Y-93579982D01*
X101396894Y-93579982D01*
X101396894Y-94030869D01*
G37*
G36*
X103651331Y-95158088D02*
G01*
X103651331Y-95383532D01*
X103425888Y-95383532D01*
X103200444Y-95383532D01*
X103200444Y-95158088D01*
X103200444Y-94932644D01*
X103425888Y-94932644D01*
X103651331Y-94932644D01*
X103651331Y-95158088D01*
G37*
G36*
X104102219Y-85689449D02*
G01*
X104102219Y-85914893D01*
X103876775Y-85914893D01*
X103651331Y-85914893D01*
X103651331Y-85689449D01*
X103651331Y-85464005D01*
X103876775Y-85464005D01*
X104102219Y-85464005D01*
X104102219Y-85689449D01*
G37*
G36*
X105905769Y-88394774D02*
G01*
X105905769Y-88620218D01*
X105680326Y-88620218D01*
X105454882Y-88620218D01*
X105454882Y-88394774D01*
X105454882Y-88169331D01*
X105680326Y-88169331D01*
X105905769Y-88169331D01*
X105905769Y-88394774D01*
G37*
G36*
X106356657Y-92903650D02*
G01*
X106356657Y-93129094D01*
X106131213Y-93129094D01*
X105905769Y-93129094D01*
X105905769Y-92903650D01*
X105905769Y-92678206D01*
X106131213Y-92678206D01*
X106356657Y-92678206D01*
X106356657Y-92903650D01*
G37*
G36*
X107258432Y-92903650D02*
G01*
X107258432Y-93129094D01*
X107032988Y-93129094D01*
X106807544Y-93129094D01*
X106807544Y-92903650D01*
X106807544Y-92678206D01*
X107032988Y-92678206D01*
X107258432Y-92678206D01*
X107258432Y-92903650D01*
G37*
G36*
X107709320Y-92001875D02*
G01*
X107709320Y-92227319D01*
X107483876Y-92227319D01*
X107258432Y-92227319D01*
X107258432Y-92001875D01*
X107258432Y-91776431D01*
X107483876Y-91776431D01*
X107709320Y-91776431D01*
X107709320Y-92001875D01*
G37*
G36*
X107709320Y-95158088D02*
G01*
X107709320Y-95834419D01*
X107032988Y-95834419D01*
X106356657Y-95834419D01*
X106356657Y-95158088D01*
X106356657Y-94481757D01*
X107032988Y-94481757D01*
X107709320Y-94481757D01*
X107709320Y-95158088D01*
G37*
G36*
X108160207Y-92903650D02*
G01*
X108160207Y-93129094D01*
X107934763Y-93129094D01*
X107709320Y-93129094D01*
X107709320Y-92903650D01*
X107709320Y-92678206D01*
X107934763Y-92678206D01*
X108160207Y-92678206D01*
X108160207Y-92903650D01*
G37*
G36*
X108611095Y-91100100D02*
G01*
X108611095Y-91325544D01*
X108160207Y-91325544D01*
X107709320Y-91325544D01*
X107709320Y-91100100D01*
X107709320Y-90874656D01*
X108160207Y-90874656D01*
X108611095Y-90874656D01*
X108611095Y-91100100D01*
G37*
G36*
X108611095Y-92452763D02*
G01*
X108611095Y-92678206D01*
X108385651Y-92678206D01*
X108160207Y-92678206D01*
X108160207Y-92452763D01*
X108160207Y-92227319D01*
X108385651Y-92227319D01*
X108611095Y-92227319D01*
X108611095Y-92452763D01*
G37*
G36*
X101396894Y-85689449D02*
G01*
X101396894Y-85914893D01*
X101847781Y-85914893D01*
X102298669Y-85914893D01*
X102298669Y-86140337D01*
X102298669Y-86365780D01*
X101847781Y-86365780D01*
X101396894Y-86365780D01*
X101396894Y-87042112D01*
X101396894Y-87718443D01*
X101171450Y-87718443D01*
X100946006Y-87718443D01*
X100946006Y-86591224D01*
X100946006Y-85464005D01*
X101171450Y-85464005D01*
X101396894Y-85464005D01*
X101396894Y-85689449D01*
G37*
G36*
X100495118Y-87042112D02*
G01*
X100495118Y-88620218D01*
X98917012Y-88620218D01*
X97338905Y-88620218D01*
X97338905Y-88169331D01*
X97789793Y-88169331D01*
X98917012Y-88169331D01*
X100044231Y-88169331D01*
X100044231Y-87042112D01*
X100044231Y-85914893D01*
X98917012Y-85914893D01*
X97789793Y-85914893D01*
X97789793Y-87042112D01*
X97789793Y-88169331D01*
X97338905Y-88169331D01*
X97338905Y-87042112D01*
X97338905Y-85464005D01*
X98917012Y-85464005D01*
X100495118Y-85464005D01*
X100495118Y-87042112D01*
G37*
G36*
X100495118Y-95158088D02*
G01*
X100495118Y-96736195D01*
X98917012Y-96736195D01*
X97338905Y-96736195D01*
X97338905Y-96285307D01*
X97789793Y-96285307D01*
X98917012Y-96285307D01*
X100044231Y-96285307D01*
X100044231Y-95158088D01*
X100044231Y-94030869D01*
X98917012Y-94030869D01*
X97789793Y-94030869D01*
X97789793Y-95158088D01*
X97789793Y-96285307D01*
X97338905Y-96285307D01*
X97338905Y-95158088D01*
X97338905Y-93579982D01*
X98917012Y-93579982D01*
X100495118Y-93579982D01*
X100495118Y-95158088D01*
G37*
G36*
X108611095Y-95158088D02*
G01*
X108611095Y-96736195D01*
X107032988Y-96736195D01*
X105454882Y-96736195D01*
X105454882Y-96285307D01*
X105905769Y-96285307D01*
X107032988Y-96285307D01*
X108160207Y-96285307D01*
X108160207Y-95158088D01*
X108160207Y-94030869D01*
X107032988Y-94030869D01*
X105905769Y-94030869D01*
X105905769Y-95158088D01*
X105905769Y-96285307D01*
X105454882Y-96285307D01*
X105454882Y-95158088D01*
X105454882Y-93579982D01*
X107032988Y-93579982D01*
X108611095Y-93579982D01*
X108611095Y-95158088D01*
G37*
G36*
X97789793Y-89747437D02*
G01*
X97789793Y-90423769D01*
X98015237Y-90423769D01*
X98240681Y-90423769D01*
X98240681Y-90649212D01*
X98240681Y-90874656D01*
X98466124Y-90874656D01*
X98691568Y-90874656D01*
X98691568Y-90649212D01*
X98691568Y-90423769D01*
X98917012Y-90423769D01*
X99142456Y-90423769D01*
X99142456Y-90874656D01*
X99142456Y-91325544D01*
X99367899Y-91325544D01*
X99593343Y-91325544D01*
X99593343Y-91550987D01*
X99593343Y-91776431D01*
X98917012Y-91776431D01*
X98240681Y-91776431D01*
X98240681Y-92001875D01*
X98240681Y-92227319D01*
X98015237Y-92227319D01*
X97789793Y-92227319D01*
X97789793Y-92452763D01*
X97789793Y-92678206D01*
X98240681Y-92678206D01*
X98691568Y-92678206D01*
X98691568Y-92452763D01*
X98691568Y-92227319D01*
X98917012Y-92227319D01*
X99142456Y-92227319D01*
X99142456Y-92452763D01*
X99142456Y-92678206D01*
X99367899Y-92678206D01*
X99593343Y-92678206D01*
X99593343Y-92903650D01*
X99593343Y-93129094D01*
X98466124Y-93129094D01*
X97338905Y-93129094D01*
X97338905Y-91776431D01*
X97789793Y-91776431D01*
X98015237Y-91776431D01*
X98240681Y-91776431D01*
X98240681Y-91550987D01*
X98240681Y-91325544D01*
X98015237Y-91325544D01*
X97789793Y-91325544D01*
X97789793Y-91550987D01*
X97789793Y-91776431D01*
X97338905Y-91776431D01*
X97338905Y-91550987D01*
X97338905Y-91100100D01*
X97338905Y-89071106D01*
X97564349Y-89071106D01*
X97789793Y-89071106D01*
X97789793Y-89747437D01*
G37*
G36*
X100044231Y-91776431D02*
G01*
X100495118Y-91776431D01*
X100495118Y-92001875D01*
X100495118Y-92227319D01*
X100044231Y-92227319D01*
X99593343Y-92227319D01*
X99593343Y-92001875D01*
X99593343Y-91776431D01*
X100044231Y-91776431D01*
G37*
G36*
X107709320Y-86816668D02*
G01*
X107934763Y-86816668D01*
X108160207Y-86816668D01*
X108160207Y-86591224D01*
X108160207Y-86365780D01*
X108385651Y-86365780D01*
X108611095Y-86365780D01*
X108611095Y-86816668D01*
X108611095Y-87267556D01*
X108160207Y-87267556D01*
X107709320Y-87267556D01*
X107709320Y-87042112D01*
X107709320Y-86816668D01*
X107483876Y-86816668D01*
X107258432Y-86816668D01*
X107258432Y-87492999D01*
X107258432Y-88169331D01*
X107032988Y-88169331D01*
X106807544Y-88169331D01*
X106807544Y-88620218D01*
X106807544Y-89071106D01*
X107032988Y-89071106D01*
X107258432Y-89071106D01*
X107258432Y-89296550D01*
X107258432Y-89521993D01*
X106131213Y-89521993D01*
X105003994Y-89521993D01*
X105003994Y-89747437D01*
X105003994Y-89972881D01*
X105454882Y-89972881D01*
X105905769Y-89972881D01*
X105905769Y-90198325D01*
X105905769Y-90423769D01*
X106131213Y-90423769D01*
X106356657Y-90423769D01*
X106356657Y-90198325D01*
X106356657Y-89972881D01*
X106582101Y-89972881D01*
X106807544Y-89972881D01*
X106807544Y-90423769D01*
X106807544Y-90874656D01*
X107032988Y-90874656D01*
X107258432Y-90874656D01*
X107258432Y-91100100D01*
X107258432Y-91325544D01*
X106807544Y-91325544D01*
X106356657Y-91325544D01*
X106356657Y-91550987D01*
X106356657Y-91776431D01*
X106131213Y-91776431D01*
X105905769Y-91776431D01*
X105905769Y-92001875D01*
X105905769Y-92227319D01*
X105680326Y-92227319D01*
X105454882Y-92227319D01*
X105454882Y-92678206D01*
X105454882Y-93129094D01*
X105229438Y-93129094D01*
X105003994Y-93129094D01*
X105003994Y-94707201D01*
X105003994Y-96285307D01*
X103651331Y-96285307D01*
X102298669Y-96285307D01*
X102298669Y-96059863D01*
X102298669Y-95834419D01*
X102073225Y-95834419D01*
X101847781Y-95834419D01*
X101847781Y-96285307D01*
X101847781Y-96736195D01*
X101622337Y-96736195D01*
X101396894Y-96736195D01*
X101396894Y-96510751D01*
X101396894Y-96285307D01*
X101171450Y-96285307D01*
X100946006Y-96285307D01*
X100946006Y-96059863D01*
X100946006Y-95834419D01*
X101171450Y-95834419D01*
X101396894Y-95834419D01*
X101396894Y-95608976D01*
X101396894Y-95383532D01*
X101171450Y-95383532D01*
X100946006Y-95383532D01*
X100946006Y-95158088D01*
X100946006Y-94932644D01*
X101396894Y-94932644D01*
X101847781Y-94932644D01*
X101847781Y-94256313D01*
X101847781Y-93579982D01*
X102073225Y-93579982D01*
X102298669Y-93579982D01*
X102298669Y-94256313D01*
X102298669Y-94932644D01*
X102073225Y-94932644D01*
X101847781Y-94932644D01*
X101847781Y-95158088D01*
X101847781Y-95383532D01*
X102073225Y-95383532D01*
X102298669Y-95383532D01*
X102298669Y-95158088D01*
X102298669Y-94932644D01*
X102524113Y-94932644D01*
X102749556Y-94932644D01*
X102749556Y-95383532D01*
X102749556Y-95834419D01*
X103651331Y-95834419D01*
X104553107Y-95834419D01*
X104553107Y-95608976D01*
X104553107Y-95383532D01*
X104327663Y-95383532D01*
X104102219Y-95383532D01*
X104102219Y-95158088D01*
X104102219Y-94932644D01*
X103876775Y-94932644D01*
X103651331Y-94932644D01*
X103651331Y-94707201D01*
X103651331Y-94481757D01*
X103425888Y-94481757D01*
X103200444Y-94481757D01*
X103200444Y-94707201D01*
X103200444Y-94932644D01*
X102975000Y-94932644D01*
X102749556Y-94932644D01*
X102749556Y-94707201D01*
X102749556Y-94481757D01*
X102975000Y-94481757D01*
X103200444Y-94481757D01*
X103200444Y-94256313D01*
X103200444Y-94030869D01*
X102975000Y-94030869D01*
X102749556Y-94030869D01*
X102749556Y-93354538D01*
X102749556Y-92678206D01*
X102975000Y-92678206D01*
X103200444Y-92678206D01*
X103200444Y-93354538D01*
X103200444Y-94030869D01*
X103425888Y-94030869D01*
X103651331Y-94030869D01*
X103651331Y-93805425D01*
X103651331Y-93579982D01*
X103876775Y-93579982D01*
X104102219Y-93579982D01*
X104102219Y-93805425D01*
X104102219Y-94030869D01*
X104327663Y-94030869D01*
X104553107Y-94030869D01*
X104553107Y-93579982D01*
X104553107Y-93129094D01*
X104102219Y-93129094D01*
X103651331Y-93129094D01*
X103651331Y-92678206D01*
X103651331Y-92227319D01*
X103876775Y-92227319D01*
X104102219Y-92227319D01*
X104102219Y-92452763D01*
X104102219Y-92678206D01*
X104327663Y-92678206D01*
X104553107Y-92678206D01*
X104553107Y-92452763D01*
X104553107Y-92227319D01*
X104778550Y-92227319D01*
X105003994Y-92227319D01*
X105003994Y-92001875D01*
X105003994Y-91776431D01*
X105454882Y-91776431D01*
X105680326Y-91776431D01*
X105905769Y-91776431D01*
X105905769Y-91550987D01*
X105905769Y-91325544D01*
X105680326Y-91325544D01*
X105454882Y-91325544D01*
X105454882Y-91550987D01*
X105454882Y-91776431D01*
X105003994Y-91776431D01*
X104778550Y-91776431D01*
X104553107Y-91776431D01*
X104553107Y-91550987D01*
X104553107Y-91325544D01*
X104102219Y-91325544D01*
X103651331Y-91325544D01*
X103651331Y-91776431D01*
X103651331Y-92227319D01*
X102975000Y-92227319D01*
X102298669Y-92227319D01*
X102298669Y-92001875D01*
X102298669Y-91776431D01*
X102749556Y-91776431D01*
X102975000Y-91776431D01*
X103200444Y-91776431D01*
X103200444Y-91325544D01*
X103200444Y-90874656D01*
X104102219Y-90874656D01*
X105003994Y-90874656D01*
X105003994Y-90649212D01*
X105003994Y-90423769D01*
X104102219Y-90423769D01*
X103200444Y-90423769D01*
X103200444Y-90649212D01*
X103200444Y-90874656D01*
X102975000Y-90874656D01*
X102749556Y-90874656D01*
X102749556Y-91325544D01*
X102749556Y-91776431D01*
X102298669Y-91776431D01*
X102073225Y-91776431D01*
X101847781Y-91776431D01*
X101847781Y-92227319D01*
X101847781Y-92678206D01*
X102073225Y-92678206D01*
X102298669Y-92678206D01*
X102298669Y-92903650D01*
X102298669Y-93129094D01*
X101171450Y-93129094D01*
X100044231Y-93129094D01*
X100044231Y-92903650D01*
X100044231Y-92678206D01*
X100495118Y-92678206D01*
X100946006Y-92678206D01*
X100946006Y-92452763D01*
X100946006Y-92227319D01*
X101171450Y-92227319D01*
X101396894Y-92227319D01*
X101396894Y-91776431D01*
X101396894Y-91325544D01*
X101847781Y-91325544D01*
X102073225Y-91325544D01*
X102298669Y-91325544D01*
X102298669Y-91100100D01*
X102298669Y-90874656D01*
X102073225Y-90874656D01*
X101847781Y-90874656D01*
X101847781Y-91100100D01*
X101847781Y-91325544D01*
X101396894Y-91325544D01*
X101171450Y-91325544D01*
X100946006Y-91325544D01*
X100946006Y-91550987D01*
X100946006Y-91776431D01*
X100720562Y-91776431D01*
X100495118Y-91776431D01*
X100495118Y-91550987D01*
X100495118Y-91325544D01*
X100269675Y-91325544D01*
X100044231Y-91325544D01*
X100044231Y-91100100D01*
X100044231Y-90874656D01*
X100269675Y-90874656D01*
X100495118Y-90874656D01*
X100495118Y-90649212D01*
X100495118Y-90423769D01*
X101396894Y-90423769D01*
X102298669Y-90423769D01*
X102298669Y-90649212D01*
X102298669Y-90874656D01*
X102524113Y-90874656D01*
X102749556Y-90874656D01*
X102749556Y-90649212D01*
X102749556Y-90423769D01*
X102975000Y-90423769D01*
X103200444Y-90423769D01*
X103200444Y-90198325D01*
X103200444Y-89972881D01*
X103876775Y-89972881D01*
X104553107Y-89972881D01*
X104553107Y-89747437D01*
X104553107Y-89521993D01*
X104327663Y-89521993D01*
X104102219Y-89521993D01*
X104102219Y-89296550D01*
X104102219Y-89071106D01*
X105003994Y-89071106D01*
X105680326Y-89071106D01*
X106356657Y-89071106D01*
X106356657Y-88394774D01*
X106356657Y-87718443D01*
X105680326Y-87718443D01*
X105003994Y-87718443D01*
X105003994Y-88394774D01*
X105003994Y-89071106D01*
X104102219Y-89071106D01*
X103876775Y-89071106D01*
X103651331Y-89071106D01*
X103651331Y-89296550D01*
X103651331Y-89521993D01*
X103425888Y-89521993D01*
X103200444Y-89521993D01*
X103200444Y-89747437D01*
X103200444Y-89972881D01*
X102975000Y-89972881D01*
X102749556Y-89972881D01*
X102749556Y-89747437D01*
X102749556Y-89521993D01*
X102749556Y-89071106D01*
X103200444Y-89071106D01*
X103651331Y-89071106D01*
X103651331Y-88845662D01*
X103651331Y-88620218D01*
X102975000Y-88620218D01*
X102298669Y-88620218D01*
X102298669Y-89296550D01*
X102298669Y-89972881D01*
X101622337Y-89972881D01*
X100946006Y-89972881D01*
X100946006Y-89747437D01*
X100946006Y-89521993D01*
X101396894Y-89521993D01*
X101847781Y-89521993D01*
X101847781Y-89296550D01*
X101847781Y-89071106D01*
X101396894Y-89071106D01*
X100946006Y-89071106D01*
X100946006Y-88620218D01*
X101847781Y-88620218D01*
X102073225Y-88620218D01*
X102298669Y-88620218D01*
X102298669Y-88394774D01*
X102298669Y-88169331D01*
X102749556Y-88169331D01*
X102975000Y-88169331D01*
X103200444Y-88169331D01*
X103651331Y-88169331D01*
X104102219Y-88169331D01*
X104553107Y-88169331D01*
X104553107Y-87943887D01*
X104553107Y-87718443D01*
X104102219Y-87718443D01*
X103651331Y-87718443D01*
X103651331Y-87943887D01*
X103651331Y-88169331D01*
X103200444Y-88169331D01*
X103200444Y-87943887D01*
X103200444Y-87718443D01*
X102975000Y-87718443D01*
X102749556Y-87718443D01*
X102749556Y-87943887D01*
X102749556Y-88169331D01*
X102298669Y-88169331D01*
X102073225Y-88169331D01*
X101847781Y-88169331D01*
X101847781Y-88394774D01*
X101847781Y-88620218D01*
X100946006Y-88620218D01*
X100946006Y-88394774D01*
X100946006Y-88169331D01*
X101396894Y-88169331D01*
X101847781Y-88169331D01*
X101847781Y-87943887D01*
X101847781Y-87718443D01*
X101847781Y-87267556D01*
X102298669Y-87267556D01*
X102749556Y-87267556D01*
X103200444Y-87267556D01*
X103425888Y-87267556D01*
X103651331Y-87267556D01*
X103651331Y-87042112D01*
X103651331Y-86816668D01*
X103425888Y-86816668D01*
X103200444Y-86816668D01*
X103200444Y-87042112D01*
X103200444Y-87267556D01*
X102749556Y-87267556D01*
X102749556Y-87042112D01*
X102749556Y-86591224D01*
X102749556Y-85914893D01*
X103200444Y-85914893D01*
X103651331Y-85914893D01*
X103651331Y-86140337D01*
X103651331Y-86365780D01*
X103876775Y-86365780D01*
X104102219Y-86365780D01*
X104102219Y-86591224D01*
X104102219Y-86816668D01*
X104553107Y-86816668D01*
X105003994Y-86816668D01*
X105003994Y-87042112D01*
X105003994Y-87267556D01*
X105229438Y-87267556D01*
X105454882Y-87267556D01*
X105454882Y-87042112D01*
X105454882Y-86816668D01*
X105680326Y-86816668D01*
X105905769Y-86816668D01*
X105905769Y-86591224D01*
X105905769Y-86365780D01*
X105454882Y-86365780D01*
X105003994Y-86365780D01*
X105003994Y-86140337D01*
X105003994Y-85914893D01*
X105454882Y-85914893D01*
X105905769Y-85914893D01*
X105905769Y-86140337D01*
X105905769Y-86365780D01*
X106131213Y-86365780D01*
X106356657Y-86365780D01*
X106807544Y-86365780D01*
X106807544Y-86591224D01*
X106807544Y-86816668D01*
X107032988Y-86816668D01*
X107258432Y-86816668D01*
X107258432Y-86591224D01*
X107258432Y-86365780D01*
X107032988Y-86365780D01*
X106807544Y-86365780D01*
X106356657Y-86365780D01*
X106356657Y-86140337D01*
X106356657Y-85914893D01*
X106582101Y-85914893D01*
X106807544Y-85914893D01*
X106807544Y-85689449D01*
X106807544Y-85464005D01*
X107709320Y-85464005D01*
X108611095Y-85464005D01*
X108611095Y-85689449D01*
X108611095Y-85914893D01*
X108385651Y-85914893D01*
X108160207Y-85914893D01*
X108160207Y-86140337D01*
X108160207Y-86365780D01*
X107934763Y-86365780D01*
X107709320Y-86365780D01*
X107709320Y-86591224D01*
X107709320Y-86816668D01*
G37*
G36*
X106582101Y-91776431D02*
G01*
X106807544Y-91776431D01*
X106807544Y-92001875D01*
X106807544Y-92227319D01*
X106582101Y-92227319D01*
X106356657Y-92227319D01*
X106356657Y-92001875D01*
X106356657Y-91776431D01*
X106582101Y-91776431D01*
G37*
G36*
X100269675Y-89972881D02*
G01*
X100495118Y-89972881D01*
X100495118Y-90198325D01*
X100495118Y-90423769D01*
X100269675Y-90423769D01*
X100044231Y-90423769D01*
X100044231Y-90198325D01*
X100044231Y-89972881D01*
X100269675Y-89972881D01*
G37*
G36*
X99818787Y-89521993D02*
G01*
X100044231Y-89521993D01*
X100044231Y-89747437D01*
X100044231Y-89972881D01*
X99818787Y-89972881D01*
X99593343Y-89972881D01*
X99593343Y-90198325D01*
X99593343Y-90423769D01*
X99367899Y-90423769D01*
X99142456Y-90423769D01*
X99142456Y-90198325D01*
X99142456Y-89972881D01*
X99367899Y-89972881D01*
X99593343Y-89972881D01*
X99593343Y-89747437D01*
X99593343Y-89521993D01*
X99818787Y-89521993D01*
G37*
G36*
X107934763Y-88169331D02*
G01*
X108611095Y-88169331D01*
X108611095Y-89296550D01*
X108611095Y-90423769D01*
X107934763Y-90423769D01*
X107258432Y-90423769D01*
X107258432Y-90198325D01*
X107258432Y-89972881D01*
X107483876Y-89972881D01*
X107709320Y-89972881D01*
X107709320Y-89747437D01*
X107709320Y-89521993D01*
X107934763Y-89521993D01*
X108160207Y-89521993D01*
X108160207Y-89071106D01*
X108160207Y-88620218D01*
X107709320Y-88620218D01*
X107258432Y-88620218D01*
X107258432Y-88394774D01*
X107258432Y-88169331D01*
X107934763Y-88169331D01*
G37*
G36*
X99593343Y-89296550D02*
G01*
X99593343Y-89521993D01*
X99367899Y-89521993D01*
X99142456Y-89521993D01*
X99142456Y-89747437D01*
X99142456Y-89972881D01*
X98691568Y-89972881D01*
X98240681Y-89972881D01*
X98240681Y-89747437D01*
X98240681Y-89521993D01*
X98466124Y-89521993D01*
X98691568Y-89521993D01*
X98691568Y-89296550D01*
X98691568Y-89071106D01*
X99142456Y-89071106D01*
X99593343Y-89071106D01*
X99593343Y-89296550D01*
G37*
G36*
X87939992Y-98578840D02*
G01*
X87938206Y-98580180D01*
X87936421Y-98578840D01*
X87938206Y-98577501D01*
X87939992Y-98578840D01*
G37*
G36*
X87218041Y-99229284D02*
G01*
X87220752Y-99235923D01*
X87222135Y-99243347D01*
X87220786Y-99248088D01*
X87215374Y-99249870D01*
X87213511Y-99249796D01*
X87208078Y-99247621D01*
X87206844Y-99242025D01*
X87209627Y-99232458D01*
X87213947Y-99221743D01*
X87218041Y-99229284D01*
G37*
G36*
X87423583Y-99777227D02*
G01*
X87424151Y-99781832D01*
X87424209Y-99792325D01*
X87422178Y-99798956D01*
X87417204Y-99803217D01*
X87410552Y-99803862D01*
X87404866Y-99799685D01*
X87403953Y-99796271D01*
X87405800Y-99788985D01*
X87411377Y-99777957D01*
X87421122Y-99760916D01*
X87423583Y-99777227D01*
G37*
G36*
X87170787Y-99205259D02*
G01*
X87172010Y-99211469D01*
X87171056Y-99219385D01*
X87167990Y-99226974D01*
X87166127Y-99229770D01*
X87162058Y-99233604D01*
X87159299Y-99233045D01*
X87158126Y-99228754D01*
X87158813Y-99221395D01*
X87161634Y-99211629D01*
X87162550Y-99209421D01*
X87165806Y-99204348D01*
X87168757Y-99203081D01*
X87170787Y-99205259D01*
G37*
G36*
X86645237Y-99410330D02*
G01*
X86645439Y-99410843D01*
X86646124Y-99419599D01*
X86643246Y-99428974D01*
X86637659Y-99436071D01*
X86632275Y-99438620D01*
X86624501Y-99439932D01*
X86617826Y-99439313D01*
X86614992Y-99436688D01*
X86616659Y-99433780D01*
X86622396Y-99429846D01*
X86624237Y-99428780D01*
X86630598Y-99423065D01*
X86636304Y-99415483D01*
X86637848Y-99412931D01*
X86641306Y-99408023D01*
X86643440Y-99407346D01*
X86645237Y-99410330D01*
G37*
G36*
X87785081Y-99411920D02*
G01*
X87788467Y-99416569D01*
X87788944Y-99417511D01*
X87793977Y-99423595D01*
X87801479Y-99429888D01*
X87803717Y-99431562D01*
X87808778Y-99436616D01*
X87809696Y-99439987D01*
X87805618Y-99442204D01*
X87797416Y-99442265D01*
X87788526Y-99439229D01*
X87786883Y-99437960D01*
X87783370Y-99432668D01*
X87780759Y-99425576D01*
X87779430Y-99418393D01*
X87779765Y-99412830D01*
X87782144Y-99410595D01*
X87785081Y-99411920D01*
G37*
G36*
X87296445Y-99570622D02*
G01*
X87299052Y-99574000D01*
X87301198Y-99577751D01*
X87303753Y-99587641D01*
X87303590Y-99598065D01*
X87300581Y-99606321D01*
X87299035Y-99607959D01*
X87293094Y-99610872D01*
X87286371Y-99611691D01*
X87281284Y-99610358D01*
X87280250Y-99606814D01*
X87281097Y-99604512D01*
X87283571Y-99597432D01*
X87286511Y-99588733D01*
X87287207Y-99586639D01*
X87290541Y-99576793D01*
X87292791Y-99571312D01*
X87294559Y-99569491D01*
X87296445Y-99570622D01*
G37*
G36*
X87232061Y-99157170D02*
G01*
X87234416Y-99163215D01*
X87234764Y-99164571D01*
X87242022Y-99181578D01*
X87255234Y-99200690D01*
X87274559Y-99222139D01*
X87285215Y-99233675D01*
X87296931Y-99250094D01*
X87302606Y-99265163D01*
X87302330Y-99279690D01*
X87296193Y-99294487D01*
X87284282Y-99310364D01*
X87280924Y-99314057D01*
X87273329Y-99321387D01*
X87268364Y-99324497D01*
X87266349Y-99323250D01*
X87267603Y-99317508D01*
X87267833Y-99316813D01*
X87269078Y-99309921D01*
X87269909Y-99299900D01*
X87270156Y-99288665D01*
X87270142Y-99287351D01*
X87269744Y-99277620D01*
X87268442Y-99269717D01*
X87265658Y-99261990D01*
X87260817Y-99252785D01*
X87253341Y-99240447D01*
X87248134Y-99231819D01*
X87235694Y-99208013D01*
X87228217Y-99187675D01*
X87225761Y-99170953D01*
X87225955Y-99166372D01*
X87227310Y-99159214D01*
X87229519Y-99155991D01*
X87232061Y-99157170D01*
G37*
G36*
X87010244Y-99119903D02*
G01*
X87008443Y-99123524D01*
X87003749Y-99130105D01*
X86996296Y-99139179D01*
X86975353Y-99160774D01*
X86946484Y-99184002D01*
X86911866Y-99205755D01*
X86889897Y-99217542D01*
X86869964Y-99226724D01*
X86851520Y-99233342D01*
X86832849Y-99238100D01*
X86809868Y-99241056D01*
X86784871Y-99240514D01*
X86760952Y-99236449D01*
X86739481Y-99229211D01*
X86721827Y-99219149D01*
X86709361Y-99206612D01*
X86706550Y-99202199D01*
X86705919Y-99199443D01*
X86709461Y-99200707D01*
X86717487Y-99205967D01*
X86719674Y-99207459D01*
X86728989Y-99212652D01*
X86739105Y-99215782D01*
X86752118Y-99217317D01*
X86770124Y-99217725D01*
X86787168Y-99217127D01*
X86821416Y-99212969D01*
X86857140Y-99205221D01*
X86892486Y-99194324D01*
X86925601Y-99180718D01*
X86937651Y-99174401D01*
X86954976Y-99163782D01*
X86972361Y-99151731D01*
X86987771Y-99139679D01*
X86999172Y-99129053D01*
X87004638Y-99123411D01*
X87009020Y-99119709D01*
X87010244Y-99119903D01*
G37*
G36*
X87426773Y-99135663D02*
G01*
X87431934Y-99139177D01*
X87440679Y-99145748D01*
X87455880Y-99155421D01*
X87474204Y-99165853D01*
X87493876Y-99176087D01*
X87513117Y-99185164D01*
X87530152Y-99192127D01*
X87550531Y-99199277D01*
X87575547Y-99206953D01*
X87597910Y-99212198D01*
X87619459Y-99215422D01*
X87642033Y-99217034D01*
X87647149Y-99217226D01*
X87662050Y-99217507D01*
X87672586Y-99216976D01*
X87680906Y-99215435D01*
X87689163Y-99212684D01*
X87693178Y-99211031D01*
X87702232Y-99206395D01*
X87707549Y-99202340D01*
X87708963Y-99200560D01*
X87710890Y-99199155D01*
X87711312Y-99202578D01*
X87709695Y-99208122D01*
X87702669Y-99216396D01*
X87691432Y-99224565D01*
X87677469Y-99231604D01*
X87662263Y-99236487D01*
X87647426Y-99238478D01*
X87626924Y-99238758D01*
X87604932Y-99237065D01*
X87584118Y-99233503D01*
X87573438Y-99230606D01*
X87551134Y-99222554D01*
X87527104Y-99211749D01*
X87503214Y-99199063D01*
X87481330Y-99185371D01*
X87471795Y-99178502D01*
X87460253Y-99169543D01*
X87448837Y-99160135D01*
X87438522Y-99151134D01*
X87430285Y-99143394D01*
X87425100Y-99137769D01*
X87423943Y-99135113D01*
X87426773Y-99135663D01*
G37*
G36*
X87103674Y-99295017D02*
G01*
X87101139Y-99299434D01*
X87096002Y-99305865D01*
X87090227Y-99313009D01*
X87081851Y-99326894D01*
X87076144Y-99342498D01*
X87073014Y-99360497D01*
X87072367Y-99381565D01*
X87074111Y-99406379D01*
X87078153Y-99435614D01*
X87078191Y-99435846D01*
X87080646Y-99452012D01*
X87081996Y-99464297D01*
X87082283Y-99474092D01*
X87081547Y-99482787D01*
X87079830Y-99491771D01*
X87079698Y-99492345D01*
X87075535Y-99506152D01*
X87069432Y-99518704D01*
X87060708Y-99530690D01*
X87048681Y-99542797D01*
X87032671Y-99555716D01*
X87011998Y-99570135D01*
X86985980Y-99586743D01*
X86978413Y-99591516D01*
X86956581Y-99606713D01*
X86940327Y-99621080D01*
X86928942Y-99635699D01*
X86921715Y-99651649D01*
X86917937Y-99670011D01*
X86916897Y-99691865D01*
X86916898Y-99692286D01*
X86917138Y-99706219D01*
X86917935Y-99716400D01*
X86919614Y-99724395D01*
X86922501Y-99731768D01*
X86926920Y-99740083D01*
X86926978Y-99740185D01*
X86932200Y-99749467D01*
X86936408Y-99757125D01*
X86938696Y-99761513D01*
X86938882Y-99762012D01*
X86937488Y-99762155D01*
X86932940Y-99759018D01*
X86926198Y-99753431D01*
X86918222Y-99746220D01*
X86909974Y-99738214D01*
X86902413Y-99730239D01*
X86889042Y-99713997D01*
X86869828Y-99683934D01*
X86856314Y-99652659D01*
X86848867Y-99621119D01*
X86847857Y-99590260D01*
X86848749Y-99581574D01*
X86851112Y-99570756D01*
X86855507Y-99560608D01*
X86862861Y-99548548D01*
X86869837Y-99538672D01*
X86879127Y-99527931D01*
X86890322Y-99517851D01*
X86904781Y-99507237D01*
X86923864Y-99494893D01*
X86931471Y-99490127D01*
X86953171Y-99476010D01*
X86970074Y-99463816D01*
X86982995Y-99452667D01*
X86992751Y-99441687D01*
X87000156Y-99429997D01*
X87006028Y-99416721D01*
X87011181Y-99400982D01*
X87014109Y-99391515D01*
X87020790Y-99374062D01*
X87028812Y-99359328D01*
X87039255Y-99345509D01*
X87053199Y-99330803D01*
X87060690Y-99323752D01*
X87071958Y-99314034D01*
X87082932Y-99305441D01*
X87092566Y-99298734D01*
X87099815Y-99294677D01*
X87103632Y-99294031D01*
X87103674Y-99295017D01*
G37*
G36*
X87413211Y-99278283D02*
G01*
X87406921Y-99284052D01*
X87402568Y-99288073D01*
X87395151Y-99296649D01*
X87388467Y-99306124D01*
X87387451Y-99307789D01*
X87381177Y-99320548D01*
X87379513Y-99331414D01*
X87382813Y-99341582D01*
X87391427Y-99352247D01*
X87405708Y-99364602D01*
X87408702Y-99367010D01*
X87420578Y-99378204D01*
X87427964Y-99389296D01*
X87431751Y-99402047D01*
X87432829Y-99418218D01*
X87432872Y-99424498D01*
X87433339Y-99429848D01*
X87434762Y-99434726D01*
X87437675Y-99439647D01*
X87442610Y-99445129D01*
X87450102Y-99451686D01*
X87460683Y-99459836D01*
X87474885Y-99470093D01*
X87493243Y-99482974D01*
X87516290Y-99498994D01*
X87540132Y-99518350D01*
X87559646Y-99540668D01*
X87572743Y-99564180D01*
X87574276Y-99568092D01*
X87577205Y-99577279D01*
X87578698Y-99586301D01*
X87578969Y-99596988D01*
X87578230Y-99611170D01*
X87578125Y-99612568D01*
X87576036Y-99629513D01*
X87572688Y-99646040D01*
X87568572Y-99659681D01*
X87565004Y-99668241D01*
X87554553Y-99688320D01*
X87541766Y-99707918D01*
X87527754Y-99725427D01*
X87513628Y-99739239D01*
X87512405Y-99740245D01*
X87503974Y-99746880D01*
X87497686Y-99751316D01*
X87494826Y-99752638D01*
X87495388Y-99750128D01*
X87498350Y-99744066D01*
X87503079Y-99735856D01*
X87509772Y-99721088D01*
X87514044Y-99701862D01*
X87514709Y-99681738D01*
X87511528Y-99662777D01*
X87509475Y-99656401D01*
X87503865Y-99643491D01*
X87496074Y-99631093D01*
X87485415Y-99618441D01*
X87471202Y-99604771D01*
X87452747Y-99589319D01*
X87429363Y-99571321D01*
X87427140Y-99569653D01*
X87405277Y-99552830D01*
X87387988Y-99538421D01*
X87374455Y-99525477D01*
X87363860Y-99513048D01*
X87355384Y-99500186D01*
X87348210Y-99485940D01*
X87341519Y-99469361D01*
X87339505Y-99463740D01*
X87335766Y-99451277D01*
X87333178Y-99438480D01*
X87331445Y-99423674D01*
X87330276Y-99405189D01*
X87330266Y-99404984D01*
X87329980Y-99379646D01*
X87332057Y-99358528D01*
X87337003Y-99340681D01*
X87345327Y-99325156D01*
X87357536Y-99311005D01*
X87374137Y-99297281D01*
X87395637Y-99283034D01*
X87402921Y-99278894D01*
X87410514Y-99275641D01*
X87414177Y-99275459D01*
X87413211Y-99278283D01*
G37*
G36*
X87071640Y-99078506D02*
G01*
X87072106Y-99088921D01*
X87070241Y-99118908D01*
X87063336Y-99152626D01*
X87051042Y-99185668D01*
X87033045Y-99218698D01*
X87009035Y-99252378D01*
X86978698Y-99287372D01*
X86956233Y-99312418D01*
X86935777Y-99338096D01*
X86919907Y-99361833D01*
X86908090Y-99384366D01*
X86905175Y-99391005D01*
X86901401Y-99400412D01*
X86898103Y-99410069D01*
X86894898Y-99421236D01*
X86891403Y-99435178D01*
X86887234Y-99453156D01*
X86885364Y-99459931D01*
X86882387Y-99463850D01*
X86876358Y-99466284D01*
X86865332Y-99468604D01*
X86863131Y-99469039D01*
X86834979Y-99476929D01*
X86810373Y-99488182D01*
X86790414Y-99502182D01*
X86776203Y-99518315D01*
X86775274Y-99519788D01*
X86766004Y-99541139D01*
X86763329Y-99564338D01*
X86767246Y-99589195D01*
X86777751Y-99615520D01*
X86777997Y-99616017D01*
X86778655Y-99619110D01*
X86776152Y-99618464D01*
X86771243Y-99614726D01*
X86764682Y-99608542D01*
X86757225Y-99600561D01*
X86749628Y-99591427D01*
X86739223Y-99576846D01*
X86724007Y-99548024D01*
X86715180Y-99518686D01*
X86712824Y-99489419D01*
X86717018Y-99460809D01*
X86727845Y-99433443D01*
X86739701Y-99416854D01*
X86758556Y-99399539D01*
X86784191Y-99382106D01*
X86816778Y-99364421D01*
X86827149Y-99359255D01*
X86843319Y-99351051D01*
X86858055Y-99343407D01*
X86870456Y-99336804D01*
X86879621Y-99331726D01*
X86884648Y-99328656D01*
X86884635Y-99328077D01*
X86883784Y-99328349D01*
X86877465Y-99330556D01*
X86867044Y-99334307D01*
X86854278Y-99338972D01*
X86838266Y-99344187D01*
X86807595Y-99350710D01*
X86777034Y-99353095D01*
X86747323Y-99351612D01*
X86719202Y-99346529D01*
X86693410Y-99338116D01*
X86670687Y-99326643D01*
X86651773Y-99312379D01*
X86637408Y-99295594D01*
X86628331Y-99276558D01*
X86625283Y-99255539D01*
X86625840Y-99247841D01*
X86628192Y-99235325D01*
X86631727Y-99224734D01*
X86638005Y-99211028D01*
X86640191Y-99227100D01*
X86641245Y-99232930D01*
X86648361Y-99250542D01*
X86660742Y-99264747D01*
X86678126Y-99275479D01*
X86700254Y-99282672D01*
X86726863Y-99286262D01*
X86757695Y-99286183D01*
X86792487Y-99282370D01*
X86830979Y-99274758D01*
X86849757Y-99269969D01*
X86896179Y-99254736D01*
X86937325Y-99235952D01*
X86973112Y-99213681D01*
X87003458Y-99187990D01*
X87028279Y-99158946D01*
X87047494Y-99126613D01*
X87061020Y-99091059D01*
X87061465Y-99089527D01*
X87065073Y-99078905D01*
X87068032Y-99073515D01*
X87070252Y-99073376D01*
X87071640Y-99078506D01*
G37*
G36*
X87353221Y-99086775D02*
G01*
X87355506Y-99095818D01*
X87355611Y-99096368D01*
X87360194Y-99109216D01*
X87368903Y-99124821D01*
X87380916Y-99142158D01*
X87395412Y-99160200D01*
X87411568Y-99177920D01*
X87428563Y-99194294D01*
X87445576Y-99208295D01*
X87459774Y-99218487D01*
X87489187Y-99236892D01*
X87519646Y-99251948D01*
X87553170Y-99264585D01*
X87591778Y-99275735D01*
X87602486Y-99278446D01*
X87617140Y-99281860D01*
X87629407Y-99284025D01*
X87641669Y-99285230D01*
X87656308Y-99285765D01*
X87675706Y-99285918D01*
X87684701Y-99285927D01*
X87701348Y-99285769D01*
X87713305Y-99285211D01*
X87722286Y-99284073D01*
X87730007Y-99282175D01*
X87738183Y-99279336D01*
X87753007Y-99272067D01*
X87766444Y-99261354D01*
X87771721Y-99254975D01*
X87775234Y-99248323D01*
X87777297Y-99239954D01*
X87778572Y-99228049D01*
X87780271Y-99206028D01*
X87789583Y-99219243D01*
X87791714Y-99222365D01*
X87795462Y-99229097D01*
X87797639Y-99236145D01*
X87798650Y-99245189D01*
X87798898Y-99257906D01*
X87798888Y-99261069D01*
X87798473Y-99273062D01*
X87797185Y-99281661D01*
X87794665Y-99288474D01*
X87790550Y-99295110D01*
X87786167Y-99300761D01*
X87767949Y-99317775D01*
X87744902Y-99332019D01*
X87718334Y-99343029D01*
X87689555Y-99350338D01*
X87659873Y-99353482D01*
X87630597Y-99351995D01*
X87626444Y-99351330D01*
X87610927Y-99347948D01*
X87593217Y-99343114D01*
X87576388Y-99337642D01*
X87568476Y-99334803D01*
X87555820Y-99330281D01*
X87546384Y-99326933D01*
X87541778Y-99325331D01*
X87540951Y-99325223D01*
X87543480Y-99327106D01*
X87550521Y-99331273D01*
X87561187Y-99337233D01*
X87574591Y-99344494D01*
X87589846Y-99352565D01*
X87606063Y-99360955D01*
X87618618Y-99367488D01*
X87641207Y-99380160D01*
X87658969Y-99391800D01*
X87673012Y-99403263D01*
X87684448Y-99415406D01*
X87694385Y-99429086D01*
X87699246Y-99436743D01*
X87704572Y-99446328D01*
X87707773Y-99454903D01*
X87709562Y-99464590D01*
X87710653Y-99477512D01*
X87710982Y-99492202D01*
X87707569Y-99520837D01*
X87698362Y-99548218D01*
X87683003Y-99575253D01*
X87661132Y-99602849D01*
X87659595Y-99604549D01*
X87652461Y-99612013D01*
X87647067Y-99616977D01*
X87644479Y-99618439D01*
X87644388Y-99618302D01*
X87645201Y-99614839D01*
X87648178Y-99607953D01*
X87652756Y-99598966D01*
X87656806Y-99590927D01*
X87660448Y-99580969D01*
X87662302Y-99570291D01*
X87662923Y-99556588D01*
X87662953Y-99552183D01*
X87662602Y-99541163D01*
X87661232Y-99533141D01*
X87658408Y-99526334D01*
X87653691Y-99518958D01*
X87649896Y-99514019D01*
X87641078Y-99504403D01*
X87632411Y-99496809D01*
X87630535Y-99495501D01*
X87616877Y-99488012D01*
X87599156Y-99480561D01*
X87579845Y-99474096D01*
X87561421Y-99469568D01*
X87556949Y-99468717D01*
X87546467Y-99466681D01*
X87539606Y-99465290D01*
X87536833Y-99463703D01*
X87534620Y-99459427D01*
X87532928Y-99451605D01*
X87531473Y-99439332D01*
X87529316Y-99423369D01*
X87520210Y-99389045D01*
X87504895Y-99355527D01*
X87483090Y-99322267D01*
X87454514Y-99288712D01*
X87431055Y-99263333D01*
X87407706Y-99236416D01*
X87388636Y-99212255D01*
X87373415Y-99190299D01*
X87361613Y-99169999D01*
X87359584Y-99165817D01*
X87354161Y-99151636D01*
X87349667Y-99135670D01*
X87346468Y-99119628D01*
X87344929Y-99105218D01*
X87345414Y-99094148D01*
X87346002Y-99091249D01*
X87348283Y-99084460D01*
X87350751Y-99082979D01*
X87353221Y-99086775D01*
G37*
G36*
X87204007Y-99375425D02*
G01*
X87208856Y-99380587D01*
X87215619Y-99388530D01*
X87223515Y-99398266D01*
X87231758Y-99408811D01*
X87239566Y-99419178D01*
X87246154Y-99428381D01*
X87250740Y-99435436D01*
X87258719Y-99451688D01*
X87265474Y-99475188D01*
X87267879Y-99501309D01*
X87265928Y-99530455D01*
X87259618Y-99563031D01*
X87248944Y-99599442D01*
X87248311Y-99601356D01*
X87242617Y-99622150D01*
X87240597Y-99639180D01*
X87242341Y-99653254D01*
X87247940Y-99665179D01*
X87257484Y-99675762D01*
X87269033Y-99683129D01*
X87284506Y-99686812D01*
X87303304Y-99685878D01*
X87317047Y-99682151D01*
X87332233Y-99673249D01*
X87344205Y-99660174D01*
X87352554Y-99643403D01*
X87356869Y-99623412D01*
X87357069Y-99621560D01*
X87358443Y-99612668D01*
X87360073Y-99606716D01*
X87361647Y-99604910D01*
X87362346Y-99605545D01*
X87365351Y-99610186D01*
X87369586Y-99618179D01*
X87374369Y-99628272D01*
X87378736Y-99638684D01*
X87382146Y-99649890D01*
X87383760Y-99661427D01*
X87384091Y-99675792D01*
X87382660Y-99694806D01*
X87375463Y-99722496D01*
X87361965Y-99748985D01*
X87341888Y-99774772D01*
X87314955Y-99800355D01*
X87307618Y-99806701D01*
X87296714Y-99816741D01*
X87287844Y-99825631D01*
X87282428Y-99831989D01*
X87277057Y-99843117D01*
X87274741Y-99858227D01*
X87277259Y-99872681D01*
X87277980Y-99874740D01*
X87278065Y-99876978D01*
X87275664Y-99876296D01*
X87270016Y-99872338D01*
X87260361Y-99864747D01*
X87259892Y-99864370D01*
X87248604Y-99854357D01*
X87238019Y-99843449D01*
X87230371Y-99833941D01*
X87227648Y-99829786D01*
X87223801Y-99822679D01*
X87221663Y-99815594D01*
X87220803Y-99806740D01*
X87220786Y-99794328D01*
X87220916Y-99785184D01*
X87220341Y-99776031D01*
X87217790Y-99771001D01*
X87212062Y-99769367D01*
X87201958Y-99770399D01*
X87186278Y-99773369D01*
X87157538Y-99780994D01*
X87133756Y-99791709D01*
X87115940Y-99805101D01*
X87104274Y-99820916D01*
X87098944Y-99838903D01*
X87100133Y-99858807D01*
X87108029Y-99880377D01*
X87110801Y-99885983D01*
X87113756Y-99892405D01*
X87114845Y-99895451D01*
X87114623Y-99895644D01*
X87111443Y-99893704D01*
X87105084Y-99888302D01*
X87096296Y-99880128D01*
X87085830Y-99869876D01*
X87074437Y-99858234D01*
X87068829Y-99852177D01*
X87052925Y-99832913D01*
X87037875Y-99811892D01*
X87024988Y-99791026D01*
X87015575Y-99772228D01*
X87007486Y-99750007D01*
X87001235Y-99719716D01*
X87001424Y-99691377D01*
X87008061Y-99664758D01*
X87021158Y-99639629D01*
X87023620Y-99636177D01*
X87030022Y-99628109D01*
X87038056Y-99618689D01*
X87046817Y-99608899D01*
X87055399Y-99599719D01*
X87062895Y-99592131D01*
X87068399Y-99587116D01*
X87071006Y-99585654D01*
X87071171Y-99587261D01*
X87070232Y-99592880D01*
X87068184Y-99600947D01*
X87066698Y-99607245D01*
X87065121Y-99622157D01*
X87065656Y-99637642D01*
X87068070Y-99652524D01*
X87072127Y-99665625D01*
X87077595Y-99675769D01*
X87084240Y-99681779D01*
X87084779Y-99682031D01*
X87094608Y-99683794D01*
X87105973Y-99682375D01*
X87115383Y-99678178D01*
X87119005Y-99674989D01*
X87121206Y-99670836D01*
X87121636Y-99664627D01*
X87120660Y-99654739D01*
X87118727Y-99639448D01*
X87117055Y-99625358D01*
X87116103Y-99614847D01*
X87115907Y-99606961D01*
X87116505Y-99600745D01*
X87117932Y-99595244D01*
X87120226Y-99589504D01*
X87123422Y-99582570D01*
X87129257Y-99571990D01*
X87142310Y-99554014D01*
X87160819Y-99533013D01*
X87162242Y-99531499D01*
X87173477Y-99519265D01*
X87183779Y-99507591D01*
X87192061Y-99497736D01*
X87197232Y-99490958D01*
X87208333Y-99470230D01*
X87214008Y-99447858D01*
X87213785Y-99423874D01*
X87207753Y-99397478D01*
X87206409Y-99393180D01*
X87203679Y-99383675D01*
X87202069Y-99376861D01*
X87201892Y-99373989D01*
X87204007Y-99375425D01*
G37*
G36*
X86316995Y-97713008D02*
G01*
X86315932Y-97714606D01*
X86296582Y-97746052D01*
X86280727Y-97776526D01*
X86268832Y-97805048D01*
X86261359Y-97830639D01*
X86260693Y-97834057D01*
X86258703Y-97851485D01*
X86258135Y-97871800D01*
X86258893Y-97893365D01*
X86260883Y-97914538D01*
X86264011Y-97933680D01*
X86268182Y-97949152D01*
X86271755Y-97958365D01*
X86278285Y-97972573D01*
X86285503Y-97985891D01*
X86292762Y-97997252D01*
X86299416Y-98005585D01*
X86304821Y-98009822D01*
X86309216Y-98010872D01*
X86320057Y-98009680D01*
X86332751Y-98004478D01*
X86346484Y-97995822D01*
X86360439Y-97984268D01*
X86373802Y-97970372D01*
X86385757Y-97954689D01*
X86402831Y-97923600D01*
X86414587Y-97889476D01*
X86420802Y-97853256D01*
X86421413Y-97815642D01*
X86416355Y-97777339D01*
X86405563Y-97739049D01*
X86403214Y-97732511D01*
X86399313Y-97721642D01*
X86396243Y-97713075D01*
X86394520Y-97708243D01*
X86394147Y-97704945D01*
X86396672Y-97705640D01*
X86401653Y-97710084D01*
X86408565Y-97717807D01*
X86416880Y-97728334D01*
X86420269Y-97732935D01*
X86439140Y-97762202D01*
X86454632Y-97792660D01*
X86465593Y-97822091D01*
X86467791Y-97829849D01*
X86470083Y-97839354D01*
X86471715Y-97848815D01*
X86472789Y-97859311D01*
X86473406Y-97871922D01*
X86473668Y-97887728D01*
X86473677Y-97907811D01*
X86473532Y-97924317D01*
X86472972Y-97944387D01*
X86471850Y-97962120D01*
X86470005Y-97979283D01*
X86467275Y-97997647D01*
X86463497Y-98018980D01*
X86462826Y-98022663D01*
X86459826Y-98041104D01*
X86457165Y-98060629D01*
X86454888Y-98080523D01*
X86453043Y-98100076D01*
X86451674Y-98118575D01*
X86450830Y-98135307D01*
X86450557Y-98149561D01*
X86450900Y-98160624D01*
X86451906Y-98167784D01*
X86453623Y-98170329D01*
X86454246Y-98170254D01*
X86459512Y-98167156D01*
X86467459Y-98159913D01*
X86477640Y-98149072D01*
X86489610Y-98135180D01*
X86502923Y-98118783D01*
X86517133Y-98100427D01*
X86531794Y-98080659D01*
X86546462Y-98060024D01*
X86560690Y-98039070D01*
X86584635Y-98002907D01*
X86585767Y-98018980D01*
X86585852Y-98031329D01*
X86584411Y-98048903D01*
X86581336Y-98070972D01*
X86576594Y-98097770D01*
X86570152Y-98129531D01*
X86567505Y-98142198D01*
X86562163Y-98169912D01*
X86558378Y-98193605D01*
X86556068Y-98214120D01*
X86555154Y-98232303D01*
X86555555Y-98248996D01*
X86557189Y-98265043D01*
X86559436Y-98279122D01*
X86566829Y-98309603D01*
X86577427Y-98336216D01*
X86591673Y-98359754D01*
X86610012Y-98381013D01*
X86632886Y-98400789D01*
X86644176Y-98409305D01*
X86656720Y-98418305D01*
X86664973Y-98423376D01*
X86669205Y-98424563D01*
X86669685Y-98421908D01*
X86666684Y-98415455D01*
X86660472Y-98405249D01*
X86656762Y-98399330D01*
X86640432Y-98369342D01*
X86628680Y-98340357D01*
X86621612Y-98312924D01*
X86619335Y-98287589D01*
X86621953Y-98264903D01*
X86629573Y-98245413D01*
X86632912Y-98239989D01*
X86637210Y-98234192D01*
X86639978Y-98231941D01*
X86640857Y-98233601D01*
X86641725Y-98239634D01*
X86642267Y-98249044D01*
X86642391Y-98260738D01*
X86642428Y-98269443D01*
X86643396Y-98284481D01*
X86645850Y-98297504D01*
X86650134Y-98310724D01*
X86657709Y-98327348D01*
X86670107Y-98348671D01*
X86685667Y-98371355D01*
X86703462Y-98394058D01*
X86722561Y-98415436D01*
X86731668Y-98424932D01*
X86744271Y-98438084D01*
X86756078Y-98450411D01*
X86765400Y-98460154D01*
X86771548Y-98466780D01*
X86796538Y-98498906D01*
X86815239Y-98532599D01*
X86827226Y-98567120D01*
X86828952Y-98575733D01*
X86831031Y-98589370D01*
X86833079Y-98605824D01*
X86834931Y-98623747D01*
X86836420Y-98641791D01*
X86837959Y-98662085D01*
X86840074Y-98685116D01*
X86842377Y-98704129D01*
X86844999Y-98719890D01*
X86848073Y-98733164D01*
X86851733Y-98744719D01*
X86856110Y-98755319D01*
X86857875Y-98758986D01*
X86871327Y-98780394D01*
X86888690Y-98799539D01*
X86909014Y-98815646D01*
X86931351Y-98827943D01*
X86954749Y-98835656D01*
X86956842Y-98836431D01*
X86958069Y-98838560D01*
X86957546Y-98842868D01*
X86955123Y-98850329D01*
X86950646Y-98861914D01*
X86950595Y-98862042D01*
X86945535Y-98874029D01*
X86941551Y-98881537D01*
X86938158Y-98885310D01*
X86934871Y-98886089D01*
X86932344Y-98885619D01*
X86920618Y-98881742D01*
X86905860Y-98875047D01*
X86889595Y-98866332D01*
X86873342Y-98856398D01*
X86858627Y-98846043D01*
X86853710Y-98842221D01*
X86841926Y-98832267D01*
X86832294Y-98822424D01*
X86823259Y-98810982D01*
X86813265Y-98796234D01*
X86804308Y-98781721D01*
X86795515Y-98765493D01*
X86787673Y-98748362D01*
X86780326Y-98729222D01*
X86773016Y-98706971D01*
X86765285Y-98680507D01*
X86760016Y-98662730D01*
X86753212Y-98643176D01*
X86745500Y-98625258D01*
X86736401Y-98608390D01*
X86725434Y-98591984D01*
X86712120Y-98575452D01*
X86695977Y-98558208D01*
X86676526Y-98539663D01*
X86653287Y-98519230D01*
X86625780Y-98496321D01*
X86593525Y-98470351D01*
X86556581Y-98440493D01*
X86523211Y-98412460D01*
X86494183Y-98386751D01*
X86468922Y-98362799D01*
X86446852Y-98340034D01*
X86427400Y-98317888D01*
X86409988Y-98295794D01*
X86394044Y-98273183D01*
X86391948Y-98270018D01*
X86376307Y-98244750D01*
X86361651Y-98218280D01*
X86348524Y-98191766D01*
X86337469Y-98166364D01*
X86329030Y-98143231D01*
X86323748Y-98123524D01*
X86322856Y-98119257D01*
X86321363Y-98114164D01*
X86319898Y-98113480D01*
X86317947Y-98116588D01*
X86317934Y-98116613D01*
X86316012Y-98121696D01*
X86313117Y-98130752D01*
X86309640Y-98142506D01*
X86305970Y-98155686D01*
X86305922Y-98155864D01*
X86299131Y-98188953D01*
X86297347Y-98220226D01*
X86300783Y-98250406D01*
X86309655Y-98280218D01*
X86324178Y-98310385D01*
X86344569Y-98341633D01*
X86371041Y-98374685D01*
X86372360Y-98376207D01*
X86396879Y-98403277D01*
X86420223Y-98426441D01*
X86443614Y-98446765D01*
X86468277Y-98465318D01*
X86495436Y-98483166D01*
X86495989Y-98483510D01*
X86502660Y-98487975D01*
X86503689Y-98489506D01*
X86499313Y-98488190D01*
X86489765Y-98484119D01*
X86475282Y-98477384D01*
X86456097Y-98468073D01*
X86445675Y-98462696D01*
X86426624Y-98451946D01*
X86408015Y-98440482D01*
X86392704Y-98430018D01*
X86383087Y-98423026D01*
X86373712Y-98416488D01*
X86367342Y-98412381D01*
X86364992Y-98411389D01*
X86365522Y-98412504D01*
X86368937Y-98417484D01*
X86374819Y-98425320D01*
X86382349Y-98434902D01*
X86410131Y-98465168D01*
X86445540Y-98495386D01*
X86486535Y-98523342D01*
X86532415Y-98548503D01*
X86538349Y-98551487D01*
X86547678Y-98556590D01*
X86552979Y-98560114D01*
X86553238Y-98561428D01*
X86551951Y-98561304D01*
X86544480Y-98559917D01*
X86532138Y-98557233D01*
X86516294Y-98553557D01*
X86498315Y-98549195D01*
X86490408Y-98547182D01*
X86462254Y-98539218D01*
X86434107Y-98530143D01*
X86407341Y-98520475D01*
X86383327Y-98510730D01*
X86363437Y-98501423D01*
X86349044Y-98493070D01*
X86341421Y-98487920D01*
X86335226Y-98483956D01*
X86332849Y-98482755D01*
X86334175Y-98486365D01*
X86338541Y-98493802D01*
X86345170Y-98503638D01*
X86353246Y-98514721D01*
X86361958Y-98525901D01*
X86370491Y-98536024D01*
X86387441Y-98553187D01*
X86419192Y-98578290D01*
X86457407Y-98601431D01*
X86501936Y-98622532D01*
X86552632Y-98641518D01*
X86609344Y-98658312D01*
X86648921Y-98668707D01*
X86598921Y-98667409D01*
X86596202Y-98667335D01*
X86575734Y-98666582D01*
X86556047Y-98665553D01*
X86539259Y-98664375D01*
X86527492Y-98663173D01*
X86527434Y-98663165D01*
X86504468Y-98659769D01*
X86481087Y-98655878D01*
X86458781Y-98651780D01*
X86439040Y-98647762D01*
X86423352Y-98644112D01*
X86413206Y-98641117D01*
X86398921Y-98635775D01*
X86407849Y-98643108D01*
X86409447Y-98644394D01*
X86424280Y-98654966D01*
X86443431Y-98666917D01*
X86465134Y-98679277D01*
X86487619Y-98691073D01*
X86509120Y-98701334D01*
X86527869Y-98709088D01*
X86554238Y-98717580D01*
X86585917Y-98725773D01*
X86620699Y-98733171D01*
X86656557Y-98739342D01*
X86691465Y-98743857D01*
X86696604Y-98744426D01*
X86709707Y-98746262D01*
X86717547Y-98748029D01*
X86719198Y-98749538D01*
X86713837Y-98751641D01*
X86702683Y-98754427D01*
X86687240Y-98757558D01*
X86668919Y-98760769D01*
X86649128Y-98763796D01*
X86629278Y-98766376D01*
X86619279Y-98767421D01*
X86595800Y-98769125D01*
X86571496Y-98770036D01*
X86548334Y-98770131D01*
X86528282Y-98769386D01*
X86513307Y-98767777D01*
X86510063Y-98767243D01*
X86501782Y-98766212D01*
X86497852Y-98766262D01*
X86499145Y-98767765D01*
X86505181Y-98771728D01*
X86514961Y-98777441D01*
X86527280Y-98784252D01*
X86540931Y-98791510D01*
X86554710Y-98798563D01*
X86567410Y-98804762D01*
X86577826Y-98809453D01*
X86579076Y-98809973D01*
X86611524Y-98821036D01*
X86648852Y-98829752D01*
X86689428Y-98835873D01*
X86731625Y-98839149D01*
X86773811Y-98839334D01*
X86809415Y-98838099D01*
X86793454Y-98848819D01*
X86783527Y-98854812D01*
X86759108Y-98865994D01*
X86730690Y-98875401D01*
X86700296Y-98882513D01*
X86669951Y-98886811D01*
X86641678Y-98887776D01*
X86632150Y-98887480D01*
X86622790Y-98887379D01*
X86618844Y-98887899D01*
X86619269Y-98889254D01*
X86623025Y-98891664D01*
X86632807Y-98896968D01*
X86649454Y-98904822D01*
X86667810Y-98912544D01*
X86685401Y-98919109D01*
X86699750Y-98923489D01*
X86701605Y-98923930D01*
X86723652Y-98927294D01*
X86750368Y-98928513D01*
X86762086Y-98928583D01*
X86771835Y-98928849D01*
X86776123Y-98929471D01*
X86775905Y-98930624D01*
X86772135Y-98932483D01*
X86769503Y-98933581D01*
X86749038Y-98940220D01*
X86724613Y-98945660D01*
X86698946Y-98949387D01*
X86674754Y-98950887D01*
X86643444Y-98951188D01*
X86667611Y-98960027D01*
X86671516Y-98961446D01*
X86694232Y-98969144D01*
X86714038Y-98974503D01*
X86733441Y-98977993D01*
X86754947Y-98980081D01*
X86781063Y-98981236D01*
X86790715Y-98981475D01*
X86811915Y-98981537D01*
X86830471Y-98980633D01*
X86848712Y-98978526D01*
X86868967Y-98974977D01*
X86893563Y-98969751D01*
X86902492Y-98967759D01*
X86895349Y-98973863D01*
X86887219Y-98979552D01*
X86872717Y-98987568D01*
X86854447Y-98996335D01*
X86833979Y-99005209D01*
X86812883Y-99013543D01*
X86792728Y-99020693D01*
X86775084Y-99026013D01*
X86761521Y-99028859D01*
X86755795Y-99029696D01*
X86748728Y-99031534D01*
X86748654Y-99033353D01*
X86755474Y-99035051D01*
X86769087Y-99036527D01*
X86785330Y-99037581D01*
X86833920Y-99037821D01*
X86880163Y-99033326D01*
X86925153Y-99023950D01*
X86969981Y-99009546D01*
X86994613Y-99000281D01*
X86992211Y-99017866D01*
X86988094Y-99035772D01*
X86977042Y-99058439D01*
X86959484Y-99079187D01*
X86937641Y-99097370D01*
X86905766Y-99117012D01*
X86869847Y-99132664D01*
X86830741Y-99143967D01*
X86789303Y-99150561D01*
X86788776Y-99150613D01*
X86770103Y-99152277D01*
X86757442Y-99153014D01*
X86749799Y-99152854D01*
X86746182Y-99151826D01*
X86746110Y-99150535D01*
X86748910Y-99145865D01*
X86754515Y-99139370D01*
X86758110Y-99135515D01*
X86763053Y-99129617D01*
X86764992Y-99126360D01*
X86763348Y-99126281D01*
X86756520Y-99127974D01*
X86745613Y-99131381D01*
X86731956Y-99136111D01*
X86714452Y-99141855D01*
X86683362Y-99149234D01*
X86654106Y-99152539D01*
X86627800Y-99151602D01*
X86610251Y-99149369D01*
X86624692Y-99142201D01*
X86627936Y-99140469D01*
X86640888Y-99131190D01*
X86654473Y-99117702D01*
X86668902Y-99099749D01*
X86684389Y-99077071D01*
X86701146Y-99049410D01*
X86703067Y-99046066D01*
X86706648Y-99039269D01*
X86706735Y-99036851D01*
X86702907Y-99038435D01*
X86694747Y-99043642D01*
X86694590Y-99043745D01*
X86679944Y-99051499D01*
X86660263Y-99059300D01*
X86637555Y-99066439D01*
X86613827Y-99072209D01*
X86597263Y-99074719D01*
X86574281Y-99076462D01*
X86549279Y-99076988D01*
X86524505Y-99076311D01*
X86502208Y-99074445D01*
X86484635Y-99071404D01*
X86463206Y-99066034D01*
X86482849Y-99061119D01*
X86486282Y-99060230D01*
X86508760Y-99052746D01*
X86530516Y-99042338D01*
X86552379Y-99028489D01*
X86575180Y-99010682D01*
X86599749Y-98988402D01*
X86611216Y-98977398D01*
X86587211Y-98982468D01*
X86556054Y-98987379D01*
X86515773Y-98989716D01*
X86474463Y-98988216D01*
X86434157Y-98982968D01*
X86396889Y-98974062D01*
X86384776Y-98970067D01*
X86371051Y-98964886D01*
X86358406Y-98959517D01*
X86347573Y-98954363D01*
X86339286Y-98949831D01*
X86334276Y-98946326D01*
X86333278Y-98944254D01*
X86337022Y-98944019D01*
X86346242Y-98946028D01*
X86356592Y-98948025D01*
X86376117Y-98949552D01*
X86398596Y-98949400D01*
X86421759Y-98947612D01*
X86443336Y-98944230D01*
X86450301Y-98942705D01*
X86485722Y-98932900D01*
X86521583Y-98919887D01*
X86554957Y-98904702D01*
X86570238Y-98896766D01*
X86580836Y-98890831D01*
X86585950Y-98887125D01*
X86585865Y-98885325D01*
X86580865Y-98885105D01*
X86571236Y-98886141D01*
X86558988Y-98887287D01*
X86539597Y-98888246D01*
X86516263Y-98888805D01*
X86490568Y-98888978D01*
X86464094Y-98888778D01*
X86438422Y-98888219D01*
X86415136Y-98887314D01*
X86395818Y-98886077D01*
X86382048Y-98884521D01*
X86344629Y-98876825D01*
X86297819Y-98862401D01*
X86254021Y-98843276D01*
X86213769Y-98819694D01*
X86177599Y-98791896D01*
X86176583Y-98790997D01*
X86166105Y-98781203D01*
X86155322Y-98770311D01*
X86145012Y-98759211D01*
X86135950Y-98748795D01*
X86128916Y-98739953D01*
X86124686Y-98733574D01*
X86124037Y-98730549D01*
X86127277Y-98731210D01*
X86134800Y-98734236D01*
X86144870Y-98738975D01*
X86160496Y-98746343D01*
X86200272Y-98762238D01*
X86243788Y-98776237D01*
X86288746Y-98787645D01*
X86332849Y-98795767D01*
X86344498Y-98797195D01*
X86362539Y-98798803D01*
X86383043Y-98800154D01*
X86404644Y-98801205D01*
X86425973Y-98801913D01*
X86445666Y-98802236D01*
X86462354Y-98802129D01*
X86474672Y-98801550D01*
X86481253Y-98800455D01*
X86481778Y-98800231D01*
X86484704Y-98798414D01*
X86482354Y-98797133D01*
X86473816Y-98795819D01*
X86472998Y-98795712D01*
X86461343Y-98793843D01*
X86444386Y-98790738D01*
X86423522Y-98786686D01*
X86400145Y-98781976D01*
X86375650Y-98776896D01*
X86351432Y-98771735D01*
X86328886Y-98766783D01*
X86309406Y-98762328D01*
X86294388Y-98758659D01*
X86275333Y-98753410D01*
X86240889Y-98742397D01*
X86208126Y-98730089D01*
X86179749Y-98717458D01*
X86169684Y-98712128D01*
X86145229Y-98696539D01*
X86120286Y-98677328D01*
X86096045Y-98655529D01*
X86073691Y-98632177D01*
X86054414Y-98608307D01*
X86049175Y-98600709D01*
X86042341Y-98589734D01*
X86035941Y-98578440D01*
X86030498Y-98567859D01*
X86026537Y-98559022D01*
X86024583Y-98552963D01*
X86025161Y-98550713D01*
X86025570Y-98550765D01*
X86030204Y-98553073D01*
X86036691Y-98557752D01*
X86041625Y-98561545D01*
X86055181Y-98570940D01*
X86072495Y-98582054D01*
X86092135Y-98594026D01*
X86112671Y-98605993D01*
X86132672Y-98617092D01*
X86150706Y-98626462D01*
X86163245Y-98632583D01*
X86197875Y-98648255D01*
X86229345Y-98660333D01*
X86258829Y-98669133D01*
X86287505Y-98674969D01*
X86316548Y-98678156D01*
X86347135Y-98679008D01*
X86358278Y-98678856D01*
X86373879Y-98678377D01*
X86386302Y-98677678D01*
X86393563Y-98676852D01*
X86402492Y-98674944D01*
X86392757Y-98673066D01*
X86390362Y-98672511D01*
X86380589Y-98669724D01*
X86365839Y-98665139D01*
X86347146Y-98659107D01*
X86325548Y-98651975D01*
X86302080Y-98644095D01*
X86277777Y-98635814D01*
X86253675Y-98627483D01*
X86230810Y-98619450D01*
X86210218Y-98612064D01*
X86192935Y-98605676D01*
X86169886Y-98596360D01*
X86122004Y-98572629D01*
X86078324Y-98544626D01*
X86039009Y-98512477D01*
X86004222Y-98476307D01*
X85974127Y-98436244D01*
X85960269Y-98414158D01*
X85949346Y-98393910D01*
X85940482Y-98373593D01*
X85932600Y-98350993D01*
X85931805Y-98348367D01*
X85929020Y-98337650D01*
X85926193Y-98324820D01*
X85923498Y-98310936D01*
X85921108Y-98297052D01*
X85919198Y-98284227D01*
X85917940Y-98273515D01*
X85917509Y-98265976D01*
X85918079Y-98262664D01*
X85918095Y-98262653D01*
X85920553Y-98264365D01*
X85925788Y-98269863D01*
X85933039Y-98278302D01*
X85941550Y-98288835D01*
X85950601Y-98300214D01*
X85977439Y-98332232D01*
X86003746Y-98360730D01*
X86030736Y-98386908D01*
X86059624Y-98411966D01*
X86091624Y-98437103D01*
X86102526Y-98445138D01*
X86155846Y-98480054D01*
X86214416Y-98511753D01*
X86277492Y-98539824D01*
X86277525Y-98539837D01*
X86287240Y-98543731D01*
X86294289Y-98546429D01*
X86298349Y-98547625D01*
X86299096Y-98547016D01*
X86296208Y-98544297D01*
X86289361Y-98539164D01*
X86278232Y-98531313D01*
X86262498Y-98520438D01*
X86241836Y-98506236D01*
X86223813Y-98493758D01*
X86191671Y-98470879D01*
X86164074Y-98450209D01*
X86140243Y-98431080D01*
X86119395Y-98412824D01*
X86100751Y-98394773D01*
X86083529Y-98376259D01*
X86066948Y-98356612D01*
X86039361Y-98318362D01*
X86015924Y-98276082D01*
X85998776Y-98232769D01*
X85987997Y-98188884D01*
X85983662Y-98144891D01*
X85985849Y-98101253D01*
X85994637Y-98058431D01*
X86010101Y-98016889D01*
X86011507Y-98013925D01*
X86018615Y-98000356D01*
X86027482Y-97985021D01*
X86037376Y-97969045D01*
X86047563Y-97953551D01*
X86057309Y-97939664D01*
X86065881Y-97928507D01*
X86072546Y-97921205D01*
X86079867Y-97914508D01*
X86077925Y-97922544D01*
X86077891Y-97922684D01*
X86076361Y-97928554D01*
X86073721Y-97938288D01*
X86070333Y-97950565D01*
X86066557Y-97964065D01*
X86065890Y-97966440D01*
X86063095Y-97976728D01*
X86060999Y-97985595D01*
X86059529Y-97994010D01*
X86058611Y-98002941D01*
X86058169Y-98013355D01*
X86058131Y-98026220D01*
X86058423Y-98042506D01*
X86058969Y-98063179D01*
X86059564Y-98082211D01*
X86060358Y-98100535D01*
X86061361Y-98115405D01*
X86062686Y-98127852D01*
X86064447Y-98138906D01*
X86066756Y-98149596D01*
X86069728Y-98160954D01*
X86078846Y-98189601D01*
X86093372Y-98223067D01*
X86111659Y-98253357D01*
X86134474Y-98281525D01*
X86162582Y-98308626D01*
X86196752Y-98335715D01*
X86199698Y-98337865D01*
X86211914Y-98346620D01*
X86221992Y-98353585D01*
X86228956Y-98358100D01*
X86231829Y-98359501D01*
X86231561Y-98358592D01*
X86228395Y-98354073D01*
X86222468Y-98346717D01*
X86214584Y-98337549D01*
X86208375Y-98330347D01*
X86187548Y-98303680D01*
X86168239Y-98275194D01*
X86151097Y-98246051D01*
X86136770Y-98217414D01*
X86125905Y-98190447D01*
X86119152Y-98166311D01*
X86115784Y-98148281D01*
X86113571Y-98133403D01*
X86112698Y-98122866D01*
X86113150Y-98116856D01*
X86114912Y-98115560D01*
X86117969Y-98119164D01*
X86122305Y-98127855D01*
X86126777Y-98134933D01*
X86135138Y-98144443D01*
X86145257Y-98153630D01*
X86159844Y-98163547D01*
X86174615Y-98169221D01*
X86189554Y-98170071D01*
X86205605Y-98166295D01*
X86209948Y-98164714D01*
X86215219Y-98162374D01*
X86218866Y-98159576D01*
X86220789Y-98155748D01*
X86220892Y-98150316D01*
X86219075Y-98142708D01*
X86215240Y-98132349D01*
X86209290Y-98118666D01*
X86201126Y-98101088D01*
X86190649Y-98079039D01*
X86186655Y-98070433D01*
X86171542Y-98031550D01*
X86162309Y-97994568D01*
X86158807Y-97958713D01*
X86160889Y-97923214D01*
X86169780Y-97882211D01*
X86185669Y-97841500D01*
X86208419Y-97802190D01*
X86238049Y-97764256D01*
X86274573Y-97727673D01*
X86318009Y-97692419D01*
X86343090Y-97673916D01*
X86316995Y-97713008D01*
G37*
G36*
X87292813Y-98591211D02*
G01*
X87319103Y-98599603D01*
X87342956Y-98609138D01*
X87366059Y-98620367D01*
X87370668Y-98622844D01*
X87382599Y-98629620D01*
X87394812Y-98636970D01*
X87406324Y-98644245D01*
X87416153Y-98650798D01*
X87423314Y-98655982D01*
X87426826Y-98659149D01*
X87425706Y-98659653D01*
X87420222Y-98658033D01*
X87410160Y-98654966D01*
X87397939Y-98651185D01*
X87390610Y-98649065D01*
X87369000Y-98643950D01*
X87343703Y-98639158D01*
X87317151Y-98635119D01*
X87291778Y-98632270D01*
X87270349Y-98630383D01*
X87298921Y-98645807D01*
X87301136Y-98647017D01*
X87315464Y-98655249D01*
X87332709Y-98665664D01*
X87350893Y-98677049D01*
X87368043Y-98688195D01*
X87388102Y-98701807D01*
X87403162Y-98712688D01*
X87412982Y-98720714D01*
X87417792Y-98726074D01*
X87417825Y-98728958D01*
X87417706Y-98729014D01*
X87413333Y-98728419D01*
X87404453Y-98726030D01*
X87392831Y-98722317D01*
X87387110Y-98720493D01*
X87370830Y-98715986D01*
X87351968Y-98711421D01*
X87333545Y-98707553D01*
X87323191Y-98705550D01*
X87307945Y-98702476D01*
X87295690Y-98699855D01*
X87288399Y-98698100D01*
X87279252Y-98695492D01*
X87284809Y-98705474D01*
X87286376Y-98708214D01*
X87302720Y-98730664D01*
X87325016Y-98752033D01*
X87344917Y-98770087D01*
X87365569Y-98794227D01*
X87379209Y-98818248D01*
X87385906Y-98842250D01*
X87388206Y-98859263D01*
X87418563Y-98847647D01*
X87422087Y-98846276D01*
X87441248Y-98837765D01*
X87459093Y-98827640D01*
X87478217Y-98814460D01*
X87488275Y-98806722D01*
X87502694Y-98793914D01*
X87514683Y-98780458D01*
X87524541Y-98765682D01*
X87532568Y-98748915D01*
X87539066Y-98729484D01*
X87544334Y-98706717D01*
X87548672Y-98679943D01*
X87552382Y-98648488D01*
X87553808Y-98635177D01*
X87556795Y-98611372D01*
X87560093Y-98591266D01*
X87563967Y-98573748D01*
X87568685Y-98557703D01*
X87574511Y-98542019D01*
X87581710Y-98525581D01*
X87583295Y-98522215D01*
X87595783Y-98498484D01*
X87611189Y-98473719D01*
X87630153Y-98446952D01*
X87653316Y-98417213D01*
X87656233Y-98413590D01*
X87676334Y-98387819D01*
X87692554Y-98365115D01*
X87705348Y-98344453D01*
X87715170Y-98324811D01*
X87722476Y-98305165D01*
X87727721Y-98284490D01*
X87731358Y-98261762D01*
X87733844Y-98235959D01*
X87734841Y-98222565D01*
X87743667Y-98235959D01*
X87746274Y-98240097D01*
X87749084Y-98245694D01*
X87750895Y-98251830D01*
X87751921Y-98259710D01*
X87752377Y-98270537D01*
X87752477Y-98285516D01*
X87752392Y-98299080D01*
X87751925Y-98310669D01*
X87750772Y-98319840D01*
X87748628Y-98328151D01*
X87745186Y-98337159D01*
X87740142Y-98348422D01*
X87735502Y-98357873D01*
X87726962Y-98373673D01*
X87717312Y-98390201D01*
X87707881Y-98405120D01*
X87687939Y-98435075D01*
X87700573Y-98427472D01*
X87719823Y-98414733D01*
X87746718Y-98393070D01*
X87770630Y-98369263D01*
X87789614Y-98345111D01*
X87791318Y-98342541D01*
X87797218Y-98333072D01*
X87802111Y-98323876D01*
X87806111Y-98314328D01*
X87809332Y-98303801D01*
X87811886Y-98291670D01*
X87813887Y-98277310D01*
X87815448Y-98260095D01*
X87816684Y-98239399D01*
X87817706Y-98214597D01*
X87818630Y-98185063D01*
X87819315Y-98163729D01*
X87820219Y-98140989D01*
X87821236Y-98119807D01*
X87822322Y-98100944D01*
X87823433Y-98085158D01*
X87824524Y-98073209D01*
X87825552Y-98065858D01*
X87826501Y-98061477D01*
X87829640Y-98049068D01*
X87833416Y-98036192D01*
X87837437Y-98023996D01*
X87841311Y-98013625D01*
X87844647Y-98006226D01*
X87847052Y-98002945D01*
X87848637Y-98004419D01*
X87850491Y-98009972D01*
X87852084Y-98018376D01*
X87854113Y-98029163D01*
X87859010Y-98047253D01*
X87865549Y-98066327D01*
X87872985Y-98084277D01*
X87880574Y-98098996D01*
X87887492Y-98109180D01*
X87896866Y-98121151D01*
X87906558Y-98132147D01*
X87910347Y-98136101D01*
X87917363Y-98143013D01*
X87921824Y-98146320D01*
X87924734Y-98146630D01*
X87927099Y-98144548D01*
X87927468Y-98143895D01*
X87928731Y-98138258D01*
X87929716Y-98128344D01*
X87930424Y-98115012D01*
X87930860Y-98099118D01*
X87931026Y-98081521D01*
X87930925Y-98063077D01*
X87930561Y-98044644D01*
X87929937Y-98027080D01*
X87929055Y-98011242D01*
X87927920Y-97997987D01*
X87926533Y-97988174D01*
X87921643Y-97958577D01*
X87917625Y-97912308D01*
X87918501Y-97868851D01*
X87924241Y-97828499D01*
X87934813Y-97791545D01*
X87950190Y-97758284D01*
X87952365Y-97754648D01*
X87958459Y-97745431D01*
X87966164Y-97734589D01*
X87974771Y-97723029D01*
X87983570Y-97711660D01*
X87991851Y-97701389D01*
X87998906Y-97693125D01*
X88004025Y-97687774D01*
X88006497Y-97686246D01*
X88006592Y-97686518D01*
X88005618Y-97690372D01*
X88002816Y-97697668D01*
X87998669Y-97707121D01*
X87989225Y-97729570D01*
X87977052Y-97768699D01*
X87970425Y-97807138D01*
X87969308Y-97844406D01*
X87973663Y-97880023D01*
X87983453Y-97913510D01*
X87998641Y-97944384D01*
X88019189Y-97972167D01*
X88031549Y-97984460D01*
X88046588Y-97995913D01*
X88061569Y-98003989D01*
X88075534Y-98008186D01*
X88087524Y-98008002D01*
X88101301Y-98002726D01*
X88116425Y-97992382D01*
X88130281Y-97978162D01*
X88142118Y-97960855D01*
X88151186Y-97941246D01*
X88153128Y-97935595D01*
X88155594Y-97926679D01*
X88157301Y-97917145D01*
X88158389Y-97905808D01*
X88158997Y-97891483D01*
X88159266Y-97872987D01*
X88159267Y-97872958D01*
X88158653Y-97845848D01*
X88156162Y-97821345D01*
X88151418Y-97798287D01*
X88144045Y-97775512D01*
X88133665Y-97751856D01*
X88119902Y-97726157D01*
X88102381Y-97697252D01*
X88098125Y-97690454D01*
X88090835Y-97678469D01*
X88085183Y-97668715D01*
X88081663Y-97662057D01*
X88080765Y-97659356D01*
X88082156Y-97659494D01*
X88087640Y-97662622D01*
X88096275Y-97668832D01*
X88107213Y-97677430D01*
X88119607Y-97687722D01*
X88132609Y-97699014D01*
X88145371Y-97710612D01*
X88157045Y-97721821D01*
X88172531Y-97737659D01*
X88196355Y-97764478D01*
X88215348Y-97789661D01*
X88230210Y-97814089D01*
X88246066Y-97848378D01*
X88258424Y-97889242D01*
X88263816Y-97930628D01*
X88262283Y-97972869D01*
X88253864Y-98016301D01*
X88248443Y-98034738D01*
X88241124Y-98054737D01*
X88232092Y-98074361D01*
X88220595Y-98095220D01*
X88205879Y-98118923D01*
X88202278Y-98124541D01*
X88194614Y-98136822D01*
X88188449Y-98147150D01*
X88184342Y-98154575D01*
X88182849Y-98158148D01*
X88184003Y-98160711D01*
X88190642Y-98163825D01*
X88201891Y-98164913D01*
X88211535Y-98163707D01*
X88227626Y-98158313D01*
X88245839Y-98148946D01*
X88265320Y-98135996D01*
X88272567Y-98130751D01*
X88281471Y-98124626D01*
X88287361Y-98120999D01*
X88289228Y-98120521D01*
X88288962Y-98121182D01*
X88286846Y-98126159D01*
X88282968Y-98135153D01*
X88277667Y-98147376D01*
X88271286Y-98162043D01*
X88264165Y-98178366D01*
X88260063Y-98187584D01*
X88240386Y-98227678D01*
X88219112Y-98264816D01*
X88196634Y-98298396D01*
X88173349Y-98327819D01*
X88149650Y-98352485D01*
X88148940Y-98353237D01*
X88150843Y-98352201D01*
X88156769Y-98348040D01*
X88166052Y-98341228D01*
X88178032Y-98332237D01*
X88185763Y-98326236D01*
X88221545Y-98294330D01*
X88254040Y-98258397D01*
X88282720Y-98219223D01*
X88307056Y-98177596D01*
X88326522Y-98134301D01*
X88340588Y-98090126D01*
X88343836Y-98075077D01*
X88347914Y-98042596D01*
X88348950Y-98007740D01*
X88346998Y-97972130D01*
X88342113Y-97937388D01*
X88334349Y-97905132D01*
X88333748Y-97903085D01*
X88333456Y-97900459D01*
X88335719Y-97901523D01*
X88341576Y-97906472D01*
X88345279Y-97910254D01*
X88352202Y-97918652D01*
X88360257Y-97929470D01*
X88368359Y-97941296D01*
X88369282Y-97942709D01*
X88385632Y-97969864D01*
X88397915Y-97995324D01*
X88406502Y-98020448D01*
X88411765Y-98046593D01*
X88414075Y-98075117D01*
X88413804Y-98107379D01*
X88413102Y-98119750D01*
X88407447Y-98162340D01*
X88396596Y-98202639D01*
X88380154Y-98241641D01*
X88357722Y-98280337D01*
X88328905Y-98319720D01*
X88320823Y-98329638D01*
X88302436Y-98351001D01*
X88283207Y-98371548D01*
X88262535Y-98391790D01*
X88239817Y-98412239D01*
X88214450Y-98433404D01*
X88185833Y-98455796D01*
X88153363Y-98479925D01*
X88116439Y-98506303D01*
X88074458Y-98535438D01*
X88059635Y-98545612D01*
X88095349Y-98531652D01*
X88136758Y-98514334D01*
X88180261Y-98493437D01*
X88218523Y-98471984D01*
X88227735Y-98466220D01*
X88262099Y-98442738D01*
X88297903Y-98415441D01*
X88334122Y-98385211D01*
X88369730Y-98352931D01*
X88403703Y-98319481D01*
X88435014Y-98285744D01*
X88439908Y-98280221D01*
X88448653Y-98270601D01*
X88454484Y-98264787D01*
X88458030Y-98262276D01*
X88459921Y-98262563D01*
X88460786Y-98265147D01*
X88460887Y-98267352D01*
X88459865Y-98275729D01*
X88457326Y-98287784D01*
X88453575Y-98302482D01*
X88448914Y-98318789D01*
X88443647Y-98335672D01*
X88438078Y-98352096D01*
X88432510Y-98367028D01*
X88427246Y-98379432D01*
X88411968Y-98408857D01*
X88383624Y-98451388D01*
X88349262Y-98491159D01*
X88309105Y-98527947D01*
X88263378Y-98561533D01*
X88212305Y-98591693D01*
X88203053Y-98596446D01*
X88195226Y-98600180D01*
X88191428Y-98601610D01*
X88191320Y-98601615D01*
X88186968Y-98603155D01*
X88179829Y-98606607D01*
X88177475Y-98607803D01*
X88164497Y-98613644D01*
X88146620Y-98620930D01*
X88125195Y-98629177D01*
X88101578Y-98637900D01*
X88077123Y-98646615D01*
X88053182Y-98654837D01*
X88031109Y-98662081D01*
X88012259Y-98667863D01*
X87997985Y-98671698D01*
X87991278Y-98673395D01*
X87984219Y-98675960D01*
X87984219Y-98677754D01*
X87991281Y-98678777D01*
X88005407Y-98679030D01*
X88026599Y-98678512D01*
X88058102Y-98676734D01*
X88099230Y-98671952D01*
X88136993Y-98664189D01*
X88173211Y-98653043D01*
X88209704Y-98638113D01*
X88232452Y-98626978D01*
X88258783Y-98612740D01*
X88286525Y-98596608D01*
X88313926Y-98579604D01*
X88339235Y-98562745D01*
X88346755Y-98557629D01*
X88356695Y-98551244D01*
X88363851Y-98547126D01*
X88367032Y-98545993D01*
X88367563Y-98546974D01*
X88366584Y-98552307D01*
X88362751Y-98561109D01*
X88356578Y-98572549D01*
X88348582Y-98585795D01*
X88339277Y-98600015D01*
X88329178Y-98614378D01*
X88318802Y-98628051D01*
X88308663Y-98640203D01*
X88281512Y-98666973D01*
X88245849Y-98693886D01*
X88204813Y-98717532D01*
X88158731Y-98737724D01*
X88107930Y-98754277D01*
X88091115Y-98758737D01*
X88058028Y-98766741D01*
X88020653Y-98774985D01*
X87980728Y-98783091D01*
X87939992Y-98790684D01*
X87888206Y-98799888D01*
X87963206Y-98798682D01*
X87969102Y-98798583D01*
X87997934Y-98797925D01*
X88021304Y-98797018D01*
X88040631Y-98795776D01*
X88057338Y-98794110D01*
X88072846Y-98791933D01*
X88078484Y-98791007D01*
X88138116Y-98778252D01*
X88196806Y-98760279D01*
X88254179Y-98737201D01*
X88259544Y-98734812D01*
X88270767Y-98730084D01*
X88278876Y-98727050D01*
X88282399Y-98726281D01*
X88282469Y-98726363D01*
X88281184Y-98729471D01*
X88276620Y-98735953D01*
X88269537Y-98744881D01*
X88260696Y-98755328D01*
X88250856Y-98766367D01*
X88240778Y-98777069D01*
X88239103Y-98778778D01*
X88207718Y-98806679D01*
X88172596Y-98830466D01*
X88133526Y-98850203D01*
X88090296Y-98865957D01*
X88042696Y-98877790D01*
X87990513Y-98885770D01*
X87933536Y-98889960D01*
X87871554Y-98890425D01*
X87818539Y-98889295D01*
X87848016Y-98902310D01*
X87855306Y-98905491D01*
X87886944Y-98918447D01*
X87917331Y-98929572D01*
X87945022Y-98938361D01*
X87968574Y-98944313D01*
X87989604Y-98947738D01*
X88013239Y-98949704D01*
X88035810Y-98949828D01*
X88055438Y-98948105D01*
X88070243Y-98944532D01*
X88074120Y-98943105D01*
X88081790Y-98940688D01*
X88085431Y-98940177D01*
X88085503Y-98940546D01*
X88083131Y-98943854D01*
X88077737Y-98949142D01*
X88070012Y-98954578D01*
X88054793Y-98962241D01*
X88035108Y-98970011D01*
X88012390Y-98977337D01*
X87988073Y-98983666D01*
X87982226Y-98984983D01*
X87969029Y-98987640D01*
X87956854Y-98989394D01*
X87943662Y-98990428D01*
X87927412Y-98990929D01*
X87906063Y-98991080D01*
X87903484Y-98991083D01*
X87882640Y-98990958D01*
X87867044Y-98990466D01*
X87854989Y-98989471D01*
X87844766Y-98987839D01*
X87834668Y-98985434D01*
X87824280Y-98982786D01*
X87815851Y-98980916D01*
X87812227Y-98980496D01*
X87812918Y-98981696D01*
X87817441Y-98986144D01*
X87825237Y-98993060D01*
X87835309Y-99001624D01*
X87846661Y-99011015D01*
X87858297Y-99020410D01*
X87869219Y-99028989D01*
X87878430Y-99035931D01*
X87884936Y-99040414D01*
X87885015Y-99040463D01*
X87897389Y-99047253D01*
X87911769Y-99053878D01*
X87926224Y-99059575D01*
X87938823Y-99063584D01*
X87947635Y-99065142D01*
X87948271Y-99065151D01*
X87952963Y-99065467D01*
X87952120Y-99066718D01*
X87945349Y-99069684D01*
X87938724Y-99071649D01*
X87927658Y-99073296D01*
X87911685Y-99074455D01*
X87889691Y-99075237D01*
X87877192Y-99075495D01*
X87858674Y-99075507D01*
X87843645Y-99074808D01*
X87829763Y-99073255D01*
X87814691Y-99070709D01*
X87791800Y-99065581D01*
X87763998Y-99057190D01*
X87739077Y-99047307D01*
X87719167Y-99036689D01*
X87703700Y-99026744D01*
X87727236Y-99061974D01*
X87732919Y-99070380D01*
X87750671Y-99095220D01*
X87766759Y-99115446D01*
X87781040Y-99130889D01*
X87793374Y-99141380D01*
X87804799Y-99149416D01*
X87794717Y-99151234D01*
X87789395Y-99151945D01*
X87771225Y-99152135D01*
X87749242Y-99149955D01*
X87725146Y-99145682D01*
X87700637Y-99139596D01*
X87677414Y-99131975D01*
X87672615Y-99130199D01*
X87661415Y-99126346D01*
X87653626Y-99124100D01*
X87650706Y-99123902D01*
X87651782Y-99125731D01*
X87656275Y-99130841D01*
X87663077Y-99137618D01*
X87667657Y-99142328D01*
X87672049Y-99148391D01*
X87672270Y-99151726D01*
X87670260Y-99152392D01*
X87661905Y-99152683D01*
X87648937Y-99151801D01*
X87632850Y-99149932D01*
X87615136Y-99147263D01*
X87597289Y-99143981D01*
X87580802Y-99140273D01*
X87563050Y-99135294D01*
X87529228Y-99122758D01*
X87498980Y-99107413D01*
X87472900Y-99089762D01*
X87451581Y-99070307D01*
X87435618Y-99049549D01*
X87425605Y-99027991D01*
X87422135Y-99006135D01*
X87422135Y-98998395D01*
X87459052Y-99011622D01*
X87470080Y-99015401D01*
X87489631Y-99021478D01*
X87508647Y-99026739D01*
X87524231Y-99030353D01*
X87539017Y-99032738D01*
X87560867Y-99035151D01*
X87584414Y-99036825D01*
X87607489Y-99037652D01*
X87627928Y-99037524D01*
X87643563Y-99036332D01*
X87659635Y-99034071D01*
X87631063Y-99026468D01*
X87607302Y-99019607D01*
X87569937Y-99006499D01*
X87536510Y-98991802D01*
X87508618Y-98976173D01*
X87502772Y-98972139D01*
X87500837Y-98969716D01*
X87503891Y-98969075D01*
X87512565Y-98970098D01*
X87527492Y-98972668D01*
X87546007Y-98975454D01*
X87586799Y-98978281D01*
X87629821Y-98977268D01*
X87673332Y-98972497D01*
X87715593Y-98964046D01*
X87745349Y-98956608D01*
X87718707Y-98954402D01*
X87710953Y-98953546D01*
X87694331Y-98950950D01*
X87674959Y-98947279D01*
X87654787Y-98942958D01*
X87635766Y-98938415D01*
X87619846Y-98934077D01*
X87608977Y-98930372D01*
X87606839Y-98929286D01*
X87606883Y-98928160D01*
X87611430Y-98927468D01*
X87621358Y-98927106D01*
X87637548Y-98926969D01*
X87660736Y-98926096D01*
X87696647Y-98921009D01*
X87729157Y-98911312D01*
X87758590Y-98896927D01*
X87771831Y-98889004D01*
X87737162Y-98887489D01*
X87716449Y-98885993D01*
X87695275Y-98883396D01*
X87677753Y-98880155D01*
X87666924Y-98877354D01*
X87649172Y-98872062D01*
X87630336Y-98865829D01*
X87612370Y-98859340D01*
X87597228Y-98853279D01*
X87586862Y-98848329D01*
X87584027Y-98846641D01*
X87582525Y-98845072D01*
X87584311Y-98843988D01*
X87590346Y-98843189D01*
X87601590Y-98842477D01*
X87619005Y-98841650D01*
X87654929Y-98839335D01*
X87708725Y-98832878D01*
X87757477Y-98822983D01*
X87801561Y-98809548D01*
X87841355Y-98792469D01*
X87877236Y-98771646D01*
X87891266Y-98762281D01*
X87879511Y-98765355D01*
X87877276Y-98765804D01*
X87866465Y-98766793D01*
X87850409Y-98767315D01*
X87830497Y-98767406D01*
X87808122Y-98767101D01*
X87784673Y-98766438D01*
X87761541Y-98765451D01*
X87740117Y-98764177D01*
X87721791Y-98762652D01*
X87707955Y-98760912D01*
X87707041Y-98760761D01*
X87692467Y-98758137D01*
X87679456Y-98755459D01*
X87670727Y-98753283D01*
X87668316Y-98752513D01*
X87665558Y-98751199D01*
X87666356Y-98749977D01*
X87671571Y-98748559D01*
X87682066Y-98746660D01*
X87698702Y-98743992D01*
X87701808Y-98743501D01*
X87754998Y-98733968D01*
X87801602Y-98723339D01*
X87842037Y-98711492D01*
X87876719Y-98698307D01*
X87906063Y-98683661D01*
X87912476Y-98679906D01*
X87925577Y-98671855D01*
X87938082Y-98663734D01*
X87949178Y-98656129D01*
X87958052Y-98649624D01*
X87963890Y-98644804D01*
X87965879Y-98642255D01*
X87963206Y-98642561D01*
X87952540Y-98645887D01*
X87933424Y-98650410D01*
X87907937Y-98655262D01*
X87875706Y-98660520D01*
X87871320Y-98661158D01*
X87853952Y-98663195D01*
X87833885Y-98664973D01*
X87812343Y-98666444D01*
X87790551Y-98667565D01*
X87769732Y-98668288D01*
X87751111Y-98668568D01*
X87735912Y-98668360D01*
X87725359Y-98667618D01*
X87720676Y-98666297D01*
X87720122Y-98664558D01*
X87723970Y-98663221D01*
X87724915Y-98663206D01*
X87735870Y-98662072D01*
X87751500Y-98659403D01*
X87770053Y-98655584D01*
X87789773Y-98650995D01*
X87808909Y-98646019D01*
X87825706Y-98641039D01*
X87860144Y-98628903D01*
X87905649Y-98608922D01*
X87945542Y-98586075D01*
X87980328Y-98560016D01*
X88010509Y-98530403D01*
X88036590Y-98496889D01*
X88044389Y-98485423D01*
X88027480Y-98496587D01*
X88016944Y-98502535D01*
X87999550Y-98510569D01*
X87977991Y-98519335D01*
X87953690Y-98528348D01*
X87928065Y-98537124D01*
X87902539Y-98545181D01*
X87878530Y-98552034D01*
X87857459Y-98557199D01*
X87840747Y-98560192D01*
X87837249Y-98560603D01*
X87833073Y-98560787D01*
X87833572Y-98559695D01*
X87839274Y-98556893D01*
X87850706Y-98551942D01*
X87864484Y-98545599D01*
X87891281Y-98530873D01*
X87918073Y-98513355D01*
X87943804Y-98493924D01*
X87967422Y-98473461D01*
X87987874Y-98452846D01*
X88004106Y-98432957D01*
X88015064Y-98414675D01*
X88018439Y-98407400D01*
X88012423Y-98414097D01*
X88001813Y-98424005D01*
X87984860Y-98436547D01*
X87964101Y-98449629D01*
X87940993Y-98462401D01*
X87916995Y-98474009D01*
X87893563Y-98483601D01*
X87888989Y-98485263D01*
X87884066Y-98486843D01*
X87882808Y-98486552D01*
X87885588Y-98483933D01*
X87892782Y-98478526D01*
X87904763Y-98469874D01*
X87915439Y-98462038D01*
X87957814Y-98427340D01*
X87994173Y-98391326D01*
X88024331Y-98354279D01*
X88048104Y-98316485D01*
X88065306Y-98278226D01*
X88075755Y-98239788D01*
X88079263Y-98201454D01*
X88079263Y-98201432D01*
X88078426Y-98184362D01*
X88076150Y-98165775D01*
X88072752Y-98147389D01*
X88068549Y-98130922D01*
X88063860Y-98118094D01*
X88058904Y-98107379D01*
X88054695Y-98125486D01*
X88054137Y-98127854D01*
X88041240Y-98170903D01*
X88023232Y-98212866D01*
X87999771Y-98254279D01*
X87970516Y-98295683D01*
X87935128Y-98337614D01*
X87893265Y-98380612D01*
X87885924Y-98387665D01*
X87878267Y-98394881D01*
X87870415Y-98402077D01*
X87861790Y-98409750D01*
X87851812Y-98418395D01*
X87839903Y-98428509D01*
X87825482Y-98440586D01*
X87807971Y-98455125D01*
X87786791Y-98472620D01*
X87761362Y-98493567D01*
X87760935Y-98493918D01*
X87734583Y-98515944D01*
X87712743Y-98534998D01*
X87694739Y-98551771D01*
X87679893Y-98566954D01*
X87667530Y-98581239D01*
X87656972Y-98595317D01*
X87647544Y-98609880D01*
X87647049Y-98610702D01*
X87641204Y-98621142D01*
X87636165Y-98631896D01*
X87631587Y-98643963D01*
X87627125Y-98658344D01*
X87622435Y-98676038D01*
X87617172Y-98698045D01*
X87616320Y-98701699D01*
X87610222Y-98725620D01*
X87603973Y-98745682D01*
X87597062Y-98763196D01*
X87588981Y-98779472D01*
X87579223Y-98795820D01*
X87572630Y-98805460D01*
X87556152Y-98825285D01*
X87535678Y-98844797D01*
X87510537Y-98864547D01*
X87480056Y-98885084D01*
X87443563Y-98906959D01*
X87421442Y-98920053D01*
X87402983Y-98932283D01*
X87387898Y-98944279D01*
X87375120Y-98957117D01*
X87363581Y-98971876D01*
X87352213Y-98989631D01*
X87339949Y-99011460D01*
X87334438Y-99021530D01*
X87328887Y-99031349D01*
X87324719Y-99038351D01*
X87322563Y-99041456D01*
X87321872Y-99040673D01*
X87321080Y-99035689D01*
X87320536Y-99027127D01*
X87320328Y-99016008D01*
X87320151Y-99005957D01*
X87319008Y-98992907D01*
X87316496Y-98982001D01*
X87312260Y-98971279D01*
X87310848Y-98968366D01*
X87305883Y-98959314D01*
X87299918Y-98949575D01*
X87293719Y-98940269D01*
X87288053Y-98932517D01*
X87283688Y-98927440D01*
X87281389Y-98926160D01*
X87281343Y-98926320D01*
X87281481Y-98930100D01*
X87282179Y-98938238D01*
X87283355Y-98949920D01*
X87284929Y-98964330D01*
X87286818Y-98980654D01*
X87288646Y-98996254D01*
X87290850Y-99016405D01*
X87292284Y-99032466D01*
X87292923Y-99045186D01*
X87292740Y-99055318D01*
X87291711Y-99063613D01*
X87289811Y-99070822D01*
X87287013Y-99077697D01*
X87283293Y-99084989D01*
X87282504Y-99086431D01*
X87277215Y-99095284D01*
X87272599Y-99101750D01*
X87269580Y-99104516D01*
X87268142Y-99103953D01*
X87265850Y-99099570D01*
X87264223Y-99092119D01*
X87263948Y-99090459D01*
X87260105Y-99079211D01*
X87252213Y-99063745D01*
X87240235Y-99043984D01*
X87237870Y-99040244D01*
X87229841Y-99026866D01*
X87223086Y-99014584D01*
X87218254Y-99004628D01*
X87215996Y-98998223D01*
X87214411Y-98991622D01*
X87212302Y-98989275D01*
X87208880Y-98990500D01*
X87208285Y-98990891D01*
X87201497Y-98997552D01*
X87193802Y-99008345D01*
X87185709Y-99022256D01*
X87177727Y-99038273D01*
X87170364Y-99055382D01*
X87164127Y-99072570D01*
X87159527Y-99088825D01*
X87159348Y-99089604D01*
X87156751Y-99103370D01*
X87154847Y-99117962D01*
X87154036Y-99130346D01*
X87154002Y-99132371D01*
X87153488Y-99141327D01*
X87152407Y-99145160D01*
X87150712Y-99144059D01*
X87143525Y-99131229D01*
X87133249Y-99111656D01*
X87124331Y-99093191D01*
X87117361Y-99077069D01*
X87112926Y-99064530D01*
X87109666Y-99046646D01*
X87110111Y-99021273D01*
X87115593Y-98994458D01*
X87125861Y-98967323D01*
X87140662Y-98940992D01*
X87145137Y-98933975D01*
X87149257Y-98926067D01*
X87149394Y-98922561D01*
X87145516Y-98923454D01*
X87137592Y-98928739D01*
X87125588Y-98938412D01*
X87114238Y-98949293D01*
X87103433Y-98962872D01*
X87096235Y-98975958D01*
X87093598Y-98987097D01*
X87093563Y-98996218D01*
X87079923Y-98980400D01*
X87075800Y-98975920D01*
X87060381Y-98961995D01*
X87041205Y-98947607D01*
X87020245Y-98934160D01*
X86999471Y-98923061D01*
X86989801Y-98918067D01*
X86982361Y-98913343D01*
X86979449Y-98910248D01*
X86980245Y-98907241D01*
X86984369Y-98899788D01*
X86991362Y-98889658D01*
X87000502Y-98877876D01*
X87011064Y-98865468D01*
X87011423Y-98865071D01*
X87017316Y-98859207D01*
X87026313Y-98850948D01*
X87037554Y-98841015D01*
X87050181Y-98830128D01*
X87063335Y-98819005D01*
X87076158Y-98808367D01*
X87087792Y-98798934D01*
X87097378Y-98791425D01*
X87104057Y-98786561D01*
X87106971Y-98785060D01*
X87107008Y-98785239D01*
X87106221Y-98788932D01*
X87104094Y-98796634D01*
X87100904Y-98807369D01*
X87096930Y-98820163D01*
X87094356Y-98828290D01*
X87089173Y-98844685D01*
X87085454Y-98856718D01*
X87083089Y-98864997D01*
X87081969Y-98870128D01*
X87081987Y-98872719D01*
X87083033Y-98873377D01*
X87084998Y-98872710D01*
X87087775Y-98871324D01*
X87094178Y-98867237D01*
X87104321Y-98857990D01*
X87114497Y-98846067D01*
X87123511Y-98832916D01*
X87130165Y-98819984D01*
X87131859Y-98815518D01*
X87136155Y-98799018D01*
X87138151Y-98781701D01*
X87137845Y-98765039D01*
X87135234Y-98750504D01*
X87130315Y-98739566D01*
X87118895Y-98726684D01*
X87101320Y-98714854D01*
X87080209Y-98707603D01*
X87055956Y-98705115D01*
X87049253Y-98705271D01*
X87027773Y-98708617D01*
X87009985Y-98716424D01*
X86995649Y-98728828D01*
X86984527Y-98745967D01*
X86979781Y-98755638D01*
X86979572Y-98747602D01*
X86979930Y-98742441D01*
X86982237Y-98732227D01*
X86986038Y-98721484D01*
X86990597Y-98712165D01*
X86995178Y-98706223D01*
X86996402Y-98705345D01*
X87004570Y-98701510D01*
X87015108Y-98698336D01*
X87024651Y-98695196D01*
X87037215Y-98689565D01*
X87049556Y-98682808D01*
X87049628Y-98682764D01*
X87060931Y-98676121D01*
X87071216Y-98670518D01*
X87078264Y-98667165D01*
X87086810Y-98663840D01*
X87077195Y-98658167D01*
X87070729Y-98654946D01*
X87052542Y-98649318D01*
X87029931Y-98645764D01*
X87004522Y-98644588D01*
X86995725Y-98644748D01*
X86971635Y-98646935D01*
X86953130Y-98651833D01*
X86939623Y-98659648D01*
X86930523Y-98670588D01*
X86929892Y-98671675D01*
X86926097Y-98677090D01*
X86923362Y-98679294D01*
X86923050Y-98679054D01*
X86922424Y-98675223D01*
X86922431Y-98667692D01*
X86923086Y-98657719D01*
X86924275Y-98649025D01*
X86930708Y-98628732D01*
X86941771Y-98611874D01*
X86957183Y-98598936D01*
X86959040Y-98597863D01*
X86959746Y-98597536D01*
X87042120Y-98597536D01*
X87043039Y-98599563D01*
X87047560Y-98601781D01*
X87058131Y-98605442D01*
X87069532Y-98607429D01*
X87081740Y-98606914D01*
X87096515Y-98603800D01*
X87115621Y-98597988D01*
X87121270Y-98596417D01*
X87134758Y-98593727D01*
X87148856Y-98591894D01*
X87157417Y-98590882D01*
X87164445Y-98589356D01*
X87165981Y-98587886D01*
X87165490Y-98587623D01*
X87159473Y-98586066D01*
X87148738Y-98584214D01*
X87135228Y-98582412D01*
X87122067Y-98580997D01*
X87111796Y-98580491D01*
X87102473Y-98581158D01*
X87091531Y-98583187D01*
X87076402Y-98586770D01*
X87068321Y-98588765D01*
X87054026Y-98592519D01*
X87045537Y-98595315D01*
X87042120Y-98597536D01*
X86959746Y-98597536D01*
X86969964Y-98592803D01*
X86984416Y-98587332D01*
X86999784Y-98582461D01*
X87004280Y-98581173D01*
X87018378Y-98576674D01*
X87028833Y-98572054D01*
X87038195Y-98566004D01*
X87049016Y-98557214D01*
X87049808Y-98556541D01*
X87064017Y-98545773D01*
X87078873Y-98537465D01*
X87096001Y-98530994D01*
X87117023Y-98525740D01*
X87143563Y-98521083D01*
X87158604Y-98519013D01*
X87196364Y-98516227D01*
X87230401Y-98517589D01*
X87261387Y-98523152D01*
X87289992Y-98532972D01*
X87306063Y-98539930D01*
X87270349Y-98539481D01*
X87258316Y-98539458D01*
X87235533Y-98540507D01*
X87217619Y-98543309D01*
X87203154Y-98548148D01*
X87190723Y-98555304D01*
X87186541Y-98558390D01*
X87181126Y-98562988D01*
X87179639Y-98565271D01*
X87181001Y-98565709D01*
X87188134Y-98567426D01*
X87200263Y-98570119D01*
X87216174Y-98573522D01*
X87234652Y-98577366D01*
X87262403Y-98583411D01*
X87279850Y-98587886D01*
X87292813Y-98591211D01*
G37*
%TD*%
%LPC*%
D14*
%TO.C,H2*%
X125840000Y-82589900D03*
%TD*%
%TO.C,H3*%
X80094400Y-100371200D03*
%TD*%
D15*
%TO.C,J1*%
X82590400Y-88613000D03*
X82590400Y-94393000D03*
D16*
X83090400Y-87183000D03*
X78910400Y-87183000D03*
X83090400Y-95823000D03*
X78910400Y-95823000D03*
%TD*%
D17*
%TO.C,R1*%
X116415000Y-85085611D03*
X116415000Y-87635611D03*
D18*
X116415000Y-95255611D03*
X116415000Y-97805611D03*
%TD*%
D19*
%TO.C,J3*%
X91500000Y-94180000D03*
D20*
X91500000Y-93180000D03*
%TD*%
D17*
%TO.C,R2*%
X123200000Y-85140000D03*
X123200000Y-87680000D03*
D18*
X123200000Y-95300000D03*
X123200000Y-97840000D03*
%TD*%
D14*
%TO.C,H4*%
X125832900Y-100371200D03*
%TD*%
%TO.C,H1*%
X80154400Y-82651200D03*
%TD*%
%LPD*%
M02*
