%TF.GenerationSoftware,KiCad,Pcbnew,9.0.0*%
%TF.CreationDate,2025-09-15T11:44:44-06:00*%
%TF.ProjectId,Burnwing,4275726e-7769-46e6-972e-6b696361645f,Rev 1*%
%TF.SameCoordinates,Original*%
%TF.FileFunction,Copper,L2,Bot*%
%TF.FilePolarity,Positive*%
%FSLAX46Y46*%
G04 Gerber Fmt 4.6, Leading zero omitted, Abs format (unit mm)*
G04 Created by KiCad (PCBNEW 9.0.0) date 2025-09-15 11:44:44*
%MOMM*%
%LPD*%
G01*
G04 APERTURE LIST*
%TA.AperFunction,ComponentPad*%
%ADD10C,4.400000*%
%TD*%
%TA.AperFunction,ComponentPad*%
%ADD11O,2.000000X1.000000*%
%TD*%
%TA.AperFunction,ComponentPad*%
%ADD12C,1.600000*%
%TD*%
%TA.AperFunction,ComponentPad*%
%ADD13O,1.600000X1.600000*%
%TD*%
%TA.AperFunction,ComponentPad*%
%ADD14R,0.850000X0.850000*%
%TD*%
%TA.AperFunction,ComponentPad*%
%ADD15O,0.850000X0.850000*%
%TD*%
%TA.AperFunction,ViaPad*%
%ADD16C,0.600000*%
%TD*%
%TA.AperFunction,ViaPad*%
%ADD17C,0.800000*%
%TD*%
%TA.AperFunction,ViaPad*%
%ADD18C,0.800100*%
%TD*%
%TA.AperFunction,Conductor*%
%ADD19C,0.203200*%
%TD*%
G04 APERTURE END LIST*
D10*
%TO.P,H2,1,1*%
%TO.N,Net-(H2-Pad1)*%
X125840000Y-82589900D03*
%TD*%
%TO.P,H3,1,1*%
%TO.N,Net-(H3-Pad1)*%
X80094400Y-100371200D03*
%TD*%
D11*
%TO.P,J1,MP,MountPoint*%
%TO.N,GND*%
X83090400Y-87183000D03*
X78910400Y-87183000D03*
X83090400Y-95823000D03*
X78910400Y-95823000D03*
%TD*%
D12*
%TO.P,R1,1*%
%TO.N,VDC*%
X116415000Y-85085611D03*
X116415000Y-87635611D03*
D13*
%TO.P,R1,2*%
%TO.N,Net-(Q1-D1-Pad7)*%
X116415000Y-95255611D03*
X116415000Y-97805611D03*
%TD*%
D14*
%TO.P,J3,1,Pin_1*%
%TO.N,/SDA*%
X91500000Y-94180000D03*
D15*
%TO.P,J3,2,Pin_2*%
%TO.N,/SCL*%
X91500000Y-93180000D03*
%TD*%
D12*
%TO.P,R2,1*%
%TO.N,VDC*%
X123200000Y-85140000D03*
X123200000Y-87680000D03*
D13*
%TO.P,R2,2*%
%TO.N,Net-(Q1-D2-Pad5)*%
X123200000Y-95300000D03*
X123200000Y-97840000D03*
%TD*%
D10*
%TO.P,H4,1,1*%
%TO.N,Net-(H4-Pad1)*%
X125832900Y-100371200D03*
%TD*%
%TO.P,H1,1,1*%
%TO.N,Net-(H1-Pad1)*%
X80154400Y-82651200D03*
%TD*%
D16*
%TO.N,GND*%
X92230000Y-91080000D03*
X95210000Y-91100000D03*
X105890000Y-87710000D03*
X95210000Y-92800000D03*
X89950000Y-86875000D03*
X99090000Y-89200000D03*
X126270000Y-94930000D03*
X97610000Y-98580000D03*
X111390000Y-82270000D03*
X103600000Y-83260000D03*
X97670000Y-89200000D03*
X93820000Y-94480000D03*
X111400000Y-94690000D03*
X113790000Y-80830000D03*
X119380000Y-83820000D03*
X98380000Y-89200000D03*
X108900000Y-89200000D03*
X97610000Y-95180000D03*
X99000000Y-96900000D03*
X107600000Y-93200000D03*
X90925000Y-80625000D03*
X113030000Y-95820000D03*
X108900000Y-87360000D03*
X85200000Y-94200000D03*
X83700000Y-85700000D03*
X111390000Y-83970000D03*
X95550000Y-85090000D03*
X113800000Y-82260000D03*
X92250000Y-89400000D03*
X92840000Y-102110000D03*
X107600000Y-89200000D03*
X80800000Y-88600000D03*
X113800000Y-83960000D03*
X89960000Y-87707586D03*
X87250000Y-94200000D03*
X103015000Y-88580000D03*
X103660000Y-89240000D03*
X93820000Y-87680000D03*
X89000000Y-86867414D03*
X79600000Y-91500000D03*
X101075000Y-90400000D03*
X92925000Y-80625000D03*
X104600000Y-98600000D03*
X111410000Y-87370000D03*
X95210000Y-96200000D03*
X80800000Y-94400000D03*
X103210000Y-95180000D03*
X104630000Y-80850000D03*
X87320000Y-102099000D03*
X103670000Y-88590000D03*
X107575000Y-98575000D03*
X102330000Y-80840000D03*
X111420000Y-93200000D03*
X123000000Y-80850000D03*
X126280000Y-87940000D03*
X99000000Y-95200000D03*
X127580000Y-95910000D03*
X90180000Y-102110000D03*
X97610000Y-96880000D03*
X79600000Y-94400000D03*
X104600000Y-96900000D03*
X78400000Y-94400000D03*
X92250000Y-87710000D03*
X114520000Y-95840000D03*
X79600000Y-88600000D03*
X111390000Y-80820000D03*
X106760000Y-80850000D03*
X104600000Y-95200000D03*
X78400000Y-91500000D03*
X103005000Y-89230000D03*
X98390000Y-85080000D03*
X104280000Y-89230000D03*
X113820000Y-87380000D03*
X104420000Y-83330000D03*
X93820000Y-92780000D03*
X95000000Y-80650000D03*
X104290000Y-88580000D03*
X88875000Y-80650000D03*
X95210000Y-94500000D03*
X78400000Y-88600000D03*
X124520000Y-94900000D03*
X90240000Y-90225000D03*
X103210000Y-96880000D03*
X119400000Y-80850000D03*
X95260000Y-102110000D03*
X127620000Y-86915000D03*
X85190000Y-102109000D03*
X83700000Y-80900000D03*
X99860000Y-80840000D03*
X83700000Y-83300000D03*
X89000000Y-85525000D03*
X116380000Y-80840000D03*
X93820000Y-96180000D03*
X93820000Y-91080000D03*
X93820000Y-89380000D03*
X83750000Y-97350000D03*
X109517500Y-93200000D03*
X124510000Y-88001221D03*
X85200000Y-95800000D03*
X89010000Y-87700000D03*
X90000000Y-94200000D03*
X103210000Y-98580000D03*
X102860000Y-83320000D03*
X90240000Y-89420000D03*
X95210000Y-89400000D03*
X99000000Y-98600000D03*
X96970000Y-85090000D03*
X99850000Y-83200000D03*
X82690000Y-102109000D03*
D17*
%TO.N,/CC1*%
X85027744Y-92467100D03*
D18*
X85021271Y-90569950D03*
%TO.N,/D-*%
X82299000Y-90424000D03*
X82261000Y-91970350D03*
%TD*%
D19*
%TO.N,/CC1*%
X85021271Y-92318527D02*
X85021271Y-90569950D01*
X85250000Y-92467100D02*
X85250000Y-92325000D01*
X85250000Y-92325000D02*
X85243527Y-92318527D01*
%TO.N,/D-*%
X82299000Y-90424000D02*
X82261000Y-90462000D01*
X82299000Y-90562850D02*
X82299000Y-90424000D01*
X82261000Y-90462000D02*
X82261000Y-91970350D01*
X82300000Y-90563850D02*
X82299000Y-90562850D01*
%TD*%
%TA.AperFunction,Conductor*%
%TO.N,GND*%
G36*
X124622730Y-80250141D02*
G01*
X124689762Y-80269846D01*
X124735501Y-80322664D01*
X124745424Y-80391825D01*
X124716379Y-80455372D01*
X124679745Y-80483377D01*
X124680051Y-80483931D01*
X124677008Y-80485612D01*
X124448712Y-80629061D01*
X124237915Y-80797165D01*
X124047265Y-80987815D01*
X123879161Y-81198612D01*
X123735714Y-81426905D01*
X123618734Y-81669817D01*
X123529687Y-81924297D01*
X123529684Y-81924305D01*
X123469688Y-82187168D01*
X123469686Y-82187180D01*
X123439500Y-82455086D01*
X123439500Y-82724713D01*
X123469686Y-82992619D01*
X123469688Y-82992631D01*
X123529684Y-83255494D01*
X123529687Y-83255502D01*
X123618734Y-83509982D01*
X123735714Y-83752894D01*
X123778030Y-83820239D01*
X123879162Y-83981189D01*
X124047266Y-84191985D01*
X124237915Y-84382634D01*
X124448711Y-84550738D01*
X124677003Y-84694184D01*
X124919921Y-84811167D01*
X125085936Y-84869258D01*
X125174397Y-84900212D01*
X125174405Y-84900215D01*
X125174408Y-84900215D01*
X125174409Y-84900216D01*
X125437268Y-84960212D01*
X125705187Y-84990399D01*
X125705188Y-84990400D01*
X125705191Y-84990400D01*
X125974812Y-84990400D01*
X125974812Y-84990399D01*
X126242732Y-84960212D01*
X126505591Y-84900216D01*
X126760079Y-84811167D01*
X127002997Y-84694184D01*
X127231289Y-84550738D01*
X127442085Y-84382634D01*
X127632734Y-84191985D01*
X127800838Y-83981189D01*
X127943423Y-83754267D01*
X127995756Y-83707978D01*
X128064809Y-83697330D01*
X128128658Y-83725705D01*
X128167030Y-83784094D01*
X128172415Y-83820239D01*
X128172454Y-85921295D01*
X128172454Y-85957427D01*
X128172228Y-85964913D01*
X128155851Y-86235693D01*
X128154046Y-86250557D01*
X128105829Y-86513685D01*
X128102246Y-86528224D01*
X128022661Y-86783631D01*
X128017351Y-86797632D01*
X127907565Y-87041576D01*
X127900607Y-87054835D01*
X127762215Y-87283770D01*
X127753709Y-87296093D01*
X127588730Y-87506680D01*
X127578801Y-87517888D01*
X127389639Y-87707056D01*
X127378431Y-87716986D01*
X127167859Y-87881964D01*
X127155536Y-87890470D01*
X126926599Y-88028873D01*
X126913340Y-88035832D01*
X126669396Y-88145628D01*
X126655395Y-88150938D01*
X126399992Y-88230529D01*
X126385454Y-88234112D01*
X126122333Y-88282336D01*
X126107469Y-88284142D01*
X125837230Y-88300495D01*
X125829740Y-88300721D01*
X124471384Y-88300721D01*
X124420023Y-88300719D01*
X124362783Y-88300718D01*
X124346356Y-88300718D01*
X124279317Y-88281032D01*
X124233563Y-88228227D01*
X124233561Y-88228216D01*
X124222359Y-88176533D01*
X124222401Y-88148706D01*
X124225087Y-86344167D01*
X124225086Y-86344166D01*
X123511503Y-86348722D01*
X123444339Y-86329466D01*
X123398248Y-86276955D01*
X123387863Y-86207862D01*
X123416482Y-86144122D01*
X123475017Y-86105973D01*
X123486510Y-86103110D01*
X123491835Y-86102051D01*
X123673914Y-86026632D01*
X123837782Y-85917139D01*
X123977139Y-85777782D01*
X124086632Y-85613914D01*
X124162051Y-85431835D01*
X124200500Y-85238541D01*
X124200500Y-85041459D01*
X124200500Y-85041456D01*
X124162052Y-84848170D01*
X124162051Y-84848169D01*
X124162051Y-84848165D01*
X124139523Y-84793776D01*
X124086635Y-84666092D01*
X124086628Y-84666079D01*
X123977139Y-84502218D01*
X123977136Y-84502214D01*
X123837785Y-84362863D01*
X123837781Y-84362860D01*
X123673920Y-84253371D01*
X123673907Y-84253364D01*
X123491839Y-84177950D01*
X123491829Y-84177947D01*
X123298543Y-84139500D01*
X123298541Y-84139500D01*
X123101459Y-84139500D01*
X123101457Y-84139500D01*
X122908170Y-84177947D01*
X122908160Y-84177950D01*
X122726092Y-84253364D01*
X122726079Y-84253371D01*
X122562218Y-84362860D01*
X122562214Y-84362863D01*
X122422863Y-84502214D01*
X122422860Y-84502218D01*
X122313371Y-84666079D01*
X122313364Y-84666092D01*
X122237950Y-84848160D01*
X122237947Y-84848170D01*
X122199500Y-85041456D01*
X122199500Y-85041459D01*
X122199500Y-85238541D01*
X122199500Y-85238543D01*
X122199499Y-85238543D01*
X122237947Y-85431829D01*
X122237950Y-85431839D01*
X122313364Y-85613907D01*
X122313371Y-85613920D01*
X122422860Y-85777781D01*
X122422863Y-85777785D01*
X122562214Y-85917136D01*
X122562218Y-85917139D01*
X122726079Y-86026628D01*
X122726092Y-86026635D01*
X122869682Y-86086111D01*
X122908165Y-86102051D01*
X122932804Y-86106952D01*
X122994714Y-86139335D01*
X123029289Y-86200050D01*
X123025550Y-86269820D01*
X122984685Y-86326493D01*
X122919667Y-86352075D01*
X122909405Y-86352566D01*
X115480000Y-86399999D01*
X115470454Y-87278180D01*
X115461024Y-87324281D01*
X115452948Y-87343779D01*
X115452947Y-87343782D01*
X115414500Y-87537067D01*
X115414500Y-87734156D01*
X115444887Y-87886921D01*
X115438660Y-87956512D01*
X115395797Y-88011690D01*
X115329907Y-88034934D01*
X115323270Y-88035112D01*
X113366372Y-88035112D01*
X113366331Y-88035100D01*
X113314998Y-88035100D01*
X113220516Y-88035100D01*
X113139850Y-88047876D01*
X113033883Y-88064660D01*
X113033881Y-88064660D01*
X113033878Y-88064661D01*
X112854163Y-88123055D01*
X112854161Y-88123055D01*
X112854161Y-88123056D01*
X112685802Y-88208840D01*
X112685797Y-88208843D01*
X112685796Y-88208844D01*
X112652879Y-88232760D01*
X112532918Y-88319917D01*
X112399305Y-88453532D01*
X112288235Y-88606409D01*
X112202451Y-88774773D01*
X112202446Y-88774784D01*
X112144058Y-88954491D01*
X112144058Y-88954493D01*
X112114499Y-89141124D01*
X112114499Y-89141130D01*
X112114499Y-89141131D01*
X112114500Y-89195729D01*
X112114500Y-93698386D01*
X112114501Y-93698388D01*
X112116883Y-93710364D01*
X112115712Y-93710596D01*
X112121596Y-93740176D01*
X112121596Y-93752986D01*
X112145407Y-93903313D01*
X112151158Y-93939624D01*
X112209552Y-94119339D01*
X112295340Y-94287706D01*
X112406411Y-94440581D01*
X112540029Y-94574197D01*
X112692905Y-94685267D01*
X112811324Y-94745603D01*
X112861273Y-94771053D01*
X112861277Y-94771055D01*
X113040981Y-94829443D01*
X113040986Y-94829444D01*
X113040989Y-94829445D01*
X113100184Y-94838820D01*
X113227621Y-94859003D01*
X113227622Y-94859004D01*
X113227627Y-94859004D01*
X113282228Y-94859004D01*
X115262699Y-94859004D01*
X115329738Y-94878689D01*
X115375493Y-94931493D01*
X115386691Y-94984349D01*
X115370000Y-96520000D01*
X124210000Y-96480000D01*
X124212628Y-94714315D01*
X124215165Y-94705722D01*
X124213890Y-94696855D01*
X124224903Y-94672737D01*
X124232412Y-94647306D01*
X124239192Y-94641448D01*
X124242914Y-94633299D01*
X124265218Y-94618964D01*
X124285284Y-94601630D01*
X124295706Y-94599370D01*
X124301692Y-94595524D01*
X124336621Y-94590501D01*
X124420020Y-94590500D01*
X124420025Y-94590500D01*
X125793012Y-94590500D01*
X125829143Y-94590500D01*
X125836630Y-94590726D01*
X126107409Y-94607104D01*
X126122265Y-94608908D01*
X126385407Y-94657129D01*
X126399931Y-94660710D01*
X126655330Y-94740296D01*
X126669322Y-94745601D01*
X126855616Y-94829445D01*
X126913277Y-94855396D01*
X126926536Y-94862355D01*
X127155465Y-95000747D01*
X127167788Y-95009253D01*
X127378371Y-95174233D01*
X127389579Y-95184163D01*
X127578732Y-95373315D01*
X127588662Y-95384523D01*
X127753643Y-95595105D01*
X127762149Y-95607428D01*
X127900546Y-95836364D01*
X127907495Y-95849605D01*
X128017296Y-96093571D01*
X128022601Y-96107560D01*
X128102184Y-96362953D01*
X128105768Y-96377491D01*
X128153989Y-96640625D01*
X128155794Y-96655489D01*
X128172167Y-96926146D01*
X128172393Y-96933634D01*
X128172393Y-99153339D01*
X128152708Y-99220378D01*
X128099904Y-99266133D01*
X128030746Y-99276077D01*
X127967190Y-99247052D01*
X127939533Y-99210883D01*
X127938869Y-99211251D01*
X127937187Y-99208208D01*
X127902719Y-99153353D01*
X127793738Y-98979911D01*
X127625634Y-98769115D01*
X127434985Y-98578466D01*
X127224189Y-98410362D01*
X126995897Y-98266916D01*
X126995894Y-98266914D01*
X126752982Y-98149934D01*
X126498502Y-98060887D01*
X126498494Y-98060884D01*
X126301346Y-98015887D01*
X126235632Y-98000888D01*
X126235628Y-98000887D01*
X126235619Y-98000886D01*
X125967713Y-97970700D01*
X125967709Y-97970700D01*
X125698091Y-97970700D01*
X125698086Y-97970700D01*
X125430180Y-98000886D01*
X125430168Y-98000888D01*
X125167305Y-98060884D01*
X125167297Y-98060887D01*
X124912817Y-98149934D01*
X124669905Y-98266914D01*
X124441612Y-98410361D01*
X124230815Y-98578465D01*
X124040165Y-98769115D01*
X123872061Y-98979912D01*
X123728614Y-99208205D01*
X123611634Y-99451117D01*
X123522587Y-99705597D01*
X123522584Y-99705605D01*
X123462588Y-99968468D01*
X123462586Y-99968480D01*
X123432400Y-100236386D01*
X123432400Y-100506013D01*
X123462586Y-100773919D01*
X123462587Y-100773928D01*
X123462588Y-100773932D01*
X123477587Y-100839646D01*
X123522584Y-101036794D01*
X123522587Y-101036802D01*
X123611634Y-101291282D01*
X123728614Y-101534194D01*
X123728616Y-101534197D01*
X123872062Y-101762489D01*
X123997473Y-101919749D01*
X124029209Y-101959546D01*
X124040166Y-101973285D01*
X124230815Y-102163934D01*
X124441611Y-102332038D01*
X124669903Y-102475484D01*
X124669908Y-102475487D01*
X124672951Y-102477169D01*
X124672394Y-102478176D01*
X124720711Y-102521798D01*
X124739026Y-102589224D01*
X124717980Y-102655849D01*
X124664256Y-102700519D01*
X124615052Y-102710699D01*
X81312248Y-102710699D01*
X81245209Y-102691014D01*
X81199454Y-102638210D01*
X81189510Y-102569052D01*
X81218535Y-102505496D01*
X81254715Y-102477832D01*
X81254349Y-102477169D01*
X81257391Y-102475487D01*
X81257391Y-102475486D01*
X81257397Y-102475484D01*
X81485689Y-102332038D01*
X81696485Y-102163934D01*
X81887134Y-101973285D01*
X82055238Y-101762489D01*
X82198684Y-101534197D01*
X82315667Y-101291279D01*
X82404716Y-101036791D01*
X82464712Y-100773932D01*
X82494900Y-100506009D01*
X82494900Y-100236391D01*
X82464712Y-99968468D01*
X82404716Y-99705609D01*
X82315667Y-99451121D01*
X82198684Y-99208203D01*
X82055238Y-98979911D01*
X81887134Y-98769115D01*
X81696485Y-98578466D01*
X81485689Y-98410362D01*
X81257397Y-98266916D01*
X81257394Y-98266914D01*
X81014482Y-98149934D01*
X80760002Y-98060887D01*
X80759994Y-98060884D01*
X80562846Y-98015887D01*
X80497132Y-98000888D01*
X80497128Y-98000887D01*
X80497119Y-98000886D01*
X80229213Y-97970700D01*
X80229209Y-97970700D01*
X79959591Y-97970700D01*
X79959586Y-97970700D01*
X79691680Y-98000886D01*
X79691668Y-98000888D01*
X79428805Y-98060884D01*
X79428797Y-98060887D01*
X79174317Y-98149934D01*
X78931405Y-98266914D01*
X78703112Y-98410361D01*
X78492315Y-98578465D01*
X78301665Y-98769115D01*
X78133561Y-98979912D01*
X77990112Y-99208208D01*
X77988431Y-99211251D01*
X77987428Y-99210697D01*
X77943780Y-99259025D01*
X77876350Y-99277327D01*
X77809729Y-99256268D01*
X77765070Y-99202534D01*
X77754900Y-99153353D01*
X77754900Y-97904154D01*
X115414499Y-97904154D01*
X115452947Y-98097440D01*
X115452950Y-98097450D01*
X115528364Y-98279518D01*
X115528371Y-98279531D01*
X115637860Y-98443392D01*
X115637863Y-98443396D01*
X115777214Y-98582747D01*
X115777218Y-98582750D01*
X115941079Y-98692239D01*
X115941092Y-98692246D01*
X116024116Y-98726635D01*
X116123165Y-98767662D01*
X116123169Y-98767662D01*
X116123170Y-98767663D01*
X116316456Y-98806111D01*
X116316459Y-98806111D01*
X116513543Y-98806111D01*
X116643582Y-98780243D01*
X116706835Y-98767662D01*
X116888914Y-98692243D01*
X117052782Y-98582750D01*
X117192139Y-98443393D01*
X117301632Y-98279525D01*
X117377051Y-98097446D01*
X117408659Y-97938543D01*
X122199499Y-97938543D01*
X122237947Y-98131829D01*
X122237950Y-98131839D01*
X122313364Y-98313907D01*
X122313371Y-98313920D01*
X122422860Y-98477781D01*
X122422863Y-98477785D01*
X122562214Y-98617136D01*
X122562218Y-98617139D01*
X122726079Y-98726628D01*
X122726092Y-98726635D01*
X122908160Y-98802049D01*
X122908165Y-98802051D01*
X122908169Y-98802051D01*
X122908170Y-98802052D01*
X123101456Y-98840500D01*
X123101459Y-98840500D01*
X123298543Y-98840500D01*
X123471424Y-98806111D01*
X123491835Y-98802051D01*
X123673914Y-98726632D01*
X123837782Y-98617139D01*
X123977139Y-98477782D01*
X124086632Y-98313914D01*
X124162051Y-98131835D01*
X124200500Y-97938541D01*
X124200500Y-97741459D01*
X124200500Y-97741456D01*
X124162052Y-97548170D01*
X124162051Y-97548169D01*
X124162051Y-97548165D01*
X124147805Y-97513771D01*
X124086635Y-97366092D01*
X124086628Y-97366079D01*
X123977139Y-97202218D01*
X123977136Y-97202214D01*
X123837785Y-97062863D01*
X123837781Y-97062860D01*
X123673920Y-96953371D01*
X123673907Y-96953364D01*
X123491839Y-96877950D01*
X123491829Y-96877947D01*
X123298543Y-96839500D01*
X123298541Y-96839500D01*
X123101459Y-96839500D01*
X123101457Y-96839500D01*
X122908170Y-96877947D01*
X122908160Y-96877950D01*
X122726092Y-96953364D01*
X122726079Y-96953371D01*
X122562218Y-97062860D01*
X122562214Y-97062863D01*
X122422863Y-97202214D01*
X122422860Y-97202218D01*
X122313371Y-97366079D01*
X122313364Y-97366092D01*
X122237950Y-97548160D01*
X122237947Y-97548170D01*
X122199500Y-97741456D01*
X122199500Y-97741459D01*
X122199500Y-97938541D01*
X122199500Y-97938543D01*
X122199499Y-97938543D01*
X117408659Y-97938543D01*
X117415500Y-97904152D01*
X117415500Y-97707070D01*
X117415500Y-97707067D01*
X117377052Y-97513781D01*
X117377051Y-97513780D01*
X117377051Y-97513776D01*
X117315879Y-97366092D01*
X117301635Y-97331703D01*
X117301628Y-97331690D01*
X117192139Y-97167829D01*
X117192136Y-97167825D01*
X117052785Y-97028474D01*
X117052781Y-97028471D01*
X116888920Y-96918982D01*
X116888907Y-96918975D01*
X116706839Y-96843561D01*
X116706829Y-96843558D01*
X116513543Y-96805111D01*
X116513541Y-96805111D01*
X116316459Y-96805111D01*
X116316457Y-96805111D01*
X116123170Y-96843558D01*
X116123160Y-96843561D01*
X115941092Y-96918975D01*
X115941079Y-96918982D01*
X115777218Y-97028471D01*
X115777214Y-97028474D01*
X115637863Y-97167825D01*
X115637860Y-97167829D01*
X115528371Y-97331690D01*
X115528364Y-97331703D01*
X115452950Y-97513771D01*
X115452947Y-97513781D01*
X115414500Y-97707067D01*
X115414500Y-97707070D01*
X115414500Y-97904152D01*
X115414500Y-97904154D01*
X115414499Y-97904154D01*
X77754900Y-97904154D01*
X77754900Y-96818885D01*
X77774585Y-96751846D01*
X77827389Y-96706091D01*
X77896547Y-96696147D01*
X77930868Y-96707400D01*
X77931093Y-96706858D01*
X78118706Y-96784569D01*
X78118718Y-96784572D01*
X78311904Y-96822999D01*
X78311908Y-96823000D01*
X78660400Y-96823000D01*
X79160400Y-96823000D01*
X79508892Y-96823000D01*
X79508895Y-96822999D01*
X79702081Y-96784572D01*
X79702093Y-96784569D01*
X79884071Y-96709192D01*
X79884084Y-96709185D01*
X80047862Y-96599751D01*
X80047866Y-96599748D01*
X80187148Y-96460466D01*
X80187151Y-96460462D01*
X80296585Y-96296684D01*
X80296592Y-96296671D01*
X80371969Y-96114692D01*
X80371969Y-96114690D01*
X80380262Y-96073000D01*
X81620538Y-96073000D01*
X81628830Y-96114690D01*
X81628830Y-96114692D01*
X81704207Y-96296671D01*
X81704214Y-96296684D01*
X81813648Y-96460462D01*
X81813651Y-96460466D01*
X81952933Y-96599748D01*
X81952937Y-96599751D01*
X82116715Y-96709185D01*
X82116728Y-96709192D01*
X82298706Y-96784569D01*
X82298718Y-96784572D01*
X82491904Y-96822999D01*
X82491908Y-96823000D01*
X82840400Y-96823000D01*
X83340400Y-96823000D01*
X83688892Y-96823000D01*
X83688895Y-96822999D01*
X83882081Y-96784572D01*
X83882093Y-96784569D01*
X84064071Y-96709192D01*
X84064084Y-96709185D01*
X84227862Y-96599751D01*
X84227866Y-96599748D01*
X84367148Y-96460466D01*
X84367151Y-96460462D01*
X84476585Y-96296684D01*
X84476592Y-96296671D01*
X84551969Y-96114692D01*
X84551969Y-96114690D01*
X84560262Y-96073000D01*
X83340400Y-96073000D01*
X83340400Y-96823000D01*
X82840400Y-96823000D01*
X82840400Y-96073000D01*
X81620538Y-96073000D01*
X80380262Y-96073000D01*
X79160400Y-96073000D01*
X79160400Y-96823000D01*
X78660400Y-96823000D01*
X78660400Y-95989988D01*
X78670340Y-96007205D01*
X78726195Y-96063060D01*
X78794604Y-96102556D01*
X78870904Y-96123000D01*
X78949896Y-96123000D01*
X79026196Y-96102556D01*
X79094605Y-96063060D01*
X79150460Y-96007205D01*
X79189956Y-95938796D01*
X79210400Y-95862496D01*
X79210400Y-95783504D01*
X82790400Y-95783504D01*
X82790400Y-95862496D01*
X82810844Y-95938796D01*
X82850340Y-96007205D01*
X82906195Y-96063060D01*
X82974604Y-96102556D01*
X83050904Y-96123000D01*
X83129896Y-96123000D01*
X83206196Y-96102556D01*
X83274605Y-96063060D01*
X83330460Y-96007205D01*
X83369956Y-95938796D01*
X83390400Y-95862496D01*
X83390400Y-95783504D01*
X83369956Y-95707204D01*
X83330460Y-95638795D01*
X83274605Y-95582940D01*
X83257388Y-95573000D01*
X83340400Y-95573000D01*
X84560262Y-95573000D01*
X84551969Y-95531309D01*
X84551969Y-95531307D01*
X84476592Y-95349328D01*
X84476585Y-95349315D01*
X84367151Y-95185537D01*
X84367148Y-95185533D01*
X84227866Y-95046251D01*
X84227862Y-95046248D01*
X84064084Y-94936814D01*
X84064071Y-94936807D01*
X83882093Y-94861430D01*
X83882081Y-94861427D01*
X83688895Y-94823000D01*
X83340400Y-94823000D01*
X83340400Y-95573000D01*
X83257388Y-95573000D01*
X83206196Y-95543444D01*
X83129896Y-95523000D01*
X83050904Y-95523000D01*
X82974604Y-95543444D01*
X82906195Y-95582940D01*
X82850340Y-95638795D01*
X82810844Y-95707204D01*
X82790400Y-95783504D01*
X79210400Y-95783504D01*
X79189956Y-95707204D01*
X79150460Y-95638795D01*
X79094605Y-95582940D01*
X79077388Y-95573000D01*
X79160400Y-95573000D01*
X80380262Y-95573000D01*
X81620538Y-95573000D01*
X82840400Y-95573000D01*
X82840400Y-94927049D01*
X82860085Y-94860010D01*
X82877270Y-94838820D01*
X82888603Y-94827627D01*
X82913065Y-94813505D01*
X83010905Y-94715665D01*
X83080088Y-94595836D01*
X83115900Y-94462183D01*
X83115900Y-94323817D01*
X83080088Y-94190164D01*
X83010905Y-94070335D01*
X82913065Y-93972495D01*
X82913064Y-93972494D01*
X82913061Y-93972492D01*
X82793238Y-93903313D01*
X82793237Y-93903312D01*
X82793236Y-93903312D01*
X82659583Y-93867500D01*
X82521217Y-93867500D01*
X82387564Y-93903312D01*
X82387561Y-93903313D01*
X82267738Y-93972492D01*
X82267733Y-93972496D01*
X82169896Y-94070333D01*
X82169892Y-94070338D01*
X82100713Y-94190161D01*
X82100712Y-94190164D01*
X82064900Y-94323817D01*
X82064900Y-94462183D01*
X82100629Y-94595524D01*
X82100712Y-94595835D01*
X82100713Y-94595838D01*
X82169892Y-94715661D01*
X82169896Y-94715666D01*
X82179470Y-94725240D01*
X82212955Y-94786563D01*
X82207971Y-94856255D01*
X82166099Y-94912188D01*
X82139244Y-94927481D01*
X82116727Y-94936808D01*
X82116715Y-94936814D01*
X81952937Y-95046248D01*
X81952933Y-95046251D01*
X81813651Y-95185533D01*
X81813648Y-95185537D01*
X81704214Y-95349315D01*
X81704207Y-95349328D01*
X81628830Y-95531307D01*
X81628830Y-95531309D01*
X81620538Y-95573000D01*
X80380262Y-95573000D01*
X80371969Y-95531309D01*
X80371969Y-95531307D01*
X80296592Y-95349328D01*
X80296585Y-95349315D01*
X80187151Y-95185537D01*
X80187148Y-95185533D01*
X80047866Y-95046251D01*
X80047862Y-95046248D01*
X79884084Y-94936814D01*
X79884071Y-94936807D01*
X79702093Y-94861430D01*
X79702081Y-94861427D01*
X79508895Y-94823000D01*
X79160400Y-94823000D01*
X79160400Y-95573000D01*
X79077388Y-95573000D01*
X79026196Y-95543444D01*
X78949896Y-95523000D01*
X78870904Y-95523000D01*
X78794604Y-95543444D01*
X78726195Y-95582940D01*
X78670340Y-95638795D01*
X78660400Y-95656011D01*
X78660400Y-94823000D01*
X78311904Y-94823000D01*
X78118718Y-94861427D01*
X78118706Y-94861430D01*
X77931093Y-94939142D01*
X77930573Y-94937888D01*
X77868928Y-94950712D01*
X77803689Y-94925700D01*
X77762328Y-94869388D01*
X77754900Y-94827114D01*
X77754900Y-93118389D01*
X90874500Y-93118389D01*
X90874500Y-93241610D01*
X90898535Y-93362444D01*
X90898538Y-93362454D01*
X90948020Y-93481914D01*
X90945876Y-93482801D01*
X90957997Y-93541128D01*
X90935694Y-93599265D01*
X90937233Y-93600293D01*
X90886132Y-93676769D01*
X90886131Y-93676770D01*
X90874500Y-93735247D01*
X90874500Y-94624752D01*
X90886131Y-94683229D01*
X90886132Y-94683230D01*
X90930447Y-94749552D01*
X90996769Y-94793867D01*
X90996770Y-94793868D01*
X91055247Y-94805499D01*
X91055250Y-94805500D01*
X91055252Y-94805500D01*
X91944750Y-94805500D01*
X91944751Y-94805499D01*
X91959568Y-94802552D01*
X92003229Y-94793868D01*
X92003229Y-94793867D01*
X92003231Y-94793867D01*
X92069552Y-94749552D01*
X92113867Y-94683231D01*
X92113867Y-94683229D01*
X92113868Y-94683229D01*
X92125499Y-94624752D01*
X92125500Y-94624750D01*
X92125500Y-93735249D01*
X92125499Y-93735247D01*
X92113868Y-93676770D01*
X92113867Y-93676769D01*
X92062767Y-93600293D01*
X92066458Y-93597826D01*
X92044432Y-93557489D01*
X92049416Y-93487797D01*
X92052057Y-93481945D01*
X92051980Y-93481914D01*
X92059633Y-93463436D01*
X92101463Y-93362452D01*
X92125500Y-93241606D01*
X92125500Y-93118394D01*
X92101463Y-92997548D01*
X92054311Y-92883714D01*
X92054310Y-92883713D01*
X92054307Y-92883707D01*
X91985858Y-92781267D01*
X91985855Y-92781263D01*
X91898736Y-92694144D01*
X91898732Y-92694141D01*
X91796292Y-92625692D01*
X91796283Y-92625687D01*
X91682454Y-92578538D01*
X91682455Y-92578538D01*
X91682452Y-92578537D01*
X91682448Y-92578536D01*
X91682444Y-92578535D01*
X91561610Y-92554500D01*
X91561606Y-92554500D01*
X91438394Y-92554500D01*
X91438389Y-92554500D01*
X91317555Y-92578535D01*
X91317545Y-92578538D01*
X91203716Y-92625687D01*
X91203707Y-92625692D01*
X91101267Y-92694141D01*
X91101263Y-92694144D01*
X91014144Y-92781263D01*
X91014141Y-92781267D01*
X90945692Y-92883707D01*
X90945687Y-92883716D01*
X90898538Y-92997545D01*
X90898535Y-92997555D01*
X90874500Y-93118389D01*
X77754900Y-93118389D01*
X77754900Y-91891286D01*
X81660450Y-91891286D01*
X81660450Y-92049414D01*
X81689276Y-92156992D01*
X81701377Y-92202155D01*
X81701378Y-92202156D01*
X81780437Y-92339092D01*
X81780439Y-92339095D01*
X81780440Y-92339096D01*
X81892254Y-92450910D01*
X82029196Y-92529973D01*
X82181936Y-92570900D01*
X82181939Y-92570900D01*
X82340061Y-92570900D01*
X82340064Y-92570900D01*
X82492804Y-92529973D01*
X82629746Y-92450910D01*
X82741560Y-92339096D01*
X82820623Y-92202154D01*
X82861550Y-92049414D01*
X82861550Y-91891286D01*
X82840456Y-91812566D01*
X82838373Y-91801742D01*
X82835983Y-91795870D01*
X82820623Y-91738546D01*
X82797851Y-91699104D01*
X82790391Y-91683857D01*
X82771021Y-91636268D01*
X82615882Y-91255113D01*
X82608842Y-91185600D01*
X82618589Y-91155456D01*
X82813185Y-90743049D01*
X82813965Y-90740357D01*
X82825678Y-90712863D01*
X82858623Y-90655804D01*
X82899550Y-90503064D01*
X82899550Y-90490886D01*
X84420721Y-90490886D01*
X84420721Y-90490888D01*
X84420721Y-90649015D01*
X84440663Y-90723442D01*
X84441815Y-90727744D01*
X84443897Y-90738554D01*
X84446282Y-90744415D01*
X84448286Y-90751893D01*
X84448287Y-90751895D01*
X84461647Y-90801752D01*
X84461650Y-90801758D01*
X84484417Y-90841193D01*
X84491880Y-90856444D01*
X84710022Y-91392389D01*
X84711539Y-91400141D01*
X84714148Y-91404201D01*
X84719171Y-91439136D01*
X84719171Y-91599069D01*
X84710384Y-91644917D01*
X84494893Y-92186425D01*
X84487070Y-92202572D01*
X84468169Y-92235312D01*
X84468164Y-92235323D01*
X84455055Y-92284247D01*
X84453177Y-92291257D01*
X84449677Y-92300054D01*
X84443633Y-92317479D01*
X84443034Y-92319494D01*
X84441152Y-92326246D01*
X84440812Y-92337405D01*
X84427244Y-92388043D01*
X84427244Y-92546157D01*
X84466897Y-92694142D01*
X84468167Y-92698883D01*
X84468170Y-92698890D01*
X84547219Y-92835809D01*
X84547223Y-92835814D01*
X84547224Y-92835816D01*
X84659028Y-92947620D01*
X84659030Y-92947621D01*
X84659034Y-92947624D01*
X84758263Y-93004913D01*
X84795960Y-93026677D01*
X84948687Y-93067600D01*
X84948689Y-93067600D01*
X85106799Y-93067600D01*
X85106801Y-93067600D01*
X85259528Y-93026677D01*
X85396460Y-92947620D01*
X85508264Y-92835816D01*
X85587321Y-92698884D01*
X85628244Y-92546157D01*
X85628244Y-92388043D01*
X85587321Y-92235316D01*
X85558173Y-92184830D01*
X85546973Y-92159061D01*
X85546341Y-92156992D01*
X85332904Y-91644581D01*
X85331242Y-91636268D01*
X85328394Y-91631837D01*
X85323371Y-91596902D01*
X85323371Y-91439135D01*
X85332520Y-91392388D01*
X85550666Y-90856428D01*
X85558123Y-90841193D01*
X85580894Y-90801754D01*
X85596255Y-90744423D01*
X85598644Y-90738556D01*
X85605062Y-90720393D01*
X85605695Y-90718293D01*
X85607802Y-90710790D01*
X85608126Y-90700120D01*
X85621821Y-90649014D01*
X85621821Y-90490886D01*
X85580894Y-90338146D01*
X85501831Y-90201204D01*
X85390017Y-90089390D01*
X85390016Y-90089389D01*
X85390013Y-90089387D01*
X85253077Y-90010328D01*
X85253076Y-90010327D01*
X85214890Y-90000095D01*
X85100335Y-89969400D01*
X84942207Y-89969400D01*
X84850563Y-89993956D01*
X84789465Y-90010327D01*
X84789464Y-90010328D01*
X84652528Y-90089387D01*
X84652523Y-90089391D01*
X84540712Y-90201202D01*
X84540708Y-90201207D01*
X84461649Y-90338143D01*
X84461648Y-90338144D01*
X84459828Y-90344938D01*
X84420721Y-90490886D01*
X82899550Y-90490886D01*
X82899550Y-90344936D01*
X82858623Y-90192196D01*
X82779560Y-90055254D01*
X82667746Y-89943440D01*
X82667745Y-89943439D01*
X82667742Y-89943437D01*
X82530806Y-89864378D01*
X82530805Y-89864377D01*
X82492619Y-89854145D01*
X82378064Y-89823450D01*
X82219936Y-89823450D01*
X82128292Y-89848006D01*
X82067194Y-89864377D01*
X82067193Y-89864378D01*
X81930257Y-89943437D01*
X81930252Y-89943441D01*
X81818441Y-90055252D01*
X81818437Y-90055257D01*
X81739378Y-90192193D01*
X81739377Y-90192194D01*
X81736963Y-90201204D01*
X81698450Y-90344936D01*
X81698450Y-90344938D01*
X81698450Y-90503068D01*
X81712513Y-90555553D01*
X81714412Y-90562640D01*
X81717403Y-90583302D01*
X81727892Y-90612948D01*
X81729149Y-90617636D01*
X81729151Y-90617643D01*
X81739376Y-90655801D01*
X81739379Y-90655808D01*
X81743176Y-90662385D01*
X81752686Y-90683021D01*
X81916598Y-91146276D01*
X81920403Y-91216042D01*
X81914551Y-91234385D01*
X81731603Y-91683865D01*
X81728393Y-91691749D01*
X81701377Y-91738546D01*
X81686020Y-91795857D01*
X81683633Y-91801722D01*
X81683626Y-91801742D01*
X81683623Y-91801750D01*
X81677190Y-91819965D01*
X81677185Y-91819979D01*
X81677183Y-91819987D01*
X81676572Y-91822014D01*
X81674465Y-91829518D01*
X81673324Y-91836968D01*
X81672944Y-91836909D01*
X81672006Y-91843282D01*
X81671430Y-91850030D01*
X81670953Y-91852082D01*
X81660450Y-91891286D01*
X77754900Y-91891286D01*
X77754900Y-88178885D01*
X77774585Y-88111846D01*
X77827389Y-88066091D01*
X77896547Y-88056147D01*
X77930868Y-88067400D01*
X77931093Y-88066858D01*
X78118706Y-88144569D01*
X78118718Y-88144572D01*
X78311904Y-88182999D01*
X78311908Y-88183000D01*
X78660400Y-88183000D01*
X79160400Y-88183000D01*
X79508892Y-88183000D01*
X79508895Y-88182999D01*
X79702081Y-88144572D01*
X79702093Y-88144569D01*
X79884071Y-88069192D01*
X79884084Y-88069185D01*
X80047862Y-87959751D01*
X80047866Y-87959748D01*
X80187148Y-87820466D01*
X80187151Y-87820462D01*
X80296585Y-87656684D01*
X80296592Y-87656671D01*
X80371969Y-87474692D01*
X80371969Y-87474690D01*
X80380262Y-87433000D01*
X81620538Y-87433000D01*
X81628830Y-87474690D01*
X81628830Y-87474692D01*
X81704207Y-87656671D01*
X81704214Y-87656684D01*
X81813648Y-87820462D01*
X81813651Y-87820466D01*
X81952933Y-87959748D01*
X81952937Y-87959751D01*
X82116715Y-88069185D01*
X82116727Y-88069192D01*
X82139241Y-88078517D01*
X82193645Y-88122357D01*
X82215710Y-88188651D01*
X82198431Y-88256351D01*
X82179473Y-88280756D01*
X82169897Y-88290332D01*
X82169892Y-88290338D01*
X82100713Y-88410161D01*
X82100712Y-88410164D01*
X82064900Y-88543817D01*
X82064900Y-88682183D01*
X82089710Y-88774773D01*
X82100712Y-88815835D01*
X82100713Y-88815838D01*
X82169892Y-88935661D01*
X82169894Y-88935664D01*
X82169895Y-88935665D01*
X82267735Y-89033505D01*
X82387564Y-89102688D01*
X82521217Y-89138500D01*
X82521219Y-89138500D01*
X82659581Y-89138500D01*
X82659583Y-89138500D01*
X82793236Y-89102688D01*
X82913065Y-89033505D01*
X83010905Y-88935665D01*
X83080088Y-88815836D01*
X83115900Y-88682183D01*
X83115900Y-88543817D01*
X83080088Y-88410164D01*
X83026353Y-88317091D01*
X83010907Y-88290338D01*
X83010903Y-88290333D01*
X82913064Y-88192494D01*
X82902399Y-88186337D01*
X82899217Y-88183000D01*
X83340400Y-88183000D01*
X83688892Y-88183000D01*
X83688895Y-88182999D01*
X83882081Y-88144572D01*
X83882093Y-88144569D01*
X84064071Y-88069192D01*
X84064084Y-88069185D01*
X84227862Y-87959751D01*
X84227866Y-87959748D01*
X84367148Y-87820466D01*
X84367151Y-87820462D01*
X84476585Y-87656684D01*
X84476592Y-87656671D01*
X84551969Y-87474692D01*
X84551969Y-87474690D01*
X84560262Y-87433000D01*
X83340400Y-87433000D01*
X83340400Y-88183000D01*
X82899217Y-88183000D01*
X82854184Y-88135769D01*
X82840400Y-88078950D01*
X82840400Y-87433000D01*
X81620538Y-87433000D01*
X80380262Y-87433000D01*
X79160400Y-87433000D01*
X79160400Y-88183000D01*
X78660400Y-88183000D01*
X78660400Y-87349988D01*
X78670340Y-87367205D01*
X78726195Y-87423060D01*
X78794604Y-87462556D01*
X78870904Y-87483000D01*
X78949896Y-87483000D01*
X79026196Y-87462556D01*
X79094605Y-87423060D01*
X79150460Y-87367205D01*
X79189956Y-87298796D01*
X79210400Y-87222496D01*
X79210400Y-87143504D01*
X82790400Y-87143504D01*
X82790400Y-87222496D01*
X82810844Y-87298796D01*
X82850340Y-87367205D01*
X82906195Y-87423060D01*
X82974604Y-87462556D01*
X83050904Y-87483000D01*
X83129896Y-87483000D01*
X83206196Y-87462556D01*
X83274605Y-87423060D01*
X83330460Y-87367205D01*
X83369956Y-87298796D01*
X83390400Y-87222496D01*
X83390400Y-87143504D01*
X83369956Y-87067204D01*
X83330460Y-86998795D01*
X83274605Y-86942940D01*
X83257388Y-86933000D01*
X83340400Y-86933000D01*
X84560262Y-86933000D01*
X84551969Y-86891309D01*
X84551969Y-86891307D01*
X84476592Y-86709328D01*
X84476585Y-86709315D01*
X84367151Y-86545537D01*
X84367148Y-86545533D01*
X84227866Y-86406251D01*
X84227862Y-86406248D01*
X84064084Y-86296814D01*
X84064071Y-86296807D01*
X83882093Y-86221430D01*
X83882081Y-86221427D01*
X83688895Y-86183000D01*
X83340400Y-86183000D01*
X83340400Y-86933000D01*
X83257388Y-86933000D01*
X83206196Y-86903444D01*
X83129896Y-86883000D01*
X83050904Y-86883000D01*
X82974604Y-86903444D01*
X82906195Y-86942940D01*
X82850340Y-86998795D01*
X82810844Y-87067204D01*
X82790400Y-87143504D01*
X79210400Y-87143504D01*
X79189956Y-87067204D01*
X79150460Y-86998795D01*
X79094605Y-86942940D01*
X79077388Y-86933000D01*
X79160400Y-86933000D01*
X80380262Y-86933000D01*
X81620538Y-86933000D01*
X82840400Y-86933000D01*
X82840400Y-86183000D01*
X82491904Y-86183000D01*
X82298718Y-86221427D01*
X82298706Y-86221430D01*
X82116728Y-86296807D01*
X82116715Y-86296814D01*
X81952937Y-86406248D01*
X81952933Y-86406251D01*
X81813651Y-86545533D01*
X81813648Y-86545537D01*
X81704214Y-86709315D01*
X81704207Y-86709328D01*
X81628830Y-86891307D01*
X81628830Y-86891309D01*
X81620538Y-86933000D01*
X80380262Y-86933000D01*
X80371969Y-86891309D01*
X80371969Y-86891307D01*
X80296592Y-86709328D01*
X80296585Y-86709315D01*
X80187151Y-86545537D01*
X80187148Y-86545533D01*
X80047866Y-86406251D01*
X80047862Y-86406248D01*
X79884084Y-86296814D01*
X79884071Y-86296807D01*
X79702093Y-86221430D01*
X79702081Y-86221427D01*
X79508895Y-86183000D01*
X79160400Y-86183000D01*
X79160400Y-86933000D01*
X79077388Y-86933000D01*
X79026196Y-86903444D01*
X78949896Y-86883000D01*
X78870904Y-86883000D01*
X78794604Y-86903444D01*
X78726195Y-86942940D01*
X78670340Y-86998795D01*
X78660400Y-87016011D01*
X78660400Y-86183000D01*
X78311904Y-86183000D01*
X78118718Y-86221427D01*
X78118706Y-86221430D01*
X77931093Y-86299142D01*
X77930573Y-86297888D01*
X77868928Y-86310712D01*
X77803689Y-86285700D01*
X77762328Y-86229388D01*
X77754900Y-86187114D01*
X77754900Y-85184154D01*
X115414499Y-85184154D01*
X115452947Y-85377440D01*
X115452950Y-85377450D01*
X115528364Y-85559518D01*
X115528371Y-85559531D01*
X115637860Y-85723392D01*
X115637863Y-85723396D01*
X115777214Y-85862747D01*
X115777218Y-85862750D01*
X115941079Y-85972239D01*
X115941092Y-85972246D01*
X116123160Y-86047660D01*
X116123165Y-86047662D01*
X116123169Y-86047662D01*
X116123170Y-86047663D01*
X116316456Y-86086111D01*
X116316459Y-86086111D01*
X116513543Y-86086111D01*
X116643582Y-86060243D01*
X116706835Y-86047662D01*
X116888914Y-85972243D01*
X117052782Y-85862750D01*
X117192139Y-85723393D01*
X117301632Y-85559525D01*
X117377051Y-85377446D01*
X117415500Y-85184152D01*
X117415500Y-84987070D01*
X117415500Y-84987067D01*
X117377052Y-84793781D01*
X117377051Y-84793780D01*
X117377051Y-84793776D01*
X117377049Y-84793771D01*
X117301635Y-84611703D01*
X117301628Y-84611690D01*
X117192139Y-84447829D01*
X117192136Y-84447825D01*
X117052785Y-84308474D01*
X117052781Y-84308471D01*
X116888920Y-84198982D01*
X116888907Y-84198975D01*
X116706839Y-84123561D01*
X116706829Y-84123558D01*
X116513543Y-84085111D01*
X116513541Y-84085111D01*
X116316459Y-84085111D01*
X116316457Y-84085111D01*
X116123170Y-84123558D01*
X116123160Y-84123561D01*
X115941092Y-84198975D01*
X115941079Y-84198982D01*
X115777218Y-84308471D01*
X115777214Y-84308474D01*
X115637863Y-84447825D01*
X115637860Y-84447829D01*
X115528371Y-84611690D01*
X115528364Y-84611703D01*
X115452950Y-84793771D01*
X115452947Y-84793781D01*
X115414500Y-84987067D01*
X115414500Y-84987070D01*
X115414500Y-85184152D01*
X115414500Y-85184154D01*
X115414499Y-85184154D01*
X77754900Y-85184154D01*
X77754900Y-83744454D01*
X77774585Y-83677415D01*
X77827389Y-83631660D01*
X77896547Y-83621716D01*
X77960103Y-83650741D01*
X77990620Y-83690653D01*
X78050112Y-83814191D01*
X78050116Y-83814197D01*
X78193562Y-84042489D01*
X78361666Y-84253285D01*
X78552315Y-84443934D01*
X78763111Y-84612038D01*
X78991403Y-84755484D01*
X79234321Y-84872467D01*
X79425449Y-84939345D01*
X79488797Y-84961512D01*
X79488805Y-84961515D01*
X79488808Y-84961515D01*
X79488809Y-84961516D01*
X79751668Y-85021512D01*
X80019587Y-85051699D01*
X80019588Y-85051700D01*
X80019591Y-85051700D01*
X80289212Y-85051700D01*
X80289212Y-85051699D01*
X80557132Y-85021512D01*
X80819991Y-84961516D01*
X81074479Y-84872467D01*
X81317397Y-84755484D01*
X81545689Y-84612038D01*
X81756485Y-84443934D01*
X81947134Y-84253285D01*
X82115238Y-84042489D01*
X82258684Y-83814197D01*
X82375667Y-83571279D01*
X82464716Y-83316791D01*
X82524712Y-83053932D01*
X82554900Y-82786009D01*
X82554900Y-82516391D01*
X82524712Y-82248468D01*
X82464716Y-81985609D01*
X82375667Y-81731121D01*
X82258684Y-81488203D01*
X82115238Y-81259911D01*
X81947134Y-81049115D01*
X81756485Y-80858466D01*
X81545689Y-80690362D01*
X81317397Y-80546916D01*
X81317398Y-80546916D01*
X81317391Y-80546912D01*
X81163343Y-80472727D01*
X81111483Y-80425905D01*
X81093170Y-80358478D01*
X81114218Y-80291854D01*
X81167944Y-80247185D01*
X81217181Y-80237007D01*
X124622730Y-80250141D01*
G37*
%TD.AperFunction*%
%TD*%
%TA.AperFunction,Conductor*%
%TO.N,/CC1*%
G36*
X85399782Y-90645205D02*
G01*
X85407213Y-90650198D01*
X85408939Y-90658985D01*
X85408306Y-90661085D01*
X85125838Y-91355074D01*
X85119545Y-91361445D01*
X85115001Y-91362363D01*
X84927541Y-91362363D01*
X84919268Y-91358936D01*
X84916704Y-91355074D01*
X84634235Y-90661083D01*
X84634290Y-90652130D01*
X84640661Y-90645837D01*
X84642749Y-90645207D01*
X85018963Y-90569415D01*
X85023579Y-90569415D01*
X85399782Y-90645205D01*
G37*
%TD.AperFunction*%
%TD*%
%TA.AperFunction,Conductor*%
%TO.N,/CC1*%
G36*
X85123342Y-91678213D02*
G01*
X85125870Y-91681987D01*
X85356640Y-92236009D01*
X85356657Y-92244964D01*
X85352359Y-92250223D01*
X85031793Y-92465381D01*
X85023014Y-92467146D01*
X85022962Y-92467136D01*
X84649174Y-92391832D01*
X84641741Y-92386838D01*
X84640015Y-92378051D01*
X84640614Y-92376036D01*
X84690681Y-92250223D01*
X84916737Y-91682160D01*
X84922980Y-91675740D01*
X84927608Y-91674786D01*
X85115069Y-91674786D01*
X85123342Y-91678213D01*
G37*
%TD.AperFunction*%
%TD*%
%TA.AperFunction,Conductor*%
%TO.N,/D-*%
G36*
X82303005Y-90425689D02*
G01*
X82303049Y-90425718D01*
X82623274Y-90640648D01*
X82628234Y-90648104D01*
X82627335Y-90655356D01*
X82365765Y-91209706D01*
X82359136Y-91215725D01*
X82355184Y-91216413D01*
X82167671Y-91216413D01*
X82159398Y-91212986D01*
X82156641Y-91208616D01*
X81957662Y-90646256D01*
X81911134Y-90514755D01*
X81911605Y-90505813D01*
X81918261Y-90499823D01*
X81919846Y-90499384D01*
X82294218Y-90423963D01*
X82303005Y-90425689D01*
G37*
%TD.AperFunction*%
%TD*%
%TA.AperFunction,Conductor*%
%TO.N,/D-*%
G36*
X82363003Y-91181364D02*
G01*
X82365567Y-91185226D01*
X82648035Y-91879214D01*
X82647980Y-91888169D01*
X82641609Y-91894462D01*
X82639509Y-91895095D01*
X82263311Y-91970884D01*
X82258689Y-91970884D01*
X81983521Y-91915448D01*
X81882489Y-91895094D01*
X81875057Y-91890101D01*
X81873331Y-91881314D01*
X81873961Y-91879222D01*
X82156433Y-91185225D01*
X82162726Y-91178855D01*
X82167270Y-91177937D01*
X82354730Y-91177937D01*
X82363003Y-91181364D01*
G37*
%TD.AperFunction*%
%TD*%
M02*
